  0
SECTION
  2
HEADER
  9
$ACADVER
  1
AC1009
  9
$INSBASE
 10
0.000000
 20
0.000000
  9
$LIMMIN
 10
-20.421600
 20
-20.421600
  9
$LIMMAX
 10
32.740600
 20
32.740600
  9
$EXTMIN
 10
-20.421600
 20
-20.421600
  9
$EXTMAX
 10
32.740600
 20
32.740600
  9
$ATTMODE
 70
0
  9
$LUNITS
 70
2
  9
$LUPREC
 70
2
  9
$THICKNESS
 40
0.731520
  0
ENDSEC
  0
SECTION
  2
TABLES
  0
TABLE
  2
LTYPE
 70
1
  0
LTYPE
  3
Solid Line
  2
CONTINUOUS
 70
0
 72
65
 73
0
 40
0.000000
  0
ENDTAB
  0
TABLE
  2
LAYER
 70
170
  0
LAYER
  2
DXF
 70
0
 62
124
  6
CONTINUOUS
  0
LAYER
  2
DXF
 70
0
 62
174
  6
CONTINUOUS
  0
LAYER
  2
DXF
 70
0
 62
204
  6
CONTINUOUS
  0
LAYER
  2
DXF
 70
0
 62
96
  6
CONTINUOUS
  0
LAYER
  2
DXF
 70
0
 62
85
  6
CONTINUOUS
  0
LAYER
  2
DXF
 70
0
 62
85
  6
CONTINUOUS
  0
LAYER
  2
DXF
 70
0
 62
85
  6
CONTINUOUS
  0
LAYER
  2
DXF
 70
0
 62
69
  6
CONTINUOUS
  0
LAYER
  2
DXF
 70
0
 62
54
  6
CONTINUOUS
  0
LAYER
  2
DXF
 70
0
 62
85
  6
CONTINUOUS
  0
LAYER
  2
DXF
 70
0
 62
152
  6
CONTINUOUS
  0
LAYER
  2
DXF
 70
0
 62
134
  6
CONTINUOUS
  0
LAYER
  2
DXF
 70
0
 62
85
  6
CONTINUOUS
  0
LAYER
  2
DXF
 70
0
 62
85
  6
CONTINUOUS
  0
LAYER
  2
DXF
 70
0
 62
85
  6
CONTINUOUS
  0
LAYER
  2
DXF
 70
0
 62
85
  6
CONTINUOUS
  0
LAYER
  2
DXF
 70
0
 62
85
  6
CONTINUOUS
  0
LAYER
  2
DXF
 70
0
 62
85
  6
CONTINUOUS
  0
LAYER
  2
DXF
 70
0
 62
85
  6
CONTINUOUS
  0
LAYER
  2
DXF
 70
0
 62
85
  6
CONTINUOUS
  0
LAYER
  2
DXF
 70
0
 62
85
  6
CONTINUOUS
  0
LAYER
  2
DXF
 70
0
 62
85
  6
CONTINUOUS
  0
LAYER
  2
DXF
 70
0
 62
85
  6
CONTINUOUS
  0
LAYER
  2
DXF
 70
0
 62
1
  6
CONTINUOUS
  0
LAYER
  2
DXF
 70
0
 62
85
  6
CONTINUOUS
  0
LAYER
  2
DXF
 70
0
 62
85
  6
CONTINUOUS
  0
LAYER
  2
DXF
 70
0
 62
85
  6
CONTINUOUS
  0
LAYER
  2
DXF
 70
0
 62
85
  6
CONTINUOUS
  0
LAYER
  2
DXF
 70
0
 62
85
  6
CONTINUOUS
  0
LAYER
  2
DXF
 70
0
 62
85
  6
CONTINUOUS
  0
LAYER
  2
DXF
 70
0
 62
85
  6
CONTINUOUS
  0
LAYER
  2
DXF
 70
0
 62
85
  6
CONTINUOUS
  0
LAYER
  2
DXF
 70
0
 62
85
  6
CONTINUOUS
  0
LAYER
  2
DXF
 70
0
 62
85
  6
CONTINUOUS
  0
LAYER
  2
DXF
 70
0
 62
85
  6
CONTINUOUS
  0
LAYER
  2
DXF
 70
0
 62
85
  6
CONTINUOUS
  0
LAYER
  2
DXF
 70
0
 62
85
  6
CONTINUOUS
  0
LAYER
  2
DXF
 70
0
 62
85
  6
CONTINUOUS
  0
LAYER
  2
DXF
 70
0
 62
85
  6
CONTINUOUS
  0
LAYER
  2
DXF
 70
0
 62
85
  6
CONTINUOUS
  0
LAYER
  2
DXF
 70
0
 62
85
  6
CONTINUOUS
  0
LAYER
  2
DXF
 70
0
 62
85
  6
CONTINUOUS
  0
LAYER
  2
DXF
 70
0
 62
85
  6
CONTINUOUS
  0
LAYER
  2
DXF
 70
0
 62
85
  6
CONTINUOUS
  0
LAYER
  2
DXF
 70
0
 62
85
  6
CONTINUOUS
  0
LAYER
  2
DXF
 70
0
 62
85
  6
CONTINUOUS
  0
LAYER
  2
DXF
 70
0
 62
27
  6
CONTINUOUS
  0
LAYER
  2
DXF
 70
0
 62
85
  6
CONTINUOUS
  0
LAYER
  2
DXF
 70
0
 62
85
  6
CONTINUOUS
  0
LAYER
  2
DXF
 70
0
 62
12
  6
CONTINUOUS
  0
LAYER
  2
DXF
 70
0
 62
85
  6
CONTINUOUS
  0
LAYER
  2
DXF
 70
0
 62
85
  6
CONTINUOUS
  0
LAYER
  2
DXF
 70
0
 62
85
  6
CONTINUOUS
  0
LAYER
  2
DXF
 70
0
 62
85
  6
CONTINUOUS
  0
LAYER
  2
DXF
 70
0
 62
85
  6
CONTINUOUS
  0
LAYER
  2
DXF
 70
0
 62
85
  6
CONTINUOUS
  0
LAYER
  2
DXF
 70
0
 62
85
  6
CONTINUOUS
  0
LAYER
  2
DXF
 70
0
 62
85
  6
CONTINUOUS
  0
LAYER
  2
DXF
 70
0
 62
85
  6
CONTINUOUS
  0
LAYER
  2
DXF
 70
0
 62
85
  6
CONTINUOUS
  0
LAYER
  2
DXF
 70
0
 62
85
  6
CONTINUOUS
  0
LAYER
  2
DXF
 70
0
 62
85
  6
CONTINUOUS
  0
LAYER
  2
DXF
 70
0
 62
85
  6
CONTINUOUS
  0
LAYER
  2
DXF
 70
0
 62
85
  6
CONTINUOUS
  0
LAYER
  2
DXF
 70
0
 62
85
  6
CONTINUOUS
  0
LAYER
  2
DXF
 70
0
 62
85
  6
CONTINUOUS
  0
LAYER
  2
DXF
 70
0
 62
85
  6
CONTINUOUS
  0
LAYER
  2
DXF
 70
0
 62
85
  6
CONTINUOUS
  0
LAYER
  2
DXF
 70
0
 62
85
  6
CONTINUOUS
  0
LAYER
  2
DXF
 70
0
 62
85
  6
CONTINUOUS
  0
LAYER
  2
DXF
 70
0
 62
85
  6
CONTINUOUS
  0
LAYER
  2
DXF
 70
0
 62
85
  6
CONTINUOUS
  0
LAYER
  2
DXF
 70
0
 62
85
  6
CONTINUOUS
  0
LAYER
  2
DXF
 70
0
 62
85
  6
CONTINUOUS
  0
LAYER
  2
DXF
 70
0
 62
12
  6
CONTINUOUS
  0
LAYER
  2
DXF
 70
0
 62
111
  6
CONTINUOUS
  0
LAYER
  2
DXF
 70
0
 62
202
  6
CONTINUOUS
  0
LAYER
  2
DXF
 70
0
 62
202
  6
CONTINUOUS
  0
LAYER
  2
DXF
 70
0
 62
202
  6
CONTINUOUS
  0
LAYER
  2
DXF
 70
0
 62
202
  6
CONTINUOUS
  0
LAYER
  2
DXF
 70
0
 62
202
  6
CONTINUOUS
  0
LAYER
  2
DXF
 70
0
 62
234
  6
CONTINUOUS
  0
LAYER
  2
DXF
 70
0
 62
234
  6
CONTINUOUS
  0
LAYER
  2
DXF
 70
0
 62
234
  6
CONTINUOUS
  0
LAYER
  2
DXF
 70
0
 62
234
  6
CONTINUOUS
  0
LAYER
  2
DXF
 70
0
 62
234
  6
CONTINUOUS
  0
LAYER
  2
DXF
 70
0
 62
27
  6
CONTINUOUS
  0
LAYER
  2
DXF
 70
0
 62
85
  6
CONTINUOUS
  0
LAYER
  2
DXF
 70
0
 62
85
  6
CONTINUOUS
  0
LAYER
  2
DXF
 70
0
 62
12
  6
CONTINUOUS
  0
LAYER
  2
DXF
 70
0
 62
85
  6
CONTINUOUS
  0
LAYER
  2
DXF
 70
0
 62
85
  6
CONTINUOUS
  0
LAYER
  2
DXF
 70
0
 62
85
  6
CONTINUOUS
  0
LAYER
  2
DXF
 70
0
 62
85
  6
CONTINUOUS
  0
LAYER
  2
DXF
 70
0
 62
85
  6
CONTINUOUS
  0
LAYER
  2
DXF
 70
0
 62
85
  6
CONTINUOUS
  0
LAYER
  2
DXF
 70
0
 62
142
  6
CONTINUOUS
  0
LAYER
  2
DXF
 70
0
 62
142
  6
CONTINUOUS
  0
LAYER
  2
DXF
 70
0
 62
142
  6
CONTINUOUS
  0
LAYER
  2
DXF
 70
0
 62
142
  6
CONTINUOUS
  0
LAYER
  2
DXF
 70
0
 62
142
  6
CONTINUOUS
  0
LAYER
  2
DXF
 70
0
 62
142
  6
CONTINUOUS
  0
LAYER
  2
DXF
 70
0
 62
0
  6
CONTINUOUS
  0
LAYER
  2
DXF
 70
0
 62
0
  6
CONTINUOUS
  0
LAYER
  2
DXF
 70
0
 62
43
  6
CONTINUOUS
  0
LAYER
  2
DXF
 70
0
 62
43
  6
CONTINUOUS
  0
LAYER
  2
DXF
 70
0
 62
43
  6
CONTINUOUS
  0
LAYER
  2
DXF
 70
0
 62
43
  6
CONTINUOUS
  0
LAYER
  2
DXF
 70
0
 62
43
  6
CONTINUOUS
  0
LAYER
  2
DXF
 70
0
 62
253
  6
CONTINUOUS
  0
LAYER
  2
DXF
 70
0
 62
85
  6
CONTINUOUS
  0
LAYER
  2
DXF
 70
0
 62
85
  6
CONTINUOUS
  0
LAYER
  2
DXF
 70
0
 62
85
  6
CONTINUOUS
  0
LAYER
  2
DXF
 70
0
 62
253
  6
CONTINUOUS
  0
LAYER
  2
DXF
 70
0
 62
85
  6
CONTINUOUS
  0
LAYER
  2
DXF
 70
0
 62
85
  6
CONTINUOUS
  0
LAYER
  2
DXF
 70
0
 62
85
  6
CONTINUOUS
  0
LAYER
  2
DXF
 70
0
 62
85
  6
CONTINUOUS
  0
LAYER
  2
DXF
 70
0
 62
85
  6
CONTINUOUS
  0
LAYER
  2
DXF
 70
0
 62
85
  6
CONTINUOUS
  0
LAYER
  2
DXF
 70
0
 62
85
  6
CONTINUOUS
  0
LAYER
  2
DXF
 70
0
 62
85
  6
CONTINUOUS
  0
LAYER
  2
DXF
 70
0
 62
85
  6
CONTINUOUS
  0
LAYER
  2
DXF
 70
0
 62
85
  6
CONTINUOUS
  0
LAYER
  2
DXF
 70
0
 62
85
  6
CONTINUOUS
  0
LAYER
  2
DXF
 70
0
 62
85
  6
CONTINUOUS
  0
LAYER
  2
DXF
 70
0
 62
85
  6
CONTINUOUS
  0
LAYER
  2
DXF
 70
0
 62
85
  6
CONTINUOUS
  0
LAYER
  2
DXF
 70
0
 62
85
  6
CONTINUOUS
  0
LAYER
  2
DXF
 70
0
 62
85
  6
CONTINUOUS
  0
LAYER
  2
DXF
 70
0
 62
27
  6
CONTINUOUS
  0
LAYER
  2
DXF
 70
0
 62
85
  6
CONTINUOUS
  0
LAYER
  2
DXF
 70
0
 62
85
  6
CONTINUOUS
  0
LAYER
  2
DXF
 70
0
 62
12
  6
CONTINUOUS
  0
LAYER
  2
DXF
 70
0
 62
85
  6
CONTINUOUS
  0
LAYER
  2
DXF
 70
0
 62
85
  6
CONTINUOUS
  0
LAYER
  2
DXF
 70
0
 62
85
  6
CONTINUOUS
  0
LAYER
  2
DXF
 70
0
 62
85
  6
CONTINUOUS
  0
LAYER
  2
DXF
 70
0
 62
85
  6
CONTINUOUS
  0
LAYER
  2
DXF
 70
0
 62
85
  6
CONTINUOUS
  0
LAYER
  2
DXF
 70
0
 62
253
  6
CONTINUOUS
  0
LAYER
  2
DXF
 70
0
 62
85
  6
CONTINUOUS
  0
LAYER
  2
DXF
 70
0
 62
85
  6
CONTINUOUS
  0
LAYER
  2
DXF
 70
0
 62
85
  6
CONTINUOUS
  0
LAYER
  2
DXF
 70
0
 62
253
  6
CONTINUOUS
  0
LAYER
  2
DXF
 70
0
 62
80
  6
CONTINUOUS
  0
LAYER
  2
DXF
 70
0
 62
85
  6
CONTINUOUS
  0
LAYER
  2
DXF
 70
0
 62
85
  6
CONTINUOUS
  0
LAYER
  2
DXF
 70
0
 62
85
  6
CONTINUOUS
  0
LAYER
  2
DXF
 70
0
 62
85
  6
CONTINUOUS
  0
LAYER
  2
DXF
 70
0
 62
230
  6
CONTINUOUS
  0
LAYER
  2
DXF
 70
0
 62
85
  6
CONTINUOUS
  0
LAYER
  2
DXF
 70
0
 62
85
  6
CONTINUOUS
  0
LAYER
  2
DXF
 70
0
 62
85
  6
CONTINUOUS
  0
LAYER
  2
DXF
 70
0
 62
230
  6
CONTINUOUS
  0
LAYER
  2
DXF
 70
0
 62
230
  6
CONTINUOUS
  0
LAYER
  2
DXF
 70
0
 62
230
  6
CONTINUOUS
  0
LAYER
  2
DXF
 70
0
 62
230
  6
CONTINUOUS
  0
LAYER
  2
DXF
 70
0
 62
27
  6
CONTINUOUS
  0
LAYER
  2
DXF
 70
0
 62
85
  6
CONTINUOUS
  0
LAYER
  2
DXF
 70
0
 62
85
  6
CONTINUOUS
  0
LAYER
  2
DXF
 70
0
 62
12
  6
CONTINUOUS
  0
LAYER
  2
DXF
 70
0
 62
85
  6
CONTINUOUS
  0
LAYER
  2
DXF
 70
0
 62
85
  6
CONTINUOUS
  0
LAYER
  2
DXF
 70
0
 62
85
  6
CONTINUOUS
  0
LAYER
  2
DXF
 70
0
 62
85
  6
CONTINUOUS
  0
LAYER
  2
DXF
 70
0
 62
85
  6
CONTINUOUS
  0
LAYER
  2
DXF
 70
0
 62
85
  6
CONTINUOUS
  0
LAYER
  2
DXF
 70
0
 62
2
  6
CONTINUOUS
  0
LAYER
  2
DXF
 70
0
 62
2
  6
CONTINUOUS
  0
ENDTAB
  0
TABLE
  2
STYLE
 70
1
  0
STYLE
  2
STANDARD
 70
0
 40
0.000000
 41
1.000000
 50
0.000000
 71
0
 42
0.200000
  3
txt
  0
ENDTAB
  0
ENDSEC
  0
SECTION
  2
BLOCKS
  0
BLOCK
  8
0
  2
FIGURE_CIRCLE
 70
0
 10
0.000000
 20
0.000000
  0
CIRCLE
  8
0
 10
0.000000
 20
0.000000
 40
0.500000
  0
ENDBLK
  0
BLOCK
  8
0
  2
FIGURE_SQUARE
 70
0
 10
0.000000
 20
0.000000
  0
POLYLINE
  8
0
 66
1
 70
1
 40
0.000000
 41
0.000000
 39
0.000000
  0
VERTEX
  8
0
 10
-0.500000
 20
-0.500000
 40
0.000000
 41
0.000000
 42
0.000000
  0
VERTEX
  8
0
 10
-0.500000
 20
0.500000
 40
0.000000
 41
0.000000
 42
0.000000
  0
VERTEX
  8
0
 10
0.500000
 20
0.500000
 40
0.000000
 41
0.000000
 42
0.000000
  0
VERTEX
  8
0
 10
0.500000
 20
-0.500000
 40
0.000000
 41
0.000000
 42
0.000000
  0
SEQEND
  0
ENDBLK
  0
BLOCK
  8
0
  2
FIGURE_HEX
 70
0
 10
0.000000
 20
0.000000
  0
POLYLINE
  8
0
 66
1
 70
1
 40
0.000000
 41
0.000000
 39
0.000000
  0
VERTEX
  8
0
 10
-0.500000
 20
0.000000
 40
0.000000
 41
0.000000
 42
0.000000
  0
VERTEX
  8
0
 10
-0.250000
 20
0.500000
 40
0.000000
 41
0.000000
 42
0.000000
  0
VERTEX
  8
0
 10
0.250000
 20
0.500000
 40
0.000000
 41
0.000000
 42
0.000000
  0
VERTEX
  8
0
 10
0.500000
 20
0.000000
 40
0.000000
 41
0.000000
 42
0.000000
  0
VERTEX
  8
0
 10
0.250000
 20
-0.500000
 40
0.000000
 41
0.000000
 42
0.000000
  0
VERTEX
  8
0
 10
-0.250000
 20
-0.500000
 40
0.000000
 41
0.000000
 42
0.000000
  0
SEQEND
  0
ENDBLK
  0
BLOCK
  8
0
  2
FIGURE_OCT
 70
0
 10
0.000000
 20
0.000000
  0
POLYLINE
  8
0
 66
1
 70
1
 40
0.000000
 41
0.000000
 39
0.000000
  0
VERTEX
  8
0
 10
-0.500000
 20
-0.207100
 40
0.000000
 41
0.000000
 42
0.000000
  0
VERTEX
  8
0
 10
-0.500000
 20
0.207100
 40
0.000000
 41
0.000000
 42
0.000000
  0
VERTEX
  8
0
 10
-0.207100
 20
0.500000
 40
0.000000
 41
0.000000
 42
0.000000
  0
VERTEX
  8
0
 10
0.207100
 20
0.500000
 40
0.000000
 41
0.000000
 42
0.000000
  0
VERTEX
  8
0
 10
0.500000
 20
0.207100
 40
0.000000
 41
0.000000
 42
0.000000
  0
VERTEX
  8
0
 10
0.500000
 20
-0.207100
 40
0.000000
 41
0.000000
 42
0.000000
  0
VERTEX
  8
0
 10
0.207100
 20
-0.500000
 40
0.000000
 41
0.000000
 42
0.000000
  0
VERTEX
  8
0
 10
-0.207100
 20
-0.500000
 40
0.000000
 41
0.000000
 42
0.000000
  0
SEQEND
  0
ENDBLK
  0
BLOCK
  8
0
  2
FIGURE_OBLONG
 70
0
 10
0.000000
 20
0.000000
  0
POLYLINE
  8
0
 66
1
 70
1
 40
0.000000
 41
0.000000
 39
0.000000
  0
VERTEX
  8
0
 10
-0.500000
 20
-0.125000
 40
0.000000
 41
0.000000
 42
0.000000
  0
VERTEX
  8
0
 10
-0.500000
 20
0.125000
 40
0.000000
 41
0.000000
 42
0.000000
  0
VERTEX
  8
0
 10
-0.416000
 20
0.375000
 40
0.000000
 41
0.000000
 42
0.000000
  0
VERTEX
  8
0
 10
-0.250000
 20
0.500000
 40
0.000000
 41
0.000000
 42
0.000000
  0
VERTEX
  8
0
 10
0.250000
 20
0.500000
 40
0.000000
 41
0.000000
 42
0.000000
  0
VERTEX
  8
0
 10
0.416000
 20
0.375000
 40
0.000000
 41
0.000000
 42
0.000000
  0
VERTEX
  8
0
 10
0.500000
 20
0.125000
 40
0.000000
 41
0.000000
 42
0.000000
  0
VERTEX
  8
0
 10
0.500000
 20
-0.125000
 40
0.000000
 41
0.000000
 42
0.000000
  0
VERTEX
  8
0
 10
0.416000
 20
-0.375000
 40
0.000000
 41
0.000000
 42
0.000000
  0
VERTEX
  8
0
 10
0.250000
 20
-0.500000
 40
0.000000
 41
0.000000
 42
0.000000
  0
VERTEX
  8
0
 10
-0.250000
 20
-0.500000
 40
0.000000
 41
0.000000
 42
0.000000
  0
VERTEX
  8
0
 10
-0.416000
 20
-0.375000
 40
0.000000
 41
0.000000
 42
0.000000
  0
SEQEND
  0
ENDBLK
  0
BLOCK
  8
0
  2
FIGURE_TRI
 70
0
 10
0.000000
 20
0.000000
  0
POLYLINE
  8
0
 66
1
 70
1
 40
0.000000
 41
0.000000
 39
0.000000
  0
VERTEX
  8
0
 10
-0.500000
 20
-0.500000
 40
0.000000
 41
0.000000
 42
0.000000
  0
VERTEX
  8
0
 10
0.000000
 20
0.500000
 40
0.000000
 41
0.000000
 42
0.000000
  0
VERTEX
  8
0
 10
0.500000
 20
-0.500000
 40
0.000000
 41
0.000000
 42
0.000000
  0
SEQEND
  0
ENDBLK
  0
BLOCK
  8
0
  2
FIGURE_CROSS
 70
0
 10
0.000000
 20
0.000000
  0
POLYLINE
  8
0
 66
1
 70
0
 40
0.000000
 41
0.000000
 39
0.000000
  0
VERTEX
  8
0
 10
-0.500000
 20
0.000000
 40
0.000000
 41
0.000000
 42
0.000000
  0
VERTEX
  8
0
 10
0.500000
 20
0.000000
 40
0.000000
 41
0.000000
 42
0.000000
  0
SEQEND
  0
POLYLINE
  8
0
 66
1
 70
0
 40
0.000000
 41
0.000000
 39
0.000000
  0
VERTEX
  8
0
 10
0.000000
 20
0.500000
 40
0.000000
 41
0.000000
 42
0.000000
  0
VERTEX
  8
0
 10
0.000000
 20
-0.500000
 40
0.000000
 41
0.000000
 42
0.000000
  0
SEQEND
  0
ENDBLK
  0
BLOCK
  8
0
  2
FIGURE_DIAMOND
 70
0
 10
0.000000
 20
0.000000
  0
POLYLINE
  8
0
 66
1
 70
1
 40
0.000000
 41
0.000000
 39
0.000000
  0
VERTEX
  8
0
 10
-0.500000
 20
0.000000
 40
0.000000
 41
0.000000
 42
0.000000
  0
VERTEX
  8
0
 10
0.000000
 20
0.500000
 40
0.000000
 41
0.000000
 42
0.000000
  0
VERTEX
  8
0
 10
0.500000
 20
0.000000
 40
0.000000
 41
0.000000
 42
0.000000
  0
VERTEX
  8
0
 10
0.000000
 20
-0.500000
 40
0.000000
 41
0.000000
 42
0.000000
  0
SEQEND
  0
ENDBLK
  0
ENDSEC
  0
SECTION
  2
ENTITIES
  0
POLYLINE
  8
DXF
 66
1
 70
0
 40
0.000000
 41
0.000000
 39
0.000000
  0
VERTEX
  8
DXF
 10
-2.794000
 20
2.921000
 40
0.203200
 41
0.203200
 42
0.000000
  0
VERTEX
  8
DXF
 10
7.874000
 20
2.921000
 40
0.203200
 41
0.203200
 42
0.000000
  0
SEQEND
  0
POLYLINE
  8
DXF
 66
1
 70
0
 40
0.000000
 41
0.000000
 39
0.000000
  0
VERTEX
  8
DXF
 10
7.874000
 20
2.921000
 40
0.203200
 41
0.203200
 42
0.000000
  0
VERTEX
  8
DXF
 10
7.874000
 20
-2.794000
 40
0.203200
 41
0.203200
 42
0.000000
  0
SEQEND
  0
POLYLINE
  8
DXF
 66
1
 70
0
 40
0.000000
 41
0.000000
 39
0.000000
  0
VERTEX
  8
DXF
 10
7.874000
 20
-2.794000
 40
0.203200
 41
0.203200
 42
0.000000
  0
VERTEX
  8
DXF
 10
-2.794000
 20
-2.794000
 40
0.203200
 41
0.203200
 42
0.000000
  0
SEQEND
  0
POLYLINE
  8
DXF
 66
1
 70
0
 40
0.000000
 41
0.000000
 39
0.000000
  0
VERTEX
  8
DXF
 10
-2.794000
 20
-2.794000
 40
0.203200
 41
0.203200
 42
0.000000
  0
VERTEX
  8
DXF
 10
-2.794000
 20
2.921000
 40
0.203200
 41
0.203200
 42
0.000000
  0
SEQEND
  0
POLYLINE
  8
DXF
 66
1
 70
0
 40
0.000000
 41
0.000000
 39
0.000000
  0
VERTEX
  8
DXF
 10
-2.794000
 20
2.921000
 40
0.203200
 41
0.203200
 42
0.000000
  0
VERTEX
  8
DXF
 10
-2.794000
 20
-2.794000
 40
0.203200
 41
0.203200
 42
0.000000
  0
SEQEND
  0
POLYLINE
  8
DXF
 66
1
 70
0
 40
0.000000
 41
0.000000
 39
0.000000
  0
VERTEX
  8
DXF
 10
-2.794000
 20
-2.794000
 40
0.203200
 41
0.203200
 42
0.000000
  0
VERTEX
  8
DXF
 10
7.874000
 20
-2.794000
 40
0.203200
 41
0.203200
 42
0.000000
  0
SEQEND
  0
POLYLINE
  8
DXF
 66
1
 70
0
 40
0.000000
 41
0.000000
 39
0.000000
  0
VERTEX
  8
DXF
 10
7.874000
 20
-2.794000
 40
0.203200
 41
0.203200
 42
0.000000
  0
VERTEX
  8
DXF
 10
7.874000
 20
2.921000
 40
0.203200
 41
0.203200
 42
0.000000
  0
SEQEND
  0
POLYLINE
  8
DXF
 66
1
 70
0
 40
0.000000
 41
0.000000
 39
0.000000
  0
VERTEX
  8
DXF
 10
7.874000
 20
2.921000
 40
0.203200
 41
0.203200
 42
0.000000
  0
VERTEX
  8
DXF
 10
-2.794000
 20
2.921000
 40
0.203200
 41
0.203200
 42
0.000000
  0
SEQEND
  0
POLYLINE
  8
DXF
 66
1
 70
0
 40
0.000000
 41
0.000000
 39
0.000000
  0
VERTEX
  8
DXF
 10
-2.794000
 20
1.524000
 40
0.203200
 41
0.203200
 42
0.000000
  0
VERTEX
  8
DXF
 10
7.874000
 20
1.524000
 40
0.203200
 41
0.203200
 42
0.000000
  0
SEQEND
  0
POLYLINE
  8
DXF
 66
1
 70
0
 40
0.000000
 41
0.000000
 39
0.000000
  0
VERTEX
  8
DXF
 10
-2.794000
 20
1.524000
 40
0.203200
 41
0.203200
 42
0.000000
  0
VERTEX
  8
DXF
 10
7.874000
 20
1.524000
 40
0.203200
 41
0.203200
 42
0.000000
  0
SEQEND
  0
POLYLINE
  8
DXF
 66
1
 70
0
 40
0.000000
 41
0.000000
 39
0.000000
  0
VERTEX
  8
DXF
 10
-6.350000
 20
2.921000
 40
0.203200
 41
0.203200
 42
0.000000
  0
VERTEX
  8
DXF
 10
-7.620000
 20
2.921000
 40
0.203200
 41
0.203200
 42
0.000000
  0
SEQEND
  0
POLYLINE
  8
DXF
 66
1
 70
0
 40
0.000000
 41
0.000000
 39
0.000000
  0
VERTEX
  8
DXF
 10
-7.620000
 20
2.921000
 40
0.203200
 41
0.203200
 42
0.000000
  0
VERTEX
  8
DXF
 10
-7.620000
 20
19.939000
 40
0.203200
 41
0.203200
 42
0.000000
  0
SEQEND
  0
POLYLINE
  8
DXF
 66
1
 70
0
 40
0.000000
 41
0.000000
 39
0.000000
  0
VERTEX
  8
DXF
 10
-7.620000
 20
19.939000
 40
0.203200
 41
0.203200
 42
0.000000
  0
VERTEX
  8
DXF
 10
12.700000
 20
19.939000
 40
0.203200
 41
0.203200
 42
0.000000
  0
SEQEND
  0
POLYLINE
  8
DXF
 66
1
 70
0
 40
0.000000
 41
0.000000
 39
0.000000
  0
VERTEX
  8
DXF
 10
12.700000
 20
19.939000
 40
0.203200
 41
0.203200
 42
0.000000
  0
VERTEX
  8
DXF
 10
12.700000
 20
2.921000
 40
0.203200
 41
0.203200
 42
0.000000
  0
SEQEND
  0
POLYLINE
  8
DXF
 66
1
 70
0
 40
0.000000
 41
0.000000
 39
0.000000
  0
VERTEX
  8
DXF
 10
12.700000
 20
2.921000
 40
0.203200
 41
0.203200
 42
0.000000
  0
VERTEX
  8
DXF
 10
-6.350000
 20
2.921000
 40
0.203200
 41
0.203200
 42
0.000000
  0
SEQEND
  0
POLYLINE
  8
DXF
 66
1
 70
0
 40
0.000000
 41
0.000000
 39
0.000000
  0
VERTEX
  8
DXF
 10
2.540000
 20
19.177000
 40
0.203200
 41
0.203200
 42
-1.000000
  0
VERTEX
  8
DXF
 10
2.540000
 20
11.557000
 40
0.203200
 41
0.203200
 42
-1.000000
  0
VERTEX
  8
DXF
 10
2.540000
 20
19.177000
 40
0.203200
 41
0.203200
 42
0.000000
  0
SEQEND
  0
POLYLINE
  8
DXF
 66
1
 70
1
 40
0.000000
 41
0.000000
 39
0.000000
  0
VERTEX
  8
DXF
 10
-2.895600
 20
-2.895600
 40
0.000000
 41
0.000000
 42
0.000000
  0
VERTEX
  8
DXF
 10
-2.895600
 20
3.022600
 40
0.000000
 41
0.000000
 42
0.000000
  0
VERTEX
  8
DXF
 10
7.975600
 20
3.022600
 40
0.000000
 41
0.000000
 42
0.000000
  0
VERTEX
  8
DXF
 10
7.975600
 20
-2.895600
 40
0.000000
 41
0.000000
 42
0.000000
  0
SEQEND
  0
POLYLINE
  8
DXF
 66
1
 70
1
 40
0.000000
 41
0.000000
 39
0.000000
  0
VERTEX
  8
DXF
 10
-0.952500
 20
-0.952500
 40
0.000000
 41
0.000000
 42
0.000000
  0
VERTEX
  8
DXF
 10
-0.952500
 20
0.952500
 40
0.000000
 41
0.000000
 42
0.000000
  0
VERTEX
  8
DXF
 10
0.952500
 20
0.952500
 40
0.000000
 41
0.000000
 42
0.000000
  0
VERTEX
  8
DXF
 10
0.952500
 20
-0.952500
 40
0.000000
 41
0.000000
 42
0.000000
  0
SEQEND
  0
POLYLINE
  8
DXF
 66
1
 70
1
 40
0.000000
 41
0.000000
 39
0.000000
  0
VERTEX
  8
DXF
 10
-1.206500
 20
-1.206500
 40
0.000000
 41
0.000000
 42
0.000000
  0
VERTEX
  8
DXF
 10
-1.206500
 20
1.206500
 40
0.000000
 41
0.000000
 42
0.000000
  0
VERTEX
  8
DXF
 10
1.206500
 20
1.206500
 40
0.000000
 41
0.000000
 42
0.000000
  0
VERTEX
  8
DXF
 10
1.206500
 20
-1.206500
 40
0.000000
 41
0.000000
 42
0.000000
  0
SEQEND
  0
POLYLINE
  8
DXF
 66
1
 70
1
 40
0.000000
 41
0.000000
 39
0.000000
  0
VERTEX
  8
DXF
 10
-0.952500
 20
-0.952500
 40
0.000000
 41
0.000000
 42
0.000000
  0
VERTEX
  8
DXF
 10
-0.952500
 20
0.952500
 40
0.000000
 41
0.000000
 42
0.000000
  0
VERTEX
  8
DXF
 10
0.952500
 20
0.952500
 40
0.000000
 41
0.000000
 42
0.000000
  0
VERTEX
  8
DXF
 10
0.952500
 20
-0.952500
 40
0.000000
 41
0.000000
 42
0.000000
  0
SEQEND
  0
POLYLINE
  8
DXF
 66
1
 70
1
 40
0.000000
 41
0.000000
 39
0.000000
  0
VERTEX
  8
DXF
 10
-0.952500
 20
-0.952500
 40
0.000000
 41
0.000000
 42
0.000000
  0
VERTEX
  8
DXF
 10
-0.952500
 20
0.952500
 40
0.000000
 41
0.000000
 42
0.000000
  0
VERTEX
  8
DXF
 10
0.952500
 20
0.952500
 40
0.000000
 41
0.000000
 42
0.000000
  0
VERTEX
  8
DXF
 10
0.952500
 20
-0.952500
 40
0.000000
 41
0.000000
 42
0.000000
  0
SEQEND
  0
POLYLINE
  8
DXF
 66
1
 70
1
 40
0.000000
 41
0.000000
 39
0.000000
  0
VERTEX
  8
DXF
 10
-0.952500
 20
-0.952500
 40
0.000000
 41
0.000000
 42
0.000000
  0
VERTEX
  8
DXF
 10
-0.952500
 20
0.952500
 40
0.000000
 41
0.000000
 42
0.000000
  0
VERTEX
  8
DXF
 10
0.952500
 20
0.952500
 40
0.000000
 41
0.000000
 42
0.000000
  0
VERTEX
  8
DXF
 10
0.952500
 20
-0.952500
 40
0.000000
 41
0.000000
 42
0.000000
  0
SEQEND
  0
POLYLINE
  8
DXF
 66
1
 70
1
 40
0.000000
 41
0.000000
 39
0.000000
  0
VERTEX
  8
DXF
 10
-0.952500
 20
-0.952500
 40
0.000000
 41
0.000000
 42
0.000000
  0
VERTEX
  8
DXF
 10
-0.952500
 20
0.952500
 40
0.000000
 41
0.000000
 42
0.000000
  0
VERTEX
  8
DXF
 10
0.952500
 20
0.952500
 40
0.000000
 41
0.000000
 42
0.000000
  0
VERTEX
  8
DXF
 10
0.952500
 20
-0.952500
 40
0.000000
 41
0.000000
 42
0.000000
  0
SEQEND
  0
INSERT
  8
DXF
  2
FIGURE_CIRCLE
 10
0.000000
 20
0.000000
 41
1.371600
 42
1.371600
 50
0.000000
  0
TEXT
  8
DXF
 10
-0.457200
 20
-0.342900
 11
0.000000
 21
0.000000
 40
0.685800
 41
1.000000
 50
0.000000
  7
STANDARD
 71
0
 72
1
  1
A
 73
2
  0
TEXT
  8
DXF
 10
-0.211667
 20
0.000000
 11
0.000000
 21
0.000000
 40
0.635000
 41
0.880000
 50
0.000000
  7
STANDARD
 71
0
 72
1
  1
1
 73
0
  0
CIRCLE
  8
DXF
 10
2.540000
 20
0.000000
 40
0.952500
  0
CIRCLE
  8
DXF
 10
2.540000
 20
0.000000
 40
1.206500
  0
CIRCLE
  8
DXF
 10
2.540000
 20
0.000000
 40
0.952500
  0
CIRCLE
  8
DXF
 10
2.540000
 20
0.000000
 40
0.952500
  0
CIRCLE
  8
DXF
 10
2.540000
 20
0.000000
 40
0.952500
  0
CIRCLE
  8
DXF
 10
2.540000
 20
0.000000
 40
0.952500
  0
INSERT
  8
DXF
  2
FIGURE_CIRCLE
 10
2.540000
 20
0.000000
 41
1.371600
 42
1.371600
 50
0.000000
  0
TEXT
  8
DXF
 10
2.082800
 20
-0.342900
 11
2.540000
 21
0.000000
 40
0.685800
 41
1.000000
 50
0.000000
  7
STANDARD
 71
0
 72
1
  1
A
 73
2
  0
TEXT
  8
DXF
 10
2.328333
 20
0.000000
 11
2.540000
 21
0.000000
 40
0.635000
 41
0.880000
 50
0.000000
  7
STANDARD
 71
0
 72
1
  1
2
 73
0
  0
CIRCLE
  8
DXF
 10
5.080000
 20
0.000000
 40
0.952500
  0
CIRCLE
  8
DXF
 10
5.080000
 20
0.000000
 40
1.206500
  0
CIRCLE
  8
DXF
 10
5.080000
 20
0.000000
 40
0.952500
  0
CIRCLE
  8
DXF
 10
5.080000
 20
0.000000
 40
0.952500
  0
CIRCLE
  8
DXF
 10
5.080000
 20
0.000000
 40
0.952500
  0
CIRCLE
  8
DXF
 10
5.080000
 20
0.000000
 40
0.952500
  0
INSERT
  8
DXF
  2
FIGURE_CIRCLE
 10
5.080000
 20
0.000000
 41
1.371600
 42
1.371600
 50
0.000000
  0
TEXT
  8
DXF
 10
4.622800
 20
-0.342900
 11
5.080000
 21
0.000000
 40
0.685800
 41
1.000000
 50
0.000000
  7
STANDARD
 71
0
 72
1
  1
A
 73
2
  0
TEXT
  8
DXF
 10
4.868333
 20
0.000000
 11
5.080000
 21
0.000000
 40
0.635000
 41
0.880000
 50
0.000000
  7
STANDARD
 71
0
 72
1
  1
3
 73
0
  0
CIRCLE
  8
DXF
 10
2.540000
 20
15.367000
 40
1.714500
  0
CIRCLE
  8
DXF
 10
2.540000
 20
15.367000
 40
1.778000
  0
CIRCLE
  8
DXF
 10
2.540000
 20
15.367000
 40
1.549400
  0
CIRCLE
  8
DXF
 10
2.540000
 20
15.367000
 40
1.714500
  0
CIRCLE
  8
DXF
 10
2.540000
 20
15.367000
 40
1.587500
  0
CIRCLE
  8
DXF
 10
2.540000
 20
15.367000
 40
1.587500
  0
INSERT
  8
DXF
  2
FIGURE_CIRCLE
 10
2.540000
 20
15.367000
 41
2.997200
 42
2.997200
 50
0.000000
  0
TEXT
  8
DXF
 10
1.540933
 20
14.617700
 11
2.540000
 21
15.367000
 40
1.498600
 41
1.000000
 50
0.000000
  7
STANDARD
 71
0
 72
1
  1
A
 73
2
  0
TEXT
  8
DXF
 10
2.328333
 20
15.367000
 11
2.540000
 21
15.367000
 40
0.635000
 41
0.880000
 50
0.000000
  7
STANDARD
 71
0
 72
1
  1
4
 73
0
  0
TEXT
  8
DXF
 10
-7.721600
 20
-5.054600
 11
0.000000
 21
0.000000
 40
1.905000
 41
1.000000
 50
0.000000
  7
STANDARD
 71
0
 72
0
  1
&COMP
 73
0
  0
TEXT
  8
DXF
 10
-7.721600
 20
-5.054600
 11
0.000000
 21
0.000000
 40
1.905000
 41
1.000000
 50
0.000000
  7
STANDARD
 71
0
 72
0
  1
&COMP
 73
0
  0
TEXT
  8
DXF
 10
-7.721600
 20
-5.054600
 11
0.000000
 21
0.000000
 40
1.905000
 41
1.000000
 50
0.000000
  7
STANDARD
 71
0
 72
0
  1
#REFDES
 73
0
  0
INSERT
  8
DXF
  2
FIGURE_CROSS
 10
0.000000
 20
0.000000
 41
1.270000
 42
1.270000
 50
0.000000
  0
ENDSEC
  0
EOF
