solid 0ZCC
facet normal 1 0 0
  outer loop
    vertex 92 -67 1
    vertex 92 67 60
    vertex 92 -67 60
  endloop
endfacet
facet normal 1 0 0
  outer loop
    vertex 92 -67 1
    vertex 92 67 1
    vertex 92 67 60
  endloop
endfacet
facet normal -1 0 0
  outer loop
    vertex -92 67 1
    vertex -92 -67 60
    vertex -92 67 60
  endloop
endfacet
facet normal -1 0 0
  outer loop
    vertex -92 67 1
    vertex -92 -67 1
    vertex -92 -67 60
  endloop
endfacet
facet normal 0 -1 0
  outer loop
    vertex -92 -67 1
    vertex 92 -67 60
    vertex -92 -67 60
  endloop
endfacet
facet normal 0 -1 0
  outer loop
    vertex -92 -67 1
    vertex 92 -67 1
    vertex 92 -67 60
  endloop
endfacet
facet normal 0 1 0
  outer loop
    vertex 92 67 1
    vertex -92 67 60
    vertex 92 67 60
  endloop
endfacet
facet normal 0 1 0
  outer loop
    vertex 92 67 1
    vertex -92 67 1
    vertex -92 67 60
  endloop
endfacet
facet normal 0 0 -1
  outer loop
    vertex 92 -67 1
    vertex -92 67 1
    vertex 92 67 1
  endloop
endfacet
facet normal 0 0 -1
  outer loop
    vertex 92 -67 1
    vertex -92 -67 1
    vertex -92 67 1
  endloop
endfacet
facet normal 0 0 1
  outer loop
    vertex 92 -67 60
    vertex 92 67 60
    vertex -92 67 60
  endloop
endfacet
facet normal 0 0 1
  outer loop
    vertex 92 -67 60
    vertex -92 67 60
    vertex -92 -67 60
  endloop
endfacet
facet normal 0 0 -1
  outer loop
    vertex -40.8 -67.1 .9
    vertex -54.4 -67.1 .9
    vertex -40.8 67.1 .9
  endloop
endfacet
facet normal 0 0 -1
  outer loop
    vertex -40.8 67.1 .9
    vertex -54.4 -67.1 .9
    vertex -54.4 67.1 .9
  endloop
endfacet
facet normal 0 0 1
  outer loop
    vertex -40.8 -67.1 60.1
    vertex -40.8 67.1 60.1
    vertex -54.4 -67.1 60.1
  endloop
endfacet
facet normal 0 0 1
  outer loop
    vertex -54.4 -67.1 60.1
    vertex -40.8 67.1 60.1
    vertex -54.4 67.1 60.1
  endloop
endfacet
facet normal 0 1 0
  outer loop
    vertex -40.8 67.1 60.1
    vertex -40.8 67.1 .9
    vertex -54.4 67.1 .9
  endloop
endfacet
facet normal 0 1 0
  outer loop
    vertex -40.8 67.1 60.1
    vertex -54.4 67.1 .9
    vertex -54.4 67.1 60.1
  endloop
endfacet
facet normal 0 -1 0
  outer loop
    vertex -40.8 -67.1 .9
    vertex -40.8 -67.1 60.1
    vertex -54.4 -67.1 .9
  endloop
endfacet
facet normal 0 -1 0
  outer loop
    vertex -54.4 -67.1 60.1
    vertex -54.4 -67.1 .9
    vertex -40.8 -67.1 60.1
  endloop
endfacet
facet normal 0 0 -1
  outer loop
    vertex -40.8 -67 1
    vertex -54.4 -67 1
    vertex -40.8 67 1
  endloop
endfacet
facet normal 0 0 -1
  outer loop
    vertex -40.8 67 1
    vertex -54.4 -67 1
    vertex -54.4 67 1
  endloop
endfacet
facet normal 0 0 1
  outer loop
    vertex -40.8 -67 60
    vertex -40.8 67 60
    vertex -54.4 -67 60
  endloop
endfacet
facet normal 0 0 1
  outer loop
    vertex -54.4 -67 60
    vertex -40.8 67 60
    vertex -54.4 67 60
  endloop
endfacet
facet normal 0 1 0
  outer loop
    vertex -40.8 67 60
    vertex -40.8 67 1
    vertex -54.4 67 1
  endloop
endfacet
facet normal 0 1 0
  outer loop
    vertex -40.8 67 60
    vertex -54.4 67 1
    vertex -54.4 67 60
  endloop
endfacet
facet normal 0 -1 0
  outer loop
    vertex -40.8 -67 1
    vertex -40.8 -67 60
    vertex -54.4 -67 1
  endloop
endfacet
facet normal 0 -1 0
  outer loop
    vertex -54.4 -67 60
    vertex -54.4 -67 1
    vertex -40.8 -67 60
  endloop
endfacet
facet normal -1 0 0
  outer loop
    vertex -54.4 67.1 60.1
    vertex -54.4 67 60
    vertex -54.4 -67.1 60.1
  endloop
endfacet
facet normal -1 0 0
  outer loop
    vertex -54.4 67 60
    vertex -54.4 -67 60
    vertex -54.4 -67.1 60.1
  endloop
endfacet
facet normal -1 0 0
  outer loop
    vertex -54.4 -67.1 60.1
    vertex -54.4 -67 60
    vertex -54.4 -67.1 .9
  endloop
endfacet
facet normal -1 0 0
  outer loop
    vertex -54.4 -67 60
    vertex -54.4 -67 1
    vertex -54.4 -67.1 .9
  endloop
endfacet
facet normal -1 0 0
  outer loop
    vertex -54.4 67.1 .9
    vertex -54.4 -67.1 .9
    vertex -54.4 67 1
  endloop
endfacet
facet normal -1 0 0
  outer loop
    vertex -54.4 67 1
    vertex -54.4 -67.1 .9
    vertex -54.4 -67 1
  endloop
endfacet
facet normal -1 0 0
  outer loop
    vertex -54.4 67.1 60.1
    vertex -54.4 67.1 .9
    vertex -54.4 67 60
  endloop
endfacet
facet normal -1 0 0
  outer loop
    vertex -54.4 67 60
    vertex -54.4 67.1 .9
    vertex -54.4 67 1
  endloop
endfacet
facet normal 1 0 0
  outer loop
    vertex -40.8 -67.1 60.1
    vertex -40.8 -67 60
    vertex -40.8 67.1 60.1
  endloop
endfacet
facet normal 1 0 0
  outer loop
    vertex -40.8 -67 60
    vertex -40.8 67 60
    vertex -40.8 67.1 60.1
  endloop
endfacet
facet normal 1 0 0
  outer loop
    vertex -40.8 67.1 60.1
    vertex -40.8 67 60
    vertex -40.8 67.1 .9
  endloop
endfacet
facet normal 1 0 0
  outer loop
    vertex -40.8 67 60
    vertex -40.8 67 1
    vertex -40.8 67.1 .9
  endloop
endfacet
facet normal 1 0 0
  outer loop
    vertex -40.8 -67.1 .9
    vertex -40.8 67.1 .9
    vertex -40.8 -67 1
  endloop
endfacet
facet normal 1 0 0
  outer loop
    vertex -40.8 -67 1
    vertex -40.8 67.1 .9
    vertex -40.8 67 1
  endloop
endfacet
facet normal 1 0 0
  outer loop
    vertex -40.8 -67.1 60.1
    vertex -40.8 -67.1 .9
    vertex -40.8 -67 60
  endloop
endfacet
facet normal 1 0 0
  outer loop
    vertex -40.8 -67 60
    vertex -40.8 -67.1 .9
    vertex -40.8 -67 1
  endloop
endfacet
facet normal 1 0 0
  outer loop
    vertex 93 -69 0
    vertex 93 69 61
    vertex 93 -69 61
  endloop
endfacet
facet normal 1 0 0
  outer loop
    vertex 93 -69 0
    vertex 93 69 0
    vertex 93 69 61
  endloop
endfacet
facet normal 0 1 0
  outer loop
    vertex 93 69 61
    vertex 93 69 0
    vertex 92 69 60
  endloop
endfacet
facet normal 0 1 0
  outer loop
    vertex 92 69 60
    vertex 93 69 0
    vertex 92 69 1
  endloop
endfacet
facet normal 0 1 0
  outer loop
    vertex 92 69 1
    vertex 93 69 0
    vertex 68 69 1
  endloop
endfacet
facet normal 0 1 0
  outer loop
    vertex 68 69 0
    vertex 68 69 1
    vertex 93 69 0
  endloop
endfacet
facet normal -1 0 0
  outer loop
    vertex 68 69 0
    vertex 68 -69 1
    vertex 68 69 1
  endloop
endfacet
facet normal -1 0 0
  outer loop
    vertex 68 69 0
    vertex 68 -69 0
    vertex 68 -69 1
  endloop
endfacet
facet normal 0 -1 0
  outer loop
    vertex 92 -69 1
    vertex 68 -69 1
    vertex 68 -69 0
  endloop
endfacet
facet normal 0 -1 0
  outer loop
    vertex 92 -69 1
    vertex 68 -69 0
    vertex 93 -69 0
  endloop
endfacet
facet normal 0 -1 0
  outer loop
    vertex 92 -69 1
    vertex 93 -69 61
    vertex 92 -69 60
  endloop
endfacet
facet normal 0 -1 0
  outer loop
    vertex 92 -69 1
    vertex 93 -69 0
    vertex 93 -69 61
  endloop
endfacet
facet normal -1 0 0
  outer loop
    vertex 92 69 60
    vertex 92 -69 1
    vertex 92 -69 60
  endloop
endfacet
facet normal -1 0 0
  outer loop
    vertex 92 69 60
    vertex 92 69 1
    vertex 92 -69 1
  endloop
endfacet
facet normal 0 0 1
  outer loop
    vertex 92 -69 1
    vertex 92 69 1
    vertex 68 -69 1
  endloop
endfacet
facet normal 0 0 1
  outer loop
    vertex 92 69 1
    vertex 68 69 1
    vertex 68 -69 1
  endloop
endfacet
facet normal 0 0 -1
  outer loop
    vertex 93 -69 0
    vertex 68 -69 0
    vertex 93 69 0
  endloop
endfacet
facet normal 0 0 -1
  outer loop
    vertex 93 69 0
    vertex 68 -69 0
    vertex 68 69 0
  endloop
endfacet
facet normal 0 1 0
  outer loop
    vertex 93 69 61
    vertex 92 69 60
    vertex 68 69 61
  endloop
endfacet
facet normal 0 1 0
  outer loop
    vertex 68 69 61
    vertex 92 69 60
    vertex 68 69 60
  endloop
endfacet
facet normal -1 0 0
  outer loop
    vertex 68 69 60
    vertex 68 -69 61
    vertex 68 69 61
  endloop
endfacet
facet normal -1 0 0
  outer loop
    vertex 68 -69 61
    vertex 68 69 60
    vertex 68 -69 60
  endloop
endfacet
facet normal 0 -1 0
  outer loop
    vertex 68 -69 61
    vertex 92 -69 60
    vertex 93 -69 61
  endloop
endfacet
facet normal 0 -1 0
  outer loop
    vertex 68 -69 61
    vertex 68 -69 60
    vertex 92 -69 60
  endloop
endfacet
facet normal 0 0 1
  outer loop
    vertex 93 69 61
    vertex 68 -69 61
    vertex 93 -69 61
  endloop
endfacet
facet normal 0 0 1
  outer loop
    vertex 68 -69 61
    vertex 93 69 61
    vertex 68 69 61
  endloop
endfacet
facet normal 0 0 -1
  outer loop
    vertex 68 -69 60
    vertex 68 69 60
    vertex 92 -69 60
  endloop
endfacet
facet normal 0 0 -1
  outer loop
    vertex 92 -69 60
    vertex 68 69 60
    vertex 92 69 60
  endloop
endfacet
facet normal -1 0 0
  outer loop
    vertex -93 69 0
    vertex -93 -69 61
    vertex -93 69 61
  endloop
endfacet
facet normal -1 0 0
  outer loop
    vertex -93 69 0
    vertex -93 -69 0
    vertex -93 -69 61
  endloop
endfacet
facet normal 0 -1 0
  outer loop
    vertex -93 -69 61
    vertex -93 -69 0
    vertex -92 -69 60
  endloop
endfacet
facet normal 0 -1 0
  outer loop
    vertex -92 -69 60
    vertex -93 -69 0
    vertex -92 -69 1
  endloop
endfacet
facet normal 0 -1 0
  outer loop
    vertex -92 -69 1
    vertex -93 -69 0
    vertex -68 -69 1
  endloop
endfacet
facet normal 0 -1 0
  outer loop
    vertex -68 -69 0
    vertex -68 -69 1
    vertex -93 -69 0
  endloop
endfacet
facet normal 1 0 0
  outer loop
    vertex -68 -69 0
    vertex -68 69 1
    vertex -68 -69 1
  endloop
endfacet
facet normal 1 0 0
  outer loop
    vertex -68 -69 0
    vertex -68 69 0
    vertex -68 69 1
  endloop
endfacet
facet normal 0 1 0
  outer loop
    vertex -92 69 1
    vertex -68 69 1
    vertex -68 69 0
  endloop
endfacet
facet normal 0 1 0
  outer loop
    vertex -92 69 1
    vertex -68 69 0
    vertex -93 69 0
  endloop
endfacet
facet normal 0 1 0
  outer loop
    vertex -92 69 1
    vertex -93 69 61
    vertex -92 69 60
  endloop
endfacet
facet normal 0 1 0
  outer loop
    vertex -92 69 1
    vertex -93 69 0
    vertex -93 69 61
  endloop
endfacet
facet normal 1 0 0
  outer loop
    vertex -92 -69 60
    vertex -92 69 1
    vertex -92 69 60
  endloop
endfacet
facet normal 1 0 0
  outer loop
    vertex -92 -69 60
    vertex -92 -69 1
    vertex -92 69 1
  endloop
endfacet
facet normal 0 0 1
  outer loop
    vertex -92 69 1
    vertex -92 -69 1
    vertex -68 69 1
  endloop
endfacet
facet normal 0 0 1
  outer loop
    vertex -92 -69 1
    vertex -68 -69 1
    vertex -68 69 1
  endloop
endfacet
facet normal 0 0 -1
  outer loop
    vertex -93 69 0
    vertex -68 69 0
    vertex -93 -69 0
  endloop
endfacet
facet normal 0 0 -1
  outer loop
    vertex -93 -69 0
    vertex -68 69 0
    vertex -68 -69 0
  endloop
endfacet
facet normal 0 -1 0
  outer loop
    vertex -93 -69 61
    vertex -92 -69 60
    vertex -68 -69 61
  endloop
endfacet
facet normal 0 -1 0
  outer loop
    vertex -68 -69 61
    vertex -92 -69 60
    vertex -68 -69 60
  endloop
endfacet
facet normal 1 0 0
  outer loop
    vertex -68 -69 60
    vertex -68 69 61
    vertex -68 -69 61
  endloop
endfacet
facet normal 1 0 0
  outer loop
    vertex -68 69 61
    vertex -68 -69 60
    vertex -68 69 60
  endloop
endfacet
facet normal 0 1 0
  outer loop
    vertex -68 69 61
    vertex -92 69 60
    vertex -93 69 61
  endloop
endfacet
facet normal 0 1 0
  outer loop
    vertex -68 69 61
    vertex -68 69 60
    vertex -92 69 60
  endloop
endfacet
facet normal 0 0 1
  outer loop
    vertex -93 -69 61
    vertex -68 69 61
    vertex -93 69 61
  endloop
endfacet
facet normal 0 0 1
  outer loop
    vertex -68 69 61
    vertex -93 -69 61
    vertex -68 -69 61
  endloop
endfacet
facet normal 0 0 -1
  outer loop
    vertex -68 69 60
    vertex -68 -69 60
    vertex -92 69 60
  endloop
endfacet
facet normal 0 0 -1
  outer loop
    vertex -92 69 60
    vertex -68 -69 60
    vertex -92 -69 60
  endloop
endfacet
endsolid 0ZCC
