solid 21-0136I_T1633-5-L
facet normal 0 0 -1
  outer loop
    vertex -48.8 29.52756 31.999
    vertex -45.8086048947701 30.1225854821492 31.999
    vertex -45.75 29.52756 31.999
  endloop
endfacet
facet normal 0 0 -1
  outer loop
    vertex -48.8 29.52756 31.999
    vertex -45.9821674258406 30.6947444687135 31.999
    vertex -45.8086048947701 30.1225854821492 31.999
  endloop
endfacet
facet normal 0 0 -1
  outer loop
    vertex -48.8 29.52756 31.999
    vertex -46.2640176824772 31.2220492107098 31.999
    vertex -45.9821674258406 30.6947444687135 31.999
  endloop
endfacet
facet normal 0 0 -1
  outer loop
    vertex -48.8 29.52756 31.999
    vertex -46.643324317381 31.684235682619 31.999
    vertex -46.2640176824772 31.2220492107098 31.999
  endloop
endfacet
facet normal 0 0 -1
  outer loop
    vertex -48.8 29.52756 31.999
    vertex -47.1055107892902 32.0635423175228 31.999
    vertex -46.643324317381 31.684235682619 31.999
  endloop
endfacet
facet normal 0 0 -1
  outer loop
    vertex -48.8 29.52756 31.999
    vertex -47.6328155312865 32.3453925741594 31.999
    vertex -47.1055107892902 32.0635423175228 31.999
  endloop
endfacet
facet normal 0 0 -1
  outer loop
    vertex -48.8 29.52756 31.999
    vertex -48.2049745178508 32.5189551052299 31.999
    vertex -47.6328155312865 32.3453925741594 31.999
  endloop
endfacet
facet normal 0 0 -1
  outer loop
    vertex -48.8 29.52756 31.999
    vertex -48.8 32.57756 31.999
    vertex -48.2049745178508 32.5189551052299 31.999
  endloop
endfacet
facet normal 0 0 -1
  outer loop
    vertex -48.8 29.52756 31.999
    vertex -49.3950254821492 32.5189551052299 31.999
    vertex -48.8 32.57756 31.999
  endloop
endfacet
facet normal 0 0 -1
  outer loop
    vertex -48.8 29.52756 31.999
    vertex -49.9671844687135 32.3453925741594 31.999
    vertex -49.3950254821492 32.5189551052299 31.999
  endloop
endfacet
facet normal 0 0 -1
  outer loop
    vertex -48.8 29.52756 31.999
    vertex -50.4944892107098 32.0635423175228 31.999
    vertex -49.9671844687135 32.3453925741594 31.999
  endloop
endfacet
facet normal 0 0 -1
  outer loop
    vertex -48.8 29.52756 31.999
    vertex -50.956675682619 31.684235682619 31.999
    vertex -50.4944892107098 32.0635423175228 31.999
  endloop
endfacet
facet normal 0 0 -1
  outer loop
    vertex -48.8 29.52756 31.999
    vertex -51.3359823175228 31.2220492107098 31.999
    vertex -50.956675682619 31.684235682619 31.999
  endloop
endfacet
facet normal 0 0 -1
  outer loop
    vertex -48.8 29.52756 31.999
    vertex -51.6178325741594 30.6947444687135 31.999
    vertex -51.3359823175228 31.2220492107098 31.999
  endloop
endfacet
facet normal 0 0 -1
  outer loop
    vertex -48.8 29.52756 31.999
    vertex -51.7913951052299 30.1225854821492 31.999
    vertex -51.6178325741594 30.6947444687135 31.999
  endloop
endfacet
facet normal 0 0 -1
  outer loop
    vertex -48.8 29.52756 31.999
    vertex -51.85 29.52756 31.999
    vertex -51.7913951052299 30.1225854821492 31.999
  endloop
endfacet
facet normal 0 0 -1
  outer loop
    vertex -48.8 29.52756 31.999
    vertex -51.7913951052299 28.9325345178508 31.999
    vertex -51.85 29.52756 31.999
  endloop
endfacet
facet normal 0 0 -1
  outer loop
    vertex -48.8 29.52756 31.999
    vertex -51.6178325741594 28.3603755312865 31.999
    vertex -51.7913951052299 28.9325345178508 31.999
  endloop
endfacet
facet normal 0 0 -1
  outer loop
    vertex -48.8 29.52756 31.999
    vertex -51.3359823175228 27.8330707892902 31.999
    vertex -51.6178325741594 28.3603755312865 31.999
  endloop
endfacet
facet normal 0 0 -1
  outer loop
    vertex -48.8 29.52756 31.999
    vertex -50.956675682619 27.370884317381 31.999
    vertex -51.3359823175228 27.8330707892902 31.999
  endloop
endfacet
facet normal 0 0 -1
  outer loop
    vertex -48.8 29.52756 31.999
    vertex -50.4944892107098 26.9915776824772 31.999
    vertex -50.956675682619 27.370884317381 31.999
  endloop
endfacet
facet normal 0 0 -1
  outer loop
    vertex -48.8 29.52756 31.999
    vertex -49.9671844687135 26.7097274258406 31.999
    vertex -50.4944892107098 26.9915776824772 31.999
  endloop
endfacet
facet normal 0 0 -1
  outer loop
    vertex -48.8 29.52756 31.999
    vertex -49.3950254821492 26.5361648947701 31.999
    vertex -49.9671844687135 26.7097274258406 31.999
  endloop
endfacet
facet normal 0 0 -1
  outer loop
    vertex -48.8 29.52756 31.999
    vertex -48.8 26.47756 31.999
    vertex -49.3950254821492 26.5361648947701 31.999
  endloop
endfacet
facet normal 0 0 -1
  outer loop
    vertex -48.8 29.52756 31.999
    vertex -48.2049745178508 26.5361648947701 31.999
    vertex -48.8 26.47756 31.999
  endloop
endfacet
facet normal 0 0 -1
  outer loop
    vertex -48.8 29.52756 31.999
    vertex -47.6328155312865 26.7097274258406 31.999
    vertex -48.2049745178508 26.5361648947701 31.999
  endloop
endfacet
facet normal 0 0 -1
  outer loop
    vertex -48.8 29.52756 31.999
    vertex -47.1055107892902 26.9915776824772 31.999
    vertex -47.6328155312865 26.7097274258406 31.999
  endloop
endfacet
facet normal 0 0 -1
  outer loop
    vertex -48.8 29.52756 31.999
    vertex -46.643324317381 27.370884317381 31.999
    vertex -47.1055107892902 26.9915776824772 31.999
  endloop
endfacet
facet normal 0 0 -1
  outer loop
    vertex -48.8 29.52756 31.999
    vertex -46.2640176824772 27.8330707892902 31.999
    vertex -46.643324317381 27.370884317381 31.999
  endloop
endfacet
facet normal 0 0 -1
  outer loop
    vertex -48.8 29.52756 31.999
    vertex -45.9821674258406 28.3603755312865 31.999
    vertex -46.2640176824772 27.8330707892902 31.999
  endloop
endfacet
facet normal 0 0 -1
  outer loop
    vertex -48.8 29.52756 31.999
    vertex -45.8086048947701 28.9325345178508 31.999
    vertex -45.9821674258406 28.3603755312865 31.999
  endloop
endfacet
facet normal 0 0 -1
  outer loop
    vertex -48.8 29.52756 31.999
    vertex -45.75 29.52756 31.999
    vertex -45.8086048947701 28.9325345178508 31.999
  endloop
endfacet
facet normal 0 0 1
  outer loop
    vertex -48.8 29.52756 32.099
    vertex -45.75 29.52756 32.099
    vertex -45.8086048947701 30.1225854821492 32.099
  endloop
endfacet
facet normal 0 0 1
  outer loop
    vertex -48.8 29.52756 32.099
    vertex -45.8086048947701 30.1225854821492 32.099
    vertex -45.9821674258406 30.6947444687135 32.099
  endloop
endfacet
facet normal 0 0 1
  outer loop
    vertex -48.8 29.52756 32.099
    vertex -45.9821674258406 30.6947444687135 32.099
    vertex -46.2640176824772 31.2220492107098 32.099
  endloop
endfacet
facet normal 0 0 1
  outer loop
    vertex -48.8 29.52756 32.099
    vertex -46.2640176824772 31.2220492107098 32.099
    vertex -46.643324317381 31.684235682619 32.099
  endloop
endfacet
facet normal 0 0 1
  outer loop
    vertex -48.8 29.52756 32.099
    vertex -46.643324317381 31.684235682619 32.099
    vertex -47.1055107892902 32.0635423175228 32.099
  endloop
endfacet
facet normal 0 0 1
  outer loop
    vertex -48.8 29.52756 32.099
    vertex -47.1055107892902 32.0635423175228 32.099
    vertex -47.6328155312865 32.3453925741594 32.099
  endloop
endfacet
facet normal 0 0 1
  outer loop
    vertex -48.8 29.52756 32.099
    vertex -47.6328155312865 32.3453925741594 32.099
    vertex -48.2049745178508 32.5189551052299 32.099
  endloop
endfacet
facet normal 0 0 1
  outer loop
    vertex -48.8 29.52756 32.099
    vertex -48.2049745178508 32.5189551052299 32.099
    vertex -48.8 32.57756 32.099
  endloop
endfacet
facet normal 0 0 1
  outer loop
    vertex -48.8 29.52756 32.099
    vertex -48.8 32.57756 32.099
    vertex -49.3950254821492 32.5189551052299 32.099
  endloop
endfacet
facet normal 0 0 1
  outer loop
    vertex -48.8 29.52756 32.099
    vertex -49.3950254821492 32.5189551052299 32.099
    vertex -49.9671844687135 32.3453925741594 32.099
  endloop
endfacet
facet normal 0 0 1
  outer loop
    vertex -48.8 29.52756 32.099
    vertex -49.9671844687135 32.3453925741594 32.099
    vertex -50.4944892107098 32.0635423175228 32.099
  endloop
endfacet
facet normal 0 0 1
  outer loop
    vertex -48.8 29.52756 32.099
    vertex -50.4944892107098 32.0635423175228 32.099
    vertex -50.956675682619 31.684235682619 32.099
  endloop
endfacet
facet normal 0 0 1
  outer loop
    vertex -48.8 29.52756 32.099
    vertex -50.956675682619 31.684235682619 32.099
    vertex -51.3359823175228 31.2220492107098 32.099
  endloop
endfacet
facet normal 0 0 1
  outer loop
    vertex -48.8 29.52756 32.099
    vertex -51.3359823175228 31.2220492107098 32.099
    vertex -51.6178325741594 30.6947444687135 32.099
  endloop
endfacet
facet normal 0 0 1
  outer loop
    vertex -48.8 29.52756 32.099
    vertex -51.6178325741594 30.6947444687135 32.099
    vertex -51.7913951052299 30.1225854821492 32.099
  endloop
endfacet
facet normal 0 0 1
  outer loop
    vertex -48.8 29.52756 32.099
    vertex -51.7913951052299 30.1225854821492 32.099
    vertex -51.85 29.52756 32.099
  endloop
endfacet
facet normal 0 0 1
  outer loop
    vertex -48.8 29.52756 32.099
    vertex -51.85 29.52756 32.099
    vertex -51.7913951052299 28.9325345178508 32.099
  endloop
endfacet
facet normal 0 0 1
  outer loop
    vertex -48.8 29.52756 32.099
    vertex -51.7913951052299 28.9325345178508 32.099
    vertex -51.6178325741594 28.3603755312865 32.099
  endloop
endfacet
facet normal 0 0 1
  outer loop
    vertex -48.8 29.52756 32.099
    vertex -51.6178325741594 28.3603755312865 32.099
    vertex -51.3359823175228 27.8330707892902 32.099
  endloop
endfacet
facet normal 0 0 1
  outer loop
    vertex -48.8 29.52756 32.099
    vertex -51.3359823175228 27.8330707892902 32.099
    vertex -50.956675682619 27.370884317381 32.099
  endloop
endfacet
facet normal 0 0 1
  outer loop
    vertex -48.8 29.52756 32.099
    vertex -50.956675682619 27.370884317381 32.099
    vertex -50.4944892107098 26.9915776824772 32.099
  endloop
endfacet
facet normal 0 0 1
  outer loop
    vertex -48.8 29.52756 32.099
    vertex -50.4944892107098 26.9915776824772 32.099
    vertex -49.9671844687135 26.7097274258406 32.099
  endloop
endfacet
facet normal 0 0 1
  outer loop
    vertex -48.8 29.52756 32.099
    vertex -49.9671844687135 26.7097274258406 32.099
    vertex -49.3950254821492 26.5361648947701 32.099
  endloop
endfacet
facet normal 0 0 1
  outer loop
    vertex -48.8 29.52756 32.099
    vertex -49.3950254821492 26.5361648947701 32.099
    vertex -48.8 26.47756 32.099
  endloop
endfacet
facet normal 0 0 1
  outer loop
    vertex -48.8 29.52756 32.099
    vertex -48.8 26.47756 32.099
    vertex -48.2049745178508 26.5361648947701 32.099
  endloop
endfacet
facet normal 0 0 1
  outer loop
    vertex -48.8 29.52756 32.099
    vertex -48.2049745178508 26.5361648947701 32.099
    vertex -47.6328155312865 26.7097274258406 32.099
  endloop
endfacet
facet normal 0 0 1
  outer loop
    vertex -48.8 29.52756 32.099
    vertex -47.6328155312865 26.7097274258406 32.099
    vertex -47.1055107892902 26.9915776824772 32.099
  endloop
endfacet
facet normal 0 0 1
  outer loop
    vertex -48.8 29.52756 32.099
    vertex -47.1055107892902 26.9915776824772 32.099
    vertex -46.643324317381 27.370884317381 32.099
  endloop
endfacet
facet normal 0 0 1
  outer loop
    vertex -48.8 29.52756 32.099
    vertex -46.643324317381 27.370884317381 32.099
    vertex -46.2640176824772 27.8330707892902 32.099
  endloop
endfacet
facet normal 0 0 1
  outer loop
    vertex -48.8 29.52756 32.099
    vertex -46.2640176824772 27.8330707892902 32.099
    vertex -45.9821674258406 28.3603755312865 32.099
  endloop
endfacet
facet normal 0 0 1
  outer loop
    vertex -48.8 29.52756 32.099
    vertex -45.9821674258406 28.3603755312865 32.099
    vertex -45.8086048947701 28.9325345178508 32.099
  endloop
endfacet
facet normal 0 0 1
  outer loop
    vertex -48.8 29.52756 32.099
    vertex -45.8086048947701 28.9325345178508 32.099
    vertex -45.75 29.52756 32.099
  endloop
endfacet
facet normal .995184726672205 .098017140329479 0
  outer loop
    vertex -45.75 29.52756 31.999
    vertex -45.8086048947701 30.1225854821492 32.099
    vertex -45.75 29.52756 32.099
  endloop
endfacet
facet normal .95694033573217 .290284677254592 0
  outer loop
    vertex -45.8086048947701 30.1225854821492 31.999
    vertex -45.9821674258406 30.6947444687135 32.099
    vertex -45.8086048947701 30.1225854821492 32.099
  endloop
endfacet
facet normal .881921264348411 .471396736825892 0
  outer loop
    vertex -45.9821674258406 30.6947444687135 31.999
    vertex -46.2640176824772 31.2220492107098 32.099
    vertex -45.9821674258406 30.6947444687135 32.099
  endloop
endfacet
facet normal .773010453362743 .634393284163638 0
  outer loop
    vertex -46.2640176824772 31.2220492107098 31.999
    vertex -46.643324317381 31.684235682619 32.099
    vertex -46.2640176824772 31.2220492107098 32.099
  endloop
endfacet
facet normal .634393284163642 .77301045336274 0
  outer loop
    vertex -46.643324317381 31.684235682619 31.999
    vertex -47.1055107892902 32.0635423175228 32.099
    vertex -46.643324317381 31.684235682619 32.099
  endloop
endfacet
facet normal .471396736825888 .881921264348414 0
  outer loop
    vertex -47.1055107892902 32.0635423175228 31.999
    vertex -47.6328155312865 32.3453925741594 32.099
    vertex -47.1055107892902 32.0635423175228 32.099
  endloop
endfacet
facet normal .290284677254588 .956940335732171 0
  outer loop
    vertex -47.6328155312865 32.3453925741594 31.999
    vertex -48.2049745178508 32.5189551052299 32.099
    vertex -47.6328155312865 32.3453925741594 32.099
  endloop
endfacet
facet normal 9.80171403294796E-02 .995184726672205 0
  outer loop
    vertex -48.2049745178508 32.5189551052299 31.999
    vertex -48.8 32.57756 32.099
    vertex -48.2049745178508 32.5189551052299 32.099
  endloop
endfacet
facet normal -9.80171403294784E-02 .995184726672205 0
  outer loop
    vertex -48.8 32.57756 31.999
    vertex -49.3950254821492 32.5189551052299 32.099
    vertex -48.8 32.57756 32.099
  endloop
endfacet
facet normal -.290284677254592 .95694033573217 0
  outer loop
    vertex -49.3950254821492 32.5189551052299 31.999
    vertex -49.9671844687135 32.3453925741594 32.099
    vertex -49.3950254821492 32.5189551052299 32.099
  endloop
endfacet
facet normal -.471396736825883 .881921264348417 0
  outer loop
    vertex -49.9671844687135 32.3453925741594 31.999
    vertex -50.4944892107098 32.0635423175228 32.099
    vertex -49.9671844687135 32.3453925741594 32.099
  endloop
endfacet
facet normal -.634393284163642 .77301045336274 0
  outer loop
    vertex -50.4944892107098 32.0635423175228 31.999
    vertex -50.956675682619 31.684235682619 32.099
    vertex -50.4944892107098 32.0635423175228 32.099
  endloop
endfacet
facet normal -.773010453362743 .634393284163638 0
  outer loop
    vertex -50.956675682619 31.684235682619 31.999
    vertex -51.3359823175228 31.2220492107098 32.099
    vertex -50.956675682619 31.684235682619 32.099
  endloop
endfacet
facet normal -.881921264348411 .471396736825892 0
  outer loop
    vertex -51.3359823175228 31.2220492107098 31.999
    vertex -51.6178325741594 30.6947444687135 32.099
    vertex -51.3359823175228 31.2220492107098 32.099
  endloop
endfacet
facet normal -.95694033573217 .290284677254592 0
  outer loop
    vertex -51.6178325741594 30.6947444687135 31.999
    vertex -51.7913951052299 30.1225854821492 32.099
    vertex -51.6178325741594 30.6947444687135 32.099
  endloop
endfacet
facet normal -.995184726672205 .098017140329479 0
  outer loop
    vertex -51.7913951052299 30.1225854821492 31.999
    vertex -51.85 29.52756 32.099
    vertex -51.7913951052299 30.1225854821492 32.099
  endloop
endfacet
facet normal -.995184726672205 -.098017140329479 0
  outer loop
    vertex -51.85 29.52756 31.999
    vertex -51.7913951052299 28.9325345178508 32.099
    vertex -51.85 29.52756 32.099
  endloop
endfacet
facet normal -.95694033573217 -.29028467725459 0
  outer loop
    vertex -51.7913951052299 28.9325345178508 31.999
    vertex -51.6178325741594 28.3603755312865 32.099
    vertex -51.7913951052299 28.9325345178508 32.099
  endloop
endfacet
facet normal -.88192126434841 -.471396736825895 0
  outer loop
    vertex -51.6178325741594 28.3603755312865 31.999
    vertex -51.3359823175228 27.8330707892902 32.099
    vertex -51.6178325741594 28.3603755312865 32.099
  endloop
endfacet
facet normal -.773010453362743 -.634393284163638 0
  outer loop
    vertex -51.3359823175228 27.8330707892902 31.999
    vertex -50.956675682619 27.370884317381 32.099
    vertex -51.3359823175228 27.8330707892902 32.099
  endloop
endfacet
facet normal -.634393284163642 -.77301045336274 0
  outer loop
    vertex -50.956675682619 27.370884317381 31.999
    vertex -50.4944892107098 26.9915776824772 32.099
    vertex -50.956675682619 27.370884317381 32.099
  endloop
endfacet
facet normal -.471396736825887 -.881921264348414 0
  outer loop
    vertex -50.4944892107098 26.9915776824772 31.999
    vertex -49.9671844687135 26.7097274258406 32.099
    vertex -50.4944892107098 26.9915776824772 32.099
  endloop
endfacet
facet normal -.290284677254592 -.95694033573217 0
  outer loop
    vertex -49.9671844687135 26.7097274258406 31.999
    vertex -49.3950254821492 26.5361648947701 32.099
    vertex -49.9671844687135 26.7097274258406 32.099
  endloop
endfacet
facet normal -9.80171403294784E-02 -.995184726672205 0
  outer loop
    vertex -49.3950254821492 26.5361648947701 31.999
    vertex -48.8 26.47756 32.099
    vertex -49.3950254821492 26.5361648947701 32.099
  endloop
endfacet
facet normal 9.80171403294796E-02 -.995184726672205 0
  outer loop
    vertex -48.8 26.47756 31.999
    vertex -48.2049745178508 26.5361648947701 32.099
    vertex -48.8 26.47756 32.099
  endloop
endfacet
facet normal .290284677254588 -.956940335732171 0
  outer loop
    vertex -48.2049745178508 26.5361648947701 31.999
    vertex -47.6328155312865 26.7097274258406 32.099
    vertex -48.2049745178508 26.5361648947701 32.099
  endloop
endfacet
facet normal .471396736825892 -.881921264348411 0
  outer loop
    vertex -47.6328155312865 26.7097274258406 31.999
    vertex -47.1055107892902 26.9915776824772 32.099
    vertex -47.6328155312865 26.7097274258406 32.099
  endloop
endfacet
facet normal .634393284163642 -.77301045336274 0
  outer loop
    vertex -47.1055107892902 26.9915776824772 31.999
    vertex -46.643324317381 27.370884317381 32.099
    vertex -47.1055107892902 26.9915776824772 32.099
  endloop
endfacet
facet normal .773010453362743 -.634393284163638 0
  outer loop
    vertex -46.643324317381 27.370884317381 31.999
    vertex -46.2640176824772 27.8330707892902 32.099
    vertex -46.643324317381 27.370884317381 32.099
  endloop
endfacet
facet normal .88192126434841 -.471396736825895 0
  outer loop
    vertex -46.2640176824772 27.8330707892902 31.999
    vertex -45.9821674258406 28.3603755312865 32.099
    vertex -46.2640176824772 27.8330707892902 32.099
  endloop
endfacet
facet normal .95694033573217 -.29028467725459 0
  outer loop
    vertex -45.9821674258406 28.3603755312865 31.999
    vertex -45.8086048947701 28.9325345178508 32.099
    vertex -45.9821674258406 28.3603755312865 32.099
  endloop
endfacet
facet normal .995184726672205 -.098017140329479 0
  outer loop
    vertex -45.8086048947701 28.9325345178508 31.999
    vertex -45.75 29.52756 32.099
    vertex -45.8086048947701 28.9325345178508 32.099
  endloop
endfacet
facet normal .995184726672205 .098017140329479 0
  outer loop
    vertex -45.8086048947701 30.1225854821492 31.999
    vertex -45.8086048947701 30.1225854821492 32.099
    vertex -45.75 29.52756 31.999
  endloop
endfacet
facet normal .95694033573217 .290284677254592 0
  outer loop
    vertex -45.9821674258406 30.6947444687135 31.999
    vertex -45.9821674258406 30.6947444687135 32.099
    vertex -45.8086048947701 30.1225854821492 31.999
  endloop
endfacet
facet normal .881921264348411 .471396736825892 0
  outer loop
    vertex -46.2640176824772 31.2220492107098 31.999
    vertex -46.2640176824772 31.2220492107098 32.099
    vertex -45.9821674258406 30.6947444687135 31.999
  endloop
endfacet
facet normal .773010453362743 .634393284163638 0
  outer loop
    vertex -46.643324317381 31.684235682619 31.999
    vertex -46.643324317381 31.684235682619 32.099
    vertex -46.2640176824772 31.2220492107098 31.999
  endloop
endfacet
facet normal .634393284163642 .77301045336274 0
  outer loop
    vertex -47.1055107892902 32.0635423175228 31.999
    vertex -47.1055107892902 32.0635423175228 32.099
    vertex -46.643324317381 31.684235682619 31.999
  endloop
endfacet
facet normal .471396736825888 .881921264348414 0
  outer loop
    vertex -47.6328155312865 32.3453925741594 31.999
    vertex -47.6328155312865 32.3453925741594 32.099
    vertex -47.1055107892902 32.0635423175228 31.999
  endloop
endfacet
facet normal .290284677254588 .956940335732171 0
  outer loop
    vertex -48.2049745178508 32.5189551052299 31.999
    vertex -48.2049745178508 32.5189551052299 32.099
    vertex -47.6328155312865 32.3453925741594 31.999
  endloop
endfacet
facet normal 9.80171403294796E-02 .995184726672205 0
  outer loop
    vertex -48.8 32.57756 31.999
    vertex -48.8 32.57756 32.099
    vertex -48.2049745178508 32.5189551052299 31.999
  endloop
endfacet
facet normal -9.80171403294784E-02 .995184726672205 0
  outer loop
    vertex -49.3950254821492 32.5189551052299 31.999
    vertex -49.3950254821492 32.5189551052299 32.099
    vertex -48.8 32.57756 31.999
  endloop
endfacet
facet normal -.290284677254592 .95694033573217 0
  outer loop
    vertex -49.9671844687135 32.3453925741594 31.999
    vertex -49.9671844687135 32.3453925741594 32.099
    vertex -49.3950254821492 32.5189551052299 31.999
  endloop
endfacet
facet normal -.471396736825883 .881921264348417 0
  outer loop
    vertex -50.4944892107098 32.0635423175228 31.999
    vertex -50.4944892107098 32.0635423175228 32.099
    vertex -49.9671844687135 32.3453925741594 31.999
  endloop
endfacet
facet normal -.634393284163642 .77301045336274 0
  outer loop
    vertex -50.956675682619 31.684235682619 31.999
    vertex -50.956675682619 31.684235682619 32.099
    vertex -50.4944892107098 32.0635423175228 31.999
  endloop
endfacet
facet normal -.773010453362743 .634393284163638 0
  outer loop
    vertex -51.3359823175228 31.2220492107098 31.999
    vertex -51.3359823175228 31.2220492107098 32.099
    vertex -50.956675682619 31.684235682619 31.999
  endloop
endfacet
facet normal -.881921264348411 .471396736825892 0
  outer loop
    vertex -51.6178325741594 30.6947444687135 31.999
    vertex -51.6178325741594 30.6947444687135 32.099
    vertex -51.3359823175228 31.2220492107098 31.999
  endloop
endfacet
facet normal -.95694033573217 .290284677254592 0
  outer loop
    vertex -51.7913951052299 30.1225854821492 31.999
    vertex -51.7913951052299 30.1225854821492 32.099
    vertex -51.6178325741594 30.6947444687135 31.999
  endloop
endfacet
facet normal -.995184726672205 .098017140329479 0
  outer loop
    vertex -51.85 29.52756 31.999
    vertex -51.85 29.52756 32.099
    vertex -51.7913951052299 30.1225854821492 31.999
  endloop
endfacet
facet normal -.995184726672205 -.098017140329479 0
  outer loop
    vertex -51.7913951052299 28.9325345178508 31.999
    vertex -51.7913951052299 28.9325345178508 32.099
    vertex -51.85 29.52756 31.999
  endloop
endfacet
facet normal -.95694033573217 -.29028467725459 0
  outer loop
    vertex -51.6178325741594 28.3603755312865 31.999
    vertex -51.6178325741594 28.3603755312865 32.099
    vertex -51.7913951052299 28.9325345178508 31.999
  endloop
endfacet
facet normal -.88192126434841 -.471396736825895 0
  outer loop
    vertex -51.3359823175228 27.8330707892902 31.999
    vertex -51.3359823175228 27.8330707892902 32.099
    vertex -51.6178325741594 28.3603755312865 31.999
  endloop
endfacet
facet normal -.773010453362743 -.634393284163638 0
  outer loop
    vertex -50.956675682619 27.370884317381 31.999
    vertex -50.956675682619 27.370884317381 32.099
    vertex -51.3359823175228 27.8330707892902 31.999
  endloop
endfacet
facet normal -.634393284163642 -.77301045336274 0
  outer loop
    vertex -50.4944892107098 26.9915776824772 31.999
    vertex -50.4944892107098 26.9915776824772 32.099
    vertex -50.956675682619 27.370884317381 31.999
  endloop
endfacet
facet normal -.471396736825887 -.881921264348414 0
  outer loop
    vertex -49.9671844687135 26.7097274258406 31.999
    vertex -49.9671844687135 26.7097274258406 32.099
    vertex -50.4944892107098 26.9915776824772 31.999
  endloop
endfacet
facet normal -.290284677254592 -.95694033573217 0
  outer loop
    vertex -49.3950254821492 26.5361648947701 31.999
    vertex -49.3950254821492 26.5361648947701 32.099
    vertex -49.9671844687135 26.7097274258406 31.999
  endloop
endfacet
facet normal -9.80171403294784E-02 -.995184726672205 0
  outer loop
    vertex -48.8 26.47756 31.999
    vertex -48.8 26.47756 32.099
    vertex -49.3950254821492 26.5361648947701 31.999
  endloop
endfacet
facet normal 9.80171403294796E-02 -.995184726672205 0
  outer loop
    vertex -48.2049745178508 26.5361648947701 31.999
    vertex -48.2049745178508 26.5361648947701 32.099
    vertex -48.8 26.47756 31.999
  endloop
endfacet
facet normal .290284677254588 -.956940335732171 0
  outer loop
    vertex -47.6328155312865 26.7097274258406 31.999
    vertex -47.6328155312865 26.7097274258406 32.099
    vertex -48.2049745178508 26.5361648947701 31.999
  endloop
endfacet
facet normal .471396736825892 -.881921264348411 0
  outer loop
    vertex -47.1055107892902 26.9915776824772 31.999
    vertex -47.1055107892902 26.9915776824772 32.099
    vertex -47.6328155312865 26.7097274258406 31.999
  endloop
endfacet
facet normal .634393284163642 -.77301045336274 0
  outer loop
    vertex -46.643324317381 27.370884317381 31.999
    vertex -46.643324317381 27.370884317381 32.099
    vertex -47.1055107892902 26.9915776824772 31.999
  endloop
endfacet
facet normal .773010453362743 -.634393284163638 0
  outer loop
    vertex -46.2640176824772 27.8330707892902 31.999
    vertex -46.2640176824772 27.8330707892902 32.099
    vertex -46.643324317381 27.370884317381 31.999
  endloop
endfacet
facet normal .88192126434841 -.471396736825895 0
  outer loop
    vertex -45.9821674258406 28.3603755312865 31.999
    vertex -45.9821674258406 28.3603755312865 32.099
    vertex -46.2640176824772 27.8330707892902 31.999
  endloop
endfacet
facet normal .95694033573217 -.29028467725459 0
  outer loop
    vertex -45.8086048947701 28.9325345178508 31.999
    vertex -45.8086048947701 28.9325345178508 32.099
    vertex -45.9821674258406 28.3603755312865 31.999
  endloop
endfacet
facet normal .995184726672205 -.098017140329479 0
  outer loop
    vertex -45.75 29.52756 31.999
    vertex -45.75 29.52756 32.099
    vertex -45.8086048947701 28.9325345178508 31.999
  endloop
endfacet
facet normal 1 0 0
  outer loop
    vertex 61 -61 2
    vertex 61 61 31.999
    vertex 61 -61 31.999
  endloop
endfacet
facet normal 1 0 0
  outer loop
    vertex 61 -61 2
    vertex 61 61 2
    vertex 61 61 31.999
  endloop
endfacet
facet normal -1 0 0
  outer loop
    vertex -61 61 2
    vertex -61 -61 31.999
    vertex -61 61 31.999
  endloop
endfacet
facet normal -1 0 0
  outer loop
    vertex -61 61 2
    vertex -61 -61 2
    vertex -61 -61 31.999
  endloop
endfacet
facet normal 0 -1 0
  outer loop
    vertex -61 -61 2
    vertex 61 -61 31.999
    vertex -61 -61 31.999
  endloop
endfacet
facet normal 0 -1 0
  outer loop
    vertex -61 -61 2
    vertex 61 -61 2
    vertex 61 -61 31.999
  endloop
endfacet
facet normal 0 1 0
  outer loop
    vertex 61 61 2
    vertex -61 61 31.999
    vertex 61 61 31.999
  endloop
endfacet
facet normal 0 1 0
  outer loop
    vertex 61 61 2
    vertex -61 61 2
    vertex -61 61 31.999
  endloop
endfacet
facet normal 0 0 -1
  outer loop
    vertex 61 -61 2
    vertex -61 61 2
    vertex 61 61 2
  endloop
endfacet
facet normal 0 0 -1
  outer loop
    vertex 61 -61 2
    vertex -61 -61 2
    vertex -61 61 2
  endloop
endfacet
facet normal 0 0 1
  outer loop
    vertex 61 -61 31.999
    vertex 61 61 31.999
    vertex -61 61 31.999
  endloop
endfacet
facet normal 0 0 1
  outer loop
    vertex 61 -61 31.999
    vertex -61 61 31.999
    vertex -61 -61 31.999
  endloop
endfacet
facet normal 0 0 -1
  outer loop
    vertex 61 23.52756 0
    vertex 41 23.52756 0
    vertex 61 35.52756 0
  endloop
endfacet
facet normal 0 0 -1
  outer loop
    vertex 61 35.52756 0
    vertex 41 23.52756 0
    vertex 41 35.52756 0
  endloop
endfacet
facet normal 1 0 0
  outer loop
    vertex 61 23.52756 0
    vertex 61 35.52756 0
    vertex 61 35.52756 2
  endloop
endfacet
facet normal 0 1 0
  outer loop
    vertex 61 35.52756 0
    vertex 41 35.52756 0
    vertex 41 35.52756 2
  endloop
endfacet
facet normal -1 0 0
  outer loop
    vertex 41 35.52756 0
    vertex 41 23.52756 0
    vertex 41 23.52756 2
  endloop
endfacet
facet normal 0 -1 0
  outer loop
    vertex 41 23.52756 0
    vertex 61 23.52756 0
    vertex 61 23.52756 2
  endloop
endfacet
facet normal 1 0 0
  outer loop
    vertex 61 23.52756 2
    vertex 61 23.52756 0
    vertex 61 35.52756 2
  endloop
endfacet
facet normal 0 1 0
  outer loop
    vertex 61 35.52756 2
    vertex 61 35.52756 0
    vertex 41 35.52756 2
  endloop
endfacet
facet normal -1 0 0
  outer loop
    vertex 41 35.52756 2
    vertex 41 35.52756 0
    vertex 41 23.52756 2
  endloop
endfacet
facet normal 0 -1 0
  outer loop
    vertex 41 23.52756 2
    vertex 41 23.52756 0
    vertex 61 23.52756 2
  endloop
endfacet
facet normal 0 0 1
  outer loop
    vertex 61 23.52756 2
    vertex 61 35.52756 2
    vertex 41 23.52756 2
  endloop
endfacet
facet normal 0 0 1
  outer loop
    vertex 61 35.52756 2
    vertex 41 35.52756 2
    vertex 41 23.52756 2
  endloop
endfacet
facet normal 0 0 -1
  outer loop
    vertex 61 3.84252 0
    vertex 41 3.84252 0
    vertex 61 15.84252 0
  endloop
endfacet
facet normal 0 0 -1
  outer loop
    vertex 61 15.84252 0
    vertex 41 3.84252 0
    vertex 41 15.84252 0
  endloop
endfacet
facet normal 1 0 0
  outer loop
    vertex 61 3.84252 0
    vertex 61 15.84252 0
    vertex 61 15.84252 2
  endloop
endfacet
facet normal 0 1 0
  outer loop
    vertex 61 15.84252 0
    vertex 41 15.84252 0
    vertex 41 15.84252 2
  endloop
endfacet
facet normal -1 0 0
  outer loop
    vertex 41 15.84252 0
    vertex 41 3.84252 0
    vertex 41 3.84252 2
  endloop
endfacet
facet normal 0 -1 0
  outer loop
    vertex 41 3.84252 0
    vertex 61 3.84252 0
    vertex 61 3.84252 2
  endloop
endfacet
facet normal 1 0 0
  outer loop
    vertex 61 3.84252 2
    vertex 61 3.84252 0
    vertex 61 15.84252 2
  endloop
endfacet
facet normal 0 1 0
  outer loop
    vertex 61 15.84252 2
    vertex 61 15.84252 0
    vertex 41 15.84252 2
  endloop
endfacet
facet normal -1 0 0
  outer loop
    vertex 41 15.84252 2
    vertex 41 15.84252 0
    vertex 41 3.84252 2
  endloop
endfacet
facet normal 0 -1 0
  outer loop
    vertex 41 3.84252 2
    vertex 41 3.84252 0
    vertex 61 3.84252 2
  endloop
endfacet
facet normal 0 0 1
  outer loop
    vertex 61 3.84252 2
    vertex 61 15.84252 2
    vertex 41 3.84252 2
  endloop
endfacet
facet normal 0 0 1
  outer loop
    vertex 61 15.84252 2
    vertex 41 15.84252 2
    vertex 41 3.84252 2
  endloop
endfacet
facet normal 0 0 -1
  outer loop
    vertex 61 -15.84252 0
    vertex 41 -15.84252 0
    vertex 61 -3.84252 0
  endloop
endfacet
facet normal 0 0 -1
  outer loop
    vertex 61 -3.84252 0
    vertex 41 -15.84252 0
    vertex 41 -3.84252 0
  endloop
endfacet
facet normal 1 0 0
  outer loop
    vertex 61 -15.84252 0
    vertex 61 -3.84252 0
    vertex 61 -3.84252 2
  endloop
endfacet
facet normal 0 1 0
  outer loop
    vertex 61 -3.84252 0
    vertex 41 -3.84252 0
    vertex 41 -3.84252 2
  endloop
endfacet
facet normal -1 0 0
  outer loop
    vertex 41 -3.84252 0
    vertex 41 -15.84252 0
    vertex 41 -15.84252 2
  endloop
endfacet
facet normal 0 -1 0
  outer loop
    vertex 41 -15.84252 0
    vertex 61 -15.84252 0
    vertex 61 -15.84252 2
  endloop
endfacet
facet normal 1 0 0
  outer loop
    vertex 61 -15.84252 2
    vertex 61 -15.84252 0
    vertex 61 -3.84252 2
  endloop
endfacet
facet normal 0 1 0
  outer loop
    vertex 61 -3.84252 2
    vertex 61 -3.84252 0
    vertex 41 -3.84252 2
  endloop
endfacet
facet normal -1 0 0
  outer loop
    vertex 41 -3.84252 2
    vertex 41 -3.84252 0
    vertex 41 -15.84252 2
  endloop
endfacet
facet normal 0 -1 0
  outer loop
    vertex 41 -15.84252 2
    vertex 41 -15.84252 0
    vertex 61 -15.84252 2
  endloop
endfacet
facet normal 0 0 1
  outer loop
    vertex 61 -15.84252 2
    vertex 61 -3.84252 2
    vertex 41 -15.84252 2
  endloop
endfacet
facet normal 0 0 1
  outer loop
    vertex 61 -3.84252 2
    vertex 41 -3.84252 2
    vertex 41 -15.84252 2
  endloop
endfacet
facet normal 0 0 -1
  outer loop
    vertex 61 -35.52756 0
    vertex 41 -35.52756 0
    vertex 61 -23.52756 0
  endloop
endfacet
facet normal 0 0 -1
  outer loop
    vertex 61 -23.52756 0
    vertex 41 -35.52756 0
    vertex 41 -23.52756 0
  endloop
endfacet
facet normal 1 0 0
  outer loop
    vertex 61 -35.52756 0
    vertex 61 -23.52756 0
    vertex 61 -23.52756 2
  endloop
endfacet
facet normal 0 1 0
  outer loop
    vertex 61 -23.52756 0
    vertex 41 -23.52756 0
    vertex 41 -23.52756 2
  endloop
endfacet
facet normal -1 0 0
  outer loop
    vertex 41 -23.52756 0
    vertex 41 -35.52756 0
    vertex 41 -35.52756 2
  endloop
endfacet
facet normal 0 -1 0
  outer loop
    vertex 41 -35.52756 0
    vertex 61 -35.52756 0
    vertex 61 -35.52756 2
  endloop
endfacet
facet normal 1 0 0
  outer loop
    vertex 61 -35.52756 2
    vertex 61 -35.52756 0
    vertex 61 -23.52756 2
  endloop
endfacet
facet normal 0 1 0
  outer loop
    vertex 61 -23.52756 2
    vertex 61 -23.52756 0
    vertex 41 -23.52756 2
  endloop
endfacet
facet normal -1 0 0
  outer loop
    vertex 41 -23.52756 2
    vertex 41 -23.52756 0
    vertex 41 -35.52756 2
  endloop
endfacet
facet normal 0 -1 0
  outer loop
    vertex 41 -35.52756 2
    vertex 41 -35.52756 0
    vertex 61 -35.52756 2
  endloop
endfacet
facet normal 0 0 1
  outer loop
    vertex 61 -35.52756 2
    vertex 61 -23.52756 2
    vertex 41 -35.52756 2
  endloop
endfacet
facet normal 0 0 1
  outer loop
    vertex 61 -23.52756 2
    vertex 41 -23.52756 2
    vertex 41 -35.52756 2
  endloop
endfacet
facet normal 0 0 -1
  outer loop
    vertex -61 -23.52756 0
    vertex -41 -23.52756 0
    vertex -61 -35.52756 0
  endloop
endfacet
facet normal 0 0 -1
  outer loop
    vertex -61 -35.52756 0
    vertex -41 -23.52756 0
    vertex -41 -35.52756 0
  endloop
endfacet
facet normal -1 0 0
  outer loop
    vertex -61 -23.52756 0
    vertex -61 -35.52756 0
    vertex -61 -35.52756 2
  endloop
endfacet
facet normal 0 -1 0
  outer loop
    vertex -61 -35.52756 0
    vertex -41 -35.52756 0
    vertex -41 -35.52756 2
  endloop
endfacet
facet normal 1 0 0
  outer loop
    vertex -41 -35.52756 0
    vertex -41 -23.52756 0
    vertex -41 -23.52756 2
  endloop
endfacet
facet normal 0 1 0
  outer loop
    vertex -41 -23.52756 0
    vertex -61 -23.52756 0
    vertex -61 -23.52756 2
  endloop
endfacet
facet normal -1 0 0
  outer loop
    vertex -61 -23.52756 2
    vertex -61 -23.52756 0
    vertex -61 -35.52756 2
  endloop
endfacet
facet normal 0 -1 0
  outer loop
    vertex -61 -35.52756 2
    vertex -61 -35.52756 0
    vertex -41 -35.52756 2
  endloop
endfacet
facet normal 1 0 0
  outer loop
    vertex -41 -35.52756 2
    vertex -41 -35.52756 0
    vertex -41 -23.52756 2
  endloop
endfacet
facet normal 0 1 0
  outer loop
    vertex -41 -23.52756 2
    vertex -41 -23.52756 0
    vertex -61 -23.52756 2
  endloop
endfacet
facet normal 0 0 1
  outer loop
    vertex -61 -23.52756 2
    vertex -61 -35.52756 2
    vertex -41 -23.52756 2
  endloop
endfacet
facet normal 0 0 1
  outer loop
    vertex -61 -35.52756 2
    vertex -41 -35.52756 2
    vertex -41 -23.52756 2
  endloop
endfacet
facet normal 0 0 -1
  outer loop
    vertex -61 -3.84252 0
    vertex -41 -3.84252 0
    vertex -61 -15.84252 0
  endloop
endfacet
facet normal 0 0 -1
  outer loop
    vertex -61 -15.84252 0
    vertex -41 -3.84252 0
    vertex -41 -15.84252 0
  endloop
endfacet
facet normal -1 0 0
  outer loop
    vertex -61 -3.84252 0
    vertex -61 -15.84252 0
    vertex -61 -15.84252 2
  endloop
endfacet
facet normal 0 -1 0
  outer loop
    vertex -61 -15.84252 0
    vertex -41 -15.84252 0
    vertex -41 -15.84252 2
  endloop
endfacet
facet normal 1 0 0
  outer loop
    vertex -41 -15.84252 0
    vertex -41 -3.84252 0
    vertex -41 -3.84252 2
  endloop
endfacet
facet normal 0 1 0
  outer loop
    vertex -41 -3.84252 0
    vertex -61 -3.84252 0
    vertex -61 -3.84252 2
  endloop
endfacet
facet normal -1 0 0
  outer loop
    vertex -61 -3.84252 2
    vertex -61 -3.84252 0
    vertex -61 -15.84252 2
  endloop
endfacet
facet normal 0 -1 0
  outer loop
    vertex -61 -15.84252 2
    vertex -61 -15.84252 0
    vertex -41 -15.84252 2
  endloop
endfacet
facet normal 1 0 0
  outer loop
    vertex -41 -15.84252 2
    vertex -41 -15.84252 0
    vertex -41 -3.84252 2
  endloop
endfacet
facet normal 0 1 0
  outer loop
    vertex -41 -3.84252 2
    vertex -41 -3.84252 0
    vertex -61 -3.84252 2
  endloop
endfacet
facet normal 0 0 1
  outer loop
    vertex -61 -3.84252 2
    vertex -61 -15.84252 2
    vertex -41 -3.84252 2
  endloop
endfacet
facet normal 0 0 1
  outer loop
    vertex -61 -15.84252 2
    vertex -41 -15.84252 2
    vertex -41 -3.84252 2
  endloop
endfacet
facet normal 0 0 -1
  outer loop
    vertex -61 15.84252 0
    vertex -41 15.84252 0
    vertex -61 3.84252 0
  endloop
endfacet
facet normal 0 0 -1
  outer loop
    vertex -61 3.84252 0
    vertex -41 15.84252 0
    vertex -41 3.84252 0
  endloop
endfacet
facet normal -1 0 0
  outer loop
    vertex -61 15.84252 0
    vertex -61 3.84252 0
    vertex -61 3.84252 2
  endloop
endfacet
facet normal 0 -1 0
  outer loop
    vertex -61 3.84252 0
    vertex -41 3.84252 0
    vertex -41 3.84252 2
  endloop
endfacet
facet normal 1 0 0
  outer loop
    vertex -41 3.84252 0
    vertex -41 15.84252 0
    vertex -41 15.84252 2
  endloop
endfacet
facet normal 0 1 0
  outer loop
    vertex -41 15.84252 0
    vertex -61 15.84252 0
    vertex -61 15.84252 2
  endloop
endfacet
facet normal -1 0 0
  outer loop
    vertex -61 15.84252 2
    vertex -61 15.84252 0
    vertex -61 3.84252 2
  endloop
endfacet
facet normal 0 -1 0
  outer loop
    vertex -61 3.84252 2
    vertex -61 3.84252 0
    vertex -41 3.84252 2
  endloop
endfacet
facet normal 1 0 0
  outer loop
    vertex -41 3.84252 2
    vertex -41 3.84252 0
    vertex -41 15.84252 2
  endloop
endfacet
facet normal 0 1 0
  outer loop
    vertex -41 15.84252 2
    vertex -41 15.84252 0
    vertex -61 15.84252 2
  endloop
endfacet
facet normal 0 0 1
  outer loop
    vertex -61 15.84252 2
    vertex -61 3.84252 2
    vertex -41 15.84252 2
  endloop
endfacet
facet normal 0 0 1
  outer loop
    vertex -61 3.84252 2
    vertex -41 3.84252 2
    vertex -41 15.84252 2
  endloop
endfacet
facet normal 0 0 -1
  outer loop
    vertex -61 35.52756 0
    vertex -41 35.52756 0
    vertex -61 23.52756 0
  endloop
endfacet
facet normal 0 0 -1
  outer loop
    vertex -61 23.52756 0
    vertex -41 35.52756 0
    vertex -41 23.52756 0
  endloop
endfacet
facet normal -1 0 0
  outer loop
    vertex -61 35.52756 0
    vertex -61 23.52756 0
    vertex -61 23.52756 2
  endloop
endfacet
facet normal 0 -1 0
  outer loop
    vertex -61 23.52756 0
    vertex -41 23.52756 0
    vertex -41 23.52756 2
  endloop
endfacet
facet normal 1 0 0
  outer loop
    vertex -41 23.52756 0
    vertex -41 35.52756 0
    vertex -41 35.52756 2
  endloop
endfacet
facet normal 0 1 0
  outer loop
    vertex -41 35.52756 0
    vertex -61 35.52756 0
    vertex -61 35.52756 2
  endloop
endfacet
facet normal -1 0 0
  outer loop
    vertex -61 35.52756 2
    vertex -61 35.52756 0
    vertex -61 23.52756 2
  endloop
endfacet
facet normal 0 -1 0
  outer loop
    vertex -61 23.52756 2
    vertex -61 23.52756 0
    vertex -41 23.52756 2
  endloop
endfacet
facet normal 1 0 0
  outer loop
    vertex -41 23.52756 2
    vertex -41 23.52756 0
    vertex -41 35.52756 2
  endloop
endfacet
facet normal 0 1 0
  outer loop
    vertex -41 35.52756 2
    vertex -41 35.52756 0
    vertex -61 35.52756 2
  endloop
endfacet
facet normal 0 0 1
  outer loop
    vertex -61 35.52756 2
    vertex -61 23.52756 2
    vertex -41 35.52756 2
  endloop
endfacet
facet normal 0 0 1
  outer loop
    vertex -61 23.52756 2
    vertex -41 23.52756 2
    vertex -41 35.52756 2
  endloop
endfacet
facet normal 0 0 -1
  outer loop
    vertex 23.52756 -61 0
    vertex 23.52756 -41 0
    vertex 35.52756 -61 0
  endloop
endfacet
facet normal 0 0 -1
  outer loop
    vertex 35.52756 -61 0
    vertex 23.52756 -41 0
    vertex 35.52756 -41 0
  endloop
endfacet
facet normal 0 -1 0
  outer loop
    vertex 23.52756 -61 0
    vertex 35.52756 -61 0
    vertex 35.52756 -61 2
  endloop
endfacet
facet normal 1 0 0
  outer loop
    vertex 35.52756 -61 0
    vertex 35.52756 -41 0
    vertex 35.52756 -41 2
  endloop
endfacet
facet normal 0 1 0
  outer loop
    vertex 35.52756 -41 0
    vertex 23.52756 -41 0
    vertex 23.52756 -41 2
  endloop
endfacet
facet normal -1 0 0
  outer loop
    vertex 23.52756 -41 0
    vertex 23.52756 -61 0
    vertex 23.52756 -61 2
  endloop
endfacet
facet normal 0 -1 0
  outer loop
    vertex 23.52756 -61 2
    vertex 23.52756 -61 0
    vertex 35.52756 -61 2
  endloop
endfacet
facet normal 1 0 0
  outer loop
    vertex 35.52756 -61 2
    vertex 35.52756 -61 0
    vertex 35.52756 -41 2
  endloop
endfacet
facet normal 0 1 0
  outer loop
    vertex 35.52756 -41 2
    vertex 35.52756 -41 0
    vertex 23.52756 -41 2
  endloop
endfacet
facet normal -1 0 0
  outer loop
    vertex 23.52756 -41 2
    vertex 23.52756 -41 0
    vertex 23.52756 -61 2
  endloop
endfacet
facet normal 0 0 1
  outer loop
    vertex 23.52756 -61 2
    vertex 35.52756 -61 2
    vertex 23.52756 -41 2
  endloop
endfacet
facet normal 0 0 1
  outer loop
    vertex 35.52756 -61 2
    vertex 35.52756 -41 2
    vertex 23.52756 -41 2
  endloop
endfacet
facet normal 0 0 -1
  outer loop
    vertex 3.84252 -61 0
    vertex 3.84252 -41 0
    vertex 15.84252 -61 0
  endloop
endfacet
facet normal 0 0 -1
  outer loop
    vertex 15.84252 -61 0
    vertex 3.84252 -41 0
    vertex 15.84252 -41 0
  endloop
endfacet
facet normal 0 -1 0
  outer loop
    vertex 3.84252 -61 0
    vertex 15.84252 -61 0
    vertex 15.84252 -61 2
  endloop
endfacet
facet normal 1 0 0
  outer loop
    vertex 15.84252 -61 0
    vertex 15.84252 -41 0
    vertex 15.84252 -41 2
  endloop
endfacet
facet normal 0 1 0
  outer loop
    vertex 15.84252 -41 0
    vertex 3.84252 -41 0
    vertex 3.84252 -41 2
  endloop
endfacet
facet normal -1 0 0
  outer loop
    vertex 3.84252 -41 0
    vertex 3.84252 -61 0
    vertex 3.84252 -61 2
  endloop
endfacet
facet normal 0 -1 0
  outer loop
    vertex 3.84252 -61 2
    vertex 3.84252 -61 0
    vertex 15.84252 -61 2
  endloop
endfacet
facet normal 1 0 0
  outer loop
    vertex 15.84252 -61 2
    vertex 15.84252 -61 0
    vertex 15.84252 -41 2
  endloop
endfacet
facet normal 0 1 0
  outer loop
    vertex 15.84252 -41 2
    vertex 15.84252 -41 0
    vertex 3.84252 -41 2
  endloop
endfacet
facet normal -1 0 0
  outer loop
    vertex 3.84252 -41 2
    vertex 3.84252 -41 0
    vertex 3.84252 -61 2
  endloop
endfacet
facet normal 0 0 1
  outer loop
    vertex 3.84252 -61 2
    vertex 15.84252 -61 2
    vertex 3.84252 -41 2
  endloop
endfacet
facet normal 0 0 1
  outer loop
    vertex 15.84252 -61 2
    vertex 15.84252 -41 2
    vertex 3.84252 -41 2
  endloop
endfacet
facet normal 0 0 -1
  outer loop
    vertex -15.84252 -61 0
    vertex -15.84252 -41 0
    vertex -3.84252 -61 0
  endloop
endfacet
facet normal 0 0 -1
  outer loop
    vertex -3.84252 -61 0
    vertex -15.84252 -41 0
    vertex -3.84252 -41 0
  endloop
endfacet
facet normal 0 -1 0
  outer loop
    vertex -15.84252 -61 0
    vertex -3.84252 -61 0
    vertex -3.84252 -61 2
  endloop
endfacet
facet normal 1 0 0
  outer loop
    vertex -3.84252 -61 0
    vertex -3.84252 -41 0
    vertex -3.84252 -41 2
  endloop
endfacet
facet normal 0 1 0
  outer loop
    vertex -3.84252 -41 0
    vertex -15.84252 -41 0
    vertex -15.84252 -41 2
  endloop
endfacet
facet normal -1 0 0
  outer loop
    vertex -15.84252 -41 0
    vertex -15.84252 -61 0
    vertex -15.84252 -61 2
  endloop
endfacet
facet normal 0 -1 0
  outer loop
    vertex -15.84252 -61 2
    vertex -15.84252 -61 0
    vertex -3.84252 -61 2
  endloop
endfacet
facet normal 1 0 0
  outer loop
    vertex -3.84252 -61 2
    vertex -3.84252 -61 0
    vertex -3.84252 -41 2
  endloop
endfacet
facet normal 0 1 0
  outer loop
    vertex -3.84252 -41 2
    vertex -3.84252 -41 0
    vertex -15.84252 -41 2
  endloop
endfacet
facet normal -1 0 0
  outer loop
    vertex -15.84252 -41 2
    vertex -15.84252 -41 0
    vertex -15.84252 -61 2
  endloop
endfacet
facet normal 0 0 1
  outer loop
    vertex -15.84252 -61 2
    vertex -3.84252 -61 2
    vertex -15.84252 -41 2
  endloop
endfacet
facet normal 0 0 1
  outer loop
    vertex -3.84252 -61 2
    vertex -3.84252 -41 2
    vertex -15.84252 -41 2
  endloop
endfacet
facet normal 0 0 -1
  outer loop
    vertex -35.52756 -61 0
    vertex -35.52756 -41 0
    vertex -23.52756 -61 0
  endloop
endfacet
facet normal 0 0 -1
  outer loop
    vertex -23.52756 -61 0
    vertex -35.52756 -41 0
    vertex -23.52756 -41 0
  endloop
endfacet
facet normal 0 -1 0
  outer loop
    vertex -35.52756 -61 0
    vertex -23.52756 -61 0
    vertex -23.52756 -61 2
  endloop
endfacet
facet normal 1 0 0
  outer loop
    vertex -23.52756 -61 0
    vertex -23.52756 -41 0
    vertex -23.52756 -41 2
  endloop
endfacet
facet normal 0 1 0
  outer loop
    vertex -23.52756 -41 0
    vertex -35.52756 -41 0
    vertex -35.52756 -41 2
  endloop
endfacet
facet normal -1 0 0
  outer loop
    vertex -35.52756 -41 0
    vertex -35.52756 -61 0
    vertex -35.52756 -61 2
  endloop
endfacet
facet normal 0 -1 0
  outer loop
    vertex -35.52756 -61 2
    vertex -35.52756 -61 0
    vertex -23.52756 -61 2
  endloop
endfacet
facet normal 1 0 0
  outer loop
    vertex -23.52756 -61 2
    vertex -23.52756 -61 0
    vertex -23.52756 -41 2
  endloop
endfacet
facet normal 0 1 0
  outer loop
    vertex -23.52756 -41 2
    vertex -23.52756 -41 0
    vertex -35.52756 -41 2
  endloop
endfacet
facet normal -1 0 0
  outer loop
    vertex -35.52756 -41 2
    vertex -35.52756 -41 0
    vertex -35.52756 -61 2
  endloop
endfacet
facet normal 0 0 1
  outer loop
    vertex -35.52756 -61 2
    vertex -23.52756 -61 2
    vertex -35.52756 -41 2
  endloop
endfacet
facet normal 0 0 1
  outer loop
    vertex -23.52756 -61 2
    vertex -23.52756 -41 2
    vertex -35.52756 -41 2
  endloop
endfacet
facet normal 0 0 -1
  outer loop
    vertex -23.52756 61 0
    vertex -23.52756 41 0
    vertex -35.52756 61 0
  endloop
endfacet
facet normal 0 0 -1
  outer loop
    vertex -35.52756 61 0
    vertex -23.52756 41 0
    vertex -35.52756 41 0
  endloop
endfacet
facet normal 0 1 0
  outer loop
    vertex -23.52756 61 0
    vertex -35.52756 61 0
    vertex -35.52756 61 2
  endloop
endfacet
facet normal -1 0 0
  outer loop
    vertex -35.52756 61 0
    vertex -35.52756 41 0
    vertex -35.52756 41 2
  endloop
endfacet
facet normal 0 -1 0
  outer loop
    vertex -35.52756 41 0
    vertex -23.52756 41 0
    vertex -23.52756 41 2
  endloop
endfacet
facet normal 1 0 0
  outer loop
    vertex -23.52756 41 0
    vertex -23.52756 61 0
    vertex -23.52756 61 2
  endloop
endfacet
facet normal 0 1 0
  outer loop
    vertex -23.52756 61 2
    vertex -23.52756 61 0
    vertex -35.52756 61 2
  endloop
endfacet
facet normal -1 0 0
  outer loop
    vertex -35.52756 61 2
    vertex -35.52756 61 0
    vertex -35.52756 41 2
  endloop
endfacet
facet normal 0 -1 0
  outer loop
    vertex -35.52756 41 2
    vertex -35.52756 41 0
    vertex -23.52756 41 2
  endloop
endfacet
facet normal 1 0 0
  outer loop
    vertex -23.52756 41 2
    vertex -23.52756 41 0
    vertex -23.52756 61 2
  endloop
endfacet
facet normal 0 0 1
  outer loop
    vertex -23.52756 61 2
    vertex -35.52756 61 2
    vertex -23.52756 41 2
  endloop
endfacet
facet normal 0 0 1
  outer loop
    vertex -35.52756 61 2
    vertex -35.52756 41 2
    vertex -23.52756 41 2
  endloop
endfacet
facet normal 0 0 -1
  outer loop
    vertex -3.84252 61 0
    vertex -3.84252 41 0
    vertex -15.84252 61 0
  endloop
endfacet
facet normal 0 0 -1
  outer loop
    vertex -15.84252 61 0
    vertex -3.84252 41 0
    vertex -15.84252 41 0
  endloop
endfacet
facet normal 0 1 0
  outer loop
    vertex -3.84252 61 0
    vertex -15.84252 61 0
    vertex -15.84252 61 2
  endloop
endfacet
facet normal -1 0 0
  outer loop
    vertex -15.84252 61 0
    vertex -15.84252 41 0
    vertex -15.84252 41 2
  endloop
endfacet
facet normal 0 -1 0
  outer loop
    vertex -15.84252 41 0
    vertex -3.84252 41 0
    vertex -3.84252 41 2
  endloop
endfacet
facet normal 1 0 0
  outer loop
    vertex -3.84252 41 0
    vertex -3.84252 61 0
    vertex -3.84252 61 2
  endloop
endfacet
facet normal 0 1 0
  outer loop
    vertex -3.84252 61 2
    vertex -3.84252 61 0
    vertex -15.84252 61 2
  endloop
endfacet
facet normal -1 0 0
  outer loop
    vertex -15.84252 61 2
    vertex -15.84252 61 0
    vertex -15.84252 41 2
  endloop
endfacet
facet normal 0 -1 0
  outer loop
    vertex -15.84252 41 2
    vertex -15.84252 41 0
    vertex -3.84252 41 2
  endloop
endfacet
facet normal 1 0 0
  outer loop
    vertex -3.84252 41 2
    vertex -3.84252 41 0
    vertex -3.84252 61 2
  endloop
endfacet
facet normal 0 0 1
  outer loop
    vertex -3.84252 61 2
    vertex -15.84252 61 2
    vertex -3.84252 41 2
  endloop
endfacet
facet normal 0 0 1
  outer loop
    vertex -15.84252 61 2
    vertex -15.84252 41 2
    vertex -3.84252 41 2
  endloop
endfacet
facet normal 0 0 -1
  outer loop
    vertex 15.84252 61 0
    vertex 15.84252 41 0
    vertex 3.84252 61 0
  endloop
endfacet
facet normal 0 0 -1
  outer loop
    vertex 3.84252 61 0
    vertex 15.84252 41 0
    vertex 3.84252 41 0
  endloop
endfacet
facet normal 0 1 0
  outer loop
    vertex 15.84252 61 0
    vertex 3.84252 61 0
    vertex 3.84252 61 2
  endloop
endfacet
facet normal -1 0 0
  outer loop
    vertex 3.84252 61 0
    vertex 3.84252 41 0
    vertex 3.84252 41 2
  endloop
endfacet
facet normal 0 -1 0
  outer loop
    vertex 3.84252 41 0
    vertex 15.84252 41 0
    vertex 15.84252 41 2
  endloop
endfacet
facet normal 1 0 0
  outer loop
    vertex 15.84252 41 0
    vertex 15.84252 61 0
    vertex 15.84252 61 2
  endloop
endfacet
facet normal 0 1 0
  outer loop
    vertex 15.84252 61 2
    vertex 15.84252 61 0
    vertex 3.84252 61 2
  endloop
endfacet
facet normal -1 0 0
  outer loop
    vertex 3.84252 61 2
    vertex 3.84252 61 0
    vertex 3.84252 41 2
  endloop
endfacet
facet normal 0 -1 0
  outer loop
    vertex 3.84252 41 2
    vertex 3.84252 41 0
    vertex 15.84252 41 2
  endloop
endfacet
facet normal 1 0 0
  outer loop
    vertex 15.84252 41 2
    vertex 15.84252 41 0
    vertex 15.84252 61 2
  endloop
endfacet
facet normal 0 0 1
  outer loop
    vertex 15.84252 61 2
    vertex 3.84252 61 2
    vertex 15.84252 41 2
  endloop
endfacet
facet normal 0 0 1
  outer loop
    vertex 3.84252 61 2
    vertex 3.84252 41 2
    vertex 15.84252 41 2
  endloop
endfacet
facet normal 0 0 -1
  outer loop
    vertex 35.52756 61 0
    vertex 35.52756 41 0
    vertex 23.52756 61 0
  endloop
endfacet
facet normal 0 0 -1
  outer loop
    vertex 23.52756 61 0
    vertex 35.52756 41 0
    vertex 23.52756 41 0
  endloop
endfacet
facet normal 0 1 0
  outer loop
    vertex 35.52756 61 0
    vertex 23.52756 61 0
    vertex 23.52756 61 2
  endloop
endfacet
facet normal -1 0 0
  outer loop
    vertex 23.52756 61 0
    vertex 23.52756 41 0
    vertex 23.52756 41 2
  endloop
endfacet
facet normal 0 -1 0
  outer loop
    vertex 23.52756 41 0
    vertex 35.52756 41 0
    vertex 35.52756 41 2
  endloop
endfacet
facet normal 1 0 0
  outer loop
    vertex 35.52756 41 0
    vertex 35.52756 61 0
    vertex 35.52756 61 2
  endloop
endfacet
facet normal 0 1 0
  outer loop
    vertex 35.52756 61 2
    vertex 35.52756 61 0
    vertex 23.52756 61 2
  endloop
endfacet
facet normal -1 0 0
  outer loop
    vertex 23.52756 61 2
    vertex 23.52756 61 0
    vertex 23.52756 41 2
  endloop
endfacet
facet normal 0 -1 0
  outer loop
    vertex 23.52756 41 2
    vertex 23.52756 41 0
    vertex 35.52756 41 2
  endloop
endfacet
facet normal 1 0 0
  outer loop
    vertex 35.52756 41 2
    vertex 35.52756 41 0
    vertex 35.52756 61 2
  endloop
endfacet
facet normal 0 0 1
  outer loop
    vertex 35.52756 61 2
    vertex 23.52756 61 2
    vertex 35.52756 41 2
  endloop
endfacet
facet normal 0 0 1
  outer loop
    vertex 23.52756 61 2
    vertex 23.52756 41 2
    vertex 35.52756 41 2
  endloop
endfacet
facet normal 0 0 -1
  outer loop
    vertex 24.5 -24.5 0
    vertex -24.5 -24.5 0
    vertex 24.5 24.5 0
  endloop
endfacet
facet normal 0 0 -1
  outer loop
    vertex 24.5 24.5 0
    vertex -24.5 -24.5 0
    vertex -24.5 24.5 0
  endloop
endfacet
facet normal 1 0 0
  outer loop
    vertex 24.5 -24.5 0
    vertex 24.5 24.5 0
    vertex 24.5 24.5 2
  endloop
endfacet
facet normal 0 1 0
  outer loop
    vertex 24.5 24.5 0
    vertex -24.5 24.5 0
    vertex -24.5 24.5 2
  endloop
endfacet
facet normal -1 0 0
  outer loop
    vertex -24.5 24.5 0
    vertex -24.5 -24.5 0
    vertex -24.5 -24.5 2
  endloop
endfacet
facet normal 0 -1 0
  outer loop
    vertex -24.5 -24.5 0
    vertex 24.5 -24.5 0
    vertex 24.5 -24.5 2
  endloop
endfacet
facet normal 1 0 0
  outer loop
    vertex 24.5 -24.5 2
    vertex 24.5 -24.5 0
    vertex 24.5 24.5 2
  endloop
endfacet
facet normal 0 1 0
  outer loop
    vertex 24.5 24.5 2
    vertex 24.5 24.5 0
    vertex -24.5 24.5 2
  endloop
endfacet
facet normal -1 0 0
  outer loop
    vertex -24.5 24.5 2
    vertex -24.5 24.5 0
    vertex -24.5 -24.5 2
  endloop
endfacet
facet normal 0 -1 0
  outer loop
    vertex -24.5 -24.5 2
    vertex -24.5 -24.5 0
    vertex 24.5 -24.5 2
  endloop
endfacet
facet normal 0 0 1
  outer loop
    vertex 24.5 -24.5 2
    vertex 24.5 24.5 2
    vertex -24.5 -24.5 2
  endloop
endfacet
facet normal 0 0 1
  outer loop
    vertex 24.5 24.5 2
    vertex -24.5 24.5 2
    vertex -24.5 -24.5 2
  endloop
endfacet
endsolid 21-0136I_T1633-5-L
