solid CAP_0603G-L
facet normal 1 0 0
  outer loop
    vertex 14.5 -18 1
    vertex 14.5 18 34
    vertex 14.5 -18 34
  endloop
endfacet
facet normal 1 0 0
  outer loop
    vertex 14.5 -18 1
    vertex 14.5 18 1
    vertex 14.5 18 34
  endloop
endfacet
facet normal -1 0 0
  outer loop
    vertex -14.5 18 1
    vertex -14.5 -18 34
    vertex -14.5 18 34
  endloop
endfacet
facet normal -1 0 0
  outer loop
    vertex -14.5 18 1
    vertex -14.5 -18 1
    vertex -14.5 -18 34
  endloop
endfacet
facet normal 0 -1 0
  outer loop
    vertex -14.5 -18 1
    vertex 14.5 -18 34
    vertex -14.5 -18 34
  endloop
endfacet
facet normal 0 -1 0
  outer loop
    vertex -14.5 -18 1
    vertex 14.5 -18 1
    vertex 14.5 -18 34
  endloop
endfacet
facet normal 0 1 0
  outer loop
    vertex 14.5 18 1
    vertex -14.5 18 34
    vertex 14.5 18 34
  endloop
endfacet
facet normal 0 1 0
  outer loop
    vertex 14.5 18 1
    vertex -14.5 18 1
    vertex -14.5 18 34
  endloop
endfacet
facet normal 0 0 -1
  outer loop
    vertex 14.5 -18 1
    vertex -14.5 18 1
    vertex 14.5 18 1
  endloop
endfacet
facet normal 0 0 -1
  outer loop
    vertex 14.5 -18 1
    vertex -14.5 -18 1
    vertex -14.5 18 1
  endloop
endfacet
facet normal 0 0 1
  outer loop
    vertex 14.5 -18 34
    vertex 14.5 18 34
    vertex -14.5 18 34
  endloop
endfacet
facet normal 0 0 1
  outer loop
    vertex 14.5 -18 34
    vertex -14.5 18 34
    vertex -14.5 -18 34
  endloop
endfacet
facet normal 0 0 -1
  outer loop
    vertex -8.7 -18.1 .9
    vertex -11.6 -18.1 .9
    vertex -8.7 18.1 .9
  endloop
endfacet
facet normal 0 0 -1
  outer loop
    vertex -8.7 18.1 .9
    vertex -11.6 -18.1 .9
    vertex -11.6 18.1 .9
  endloop
endfacet
facet normal 0 0 1
  outer loop
    vertex -8.7 -18.1 34.1
    vertex -8.7 18.1 34.1
    vertex -11.6 -18.1 34.1
  endloop
endfacet
facet normal 0 0 1
  outer loop
    vertex -11.6 -18.1 34.1
    vertex -8.7 18.1 34.1
    vertex -11.6 18.1 34.1
  endloop
endfacet
facet normal 0 1 0
  outer loop
    vertex -8.7 18.1 34.1
    vertex -8.7 18.1 .9
    vertex -11.6 18.1 .9
  endloop
endfacet
facet normal 0 1 0
  outer loop
    vertex -8.7 18.1 34.1
    vertex -11.6 18.1 .9
    vertex -11.6 18.1 34.1
  endloop
endfacet
facet normal 0 -1 0
  outer loop
    vertex -8.7 -18.1 .9
    vertex -8.7 -18.1 34.1
    vertex -11.6 -18.1 .9
  endloop
endfacet
facet normal 0 -1 0
  outer loop
    vertex -11.6 -18.1 34.1
    vertex -11.6 -18.1 .9
    vertex -8.7 -18.1 34.1
  endloop
endfacet
facet normal 0 0 -1
  outer loop
    vertex -8.7 -18 1
    vertex -11.6 -18 1
    vertex -8.7 18 1
  endloop
endfacet
facet normal 0 0 -1
  outer loop
    vertex -8.7 18 1
    vertex -11.6 -18 1
    vertex -11.6 18 1
  endloop
endfacet
facet normal 0 0 1
  outer loop
    vertex -8.7 -18 34
    vertex -8.7 18 34
    vertex -11.6 -18 34
  endloop
endfacet
facet normal 0 0 1
  outer loop
    vertex -11.6 -18 34
    vertex -8.7 18 34
    vertex -11.6 18 34
  endloop
endfacet
facet normal 0 1 0
  outer loop
    vertex -8.7 18 34
    vertex -8.7 18 1
    vertex -11.6 18 1
  endloop
endfacet
facet normal 0 1 0
  outer loop
    vertex -8.7 18 34
    vertex -11.6 18 1
    vertex -11.6 18 34
  endloop
endfacet
facet normal 0 -1 0
  outer loop
    vertex -8.7 -18 1
    vertex -8.7 -18 34
    vertex -11.6 -18 1
  endloop
endfacet
facet normal 0 -1 0
  outer loop
    vertex -11.6 -18 34
    vertex -11.6 -18 1
    vertex -8.7 -18 34
  endloop
endfacet
facet normal -1 0 0
  outer loop
    vertex -11.6 18.1 34.1
    vertex -11.6 18 34
    vertex -11.6 -18.1 34.1
  endloop
endfacet
facet normal -1 0 0
  outer loop
    vertex -11.6 18 34
    vertex -11.6 -18 34
    vertex -11.6 -18.1 34.1
  endloop
endfacet
facet normal -1 0 0
  outer loop
    vertex -11.6 -18.1 34.1
    vertex -11.6 -18 34
    vertex -11.6 -18.1 .9
  endloop
endfacet
facet normal -1 0 0
  outer loop
    vertex -11.6 -18 34
    vertex -11.6 -18 1
    vertex -11.6 -18.1 .9
  endloop
endfacet
facet normal -1 0 0
  outer loop
    vertex -11.6 18.1 .9
    vertex -11.6 -18.1 .9
    vertex -11.6 18 1
  endloop
endfacet
facet normal -1 0 0
  outer loop
    vertex -11.6 18 1
    vertex -11.6 -18.1 .9
    vertex -11.6 -18 1
  endloop
endfacet
facet normal -1 0 0
  outer loop
    vertex -11.6 18.1 34.1
    vertex -11.6 18.1 .9
    vertex -11.6 18 34
  endloop
endfacet
facet normal -1 0 0
  outer loop
    vertex -11.6 18 34
    vertex -11.6 18.1 .9
    vertex -11.6 18 1
  endloop
endfacet
facet normal 1 0 0
  outer loop
    vertex -8.7 -18.1 34.1
    vertex -8.7 -18 34
    vertex -8.7 18.1 34.1
  endloop
endfacet
facet normal 1 0 0
  outer loop
    vertex -8.7 -18 34
    vertex -8.7 18 34
    vertex -8.7 18.1 34.1
  endloop
endfacet
facet normal 1 0 0
  outer loop
    vertex -8.7 18.1 34.1
    vertex -8.7 18 34
    vertex -8.7 18.1 .9
  endloop
endfacet
facet normal 1 0 0
  outer loop
    vertex -8.7 18 34
    vertex -8.7 18 1
    vertex -8.7 18.1 .9
  endloop
endfacet
facet normal 1 0 0
  outer loop
    vertex -8.7 -18.1 .9
    vertex -8.7 18.1 .9
    vertex -8.7 -18 1
  endloop
endfacet
facet normal 1 0 0
  outer loop
    vertex -8.7 -18 1
    vertex -8.7 18.1 .9
    vertex -8.7 18 1
  endloop
endfacet
facet normal 1 0 0
  outer loop
    vertex -8.7 -18.1 34.1
    vertex -8.7 -18.1 .9
    vertex -8.7 -18 34
  endloop
endfacet
facet normal 1 0 0
  outer loop
    vertex -8.7 -18 34
    vertex -8.7 -18.1 .9
    vertex -8.7 -18 1
  endloop
endfacet
facet normal 1 0 0
  outer loop
    vertex 34.5 -19 0
    vertex 34.5 19 35
    vertex 34.5 -19 35
  endloop
endfacet
facet normal 1 0 0
  outer loop
    vertex 34.5 -19 0
    vertex 34.5 19 0
    vertex 34.5 19 35
  endloop
endfacet
facet normal -1 0 0
  outer loop
    vertex 14.5 19 0
    vertex 14.5 -19 35
    vertex 14.5 19 35
  endloop
endfacet
facet normal -1 0 0
  outer loop
    vertex 14.5 19 0
    vertex 14.5 -19 0
    vertex 14.5 -19 35
  endloop
endfacet
facet normal 0 -1 0
  outer loop
    vertex 14.5 -19 0
    vertex 34.5 -19 35
    vertex 14.5 -19 35
  endloop
endfacet
facet normal 0 -1 0
  outer loop
    vertex 14.5 -19 0
    vertex 34.5 -19 0
    vertex 34.5 -19 35
  endloop
endfacet
facet normal 0 1 0
  outer loop
    vertex 34.5 19 0
    vertex 14.5 19 35
    vertex 34.5 19 35
  endloop
endfacet
facet normal 0 1 0
  outer loop
    vertex 34.5 19 0
    vertex 14.5 19 0
    vertex 14.5 19 35
  endloop
endfacet
facet normal 0 0 -1
  outer loop
    vertex 34.5 -19 0
    vertex 14.5 19 0
    vertex 34.5 19 0
  endloop
endfacet
facet normal 0 0 -1
  outer loop
    vertex 34.5 -19 0
    vertex 14.5 -19 0
    vertex 14.5 19 0
  endloop
endfacet
facet normal 0 0 1
  outer loop
    vertex 34.5 -19 35
    vertex 34.5 19 35
    vertex 14.5 19 35
  endloop
endfacet
facet normal 0 0 1
  outer loop
    vertex 34.5 -19 35
    vertex 14.5 19 35
    vertex 14.5 -19 35
  endloop
endfacet
facet normal -1 0 0
  outer loop
    vertex -34.5 19 0
    vertex -34.5 -19 35
    vertex -34.5 19 35
  endloop
endfacet
facet normal -1 0 0
  outer loop
    vertex -34.5 19 0
    vertex -34.5 -19 0
    vertex -34.5 -19 35
  endloop
endfacet
facet normal 1 0 0
  outer loop
    vertex -14.5 -19 0
    vertex -14.5 19 35
    vertex -14.5 -19 35
  endloop
endfacet
facet normal 1 0 0
  outer loop
    vertex -14.5 -19 0
    vertex -14.5 19 0
    vertex -14.5 19 35
  endloop
endfacet
facet normal 0 1 0
  outer loop
    vertex -14.5 19 0
    vertex -34.5 19 35
    vertex -14.5 19 35
  endloop
endfacet
facet normal 0 1 0
  outer loop
    vertex -14.5 19 0
    vertex -34.5 19 0
    vertex -34.5 19 35
  endloop
endfacet
facet normal 0 -1 0
  outer loop
    vertex -34.5 -19 0
    vertex -14.5 -19 35
    vertex -34.5 -19 35
  endloop
endfacet
facet normal 0 -1 0
  outer loop
    vertex -34.5 -19 0
    vertex -14.5 -19 0
    vertex -14.5 -19 35
  endloop
endfacet
facet normal 0 0 -1
  outer loop
    vertex -34.5 19 0
    vertex -14.5 -19 0
    vertex -34.5 -19 0
  endloop
endfacet
facet normal 0 0 -1
  outer loop
    vertex -34.5 19 0
    vertex -14.5 19 0
    vertex -14.5 -19 0
  endloop
endfacet
facet normal 0 0 1
  outer loop
    vertex -34.5 19 35
    vertex -34.5 -19 35
    vertex -14.5 -19 35
  endloop
endfacet
facet normal 0 0 1
  outer loop
    vertex -34.5 19 35
    vertex -14.5 -19 35
    vertex -14.5 19 35
  endloop
endfacet
endsolid CAP_0603G-L
