solid CAP_2153_1012-M
facet normal 0 0 1
  outer loop
    vertex 0 0 486
    vertex -198.075 0 486
    vertex -194.26904441587 -38.6425155333446 486
  endloop
endfacet
facet normal 0 0 1
  outer loop
    vertex 0 0 486
    vertex -194.26904441587 -38.6425155333446 486
    vertex -182.997438402173 -75.8000208657152 486
  endloop
endfacet
facet normal 0 0 1
  outer loop
    vertex 0 0 486
    vertex -182.997438402173 -75.8000208657152 486
    vertex -164.693343456827 -110.044573905358 486
  endloop
endfacet
facet normal 0 0 1
  outer loop
    vertex 0 0 486
    vertex -164.693343456827 -110.044573905358 486
    vertex -140.060175683525 -140.060175683525 486
  endloop
endfacet
facet normal 0 0 1
  outer loop
    vertex 0 0 486
    vertex -140.060175683525 -140.060175683525 486
    vertex -110.044573905358 -164.693343456827 486
  endloop
endfacet
facet normal 0 0 1
  outer loop
    vertex 0 0 486
    vertex -110.044573905358 -164.693343456827 486
    vertex -75.8000208657152 -182.997438402173 486
  endloop
endfacet
facet normal 0 0 1
  outer loop
    vertex 0 0 486
    vertex -75.8000208657152 -182.997438402173 486
    vertex -38.6425155333446 -194.26904441587 486
  endloop
endfacet
facet normal 0 0 1
  outer loop
    vertex 0 0 486
    vertex -38.6425155333446 -194.26904441587 486
    vertex -1.21285957370556E-14 -198.075 486
  endloop
endfacet
facet normal 0 0 1
  outer loop
    vertex 0 0 486
    vertex -1.21285957370556E-14 -198.075 486
    vertex 38.6425155333446 -194.26904441587 486
  endloop
endfacet
facet normal 0 0 1
  outer loop
    vertex 0 0 486
    vertex 38.6425155333446 -194.26904441587 486
    vertex 75.8000208657152 -182.997438402173 486
  endloop
endfacet
facet normal 0 0 1
  outer loop
    vertex 0 0 486
    vertex 75.8000208657152 -182.997438402173 486
    vertex 110.044573905358 -164.693343456827 486
  endloop
endfacet
facet normal 0 0 1
  outer loop
    vertex 0 0 486
    vertex 110.044573905358 -164.693343456827 486
    vertex 140.060175683525 -140.060175683525 486
  endloop
endfacet
facet normal 0 0 1
  outer loop
    vertex 0 0 486
    vertex 140.060175683525 -140.060175683525 486
    vertex 164.693343456827 -110.044573905358 486
  endloop
endfacet
facet normal 0 0 1
  outer loop
    vertex 0 0 486
    vertex 164.693343456827 -110.044573905358 486
    vertex 182.997438402173 -75.8000208657152 486
  endloop
endfacet
facet normal 0 0 1
  outer loop
    vertex 0 0 486
    vertex 182.997438402173 -75.8000208657152 486
    vertex 194.26904441587 -38.6425155333446 486
  endloop
endfacet
facet normal 0 0 1
  outer loop
    vertex 0 0 486
    vertex 194.26904441587 -38.6425155333446 486
    vertex 198.075 0 486
  endloop
endfacet
facet normal 0 0 1
  outer loop
    vertex 0 0 486
    vertex 198.075 0 486
    vertex 194.26904441587 38.6425155333446 486
  endloop
endfacet
facet normal 0 0 1
  outer loop
    vertex 0 0 486
    vertex 194.26904441587 38.6425155333446 486
    vertex 182.997438402173 75.8000208657152 486
  endloop
endfacet
facet normal 0 0 1
  outer loop
    vertex 0 0 486
    vertex 182.997438402173 75.8000208657152 486
    vertex 164.693343456827 110.044573905358 486
  endloop
endfacet
facet normal 0 0 1
  outer loop
    vertex 0 0 486
    vertex 164.693343456827 110.044573905358 486
    vertex 140.060175683525 140.060175683525 486
  endloop
endfacet
facet normal 0 0 1
  outer loop
    vertex 0 0 486
    vertex 140.060175683525 140.060175683525 486
    vertex 110.044573905358 164.693343456827 486
  endloop
endfacet
facet normal 0 0 1
  outer loop
    vertex 0 0 486
    vertex 110.044573905358 164.693343456827 486
    vertex 75.8000208657152 182.997438402173 486
  endloop
endfacet
facet normal 0 0 1
  outer loop
    vertex 0 0 486
    vertex 75.8000208657152 182.997438402173 486
    vertex 38.6425155333446 194.26904441587 486
  endloop
endfacet
facet normal 0 0 1
  outer loop
    vertex 0 0 486
    vertex 38.6425155333446 194.26904441587 486
    vertex 1.21285957370556E-14 198.075 486
  endloop
endfacet
facet normal 0 0 1
  outer loop
    vertex 0 0 486
    vertex 1.21285957370556E-14 198.075 486
    vertex -38.6425155333446 194.26904441587 486
  endloop
endfacet
facet normal 0 0 1
  outer loop
    vertex 0 0 486
    vertex -38.6425155333446 194.26904441587 486
    vertex -75.8000208657152 182.997438402173 486
  endloop
endfacet
facet normal 0 0 1
  outer loop
    vertex 0 0 486
    vertex -75.8000208657152 182.997438402173 486
    vertex -110.044573905358 164.693343456827 486
  endloop
endfacet
facet normal 0 0 1
  outer loop
    vertex 0 0 486
    vertex -110.044573905358 164.693343456827 486
    vertex -140.060175683525 140.060175683525 486
  endloop
endfacet
facet normal 0 0 1
  outer loop
    vertex 0 0 486
    vertex -140.060175683525 140.060175683525 486
    vertex -164.693343456827 110.044573905358 486
  endloop
endfacet
facet normal 0 0 1
  outer loop
    vertex 0 0 486
    vertex -164.693343456827 110.044573905358 486
    vertex -182.997438402173 75.8000208657152 486
  endloop
endfacet
facet normal 0 0 1
  outer loop
    vertex 0 0 486
    vertex -182.997438402173 75.8000208657152 486
    vertex -194.26904441587 38.6425155333446 486
  endloop
endfacet
facet normal 0 0 1
  outer loop
    vertex 0 0 486
    vertex -194.26904441587 38.6425155333446 486
    vertex -198.075 0 486
  endloop
endfacet
facet normal -.995184726672197 -9.80171403295567E-02 0
  outer loop
    vertex -198.075 0 486
    vertex -194.26904441587 -38.6425155333446 50.41
    vertex -194.26904441587 -38.6425155333446 486
  endloop
endfacet
facet normal -.995184726672197 -9.80171403295567E-02 0
  outer loop
    vertex -198.075 0 486
    vertex -198.075 0 50.41
    vertex -194.26904441587 -38.6425155333446 50.41
  endloop
endfacet
facet normal -.956940335732207 -.290284677254468 0
  outer loop
    vertex -194.26904441587 -38.6425155333446 486
    vertex -182.997438402173 -75.8000208657152 50.41
    vertex -182.997438402173 -75.8000208657152 486
  endloop
endfacet
facet normal -.956940335732207 -.290284677254468 0
  outer loop
    vertex -194.26904441587 -38.6425155333446 486
    vertex -194.26904441587 -38.6425155333446 50.41
    vertex -182.997438402173 -75.8000208657152 50.41
  endloop
endfacet
facet normal -.881921264348361 -.471396736825985 0
  outer loop
    vertex -182.997438402173 -75.8000208657152 486
    vertex -164.693343456827 -110.044573905358 98.8
    vertex -164.693343456827 -110.044573905358 486
  endloop
endfacet
facet normal -.881921264348361 -.471396736825985 0
  outer loop
    vertex -182.997438402173 -75.8000208657152 486
    vertex -182.997438402173 -75.8000208657152 98.8
    vertex -164.693343456827 -110.044573905358 98.8
  endloop
endfacet
facet normal -.77301045336272 -.634393284163666 0
  outer loop
    vertex -164.693343456827 -110.044573905358 486
    vertex -140.060175683525 -140.060175683525 98.8
    vertex -140.060175683525 -140.060175683525 486
  endloop
endfacet
facet normal -.77301045336272 -.634393284163666 0
  outer loop
    vertex -164.693343456827 -110.044573905358 486
    vertex -164.693343456827 -110.044573905358 98.8
    vertex -140.060175683525 -140.060175683525 98.8
  endloop
endfacet
facet normal -.634393284163666 -.77301045336272 0
  outer loop
    vertex -140.060175683525 -140.060175683525 486
    vertex -110.044573905358 -164.693343456827 98.8
    vertex -110.044573905358 -164.693343456827 486
  endloop
endfacet
facet normal -.634393284163666 -.77301045336272 0
  outer loop
    vertex -140.060175683525 -140.060175683525 486
    vertex -140.060175683525 -140.060175683525 98.8
    vertex -110.044573905358 -164.693343456827 98.8
  endloop
endfacet
facet normal -.471396736825985 -.881921264348361 0
  outer loop
    vertex -110.044573905358 -164.693343456827 486
    vertex -75.8000208657152 -182.997438402173 98.8
    vertex -75.8000208657152 -182.997438402173 486
  endloop
endfacet
facet normal -.471396736825985 -.881921264348361 0
  outer loop
    vertex -110.044573905358 -164.693343456827 486
    vertex -110.044573905358 -164.693343456827 98.8
    vertex -75.8000208657152 -182.997438402173 98.8
  endloop
endfacet
facet normal -.290284677254468 -.956940335732207 0
  outer loop
    vertex -75.8000208657152 -182.997438402173 486
    vertex -38.6425155333446 -194.26904441587 50.41
    vertex -38.6425155333446 -194.26904441587 486
  endloop
endfacet
facet normal -.290284677254468 -.956940335732207 0
  outer loop
    vertex -75.8000208657152 -182.997438402173 486
    vertex -75.8000208657152 -182.997438402173 50.41
    vertex -38.6425155333446 -194.26904441587 50.41
  endloop
endfacet
facet normal -9.80171403295567E-02 -.995184726672197 0
  outer loop
    vertex -38.6425155333446 -194.26904441587 486
    vertex -1.21285957370556E-14 -198.075 50.41
    vertex -1.21285957370556E-14 -198.075 486
  endloop
endfacet
facet normal -9.80171403295567E-02 -.995184726672197 0
  outer loop
    vertex -38.6425155333446 -194.26904441587 486
    vertex -38.6425155333446 -194.26904441587 50.41
    vertex -1.21285957370556E-14 -198.075 50.41
  endloop
endfacet
facet normal 9.80171403295567E-02 -.995184726672197 0
  outer loop
    vertex -1.21285957370556E-14 -198.075 486
    vertex 38.6425155333446 -194.26904441587 50.41
    vertex 38.6425155333446 -194.26904441587 486
  endloop
endfacet
facet normal 9.80171403295567E-02 -.995184726672197 0
  outer loop
    vertex -1.21285957370556E-14 -198.075 486
    vertex -1.21285957370556E-14 -198.075 50.41
    vertex 38.6425155333446 -194.26904441587 50.41
  endloop
endfacet
facet normal .290284677254468 -.956940335732207 0
  outer loop
    vertex 38.6425155333446 -194.26904441587 486
    vertex 75.8000208657152 -182.997438402173 50.41
    vertex 75.8000208657152 -182.997438402173 486
  endloop
endfacet
facet normal .290284677254468 -.956940335732207 0
  outer loop
    vertex 38.6425155333446 -194.26904441587 486
    vertex 38.6425155333446 -194.26904441587 50.41
    vertex 75.8000208657152 -182.997438402173 50.41
  endloop
endfacet
facet normal .471396736825985 -.881921264348361 0
  outer loop
    vertex 75.8000208657152 -182.997438402173 486
    vertex 110.044573905358 -164.693343456827 98.8
    vertex 110.044573905358 -164.693343456827 486
  endloop
endfacet
facet normal .471396736825985 -.881921264348361 0
  outer loop
    vertex 75.8000208657152 -182.997438402173 486
    vertex 75.8000208657152 -182.997438402173 98.8
    vertex 110.044573905358 -164.693343456827 98.8
  endloop
endfacet
facet normal .634393284163666 -.77301045336272 0
  outer loop
    vertex 110.044573905358 -164.693343456827 486
    vertex 140.060175683525 -140.060175683525 98.8
    vertex 140.060175683525 -140.060175683525 486
  endloop
endfacet
facet normal .634393284163666 -.77301045336272 0
  outer loop
    vertex 110.044573905358 -164.693343456827 486
    vertex 110.044573905358 -164.693343456827 98.8
    vertex 140.060175683525 -140.060175683525 98.8
  endloop
endfacet
facet normal .77301045336272 -.634393284163666 0
  outer loop
    vertex 140.060175683525 -140.060175683525 486
    vertex 164.693343456827 -110.044573905358 98.8
    vertex 164.693343456827 -110.044573905358 486
  endloop
endfacet
facet normal .77301045336272 -.634393284163666 0
  outer loop
    vertex 140.060175683525 -140.060175683525 486
    vertex 140.060175683525 -140.060175683525 98.8
    vertex 164.693343456827 -110.044573905358 98.8
  endloop
endfacet
facet normal .881921264348361 -.471396736825985 0
  outer loop
    vertex 164.693343456827 -110.044573905358 486
    vertex 182.997438402173 -75.8000208657152 98.8
    vertex 182.997438402173 -75.8000208657152 486
  endloop
endfacet
facet normal .881921264348361 -.471396736825985 0
  outer loop
    vertex 164.693343456827 -110.044573905358 486
    vertex 164.693343456827 -110.044573905358 98.8
    vertex 182.997438402173 -75.8000208657152 98.8
  endloop
endfacet
facet normal .956940335732207 -.290284677254468 0
  outer loop
    vertex 182.997438402173 -75.8000208657152 486
    vertex 194.26904441587 -38.6425155333446 50.41
    vertex 194.26904441587 -38.6425155333446 486
  endloop
endfacet
facet normal .956940335732207 -.290284677254468 0
  outer loop
    vertex 182.997438402173 -75.8000208657152 486
    vertex 182.997438402173 -75.8000208657152 50.41
    vertex 194.26904441587 -38.6425155333446 50.41
  endloop
endfacet
facet normal .995184726672197 -9.80171403295567E-02 0
  outer loop
    vertex 194.26904441587 -38.6425155333446 486
    vertex 198.075 0 50.41
    vertex 198.075 0 486
  endloop
endfacet
facet normal .995184726672197 -9.80171403295567E-02 0
  outer loop
    vertex 194.26904441587 -38.6425155333446 486
    vertex 194.26904441587 -38.6425155333446 50.41
    vertex 198.075 0 50.41
  endloop
endfacet
facet normal .995184726672197 9.80171403295567E-02 0
  outer loop
    vertex 198.075 0 486
    vertex 194.26904441587 38.6425155333446 50.41
    vertex 194.26904441587 38.6425155333446 486
  endloop
endfacet
facet normal .995184726672197 9.80171403295567E-02 0
  outer loop
    vertex 198.075 0 486
    vertex 198.075 0 50.41
    vertex 194.26904441587 38.6425155333446 50.41
  endloop
endfacet
facet normal .956940335732207 .290284677254468 0
  outer loop
    vertex 194.26904441587 38.6425155333446 486
    vertex 182.997438402173 75.8000208657152 50.41
    vertex 182.997438402173 75.8000208657152 486
  endloop
endfacet
facet normal .956940335732207 .290284677254468 0
  outer loop
    vertex 194.26904441587 38.6425155333446 486
    vertex 194.26904441587 38.6425155333446 50.41
    vertex 182.997438402173 75.8000208657152 50.41
  endloop
endfacet
facet normal .881921264348361 .471396736825985 0
  outer loop
    vertex 182.997438402173 75.8000208657152 486
    vertex 164.693343456827 110.044573905358 98.8
    vertex 164.693343456827 110.044573905358 486
  endloop
endfacet
facet normal .881921264348361 .471396736825985 0
  outer loop
    vertex 182.997438402173 75.8000208657152 486
    vertex 182.997438402173 75.8000208657152 98.8
    vertex 164.693343456827 110.044573905358 98.8
  endloop
endfacet
facet normal .77301045336272 .634393284163666 0
  outer loop
    vertex 164.693343456827 110.044573905358 486
    vertex 140.060175683525 140.060175683525 98.8
    vertex 140.060175683525 140.060175683525 486
  endloop
endfacet
facet normal .77301045336272 .634393284163666 0
  outer loop
    vertex 164.693343456827 110.044573905358 486
    vertex 164.693343456827 110.044573905358 98.8
    vertex 140.060175683525 140.060175683525 98.8
  endloop
endfacet
facet normal .634393284163666 .77301045336272 0
  outer loop
    vertex 140.060175683525 140.060175683525 486
    vertex 110.044573905358 164.693343456827 98.8
    vertex 110.044573905358 164.693343456827 486
  endloop
endfacet
facet normal .634393284163666 .77301045336272 0
  outer loop
    vertex 140.060175683525 140.060175683525 486
    vertex 140.060175683525 140.060175683525 98.8
    vertex 110.044573905358 164.693343456827 98.8
  endloop
endfacet
facet normal .471396736825985 .881921264348361 0
  outer loop
    vertex 110.044573905358 164.693343456827 486
    vertex 75.8000208657152 182.997438402173 98.8
    vertex 75.8000208657152 182.997438402173 486
  endloop
endfacet
facet normal .471396736825985 .881921264348361 0
  outer loop
    vertex 110.044573905358 164.693343456827 486
    vertex 110.044573905358 164.693343456827 98.8
    vertex 75.8000208657152 182.997438402173 98.8
  endloop
endfacet
facet normal .290284677254468 .956940335732207 0
  outer loop
    vertex 75.8000208657152 182.997438402173 486
    vertex 38.6425155333446 194.26904441587 50.41
    vertex 38.6425155333446 194.26904441587 486
  endloop
endfacet
facet normal .290284677254468 .956940335732207 0
  outer loop
    vertex 75.8000208657152 182.997438402173 486
    vertex 75.8000208657152 182.997438402173 50.41
    vertex 38.6425155333446 194.26904441587 50.41
  endloop
endfacet
facet normal 9.80171403295567E-02 .995184726672197 0
  outer loop
    vertex 38.6425155333446 194.26904441587 486
    vertex 1.21285957370556E-14 198.075 50.41
    vertex 1.21285957370556E-14 198.075 486
  endloop
endfacet
facet normal 9.80171403295567E-02 .995184726672197 0
  outer loop
    vertex 38.6425155333446 194.26904441587 486
    vertex 38.6425155333446 194.26904441587 50.41
    vertex 1.21285957370556E-14 198.075 50.41
  endloop
endfacet
facet normal -9.80171403295567E-02 .995184726672197 0
  outer loop
    vertex 1.21285957370556E-14 198.075 486
    vertex -38.6425155333446 194.26904441587 50.41
    vertex -38.6425155333446 194.26904441587 486
  endloop
endfacet
facet normal -9.80171403295567E-02 .995184726672197 0
  outer loop
    vertex 1.21285957370556E-14 198.075 486
    vertex 1.21285957370556E-14 198.075 50.41
    vertex -38.6425155333446 194.26904441587 50.41
  endloop
endfacet
facet normal -.290284677254468 .956940335732207 0
  outer loop
    vertex -38.6425155333446 194.26904441587 486
    vertex -75.8000208657152 182.997438402173 50.41
    vertex -75.8000208657152 182.997438402173 486
  endloop
endfacet
facet normal -.290284677254468 .956940335732207 0
  outer loop
    vertex -38.6425155333446 194.26904441587 486
    vertex -38.6425155333446 194.26904441587 50.41
    vertex -75.8000208657152 182.997438402173 50.41
  endloop
endfacet
facet normal -.471396736825985 .881921264348361 0
  outer loop
    vertex -75.8000208657152 182.997438402173 486
    vertex -110.044573905358 164.693343456827 98.8
    vertex -110.044573905358 164.693343456827 486
  endloop
endfacet
facet normal -.471396736825985 .881921264348361 0
  outer loop
    vertex -75.8000208657152 182.997438402173 486
    vertex -75.8000208657152 182.997438402173 98.8
    vertex -110.044573905358 164.693343456827 98.8
  endloop
endfacet
facet normal -.634393284163666 .77301045336272 0
  outer loop
    vertex -110.044573905358 164.693343456827 486
    vertex -140.060175683525 140.060175683525 98.8
    vertex -140.060175683525 140.060175683525 486
  endloop
endfacet
facet normal -.634393284163666 .77301045336272 0
  outer loop
    vertex -110.044573905358 164.693343456827 486
    vertex -110.044573905358 164.693343456827 98.8
    vertex -140.060175683525 140.060175683525 98.8
  endloop
endfacet
facet normal -.77301045336272 .634393284163666 0
  outer loop
    vertex -140.060175683525 140.060175683525 486
    vertex -164.693343456827 110.044573905358 98.8
    vertex -164.693343456827 110.044573905358 486
  endloop
endfacet
facet normal -.77301045336272 .634393284163666 0
  outer loop
    vertex -140.060175683525 140.060175683525 486
    vertex -140.060175683525 140.060175683525 98.8
    vertex -164.693343456827 110.044573905358 98.8
  endloop
endfacet
facet normal -.881921264348361 .471396736825985 0
  outer loop
    vertex -164.693343456827 110.044573905358 486
    vertex -182.997438402173 75.8000208657152 98.8
    vertex -182.997438402173 75.8000208657152 486
  endloop
endfacet
facet normal -.881921264348361 .471396736825985 0
  outer loop
    vertex -164.693343456827 110.044573905358 486
    vertex -164.693343456827 110.044573905358 98.8
    vertex -182.997438402173 75.8000208657152 98.8
  endloop
endfacet
facet normal -.956940335732207 .290284677254468 0
  outer loop
    vertex -182.997438402173 75.8000208657152 486
    vertex -194.26904441587 38.6425155333446 50.41
    vertex -194.26904441587 38.6425155333446 486
  endloop
endfacet
facet normal -.956940335732207 .290284677254468 0
  outer loop
    vertex -182.997438402173 75.8000208657152 486
    vertex -182.997438402173 75.8000208657152 50.41
    vertex -194.26904441587 38.6425155333446 50.41
  endloop
endfacet
facet normal -.995184726672197 9.80171403295567E-02 0
  outer loop
    vertex -194.26904441587 38.6425155333446 486
    vertex -198.075 0 50.41
    vertex -198.075 0 486
  endloop
endfacet
facet normal -.995184726672197 9.80171403295567E-02 0
  outer loop
    vertex -194.26904441587 38.6425155333446 486
    vertex -194.26904441587 38.6425155333446 50.41
    vertex -198.075 0 50.41
  endloop
endfacet
facet normal 0 0 1
  outer loop
    vertex -75.8000208657152 -208.5 98.8
    vertex -75.8000208657152 -182.997438402173 98.8
    vertex -142.150010432858 -208.5 98.8
  endloop
endfacet
facet normal 0 0 1
  outer loop
    vertex -142.150010432858 -208.5 98.8
    vertex -75.8000208657152 -182.997438402173 98.8
    vertex -110.044573905358 -164.693343456827 98.8
  endloop
endfacet
facet normal 0 0 1
  outer loop
    vertex -142.150010432858 -208.5 98.8
    vertex -110.044573905358 -164.693343456827 98.8
    vertex -140.060175683525 -140.060175683525 98.8
  endloop
endfacet
facet normal 0 0 1
  outer loop
    vertex -142.150010432858 -208.5 98.8
    vertex -140.060175683525 -140.060175683525 98.8
    vertex -208.5 -142.150010432858 98.8
  endloop
endfacet
facet normal 0 0 1
  outer loop
    vertex -208.5 -142.150010432858 98.8
    vertex -140.060175683525 -140.060175683525 98.8
    vertex -164.693343456827 -110.044573905358 98.8
  endloop
endfacet
facet normal 0 0 1
  outer loop
    vertex -208.5 -142.150010432858 98.8
    vertex -164.693343456827 -110.044573905358 98.8
    vertex -182.997438402173 -75.8000208657152 98.8
  endloop
endfacet
facet normal 0 0 1
  outer loop
    vertex -208.5 -142.150010432858 98.8
    vertex -182.997438402173 -75.8000208657152 98.8
    vertex -208.5 -75.8000208657152 98.8
  endloop
endfacet
facet normal 0 0 1
  outer loop
    vertex -208.5 75.8000208657152 98.8
    vertex -182.997438402173 75.8000208657152 98.8
    vertex -208.5 142.150010432858 98.8
  endloop
endfacet
facet normal 0 0 1
  outer loop
    vertex -208.5 142.150010432858 98.8
    vertex -182.997438402173 75.8000208657152 98.8
    vertex -164.693343456827 110.044573905358 98.8
  endloop
endfacet
facet normal 0 0 1
  outer loop
    vertex -208.5 142.150010432858 98.8
    vertex -164.693343456827 110.044573905358 98.8
    vertex -140.060175683525 140.060175683525 98.8
  endloop
endfacet
facet normal 0 0 1
  outer loop
    vertex -208.5 142.150010432858 98.8
    vertex -140.060175683525 140.060175683525 98.8
    vertex -142.150010432858 208.5 98.8
  endloop
endfacet
facet normal 0 0 1
  outer loop
    vertex -142.150010432858 208.5 98.8
    vertex -140.060175683525 140.060175683525 98.8
    vertex -110.044573905358 164.693343456827 98.8
  endloop
endfacet
facet normal 0 0 1
  outer loop
    vertex -142.150010432858 208.5 98.8
    vertex -110.044573905358 164.693343456827 98.8
    vertex -75.8000208657152 182.997438402173 98.8
  endloop
endfacet
facet normal 0 0 1
  outer loop
    vertex -142.150010432858 208.5 98.8
    vertex -75.8000208657152 182.997438402173 98.8
    vertex -75.8000208657152 208.5 98.8
  endloop
endfacet
facet normal 0 0 1
  outer loop
    vertex 208.5 208.5 98.8
    vertex 75.8000208657152 208.5 98.8
    vertex 75.8000208657152 182.997438402173 98.8
  endloop
endfacet
facet normal 0 0 1
  outer loop
    vertex 208.5 208.5 98.8
    vertex 75.8000208657152 182.997438402173 98.8
    vertex 110.044573905358 164.693343456827 98.8
  endloop
endfacet
facet normal 0 0 1
  outer loop
    vertex 208.5 208.5 98.8
    vertex 110.044573905358 164.693343456827 98.8
    vertex 140.060175683525 140.060175683525 98.8
  endloop
endfacet
facet normal 0 0 1
  outer loop
    vertex 208.5 208.5 98.8
    vertex 140.060175683525 140.060175683525 98.8
    vertex 164.693343456827 110.044573905358 98.8
  endloop
endfacet
facet normal 0 0 1
  outer loop
    vertex 208.5 208.5 98.8
    vertex 164.693343456827 110.044573905358 98.8
    vertex 182.997438402173 75.8000208657152 98.8
  endloop
endfacet
facet normal 0 0 1
  outer loop
    vertex 208.5 208.5 98.8
    vertex 182.997438402173 75.8000208657152 98.8
    vertex 208.5 75.8000208657152 98.8
  endloop
endfacet
facet normal 0 0 1
  outer loop
    vertex 208.5 -208.5 98.8
    vertex 208.5 -75.8000208657152 98.8
    vertex 182.997438402173 -75.8000208657152 98.8
  endloop
endfacet
facet normal 0 0 1
  outer loop
    vertex 208.5 -208.5 98.8
    vertex 182.997438402173 -75.8000208657152 98.8
    vertex 164.693343456827 -110.044573905358 98.8
  endloop
endfacet
facet normal 0 0 1
  outer loop
    vertex 208.5 -208.5 98.8
    vertex 164.693343456827 -110.044573905358 98.8
    vertex 140.060175683525 -140.060175683525 98.8
  endloop
endfacet
facet normal 0 0 1
  outer loop
    vertex 208.5 -208.5 98.8
    vertex 140.060175683525 -140.060175683525 98.8
    vertex 110.044573905358 -164.693343456827 98.8
  endloop
endfacet
facet normal 0 0 1
  outer loop
    vertex 208.5 -208.5 98.8
    vertex 110.044573905358 -164.693343456827 98.8
    vertex 75.8000208657152 -182.997438402173 98.8
  endloop
endfacet
facet normal 0 0 1
  outer loop
    vertex 208.5 -208.5 98.8
    vertex 75.8000208657152 -182.997438402173 98.8
    vertex 75.8000208657152 -208.5 98.8
  endloop
endfacet
facet normal 0 0 -1
  outer loop
    vertex 208.5 208.5 2
    vertex -208.5 142.150010432858 2
    vertex -142.150010432858 208.5 2
  endloop
endfacet
facet normal 0 0 -1
  outer loop
    vertex 208.5 208.5 2
    vertex -208.5 -142.150010432858 2
    vertex -208.5 142.150010432858 2
  endloop
endfacet
facet normal 0 0 -1
  outer loop
    vertex 208.5 208.5 2
    vertex -142.150010432858 -208.5 2
    vertex -208.5 -142.150010432858 2
  endloop
endfacet
facet normal 0 0 -1
  outer loop
    vertex 208.5 208.5 2
    vertex 208.5 -208.5 2
    vertex -142.150010432858 -208.5 2
  endloop
endfacet
facet normal -1 0 0
  outer loop
    vertex -208.5 142.150010432858 98.8
    vertex -208.5 142.150010432858 2
    vertex -208.5 75.8000208657152 98.8
  endloop
endfacet
facet normal -1 0 0
  outer loop
    vertex -208.5 75.8000208657152 98.8
    vertex -208.5 142.150010432858 2
    vertex -208.5 75.8000208657152 50.4
  endloop
endfacet
facet normal -1 0 0
  outer loop
    vertex -208.5 142.150010432858 2
    vertex -208.5 -75.8000208657152 50.4
    vertex -208.5 75.8000208657152 50.4
  endloop
endfacet
facet normal -1 0 0
  outer loop
    vertex -208.5 142.150010432858 2
    vertex -208.5 -142.150010432858 2
    vertex -208.5 -75.8000208657152 50.4
  endloop
endfacet
facet normal -1 0 0
  outer loop
    vertex -208.5 -142.150010432858 2
    vertex -208.5 -142.150010432858 98.8
    vertex -208.5 -75.8000208657152 50.4
  endloop
endfacet
facet normal -1 0 0
  outer loop
    vertex -208.5 -75.8000208657152 98.8
    vertex -208.5 -75.8000208657152 50.4
    vertex -208.5 -142.150010432858 98.8
  endloop
endfacet
facet normal 0 1 0
  outer loop
    vertex 208.5 208.5 98.8
    vertex 208.5 208.5 2
    vertex 75.8000208657152 208.5 98.8
  endloop
endfacet
facet normal 0 1 0
  outer loop
    vertex 208.5 208.5 2
    vertex 75.8000208657152 208.5 50.4
    vertex 75.8000208657152 208.5 98.8
  endloop
endfacet
facet normal 0 1 0
  outer loop
    vertex 208.5 208.5 2
    vertex -75.8000208657152 208.5 50.4
    vertex 75.8000208657152 208.5 50.4
  endloop
endfacet
facet normal 0 1 0
  outer loop
    vertex 208.5 208.5 2
    vertex -142.150010432858 208.5 2
    vertex -75.8000208657152 208.5 50.4
  endloop
endfacet
facet normal 0 1 0
  outer loop
    vertex -142.150010432858 208.5 2
    vertex -142.150010432858 208.5 98.8
    vertex -75.8000208657152 208.5 50.4
  endloop
endfacet
facet normal 0 1 0
  outer loop
    vertex -75.8000208657152 208.5 98.8
    vertex -75.8000208657152 208.5 50.4
    vertex -142.150010432858 208.5 98.8
  endloop
endfacet
facet normal 1 0 0
  outer loop
    vertex 208.5 -208.5 98.8
    vertex 208.5 -208.5 2
    vertex 208.5 -75.8000208657152 98.8
  endloop
endfacet
facet normal 1 0 0
  outer loop
    vertex 208.5 -208.5 2
    vertex 208.5 -75.8000208657152 50.4
    vertex 208.5 -75.8000208657152 98.8
  endloop
endfacet
facet normal 1 0 0
  outer loop
    vertex 208.5 -208.5 2
    vertex 208.5 75.8000208657152 50.4
    vertex 208.5 -75.8000208657152 50.4
  endloop
endfacet
facet normal 1 0 0
  outer loop
    vertex 208.5 -208.5 2
    vertex 208.5 208.5 2
    vertex 208.5 75.8000208657152 50.4
  endloop
endfacet
facet normal 1 0 0
  outer loop
    vertex 208.5 208.5 2
    vertex 208.5 208.5 98.8
    vertex 208.5 75.8000208657152 50.4
  endloop
endfacet
facet normal 1 0 0
  outer loop
    vertex 208.5 75.8000208657152 98.8
    vertex 208.5 75.8000208657152 50.4
    vertex 208.5 208.5 98.8
  endloop
endfacet
facet normal 0 -1 0
  outer loop
    vertex -142.150010432858 -208.5 98.8
    vertex -142.150010432858 -208.5 2
    vertex -75.8000208657152 -208.5 98.8
  endloop
endfacet
facet normal 0 -1 0
  outer loop
    vertex -142.150010432858 -208.5 2
    vertex -75.8000208657152 -208.5 50.4
    vertex -75.8000208657152 -208.5 98.8
  endloop
endfacet
facet normal 0 -1 0
  outer loop
    vertex -142.150010432858 -208.5 2
    vertex 75.8000208657152 -208.5 50.4
    vertex -75.8000208657152 -208.5 50.4
  endloop
endfacet
facet normal 0 -1 0
  outer loop
    vertex -142.150010432858 -208.5 2
    vertex 208.5 -208.5 2
    vertex 75.8000208657152 -208.5 50.4
  endloop
endfacet
facet normal 0 -1 0
  outer loop
    vertex 208.5 -208.5 2
    vertex 208.5 -208.5 98.8
    vertex 75.8000208657152 -208.5 50.4
  endloop
endfacet
facet normal 0 -1 0
  outer loop
    vertex 75.8000208657152 -208.5 98.8
    vertex 75.8000208657152 -208.5 50.4
    vertex 208.5 -208.5 98.8
  endloop
endfacet
facet normal -.707106781186548 -.707106781186548 0
  outer loop
    vertex -208.5 -142.150010432858 98.8
    vertex -142.150010432858 -208.5 2
    vertex -142.150010432858 -208.5 98.8
  endloop
endfacet
facet normal -.707106781186548 -.707106781186548 0
  outer loop
    vertex -208.5 -142.150010432858 98.8
    vertex -208.5 -142.150010432858 2
    vertex -142.150010432858 -208.5 2
  endloop
endfacet
facet normal -.707106781186548 .707106781186548 0
  outer loop
    vertex -142.150010432858 208.5 98.8
    vertex -208.5 142.150010432858 2
    vertex -208.5 142.150010432858 98.8
  endloop
endfacet
facet normal -.707106781186548 .707106781186548 0
  outer loop
    vertex -142.150010432858 208.5 98.8
    vertex -142.150010432858 208.5 2
    vertex -208.5 142.150010432858 2
  endloop
endfacet
facet normal 0 1 0
  outer loop
    vertex -182.997438402173 -75.8000208657152 98.8
    vertex -182.997438402173 -75.8000208657152 50.41
    vertex -208.5 -75.8000208657152 98.8
  endloop
endfacet
facet normal 0 1 0
  outer loop
    vertex -182.997438402173 -75.8000208657152 50.41
    vertex -208.5 -75.8000208657152 50.4
    vertex -208.5 -75.8000208657152 98.8
  endloop
endfacet
facet normal 0 -1 0
  outer loop
    vertex -208.5 75.8000208657152 98.8
    vertex -182.997438402173 75.8000208657152 50.41
    vertex -182.997438402173 75.8000208657152 98.8
  endloop
endfacet
facet normal 0 -1 0
  outer loop
    vertex -182.997438402173 75.8000208657152 50.41
    vertex -208.5 75.8000208657152 98.8
    vertex -208.5 75.8000208657152 50.4
  endloop
endfacet
facet normal 1 0 0
  outer loop
    vertex -75.8000208657152 182.997438402173 98.8
    vertex -75.8000208657152 182.997438402173 50.41
    vertex -75.8000208657152 208.5 98.8
  endloop
endfacet
facet normal 1 0 0
  outer loop
    vertex -75.8000208657152 182.997438402173 50.41
    vertex -75.8000208657152 208.5 50.4
    vertex -75.8000208657152 208.5 98.8
  endloop
endfacet
facet normal -1 0 0
  outer loop
    vertex 75.8000208657152 208.5 98.8
    vertex 75.8000208657152 182.997438402173 50.41
    vertex 75.8000208657152 182.997438402173 98.8
  endloop
endfacet
facet normal -1 0 0
  outer loop
    vertex 75.8000208657152 182.997438402173 50.41
    vertex 75.8000208657152 208.5 98.8
    vertex 75.8000208657152 208.5 50.4
  endloop
endfacet
facet normal 0 -1 0
  outer loop
    vertex 182.997438402173 75.8000208657152 98.8
    vertex 182.997438402173 75.8000208657152 50.41
    vertex 208.5 75.8000208657152 98.8
  endloop
endfacet
facet normal 0 -1 0
  outer loop
    vertex 182.997438402173 75.8000208657152 50.41
    vertex 208.5 75.8000208657152 50.4
    vertex 208.5 75.8000208657152 98.8
  endloop
endfacet
facet normal 0 1 0
  outer loop
    vertex 208.5 -75.8000208657152 98.8
    vertex 182.997438402173 -75.8000208657152 50.41
    vertex 182.997438402173 -75.8000208657152 98.8
  endloop
endfacet
facet normal 0 1 0
  outer loop
    vertex 182.997438402173 -75.8000208657152 50.41
    vertex 208.5 -75.8000208657152 98.8
    vertex 208.5 -75.8000208657152 50.4
  endloop
endfacet
facet normal -1 0 0
  outer loop
    vertex 75.8000208657152 -182.997438402173 98.8
    vertex 75.8000208657152 -182.997438402173 50.41
    vertex 75.8000208657152 -208.5 98.8
  endloop
endfacet
facet normal -1 0 0
  outer loop
    vertex 75.8000208657152 -182.997438402173 50.41
    vertex 75.8000208657152 -208.5 50.4
    vertex 75.8000208657152 -208.5 98.8
  endloop
endfacet
facet normal 1 0 0
  outer loop
    vertex -75.8000208657152 -208.5 98.8
    vertex -75.8000208657152 -182.997438402173 50.41
    vertex -75.8000208657152 -182.997438402173 98.8
  endloop
endfacet
facet normal 1 0 0
  outer loop
    vertex -75.8000208657152 -182.997438402173 50.41
    vertex -75.8000208657152 -208.5 98.8
    vertex -75.8000208657152 -208.5 50.4
  endloop
endfacet
facet normal 1.18947524928823E-04 3.92117439736997E-04 .999999916047696
  outer loop
    vertex 75.8000208657152 208.5 50.4
    vertex 38.6425155333446 194.26904441587 50.41
    vertex 75.8000208657152 182.997438402173 50.41
  endloop
endfacet
facet normal 5.50518765150477E-05 5.58951082414904E-04 .999999842271477
  outer loop
    vertex 75.8000208657152 208.5 50.4
    vertex 1.21285957370556E-14 198.075 50.41
    vertex 38.6425155333446 194.26904441587 50.41
  endloop
endfacet
facet normal -5.50518765150477E-05 5.58951082414904E-04 .999999842271477
  outer loop
    vertex -75.8000208657152 208.5 50.4
    vertex -38.6425155333446 194.26904441587 50.41
    vertex 1.21285957370556E-14 198.075 50.41
  endloop
endfacet
facet normal -1.18947524928823E-04 3.92117439736997E-04 .999999916047696
  outer loop
    vertex -75.8000208657152 208.5 50.4
    vertex -75.8000208657152 182.997438402173 50.41
    vertex -38.6425155333446 194.26904441587 50.41
  endloop
endfacet
facet normal 0 9.59232172600972E-04 .999999539936714
  outer loop
    vertex 75.8000208657152 208.5 50.4
    vertex -75.8000208657152 208.5 50.4
    vertex 1.21285957370556E-14 198.075 50.41
  endloop
endfacet
facet normal -3.92117439736997E-04 1.18947524928823E-04 .999999916047696
  outer loop
    vertex -208.5 75.8000208657152 50.4
    vertex -194.26904441587 38.6425155333446 50.41
    vertex -182.997438402173 75.8000208657152 50.41
  endloop
endfacet
facet normal -5.58951082414904E-04 5.50518765150477E-05 .999999842271477
  outer loop
    vertex -208.5 75.8000208657152 50.4
    vertex -198.075 0 50.41
    vertex -194.26904441587 38.6425155333446 50.41
  endloop
endfacet
facet normal -5.58951082414904E-04 -5.50518765150477E-05 .999999842271477
  outer loop
    vertex -208.5 -75.8000208657152 50.4
    vertex -194.26904441587 -38.6425155333446 50.41
    vertex -198.075 0 50.41
  endloop
endfacet
facet normal -3.92117439736997E-04 -1.18947524928823E-04 .999999916047696
  outer loop
    vertex -208.5 -75.8000208657152 50.4
    vertex -182.997438402173 -75.8000208657152 50.41
    vertex -194.26904441587 -38.6425155333446 50.41
  endloop
endfacet
facet normal -9.59232172600972E-04 0 .999999539936714
  outer loop
    vertex -208.5 75.8000208657152 50.4
    vertex -208.5 -75.8000208657152 50.4
    vertex -198.075 0 50.41
  endloop
endfacet
facet normal -1.18947524928823E-04 -3.92117439736997E-04 .999999916047696
  outer loop
    vertex -75.8000208657152 -208.5 50.4
    vertex -38.6425155333446 -194.26904441587 50.41
    vertex -75.8000208657152 -182.997438402173 50.41
  endloop
endfacet
facet normal -5.50518765150477E-05 -5.58951082414904E-04 .999999842271477
  outer loop
    vertex -75.8000208657152 -208.5 50.4
    vertex -1.21285957370556E-14 -198.075 50.41
    vertex -38.6425155333446 -194.26904441587 50.41
  endloop
endfacet
facet normal 5.50518765150477E-05 -5.58951082414904E-04 .999999842271477
  outer loop
    vertex 75.8000208657152 -208.5 50.4
    vertex 38.6425155333446 -194.26904441587 50.41
    vertex -1.21285957370556E-14 -198.075 50.41
  endloop
endfacet
facet normal 1.18947524928823E-04 -3.92117439736997E-04 .999999916047696
  outer loop
    vertex 75.8000208657152 -208.5 50.4
    vertex 75.8000208657152 -182.997438402173 50.41
    vertex 38.6425155333446 -194.26904441587 50.41
  endloop
endfacet
facet normal 0 -9.59232172600972E-04 .999999539936714
  outer loop
    vertex -75.8000208657152 -208.5 50.4
    vertex 75.8000208657152 -208.5 50.4
    vertex -1.21285957370556E-14 -198.075 50.41
  endloop
endfacet
facet normal 3.92117439736997E-04 -1.18947524928823E-04 .999999916047696
  outer loop
    vertex 208.5 -75.8000208657152 50.4
    vertex 194.26904441587 -38.6425155333446 50.41
    vertex 182.997438402173 -75.8000208657152 50.41
  endloop
endfacet
facet normal 5.58951082414904E-04 -5.50518765150477E-05 .999999842271477
  outer loop
    vertex 208.5 -75.8000208657152 50.4
    vertex 198.075 0 50.41
    vertex 194.26904441587 -38.6425155333446 50.41
  endloop
endfacet
facet normal 5.58951082414904E-04 5.50518765150477E-05 .999999842271477
  outer loop
    vertex 208.5 75.8000208657152 50.4
    vertex 194.26904441587 38.6425155333446 50.41
    vertex 198.075 0 50.41
  endloop
endfacet
facet normal 3.92117439736997E-04 1.18947524928823E-04 .999999916047696
  outer loop
    vertex 208.5 75.8000208657152 50.4
    vertex 182.997438402173 75.8000208657152 50.41
    vertex 194.26904441587 38.6425155333446 50.41
  endloop
endfacet
facet normal 9.59232172600972E-04 0 .999999539936714
  outer loop
    vertex 208.5 -75.8000208657152 50.4
    vertex 208.5 75.8000208657152 50.4
    vertex 198.075 0 50.41
  endloop
endfacet
facet normal 1 0 0
  outer loop
    vertex 250 -23.5 0
    vertex 250 23.5 10
    vertex 250 -23.5 10
  endloop
endfacet
facet normal 1 0 0
  outer loop
    vertex 250 -23.5 0
    vertex 250 23.5 0
    vertex 250 23.5 10
  endloop
endfacet
facet normal 0 1 0
  outer loop
    vertex 250 23.5 10
    vertex 250 23.5 0
    vertex 208.5 23.5 10
  endloop
endfacet
facet normal 0 1 0
  outer loop
    vertex 208.5 23.5 10
    vertex 250 23.5 0
    vertex 208.5 23.5 2
  endloop
endfacet
facet normal 0 1 0
  outer loop
    vertex 208.5 23.5 2
    vertex 250 23.5 0
    vertex 89 23.5 2
  endloop
endfacet
facet normal 0 1 0
  outer loop
    vertex 89 23.5 0
    vertex 89 23.5 2
    vertex 250 23.5 0
  endloop
endfacet
facet normal -1 0 0
  outer loop
    vertex 89 23.5 0
    vertex 89 -23.5 2
    vertex 89 23.5 2
  endloop
endfacet
facet normal -1 0 0
  outer loop
    vertex 89 23.5 0
    vertex 89 -23.5 0
    vertex 89 -23.5 2
  endloop
endfacet
facet normal 0 -1 0
  outer loop
    vertex 208.5 -23.5 2
    vertex 89 -23.5 2
    vertex 89 -23.5 0
  endloop
endfacet
facet normal 0 -1 0
  outer loop
    vertex 208.5 -23.5 2
    vertex 89 -23.5 0
    vertex 250 -23.5 0
  endloop
endfacet
facet normal 0 -1 0
  outer loop
    vertex 208.5 -23.5 2
    vertex 250 -23.5 10
    vertex 208.5 -23.5 10
  endloop
endfacet
facet normal 0 -1 0
  outer loop
    vertex 208.5 -23.5 2
    vertex 250 -23.5 0
    vertex 250 -23.5 10
  endloop
endfacet
facet normal -1 0 0
  outer loop
    vertex 208.5 23.5 10
    vertex 208.5 -23.5 2
    vertex 208.5 -23.5 10
  endloop
endfacet
facet normal -1 0 0
  outer loop
    vertex 208.5 23.5 10
    vertex 208.5 23.5 2
    vertex 208.5 -23.5 2
  endloop
endfacet
facet normal 0 0 1
  outer loop
    vertex 250 -23.5 10
    vertex 250 23.5 10
    vertex 208.5 -23.5 10
  endloop
endfacet
facet normal 0 0 1
  outer loop
    vertex 208.5 -23.5 10
    vertex 250 23.5 10
    vertex 208.5 23.5 10
  endloop
endfacet
facet normal 0 0 1
  outer loop
    vertex 208.5 -23.5 2
    vertex 208.5 23.5 2
    vertex 89 -23.5 2
  endloop
endfacet
facet normal 0 0 1
  outer loop
    vertex 208.5 23.5 2
    vertex 89 23.5 2
    vertex 89 -23.5 2
  endloop
endfacet
facet normal 0 0 -1
  outer loop
    vertex 250 -23.5 0
    vertex 89 -23.5 0
    vertex 250 23.5 0
  endloop
endfacet
facet normal 0 0 -1
  outer loop
    vertex 250 23.5 0
    vertex 89 -23.5 0
    vertex 89 23.5 0
  endloop
endfacet
facet normal -1 0 0
  outer loop
    vertex -250 23.5 0
    vertex -250 -23.5 10
    vertex -250 23.5 10
  endloop
endfacet
facet normal -1 0 0
  outer loop
    vertex -250 23.5 0
    vertex -250 -23.5 0
    vertex -250 -23.5 10
  endloop
endfacet
facet normal 0 -1 0
  outer loop
    vertex -250 -23.5 10
    vertex -250 -23.5 0
    vertex -208.5 -23.5 10
  endloop
endfacet
facet normal 0 -1 0
  outer loop
    vertex -208.5 -23.5 10
    vertex -250 -23.5 0
    vertex -208.5 -23.5 2
  endloop
endfacet
facet normal 0 -1 0
  outer loop
    vertex -208.5 -23.5 2
    vertex -250 -23.5 0
    vertex -89 -23.5 2
  endloop
endfacet
facet normal 0 -1 0
  outer loop
    vertex -89 -23.5 0
    vertex -89 -23.5 2
    vertex -250 -23.5 0
  endloop
endfacet
facet normal 1 0 0
  outer loop
    vertex -89 -23.5 0
    vertex -89 23.5 2
    vertex -89 -23.5 2
  endloop
endfacet
facet normal 1 0 0
  outer loop
    vertex -89 -23.5 0
    vertex -89 23.5 0
    vertex -89 23.5 2
  endloop
endfacet
facet normal 0 1 0
  outer loop
    vertex -208.5 23.5 2
    vertex -89 23.5 2
    vertex -89 23.5 0
  endloop
endfacet
facet normal 0 1 0
  outer loop
    vertex -208.5 23.5 2
    vertex -89 23.5 0
    vertex -250 23.5 0
  endloop
endfacet
facet normal 0 1 0
  outer loop
    vertex -208.5 23.5 2
    vertex -250 23.5 10
    vertex -208.5 23.5 10
  endloop
endfacet
facet normal 0 1 0
  outer loop
    vertex -208.5 23.5 2
    vertex -250 23.5 0
    vertex -250 23.5 10
  endloop
endfacet
facet normal 1 0 0
  outer loop
    vertex -208.5 -23.5 10
    vertex -208.5 23.5 2
    vertex -208.5 23.5 10
  endloop
endfacet
facet normal 1 0 0
  outer loop
    vertex -208.5 -23.5 10
    vertex -208.5 -23.5 2
    vertex -208.5 23.5 2
  endloop
endfacet
facet normal 0 0 1
  outer loop
    vertex -250 23.5 10
    vertex -250 -23.5 10
    vertex -208.5 23.5 10
  endloop
endfacet
facet normal 0 0 1
  outer loop
    vertex -208.5 23.5 10
    vertex -250 -23.5 10
    vertex -208.5 -23.5 10
  endloop
endfacet
facet normal 0 0 1
  outer loop
    vertex -208.5 23.5 2
    vertex -208.5 -23.5 2
    vertex -89 23.5 2
  endloop
endfacet
facet normal 0 0 1
  outer loop
    vertex -208.5 -23.5 2
    vertex -89 -23.5 2
    vertex -89 23.5 2
  endloop
endfacet
facet normal 0 0 -1
  outer loop
    vertex -250 23.5 0
    vertex -89 23.5 0
    vertex -250 -23.5 0
  endloop
endfacet
facet normal 0 0 -1
  outer loop
    vertex -250 -23.5 0
    vertex -89 23.5 0
    vertex -89 -23.5 0
  endloop
endfacet
endsolid CAP_2153_1012-M
