solid DBV5-M
facet normal 0 0 -1
  outer loop
    vertex -17.6684708490936 37.40157 57
    vertex -15.976616240398 37.7381008054778 57
    vertex -15.9434708490936 37.40157 57
  endloop
endfacet
facet normal 0 0 -1
  outer loop
    vertex -17.6684708490936 37.40157 57
    vertex -16.0747786555116 38.0616989208298 57
    vertex -15.976616240398 37.7381008054778 57
  endloop
endfacet
facet normal 0 0 -1
  outer loop
    vertex -17.6684708490936 37.40157 57
    vertex -16.2341857678717 38.3599286519588 57
    vertex -16.0747786555116 38.0616989208298 57
  endloop
endfacet
facet normal 0 0 -1
  outer loop
    vertex -17.6684708490936 37.40157 57
    vertex -16.4487116515468 38.6213291975468 57
    vertex -16.2341857678717 38.3599286519588 57
  endloop
endfacet
facet normal 0 0 -1
  outer loop
    vertex -17.6684708490936 37.40157 57
    vertex -16.7101121971347 38.8358550812219 57
    vertex -16.4487116515468 38.6213291975468 57
  endloop
endfacet
facet normal 0 0 -1
  outer loop
    vertex -17.6684708490936 37.40157 57
    vertex -17.0083419282638 38.995262193582 57
    vertex -16.7101121971347 38.8358550812219 57
  endloop
endfacet
facet normal 0 0 -1
  outer loop
    vertex -17.6684708490936 37.40157 57
    vertex -17.3319400436157 39.0934246086956 57
    vertex -17.0083419282638 38.995262193582 57
  endloop
endfacet
facet normal 0 0 -1
  outer loop
    vertex -17.6684708490936 37.40157 57
    vertex -17.6684708490936 39.12657 57
    vertex -17.3319400436157 39.0934246086956 57
  endloop
endfacet
facet normal 0 0 -1
  outer loop
    vertex -17.6684708490936 37.40157 57
    vertex -18.0050016545714 39.0934246086956 57
    vertex -17.6684708490936 39.12657 57
  endloop
endfacet
facet normal 0 0 -1
  outer loop
    vertex -17.6684708490936 37.40157 57
    vertex -18.3285997699233 38.995262193582 57
    vertex -18.0050016545714 39.0934246086956 57
  endloop
endfacet
facet normal 0 0 -1
  outer loop
    vertex -17.6684708490936 37.40157 57
    vertex -18.6268295010524 38.8358550812219 57
    vertex -18.3285997699233 38.995262193582 57
  endloop
endfacet
facet normal 0 0 -1
  outer loop
    vertex -17.6684708490936 37.40157 57
    vertex -18.8882300466404 38.6213291975468 57
    vertex -18.6268295010524 38.8358550812219 57
  endloop
endfacet
facet normal 0 0 -1
  outer loop
    vertex -17.6684708490936 37.40157 57
    vertex -19.1027559303155 38.3599286519588 57
    vertex -18.8882300466404 38.6213291975468 57
  endloop
endfacet
facet normal 0 0 -1
  outer loop
    vertex -17.6684708490936 37.40157 57
    vertex -19.2621630426755 38.0616989208298 57
    vertex -19.1027559303155 38.3599286519588 57
  endloop
endfacet
facet normal 0 0 -1
  outer loop
    vertex -17.6684708490936 37.40157 57
    vertex -19.3603254577891 37.7381008054778 57
    vertex -19.2621630426755 38.0616989208298 57
  endloop
endfacet
facet normal 0 0 -1
  outer loop
    vertex -17.6684708490936 37.40157 57
    vertex -19.3934708490936 37.40157 57
    vertex -19.3603254577891 37.7381008054778 57
  endloop
endfacet
facet normal 0 0 -1
  outer loop
    vertex -17.6684708490936 37.40157 57
    vertex -19.3603254577891 37.0650391945222 57
    vertex -19.3934708490936 37.40157 57
  endloop
endfacet
facet normal 0 0 -1
  outer loop
    vertex -17.6684708490936 37.40157 57
    vertex -19.2621630426755 36.7414410791702 57
    vertex -19.3603254577891 37.0650391945222 57
  endloop
endfacet
facet normal 0 0 -1
  outer loop
    vertex -17.6684708490936 37.40157 57
    vertex -19.1027559303155 36.4432113480412 57
    vertex -19.2621630426755 36.7414410791702 57
  endloop
endfacet
facet normal 0 0 -1
  outer loop
    vertex -17.6684708490936 37.40157 57
    vertex -18.8882300466404 36.1818108024532 57
    vertex -19.1027559303155 36.4432113480412 57
  endloop
endfacet
facet normal 0 0 -1
  outer loop
    vertex -17.6684708490936 37.40157 57
    vertex -18.6268295010524 35.9672849187781 57
    vertex -18.8882300466404 36.1818108024532 57
  endloop
endfacet
facet normal 0 0 -1
  outer loop
    vertex -17.6684708490936 37.40157 57
    vertex -18.3285997699233 35.807877806418 57
    vertex -18.6268295010524 35.9672849187781 57
  endloop
endfacet
facet normal 0 0 -1
  outer loop
    vertex -17.6684708490936 37.40157 57
    vertex -18.0050016545714 35.7097153913044 57
    vertex -18.3285997699233 35.807877806418 57
  endloop
endfacet
facet normal 0 0 -1
  outer loop
    vertex -17.6684708490936 37.40157 57
    vertex -17.6684708490936 35.67657 57
    vertex -18.0050016545714 35.7097153913044 57
  endloop
endfacet
facet normal 0 0 -1
  outer loop
    vertex -17.6684708490936 37.40157 57
    vertex -17.3319400436157 35.7097153913044 57
    vertex -17.6684708490936 35.67657 57
  endloop
endfacet
facet normal 0 0 -1
  outer loop
    vertex -17.6684708490936 37.40157 57
    vertex -17.0083419282638 35.807877806418 57
    vertex -17.3319400436157 35.7097153913044 57
  endloop
endfacet
facet normal 0 0 -1
  outer loop
    vertex -17.6684708490936 37.40157 57
    vertex -16.7101121971347 35.9672849187781 57
    vertex -17.0083419282638 35.807877806418 57
  endloop
endfacet
facet normal 0 0 -1
  outer loop
    vertex -17.6684708490936 37.40157 57
    vertex -16.4487116515468 36.1818108024532 57
    vertex -16.7101121971347 35.9672849187781 57
  endloop
endfacet
facet normal 0 0 -1
  outer loop
    vertex -17.6684708490936 37.40157 57
    vertex -16.2341857678717 36.4432113480412 57
    vertex -16.4487116515468 36.1818108024532 57
  endloop
endfacet
facet normal 0 0 -1
  outer loop
    vertex -17.6684708490936 37.40157 57
    vertex -16.0747786555116 36.7414410791702 57
    vertex -16.2341857678717 36.4432113480412 57
  endloop
endfacet
facet normal 0 0 -1
  outer loop
    vertex -17.6684708490936 37.40157 57
    vertex -15.976616240398 37.0650391945222 57
    vertex -16.0747786555116 36.7414410791702 57
  endloop
endfacet
facet normal 0 0 -1
  outer loop
    vertex -17.6684708490936 37.40157 57
    vertex -15.9434708490936 37.40157 57
    vertex -15.976616240398 37.0650391945222 57
  endloop
endfacet
facet normal 0 0 1
  outer loop
    vertex -17.6684708490936 37.40157 57.1
    vertex -15.9434708490936 37.40157 57.1
    vertex -15.976616240398 37.7381008054778 57.1
  endloop
endfacet
facet normal 0 0 1
  outer loop
    vertex -17.6684708490936 37.40157 57.1
    vertex -15.976616240398 37.7381008054778 57.1
    vertex -16.0747786555116 38.0616989208298 57.1
  endloop
endfacet
facet normal 0 0 1
  outer loop
    vertex -17.6684708490936 37.40157 57.1
    vertex -16.0747786555116 38.0616989208298 57.1
    vertex -16.2341857678717 38.3599286519588 57.1
  endloop
endfacet
facet normal 0 0 1
  outer loop
    vertex -17.6684708490936 37.40157 57.1
    vertex -16.2341857678717 38.3599286519588 57.1
    vertex -16.4487116515468 38.6213291975468 57.1
  endloop
endfacet
facet normal 0 0 1
  outer loop
    vertex -17.6684708490936 37.40157 57.1
    vertex -16.4487116515468 38.6213291975468 57.1
    vertex -16.7101121971347 38.8358550812219 57.1
  endloop
endfacet
facet normal 0 0 1
  outer loop
    vertex -17.6684708490936 37.40157 57.1
    vertex -16.7101121971347 38.8358550812219 57.1
    vertex -17.0083419282638 38.995262193582 57.1
  endloop
endfacet
facet normal 0 0 1
  outer loop
    vertex -17.6684708490936 37.40157 57.1
    vertex -17.0083419282638 38.995262193582 57.1
    vertex -17.3319400436157 39.0934246086956 57.1
  endloop
endfacet
facet normal 0 0 1
  outer loop
    vertex -17.6684708490936 37.40157 57.1
    vertex -17.3319400436157 39.0934246086956 57.1
    vertex -17.6684708490936 39.12657 57.1
  endloop
endfacet
facet normal 0 0 1
  outer loop
    vertex -17.6684708490936 37.40157 57.1
    vertex -17.6684708490936 39.12657 57.1
    vertex -18.0050016545714 39.0934246086956 57.1
  endloop
endfacet
facet normal 0 0 1
  outer loop
    vertex -17.6684708490936 37.40157 57.1
    vertex -18.0050016545714 39.0934246086956 57.1
    vertex -18.3285997699233 38.995262193582 57.1
  endloop
endfacet
facet normal 0 0 1
  outer loop
    vertex -17.6684708490936 37.40157 57.1
    vertex -18.3285997699233 38.995262193582 57.1
    vertex -18.6268295010524 38.8358550812219 57.1
  endloop
endfacet
facet normal 0 0 1
  outer loop
    vertex -17.6684708490936 37.40157 57.1
    vertex -18.6268295010524 38.8358550812219 57.1
    vertex -18.8882300466404 38.6213291975468 57.1
  endloop
endfacet
facet normal 0 0 1
  outer loop
    vertex -17.6684708490936 37.40157 57.1
    vertex -18.8882300466404 38.6213291975468 57.1
    vertex -19.1027559303155 38.3599286519588 57.1
  endloop
endfacet
facet normal 0 0 1
  outer loop
    vertex -17.6684708490936 37.40157 57.1
    vertex -19.1027559303155 38.3599286519588 57.1
    vertex -19.2621630426755 38.0616989208298 57.1
  endloop
endfacet
facet normal 0 0 1
  outer loop
    vertex -17.6684708490936 37.40157 57.1
    vertex -19.2621630426755 38.0616989208298 57.1
    vertex -19.3603254577891 37.7381008054778 57.1
  endloop
endfacet
facet normal 0 0 1
  outer loop
    vertex -17.6684708490936 37.40157 57.1
    vertex -19.3603254577891 37.7381008054778 57.1
    vertex -19.3934708490936 37.40157 57.1
  endloop
endfacet
facet normal 0 0 1
  outer loop
    vertex -17.6684708490936 37.40157 57.1
    vertex -19.3934708490936 37.40157 57.1
    vertex -19.3603254577891 37.0650391945222 57.1
  endloop
endfacet
facet normal 0 0 1
  outer loop
    vertex -17.6684708490936 37.40157 57.1
    vertex -19.3603254577891 37.0650391945222 57.1
    vertex -19.2621630426755 36.7414410791702 57.1
  endloop
endfacet
facet normal 0 0 1
  outer loop
    vertex -17.6684708490936 37.40157 57.1
    vertex -19.2621630426755 36.7414410791702 57.1
    vertex -19.1027559303155 36.4432113480412 57.1
  endloop
endfacet
facet normal 0 0 1
  outer loop
    vertex -17.6684708490936 37.40157 57.1
    vertex -19.1027559303155 36.4432113480412 57.1
    vertex -18.8882300466404 36.1818108024532 57.1
  endloop
endfacet
facet normal 0 0 1
  outer loop
    vertex -17.6684708490936 37.40157 57.1
    vertex -18.8882300466404 36.1818108024532 57.1
    vertex -18.6268295010524 35.9672849187781 57.1
  endloop
endfacet
facet normal 0 0 1
  outer loop
    vertex -17.6684708490936 37.40157 57.1
    vertex -18.6268295010524 35.9672849187781 57.1
    vertex -18.3285997699233 35.807877806418 57.1
  endloop
endfacet
facet normal 0 0 1
  outer loop
    vertex -17.6684708490936 37.40157 57.1
    vertex -18.3285997699233 35.807877806418 57.1
    vertex -18.0050016545714 35.7097153913044 57.1
  endloop
endfacet
facet normal 0 0 1
  outer loop
    vertex -17.6684708490936 37.40157 57.1
    vertex -18.0050016545714 35.7097153913044 57.1
    vertex -17.6684708490936 35.67657 57.1
  endloop
endfacet
facet normal 0 0 1
  outer loop
    vertex -17.6684708490936 37.40157 57.1
    vertex -17.6684708490936 35.67657 57.1
    vertex -17.3319400436157 35.7097153913044 57.1
  endloop
endfacet
facet normal 0 0 1
  outer loop
    vertex -17.6684708490936 37.40157 57.1
    vertex -17.3319400436157 35.7097153913044 57.1
    vertex -17.0083419282638 35.807877806418 57.1
  endloop
endfacet
facet normal 0 0 1
  outer loop
    vertex -17.6684708490936 37.40157 57.1
    vertex -17.0083419282638 35.807877806418 57.1
    vertex -16.7101121971347 35.9672849187781 57.1
  endloop
endfacet
facet normal 0 0 1
  outer loop
    vertex -17.6684708490936 37.40157 57.1
    vertex -16.7101121971347 35.9672849187781 57.1
    vertex -16.4487116515468 36.1818108024532 57.1
  endloop
endfacet
facet normal 0 0 1
  outer loop
    vertex -17.6684708490936 37.40157 57.1
    vertex -16.4487116515468 36.1818108024532 57.1
    vertex -16.2341857678717 36.4432113480412 57.1
  endloop
endfacet
facet normal 0 0 1
  outer loop
    vertex -17.6684708490936 37.40157 57.1
    vertex -16.2341857678717 36.4432113480412 57.1
    vertex -16.0747786555116 36.7414410791702 57.1
  endloop
endfacet
facet normal 0 0 1
  outer loop
    vertex -17.6684708490936 37.40157 57.1
    vertex -16.0747786555116 36.7414410791702 57.1
    vertex -15.976616240398 37.0650391945222 57.1
  endloop
endfacet
facet normal 0 0 1
  outer loop
    vertex -17.6684708490936 37.40157 57.1
    vertex -15.976616240398 37.0650391945222 57.1
    vertex -15.9434708490936 37.40157 57.1
  endloop
endfacet
facet normal .995184726672204 9.80171403294856E-02 0
  outer loop
    vertex -15.9434708490936 37.40157 57
    vertex -15.976616240398 37.7381008054778 57.1
    vertex -15.9434708490936 37.40157 57.1
  endloop
endfacet
facet normal .956940335732221 .290284677254424 0
  outer loop
    vertex -15.976616240398 37.7381008054778 57
    vertex -16.0747786555116 38.0616989208298 57.1
    vertex -15.976616240398 37.7381008054778 57.1
  endloop
endfacet
facet normal .881921264348311 .47139673682608 0
  outer loop
    vertex -16.0747786555116 38.0616989208298 57
    vertex -16.2341857678717 38.3599286519588 57.1
    vertex -16.0747786555116 38.0616989208298 57.1
  endloop
endfacet
facet normal .773010453362748 .634393284163632 0
  outer loop
    vertex -16.2341857678717 38.3599286519588 57
    vertex -16.4487116515468 38.6213291975468 57.1
    vertex -16.2341857678717 38.3599286519588 57.1
  endloop
endfacet
facet normal .634393284163776 .77301045336263 0
  outer loop
    vertex -16.4487116515468 38.6213291975468 57
    vertex -16.7101121971347 38.8358550812219 57.1
    vertex -16.4487116515468 38.6213291975468 57.1
  endloop
endfacet
facet normal .471396736825962 .881921264348374 0
  outer loop
    vertex -16.7101121971347 38.8358550812219 57
    vertex -17.0083419282638 38.995262193582 57.1
    vertex -16.7101121971347 38.8358550812219 57.1
  endloop
endfacet
facet normal .2902846772545 .956940335732197 0
  outer loop
    vertex -17.0083419282638 38.995262193582 57
    vertex -17.3319400436157 39.0934246086956 57.1
    vertex -17.0083419282638 38.995262193582 57.1
  endloop
endfacet
facet normal 9.80171403294611E-02 .995184726672207 0
  outer loop
    vertex -17.3319400436157 39.0934246086956 57
    vertex -17.6684708490936 39.12657 57.1
    vertex -17.3319400436157 39.0934246086956 57.1
  endloop
endfacet
facet normal -9.80171403294908E-02 .995184726672204 0
  outer loop
    vertex -17.6684708490936 39.12657 57
    vertex -18.0050016545714 39.0934246086956 57.1
    vertex -17.6684708490936 39.12657 57.1
  endloop
endfacet
facet normal -.2902846772545 .956940335732197 0
  outer loop
    vertex -18.0050016545714 39.0934246086956 57
    vertex -18.3285997699233 38.995262193582 57.1
    vertex -18.0050016545714 39.0934246086956 57.1
  endloop
endfacet
facet normal -.471396736825967 .881921264348372 0
  outer loop
    vertex -18.3285997699233 38.995262193582 57
    vertex -18.6268295010524 38.8358550812219 57.1
    vertex -18.3285997699233 38.995262193582 57.1
  endloop
endfacet
facet normal -.634393284163627 .773010453362752 0
  outer loop
    vertex -18.6268295010524 38.8358550812219 57
    vertex -18.8882300466404 38.6213291975468 57.1
    vertex -18.6268295010524 38.8358550812219 57.1
  endloop
endfacet
facet normal -.773010453362748 .634393284163632 0
  outer loop
    vertex -18.8882300466404 38.6213291975468 57
    vertex -19.1027559303155 38.3599286519588 57.1
    vertex -18.8882300466404 38.6213291975468 57.1
  endloop
endfacet
facet normal -.881921264348433 .471396736825851 0
  outer loop
    vertex -19.1027559303155 38.3599286519588 57
    vertex -19.2621630426755 38.0616989208298 57.1
    vertex -19.1027559303155 38.3599286519588 57.1
  endloop
endfacet
facet normal -.956940335732222 .290284677254419 0
  outer loop
    vertex -19.2621630426755 38.0616989208298 57
    vertex -19.3603254577891 37.7381008054778 57.1
    vertex -19.2621630426755 38.0616989208298 57.1
  endloop
endfacet
facet normal -.995184726672175 9.80171403297822E-02 0
  outer loop
    vertex -19.3603254577891 37.7381008054778 57
    vertex -19.3934708490936 37.40157 57.1
    vertex -19.3603254577891 37.7381008054778 57.1
  endloop
endfacet
facet normal -.995184726672175 -9.80171403297822E-02 0
  outer loop
    vertex -19.3934708490936 37.40157 57
    vertex -19.3603254577891 37.0650391945222 57.1
    vertex -19.3934708490936 37.40157 57.1
  endloop
endfacet
facet normal -.956940335732222 -.290284677254419 0
  outer loop
    vertex -19.3603254577891 37.0650391945222 57
    vertex -19.2621630426755 36.7414410791702 57.1
    vertex -19.3603254577891 37.0650391945222 57.1
  endloop
endfacet
facet normal -.881921264348429 -.47139673682586 0
  outer loop
    vertex -19.2621630426755 36.7414410791702 57
    vertex -19.1027559303155 36.4432113480412 57.1
    vertex -19.2621630426755 36.7414410791702 57.1
  endloop
endfacet
facet normal -.773010453362756 -.634393284163622 0
  outer loop
    vertex -19.1027559303155 36.4432113480412 57
    vertex -18.8882300466404 36.1818108024532 57.1
    vertex -19.1027559303155 36.4432113480412 57.1
  endloop
endfacet
facet normal -.634393284163627 -.773010453362752 0
  outer loop
    vertex -18.8882300466404 36.1818108024532 57
    vertex -18.6268295010524 35.9672849187781 57.1
    vertex -18.8882300466404 36.1818108024532 57.1
  endloop
endfacet
facet normal -.471396736825967 -.881921264348372 0
  outer loop
    vertex -18.6268295010524 35.9672849187781 57
    vertex -18.3285997699233 35.807877806418 57.1
    vertex -18.6268295010524 35.9672849187781 57.1
  endloop
endfacet
facet normal -.2902846772545 -.956940335732197 0
  outer loop
    vertex -18.3285997699233 35.807877806418 57
    vertex -18.0050016545714 35.7097153913044 57.1
    vertex -18.3285997699233 35.807877806418 57.1
  endloop
endfacet
facet normal -9.80171403294908E-02 -.995184726672204 0
  outer loop
    vertex -18.0050016545714 35.7097153913044 57
    vertex -17.6684708490936 35.67657 57.1
    vertex -18.0050016545714 35.7097153913044 57.1
  endloop
endfacet
facet normal 9.80171403294611E-02 -.995184726672207 0
  outer loop
    vertex -17.6684708490936 35.67657 57
    vertex -17.3319400436157 35.7097153913044 57.1
    vertex -17.6684708490936 35.67657 57.1
  endloop
endfacet
facet normal .2902846772545 -.956940335732197 0
  outer loop
    vertex -17.3319400436157 35.7097153913044 57
    vertex -17.0083419282638 35.807877806418 57.1
    vertex -17.3319400436157 35.7097153913044 57.1
  endloop
endfacet
facet normal .471396736825962 -.881921264348374 0
  outer loop
    vertex -17.0083419282638 35.807877806418 57
    vertex -16.7101121971347 35.9672849187781 57.1
    vertex -17.0083419282638 35.807877806418 57.1
  endloop
endfacet
facet normal .634393284163776 -.77301045336263 0
  outer loop
    vertex -16.7101121971347 35.9672849187781 57
    vertex -16.4487116515468 36.1818108024532 57.1
    vertex -16.7101121971347 35.9672849187781 57.1
  endloop
endfacet
facet normal .773010453362756 -.634393284163622 0
  outer loop
    vertex -16.4487116515468 36.1818108024532 57
    vertex -16.2341857678717 36.4432113480412 57.1
    vertex -16.4487116515468 36.1818108024532 57.1
  endloop
endfacet
facet normal .881921264348306 -.471396736826089 0
  outer loop
    vertex -16.2341857678717 36.4432113480412 57
    vertex -16.0747786555116 36.7414410791702 57.1
    vertex -16.2341857678717 36.4432113480412 57.1
  endloop
endfacet
facet normal .956940335732221 -.290284677254424 0
  outer loop
    vertex -16.0747786555116 36.7414410791702 57
    vertex -15.976616240398 37.0650391945222 57.1
    vertex -16.0747786555116 36.7414410791702 57.1
  endloop
endfacet
facet normal .995184726672204 -9.80171403294856E-02 0
  outer loop
    vertex -15.976616240398 37.0650391945222 57
    vertex -15.9434708490936 37.40157 57.1
    vertex -15.976616240398 37.0650391945222 57.1
  endloop
endfacet
facet normal .995184726672204 9.80171403294856E-02 0
  outer loop
    vertex -15.976616240398 37.7381008054778 57
    vertex -15.976616240398 37.7381008054778 57.1
    vertex -15.9434708490936 37.40157 57
  endloop
endfacet
facet normal .956940335732221 .290284677254424 0
  outer loop
    vertex -16.0747786555116 38.0616989208298 57
    vertex -16.0747786555116 38.0616989208298 57.1
    vertex -15.976616240398 37.7381008054778 57
  endloop
endfacet
facet normal .881921264348311 .47139673682608 0
  outer loop
    vertex -16.2341857678717 38.3599286519588 57
    vertex -16.2341857678717 38.3599286519588 57.1
    vertex -16.0747786555116 38.0616989208298 57
  endloop
endfacet
facet normal .773010453362748 .634393284163632 0
  outer loop
    vertex -16.4487116515468 38.6213291975468 57
    vertex -16.4487116515468 38.6213291975468 57.1
    vertex -16.2341857678717 38.3599286519588 57
  endloop
endfacet
facet normal .634393284163776 .77301045336263 0
  outer loop
    vertex -16.7101121971347 38.8358550812219 57
    vertex -16.7101121971347 38.8358550812219 57.1
    vertex -16.4487116515468 38.6213291975468 57
  endloop
endfacet
facet normal .471396736825962 .881921264348374 0
  outer loop
    vertex -17.0083419282638 38.995262193582 57
    vertex -17.0083419282638 38.995262193582 57.1
    vertex -16.7101121971347 38.8358550812219 57
  endloop
endfacet
facet normal .2902846772545 .956940335732197 0
  outer loop
    vertex -17.3319400436157 39.0934246086956 57
    vertex -17.3319400436157 39.0934246086956 57.1
    vertex -17.0083419282638 38.995262193582 57
  endloop
endfacet
facet normal 9.80171403294611E-02 .995184726672207 0
  outer loop
    vertex -17.6684708490936 39.12657 57
    vertex -17.6684708490936 39.12657 57.1
    vertex -17.3319400436157 39.0934246086956 57
  endloop
endfacet
facet normal -9.80171403294908E-02 .995184726672204 0
  outer loop
    vertex -18.0050016545714 39.0934246086956 57
    vertex -18.0050016545714 39.0934246086956 57.1
    vertex -17.6684708490936 39.12657 57
  endloop
endfacet
facet normal -.2902846772545 .956940335732197 0
  outer loop
    vertex -18.3285997699233 38.995262193582 57
    vertex -18.3285997699233 38.995262193582 57.1
    vertex -18.0050016545714 39.0934246086956 57
  endloop
endfacet
facet normal -.471396736825967 .881921264348372 0
  outer loop
    vertex -18.6268295010524 38.8358550812219 57
    vertex -18.6268295010524 38.8358550812219 57.1
    vertex -18.3285997699233 38.995262193582 57
  endloop
endfacet
facet normal -.634393284163627 .773010453362752 0
  outer loop
    vertex -18.8882300466404 38.6213291975468 57
    vertex -18.8882300466404 38.6213291975468 57.1
    vertex -18.6268295010524 38.8358550812219 57
  endloop
endfacet
facet normal -.773010453362748 .634393284163632 0
  outer loop
    vertex -19.1027559303155 38.3599286519588 57
    vertex -19.1027559303155 38.3599286519588 57.1
    vertex -18.8882300466404 38.6213291975468 57
  endloop
endfacet
facet normal -.881921264348433 .471396736825851 0
  outer loop
    vertex -19.2621630426755 38.0616989208298 57
    vertex -19.2621630426755 38.0616989208298 57.1
    vertex -19.1027559303155 38.3599286519588 57
  endloop
endfacet
facet normal -.956940335732222 .290284677254419 0
  outer loop
    vertex -19.3603254577891 37.7381008054778 57
    vertex -19.3603254577891 37.7381008054778 57.1
    vertex -19.2621630426755 38.0616989208298 57
  endloop
endfacet
facet normal -.995184726672175 9.80171403297822E-02 0
  outer loop
    vertex -19.3934708490936 37.40157 57
    vertex -19.3934708490936 37.40157 57.1
    vertex -19.3603254577891 37.7381008054778 57
  endloop
endfacet
facet normal -.995184726672175 -9.80171403297822E-02 0
  outer loop
    vertex -19.3603254577891 37.0650391945222 57
    vertex -19.3603254577891 37.0650391945222 57.1
    vertex -19.3934708490936 37.40157 57
  endloop
endfacet
facet normal -.956940335732222 -.290284677254419 0
  outer loop
    vertex -19.2621630426755 36.7414410791702 57
    vertex -19.2621630426755 36.7414410791702 57.1
    vertex -19.3603254577891 37.0650391945222 57
  endloop
endfacet
facet normal -.881921264348429 -.47139673682586 0
  outer loop
    vertex -19.1027559303155 36.4432113480412 57
    vertex -19.1027559303155 36.4432113480412 57.1
    vertex -19.2621630426755 36.7414410791702 57
  endloop
endfacet
facet normal -.773010453362756 -.634393284163622 0
  outer loop
    vertex -18.8882300466404 36.1818108024532 57
    vertex -18.8882300466404 36.1818108024532 57.1
    vertex -19.1027559303155 36.4432113480412 57
  endloop
endfacet
facet normal -.634393284163627 -.773010453362752 0
  outer loop
    vertex -18.6268295010524 35.9672849187781 57
    vertex -18.6268295010524 35.9672849187781 57.1
    vertex -18.8882300466404 36.1818108024532 57
  endloop
endfacet
facet normal -.471396736825967 -.881921264348372 0
  outer loop
    vertex -18.3285997699233 35.807877806418 57
    vertex -18.3285997699233 35.807877806418 57.1
    vertex -18.6268295010524 35.9672849187781 57
  endloop
endfacet
facet normal -.2902846772545 -.956940335732197 0
  outer loop
    vertex -18.0050016545714 35.7097153913044 57
    vertex -18.0050016545714 35.7097153913044 57.1
    vertex -18.3285997699233 35.807877806418 57
  endloop
endfacet
facet normal -9.80171403294908E-02 -.995184726672204 0
  outer loop
    vertex -17.6684708490936 35.67657 57
    vertex -17.6684708490936 35.67657 57.1
    vertex -18.0050016545714 35.7097153913044 57
  endloop
endfacet
facet normal 9.80171403294611E-02 -.995184726672207 0
  outer loop
    vertex -17.3319400436157 35.7097153913044 57
    vertex -17.3319400436157 35.7097153913044 57.1
    vertex -17.6684708490936 35.67657 57
  endloop
endfacet
facet normal .2902846772545 -.956940335732197 0
  outer loop
    vertex -17.0083419282638 35.807877806418 57
    vertex -17.0083419282638 35.807877806418 57.1
    vertex -17.3319400436157 35.7097153913044 57
  endloop
endfacet
facet normal .471396736825962 -.881921264348374 0
  outer loop
    vertex -16.7101121971347 35.9672849187781 57
    vertex -16.7101121971347 35.9672849187781 57.1
    vertex -17.0083419282638 35.807877806418 57
  endloop
endfacet
facet normal .634393284163776 -.77301045336263 0
  outer loop
    vertex -16.4487116515468 36.1818108024532 57
    vertex -16.4487116515468 36.1818108024532 57.1
    vertex -16.7101121971347 35.9672849187781 57
  endloop
endfacet
facet normal .773010453362756 -.634393284163622 0
  outer loop
    vertex -16.2341857678717 36.4432113480412 57
    vertex -16.2341857678717 36.4432113480412 57.1
    vertex -16.4487116515468 36.1818108024532 57
  endloop
endfacet
facet normal .881921264348306 -.471396736826089 0
  outer loop
    vertex -16.0747786555116 36.7414410791702 57
    vertex -16.0747786555116 36.7414410791702 57.1
    vertex -16.2341857678717 36.4432113480412 57
  endloop
endfacet
facet normal .956940335732221 -.290284677254424 0
  outer loop
    vertex -15.976616240398 37.0650391945222 57
    vertex -15.976616240398 37.0650391945222 57.1
    vertex -16.0747786555116 36.7414410791702 57
  endloop
endfacet
facet normal .995184726672204 -9.80171403294856E-02 0
  outer loop
    vertex -15.9434708490936 37.40157 57
    vertex -15.9434708490936 37.40157 57.1
    vertex -15.976616240398 37.0650391945222 57
  endloop
endfacet
facet normal 0 0 1
  outer loop
    vertex 24.9910891108343 58.0389957881777 57
    vertex 12 58.0389957881777 57
    vertex 24.9910891108343 -58.0389957881777 57
  endloop
endfacet
facet normal 0 0 1
  outer loop
    vertex 12 58.0389957881777 57
    vertex 11.7694233648388 55.6979119239842 57
    vertex 24.9910891108343 -58.0389957881777 57
  endloop
endfacet
facet normal 0 0 1
  outer loop
    vertex 11.7694233648388 55.6979119239842 57
    vertex 11.0865543901354 53.4467945997966 57
    vertex 24.9910891108343 -58.0389957881777 57
  endloop
endfacet
facet normal 0 0 1
  outer loop
    vertex 11.0865543901354 53.4467945997966 57
    vertex 9.97763534763054 51.3721529919425 57
    vertex 24.9910891108343 -58.0389957881777 57
  endloop
endfacet
facet normal 0 0 1
  outer loop
    vertex 9.97763534763054 51.3721529919425 57
    vertex 8.48528137423857 49.5537144139391 57
    vertex 24.9910891108343 -58.0389957881777 57
  endloop
endfacet
facet normal 0 0 1
  outer loop
    vertex 8.48528137423857 49.5537144139391 57
    vertex 6.66684279623523 48.0613604405471 57
    vertex 24.9910891108343 -58.0389957881777 57
  endloop
endfacet
facet normal 0 0 1
  outer loop
    vertex 6.66684279623523 48.0613604405471 57
    vertex 4.59220118838108 46.9524413980423 57
    vertex 24.9910891108343 -58.0389957881777 57
  endloop
endfacet
facet normal 0 0 1
  outer loop
    vertex 4.59220118838108 46.9524413980423 57
    vertex 2.34108386419354 46.2695724233389 57
    vertex 24.9910891108343 -58.0389957881777 57
  endloop
endfacet
facet normal 0 0 1
  outer loop
    vertex 2.34108386419354 46.2695724233389 57
    vertex 7.34788079488412E-16 46.0389957881777 57
    vertex 24.9910891108343 -58.0389957881777 57
  endloop
endfacet
facet normal 0 0 1
  outer loop
    vertex 7.34788079488412E-16 46.0389957881777 57
    vertex -24.9910891108343 -58.0389957881777 57
    vertex 24.9910891108343 -58.0389957881777 57
  endloop
endfacet
facet normal 0 0 1
  outer loop
    vertex 7.34788079488412E-16 46.0389957881777 57
    vertex -2.34108386419354 46.2695724233389 57
    vertex -24.9910891108343 -58.0389957881777 57
  endloop
endfacet
facet normal 0 0 1
  outer loop
    vertex -2.34108386419354 46.2695724233389 57
    vertex -4.59220118838108 46.9524413980423 57
    vertex -24.9910891108343 -58.0389957881777 57
  endloop
endfacet
facet normal 0 0 1
  outer loop
    vertex -4.59220118838108 46.9524413980423 57
    vertex -6.66684279623523 48.0613604405471 57
    vertex -24.9910891108343 -58.0389957881777 57
  endloop
endfacet
facet normal 0 0 1
  outer loop
    vertex -6.66684279623523 48.0613604405471 57
    vertex -8.48528137423857 49.5537144139391 57
    vertex -24.9910891108343 -58.0389957881777 57
  endloop
endfacet
facet normal 0 0 1
  outer loop
    vertex -8.48528137423857 49.5537144139391 57
    vertex -9.97763534763054 51.3721529919425 57
    vertex -24.9910891108343 -58.0389957881777 57
  endloop
endfacet
facet normal 0 0 1
  outer loop
    vertex -9.97763534763054 51.3721529919425 57
    vertex -11.0865543901354 53.4467945997966 57
    vertex -24.9910891108343 -58.0389957881777 57
  endloop
endfacet
facet normal 0 0 1
  outer loop
    vertex -11.0865543901354 53.4467945997966 57
    vertex -11.7694233648388 55.6979119239842 57
    vertex -24.9910891108343 -58.0389957881777 57
  endloop
endfacet
facet normal 0 0 1
  outer loop
    vertex -11.7694233648388 55.6979119239842 57
    vertex -12 58.0389957881777 57
    vertex -24.9910891108343 -58.0389957881777 57
  endloop
endfacet
facet normal 0 0 1
  outer loop
    vertex -24.9910891108343 58.0389957881777 57
    vertex -24.9910891108343 -58.0389957881777 57
    vertex -12 58.0389957881777 57
  endloop
endfacet
facet normal 0 0 -1
  outer loop
    vertex -32.5389957881777 -58.0389957881777 0
    vertex 32.5389957881777 58.0389957881777 0
    vertex 32.5389957881777 -58.0389957881777 0
  endloop
endfacet
facet normal 0 0 -1
  outer loop
    vertex 32.5389957881777 58.0389957881777 0
    vertex -32.5389957881777 -58.0389957881777 0
    vertex -32.5389957881777 58.0389957881777 0
  endloop
endfacet
facet normal 1 0 0
  outer loop
    vertex -12 58.0389957881777 57
    vertex -12 58.0389957881777 51.3
    vertex -12 58.5376811702755 51.3
  endloop
endfacet
facet normal .995184726672198 9.80171403295474E-02 0
  outer loop
    vertex -11.7694233648388 55.6979119239842 57
    vertex -11.7694233648388 55.6979119239842 51.3
    vertex -12 58.0389957881777 51.3
  endloop
endfacet
facet normal .956940335732202 .290284677254485 0
  outer loop
    vertex -11.0865543901354 53.4467945997966 57
    vertex -11.0865543901354 53.4467945997966 51.3
    vertex -11.7694233648388 55.6979119239842 51.3
  endloop
endfacet
facet normal .881921264348357 .471396736825994 0
  outer loop
    vertex -9.97763534763054 51.3721529919425 57
    vertex -9.97763534763054 51.3721529919425 51.3
    vertex -11.0865543901354 53.4467945997966 51.3
  endloop
endfacet
facet normal .773010453362747 .634393284163633 0
  outer loop
    vertex -8.48528137423857 49.5537144139391 57
    vertex -8.48528137423857 49.5537144139391 51.3
    vertex -9.97763534763054 51.3721529919425 51.3
  endloop
endfacet
facet normal .634393284163653 .773010453362731 0
  outer loop
    vertex -6.66684279623523 48.0613604405471 57
    vertex -6.66684279623523 48.0613604405471 51.3
    vertex -8.48528137423857 49.5537144139391 51.3
  endloop
endfacet
facet normal .471396736825963 .881921264348373 0
  outer loop
    vertex -4.59220118838108 46.9524413980423 57
    vertex -4.59220118838108 46.9524413980423 51.3
    vertex -6.66684279623523 48.0613604405471 51.3
  endloop
endfacet
facet normal .290284677254493 .9569403357322 0
  outer loop
    vertex -2.34108386419354 46.2695724233389 57
    vertex -2.34108386419354 46.2695724233389 51.3
    vertex -4.59220118838108 46.9524413980423 51.3
  endloop
endfacet
facet normal 9.80171403295457E-02 .995184726672198 0
  outer loop
    vertex 7.34788079488412E-16 46.0389957881777 57
    vertex 7.34788079488412E-16 46.0389957881777 51.3
    vertex -2.34108386419354 46.2695724233389 51.3
  endloop
endfacet
facet normal -9.80171403295457E-02 .995184726672198 0
  outer loop
    vertex 2.34108386419354 46.2695724233389 57
    vertex 2.34108386419354 46.2695724233389 51.3
    vertex 7.34788079488412E-16 46.0389957881777 51.3
  endloop
endfacet
facet normal -.290284677254493 .9569403357322 0
  outer loop
    vertex 4.59220118838108 46.9524413980423 57
    vertex 4.59220118838108 46.9524413980423 51.3
    vertex 2.34108386419354 46.2695724233389 51.3
  endloop
endfacet
facet normal -.471396736825963 .881921264348373 0
  outer loop
    vertex 6.66684279623523 48.0613604405471 57
    vertex 6.66684279623523 48.0613604405471 51.3
    vertex 4.59220118838108 46.9524413980423 51.3
  endloop
endfacet
facet normal -.634393284163653 .773010453362731 0
  outer loop
    vertex 8.48528137423857 49.5537144139391 57
    vertex 8.48528137423857 49.5537144139391 51.3
    vertex 6.66684279623523 48.0613604405471 51.3
  endloop
endfacet
facet normal -.773010453362747 .634393284163633 0
  outer loop
    vertex 9.97763534763054 51.3721529919425 57
    vertex 9.97763534763054 51.3721529919425 51.3
    vertex 8.48528137423857 49.5537144139391 51.3
  endloop
endfacet
facet normal -.881921264348357 .471396736825994 0
  outer loop
    vertex 11.0865543901354 53.4467945997966 57
    vertex 11.0865543901354 53.4467945997966 51.3
    vertex 9.97763534763054 51.3721529919425 51.3
  endloop
endfacet
facet normal -.956940335732202 .290284677254485 0
  outer loop
    vertex 11.7694233648388 55.6979119239842 57
    vertex 11.7694233648388 55.6979119239842 51.3
    vertex 11.0865543901354 53.4467945997966 51.3
  endloop
endfacet
facet normal -.995184726672198 9.80171403295474E-02 0
  outer loop
    vertex 12 58.0389957881777 57
    vertex 12 58.0389957881777 51.3
    vertex 11.7694233648388 55.6979119239842 51.3
  endloop
endfacet
facet normal .995184726672198 9.80171403295474E-02 0
  outer loop
    vertex -11.7694233648388 55.6979119239842 57
    vertex -12 58.0389957881777 51.3
    vertex -12 58.0389957881777 57
  endloop
endfacet
facet normal .956940335732202 .290284677254485 0
  outer loop
    vertex -11.0865543901354 53.4467945997966 57
    vertex -11.7694233648388 55.6979119239842 51.3
    vertex -11.7694233648388 55.6979119239842 57
  endloop
endfacet
facet normal .881921264348357 .471396736825994 0
  outer loop
    vertex -9.97763534763054 51.3721529919425 57
    vertex -11.0865543901354 53.4467945997966 51.3
    vertex -11.0865543901354 53.4467945997966 57
  endloop
endfacet
facet normal .773010453362747 .634393284163633 0
  outer loop
    vertex -8.48528137423857 49.5537144139391 57
    vertex -9.97763534763054 51.3721529919425 51.3
    vertex -9.97763534763054 51.3721529919425 57
  endloop
endfacet
facet normal .634393284163653 .773010453362731 0
  outer loop
    vertex -6.66684279623523 48.0613604405471 57
    vertex -8.48528137423857 49.5537144139391 51.3
    vertex -8.48528137423857 49.5537144139391 57
  endloop
endfacet
facet normal .471396736825963 .881921264348373 0
  outer loop
    vertex -4.59220118838108 46.9524413980423 57
    vertex -6.66684279623523 48.0613604405471 51.3
    vertex -6.66684279623523 48.0613604405471 57
  endloop
endfacet
facet normal .290284677254493 .9569403357322 0
  outer loop
    vertex -2.34108386419354 46.2695724233389 57
    vertex -4.59220118838108 46.9524413980423 51.3
    vertex -4.59220118838108 46.9524413980423 57
  endloop
endfacet
facet normal 9.80171403295457E-02 .995184726672198 0
  outer loop
    vertex 7.34788079488412E-16 46.0389957881777 57
    vertex -2.34108386419354 46.2695724233389 51.3
    vertex -2.34108386419354 46.2695724233389 57
  endloop
endfacet
facet normal -9.80171403295457E-02 .995184726672198 0
  outer loop
    vertex 2.34108386419354 46.2695724233389 57
    vertex 7.34788079488412E-16 46.0389957881777 51.3
    vertex 7.34788079488412E-16 46.0389957881777 57
  endloop
endfacet
facet normal -.290284677254493 .9569403357322 0
  outer loop
    vertex 4.59220118838108 46.9524413980423 57
    vertex 2.34108386419354 46.2695724233389 51.3
    vertex 2.34108386419354 46.2695724233389 57
  endloop
endfacet
facet normal -.471396736825963 .881921264348373 0
  outer loop
    vertex 6.66684279623523 48.0613604405471 57
    vertex 4.59220118838108 46.9524413980423 51.3
    vertex 4.59220118838108 46.9524413980423 57
  endloop
endfacet
facet normal -.634393284163653 .773010453362731 0
  outer loop
    vertex 8.48528137423857 49.5537144139391 57
    vertex 6.66684279623523 48.0613604405471 51.3
    vertex 6.66684279623523 48.0613604405471 57
  endloop
endfacet
facet normal -.773010453362747 .634393284163633 0
  outer loop
    vertex 9.97763534763054 51.3721529919425 57
    vertex 8.48528137423857 49.5537144139391 51.3
    vertex 8.48528137423857 49.5537144139391 57
  endloop
endfacet
facet normal -.881921264348357 .471396736825994 0
  outer loop
    vertex 11.0865543901354 53.4467945997966 57
    vertex 9.97763534763054 51.3721529919425 51.3
    vertex 9.97763534763054 51.3721529919425 57
  endloop
endfacet
facet normal -.956940335732202 .290284677254485 0
  outer loop
    vertex 11.7694233648388 55.6979119239842 57
    vertex 11.0865543901354 53.4467945997966 51.3
    vertex 11.0865543901354 53.4467945997966 57
  endloop
endfacet
facet normal -.995184726672198 9.80171403295474E-02 0
  outer loop
    vertex 12 58.0389957881777 57
    vertex 11.7694233648388 55.6979119239842 51.3
    vertex 11.7694233648388 55.6979119239842 57
  endloop
endfacet
facet normal -1 0 0
  outer loop
    vertex 12 58.0389957881777 57
    vertex 12 58.5376811702755 51.3
    vertex 12 58.0389957881777 51.3
  endloop
endfacet
facet normal 0 0 1
  outer loop
    vertex -12 58.5376811702755 51.3
    vertex -12 58.0389957881777 51.3
    vertex 0 58.5376811702755 51.3
  endloop
endfacet
facet normal 0 0 1
  outer loop
    vertex -12 58.0389957881777 51.3
    vertex -11.7694233648388 55.6979119239842 51.3
    vertex 0 58.5376811702755 51.3
  endloop
endfacet
facet normal 0 0 1
  outer loop
    vertex -11.7694233648388 55.6979119239842 51.3
    vertex -11.0865543901354 53.4467945997966 51.3
    vertex 0 58.5376811702755 51.3
  endloop
endfacet
facet normal 0 0 1
  outer loop
    vertex -11.0865543901354 53.4467945997966 51.3
    vertex -9.97763534763054 51.3721529919425 51.3
    vertex 0 58.5376811702755 51.3
  endloop
endfacet
facet normal 0 0 1
  outer loop
    vertex -9.97763534763054 51.3721529919425 51.3
    vertex -8.48528137423857 49.5537144139391 51.3
    vertex 0 58.5376811702755 51.3
  endloop
endfacet
facet normal 0 0 1
  outer loop
    vertex -8.48528137423857 49.5537144139391 51.3
    vertex -6.66684279623523 48.0613604405471 51.3
    vertex 0 58.5376811702755 51.3
  endloop
endfacet
facet normal 0 0 1
  outer loop
    vertex -6.66684279623523 48.0613604405471 51.3
    vertex -4.59220118838108 46.9524413980423 51.3
    vertex 0 58.5376811702755 51.3
  endloop
endfacet
facet normal 0 0 1
  outer loop
    vertex -4.59220118838108 46.9524413980423 51.3
    vertex -2.34108386419354 46.2695724233389 51.3
    vertex 0 58.5376811702755 51.3
  endloop
endfacet
facet normal 0 0 1
  outer loop
    vertex -2.34108386419354 46.2695724233389 51.3
    vertex 7.34788079488412E-16 46.0389957881777 51.3
    vertex 0 58.5376811702755 51.3
  endloop
endfacet
facet normal 0 0 1
  outer loop
    vertex 7.34788079488412E-16 46.0389957881777 51.3
    vertex 2.34108386419354 46.2695724233389 51.3
    vertex 0 58.5376811702755 51.3
  endloop
endfacet
facet normal 0 0 1
  outer loop
    vertex 2.34108386419354 46.2695724233389 51.3
    vertex 4.59220118838108 46.9524413980423 51.3
    vertex 0 58.5376811702755 51.3
  endloop
endfacet
facet normal 0 0 1
  outer loop
    vertex 4.59220118838108 46.9524413980423 51.3
    vertex 6.66684279623523 48.0613604405471 51.3
    vertex 0 58.5376811702755 51.3
  endloop
endfacet
facet normal 0 0 1
  outer loop
    vertex 6.66684279623523 48.0613604405471 51.3
    vertex 8.48528137423857 49.5537144139391 51.3
    vertex 0 58.5376811702755 51.3
  endloop
endfacet
facet normal 0 0 1
  outer loop
    vertex 8.48528137423857 49.5537144139391 51.3
    vertex 9.97763534763054 51.3721529919425 51.3
    vertex 0 58.5376811702755 51.3
  endloop
endfacet
facet normal 0 0 1
  outer loop
    vertex 9.97763534763054 51.3721529919425 51.3
    vertex 11.0865543901354 53.4467945997966 51.3
    vertex 0 58.5376811702755 51.3
  endloop
endfacet
facet normal 0 0 1
  outer loop
    vertex 11.0865543901354 53.4467945997966 51.3
    vertex 11.7694233648388 55.6979119239842 51.3
    vertex 0 58.5376811702755 51.3
  endloop
endfacet
facet normal 0 0 1
  outer loop
    vertex 11.7694233648388 55.6979119239842 51.3
    vertex 12 58.0389957881777 51.3
    vertex 0 58.5376811702755 51.3
  endloop
endfacet
facet normal 0 0 1
  outer loop
    vertex 12 58.0389957881777 51.3
    vertex 12 58.5376811702755 51.3
    vertex 0 58.5376811702755 51.3
  endloop
endfacet
facet normal .921118787038767 0 .389281620635024
  outer loop
    vertex 24.9910891108343 58.0389957881777 57
    vertex 34.5 -60 34.5
    vertex 34.5 60 34.5
  endloop
endfacet
facet normal 0 -.996223440096615 8.68265938642472E-02
  outer loop
    vertex 24.9910891108343 -58.0389957881777 57
    vertex -34.5 -60 34.5
    vertex 34.5 -60 34.5
  endloop
endfacet
facet normal -.921118787038767 0 .389281620635024
  outer loop
    vertex -24.9910891108343 -58.0389957881777 57
    vertex -34.5 60 34.5
    vertex -34.5 -60 34.5
  endloop
endfacet
facet normal 1 0 0
  outer loop
    vertex 34.5 60 34.5
    vertex 34.5 -60 22.5
    vertex 34.5 60 22.5
  endloop
endfacet
facet normal 0 -1 0
  outer loop
    vertex 34.5 -60 34.5
    vertex -34.5 -60 22.5
    vertex 34.5 -60 22.5
  endloop
endfacet
facet normal -1 0 0
  outer loop
    vertex -34.5 -60 34.5
    vertex -34.5 60 22.5
    vertex -34.5 -60 22.5
  endloop
endfacet
facet normal .996223440096615 0 -8.68265938642472E-02
  outer loop
    vertex 34.5 60 22.5
    vertex 32.5389957881777 -58.0389957881777 0
    vertex 32.5389957881777 58.0389957881777 0
  endloop
endfacet
facet normal 0 -.996223440096615 -8.68265938642472E-02
  outer loop
    vertex 34.5 -60 22.5
    vertex -32.5389957881777 -58.0389957881777 0
    vertex 32.5389957881777 -58.0389957881777 0
  endloop
endfacet
facet normal -.996223440096615 0 -8.68265938642472E-02
  outer loop
    vertex -34.5 -60 22.5
    vertex -32.5389957881777 58.0389957881777 0
    vertex -32.5389957881777 -58.0389957881777 0
  endloop
endfacet
facet normal .921118787038767 0 .389281620635024
  outer loop
    vertex 24.9910891108343 -58.0389957881777 57
    vertex 34.5 -60 34.5
    vertex 24.9910891108343 58.0389957881777 57
  endloop
endfacet
facet normal 0 -.996223440096615 8.68265938642472E-02
  outer loop
    vertex -24.9910891108343 -58.0389957881777 57
    vertex -34.5 -60 34.5
    vertex 24.9910891108343 -58.0389957881777 57
  endloop
endfacet
facet normal -.921118787038767 0 .389281620635024
  outer loop
    vertex -24.9910891108343 58.0389957881777 57
    vertex -34.5 60 34.5
    vertex -24.9910891108343 -58.0389957881777 57
  endloop
endfacet
facet normal 1 0 0
  outer loop
    vertex 34.5 -60 34.5
    vertex 34.5 -60 22.5
    vertex 34.5 60 34.5
  endloop
endfacet
facet normal 0 -1 0
  outer loop
    vertex -34.5 -60 34.5
    vertex -34.5 -60 22.5
    vertex 34.5 -60 34.5
  endloop
endfacet
facet normal -1 0 0
  outer loop
    vertex -34.5 60 34.5
    vertex -34.5 60 22.5
    vertex -34.5 -60 34.5
  endloop
endfacet
facet normal .996223440096615 0 -8.68265938642472E-02
  outer loop
    vertex 34.5 -60 22.5
    vertex 32.5389957881777 -58.0389957881777 0
    vertex 34.5 60 22.5
  endloop
endfacet
facet normal 0 -.996223440096615 -8.68265938642472E-02
  outer loop
    vertex -34.5 -60 22.5
    vertex -32.5389957881777 -58.0389957881777 0
    vertex 34.5 -60 22.5
  endloop
endfacet
facet normal -.996223440096615 0 -8.68265938642472E-02
  outer loop
    vertex -34.5 60 22.5
    vertex -32.5389957881777 58.0389957881777 0
    vertex -34.5 -60 22.5
  endloop
endfacet
facet normal 0 .996223440096615 -8.68265938642472E-02
  outer loop
    vertex 34.5 60 22.5
    vertex 32.5389957881777 58.0389957881777 0
    vertex -34.5 60 22.5
  endloop
endfacet
facet normal 0 .996223440096615 -8.68265938642472E-02
  outer loop
    vertex 32.5389957881777 58.0389957881777 0
    vertex -32.5389957881777 58.0389957881777 0
    vertex -34.5 60 22.5
  endloop
endfacet
facet normal 0 1 0
  outer loop
    vertex 34.5 60 34.5
    vertex 34.5 60 22.5
    vertex -34.5 60 34.5
  endloop
endfacet
facet normal 0 1 0
  outer loop
    vertex -34.5 60 34.5
    vertex 34.5 60 22.5
    vertex -34.5 60 22.5
  endloop
endfacet
facet normal 0 .996223440096615 8.68265938642472E-02
  outer loop
    vertex 34.5 60 34.5
    vertex 12 58.0389957881777 57
    vertex 24.9910891108343 58.0389957881777 57
  endloop
endfacet
facet normal 3.31653895958638E-04 .996194643303871 8.71557379543455E-02
  outer loop
    vertex 12 58.0389957881777 57
    vertex 34.5 60 34.5
    vertex 12 58.5376811702755 51.3
  endloop
endfacet
facet normal 0 .996233167514979 8.67149118841214E-02
  outer loop
    vertex 34.5 60 34.5
    vertex -12 58.5376811702755 51.3
    vertex 12 58.5376811702755 51.3
  endloop
endfacet
facet normal 0 .996233167514979 8.67149118841214E-02
  outer loop
    vertex 34.5 60 34.5
    vertex -34.5 60 34.5
    vertex -12 58.5376811702755 51.3
  endloop
endfacet
facet normal -1.22757902590208E-04 .996218943731053 8.68780817115746E-02
  outer loop
    vertex -24.9910891108343 58.0389957881777 57
    vertex -12 58.5376811702755 51.3
    vertex -34.5 60 34.5
  endloop
endfacet
facet normal 0 .996194698091745 8.71557427476634E-02
  outer loop
    vertex -24.9910891108343 58.0389957881777 57
    vertex -12 58.0389957881777 57
    vertex -12 58.5376811702755 51.3
  endloop
endfacet
facet normal -1 0 0
  outer loop
    vertex -59 47.40157 10
    vertex -59 47.40157 0
    vertex -59 27.40157 0
  endloop
endfacet
facet normal -1 0 0
  outer loop
    vertex -59 47.40157 10
    vertex -59 27.40157 0
    vertex -59 27.40157 10
  endloop
endfacet
facet normal 1 0 0
  outer loop
    vertex -34.5 27.40157 33.5
    vertex -34.5 27.40157 23.5
    vertex -34.5 47.40157 23.5
  endloop
endfacet
facet normal 1 0 0
  outer loop
    vertex -34.5 27.40157 33.5
    vertex -34.5 47.40157 23.5
    vertex -34.5 47.40157 33.5
  endloop
endfacet
facet normal 0 1 0
  outer loop
    vertex -34.5 47.40157 23.5
    vertex -37.5402640436737 47.40157 23.5
    vertex -42.5402640436737 47.40157 33.5
  endloop
endfacet
facet normal 0 1 0
  outer loop
    vertex -37.5402640436737 47.40157 23.5
    vertex -49.2125 47.40157 0
    vertex -54.2125 47.40157 10
  endloop
endfacet
facet normal 0 1 0
  outer loop
    vertex -49.2125 47.40157 0
    vertex -59 47.40157 0
    vertex -59 47.40157 10
  endloop
endfacet
facet normal 0 1 0
  outer loop
    vertex -34.5 47.40157 23.5
    vertex -42.5402640436737 47.40157 33.5
    vertex -34.5 47.40157 33.5
  endloop
endfacet
facet normal 0 1 0
  outer loop
    vertex -37.5402640436737 47.40157 23.5
    vertex -54.2125 47.40157 10
    vertex -42.5402640436737 47.40157 33.5
  endloop
endfacet
facet normal 0 1 0
  outer loop
    vertex -49.2125 47.40157 0
    vertex -59 47.40157 10
    vertex -54.2125 47.40157 10
  endloop
endfacet
facet normal 0 -1 0
  outer loop
    vertex -34.5 27.40157 23.5
    vertex -42.5402640436737 27.40157 33.5
    vertex -37.5402640436737 27.40157 23.5
  endloop
endfacet
facet normal 0 -1 0
  outer loop
    vertex -37.5402640436737 27.40157 23.5
    vertex -54.2125 27.40157 10
    vertex -49.2125 27.40157 0
  endloop
endfacet
facet normal 0 -1 0
  outer loop
    vertex -49.2125 27.40157 0
    vertex -59 27.40157 10
    vertex -59 27.40157 0
  endloop
endfacet
facet normal 0 -1 0
  outer loop
    vertex -34.5 27.40157 23.5
    vertex -34.5 27.40157 33.5
    vertex -42.5402640436737 27.40157 33.5
  endloop
endfacet
facet normal 0 -1 0
  outer loop
    vertex -37.5402640436737 27.40157 23.5
    vertex -42.5402640436737 27.40157 33.5
    vertex -54.2125 27.40157 10
  endloop
endfacet
facet normal 0 -1 0
  outer loop
    vertex -49.2125 27.40157 0
    vertex -54.2125 27.40157 10
    vertex -59 27.40157 10
  endloop
endfacet
facet normal 0 0 1
  outer loop
    vertex -34.5 47.40157 33.5
    vertex -42.5402640436737 47.40157 33.5
    vertex -42.5402640436737 27.40157 33.5
  endloop
endfacet
facet normal -.895609516106014 0 .444841089222154
  outer loop
    vertex -42.5402640436737 47.40157 33.5
    vertex -54.2125 47.40157 10
    vertex -54.2125 27.40157 10
  endloop
endfacet
facet normal 0 0 1
  outer loop
    vertex -54.2125 47.40157 10
    vertex -59 47.40157 10
    vertex -59 27.40157 10
  endloop
endfacet
facet normal 0 0 1
  outer loop
    vertex -34.5 47.40157 33.5
    vertex -42.5402640436737 27.40157 33.5
    vertex -34.5 27.40157 33.5
  endloop
endfacet
facet normal -.895609516106014 0 .444841089222154
  outer loop
    vertex -42.5402640436737 47.40157 33.5
    vertex -54.2125 27.40157 10
    vertex -42.5402640436737 27.40157 33.5
  endloop
endfacet
facet normal 0 0 1
  outer loop
    vertex -54.2125 47.40157 10
    vertex -59 27.40157 10
    vertex -54.2125 27.40157 10
  endloop
endfacet
facet normal 0 0 -1
  outer loop
    vertex -34.5 47.40157 23.5
    vertex -37.5402640436737 27.40157 23.5
    vertex -37.5402640436737 47.40157 23.5
  endloop
endfacet
facet normal .895609516106014 0 -.444841089222154
  outer loop
    vertex -37.5402640436737 47.40157 23.5
    vertex -49.2125 27.40157 0
    vertex -49.2125 47.40157 0
  endloop
endfacet
facet normal 0 0 -1
  outer loop
    vertex -49.2125 47.40157 0
    vertex -59 27.40157 0
    vertex -59 47.40157 0
  endloop
endfacet
facet normal 0 0 -1
  outer loop
    vertex -34.5 47.40157 23.5
    vertex -34.5 27.40157 23.5
    vertex -37.5402640436737 27.40157 23.5
  endloop
endfacet
facet normal .895609516106014 0 -.444841089222154
  outer loop
    vertex -37.5402640436737 47.40157 23.5
    vertex -37.5402640436737 27.40157 23.5
    vertex -49.2125 27.40157 0
  endloop
endfacet
facet normal 0 0 -1
  outer loop
    vertex -49.2125 47.40157 0
    vertex -49.2125 27.40157 0
    vertex -59 27.40157 0
  endloop
endfacet
facet normal -1 0 0
  outer loop
    vertex -59 10 10
    vertex -59 10 0
    vertex -59 -10 0
  endloop
endfacet
facet normal -1 0 0
  outer loop
    vertex -59 10 10
    vertex -59 -10 0
    vertex -59 -10 10
  endloop
endfacet
facet normal 1 0 0
  outer loop
    vertex -34.5 -10 33.5
    vertex -34.5 -10 23.5
    vertex -34.5 9.99999999999999 23.5
  endloop
endfacet
facet normal 1 0 0
  outer loop
    vertex -34.5 -10 33.5
    vertex -34.5 9.99999999999999 23.5
    vertex -34.5 9.99999999999999 33.5
  endloop
endfacet
facet normal 3.50566295666963E-15 1 1.75283147833481E-15
  outer loop
    vertex -34.5 9.99999999999999 23.5
    vertex -37.5402640436737 10 23.5
    vertex -42.5402640436737 10 33.5
  endloop
endfacet
facet normal 6.14309002179432E-16 1 -7.58659602550434E-16
  outer loop
    vertex -37.5402640436737 10 23.5
    vertex -49.2125 9.99999999999999 0
    vertex -54.2125 10 10
  endloop
endfacet
facet normal 1.08895438430667E-15 1 0
  outer loop
    vertex -49.2125 9.99999999999999 0
    vertex -59 10 0
    vertex -59 10 10
  endloop
endfacet
facet normal 1.32559589815805E-15 1 0
  outer loop
    vertex -34.5 9.99999999999999 23.5
    vertex -42.5402640436737 10 33.5
    vertex -34.5 9.99999999999999 33.5
  endloop
endfacet
facet normal 0 1 0
  outer loop
    vertex -37.5402640436737 10 23.5
    vertex -54.2125 10 10
    vertex -42.5402640436737 10 33.5
  endloop
endfacet
facet normal 0 1 -1.06581410364015E-15
  outer loop
    vertex -49.2125 9.99999999999999 0
    vertex -59 10 10
    vertex -54.2125 10 10
  endloop
endfacet
facet normal 0 -1 0
  outer loop
    vertex -34.5 -10 23.5
    vertex -42.5402640436737 -10 33.5
    vertex -37.5402640436737 -10 23.5
  endloop
endfacet
facet normal 6.14309002179432E-16 -1 -7.58659602550434E-16
  outer loop
    vertex -37.5402640436737 -10 23.5
    vertex -54.2125 -10 10
    vertex -49.2125 -9.99999999999999 0
  endloop
endfacet
facet normal 1.08895438430667E-15 -1 0
  outer loop
    vertex -49.2125 -9.99999999999999 0
    vertex -59 -10 10
    vertex -59 -10 0
  endloop
endfacet
facet normal 0 -1 0
  outer loop
    vertex -34.5 -10 23.5
    vertex -34.5 -10 33.5
    vertex -42.5402640436737 -10 33.5
  endloop
endfacet
facet normal 0 -1 0
  outer loop
    vertex -37.5402640436737 -10 23.5
    vertex -42.5402640436737 -10 33.5
    vertex -54.2125 -10 10
  endloop
endfacet
facet normal 0 -1 -1.06581410364015E-15
  outer loop
    vertex -49.2125 -9.99999999999999 0
    vertex -54.2125 -10 10
    vertex -59 -10 10
  endloop
endfacet
facet normal 0 0 1
  outer loop
    vertex -34.5 9.99999999999999 33.5
    vertex -42.5402640436737 10 33.5
    vertex -42.5402640436737 -10 33.5
  endloop
endfacet
facet normal -.895609516106014 0 .444841089222154
  outer loop
    vertex -42.5402640436737 10 33.5
    vertex -54.2125 10 10
    vertex -54.2125 -10 10
  endloop
endfacet
facet normal 0 0 1
  outer loop
    vertex -54.2125 10 10
    vertex -59 10 10
    vertex -59 -10 10
  endloop
endfacet
facet normal 0 0 1
  outer loop
    vertex -34.5 9.99999999999999 33.5
    vertex -42.5402640436737 -10 33.5
    vertex -34.5 -10 33.5
  endloop
endfacet
facet normal -.895609516106014 0 .444841089222154
  outer loop
    vertex -42.5402640436737 10 33.5
    vertex -54.2125 -10 10
    vertex -42.5402640436737 -10 33.5
  endloop
endfacet
facet normal 0 0 1
  outer loop
    vertex -54.2125 10 10
    vertex -59 -10 10
    vertex -54.2125 -10 10
  endloop
endfacet
facet normal 0 0 -1
  outer loop
    vertex -34.5 9.99999999999999 23.5
    vertex -37.5402640436737 -10 23.5
    vertex -37.5402640436737 10 23.5
  endloop
endfacet
facet normal .895609516106014 0 -.444841089222154
  outer loop
    vertex -37.5402640436737 10 23.5
    vertex -49.2125 -9.99999999999999 0
    vertex -49.2125 9.99999999999999 0
  endloop
endfacet
facet normal 0 0 -1
  outer loop
    vertex -49.2125 9.99999999999999 0
    vertex -59 -10 0
    vertex -59 10 0
  endloop
endfacet
facet normal 0 0 -1
  outer loop
    vertex -34.5 9.99999999999999 23.5
    vertex -34.5 -10 23.5
    vertex -37.5402640436737 -10 23.5
  endloop
endfacet
facet normal .895609516106014 0 -.444841089222154
  outer loop
    vertex -37.5402640436737 10 23.5
    vertex -37.5402640436737 -10 23.5
    vertex -49.2125 -9.99999999999999 0
  endloop
endfacet
facet normal 0 0 -1
  outer loop
    vertex -49.2125 9.99999999999999 0
    vertex -49.2125 -9.99999999999999 0
    vertex -59 -10 0
  endloop
endfacet
facet normal -1 0 0
  outer loop
    vertex -59 -27.40157 10
    vertex -59 -27.40157 0
    vertex -59 -47.40157 0
  endloop
endfacet
facet normal -1 0 0
  outer loop
    vertex -59 -27.40157 10
    vertex -59 -47.40157 0
    vertex -59 -47.40157 10
  endloop
endfacet
facet normal 1 0 0
  outer loop
    vertex -34.5 -47.40157 33.5
    vertex -34.5 -47.40157 23.5
    vertex -34.5 -27.40157 23.5
  endloop
endfacet
facet normal 1 0 0
  outer loop
    vertex -34.5 -47.40157 33.5
    vertex -34.5 -27.40157 23.5
    vertex -34.5 -27.40157 33.5
  endloop
endfacet
facet normal 0 1 0
  outer loop
    vertex -34.5 -27.40157 23.5
    vertex -37.5402640436737 -27.40157 23.5
    vertex -42.5402640436737 -27.40157 33.5
  endloop
endfacet
facet normal 0 1 0
  outer loop
    vertex -37.5402640436737 -27.40157 23.5
    vertex -49.2125 -27.40157 0
    vertex -54.2125 -27.40157 10
  endloop
endfacet
facet normal 0 1 0
  outer loop
    vertex -49.2125 -27.40157 0
    vertex -59 -27.40157 0
    vertex -59 -27.40157 10
  endloop
endfacet
facet normal 0 1 0
  outer loop
    vertex -34.5 -27.40157 23.5
    vertex -42.5402640436737 -27.40157 33.5
    vertex -34.5 -27.40157 33.5
  endloop
endfacet
facet normal 0 1 0
  outer loop
    vertex -37.5402640436737 -27.40157 23.5
    vertex -54.2125 -27.40157 10
    vertex -42.5402640436737 -27.40157 33.5
  endloop
endfacet
facet normal 0 1 0
  outer loop
    vertex -49.2125 -27.40157 0
    vertex -59 -27.40157 10
    vertex -54.2125 -27.40157 10
  endloop
endfacet
facet normal 0 -1 0
  outer loop
    vertex -34.5 -47.40157 23.5
    vertex -42.5402640436737 -47.40157 33.5
    vertex -37.5402640436737 -47.40157 23.5
  endloop
endfacet
facet normal 0 -1 0
  outer loop
    vertex -37.5402640436737 -47.40157 23.5
    vertex -54.2125 -47.40157 10
    vertex -49.2125 -47.40157 0
  endloop
endfacet
facet normal 0 -1 0
  outer loop
    vertex -49.2125 -47.40157 0
    vertex -59 -47.40157 10
    vertex -59 -47.40157 0
  endloop
endfacet
facet normal 0 -1 0
  outer loop
    vertex -34.5 -47.40157 23.5
    vertex -34.5 -47.40157 33.5
    vertex -42.5402640436737 -47.40157 33.5
  endloop
endfacet
facet normal 0 -1 0
  outer loop
    vertex -37.5402640436737 -47.40157 23.5
    vertex -42.5402640436737 -47.40157 33.5
    vertex -54.2125 -47.40157 10
  endloop
endfacet
facet normal 0 -1 0
  outer loop
    vertex -49.2125 -47.40157 0
    vertex -54.2125 -47.40157 10
    vertex -59 -47.40157 10
  endloop
endfacet
facet normal 0 0 1
  outer loop
    vertex -34.5 -27.40157 33.5
    vertex -42.5402640436737 -27.40157 33.5
    vertex -42.5402640436737 -47.40157 33.5
  endloop
endfacet
facet normal -.895609516106014 0 .444841089222154
  outer loop
    vertex -42.5402640436737 -27.40157 33.5
    vertex -54.2125 -27.40157 10
    vertex -54.2125 -47.40157 10
  endloop
endfacet
facet normal 0 0 1
  outer loop
    vertex -54.2125 -27.40157 10
    vertex -59 -27.40157 10
    vertex -59 -47.40157 10
  endloop
endfacet
facet normal 0 0 1
  outer loop
    vertex -34.5 -27.40157 33.5
    vertex -42.5402640436737 -47.40157 33.5
    vertex -34.5 -47.40157 33.5
  endloop
endfacet
facet normal -.895609516106014 0 .444841089222154
  outer loop
    vertex -42.5402640436737 -27.40157 33.5
    vertex -54.2125 -47.40157 10
    vertex -42.5402640436737 -47.40157 33.5
  endloop
endfacet
facet normal 0 0 1
  outer loop
    vertex -54.2125 -27.40157 10
    vertex -59 -47.40157 10
    vertex -54.2125 -47.40157 10
  endloop
endfacet
facet normal 0 0 -1
  outer loop
    vertex -34.5 -27.40157 23.5
    vertex -37.5402640436737 -47.40157 23.5
    vertex -37.5402640436737 -27.40157 23.5
  endloop
endfacet
facet normal .895609516106014 0 -.444841089222154
  outer loop
    vertex -37.5402640436737 -27.40157 23.5
    vertex -49.2125 -47.40157 0
    vertex -49.2125 -27.40157 0
  endloop
endfacet
facet normal 0 0 -1
  outer loop
    vertex -49.2125 -27.40157 0
    vertex -59 -47.40157 0
    vertex -59 -27.40157 0
  endloop
endfacet
facet normal 0 0 -1
  outer loop
    vertex -34.5 -27.40157 23.5
    vertex -34.5 -47.40157 23.5
    vertex -37.5402640436737 -47.40157 23.5
  endloop
endfacet
facet normal .895609516106014 0 -.444841089222154
  outer loop
    vertex -37.5402640436737 -27.40157 23.5
    vertex -37.5402640436737 -47.40157 23.5
    vertex -49.2125 -47.40157 0
  endloop
endfacet
facet normal 0 0 -1
  outer loop
    vertex -49.2125 -27.40157 0
    vertex -49.2125 -47.40157 0
    vertex -59 -47.40157 0
  endloop
endfacet
facet normal 1 0 0
  outer loop
    vertex 59 27.401575 10
    vertex 59 27.401575 0
    vertex 59 47.401575 0
  endloop
endfacet
facet normal 1 0 0
  outer loop
    vertex 59 27.401575 10
    vertex 59 47.401575 0
    vertex 59 47.401575 10
  endloop
endfacet
facet normal -1 0 0
  outer loop
    vertex 34.5 47.401575 33.5
    vertex 34.5 47.401575 23.5
    vertex 34.5 27.401575 23.5
  endloop
endfacet
facet normal -1 0 0
  outer loop
    vertex 34.5 47.401575 33.5
    vertex 34.5 27.401575 23.5
    vertex 34.5 27.401575 33.5
  endloop
endfacet
facet normal 0 -1 0
  outer loop
    vertex 34.5 27.401575 23.5
    vertex 37.5402640436737 27.401575 23.5
    vertex 42.5402640436737 27.401575 33.5
  endloop
endfacet
facet normal 0 -1 0
  outer loop
    vertex 37.5402640436737 27.401575 23.5
    vertex 49.2125 27.401575 0
    vertex 54.2125 27.401575 10
  endloop
endfacet
facet normal 0 -1 0
  outer loop
    vertex 49.2125 27.401575 0
    vertex 59 27.401575 0
    vertex 59 27.401575 10
  endloop
endfacet
facet normal 0 -1 0
  outer loop
    vertex 34.5 27.401575 23.5
    vertex 42.5402640436737 27.401575 33.5
    vertex 34.5 27.401575 33.5
  endloop
endfacet
facet normal 0 -1 0
  outer loop
    vertex 37.5402640436737 27.401575 23.5
    vertex 54.2125 27.401575 10
    vertex 42.5402640436737 27.401575 33.5
  endloop
endfacet
facet normal 0 -1 0
  outer loop
    vertex 49.2125 27.401575 0
    vertex 59 27.401575 10
    vertex 54.2125 27.401575 10
  endloop
endfacet
facet normal 0 1 0
  outer loop
    vertex 34.5 47.401575 23.5
    vertex 42.5402640436737 47.401575 33.5
    vertex 37.5402640436737 47.401575 23.5
  endloop
endfacet
facet normal 0 1 0
  outer loop
    vertex 37.5402640436737 47.401575 23.5
    vertex 54.2125 47.401575 10
    vertex 49.2125 47.401575 0
  endloop
endfacet
facet normal 0 1 0
  outer loop
    vertex 49.2125 47.401575 0
    vertex 59 47.401575 10
    vertex 59 47.401575 0
  endloop
endfacet
facet normal 0 1 0
  outer loop
    vertex 34.5 47.401575 23.5
    vertex 34.5 47.401575 33.5
    vertex 42.5402640436737 47.401575 33.5
  endloop
endfacet
facet normal 0 1 0
  outer loop
    vertex 37.5402640436737 47.401575 23.5
    vertex 42.5402640436737 47.401575 33.5
    vertex 54.2125 47.401575 10
  endloop
endfacet
facet normal 0 1 0
  outer loop
    vertex 49.2125 47.401575 0
    vertex 54.2125 47.401575 10
    vertex 59 47.401575 10
  endloop
endfacet
facet normal 0 0 1
  outer loop
    vertex 34.5 27.401575 33.5
    vertex 42.5402640436737 27.401575 33.5
    vertex 42.5402640436737 47.401575 33.5
  endloop
endfacet
facet normal .895609516106014 0 .444841089222154
  outer loop
    vertex 42.5402640436737 27.401575 33.5
    vertex 54.2125 27.401575 10
    vertex 54.2125 47.401575 10
  endloop
endfacet
facet normal 0 0 1
  outer loop
    vertex 54.2125 27.401575 10
    vertex 59 27.401575 10
    vertex 59 47.401575 10
  endloop
endfacet
facet normal 0 0 1
  outer loop
    vertex 34.5 27.401575 33.5
    vertex 42.5402640436737 47.401575 33.5
    vertex 34.5 47.401575 33.5
  endloop
endfacet
facet normal .895609516106014 0 .444841089222154
  outer loop
    vertex 42.5402640436737 27.401575 33.5
    vertex 54.2125 47.401575 10
    vertex 42.5402640436737 47.401575 33.5
  endloop
endfacet
facet normal 0 0 1
  outer loop
    vertex 54.2125 27.401575 10
    vertex 59 47.401575 10
    vertex 54.2125 47.401575 10
  endloop
endfacet
facet normal 0 0 -1
  outer loop
    vertex 34.5 27.401575 23.5
    vertex 37.5402640436737 47.401575 23.5
    vertex 37.5402640436737 27.401575 23.5
  endloop
endfacet
facet normal -.895609516106014 0 -.444841089222154
  outer loop
    vertex 37.5402640436737 27.401575 23.5
    vertex 49.2125 47.401575 0
    vertex 49.2125 27.401575 0
  endloop
endfacet
facet normal 0 0 -1
  outer loop
    vertex 49.2125 27.401575 0
    vertex 59 47.401575 0
    vertex 59 27.401575 0
  endloop
endfacet
facet normal 0 0 -1
  outer loop
    vertex 34.5 27.401575 23.5
    vertex 34.5 47.401575 23.5
    vertex 37.5402640436737 47.401575 23.5
  endloop
endfacet
facet normal -.895609516106014 0 -.444841089222154
  outer loop
    vertex 37.5402640436737 27.401575 23.5
    vertex 37.5402640436737 47.401575 23.5
    vertex 49.2125 47.401575 0
  endloop
endfacet
facet normal 0 0 -1
  outer loop
    vertex 49.2125 27.401575 0
    vertex 49.2125 47.401575 0
    vertex 59 47.401575 0
  endloop
endfacet
facet normal 1 0 0
  outer loop
    vertex 59 -47.401575 10
    vertex 59 -47.401575 0
    vertex 59 -27.401575 0
  endloop
endfacet
facet normal 1 0 0
  outer loop
    vertex 59 -47.401575 10
    vertex 59 -27.401575 0
    vertex 59 -27.401575 10
  endloop
endfacet
facet normal -1 0 0
  outer loop
    vertex 34.5 -27.401575 33.5
    vertex 34.5 -27.401575 23.5
    vertex 34.5 -47.401575 23.5
  endloop
endfacet
facet normal -1 0 0
  outer loop
    vertex 34.5 -27.401575 33.5
    vertex 34.5 -47.401575 23.5
    vertex 34.5 -47.401575 33.5
  endloop
endfacet
facet normal 0 -1 0
  outer loop
    vertex 34.5 -47.401575 23.5
    vertex 37.5402640436737 -47.401575 23.5
    vertex 42.5402640436737 -47.401575 33.5
  endloop
endfacet
facet normal 0 -1 0
  outer loop
    vertex 37.5402640436737 -47.401575 23.5
    vertex 49.2125 -47.401575 0
    vertex 54.2125 -47.401575 10
  endloop
endfacet
facet normal 0 -1 0
  outer loop
    vertex 49.2125 -47.401575 0
    vertex 59 -47.401575 0
    vertex 59 -47.401575 10
  endloop
endfacet
facet normal 0 -1 0
  outer loop
    vertex 34.5 -47.401575 23.5
    vertex 42.5402640436737 -47.401575 33.5
    vertex 34.5 -47.401575 33.5
  endloop
endfacet
facet normal 0 -1 0
  outer loop
    vertex 37.5402640436737 -47.401575 23.5
    vertex 54.2125 -47.401575 10
    vertex 42.5402640436737 -47.401575 33.5
  endloop
endfacet
facet normal 0 -1 0
  outer loop
    vertex 49.2125 -47.401575 0
    vertex 59 -47.401575 10
    vertex 54.2125 -47.401575 10
  endloop
endfacet
facet normal 0 1 0
  outer loop
    vertex 34.5 -27.401575 23.5
    vertex 42.5402640436737 -27.401575 33.5
    vertex 37.5402640436737 -27.401575 23.5
  endloop
endfacet
facet normal 0 1 0
  outer loop
    vertex 37.5402640436737 -27.401575 23.5
    vertex 54.2125 -27.401575 10
    vertex 49.2125 -27.401575 0
  endloop
endfacet
facet normal 0 1 0
  outer loop
    vertex 49.2125 -27.401575 0
    vertex 59 -27.401575 10
    vertex 59 -27.401575 0
  endloop
endfacet
facet normal 0 1 0
  outer loop
    vertex 34.5 -27.401575 23.5
    vertex 34.5 -27.401575 33.5
    vertex 42.5402640436737 -27.401575 33.5
  endloop
endfacet
facet normal 0 1 0
  outer loop
    vertex 37.5402640436737 -27.401575 23.5
    vertex 42.5402640436737 -27.401575 33.5
    vertex 54.2125 -27.401575 10
  endloop
endfacet
facet normal 0 1 0
  outer loop
    vertex 49.2125 -27.401575 0
    vertex 54.2125 -27.401575 10
    vertex 59 -27.401575 10
  endloop
endfacet
facet normal 0 0 1
  outer loop
    vertex 34.5 -47.401575 33.5
    vertex 42.5402640436737 -47.401575 33.5
    vertex 42.5402640436737 -27.401575 33.5
  endloop
endfacet
facet normal .895609516106014 0 .444841089222154
  outer loop
    vertex 42.5402640436737 -47.401575 33.5
    vertex 54.2125 -47.401575 10
    vertex 54.2125 -27.401575 10
  endloop
endfacet
facet normal 0 0 1
  outer loop
    vertex 54.2125 -47.401575 10
    vertex 59 -47.401575 10
    vertex 59 -27.401575 10
  endloop
endfacet
facet normal 0 0 1
  outer loop
    vertex 34.5 -47.401575 33.5
    vertex 42.5402640436737 -27.401575 33.5
    vertex 34.5 -27.401575 33.5
  endloop
endfacet
facet normal .895609516106014 0 .444841089222154
  outer loop
    vertex 42.5402640436737 -47.401575 33.5
    vertex 54.2125 -27.401575 10
    vertex 42.5402640436737 -27.401575 33.5
  endloop
endfacet
facet normal 0 0 1
  outer loop
    vertex 54.2125 -47.401575 10
    vertex 59 -27.401575 10
    vertex 54.2125 -27.401575 10
  endloop
endfacet
facet normal 0 0 -1
  outer loop
    vertex 34.5 -47.401575 23.5
    vertex 37.5402640436737 -27.401575 23.5
    vertex 37.5402640436737 -47.401575 23.5
  endloop
endfacet
facet normal -.895609516106014 0 -.444841089222154
  outer loop
    vertex 37.5402640436737 -47.401575 23.5
    vertex 49.2125 -27.401575 0
    vertex 49.2125 -47.401575 0
  endloop
endfacet
facet normal 0 0 -1
  outer loop
    vertex 49.2125 -47.401575 0
    vertex 59 -27.401575 0
    vertex 59 -47.401575 0
  endloop
endfacet
facet normal 0 0 -1
  outer loop
    vertex 34.5 -47.401575 23.5
    vertex 34.5 -27.401575 23.5
    vertex 37.5402640436737 -27.401575 23.5
  endloop
endfacet
facet normal -.895609516106014 0 -.444841089222154
  outer loop
    vertex 37.5402640436737 -47.401575 23.5
    vertex 37.5402640436737 -27.401575 23.5
    vertex 49.2125 -27.401575 0
  endloop
endfacet
facet normal 0 0 -1
  outer loop
    vertex 49.2125 -47.401575 0
    vertex 49.2125 -27.401575 0
    vertex 59 -27.401575 0
  endloop
endfacet
endsolid DBV5-M
