solid DDA8_3P1X2P4-M
facet normal 0 0 -1
  outer loop
    vertex -50.9666886712604 75 66
    vertex -47.1171064456777 75.7657295139133 66
    vertex -47.0416886712604 75 66
  endloop
endfacet
facet normal 0 0 -1
  outer loop
    vertex -50.9666886712604 75 66
    vertex -47.3404615061536 76.502032472033 66
    vertex -47.1171064456777 75.7657295139133 66
  endloop
endfacet
facet normal 0 0 -1
  outer loop
    vertex -50.9666886712604 75 66
    vertex -47.7031704429729 77.1806131646019 66
    vertex -47.3404615061536 76.502032472033 66
  endloop
endfacet
facet normal 0 0 -1
  outer loop
    vertex -50.9666886712604 75 66
    vertex -48.1912945551032 77.7753941161572 66
    vertex -47.7031704429729 77.1806131646019 66
  endloop
endfacet
facet normal 0 0 -1
  outer loop
    vertex -50.9666886712604 75 66
    vertex -48.7860755066585 78.2635182282875 66
    vertex -48.1912945551032 77.7753941161572 66
  endloop
endfacet
facet normal 0 0 -1
  outer loop
    vertex -50.9666886712604 75 66
    vertex -49.4646561992274 78.6262271651068 66
    vertex -48.7860755066585 78.2635182282875 66
  endloop
endfacet
facet normal 0 0 -1
  outer loop
    vertex -50.9666886712604 75 66
    vertex -50.2009591573471 78.8495822255827 66
    vertex -49.4646561992274 78.6262271651068 66
  endloop
endfacet
facet normal 0 0 -1
  outer loop
    vertex -50.9666886712604 75 66
    vertex -50.9666886712604 78.925 66
    vertex -50.2009591573471 78.8495822255827 66
  endloop
endfacet
facet normal 0 0 -1
  outer loop
    vertex -50.9666886712604 75 66
    vertex -51.7324181851737 78.8495822255827 66
    vertex -50.9666886712604 78.925 66
  endloop
endfacet
facet normal 0 0 -1
  outer loop
    vertex -50.9666886712604 75 66
    vertex -52.4687211432934 78.6262271651068 66
    vertex -51.7324181851737 78.8495822255827 66
  endloop
endfacet
facet normal 0 0 -1
  outer loop
    vertex -50.9666886712604 75 66
    vertex -53.1473018358624 78.2635182282875 66
    vertex -52.4687211432934 78.6262271651068 66
  endloop
endfacet
facet normal 0 0 -1
  outer loop
    vertex -50.9666886712604 75 66
    vertex -53.7420827874176 77.7753941161572 66
    vertex -53.1473018358624 78.2635182282875 66
  endloop
endfacet
facet normal 0 0 -1
  outer loop
    vertex -50.9666886712604 75 66
    vertex -54.2302068995479 77.1806131646019 66
    vertex -53.7420827874176 77.7753941161572 66
  endloop
endfacet
facet normal 0 0 -1
  outer loop
    vertex -50.9666886712604 75 66
    vertex -54.5929158363672 76.502032472033 66
    vertex -54.2302068995479 77.1806131646019 66
  endloop
endfacet
facet normal 0 0 -1
  outer loop
    vertex -50.9666886712604 75 66
    vertex -54.8162708968431 75.7657295139133 66
    vertex -54.5929158363672 76.502032472033 66
  endloop
endfacet
facet normal 0 0 -1
  outer loop
    vertex -50.9666886712604 75 66
    vertex -54.8916886712604 75 66
    vertex -54.8162708968431 75.7657295139133 66
  endloop
endfacet
facet normal 0 0 -1
  outer loop
    vertex -50.9666886712604 75 66
    vertex -54.8162708968431 74.2342704860867 66
    vertex -54.8916886712604 75 66
  endloop
endfacet
facet normal 0 0 -1
  outer loop
    vertex -50.9666886712604 75 66
    vertex -54.5929158363672 73.497967527967 66
    vertex -54.8162708968431 74.2342704860867 66
  endloop
endfacet
facet normal 0 0 -1
  outer loop
    vertex -50.9666886712604 75 66
    vertex -54.2302068995479 72.8193868353981 66
    vertex -54.5929158363672 73.497967527967 66
  endloop
endfacet
facet normal 0 0 -1
  outer loop
    vertex -50.9666886712604 75 66
    vertex -53.7420827874176 72.2246058838428 66
    vertex -54.2302068995479 72.8193868353981 66
  endloop
endfacet
facet normal 0 0 -1
  outer loop
    vertex -50.9666886712604 75 66
    vertex -53.1473018358624 71.7364817717125 66
    vertex -53.7420827874176 72.2246058838428 66
  endloop
endfacet
facet normal 0 0 -1
  outer loop
    vertex -50.9666886712604 75 66
    vertex -52.4687211432934 71.3737728348932 66
    vertex -53.1473018358624 71.7364817717125 66
  endloop
endfacet
facet normal 0 0 -1
  outer loop
    vertex -50.9666886712604 75 66
    vertex -51.7324181851737 71.1504177744173 66
    vertex -52.4687211432934 71.3737728348932 66
  endloop
endfacet
facet normal 0 0 -1
  outer loop
    vertex -50.9666886712604 75 66
    vertex -50.9666886712604 71.075 66
    vertex -51.7324181851737 71.1504177744173 66
  endloop
endfacet
facet normal 0 0 -1
  outer loop
    vertex -50.9666886712604 75 66
    vertex -50.2009591573471 71.1504177744173 66
    vertex -50.9666886712604 71.075 66
  endloop
endfacet
facet normal 0 0 -1
  outer loop
    vertex -50.9666886712604 75 66
    vertex -49.4646561992274 71.3737728348932 66
    vertex -50.2009591573471 71.1504177744173 66
  endloop
endfacet
facet normal 0 0 -1
  outer loop
    vertex -50.9666886712604 75 66
    vertex -48.7860755066585 71.7364817717125 66
    vertex -49.4646561992274 71.3737728348932 66
  endloop
endfacet
facet normal 0 0 -1
  outer loop
    vertex -50.9666886712604 75 66
    vertex -48.1912945551032 72.2246058838428 66
    vertex -48.7860755066585 71.7364817717125 66
  endloop
endfacet
facet normal 0 0 -1
  outer loop
    vertex -50.9666886712604 75 66
    vertex -47.7031704429729 72.8193868353981 66
    vertex -48.1912945551032 72.2246058838428 66
  endloop
endfacet
facet normal 0 0 -1
  outer loop
    vertex -50.9666886712604 75 66
    vertex -47.3404615061536 73.497967527967 66
    vertex -47.7031704429729 72.8193868353981 66
  endloop
endfacet
facet normal 0 0 -1
  outer loop
    vertex -50.9666886712604 75 66
    vertex -47.1171064456777 74.2342704860867 66
    vertex -47.3404615061536 73.497967527967 66
  endloop
endfacet
facet normal 0 0 -1
  outer loop
    vertex -50.9666886712604 75 66
    vertex -47.0416886712604 75 66
    vertex -47.1171064456777 74.2342704860867 66
  endloop
endfacet
facet normal 0 0 1
  outer loop
    vertex -50.9666886712604 75 66.1
    vertex -47.0416886712604 75 66.1
    vertex -47.1171064456777 75.7657295139133 66.1
  endloop
endfacet
facet normal 0 0 1
  outer loop
    vertex -50.9666886712604 75 66.1
    vertex -47.1171064456777 75.7657295139133 66.1
    vertex -47.3404615061536 76.502032472033 66.1
  endloop
endfacet
facet normal 0 0 1
  outer loop
    vertex -50.9666886712604 75 66.1
    vertex -47.3404615061536 76.502032472033 66.1
    vertex -47.7031704429729 77.1806131646019 66.1
  endloop
endfacet
facet normal 0 0 1
  outer loop
    vertex -50.9666886712604 75 66.1
    vertex -47.7031704429729 77.1806131646019 66.1
    vertex -48.1912945551032 77.7753941161572 66.1
  endloop
endfacet
facet normal 0 0 1
  outer loop
    vertex -50.9666886712604 75 66.1
    vertex -48.1912945551032 77.7753941161572 66.1
    vertex -48.7860755066585 78.2635182282875 66.1
  endloop
endfacet
facet normal 0 0 1
  outer loop
    vertex -50.9666886712604 75 66.1
    vertex -48.7860755066585 78.2635182282875 66.1
    vertex -49.4646561992274 78.6262271651068 66.1
  endloop
endfacet
facet normal 0 0 1
  outer loop
    vertex -50.9666886712604 75 66.1
    vertex -49.4646561992274 78.6262271651068 66.1
    vertex -50.2009591573471 78.8495822255827 66.1
  endloop
endfacet
facet normal 0 0 1
  outer loop
    vertex -50.9666886712604 75 66.1
    vertex -50.2009591573471 78.8495822255827 66.1
    vertex -50.9666886712604 78.925 66.1
  endloop
endfacet
facet normal 0 0 1
  outer loop
    vertex -50.9666886712604 75 66.1
    vertex -50.9666886712604 78.925 66.1
    vertex -51.7324181851737 78.8495822255827 66.1
  endloop
endfacet
facet normal 0 0 1
  outer loop
    vertex -50.9666886712604 75 66.1
    vertex -51.7324181851737 78.8495822255827 66.1
    vertex -52.4687211432934 78.6262271651068 66.1
  endloop
endfacet
facet normal 0 0 1
  outer loop
    vertex -50.9666886712604 75 66.1
    vertex -52.4687211432934 78.6262271651068 66.1
    vertex -53.1473018358624 78.2635182282875 66.1
  endloop
endfacet
facet normal 0 0 1
  outer loop
    vertex -50.9666886712604 75 66.1
    vertex -53.1473018358624 78.2635182282875 66.1
    vertex -53.7420827874176 77.7753941161572 66.1
  endloop
endfacet
facet normal 0 0 1
  outer loop
    vertex -50.9666886712604 75 66.1
    vertex -53.7420827874176 77.7753941161572 66.1
    vertex -54.2302068995479 77.1806131646019 66.1
  endloop
endfacet
facet normal 0 0 1
  outer loop
    vertex -50.9666886712604 75 66.1
    vertex -54.2302068995479 77.1806131646019 66.1
    vertex -54.5929158363672 76.502032472033 66.1
  endloop
endfacet
facet normal 0 0 1
  outer loop
    vertex -50.9666886712604 75 66.1
    vertex -54.5929158363672 76.502032472033 66.1
    vertex -54.8162708968431 75.7657295139133 66.1
  endloop
endfacet
facet normal 0 0 1
  outer loop
    vertex -50.9666886712604 75 66.1
    vertex -54.8162708968431 75.7657295139133 66.1
    vertex -54.8916886712604 75 66.1
  endloop
endfacet
facet normal 0 0 1
  outer loop
    vertex -50.9666886712604 75 66.1
    vertex -54.8916886712604 75 66.1
    vertex -54.8162708968431 74.2342704860867 66.1
  endloop
endfacet
facet normal 0 0 1
  outer loop
    vertex -50.9666886712604 75 66.1
    vertex -54.8162708968431 74.2342704860867 66.1
    vertex -54.5929158363672 73.497967527967 66.1
  endloop
endfacet
facet normal 0 0 1
  outer loop
    vertex -50.9666886712604 75 66.1
    vertex -54.5929158363672 73.497967527967 66.1
    vertex -54.2302068995479 72.8193868353981 66.1
  endloop
endfacet
facet normal 0 0 1
  outer loop
    vertex -50.9666886712604 75 66.1
    vertex -54.2302068995479 72.8193868353981 66.1
    vertex -53.7420827874176 72.2246058838428 66.1
  endloop
endfacet
facet normal 0 0 1
  outer loop
    vertex -50.9666886712604 75 66.1
    vertex -53.7420827874176 72.2246058838428 66.1
    vertex -53.1473018358624 71.7364817717125 66.1
  endloop
endfacet
facet normal 0 0 1
  outer loop
    vertex -50.9666886712604 75 66.1
    vertex -53.1473018358624 71.7364817717125 66.1
    vertex -52.4687211432934 71.3737728348932 66.1
  endloop
endfacet
facet normal 0 0 1
  outer loop
    vertex -50.9666886712604 75 66.1
    vertex -52.4687211432934 71.3737728348932 66.1
    vertex -51.7324181851737 71.1504177744173 66.1
  endloop
endfacet
facet normal 0 0 1
  outer loop
    vertex -50.9666886712604 75 66.1
    vertex -51.7324181851737 71.1504177744173 66.1
    vertex -50.9666886712604 71.075 66.1
  endloop
endfacet
facet normal 0 0 1
  outer loop
    vertex -50.9666886712604 75 66.1
    vertex -50.9666886712604 71.075 66.1
    vertex -50.2009591573471 71.1504177744173 66.1
  endloop
endfacet
facet normal 0 0 1
  outer loop
    vertex -50.9666886712604 75 66.1
    vertex -50.2009591573471 71.1504177744173 66.1
    vertex -49.4646561992274 71.3737728348932 66.1
  endloop
endfacet
facet normal 0 0 1
  outer loop
    vertex -50.9666886712604 75 66.1
    vertex -49.4646561992274 71.3737728348932 66.1
    vertex -48.7860755066585 71.7364817717125 66.1
  endloop
endfacet
facet normal 0 0 1
  outer loop
    vertex -50.9666886712604 75 66.1
    vertex -48.7860755066585 71.7364817717125 66.1
    vertex -48.1912945551032 72.2246058838428 66.1
  endloop
endfacet
facet normal 0 0 1
  outer loop
    vertex -50.9666886712604 75 66.1
    vertex -48.1912945551032 72.2246058838428 66.1
    vertex -47.7031704429729 72.8193868353981 66.1
  endloop
endfacet
facet normal 0 0 1
  outer loop
    vertex -50.9666886712604 75 66.1
    vertex -47.7031704429729 72.8193868353981 66.1
    vertex -47.3404615061536 73.497967527967 66.1
  endloop
endfacet
facet normal 0 0 1
  outer loop
    vertex -50.9666886712604 75 66.1
    vertex -47.3404615061536 73.497967527967 66.1
    vertex -47.1171064456777 74.2342704860867 66.1
  endloop
endfacet
facet normal 0 0 1
  outer loop
    vertex -50.9666886712604 75 66.1
    vertex -47.1171064456777 74.2342704860867 66.1
    vertex -47.0416886712604 75 66.1
  endloop
endfacet
facet normal .9951847266722 .09801714032953 0
  outer loop
    vertex -47.0416886712604 75 66
    vertex -47.1171064456777 75.7657295139133 66.1
    vertex -47.0416886712604 75 66.1
  endloop
endfacet
facet normal .956940335732202 .290284677254484 0
  outer loop
    vertex -47.1171064456777 75.7657295139133 66
    vertex -47.3404615061536 76.502032472033 66.1
    vertex -47.1171064456777 75.7657295139133 66.1
  endloop
endfacet
facet normal .881921264348346 .471396736826016 0
  outer loop
    vertex -47.3404615061536 76.502032472033 66
    vertex -47.7031704429729 77.1806131646019 66.1
    vertex -47.3404615061536 76.502032472033 66.1
  endloop
endfacet
facet normal .773010453362756 .634393284163623 0
  outer loop
    vertex -47.7031704429729 77.1806131646019 66
    vertex -48.1912945551032 77.7753941161572 66.1
    vertex -47.7031704429729 77.1806131646019 66.1
  endloop
endfacet
facet normal .634393284163622 .773010453362756 0
  outer loop
    vertex -48.1912945551032 77.7753941161572 66
    vertex -48.7860755066585 78.2635182282875 66.1
    vertex -48.1912945551032 77.7753941161572 66.1
  endloop
endfacet
facet normal .471396736826023 .881921264348342 0
  outer loop
    vertex -48.7860755066585 78.2635182282875 66
    vertex -49.4646561992274 78.6262271651068 66.1
    vertex -48.7860755066585 78.2635182282875 66.1
  endloop
endfacet
facet normal .290284677254473 .956940335732206 0
  outer loop
    vertex -49.4646561992274 78.6262271651068 66
    vertex -50.2009591573471 78.8495822255827 66.1
    vertex -49.4646561992274 78.6262271651068 66.1
  endloop
endfacet
facet normal 9.80171403295391E-02 .995184726672199 0
  outer loop
    vertex -50.2009591573471 78.8495822255827 66
    vertex -50.9666886712604 78.925 66.1
    vertex -50.2009591573471 78.8495822255827 66.1
  endloop
endfacet
facet normal -9.80171403295391E-02 .995184726672199 0
  outer loop
    vertex -50.9666886712604 78.925 66
    vertex -51.7324181851737 78.8495822255827 66.1
    vertex -50.9666886712604 78.925 66.1
  endloop
endfacet
facet normal -.290284677254473 .956940335732206 0
  outer loop
    vertex -51.7324181851737 78.8495822255827 66
    vertex -52.4687211432934 78.6262271651068 66.1
    vertex -51.7324181851737 78.8495822255827 66.1
  endloop
endfacet
facet normal -.471396736825969 .88192126434837 0
  outer loop
    vertex -52.4687211432934 78.6262271651068 66
    vertex -53.1473018358624 78.2635182282875 66.1
    vertex -52.4687211432934 78.6262271651068 66.1
  endloop
endfacet
facet normal -.634393284163685 .773010453362704 0
  outer loop
    vertex -53.1473018358624 78.2635182282875 66
    vertex -53.7420827874176 77.7753941161572 66.1
    vertex -53.1473018358624 78.2635182282875 66.1
  endloop
endfacet
facet normal -.773010453362756 .634393284163623 0
  outer loop
    vertex -53.7420827874176 77.7753941161572 66
    vertex -54.2302068995479 77.1806131646019 66.1
    vertex -53.7420827874176 77.7753941161572 66.1
  endloop
endfacet
facet normal -.881921264348346 .471396736826016 0
  outer loop
    vertex -54.2302068995479 77.1806131646019 66
    vertex -54.5929158363672 76.502032472033 66.1
    vertex -54.2302068995479 77.1806131646019 66.1
  endloop
endfacet
facet normal -.956940335732202 .290284677254484 0
  outer loop
    vertex -54.5929158363672 76.502032472033 66
    vertex -54.8162708968431 75.7657295139133 66.1
    vertex -54.5929158363672 76.502032472033 66.1
  endloop
endfacet
facet normal -.9951847266722 .09801714032953 0
  outer loop
    vertex -54.8162708968431 75.7657295139133 66
    vertex -54.8916886712604 75 66.1
    vertex -54.8162708968431 75.7657295139133 66.1
  endloop
endfacet
facet normal -.9951847266722 -.09801714032953 0
  outer loop
    vertex -54.8916886712604 75 66
    vertex -54.8162708968431 74.2342704860867 66.1
    vertex -54.8916886712604 75 66.1
  endloop
endfacet
facet normal -.956940335732202 -.290284677254484 0
  outer loop
    vertex -54.8162708968431 74.2342704860867 66
    vertex -54.5929158363672 73.497967527967 66.1
    vertex -54.8162708968431 74.2342704860867 66.1
  endloop
endfacet
facet normal -.881921264348346 -.471396736826016 0
  outer loop
    vertex -54.5929158363672 73.497967527967 66
    vertex -54.2302068995479 72.8193868353981 66.1
    vertex -54.5929158363672 73.497967527967 66.1
  endloop
endfacet
facet normal -.773010453362756 -.634393284163623 0
  outer loop
    vertex -54.2302068995479 72.8193868353981 66
    vertex -53.7420827874176 72.2246058838428 66.1
    vertex -54.2302068995479 72.8193868353981 66.1
  endloop
endfacet
facet normal -.634393284163685 -.773010453362704 0
  outer loop
    vertex -53.7420827874176 72.2246058838428 66
    vertex -53.1473018358624 71.7364817717125 66.1
    vertex -53.7420827874176 72.2246058838428 66.1
  endloop
endfacet
facet normal -.471396736825969 -.88192126434837 0
  outer loop
    vertex -53.1473018358624 71.7364817717125 66
    vertex -52.4687211432934 71.3737728348932 66.1
    vertex -53.1473018358624 71.7364817717125 66.1
  endloop
endfacet
facet normal -.290284677254473 -.956940335732206 0
  outer loop
    vertex -52.4687211432934 71.3737728348932 66
    vertex -51.7324181851737 71.1504177744173 66.1
    vertex -52.4687211432934 71.3737728348932 66.1
  endloop
endfacet
facet normal -9.80171403295391E-02 -.995184726672199 0
  outer loop
    vertex -51.7324181851737 71.1504177744173 66
    vertex -50.9666886712604 71.075 66.1
    vertex -51.7324181851737 71.1504177744173 66.1
  endloop
endfacet
facet normal 9.80171403295391E-02 -.995184726672199 0
  outer loop
    vertex -50.9666886712604 71.075 66
    vertex -50.2009591573471 71.1504177744173 66.1
    vertex -50.9666886712604 71.075 66.1
  endloop
endfacet
facet normal .290284677254473 -.956940335732206 0
  outer loop
    vertex -50.2009591573471 71.1504177744173 66
    vertex -49.4646561992274 71.3737728348932 66.1
    vertex -50.2009591573471 71.1504177744173 66.1
  endloop
endfacet
facet normal .471396736826023 -.881921264348342 0
  outer loop
    vertex -49.4646561992274 71.3737728348932 66
    vertex -48.7860755066585 71.7364817717125 66.1
    vertex -49.4646561992274 71.3737728348932 66.1
  endloop
endfacet
facet normal .634393284163622 -.773010453362756 0
  outer loop
    vertex -48.7860755066585 71.7364817717125 66
    vertex -48.1912945551032 72.2246058838428 66.1
    vertex -48.7860755066585 71.7364817717125 66.1
  endloop
endfacet
facet normal .773010453362756 -.634393284163623 0
  outer loop
    vertex -48.1912945551032 72.2246058838428 66
    vertex -47.7031704429729 72.8193868353981 66.1
    vertex -48.1912945551032 72.2246058838428 66.1
  endloop
endfacet
facet normal .881921264348346 -.471396736826016 0
  outer loop
    vertex -47.7031704429729 72.8193868353981 66
    vertex -47.3404615061536 73.497967527967 66.1
    vertex -47.7031704429729 72.8193868353981 66.1
  endloop
endfacet
facet normal .956940335732202 -.290284677254484 0
  outer loop
    vertex -47.3404615061536 73.497967527967 66
    vertex -47.1171064456777 74.2342704860867 66.1
    vertex -47.3404615061536 73.497967527967 66.1
  endloop
endfacet
facet normal .9951847266722 -.09801714032953 0
  outer loop
    vertex -47.1171064456777 74.2342704860867 66
    vertex -47.0416886712604 75 66.1
    vertex -47.1171064456777 74.2342704860867 66.1
  endloop
endfacet
facet normal .9951847266722 .09801714032953 0
  outer loop
    vertex -47.1171064456777 75.7657295139133 66
    vertex -47.1171064456777 75.7657295139133 66.1
    vertex -47.0416886712604 75 66
  endloop
endfacet
facet normal .956940335732202 .290284677254484 0
  outer loop
    vertex -47.3404615061536 76.502032472033 66
    vertex -47.3404615061536 76.502032472033 66.1
    vertex -47.1171064456777 75.7657295139133 66
  endloop
endfacet
facet normal .881921264348346 .471396736826016 0
  outer loop
    vertex -47.7031704429729 77.1806131646019 66
    vertex -47.7031704429729 77.1806131646019 66.1
    vertex -47.3404615061536 76.502032472033 66
  endloop
endfacet
facet normal .773010453362756 .634393284163623 0
  outer loop
    vertex -48.1912945551032 77.7753941161572 66
    vertex -48.1912945551032 77.7753941161572 66.1
    vertex -47.7031704429729 77.1806131646019 66
  endloop
endfacet
facet normal .634393284163622 .773010453362756 0
  outer loop
    vertex -48.7860755066585 78.2635182282875 66
    vertex -48.7860755066585 78.2635182282875 66.1
    vertex -48.1912945551032 77.7753941161572 66
  endloop
endfacet
facet normal .471396736826023 .881921264348342 0
  outer loop
    vertex -49.4646561992274 78.6262271651068 66
    vertex -49.4646561992274 78.6262271651068 66.1
    vertex -48.7860755066585 78.2635182282875 66
  endloop
endfacet
facet normal .290284677254473 .956940335732206 0
  outer loop
    vertex -50.2009591573471 78.8495822255827 66
    vertex -50.2009591573471 78.8495822255827 66.1
    vertex -49.4646561992274 78.6262271651068 66
  endloop
endfacet
facet normal 9.80171403295391E-02 .995184726672199 0
  outer loop
    vertex -50.9666886712604 78.925 66
    vertex -50.9666886712604 78.925 66.1
    vertex -50.2009591573471 78.8495822255827 66
  endloop
endfacet
facet normal -9.80171403295391E-02 .995184726672199 0
  outer loop
    vertex -51.7324181851737 78.8495822255827 66
    vertex -51.7324181851737 78.8495822255827 66.1
    vertex -50.9666886712604 78.925 66
  endloop
endfacet
facet normal -.290284677254473 .956940335732206 0
  outer loop
    vertex -52.4687211432934 78.6262271651068 66
    vertex -52.4687211432934 78.6262271651068 66.1
    vertex -51.7324181851737 78.8495822255827 66
  endloop
endfacet
facet normal -.471396736825969 .88192126434837 0
  outer loop
    vertex -53.1473018358624 78.2635182282875 66
    vertex -53.1473018358624 78.2635182282875 66.1
    vertex -52.4687211432934 78.6262271651068 66
  endloop
endfacet
facet normal -.634393284163685 .773010453362704 0
  outer loop
    vertex -53.7420827874176 77.7753941161572 66
    vertex -53.7420827874176 77.7753941161572 66.1
    vertex -53.1473018358624 78.2635182282875 66
  endloop
endfacet
facet normal -.773010453362756 .634393284163623 0
  outer loop
    vertex -54.2302068995479 77.1806131646019 66
    vertex -54.2302068995479 77.1806131646019 66.1
    vertex -53.7420827874176 77.7753941161572 66
  endloop
endfacet
facet normal -.881921264348346 .471396736826016 0
  outer loop
    vertex -54.5929158363672 76.502032472033 66
    vertex -54.5929158363672 76.502032472033 66.1
    vertex -54.2302068995479 77.1806131646019 66
  endloop
endfacet
facet normal -.956940335732202 .290284677254484 0
  outer loop
    vertex -54.8162708968431 75.7657295139133 66
    vertex -54.8162708968431 75.7657295139133 66.1
    vertex -54.5929158363672 76.502032472033 66
  endloop
endfacet
facet normal -.9951847266722 .09801714032953 0
  outer loop
    vertex -54.8916886712604 75 66
    vertex -54.8916886712604 75 66.1
    vertex -54.8162708968431 75.7657295139133 66
  endloop
endfacet
facet normal -.9951847266722 -.09801714032953 0
  outer loop
    vertex -54.8162708968431 74.2342704860867 66
    vertex -54.8162708968431 74.2342704860867 66.1
    vertex -54.8916886712604 75 66
  endloop
endfacet
facet normal -.956940335732202 -.290284677254484 0
  outer loop
    vertex -54.5929158363672 73.497967527967 66
    vertex -54.5929158363672 73.497967527967 66.1
    vertex -54.8162708968431 74.2342704860867 66
  endloop
endfacet
facet normal -.881921264348346 -.471396736826016 0
  outer loop
    vertex -54.2302068995479 72.8193868353981 66
    vertex -54.2302068995479 72.8193868353981 66.1
    vertex -54.5929158363672 73.497967527967 66
  endloop
endfacet
facet normal -.773010453362756 -.634393284163623 0
  outer loop
    vertex -53.7420827874176 72.2246058838428 66
    vertex -53.7420827874176 72.2246058838428 66.1
    vertex -54.2302068995479 72.8193868353981 66
  endloop
endfacet
facet normal -.634393284163685 -.773010453362704 0
  outer loop
    vertex -53.1473018358624 71.7364817717125 66
    vertex -53.1473018358624 71.7364817717125 66.1
    vertex -53.7420827874176 72.2246058838428 66
  endloop
endfacet
facet normal -.471396736825969 -.88192126434837 0
  outer loop
    vertex -52.4687211432934 71.3737728348932 66
    vertex -52.4687211432934 71.3737728348932 66.1
    vertex -53.1473018358624 71.7364817717125 66
  endloop
endfacet
facet normal -.290284677254473 -.956940335732206 0
  outer loop
    vertex -51.7324181851737 71.1504177744173 66
    vertex -51.7324181851737 71.1504177744173 66.1
    vertex -52.4687211432934 71.3737728348932 66
  endloop
endfacet
facet normal -9.80171403295391E-02 -.995184726672199 0
  outer loop
    vertex -50.9666886712604 71.075 66
    vertex -50.9666886712604 71.075 66.1
    vertex -51.7324181851737 71.1504177744173 66
  endloop
endfacet
facet normal 9.80171403295391E-02 -.995184726672199 0
  outer loop
    vertex -50.2009591573471 71.1504177744173 66
    vertex -50.2009591573471 71.1504177744173 66.1
    vertex -50.9666886712604 71.075 66
  endloop
endfacet
facet normal .290284677254473 -.956940335732206 0
  outer loop
    vertex -49.4646561992274 71.3737728348932 66
    vertex -49.4646561992274 71.3737728348932 66.1
    vertex -50.2009591573471 71.1504177744173 66
  endloop
endfacet
facet normal .471396736826023 -.881921264348342 0
  outer loop
    vertex -48.7860755066585 71.7364817717125 66
    vertex -48.7860755066585 71.7364817717125 66.1
    vertex -49.4646561992274 71.3737728348932 66
  endloop
endfacet
facet normal .634393284163622 -.773010453362756 0
  outer loop
    vertex -48.1912945551032 72.2246058838428 66
    vertex -48.1912945551032 72.2246058838428 66.1
    vertex -48.7860755066585 71.7364817717125 66
  endloop
endfacet
facet normal .773010453362756 -.634393284163623 0
  outer loop
    vertex -47.7031704429729 72.8193868353981 66
    vertex -47.7031704429729 72.8193868353981 66.1
    vertex -48.1912945551032 72.2246058838428 66
  endloop
endfacet
facet normal .881921264348346 -.471396736826016 0
  outer loop
    vertex -47.3404615061536 73.497967527967 66
    vertex -47.3404615061536 73.497967527967 66.1
    vertex -47.7031704429729 72.8193868353981 66
  endloop
endfacet
facet normal .956940335732202 -.290284677254484 0
  outer loop
    vertex -47.1171064456777 74.2342704860867 66
    vertex -47.1171064456777 74.2342704860867 66.1
    vertex -47.3404615061536 73.497967527967 66
  endloop
endfacet
facet normal .9951847266722 -.09801714032953 0
  outer loop
    vertex -47.0416886712604 75 66
    vertex -47.0416886712604 75 66.1
    vertex -47.1171064456777 74.2342704860867 66
  endloop
endfacet
facet normal 0 0 1
  outer loop
    vertex 67.0893069330011 95.6467949458132 66
    vertex 12 95.6467949458132 66
    vertex 67.0893069330011 -95.6467949458132 66
  endloop
endfacet
facet normal 0 0 1
  outer loop
    vertex 12 95.6467949458132 66
    vertex 11.7694233648388 93.3057110816197 66
    vertex 67.0893069330011 -95.6467949458132 66
  endloop
endfacet
facet normal 0 0 1
  outer loop
    vertex 11.7694233648388 93.3057110816197 66
    vertex 11.0865543901354 91.0545937574321 66
    vertex 67.0893069330011 -95.6467949458132 66
  endloop
endfacet
facet normal 0 0 1
  outer loop
    vertex 11.0865543901354 91.0545937574321 66
    vertex 9.97763534763054 88.979952149578 66
    vertex 67.0893069330011 -95.6467949458132 66
  endloop
endfacet
facet normal 0 0 1
  outer loop
    vertex 9.97763534763054 88.979952149578 66
    vertex 8.48528137423857 87.1615135715747 66
    vertex 67.0893069330011 -95.6467949458132 66
  endloop
endfacet
facet normal 0 0 1
  outer loop
    vertex 8.48528137423857 87.1615135715747 66
    vertex 6.66684279623523 85.6691595981827 66
    vertex 67.0893069330011 -95.6467949458132 66
  endloop
endfacet
facet normal 0 0 1
  outer loop
    vertex 6.66684279623523 85.6691595981827 66
    vertex 4.59220118838108 84.5602405556778 66
    vertex 67.0893069330011 -95.6467949458132 66
  endloop
endfacet
facet normal 0 0 1
  outer loop
    vertex 4.59220118838108 84.5602405556778 66
    vertex 2.34108386419354 83.8773715809745 66
    vertex 67.0893069330011 -95.6467949458132 66
  endloop
endfacet
facet normal 0 0 1
  outer loop
    vertex 2.34108386419354 83.8773715809745 66
    vertex 7.34788079488412E-16 83.6467949458132 66
    vertex 67.0893069330011 -95.6467949458132 66
  endloop
endfacet
facet normal 0 0 1
  outer loop
    vertex 7.34788079488412E-16 83.6467949458132 66
    vertex -67.0893069330011 -95.6467949458132 66
    vertex 67.0893069330011 -95.6467949458132 66
  endloop
endfacet
facet normal 0 0 1
  outer loop
    vertex 7.34788079488412E-16 83.6467949458132 66
    vertex -2.34108386419354 83.8773715809745 66
    vertex -67.0893069330011 -95.6467949458132 66
  endloop
endfacet
facet normal 0 0 1
  outer loop
    vertex -2.34108386419354 83.8773715809745 66
    vertex -4.59220118838108 84.5602405556778 66
    vertex -67.0893069330011 -95.6467949458132 66
  endloop
endfacet
facet normal 0 0 1
  outer loop
    vertex -4.59220118838108 84.5602405556778 66
    vertex -6.66684279623523 85.6691595981827 66
    vertex -67.0893069330011 -95.6467949458132 66
  endloop
endfacet
facet normal 0 0 1
  outer loop
    vertex -6.66684279623523 85.6691595981827 66
    vertex -8.48528137423857 87.1615135715747 66
    vertex -67.0893069330011 -95.6467949458132 66
  endloop
endfacet
facet normal 0 0 1
  outer loop
    vertex -8.48528137423857 87.1615135715747 66
    vertex -9.97763534763054 88.979952149578 66
    vertex -67.0893069330011 -95.6467949458132 66
  endloop
endfacet
facet normal 0 0 1
  outer loop
    vertex -9.97763534763054 88.979952149578 66
    vertex -11.0865543901354 91.0545937574321 66
    vertex -67.0893069330011 -95.6467949458132 66
  endloop
endfacet
facet normal 0 0 1
  outer loop
    vertex -11.0865543901354 91.0545937574321 66
    vertex -11.7694233648388 93.3057110816197 66
    vertex -67.0893069330011 -95.6467949458132 66
  endloop
endfacet
facet normal 0 0 1
  outer loop
    vertex -11.7694233648388 93.3057110816197 66
    vertex -12 95.6467949458132 66
    vertex -67.0893069330011 -95.6467949458132 66
  endloop
endfacet
facet normal 0 0 1
  outer loop
    vertex -67.0893069330011 95.6467949458132 66
    vertex -67.0893069330011 -95.6467949458132 66
    vertex -12 95.6467949458132 66
  endloop
endfacet
facet normal 0 0 -1
  outer loop
    vertex -76.1467949458132 -95.6467949458132 0
    vertex 76.1467949458132 95.6467949458132 0
    vertex 76.1467949458132 -95.6467949458132 0
  endloop
endfacet
facet normal 0 0 -1
  outer loop
    vertex 76.1467949458132 95.6467949458132 0
    vertex -76.1467949458132 -95.6467949458132 0
    vertex -76.1467949458132 95.6467949458132 0
  endloop
endfacet
facet normal 1 0 0
  outer loop
    vertex -12 95.6467949458132 66
    vertex -12 95.6467949458132 59.4
    vertex -12 96.2242201250843 59.4
  endloop
endfacet
facet normal .995184726672198 9.80171403295477E-02 0
  outer loop
    vertex -11.7694233648388 93.3057110816197 66
    vertex -11.7694233648388 93.3057110816197 59.4
    vertex -12 95.6467949458132 59.4
  endloop
endfacet
facet normal .956940335732202 .290284677254485 0
  outer loop
    vertex -11.0865543901354 91.0545937574321 66
    vertex -11.0865543901354 91.0545937574321 59.4
    vertex -11.7694233648388 93.3057110816197 59.4
  endloop
endfacet
facet normal .881921264348358 .471396736825992 0
  outer loop
    vertex -9.97763534763054 88.979952149578 66
    vertex -9.97763534763054 88.979952149578 59.4
    vertex -11.0865543901354 91.0545937574321 59.4
  endloop
endfacet
facet normal .773010453362729 .634393284163655 0
  outer loop
    vertex -8.48528137423857 87.1615135715747 66
    vertex -8.48528137423857 87.1615135715747 59.4
    vertex -9.97763534763054 88.979952149578 59.4
  endloop
endfacet
facet normal .634393284163653 .773010453362731 0
  outer loop
    vertex -6.66684279623523 85.6691595981827 66
    vertex -6.66684279623523 85.6691595981827 59.4
    vertex -8.48528137423857 87.1615135715747 59.4
  endloop
endfacet
facet normal .471396736826001 .881921264348353 0
  outer loop
    vertex -4.59220118838108 84.5602405556778 66
    vertex -4.59220118838108 84.5602405556778 59.4
    vertex -6.66684279623523 85.6691595981827 59.4
  endloop
endfacet
facet normal .290284677254451 .956940335732212 0
  outer loop
    vertex -2.34108386419354 83.8773715809745 66
    vertex -2.34108386419354 83.8773715809745 59.4
    vertex -4.59220118838108 84.5602405556778 59.4
  endloop
endfacet
facet normal 9.80171403295875E-02 .995184726672194 0
  outer loop
    vertex 7.34788079488412E-16 83.6467949458132 66
    vertex 7.34788079488412E-16 83.6467949458132 59.4
    vertex -2.34108386419354 83.8773715809745 59.4
  endloop
endfacet
facet normal -9.80171403295876E-02 .995184726672194 0
  outer loop
    vertex 2.34108386419354 83.8773715809745 66
    vertex 2.34108386419354 83.8773715809745 59.4
    vertex 7.34788079488412E-16 83.6467949458132 59.4
  endloop
endfacet
facet normal -.290284677254451 .956940335732212 0
  outer loop
    vertex 4.59220118838108 84.5602405556778 66
    vertex 4.59220118838108 84.5602405556778 59.4
    vertex 2.34108386419354 83.8773715809745 59.4
  endloop
endfacet
facet normal -.471396736826001 .881921264348353 0
  outer loop
    vertex 6.66684279623523 85.6691595981827 66
    vertex 6.66684279623523 85.6691595981827 59.4
    vertex 4.59220118838108 84.5602405556778 59.4
  endloop
endfacet
facet normal -.634393284163653 .773010453362731 0
  outer loop
    vertex 8.48528137423857 87.1615135715747 66
    vertex 8.48528137423857 87.1615135715747 59.4
    vertex 6.66684279623523 85.6691595981827 59.4
  endloop
endfacet
facet normal -.773010453362729 .634393284163655 0
  outer loop
    vertex 9.97763534763054 88.979952149578 66
    vertex 9.97763534763054 88.979952149578 59.4
    vertex 8.48528137423857 87.1615135715747 59.4
  endloop
endfacet
facet normal -.881921264348358 .471396736825992 0
  outer loop
    vertex 11.0865543901354 91.0545937574321 66
    vertex 11.0865543901354 91.0545937574321 59.4
    vertex 9.97763534763054 88.979952149578 59.4
  endloop
endfacet
facet normal -.956940335732202 .290284677254485 0
  outer loop
    vertex 11.7694233648388 93.3057110816197 66
    vertex 11.7694233648388 93.3057110816197 59.4
    vertex 11.0865543901354 91.0545937574321 59.4
  endloop
endfacet
facet normal -.995184726672198 9.80171403295477E-02 0
  outer loop
    vertex 12 95.6467949458132 66
    vertex 12 95.6467949458132 59.4
    vertex 11.7694233648388 93.3057110816197 59.4
  endloop
endfacet
facet normal .995184726672198 9.80171403295477E-02 0
  outer loop
    vertex -11.7694233648388 93.3057110816197 66
    vertex -12 95.6467949458132 59.4
    vertex -12 95.6467949458132 66
  endloop
endfacet
facet normal .956940335732202 .290284677254485 0
  outer loop
    vertex -11.0865543901354 91.0545937574321 66
    vertex -11.7694233648388 93.3057110816197 59.4
    vertex -11.7694233648388 93.3057110816197 66
  endloop
endfacet
facet normal .881921264348358 .471396736825992 0
  outer loop
    vertex -9.97763534763054 88.979952149578 66
    vertex -11.0865543901354 91.0545937574321 59.4
    vertex -11.0865543901354 91.0545937574321 66
  endloop
endfacet
facet normal .773010453362729 .634393284163655 0
  outer loop
    vertex -8.48528137423857 87.1615135715747 66
    vertex -9.97763534763054 88.979952149578 59.4
    vertex -9.97763534763054 88.979952149578 66
  endloop
endfacet
facet normal .634393284163653 .773010453362731 0
  outer loop
    vertex -6.66684279623523 85.6691595981827 66
    vertex -8.48528137423857 87.1615135715747 59.4
    vertex -8.48528137423857 87.1615135715747 66
  endloop
endfacet
facet normal .471396736826001 .881921264348353 0
  outer loop
    vertex -4.59220118838108 84.5602405556778 66
    vertex -6.66684279623523 85.6691595981827 59.4
    vertex -6.66684279623523 85.6691595981827 66
  endloop
endfacet
facet normal .290284677254451 .956940335732212 0
  outer loop
    vertex -2.34108386419354 83.8773715809745 66
    vertex -4.59220118838108 84.5602405556778 59.4
    vertex -4.59220118838108 84.5602405556778 66
  endloop
endfacet
facet normal 9.80171403295875E-02 .995184726672194 0
  outer loop
    vertex 7.34788079488412E-16 83.6467949458132 66
    vertex -2.34108386419354 83.8773715809745 59.4
    vertex -2.34108386419354 83.8773715809745 66
  endloop
endfacet
facet normal -9.80171403295876E-02 .995184726672194 0
  outer loop
    vertex 2.34108386419354 83.8773715809745 66
    vertex 7.34788079488412E-16 83.6467949458132 59.4
    vertex 7.34788079488412E-16 83.6467949458132 66
  endloop
endfacet
facet normal -.290284677254451 .956940335732212 0
  outer loop
    vertex 4.59220118838108 84.5602405556778 66
    vertex 2.34108386419354 83.8773715809745 59.4
    vertex 2.34108386419354 83.8773715809745 66
  endloop
endfacet
facet normal -.471396736826001 .881921264348353 0
  outer loop
    vertex 6.66684279623523 85.6691595981827 66
    vertex 4.59220118838108 84.5602405556778 59.4
    vertex 4.59220118838108 84.5602405556778 66
  endloop
endfacet
facet normal -.634393284163653 .773010453362731 0
  outer loop
    vertex 8.48528137423857 87.1615135715747 66
    vertex 6.66684279623523 85.6691595981827 59.4
    vertex 6.66684279623523 85.6691595981827 66
  endloop
endfacet
facet normal -.773010453362729 .634393284163655 0
  outer loop
    vertex 9.97763534763054 88.979952149578 66
    vertex 8.48528137423857 87.1615135715747 59.4
    vertex 8.48528137423857 87.1615135715747 66
  endloop
endfacet
facet normal -.881921264348358 .471396736825992 0
  outer loop
    vertex 11.0865543901354 91.0545937574321 66
    vertex 9.97763534763054 88.979952149578 59.4
    vertex 9.97763534763054 88.979952149578 66
  endloop
endfacet
facet normal -.956940335732202 .290284677254485 0
  outer loop
    vertex 11.7694233648388 93.3057110816197 66
    vertex 11.0865543901354 91.0545937574321 59.4
    vertex 11.0865543901354 91.0545937574321 66
  endloop
endfacet
facet normal -.995184726672198 9.80171403295477E-02 0
  outer loop
    vertex 12 95.6467949458132 66
    vertex 11.7694233648388 93.3057110816197 59.4
    vertex 11.7694233648388 93.3057110816197 66
  endloop
endfacet
facet normal -1 0 0
  outer loop
    vertex 12 95.6467949458132 66
    vertex 12 96.2242201250843 59.4
    vertex 12 95.6467949458132 59.4
  endloop
endfacet
facet normal 0 0 1
  outer loop
    vertex -12 96.2242201250843 59.4
    vertex -12 95.6467949458132 59.4
    vertex 0 96.2242201250843 59.4
  endloop
endfacet
facet normal 0 0 1
  outer loop
    vertex -12 95.6467949458132 59.4
    vertex -11.7694233648388 93.3057110816197 59.4
    vertex 0 96.2242201250843 59.4
  endloop
endfacet
facet normal 0 0 1
  outer loop
    vertex -11.7694233648388 93.3057110816197 59.4
    vertex -11.0865543901354 91.0545937574321 59.4
    vertex 0 96.2242201250843 59.4
  endloop
endfacet
facet normal 0 0 1
  outer loop
    vertex -11.0865543901354 91.0545937574321 59.4
    vertex -9.97763534763054 88.979952149578 59.4
    vertex 0 96.2242201250843 59.4
  endloop
endfacet
facet normal 0 0 1
  outer loop
    vertex -9.97763534763054 88.979952149578 59.4
    vertex -8.48528137423857 87.1615135715747 59.4
    vertex 0 96.2242201250843 59.4
  endloop
endfacet
facet normal 0 0 1
  outer loop
    vertex -8.48528137423857 87.1615135715747 59.4
    vertex -6.66684279623523 85.6691595981827 59.4
    vertex 0 96.2242201250843 59.4
  endloop
endfacet
facet normal 0 0 1
  outer loop
    vertex -6.66684279623523 85.6691595981827 59.4
    vertex -4.59220118838108 84.5602405556778 59.4
    vertex 0 96.2242201250843 59.4
  endloop
endfacet
facet normal 0 0 1
  outer loop
    vertex -4.59220118838108 84.5602405556778 59.4
    vertex -2.34108386419354 83.8773715809745 59.4
    vertex 0 96.2242201250843 59.4
  endloop
endfacet
facet normal 0 0 1
  outer loop
    vertex -2.34108386419354 83.8773715809745 59.4
    vertex 7.34788079488412E-16 83.6467949458132 59.4
    vertex 0 96.2242201250843 59.4
  endloop
endfacet
facet normal 0 0 1
  outer loop
    vertex 7.34788079488412E-16 83.6467949458132 59.4
    vertex 2.34108386419354 83.8773715809745 59.4
    vertex 0 96.2242201250843 59.4
  endloop
endfacet
facet normal 0 0 1
  outer loop
    vertex 2.34108386419354 83.8773715809745 59.4
    vertex 4.59220118838108 84.5602405556778 59.4
    vertex 0 96.2242201250843 59.4
  endloop
endfacet
facet normal 0 0 1
  outer loop
    vertex 4.59220118838108 84.5602405556778 59.4
    vertex 6.66684279623523 85.6691595981827 59.4
    vertex 0 96.2242201250843 59.4
  endloop
endfacet
facet normal 0 0 1
  outer loop
    vertex 6.66684279623523 85.6691595981827 59.4
    vertex 8.48528137423857 87.1615135715747 59.4
    vertex 0 96.2242201250843 59.4
  endloop
endfacet
facet normal 0 0 1
  outer loop
    vertex 8.48528137423857 87.1615135715747 59.4
    vertex 9.97763534763054 88.979952149578 59.4
    vertex 0 96.2242201250843 59.4
  endloop
endfacet
facet normal 0 0 1
  outer loop
    vertex 9.97763534763054 88.979952149578 59.4
    vertex 11.0865543901354 91.0545937574321 59.4
    vertex 0 96.2242201250843 59.4
  endloop
endfacet
facet normal 0 0 1
  outer loop
    vertex 11.0865543901354 91.0545937574321 59.4
    vertex 11.7694233648388 93.3057110816197 59.4
    vertex 0 96.2242201250843 59.4
  endloop
endfacet
facet normal 0 0 1
  outer loop
    vertex 11.7694233648388 93.3057110816197 59.4
    vertex 12 95.6467949458132 59.4
    vertex 0 96.2242201250843 59.4
  endloop
endfacet
facet normal 0 0 1
  outer loop
    vertex 12 95.6467949458132 59.4
    vertex 12 96.2242201250843 59.4
    vertex 0 96.2242201250843 59.4
  endloop
endfacet
facet normal .921118787038766 0 .389281620635026
  outer loop
    vertex 67.0893069330011 95.6467949458132 66
    vertex 78.5 -98 39
    vertex 78.5 98 39
  endloop
endfacet
facet normal 0 -.996223440096614 8.68265938642487E-02
  outer loop
    vertex 67.0893069330011 -95.6467949458132 66
    vertex -78.5 -98 39
    vertex 78.5 -98 39
  endloop
endfacet
facet normal -.921118787038766 0 .389281620635026
  outer loop
    vertex -67.0893069330011 -95.6467949458132 66
    vertex -78.5 98 39
    vertex -78.5 -98 39
  endloop
endfacet
facet normal 1 0 0
  outer loop
    vertex 78.5 98 39
    vertex 78.5 -98 27
    vertex 78.5 98 27
  endloop
endfacet
facet normal 0 -1 0
  outer loop
    vertex 78.5 -98 39
    vertex -78.5 -98 27
    vertex 78.5 -98 27
  endloop
endfacet
facet normal -1 0 0
  outer loop
    vertex -78.5 -98 39
    vertex -78.5 98 27
    vertex -78.5 -98 27
  endloop
endfacet
facet normal .996223440096614 0 -8.68265938642487E-02
  outer loop
    vertex 78.5 98 27
    vertex 76.1467949458132 -95.6467949458132 0
    vertex 76.1467949458132 95.6467949458132 0
  endloop
endfacet
facet normal 0 -.996223440096614 -8.68265938642487E-02
  outer loop
    vertex 78.5 -98 27
    vertex -76.1467949458132 -95.6467949458132 0
    vertex 76.1467949458132 -95.6467949458132 0
  endloop
endfacet
facet normal -.996223440096614 0 -8.68265938642487E-02
  outer loop
    vertex -78.5 -98 27
    vertex -76.1467949458132 95.6467949458132 0
    vertex -76.1467949458132 -95.6467949458132 0
  endloop
endfacet
facet normal .921118787038766 0 .389281620635026
  outer loop
    vertex 67.0893069330011 -95.6467949458132 66
    vertex 78.5 -98 39
    vertex 67.0893069330011 95.6467949458132 66
  endloop
endfacet
facet normal 0 -.996223440096614 8.68265938642487E-02
  outer loop
    vertex -67.0893069330011 -95.6467949458132 66
    vertex -78.5 -98 39
    vertex 67.0893069330011 -95.6467949458132 66
  endloop
endfacet
facet normal -.921118787038766 0 .389281620635026
  outer loop
    vertex -67.0893069330011 95.6467949458132 66
    vertex -78.5 98 39
    vertex -67.0893069330011 -95.6467949458132 66
  endloop
endfacet
facet normal 1 0 0
  outer loop
    vertex 78.5 -98 39
    vertex 78.5 -98 27
    vertex 78.5 98 39
  endloop
endfacet
facet normal 0 -1 0
  outer loop
    vertex -78.5 -98 39
    vertex -78.5 -98 27
    vertex 78.5 -98 39
  endloop
endfacet
facet normal -1 0 0
  outer loop
    vertex -78.5 98 39
    vertex -78.5 98 27
    vertex -78.5 -98 39
  endloop
endfacet
facet normal .996223440096614 0 -8.68265938642487E-02
  outer loop
    vertex 78.5 -98 27
    vertex 76.1467949458132 -95.6467949458132 0
    vertex 78.5 98 27
  endloop
endfacet
facet normal 0 -.996223440096614 -8.68265938642487E-02
  outer loop
    vertex -78.5 -98 27
    vertex -76.1467949458132 -95.6467949458132 0
    vertex 78.5 -98 27
  endloop
endfacet
facet normal -.996223440096614 0 -8.68265938642487E-02
  outer loop
    vertex -78.5 98 27
    vertex -76.1467949458132 95.6467949458132 0
    vertex -78.5 -98 27
  endloop
endfacet
facet normal 0 .996223440096614 -8.68265938642487E-02
  outer loop
    vertex 78.5 98 27
    vertex 76.1467949458132 95.6467949458132 0
    vertex -78.5 98 27
  endloop
endfacet
facet normal 0 .996223440096614 -8.68265938642487E-02
  outer loop
    vertex 76.1467949458132 95.6467949458132 0
    vertex -76.1467949458132 95.6467949458132 0
    vertex -78.5 98 27
  endloop
endfacet
facet normal 0 1 0
  outer loop
    vertex 78.5 98 39
    vertex 78.5 98 27
    vertex -78.5 98 39
  endloop
endfacet
facet normal 0 1 0
  outer loop
    vertex -78.5 98 39
    vertex 78.5 98 27
    vertex -78.5 98 27
  endloop
endfacet
facet normal 0 .996223440096614 8.68265938642487E-02
  outer loop
    vertex 78.5 98 39
    vertex 12 95.6467949458132 66
    vertex 67.0893069330011 95.6467949458132 66
  endloop
endfacet
facet normal 1.34656475218234E-04 .996194689060062 8.71557419574889E-02
  outer loop
    vertex 12 95.6467949458132 66
    vertex 78.5 98 39
    vertex 12 96.2242201250843 59.4
  endloop
endfacet
facet normal 0 .996232716050295 8.67200984262118E-02
  outer loop
    vertex 78.5 98 39
    vertex -12 96.2242201250843 59.4
    vertex 12 96.2242201250843 59.4
  endloop
endfacet
facet normal 0 .996232716050295 8.67200984262118E-02
  outer loop
    vertex 78.5 98 39
    vertex -78.5 98 39
    vertex -12 96.2242201250843 59.4
  endloop
endfacet
facet normal -3.782013425304E-05 .996222056707842 8.68424567733696E-02
  outer loop
    vertex -67.0893069330011 95.6467949458132 66
    vertex -12 96.2242201250843 59.4
    vertex -78.5 98 39
  endloop
endfacet
facet normal 0 .996194698091746 8.71557427476588E-02
  outer loop
    vertex -67.0893069330011 95.6467949458132 66
    vertex -12 95.6467949458132 66
    vertex -12 96.2242201250843 59.4
  endloop
endfacet
facet normal -1 0 0
  outer loop
    vertex -122 84.5 10
    vertex -122 84.5 0
    vertex -122 65.5 0
  endloop
endfacet
facet normal -1 0 0
  outer loop
    vertex -122 84.5 10
    vertex -122 65.5 0
    vertex -122 65.5 10
  endloop
endfacet
facet normal 1 0 0
  outer loop
    vertex -78.5 65.5 38
    vertex -78.5 65.5 28
    vertex -78.5 84.5 28
  endloop
endfacet
facet normal 1 0 0
  outer loop
    vertex -78.5 65.5 38
    vertex -78.5 84.5 28
    vertex -78.5 84.5 38
  endloop
endfacet
facet normal 0 1 0
  outer loop
    vertex -78.5 84.5 28
    vertex -85.3996390436737 84.5 28
    vertex -90.3996390436737 84.5 38
  endloop
endfacet
facet normal 0 1 0
  outer loop
    vertex -85.3996390436737 84.5 28
    vertex -99.3875 84.5 0
    vertex -104.3875 84.5 10
  endloop
endfacet
facet normal 0 1 0
  outer loop
    vertex -99.3875 84.5 0
    vertex -122 84.5 0
    vertex -122 84.5 10
  endloop
endfacet
facet normal 0 1 0
  outer loop
    vertex -78.5 84.5 28
    vertex -90.3996390436737 84.5 38
    vertex -78.5 84.5 38
  endloop
endfacet
facet normal 0 1 0
  outer loop
    vertex -85.3996390436737 84.5 28
    vertex -104.3875 84.5 10
    vertex -90.3996390436737 84.5 38
  endloop
endfacet
facet normal 0 1 0
  outer loop
    vertex -99.3875 84.5 0
    vertex -122 84.5 10
    vertex -104.3875 84.5 10
  endloop
endfacet
facet normal 0 -1 0
  outer loop
    vertex -78.5 65.5 28
    vertex -90.3996390436737 65.5 38
    vertex -85.3996390436737 65.5 28
  endloop
endfacet
facet normal 0 -1 0
  outer loop
    vertex -85.3996390436737 65.5 28
    vertex -104.3875 65.5 10
    vertex -99.3875 65.5 0
  endloop
endfacet
facet normal 0 -1 0
  outer loop
    vertex -99.3875 65.5 0
    vertex -122 65.5 10
    vertex -122 65.5 0
  endloop
endfacet
facet normal 0 -1 0
  outer loop
    vertex -78.5 65.5 28
    vertex -78.5 65.5 38
    vertex -90.3996390436737 65.5 38
  endloop
endfacet
facet normal 0 -1 0
  outer loop
    vertex -85.3996390436737 65.5 28
    vertex -90.3996390436737 65.5 38
    vertex -104.3875 65.5 10
  endloop
endfacet
facet normal 0 -1 0
  outer loop
    vertex -99.3875 65.5 0
    vertex -104.3875 65.5 10
    vertex -122 65.5 10
  endloop
endfacet
facet normal 0 0 1
  outer loop
    vertex -78.5 84.5 38
    vertex -90.3996390436737 84.5 38
    vertex -90.3996390436737 65.5 38
  endloop
endfacet
facet normal -.894582271089214 0 .446903300785376
  outer loop
    vertex -90.3996390436737 84.5 38
    vertex -104.3875 84.5 10
    vertex -104.3875 65.5 10
  endloop
endfacet
facet normal 0 0 1
  outer loop
    vertex -104.3875 84.5 10
    vertex -122 84.5 10
    vertex -122 65.5 10
  endloop
endfacet
facet normal 0 0 1
  outer loop
    vertex -78.5 84.5 38
    vertex -90.3996390436737 65.5 38
    vertex -78.5 65.5 38
  endloop
endfacet
facet normal -.894582271089214 0 .446903300785376
  outer loop
    vertex -90.3996390436737 84.5 38
    vertex -104.3875 65.5 10
    vertex -90.3996390436737 65.5 38
  endloop
endfacet
facet normal 0 0 1
  outer loop
    vertex -104.3875 84.5 10
    vertex -122 65.5 10
    vertex -104.3875 65.5 10
  endloop
endfacet
facet normal 0 0 -1
  outer loop
    vertex -78.5 84.5 28
    vertex -85.3996390436737 65.5 28
    vertex -85.3996390436737 84.5 28
  endloop
endfacet
facet normal .894582271089214 0 -.446903300785376
  outer loop
    vertex -85.3996390436737 84.5 28
    vertex -99.3875 65.5 0
    vertex -99.3875 84.5 0
  endloop
endfacet
facet normal 0 0 -1
  outer loop
    vertex -99.3875 84.5 0
    vertex -122 65.5 0
    vertex -122 84.5 0
  endloop
endfacet
facet normal 0 0 -1
  outer loop
    vertex -78.5 84.5 28
    vertex -78.5 65.5 28
    vertex -85.3996390436737 65.5 28
  endloop
endfacet
facet normal .894582271089214 0 -.446903300785376
  outer loop
    vertex -85.3996390436737 84.5 28
    vertex -85.3996390436737 65.5 28
    vertex -99.3875 65.5 0
  endloop
endfacet
facet normal 0 0 -1
  outer loop
    vertex -99.3875 84.5 0
    vertex -99.3875 65.5 0
    vertex -122 65.5 0
  endloop
endfacet
facet normal -1 0 0
  outer loop
    vertex -122 34.5 10
    vertex -122 34.5 0
    vertex -122 15.5 0
  endloop
endfacet
facet normal -1 0 0
  outer loop
    vertex -122 34.5 10
    vertex -122 15.5 0
    vertex -122 15.5 10
  endloop
endfacet
facet normal 1 0 0
  outer loop
    vertex -78.5 15.5 38
    vertex -78.5 15.5 28
    vertex -78.5 34.5 28
  endloop
endfacet
facet normal 1 0 0
  outer loop
    vertex -78.5 15.5 38
    vertex -78.5 34.5 28
    vertex -78.5 34.5 38
  endloop
endfacet
facet normal 0 1 0
  outer loop
    vertex -78.5 34.5 28
    vertex -85.3996390436737 34.5 28
    vertex -90.3996390436737 34.5 38
  endloop
endfacet
facet normal 0 1 0
  outer loop
    vertex -85.3996390436737 34.5 28
    vertex -99.3875 34.5 0
    vertex -104.3875 34.5 10
  endloop
endfacet
facet normal 0 1 0
  outer loop
    vertex -99.3875 34.5 0
    vertex -122 34.5 0
    vertex -122 34.5 10
  endloop
endfacet
facet normal 0 1 0
  outer loop
    vertex -78.5 34.5 28
    vertex -90.3996390436737 34.5 38
    vertex -78.5 34.5 38
  endloop
endfacet
facet normal 0 1 0
  outer loop
    vertex -85.3996390436737 34.5 28
    vertex -104.3875 34.5 10
    vertex -90.3996390436737 34.5 38
  endloop
endfacet
facet normal 0 1 0
  outer loop
    vertex -99.3875 34.5 0
    vertex -122 34.5 10
    vertex -104.3875 34.5 10
  endloop
endfacet
facet normal 0 -1 0
  outer loop
    vertex -78.5 15.5 28
    vertex -90.3996390436737 15.5 38
    vertex -85.3996390436737 15.5 28
  endloop
endfacet
facet normal 0 -1 0
  outer loop
    vertex -85.3996390436737 15.5 28
    vertex -104.3875 15.5 10
    vertex -99.3875 15.5 0
  endloop
endfacet
facet normal 0 -1 0
  outer loop
    vertex -99.3875 15.5 0
    vertex -122 15.5 10
    vertex -122 15.5 0
  endloop
endfacet
facet normal 0 -1 0
  outer loop
    vertex -78.5 15.5 28
    vertex -78.5 15.5 38
    vertex -90.3996390436737 15.5 38
  endloop
endfacet
facet normal 0 -1 0
  outer loop
    vertex -85.3996390436737 15.5 28
    vertex -90.3996390436737 15.5 38
    vertex -104.3875 15.5 10
  endloop
endfacet
facet normal 0 -1 0
  outer loop
    vertex -99.3875 15.5 0
    vertex -104.3875 15.5 10
    vertex -122 15.5 10
  endloop
endfacet
facet normal 0 0 1
  outer loop
    vertex -78.5 34.5 38
    vertex -90.3996390436737 34.5 38
    vertex -90.3996390436737 15.5 38
  endloop
endfacet
facet normal -.894582271089214 0 .446903300785376
  outer loop
    vertex -90.3996390436737 34.5 38
    vertex -104.3875 34.5 10
    vertex -104.3875 15.5 10
  endloop
endfacet
facet normal 0 0 1
  outer loop
    vertex -104.3875 34.5 10
    vertex -122 34.5 10
    vertex -122 15.5 10
  endloop
endfacet
facet normal 0 0 1
  outer loop
    vertex -78.5 34.5 38
    vertex -90.3996390436737 15.5 38
    vertex -78.5 15.5 38
  endloop
endfacet
facet normal -.894582271089214 0 .446903300785376
  outer loop
    vertex -90.3996390436737 34.5 38
    vertex -104.3875 15.5 10
    vertex -90.3996390436737 15.5 38
  endloop
endfacet
facet normal 0 0 1
  outer loop
    vertex -104.3875 34.5 10
    vertex -122 15.5 10
    vertex -104.3875 15.5 10
  endloop
endfacet
facet normal 0 0 -1
  outer loop
    vertex -78.5 34.5 28
    vertex -85.3996390436737 15.5 28
    vertex -85.3996390436737 34.5 28
  endloop
endfacet
facet normal .894582271089214 0 -.446903300785376
  outer loop
    vertex -85.3996390436737 34.5 28
    vertex -99.3875 15.5 0
    vertex -99.3875 34.5 0
  endloop
endfacet
facet normal 0 0 -1
  outer loop
    vertex -99.3875 34.5 0
    vertex -122 15.5 0
    vertex -122 34.5 0
  endloop
endfacet
facet normal 0 0 -1
  outer loop
    vertex -78.5 34.5 28
    vertex -78.5 15.5 28
    vertex -85.3996390436737 15.5 28
  endloop
endfacet
facet normal .894582271089214 0 -.446903300785376
  outer loop
    vertex -85.3996390436737 34.5 28
    vertex -85.3996390436737 15.5 28
    vertex -99.3875 15.5 0
  endloop
endfacet
facet normal 0 0 -1
  outer loop
    vertex -99.3875 34.5 0
    vertex -99.3875 15.5 0
    vertex -122 15.5 0
  endloop
endfacet
facet normal -1 0 0
  outer loop
    vertex -122 -15.5 10
    vertex -122 -15.5 0
    vertex -122 -34.5 0
  endloop
endfacet
facet normal -1 0 0
  outer loop
    vertex -122 -15.5 10
    vertex -122 -34.5 0
    vertex -122 -34.5 10
  endloop
endfacet
facet normal 1 0 0
  outer loop
    vertex -78.5 -34.5 38
    vertex -78.5 -34.5 28
    vertex -78.5 -15.5 28
  endloop
endfacet
facet normal 1 0 0
  outer loop
    vertex -78.5 -34.5 38
    vertex -78.5 -15.5 28
    vertex -78.5 -15.5 38
  endloop
endfacet
facet normal 0 1 0
  outer loop
    vertex -78.5 -15.5 28
    vertex -85.3996390436737 -15.5 28
    vertex -90.3996390436737 -15.5 38
  endloop
endfacet
facet normal 0 1 0
  outer loop
    vertex -85.3996390436737 -15.5 28
    vertex -99.3875 -15.5 0
    vertex -104.3875 -15.5 10
  endloop
endfacet
facet normal 0 1 0
  outer loop
    vertex -99.3875 -15.5 0
    vertex -122 -15.5 0
    vertex -122 -15.5 10
  endloop
endfacet
facet normal 0 1 0
  outer loop
    vertex -78.5 -15.5 28
    vertex -90.3996390436737 -15.5 38
    vertex -78.5 -15.5 38
  endloop
endfacet
facet normal 0 1 0
  outer loop
    vertex -85.3996390436737 -15.5 28
    vertex -104.3875 -15.5 10
    vertex -90.3996390436737 -15.5 38
  endloop
endfacet
facet normal 0 1 0
  outer loop
    vertex -99.3875 -15.5 0
    vertex -122 -15.5 10
    vertex -104.3875 -15.5 10
  endloop
endfacet
facet normal 0 -1 0
  outer loop
    vertex -78.5 -34.5 28
    vertex -90.3996390436737 -34.5 38
    vertex -85.3996390436737 -34.5 28
  endloop
endfacet
facet normal 0 -1 0
  outer loop
    vertex -85.3996390436737 -34.5 28
    vertex -104.3875 -34.5 10
    vertex -99.3875 -34.5 0
  endloop
endfacet
facet normal 0 -1 0
  outer loop
    vertex -99.3875 -34.5 0
    vertex -122 -34.5 10
    vertex -122 -34.5 0
  endloop
endfacet
facet normal 0 -1 0
  outer loop
    vertex -78.5 -34.5 28
    vertex -78.5 -34.5 38
    vertex -90.3996390436737 -34.5 38
  endloop
endfacet
facet normal 0 -1 0
  outer loop
    vertex -85.3996390436737 -34.5 28
    vertex -90.3996390436737 -34.5 38
    vertex -104.3875 -34.5 10
  endloop
endfacet
facet normal 0 -1 0
  outer loop
    vertex -99.3875 -34.5 0
    vertex -104.3875 -34.5 10
    vertex -122 -34.5 10
  endloop
endfacet
facet normal 0 0 1
  outer loop
    vertex -78.5 -15.5 38
    vertex -90.3996390436737 -15.5 38
    vertex -90.3996390436737 -34.5 38
  endloop
endfacet
facet normal -.894582271089214 0 .446903300785376
  outer loop
    vertex -90.3996390436737 -15.5 38
    vertex -104.3875 -15.5 10
    vertex -104.3875 -34.5 10
  endloop
endfacet
facet normal 0 0 1
  outer loop
    vertex -104.3875 -15.5 10
    vertex -122 -15.5 10
    vertex -122 -34.5 10
  endloop
endfacet
facet normal 0 0 1
  outer loop
    vertex -78.5 -15.5 38
    vertex -90.3996390436737 -34.5 38
    vertex -78.5 -34.5 38
  endloop
endfacet
facet normal -.894582271089214 0 .446903300785376
  outer loop
    vertex -90.3996390436737 -15.5 38
    vertex -104.3875 -34.5 10
    vertex -90.3996390436737 -34.5 38
  endloop
endfacet
facet normal 0 0 1
  outer loop
    vertex -104.3875 -15.5 10
    vertex -122 -34.5 10
    vertex -104.3875 -34.5 10
  endloop
endfacet
facet normal 0 0 -1
  outer loop
    vertex -78.5 -15.5 28
    vertex -85.3996390436737 -34.5 28
    vertex -85.3996390436737 -15.5 28
  endloop
endfacet
facet normal .894582271089214 0 -.446903300785376
  outer loop
    vertex -85.3996390436737 -15.5 28
    vertex -99.3875 -34.5 0
    vertex -99.3875 -15.5 0
  endloop
endfacet
facet normal 0 0 -1
  outer loop
    vertex -99.3875 -15.5 0
    vertex -122 -34.5 0
    vertex -122 -15.5 0
  endloop
endfacet
facet normal 0 0 -1
  outer loop
    vertex -78.5 -15.5 28
    vertex -78.5 -34.5 28
    vertex -85.3996390436737 -34.5 28
  endloop
endfacet
facet normal .894582271089214 0 -.446903300785376
  outer loop
    vertex -85.3996390436737 -15.5 28
    vertex -85.3996390436737 -34.5 28
    vertex -99.3875 -34.5 0
  endloop
endfacet
facet normal 0 0 -1
  outer loop
    vertex -99.3875 -15.5 0
    vertex -99.3875 -34.5 0
    vertex -122 -34.5 0
  endloop
endfacet
facet normal -1 0 0
  outer loop
    vertex -122 -65.5 10
    vertex -122 -65.5 0
    vertex -122 -84.5 0
  endloop
endfacet
facet normal -1 0 0
  outer loop
    vertex -122 -65.5 10
    vertex -122 -84.5 0
    vertex -122 -84.5 10
  endloop
endfacet
facet normal 1 0 0
  outer loop
    vertex -78.5 -84.5 38
    vertex -78.5 -84.5 28
    vertex -78.5 -65.5 28
  endloop
endfacet
facet normal 1 0 0
  outer loop
    vertex -78.5 -84.5 38
    vertex -78.5 -65.5 28
    vertex -78.5 -65.5 38
  endloop
endfacet
facet normal 0 1 0
  outer loop
    vertex -78.5 -65.5 28
    vertex -85.3996390436737 -65.5 28
    vertex -90.3996390436737 -65.5 38
  endloop
endfacet
facet normal 0 1 0
  outer loop
    vertex -85.3996390436737 -65.5 28
    vertex -99.3875 -65.5 0
    vertex -104.3875 -65.5 10
  endloop
endfacet
facet normal 0 1 0
  outer loop
    vertex -99.3875 -65.5 0
    vertex -122 -65.5 0
    vertex -122 -65.5 10
  endloop
endfacet
facet normal 0 1 0
  outer loop
    vertex -78.5 -65.5 28
    vertex -90.3996390436737 -65.5 38
    vertex -78.5 -65.5 38
  endloop
endfacet
facet normal 0 1 0
  outer loop
    vertex -85.3996390436737 -65.5 28
    vertex -104.3875 -65.5 10
    vertex -90.3996390436737 -65.5 38
  endloop
endfacet
facet normal 0 1 0
  outer loop
    vertex -99.3875 -65.5 0
    vertex -122 -65.5 10
    vertex -104.3875 -65.5 10
  endloop
endfacet
facet normal 0 -1 0
  outer loop
    vertex -78.5 -84.5 28
    vertex -90.3996390436737 -84.5 38
    vertex -85.3996390436737 -84.5 28
  endloop
endfacet
facet normal 0 -1 0
  outer loop
    vertex -85.3996390436737 -84.5 28
    vertex -104.3875 -84.5 10
    vertex -99.3875 -84.5 0
  endloop
endfacet
facet normal 0 -1 0
  outer loop
    vertex -99.3875 -84.5 0
    vertex -122 -84.5 10
    vertex -122 -84.5 0
  endloop
endfacet
facet normal 0 -1 0
  outer loop
    vertex -78.5 -84.5 28
    vertex -78.5 -84.5 38
    vertex -90.3996390436737 -84.5 38
  endloop
endfacet
facet normal 0 -1 0
  outer loop
    vertex -85.3996390436737 -84.5 28
    vertex -90.3996390436737 -84.5 38
    vertex -104.3875 -84.5 10
  endloop
endfacet
facet normal 0 -1 0
  outer loop
    vertex -99.3875 -84.5 0
    vertex -104.3875 -84.5 10
    vertex -122 -84.5 10
  endloop
endfacet
facet normal 0 0 1
  outer loop
    vertex -78.5 -65.5 38
    vertex -90.3996390436737 -65.5 38
    vertex -90.3996390436737 -84.5 38
  endloop
endfacet
facet normal -.894582271089214 0 .446903300785376
  outer loop
    vertex -90.3996390436737 -65.5 38
    vertex -104.3875 -65.5 10
    vertex -104.3875 -84.5 10
  endloop
endfacet
facet normal 0 0 1
  outer loop
    vertex -104.3875 -65.5 10
    vertex -122 -65.5 10
    vertex -122 -84.5 10
  endloop
endfacet
facet normal 0 0 1
  outer loop
    vertex -78.5 -65.5 38
    vertex -90.3996390436737 -84.5 38
    vertex -78.5 -84.5 38
  endloop
endfacet
facet normal -.894582271089214 0 .446903300785376
  outer loop
    vertex -90.3996390436737 -65.5 38
    vertex -104.3875 -84.5 10
    vertex -90.3996390436737 -84.5 38
  endloop
endfacet
facet normal 0 0 1
  outer loop
    vertex -104.3875 -65.5 10
    vertex -122 -84.5 10
    vertex -104.3875 -84.5 10
  endloop
endfacet
facet normal 0 0 -1
  outer loop
    vertex -78.5 -65.5 28
    vertex -85.3996390436737 -84.5 28
    vertex -85.3996390436737 -65.5 28
  endloop
endfacet
facet normal .894582271089214 0 -.446903300785376
  outer loop
    vertex -85.3996390436737 -65.5 28
    vertex -99.3875 -84.5 0
    vertex -99.3875 -65.5 0
  endloop
endfacet
facet normal 0 0 -1
  outer loop
    vertex -99.3875 -65.5 0
    vertex -122 -84.5 0
    vertex -122 -65.5 0
  endloop
endfacet
facet normal 0 0 -1
  outer loop
    vertex -78.5 -65.5 28
    vertex -78.5 -84.5 28
    vertex -85.3996390436737 -84.5 28
  endloop
endfacet
facet normal .894582271089214 0 -.446903300785376
  outer loop
    vertex -85.3996390436737 -65.5 28
    vertex -85.3996390436737 -84.5 28
    vertex -99.3875 -84.5 0
  endloop
endfacet
facet normal 0 0 -1
  outer loop
    vertex -99.3875 -65.5 0
    vertex -99.3875 -84.5 0
    vertex -122 -84.5 0
  endloop
endfacet
facet normal 1 0 0
  outer loop
    vertex 122 -84.5 10
    vertex 122 -84.5 0
    vertex 122 -65.5 0
  endloop
endfacet
facet normal 1 0 0
  outer loop
    vertex 122 -84.5 10
    vertex 122 -65.5 0
    vertex 122 -65.5 10
  endloop
endfacet
facet normal -1 0 0
  outer loop
    vertex 78.5 -65.5 38
    vertex 78.5 -65.5 28
    vertex 78.5 -84.5 28
  endloop
endfacet
facet normal -1 0 0
  outer loop
    vertex 78.5 -65.5 38
    vertex 78.5 -84.5 28
    vertex 78.5 -84.5 38
  endloop
endfacet
facet normal 0 -1 0
  outer loop
    vertex 78.5 -84.5 28
    vertex 85.3996390436737 -84.5 28
    vertex 90.3996390436737 -84.5 38
  endloop
endfacet
facet normal 0 -1 0
  outer loop
    vertex 85.3996390436737 -84.5 28
    vertex 99.3875 -84.5 0
    vertex 104.3875 -84.5 10
  endloop
endfacet
facet normal 0 -1 0
  outer loop
    vertex 99.3875 -84.5 0
    vertex 122 -84.5 0
    vertex 122 -84.5 10
  endloop
endfacet
facet normal 0 -1 0
  outer loop
    vertex 78.5 -84.5 28
    vertex 90.3996390436737 -84.5 38
    vertex 78.5 -84.5 38
  endloop
endfacet
facet normal 0 -1 0
  outer loop
    vertex 85.3996390436737 -84.5 28
    vertex 104.3875 -84.5 10
    vertex 90.3996390436737 -84.5 38
  endloop
endfacet
facet normal 0 -1 0
  outer loop
    vertex 99.3875 -84.5 0
    vertex 122 -84.5 10
    vertex 104.3875 -84.5 10
  endloop
endfacet
facet normal 0 1 0
  outer loop
    vertex 78.5 -65.5 28
    vertex 90.3996390436737 -65.5 38
    vertex 85.3996390436737 -65.5 28
  endloop
endfacet
facet normal 0 1 0
  outer loop
    vertex 85.3996390436737 -65.5 28
    vertex 104.3875 -65.5 10
    vertex 99.3875 -65.5 0
  endloop
endfacet
facet normal 0 1 0
  outer loop
    vertex 99.3875 -65.5 0
    vertex 122 -65.5 10
    vertex 122 -65.5 0
  endloop
endfacet
facet normal 0 1 0
  outer loop
    vertex 78.5 -65.5 28
    vertex 78.5 -65.5 38
    vertex 90.3996390436737 -65.5 38
  endloop
endfacet
facet normal 0 1 0
  outer loop
    vertex 85.3996390436737 -65.5 28
    vertex 90.3996390436737 -65.5 38
    vertex 104.3875 -65.5 10
  endloop
endfacet
facet normal 0 1 0
  outer loop
    vertex 99.3875 -65.5 0
    vertex 104.3875 -65.5 10
    vertex 122 -65.5 10
  endloop
endfacet
facet normal 0 0 1
  outer loop
    vertex 78.5 -84.5 38
    vertex 90.3996390436737 -84.5 38
    vertex 90.3996390436737 -65.5 38
  endloop
endfacet
facet normal .894582271089214 0 .446903300785376
  outer loop
    vertex 90.3996390436737 -84.5 38
    vertex 104.3875 -84.5 10
    vertex 104.3875 -65.5 10
  endloop
endfacet
facet normal 0 0 1
  outer loop
    vertex 104.3875 -84.5 10
    vertex 122 -84.5 10
    vertex 122 -65.5 10
  endloop
endfacet
facet normal 0 0 1
  outer loop
    vertex 78.5 -84.5 38
    vertex 90.3996390436737 -65.5 38
    vertex 78.5 -65.5 38
  endloop
endfacet
facet normal .894582271089214 0 .446903300785376
  outer loop
    vertex 90.3996390436737 -84.5 38
    vertex 104.3875 -65.5 10
    vertex 90.3996390436737 -65.5 38
  endloop
endfacet
facet normal 0 0 1
  outer loop
    vertex 104.3875 -84.5 10
    vertex 122 -65.5 10
    vertex 104.3875 -65.5 10
  endloop
endfacet
facet normal 0 0 -1
  outer loop
    vertex 78.5 -84.5 28
    vertex 85.3996390436737 -65.5 28
    vertex 85.3996390436737 -84.5 28
  endloop
endfacet
facet normal -.894582271089214 0 -.446903300785376
  outer loop
    vertex 85.3996390436737 -84.5 28
    vertex 99.3875 -65.5 0
    vertex 99.3875 -84.5 0
  endloop
endfacet
facet normal 0 0 -1
  outer loop
    vertex 99.3875 -84.5 0
    vertex 122 -65.5 0
    vertex 122 -84.5 0
  endloop
endfacet
facet normal 0 0 -1
  outer loop
    vertex 78.5 -84.5 28
    vertex 78.5 -65.5 28
    vertex 85.3996390436737 -65.5 28
  endloop
endfacet
facet normal -.894582271089214 0 -.446903300785376
  outer loop
    vertex 85.3996390436737 -84.5 28
    vertex 85.3996390436737 -65.5 28
    vertex 99.3875 -65.5 0
  endloop
endfacet
facet normal 0 0 -1
  outer loop
    vertex 99.3875 -84.5 0
    vertex 99.3875 -65.5 0
    vertex 122 -65.5 0
  endloop
endfacet
facet normal 1 0 0
  outer loop
    vertex 122 -34.5 10
    vertex 122 -34.5 0
    vertex 122 -15.5 0
  endloop
endfacet
facet normal 1 0 0
  outer loop
    vertex 122 -34.5 10
    vertex 122 -15.5 0
    vertex 122 -15.5 10
  endloop
endfacet
facet normal -1 0 0
  outer loop
    vertex 78.5 -15.5 38
    vertex 78.5 -15.5 28
    vertex 78.5 -34.5 28
  endloop
endfacet
facet normal -1 0 0
  outer loop
    vertex 78.5 -15.5 38
    vertex 78.5 -34.5 28
    vertex 78.5 -34.5 38
  endloop
endfacet
facet normal 0 -1 0
  outer loop
    vertex 78.5 -34.5 28
    vertex 85.3996390436737 -34.5 28
    vertex 90.3996390436737 -34.5 38
  endloop
endfacet
facet normal 0 -1 0
  outer loop
    vertex 85.3996390436737 -34.5 28
    vertex 99.3875 -34.5 0
    vertex 104.3875 -34.5 10
  endloop
endfacet
facet normal 0 -1 0
  outer loop
    vertex 99.3875 -34.5 0
    vertex 122 -34.5 0
    vertex 122 -34.5 10
  endloop
endfacet
facet normal 0 -1 0
  outer loop
    vertex 78.5 -34.5 28
    vertex 90.3996390436737 -34.5 38
    vertex 78.5 -34.5 38
  endloop
endfacet
facet normal 0 -1 0
  outer loop
    vertex 85.3996390436737 -34.5 28
    vertex 104.3875 -34.5 10
    vertex 90.3996390436737 -34.5 38
  endloop
endfacet
facet normal 0 -1 0
  outer loop
    vertex 99.3875 -34.5 0
    vertex 122 -34.5 10
    vertex 104.3875 -34.5 10
  endloop
endfacet
facet normal 0 1 0
  outer loop
    vertex 78.5 -15.5 28
    vertex 90.3996390436737 -15.5 38
    vertex 85.3996390436737 -15.5 28
  endloop
endfacet
facet normal 0 1 0
  outer loop
    vertex 85.3996390436737 -15.5 28
    vertex 104.3875 -15.5 10
    vertex 99.3875 -15.5 0
  endloop
endfacet
facet normal 0 1 0
  outer loop
    vertex 99.3875 -15.5 0
    vertex 122 -15.5 10
    vertex 122 -15.5 0
  endloop
endfacet
facet normal 0 1 0
  outer loop
    vertex 78.5 -15.5 28
    vertex 78.5 -15.5 38
    vertex 90.3996390436737 -15.5 38
  endloop
endfacet
facet normal 0 1 0
  outer loop
    vertex 85.3996390436737 -15.5 28
    vertex 90.3996390436737 -15.5 38
    vertex 104.3875 -15.5 10
  endloop
endfacet
facet normal 0 1 0
  outer loop
    vertex 99.3875 -15.5 0
    vertex 104.3875 -15.5 10
    vertex 122 -15.5 10
  endloop
endfacet
facet normal 0 0 1
  outer loop
    vertex 78.5 -34.5 38
    vertex 90.3996390436737 -34.5 38
    vertex 90.3996390436737 -15.5 38
  endloop
endfacet
facet normal .894582271089214 0 .446903300785376
  outer loop
    vertex 90.3996390436737 -34.5 38
    vertex 104.3875 -34.5 10
    vertex 104.3875 -15.5 10
  endloop
endfacet
facet normal 0 0 1
  outer loop
    vertex 104.3875 -34.5 10
    vertex 122 -34.5 10
    vertex 122 -15.5 10
  endloop
endfacet
facet normal 0 0 1
  outer loop
    vertex 78.5 -34.5 38
    vertex 90.3996390436737 -15.5 38
    vertex 78.5 -15.5 38
  endloop
endfacet
facet normal .894582271089214 0 .446903300785376
  outer loop
    vertex 90.3996390436737 -34.5 38
    vertex 104.3875 -15.5 10
    vertex 90.3996390436737 -15.5 38
  endloop
endfacet
facet normal 0 0 1
  outer loop
    vertex 104.3875 -34.5 10
    vertex 122 -15.5 10
    vertex 104.3875 -15.5 10
  endloop
endfacet
facet normal 0 0 -1
  outer loop
    vertex 78.5 -34.5 28
    vertex 85.3996390436737 -15.5 28
    vertex 85.3996390436737 -34.5 28
  endloop
endfacet
facet normal -.894582271089214 0 -.446903300785376
  outer loop
    vertex 85.3996390436737 -34.5 28
    vertex 99.3875 -15.5 0
    vertex 99.3875 -34.5 0
  endloop
endfacet
facet normal 0 0 -1
  outer loop
    vertex 99.3875 -34.5 0
    vertex 122 -15.5 0
    vertex 122 -34.5 0
  endloop
endfacet
facet normal 0 0 -1
  outer loop
    vertex 78.5 -34.5 28
    vertex 78.5 -15.5 28
    vertex 85.3996390436737 -15.5 28
  endloop
endfacet
facet normal -.894582271089214 0 -.446903300785376
  outer loop
    vertex 85.3996390436737 -34.5 28
    vertex 85.3996390436737 -15.5 28
    vertex 99.3875 -15.5 0
  endloop
endfacet
facet normal 0 0 -1
  outer loop
    vertex 99.3875 -34.5 0
    vertex 99.3875 -15.5 0
    vertex 122 -15.5 0
  endloop
endfacet
facet normal 1 0 0
  outer loop
    vertex 122 15.5 10
    vertex 122 15.5 0
    vertex 122 34.5 0
  endloop
endfacet
facet normal 1 0 0
  outer loop
    vertex 122 15.5 10
    vertex 122 34.5 0
    vertex 122 34.5 10
  endloop
endfacet
facet normal -1 0 0
  outer loop
    vertex 78.5 34.5 38
    vertex 78.5 34.5 28
    vertex 78.5 15.5 28
  endloop
endfacet
facet normal -1 0 0
  outer loop
    vertex 78.5 34.5 38
    vertex 78.5 15.5 28
    vertex 78.5 15.5 38
  endloop
endfacet
facet normal 0 -1 0
  outer loop
    vertex 78.5 15.5 28
    vertex 85.3996390436737 15.5 28
    vertex 90.3996390436737 15.5 38
  endloop
endfacet
facet normal 0 -1 0
  outer loop
    vertex 85.3996390436737 15.5 28
    vertex 99.3875 15.5 0
    vertex 104.3875 15.5 10
  endloop
endfacet
facet normal 0 -1 0
  outer loop
    vertex 99.3875 15.5 0
    vertex 122 15.5 0
    vertex 122 15.5 10
  endloop
endfacet
facet normal 0 -1 0
  outer loop
    vertex 78.5 15.5 28
    vertex 90.3996390436737 15.5 38
    vertex 78.5 15.5 38
  endloop
endfacet
facet normal 0 -1 0
  outer loop
    vertex 85.3996390436737 15.5 28
    vertex 104.3875 15.5 10
    vertex 90.3996390436737 15.5 38
  endloop
endfacet
facet normal 0 -1 0
  outer loop
    vertex 99.3875 15.5 0
    vertex 122 15.5 10
    vertex 104.3875 15.5 10
  endloop
endfacet
facet normal 0 1 0
  outer loop
    vertex 78.5 34.5 28
    vertex 90.3996390436737 34.5 38
    vertex 85.3996390436737 34.5 28
  endloop
endfacet
facet normal 0 1 0
  outer loop
    vertex 85.3996390436737 34.5 28
    vertex 104.3875 34.5 10
    vertex 99.3875 34.5 0
  endloop
endfacet
facet normal 0 1 0
  outer loop
    vertex 99.3875 34.5 0
    vertex 122 34.5 10
    vertex 122 34.5 0
  endloop
endfacet
facet normal 0 1 0
  outer loop
    vertex 78.5 34.5 28
    vertex 78.5 34.5 38
    vertex 90.3996390436737 34.5 38
  endloop
endfacet
facet normal 0 1 0
  outer loop
    vertex 85.3996390436737 34.5 28
    vertex 90.3996390436737 34.5 38
    vertex 104.3875 34.5 10
  endloop
endfacet
facet normal 0 1 0
  outer loop
    vertex 99.3875 34.5 0
    vertex 104.3875 34.5 10
    vertex 122 34.5 10
  endloop
endfacet
facet normal 0 0 1
  outer loop
    vertex 78.5 15.5 38
    vertex 90.3996390436737 15.5 38
    vertex 90.3996390436737 34.5 38
  endloop
endfacet
facet normal .894582271089214 0 .446903300785376
  outer loop
    vertex 90.3996390436737 15.5 38
    vertex 104.3875 15.5 10
    vertex 104.3875 34.5 10
  endloop
endfacet
facet normal 0 0 1
  outer loop
    vertex 104.3875 15.5 10
    vertex 122 15.5 10
    vertex 122 34.5 10
  endloop
endfacet
facet normal 0 0 1
  outer loop
    vertex 78.5 15.5 38
    vertex 90.3996390436737 34.5 38
    vertex 78.5 34.5 38
  endloop
endfacet
facet normal .894582271089214 0 .446903300785376
  outer loop
    vertex 90.3996390436737 15.5 38
    vertex 104.3875 34.5 10
    vertex 90.3996390436737 34.5 38
  endloop
endfacet
facet normal 0 0 1
  outer loop
    vertex 104.3875 15.5 10
    vertex 122 34.5 10
    vertex 104.3875 34.5 10
  endloop
endfacet
facet normal 0 0 -1
  outer loop
    vertex 78.5 15.5 28
    vertex 85.3996390436737 34.5 28
    vertex 85.3996390436737 15.5 28
  endloop
endfacet
facet normal -.894582271089214 0 -.446903300785376
  outer loop
    vertex 85.3996390436737 15.5 28
    vertex 99.3875 34.5 0
    vertex 99.3875 15.5 0
  endloop
endfacet
facet normal 0 0 -1
  outer loop
    vertex 99.3875 15.5 0
    vertex 122 34.5 0
    vertex 122 15.5 0
  endloop
endfacet
facet normal 0 0 -1
  outer loop
    vertex 78.5 15.5 28
    vertex 78.5 34.5 28
    vertex 85.3996390436737 34.5 28
  endloop
endfacet
facet normal -.894582271089214 0 -.446903300785376
  outer loop
    vertex 85.3996390436737 15.5 28
    vertex 85.3996390436737 34.5 28
    vertex 99.3875 34.5 0
  endloop
endfacet
facet normal 0 0 -1
  outer loop
    vertex 99.3875 15.5 0
    vertex 99.3875 34.5 0
    vertex 122 34.5 0
  endloop
endfacet
facet normal 1 0 0
  outer loop
    vertex 122 65.5 10
    vertex 122 65.5 0
    vertex 122 84.5 0
  endloop
endfacet
facet normal 1 0 0
  outer loop
    vertex 122 65.5 10
    vertex 122 84.5 0
    vertex 122 84.5 10
  endloop
endfacet
facet normal -1 0 0
  outer loop
    vertex 78.5 84.5 38
    vertex 78.5 84.5 28
    vertex 78.5 65.5 28
  endloop
endfacet
facet normal -1 0 0
  outer loop
    vertex 78.5 84.5 38
    vertex 78.5 65.5 28
    vertex 78.5 65.5 38
  endloop
endfacet
facet normal 0 -1 0
  outer loop
    vertex 78.5 65.5 28
    vertex 85.3996390436737 65.5 28
    vertex 90.3996390436737 65.5 38
  endloop
endfacet
facet normal 0 -1 0
  outer loop
    vertex 85.3996390436737 65.5 28
    vertex 99.3875 65.5 0
    vertex 104.3875 65.5 10
  endloop
endfacet
facet normal 0 -1 0
  outer loop
    vertex 99.3875 65.5 0
    vertex 122 65.5 0
    vertex 122 65.5 10
  endloop
endfacet
facet normal 0 -1 0
  outer loop
    vertex 78.5 65.5 28
    vertex 90.3996390436737 65.5 38
    vertex 78.5 65.5 38
  endloop
endfacet
facet normal 0 -1 0
  outer loop
    vertex 85.3996390436737 65.5 28
    vertex 104.3875 65.5 10
    vertex 90.3996390436737 65.5 38
  endloop
endfacet
facet normal 0 -1 0
  outer loop
    vertex 99.3875 65.5 0
    vertex 122 65.5 10
    vertex 104.3875 65.5 10
  endloop
endfacet
facet normal 0 1 0
  outer loop
    vertex 78.5 84.5 28
    vertex 90.3996390436737 84.5 38
    vertex 85.3996390436737 84.5 28
  endloop
endfacet
facet normal 0 1 0
  outer loop
    vertex 85.3996390436737 84.5 28
    vertex 104.3875 84.5 10
    vertex 99.3875 84.5 0
  endloop
endfacet
facet normal 0 1 0
  outer loop
    vertex 99.3875 84.5 0
    vertex 122 84.5 10
    vertex 122 84.5 0
  endloop
endfacet
facet normal 0 1 0
  outer loop
    vertex 78.5 84.5 28
    vertex 78.5 84.5 38
    vertex 90.3996390436737 84.5 38
  endloop
endfacet
facet normal 0 1 0
  outer loop
    vertex 85.3996390436737 84.5 28
    vertex 90.3996390436737 84.5 38
    vertex 104.3875 84.5 10
  endloop
endfacet
facet normal 0 1 0
  outer loop
    vertex 99.3875 84.5 0
    vertex 104.3875 84.5 10
    vertex 122 84.5 10
  endloop
endfacet
facet normal 0 0 1
  outer loop
    vertex 78.5 65.5 38
    vertex 90.3996390436737 65.5 38
    vertex 90.3996390436737 84.5 38
  endloop
endfacet
facet normal .894582271089214 0 .446903300785376
  outer loop
    vertex 90.3996390436737 65.5 38
    vertex 104.3875 65.5 10
    vertex 104.3875 84.5 10
  endloop
endfacet
facet normal 0 0 1
  outer loop
    vertex 104.3875 65.5 10
    vertex 122 65.5 10
    vertex 122 84.5 10
  endloop
endfacet
facet normal 0 0 1
  outer loop
    vertex 78.5 65.5 38
    vertex 90.3996390436737 84.5 38
    vertex 78.5 84.5 38
  endloop
endfacet
facet normal .894582271089214 0 .446903300785376
  outer loop
    vertex 90.3996390436737 65.5 38
    vertex 104.3875 84.5 10
    vertex 90.3996390436737 84.5 38
  endloop
endfacet
facet normal 0 0 1
  outer loop
    vertex 104.3875 65.5 10
    vertex 122 84.5 10
    vertex 104.3875 84.5 10
  endloop
endfacet
facet normal 0 0 -1
  outer loop
    vertex 78.5 65.5 28
    vertex 85.3996390436737 84.5 28
    vertex 85.3996390436737 65.5 28
  endloop
endfacet
facet normal -.894582271089214 0 -.446903300785376
  outer loop
    vertex 85.3996390436737 65.5 28
    vertex 99.3875 84.5 0
    vertex 99.3875 65.5 0
  endloop
endfacet
facet normal 0 0 -1
  outer loop
    vertex 99.3875 65.5 0
    vertex 122 84.5 0
    vertex 122 65.5 0
  endloop
endfacet
facet normal 0 0 -1
  outer loop
    vertex 78.5 65.5 28
    vertex 78.5 84.5 28
    vertex 85.3996390436737 84.5 28
  endloop
endfacet
facet normal -.894582271089214 0 -.446903300785376
  outer loop
    vertex 85.3996390436737 65.5 28
    vertex 85.3996390436737 84.5 28
    vertex 99.3875 84.5 0
  endloop
endfacet
facet normal 0 0 -1
  outer loop
    vertex 99.3875 65.5 0
    vertex 99.3875 84.5 0
    vertex 122 84.5 0
  endloop
endfacet
facet normal 0 0 -1
  outer loop
    vertex 47.244095 -61.0236 -2
    vertex -47.244095 -61.0236 -2
    vertex 47.244095 61.0236 -2
  endloop
endfacet
facet normal 0 0 -1
  outer loop
    vertex 47.244095 61.0236 -2
    vertex -47.244095 -61.0236 -2
    vertex -47.244095 61.0236 -2
  endloop
endfacet
facet normal 1 0 0
  outer loop
    vertex 47.244095 -61.0236 -2
    vertex 47.244095 61.0236 -2
    vertex 47.244095 61.0236 0
  endloop
endfacet
facet normal 0 1 0
  outer loop
    vertex 47.244095 61.0236 -2
    vertex -47.244095 61.0236 -2
    vertex -47.244095 61.0236 0
  endloop
endfacet
facet normal -1 0 0
  outer loop
    vertex -47.244095 61.0236 -2
    vertex -47.244095 -61.0236 -2
    vertex -47.244095 -61.0236 0
  endloop
endfacet
facet normal 0 -1 0
  outer loop
    vertex -47.244095 -61.0236 -2
    vertex 47.244095 -61.0236 -2
    vertex 47.244095 -61.0236 0
  endloop
endfacet
facet normal 1 0 0
  outer loop
    vertex 47.244095 -61.0236 0
    vertex 47.244095 -61.0236 -2
    vertex 47.244095 61.0236 0
  endloop
endfacet
facet normal 0 1 0
  outer loop
    vertex 47.244095 61.0236 0
    vertex 47.244095 61.0236 -2
    vertex -47.244095 61.0236 0
  endloop
endfacet
facet normal -1 0 0
  outer loop
    vertex -47.244095 61.0236 0
    vertex -47.244095 61.0236 -2
    vertex -47.244095 -61.0236 0
  endloop
endfacet
facet normal 0 -1 0
  outer loop
    vertex -47.244095 -61.0236 0
    vertex -47.244095 -61.0236 -2
    vertex 47.244095 -61.0236 0
  endloop
endfacet
facet normal 0 0 1
  outer loop
    vertex 47.244095 -61.0236 0
    vertex 47.244095 61.0236 0
    vertex -47.244095 -61.0236 0
  endloop
endfacet
facet normal 0 0 1
  outer loop
    vertex 47.244095 61.0236 0
    vertex -47.244095 61.0236 0
    vertex -47.244095 -61.0236 0
  endloop
endfacet
endsolid DDA8_3P1X2P4-M
