solid Diode2
facet normal 1 0 0
  outer loop
    vertex 59 -40 1
    vertex 59 40 27
    vertex 59 -40 27
  endloop
endfacet
facet normal 1 0 0
  outer loop
    vertex 59 -40 1
    vertex 59 40 1
    vertex 59 40 27
  endloop
endfacet
facet normal -1 0 0
  outer loop
    vertex -59 40 1
    vertex -59 -40 27
    vertex -59 40 27
  endloop
endfacet
facet normal -1 0 0
  outer loop
    vertex -59 40 1
    vertex -59 -40 1
    vertex -59 -40 27
  endloop
endfacet
facet normal 0 -1 0
  outer loop
    vertex -59 -40 1
    vertex 59 -40 27
    vertex -59 -40 27
  endloop
endfacet
facet normal 0 -1 0
  outer loop
    vertex -59 -40 1
    vertex 59 -40 1
    vertex 59 -40 27
  endloop
endfacet
facet normal 0 1 0
  outer loop
    vertex 59 40 1
    vertex -59 40 27
    vertex 59 40 27
  endloop
endfacet
facet normal 0 1 0
  outer loop
    vertex 59 40 1
    vertex -59 40 1
    vertex -59 40 27
  endloop
endfacet
facet normal 0 0 -1
  outer loop
    vertex 59 -40 1
    vertex -59 40 1
    vertex 59 40 1
  endloop
endfacet
facet normal 0 0 -1
  outer loop
    vertex 59 -40 1
    vertex -59 -40 1
    vertex -59 40 1
  endloop
endfacet
facet normal 0 0 1
  outer loop
    vertex 59 -40 27
    vertex 59 40 27
    vertex -59 40 27
  endloop
endfacet
facet normal 0 0 1
  outer loop
    vertex 59 -40 27
    vertex -59 40 27
    vertex -59 -40 27
  endloop
endfacet
facet normal 1 0 0
  outer loop
    vertex 60 -30 0
    vertex 60 30 28
    vertex 60 -30 28
  endloop
endfacet
facet normal 1 0 0
  outer loop
    vertex 60 -30 0
    vertex 60 30 0
    vertex 60 30 28
  endloop
endfacet
facet normal 0 1 0
  outer loop
    vertex 60 30 28
    vertex 60 30 0
    vertex 59 30 27
  endloop
endfacet
facet normal 0 1 0
  outer loop
    vertex 59 30 27
    vertex 60 30 0
    vertex 59 30 1
  endloop
endfacet
facet normal 0 1 0
  outer loop
    vertex 59 30 1
    vertex 60 30 0
    vertex 42.5 30 1
  endloop
endfacet
facet normal 0 1 0
  outer loop
    vertex 42.5 30 0
    vertex 42.5 30 1
    vertex 60 30 0
  endloop
endfacet
facet normal -1 0 0
  outer loop
    vertex 42.5 30 0
    vertex 42.5 -30 1
    vertex 42.5 30 1
  endloop
endfacet
facet normal -1 0 0
  outer loop
    vertex 42.5 30 0
    vertex 42.5 -30 0
    vertex 42.5 -30 1
  endloop
endfacet
facet normal 0 -1 0
  outer loop
    vertex 59 -30 1
    vertex 42.5 -30 1
    vertex 42.5 -30 0
  endloop
endfacet
facet normal 0 -1 0
  outer loop
    vertex 59 -30 1
    vertex 42.5 -30 0
    vertex 60 -30 0
  endloop
endfacet
facet normal 0 -1 0
  outer loop
    vertex 59 -30 1
    vertex 60 -30 28
    vertex 59 -30 27
  endloop
endfacet
facet normal 0 -1 0
  outer loop
    vertex 59 -30 1
    vertex 60 -30 0
    vertex 60 -30 28
  endloop
endfacet
facet normal -1 0 0
  outer loop
    vertex 59 30 27
    vertex 59 -30 1
    vertex 59 -30 27
  endloop
endfacet
facet normal -1 0 0
  outer loop
    vertex 59 30 27
    vertex 59 30 1
    vertex 59 -30 1
  endloop
endfacet
facet normal 0 0 1
  outer loop
    vertex 59 -30 1
    vertex 59 30 1
    vertex 42.5 -30 1
  endloop
endfacet
facet normal 0 0 1
  outer loop
    vertex 59 30 1
    vertex 42.5 30 1
    vertex 42.5 -30 1
  endloop
endfacet
facet normal 0 0 -1
  outer loop
    vertex 60 -30 0
    vertex 42.5 -30 0
    vertex 60 30 0
  endloop
endfacet
facet normal 0 0 -1
  outer loop
    vertex 60 30 0
    vertex 42.5 -30 0
    vertex 42.5 30 0
  endloop
endfacet
facet normal 0 1 0
  outer loop
    vertex 60 30 28
    vertex 59 30 27
    vertex 42.5 30 28
  endloop
endfacet
facet normal 0 1 0
  outer loop
    vertex 42.5 30 28
    vertex 59 30 27
    vertex 42.5 30 27
  endloop
endfacet
facet normal -1 0 0
  outer loop
    vertex 42.5 30 27
    vertex 42.5 -30 28
    vertex 42.5 30 28
  endloop
endfacet
facet normal -1 0 0
  outer loop
    vertex 42.5 -30 28
    vertex 42.5 30 27
    vertex 42.5 -30 27
  endloop
endfacet
facet normal 0 -1 0
  outer loop
    vertex 42.5 -30 28
    vertex 59 -30 27
    vertex 60 -30 28
  endloop
endfacet
facet normal 0 -1 0
  outer loop
    vertex 42.5 -30 28
    vertex 42.5 -30 27
    vertex 59 -30 27
  endloop
endfacet
facet normal 0 0 1
  outer loop
    vertex 60 30 28
    vertex 42.5 -30 28
    vertex 60 -30 28
  endloop
endfacet
facet normal 0 0 1
  outer loop
    vertex 42.5 -30 28
    vertex 60 30 28
    vertex 42.5 30 28
  endloop
endfacet
facet normal 0 0 -1
  outer loop
    vertex 42.5 -30 27
    vertex 42.5 30 27
    vertex 59 -30 27
  endloop
endfacet
facet normal 0 0 -1
  outer loop
    vertex 59 -30 27
    vertex 42.5 30 27
    vertex 59 30 27
  endloop
endfacet
facet normal -1 0 0
  outer loop
    vertex -60 30 0
    vertex -60 -30 28
    vertex -60 30 28
  endloop
endfacet
facet normal -1 0 0
  outer loop
    vertex -60 30 0
    vertex -60 -30 0
    vertex -60 -30 28
  endloop
endfacet
facet normal 0 -1 0
  outer loop
    vertex -60 -30 28
    vertex -60 -30 0
    vertex -59 -30 27
  endloop
endfacet
facet normal 0 -1 0
  outer loop
    vertex -59 -30 27
    vertex -60 -30 0
    vertex -59 -30 1
  endloop
endfacet
facet normal 0 -1 0
  outer loop
    vertex -59 -30 1
    vertex -60 -30 0
    vertex -42.5 -30 1
  endloop
endfacet
facet normal 0 -1 0
  outer loop
    vertex -42.5 -30 0
    vertex -42.5 -30 1
    vertex -60 -30 0
  endloop
endfacet
facet normal 1 0 0
  outer loop
    vertex -42.5 -30 0
    vertex -42.5 30 1
    vertex -42.5 -30 1
  endloop
endfacet
facet normal 1 0 0
  outer loop
    vertex -42.5 -30 0
    vertex -42.5 30 0
    vertex -42.5 30 1
  endloop
endfacet
facet normal 0 1 0
  outer loop
    vertex -59 30 1
    vertex -42.5 30 1
    vertex -42.5 30 0
  endloop
endfacet
facet normal 0 1 0
  outer loop
    vertex -59 30 1
    vertex -42.5 30 0
    vertex -60 30 0
  endloop
endfacet
facet normal 0 1 0
  outer loop
    vertex -59 30 1
    vertex -60 30 28
    vertex -59 30 27
  endloop
endfacet
facet normal 0 1 0
  outer loop
    vertex -59 30 1
    vertex -60 30 0
    vertex -60 30 28
  endloop
endfacet
facet normal 1 0 0
  outer loop
    vertex -59 -30 27
    vertex -59 30 1
    vertex -59 30 27
  endloop
endfacet
facet normal 1 0 0
  outer loop
    vertex -59 -30 27
    vertex -59 -30 1
    vertex -59 30 1
  endloop
endfacet
facet normal 0 0 1
  outer loop
    vertex -59 30 1
    vertex -59 -30 1
    vertex -42.5 30 1
  endloop
endfacet
facet normal 0 0 1
  outer loop
    vertex -59 -30 1
    vertex -42.5 -30 1
    vertex -42.5 30 1
  endloop
endfacet
facet normal 0 0 -1
  outer loop
    vertex -60 30 0
    vertex -42.5 30 0
    vertex -60 -30 0
  endloop
endfacet
facet normal 0 0 -1
  outer loop
    vertex -60 -30 0
    vertex -42.5 30 0
    vertex -42.5 -30 0
  endloop
endfacet
facet normal 0 -1 0
  outer loop
    vertex -60 -30 28
    vertex -59 -30 27
    vertex -42.5 -30 28
  endloop
endfacet
facet normal 0 -1 0
  outer loop
    vertex -42.5 -30 28
    vertex -59 -30 27
    vertex -42.5 -30 27
  endloop
endfacet
facet normal 1 0 0
  outer loop
    vertex -42.5 -30 27
    vertex -42.5 30 28
    vertex -42.5 -30 28
  endloop
endfacet
facet normal 1 0 0
  outer loop
    vertex -42.5 30 28
    vertex -42.5 -30 27
    vertex -42.5 30 27
  endloop
endfacet
facet normal 0 1 0
  outer loop
    vertex -42.5 30 28
    vertex -59 30 27
    vertex -60 30 28
  endloop
endfacet
facet normal 0 1 0
  outer loop
    vertex -42.5 30 28
    vertex -42.5 30 27
    vertex -59 30 27
  endloop
endfacet
facet normal 0 0 1
  outer loop
    vertex -60 -30 28
    vertex -42.5 30 28
    vertex -60 30 28
  endloop
endfacet
facet normal 0 0 1
  outer loop
    vertex -42.5 30 28
    vertex -60 -30 28
    vertex -42.5 -30 28
  endloop
endfacet
facet normal 0 0 -1
  outer loop
    vertex -42.5 30 27
    vertex -42.5 -30 27
    vertex -59 30 27
  endloop
endfacet
facet normal 0 0 -1
  outer loop
    vertex -59 30 27
    vertex -42.5 -30 27
    vertex -59 -30 27
  endloop
endfacet
endsolid Diode2
