solid DRL5
facet normal 0 0 -1
  outer loop
    vertex -17.4416721678151 19.68504 24
    vertex -16.191170935301 19.9337801605706 24
    vertex -16.1666721678151 19.68504 24
  endloop
endfacet
facet normal 0 0 -1
  outer loop
    vertex -17.4416721678151 19.68504 24
    vertex -16.2637257638632 20.1729613762655 24
    vertex -16.191170935301 19.9337801605706 24
  endloop
endfacet
facet normal 0 0 -1
  outer loop
    vertex -17.4416721678151 19.68504 24
    vertex -16.3815484121294 20.3933920471 24
    vertex -16.2637257638632 20.1729613762655 24
  endloop
endfacet
facet normal 0 0 -1
  outer loop
    vertex -17.4416721678151 19.68504 24
    vertex -16.5401110218023 20.5866011460129 24
    vertex -16.3815484121294 20.3933920471 24
  endloop
endfacet
facet normal 0 0 -1
  outer loop
    vertex -17.4416721678151 19.68504 24
    vertex -16.7333201207151 20.7451637556857 24
    vertex -16.5401110218023 20.5866011460129 24
  endloop
endfacet
facet normal 0 0 -1
  outer loop
    vertex -17.4416721678151 19.68504 24
    vertex -16.9537507915496 20.8629864039519 24
    vertex -16.7333201207151 20.7451637556857 24
  endloop
endfacet
facet normal 0 0 -1
  outer loop
    vertex -17.4416721678151 19.68504 24
    vertex -17.1929320072445 20.9355412325141 24
    vertex -16.9537507915496 20.8629864039519 24
  endloop
endfacet
facet normal 0 0 -1
  outer loop
    vertex -17.4416721678151 19.68504 24
    vertex -17.4416721678151 20.96004 24
    vertex -17.1929320072445 20.9355412325141 24
  endloop
endfacet
facet normal 0 0 -1
  outer loop
    vertex -17.4416721678151 19.68504 24
    vertex -17.6904123283857 20.9355412325141 24
    vertex -17.4416721678151 20.96004 24
  endloop
endfacet
facet normal 0 0 -1
  outer loop
    vertex -17.4416721678151 19.68504 24
    vertex -17.9295935440806 20.8629864039519 24
    vertex -17.6904123283857 20.9355412325141 24
  endloop
endfacet
facet normal 0 0 -1
  outer loop
    vertex -17.4416721678151 19.68504 24
    vertex -18.1500242149151 20.7451637556857 24
    vertex -17.9295935440806 20.8629864039519 24
  endloop
endfacet
facet normal 0 0 -1
  outer loop
    vertex -17.4416721678151 19.68504 24
    vertex -18.343233313828 20.5866011460129 24
    vertex -18.1500242149151 20.7451637556857 24
  endloop
endfacet
facet normal 0 0 -1
  outer loop
    vertex -17.4416721678151 19.68504 24
    vertex -18.5017959235009 20.3933920471 24
    vertex -18.343233313828 20.5866011460129 24
  endloop
endfacet
facet normal 0 0 -1
  outer loop
    vertex -17.4416721678151 19.68504 24
    vertex -18.619618571767 20.1729613762655 24
    vertex -18.5017959235009 20.3933920471 24
  endloop
endfacet
facet normal 0 0 -1
  outer loop
    vertex -17.4416721678151 19.68504 24
    vertex -18.6921734003292 19.9337801605706 24
    vertex -18.619618571767 20.1729613762655 24
  endloop
endfacet
facet normal 0 0 -1
  outer loop
    vertex -17.4416721678151 19.68504 24
    vertex -18.7166721678151 19.68504 24
    vertex -18.6921734003292 19.9337801605706 24
  endloop
endfacet
facet normal 0 0 -1
  outer loop
    vertex -17.4416721678151 19.68504 24
    vertex -18.6921734003292 19.4362998394294 24
    vertex -18.7166721678151 19.68504 24
  endloop
endfacet
facet normal 0 0 -1
  outer loop
    vertex -17.4416721678151 19.68504 24
    vertex -18.619618571767 19.1971186237345 24
    vertex -18.6921734003292 19.4362998394294 24
  endloop
endfacet
facet normal 0 0 -1
  outer loop
    vertex -17.4416721678151 19.68504 24
    vertex -18.5017959235009 18.9766879529 24
    vertex -18.619618571767 19.1971186237345 24
  endloop
endfacet
facet normal 0 0 -1
  outer loop
    vertex -17.4416721678151 19.68504 24
    vertex -18.343233313828 18.7834788539872 24
    vertex -18.5017959235009 18.9766879529 24
  endloop
endfacet
facet normal 0 0 -1
  outer loop
    vertex -17.4416721678151 19.68504 24
    vertex -18.1500242149151 18.6249162443143 24
    vertex -18.343233313828 18.7834788539872 24
  endloop
endfacet
facet normal 0 0 -1
  outer loop
    vertex -17.4416721678151 19.68504 24
    vertex -17.9295935440806 18.5070935960481 24
    vertex -18.1500242149151 18.6249162443143 24
  endloop
endfacet
facet normal 0 0 -1
  outer loop
    vertex -17.4416721678151 19.68504 24
    vertex -17.6904123283857 18.4345387674859 24
    vertex -17.9295935440806 18.5070935960481 24
  endloop
endfacet
facet normal 0 0 -1
  outer loop
    vertex -17.4416721678151 19.68504 24
    vertex -17.4416721678151 18.41004 24
    vertex -17.6904123283857 18.4345387674859 24
  endloop
endfacet
facet normal 0 0 -1
  outer loop
    vertex -17.4416721678151 19.68504 24
    vertex -17.1929320072445 18.4345387674859 24
    vertex -17.4416721678151 18.41004 24
  endloop
endfacet
facet normal 0 0 -1
  outer loop
    vertex -17.4416721678151 19.68504 24
    vertex -16.9537507915496 18.5070935960481 24
    vertex -17.1929320072445 18.4345387674859 24
  endloop
endfacet
facet normal 0 0 -1
  outer loop
    vertex -17.4416721678151 19.68504 24
    vertex -16.7333201207151 18.6249162443143 24
    vertex -16.9537507915496 18.5070935960481 24
  endloop
endfacet
facet normal 0 0 -1
  outer loop
    vertex -17.4416721678151 19.68504 24
    vertex -16.5401110218023 18.7834788539872 24
    vertex -16.7333201207151 18.6249162443143 24
  endloop
endfacet
facet normal 0 0 -1
  outer loop
    vertex -17.4416721678151 19.68504 24
    vertex -16.3815484121294 18.9766879529 24
    vertex -16.5401110218023 18.7834788539872 24
  endloop
endfacet
facet normal 0 0 -1
  outer loop
    vertex -17.4416721678151 19.68504 24
    vertex -16.2637257638632 19.1971186237345 24
    vertex -16.3815484121294 18.9766879529 24
  endloop
endfacet
facet normal 0 0 -1
  outer loop
    vertex -17.4416721678151 19.68504 24
    vertex -16.191170935301 19.4362998394294 24
    vertex -16.2637257638632 19.1971186237345 24
  endloop
endfacet
facet normal 0 0 -1
  outer loop
    vertex -17.4416721678151 19.68504 24
    vertex -16.1666721678151 19.68504 24
    vertex -16.191170935301 19.4362998394294 24
  endloop
endfacet
facet normal 0 0 1
  outer loop
    vertex -17.4416721678151 19.68504 24.1
    vertex -16.1666721678151 19.68504 24.1
    vertex -16.191170935301 19.9337801605706 24.1
  endloop
endfacet
facet normal 0 0 1
  outer loop
    vertex -17.4416721678151 19.68504 24.1
    vertex -16.191170935301 19.9337801605706 24.1
    vertex -16.2637257638632 20.1729613762655 24.1
  endloop
endfacet
facet normal 0 0 1
  outer loop
    vertex -17.4416721678151 19.68504 24.1
    vertex -16.2637257638632 20.1729613762655 24.1
    vertex -16.3815484121294 20.3933920471 24.1
  endloop
endfacet
facet normal 0 0 1
  outer loop
    vertex -17.4416721678151 19.68504 24.1
    vertex -16.3815484121294 20.3933920471 24.1
    vertex -16.5401110218023 20.5866011460129 24.1
  endloop
endfacet
facet normal 0 0 1
  outer loop
    vertex -17.4416721678151 19.68504 24.1
    vertex -16.5401110218023 20.5866011460129 24.1
    vertex -16.7333201207151 20.7451637556857 24.1
  endloop
endfacet
facet normal 0 0 1
  outer loop
    vertex -17.4416721678151 19.68504 24.1
    vertex -16.7333201207151 20.7451637556857 24.1
    vertex -16.9537507915496 20.8629864039519 24.1
  endloop
endfacet
facet normal 0 0 1
  outer loop
    vertex -17.4416721678151 19.68504 24.1
    vertex -16.9537507915496 20.8629864039519 24.1
    vertex -17.1929320072445 20.9355412325141 24.1
  endloop
endfacet
facet normal 0 0 1
  outer loop
    vertex -17.4416721678151 19.68504 24.1
    vertex -17.1929320072445 20.9355412325141 24.1
    vertex -17.4416721678151 20.96004 24.1
  endloop
endfacet
facet normal 0 0 1
  outer loop
    vertex -17.4416721678151 19.68504 24.1
    vertex -17.4416721678151 20.96004 24.1
    vertex -17.6904123283857 20.9355412325141 24.1
  endloop
endfacet
facet normal 0 0 1
  outer loop
    vertex -17.4416721678151 19.68504 24.1
    vertex -17.6904123283857 20.9355412325141 24.1
    vertex -17.9295935440806 20.8629864039519 24.1
  endloop
endfacet
facet normal 0 0 1
  outer loop
    vertex -17.4416721678151 19.68504 24.1
    vertex -17.9295935440806 20.8629864039519 24.1
    vertex -18.1500242149151 20.7451637556857 24.1
  endloop
endfacet
facet normal 0 0 1
  outer loop
    vertex -17.4416721678151 19.68504 24.1
    vertex -18.1500242149151 20.7451637556857 24.1
    vertex -18.343233313828 20.5866011460129 24.1
  endloop
endfacet
facet normal 0 0 1
  outer loop
    vertex -17.4416721678151 19.68504 24.1
    vertex -18.343233313828 20.5866011460129 24.1
    vertex -18.5017959235009 20.3933920471 24.1
  endloop
endfacet
facet normal 0 0 1
  outer loop
    vertex -17.4416721678151 19.68504 24.1
    vertex -18.5017959235009 20.3933920471 24.1
    vertex -18.619618571767 20.1729613762655 24.1
  endloop
endfacet
facet normal 0 0 1
  outer loop
    vertex -17.4416721678151 19.68504 24.1
    vertex -18.619618571767 20.1729613762655 24.1
    vertex -18.6921734003292 19.9337801605706 24.1
  endloop
endfacet
facet normal 0 0 1
  outer loop
    vertex -17.4416721678151 19.68504 24.1
    vertex -18.6921734003292 19.9337801605706 24.1
    vertex -18.7166721678151 19.68504 24.1
  endloop
endfacet
facet normal 0 0 1
  outer loop
    vertex -17.4416721678151 19.68504 24.1
    vertex -18.7166721678151 19.68504 24.1
    vertex -18.6921734003292 19.4362998394294 24.1
  endloop
endfacet
facet normal 0 0 1
  outer loop
    vertex -17.4416721678151 19.68504 24.1
    vertex -18.6921734003292 19.4362998394294 24.1
    vertex -18.619618571767 19.1971186237345 24.1
  endloop
endfacet
facet normal 0 0 1
  outer loop
    vertex -17.4416721678151 19.68504 24.1
    vertex -18.619618571767 19.1971186237345 24.1
    vertex -18.5017959235009 18.9766879529 24.1
  endloop
endfacet
facet normal 0 0 1
  outer loop
    vertex -17.4416721678151 19.68504 24.1
    vertex -18.5017959235009 18.9766879529 24.1
    vertex -18.343233313828 18.7834788539872 24.1
  endloop
endfacet
facet normal 0 0 1
  outer loop
    vertex -17.4416721678151 19.68504 24.1
    vertex -18.343233313828 18.7834788539872 24.1
    vertex -18.1500242149151 18.6249162443143 24.1
  endloop
endfacet
facet normal 0 0 1
  outer loop
    vertex -17.4416721678151 19.68504 24.1
    vertex -18.1500242149151 18.6249162443143 24.1
    vertex -17.9295935440806 18.5070935960481 24.1
  endloop
endfacet
facet normal 0 0 1
  outer loop
    vertex -17.4416721678151 19.68504 24.1
    vertex -17.9295935440806 18.5070935960481 24.1
    vertex -17.6904123283857 18.4345387674859 24.1
  endloop
endfacet
facet normal 0 0 1
  outer loop
    vertex -17.4416721678151 19.68504 24.1
    vertex -17.6904123283857 18.4345387674859 24.1
    vertex -17.4416721678151 18.41004 24.1
  endloop
endfacet
facet normal 0 0 1
  outer loop
    vertex -17.4416721678151 19.68504 24.1
    vertex -17.4416721678151 18.41004 24.1
    vertex -17.1929320072445 18.4345387674859 24.1
  endloop
endfacet
facet normal 0 0 1
  outer loop
    vertex -17.4416721678151 19.68504 24.1
    vertex -17.1929320072445 18.4345387674859 24.1
    vertex -16.9537507915496 18.5070935960481 24.1
  endloop
endfacet
facet normal 0 0 1
  outer loop
    vertex -17.4416721678151 19.68504 24.1
    vertex -16.9537507915496 18.5070935960481 24.1
    vertex -16.7333201207151 18.6249162443143 24.1
  endloop
endfacet
facet normal 0 0 1
  outer loop
    vertex -17.4416721678151 19.68504 24.1
    vertex -16.7333201207151 18.6249162443143 24.1
    vertex -16.5401110218023 18.7834788539872 24.1
  endloop
endfacet
facet normal 0 0 1
  outer loop
    vertex -17.4416721678151 19.68504 24.1
    vertex -16.5401110218023 18.7834788539872 24.1
    vertex -16.3815484121294 18.9766879529 24.1
  endloop
endfacet
facet normal 0 0 1
  outer loop
    vertex -17.4416721678151 19.68504 24.1
    vertex -16.3815484121294 18.9766879529 24.1
    vertex -16.2637257638632 19.1971186237345 24.1
  endloop
endfacet
facet normal 0 0 1
  outer loop
    vertex -17.4416721678151 19.68504 24.1
    vertex -16.2637257638632 19.1971186237345 24.1
    vertex -16.191170935301 19.4362998394294 24.1
  endloop
endfacet
facet normal 0 0 1
  outer loop
    vertex -17.4416721678151 19.68504 24.1
    vertex -16.191170935301 19.4362998394294 24.1
    vertex -16.1666721678151 19.68504 24.1
  endloop
endfacet
facet normal .995184726672191 9.80171403296149E-02 0
  outer loop
    vertex -16.1666721678151 19.68504 24
    vertex -16.191170935301 19.9337801605706 24.1
    vertex -16.1666721678151 19.68504 24.1
  endloop
endfacet
facet normal .956940335732232 .290284677254387 0
  outer loop
    vertex -16.191170935301 19.9337801605706 24
    vertex -16.2637257638632 20.1729613762655 24.1
    vertex -16.191170935301 19.9337801605706 24.1
  endloop
endfacet
facet normal .881921264348258 .47139673682618 0
  outer loop
    vertex -16.2637257638632 20.1729613762655 24
    vertex -16.3815484121294 20.3933920471 24.1
    vertex -16.2637257638632 20.1729613762655 24.1
  endloop
endfacet
facet normal .773010453362804 .634393284163564 0
  outer loop
    vertex -16.3815484121294 20.3933920471 24
    vertex -16.5401110218023 20.5866011460129 24.1
    vertex -16.3815484121294 20.3933920471 24.1
  endloop
endfacet
facet normal .634393284163521 .773010453362839 0
  outer loop
    vertex -16.5401110218023 20.5866011460129 24
    vertex -16.7333201207151 20.7451637556857 24.1
    vertex -16.5401110218023 20.5866011460129 24.1
  endloop
endfacet
facet normal .47139673682618 .881921264348258 0
  outer loop
    vertex -16.7333201207151 20.7451637556857 24
    vertex -16.9537507915496 20.8629864039519 24.1
    vertex -16.7333201207151 20.7451637556857 24.1
  endloop
endfacet
facet normal .290284677254387 .956940335732232 0
  outer loop
    vertex -16.9537507915496 20.8629864039519 24
    vertex -17.1929320072445 20.9355412325141 24.1
    vertex -16.9537507915496 20.8629864039519 24.1
  endloop
endfacet
facet normal 9.80171403296149E-02 .995184726672191 0
  outer loop
    vertex -17.1929320072445 20.9355412325141 24
    vertex -17.4416721678151 20.96004 24.1
    vertex -17.1929320072445 20.9355412325141 24.1
  endloop
endfacet
facet normal -9.80171403296135E-02 .995184726672192 0
  outer loop
    vertex -17.4416721678151 20.96004 24
    vertex -17.6904123283857 20.9355412325141 24.1
    vertex -17.4416721678151 20.96004 24.1
  endloop
endfacet
facet normal -.290284677254391 .95694033573223 0
  outer loop
    vertex -17.6904123283857 20.9355412325141 24
    vertex -17.9295935440806 20.8629864039519 24.1
    vertex -17.6904123283857 20.9355412325141 24.1
  endloop
endfacet
facet normal -.47139673682618 .881921264348258 0
  outer loop
    vertex -17.9295935440806 20.8629864039519 24
    vertex -18.1500242149151 20.7451637556857 24.1
    vertex -17.9295935440806 20.8629864039519 24.1
  endloop
endfacet
facet normal -.634393284163319 .773010453363005 0
  outer loop
    vertex -18.1500242149151 20.7451637556857 24
    vertex -18.343233313828 20.5866011460129 24.1
    vertex -18.1500242149151 20.7451637556857 24.1
  endloop
endfacet
facet normal -.773010453362804 .634393284163564 0
  outer loop
    vertex -18.343233313828 20.5866011460129 24
    vertex -18.5017959235009 20.3933920471 24.1
    vertex -18.343233313828 20.5866011460129 24.1
  endloop
endfacet
facet normal -.881921264348429 .471396736825859 0
  outer loop
    vertex -18.5017959235009 20.3933920471 24
    vertex -18.619618571767 20.1729613762655 24.1
    vertex -18.5017959235009 20.3933920471 24.1
  endloop
endfacet
facet normal -.956940335732232 .290284677254387 0
  outer loop
    vertex -18.619618571767 20.1729613762655 24
    vertex -18.6921734003292 19.9337801605706 24.1
    vertex -18.619618571767 20.1729613762655 24.1
  endloop
endfacet
facet normal -.99518472667219 .098017140329629 0
  outer loop
    vertex -18.6921734003292 19.9337801605706 24
    vertex -18.7166721678151 19.68504 24.1
    vertex -18.6921734003292 19.9337801605706 24.1
  endloop
endfacet
facet normal -.99518472667219 -9.80171403296276E-02 0
  outer loop
    vertex -18.7166721678151 19.68504 24
    vertex -18.6921734003292 19.4362998394294 24.1
    vertex -18.7166721678151 19.68504 24.1
  endloop
endfacet
facet normal -.95694033573223 -.290284677254391 0
  outer loop
    vertex -18.6921734003292 19.4362998394294 24
    vertex -18.619618571767 19.1971186237345 24.1
    vertex -18.6921734003292 19.4362998394294 24.1
  endloop
endfacet
facet normal -.881921264348429 -.471396736825859 0
  outer loop
    vertex -18.619618571767 19.1971186237345 24
    vertex -18.5017959235009 18.9766879529 24.1
    vertex -18.619618571767 19.1971186237345 24.1
  endloop
endfacet
facet normal -.773010453362644 -.634393284163759 0
  outer loop
    vertex -18.5017959235009 18.9766879529 24
    vertex -18.343233313828 18.7834788539872 24.1
    vertex -18.5017959235009 18.9766879529 24.1
  endloop
endfacet
facet normal -.634393284163566 -.773010453362803 0
  outer loop
    vertex -18.343233313828 18.7834788539872 24
    vertex -18.1500242149151 18.6249162443143 24.1
    vertex -18.343233313828 18.7834788539872 24.1
  endloop
endfacet
facet normal -.471396736826169 -.881921264348263 0
  outer loop
    vertex -18.1500242149151 18.6249162443143 24
    vertex -17.9295935440806 18.5070935960481 24.1
    vertex -18.1500242149151 18.6249162443143 24.1
  endloop
endfacet
facet normal -.290284677254391 -.95694033573223 0
  outer loop
    vertex -17.9295935440806 18.5070935960481 24
    vertex -17.6904123283857 18.4345387674859 24.1
    vertex -17.9295935440806 18.5070935960481 24.1
  endloop
endfacet
facet normal -9.80171403296276E-02 -.99518472667219 0
  outer loop
    vertex -17.6904123283857 18.4345387674859 24
    vertex -17.4416721678151 18.41004 24.1
    vertex -17.6904123283857 18.4345387674859 24.1
  endloop
endfacet
facet normal .098017140329629 -.99518472667219 0
  outer loop
    vertex -17.4416721678151 18.41004 24
    vertex -17.1929320072445 18.4345387674859 24.1
    vertex -17.4416721678151 18.41004 24.1
  endloop
endfacet
facet normal .290284677254387 -.956940335732232 0
  outer loop
    vertex -17.1929320072445 18.4345387674859 24
    vertex -16.9537507915496 18.5070935960481 24.1
    vertex -17.1929320072445 18.4345387674859 24.1
  endloop
endfacet
facet normal .471396736826169 -.881921264348263 0
  outer loop
    vertex -16.9537507915496 18.5070935960481 24
    vertex -16.7333201207151 18.6249162443143 24.1
    vertex -16.9537507915496 18.5070935960481 24.1
  endloop
endfacet
facet normal .634393284163768 -.773010453362637 0
  outer loop
    vertex -16.7333201207151 18.6249162443143 24
    vertex -16.5401110218023 18.7834788539872 24.1
    vertex -16.7333201207151 18.6249162443143 24.1
  endloop
endfacet
facet normal .773010453362644 -.634393284163759 0
  outer loop
    vertex -16.5401110218023 18.7834788539872 24
    vertex -16.3815484121294 18.9766879529 24.1
    vertex -16.5401110218023 18.7834788539872 24.1
  endloop
endfacet
facet normal .881921264348258 -.47139673682618 0
  outer loop
    vertex -16.3815484121294 18.9766879529 24
    vertex -16.2637257638632 19.1971186237345 24.1
    vertex -16.3815484121294 18.9766879529 24.1
  endloop
endfacet
facet normal .95694033573223 -.290284677254391 0
  outer loop
    vertex -16.2637257638632 19.1971186237345 24
    vertex -16.191170935301 19.4362998394294 24.1
    vertex -16.2637257638632 19.1971186237345 24.1
  endloop
endfacet
facet normal .995184726672192 -9.80171403296135E-02 0
  outer loop
    vertex -16.191170935301 19.4362998394294 24
    vertex -16.1666721678151 19.68504 24.1
    vertex -16.191170935301 19.4362998394294 24.1
  endloop
endfacet
facet normal .995184726672191 9.80171403296149E-02 0
  outer loop
    vertex -16.191170935301 19.9337801605706 24
    vertex -16.191170935301 19.9337801605706 24.1
    vertex -16.1666721678151 19.68504 24
  endloop
endfacet
facet normal .956940335732232 .290284677254387 0
  outer loop
    vertex -16.2637257638632 20.1729613762655 24
    vertex -16.2637257638632 20.1729613762655 24.1
    vertex -16.191170935301 19.9337801605706 24
  endloop
endfacet
facet normal .881921264348258 .47139673682618 0
  outer loop
    vertex -16.3815484121294 20.3933920471 24
    vertex -16.3815484121294 20.3933920471 24.1
    vertex -16.2637257638632 20.1729613762655 24
  endloop
endfacet
facet normal .773010453362804 .634393284163564 0
  outer loop
    vertex -16.5401110218023 20.5866011460129 24
    vertex -16.5401110218023 20.5866011460129 24.1
    vertex -16.3815484121294 20.3933920471 24
  endloop
endfacet
facet normal .634393284163521 .773010453362839 0
  outer loop
    vertex -16.7333201207151 20.7451637556857 24
    vertex -16.7333201207151 20.7451637556857 24.1
    vertex -16.5401110218023 20.5866011460129 24
  endloop
endfacet
facet normal .47139673682618 .881921264348258 0
  outer loop
    vertex -16.9537507915496 20.8629864039519 24
    vertex -16.9537507915496 20.8629864039519 24.1
    vertex -16.7333201207151 20.7451637556857 24
  endloop
endfacet
facet normal .290284677254387 .956940335732232 0
  outer loop
    vertex -17.1929320072445 20.9355412325141 24
    vertex -17.1929320072445 20.9355412325141 24.1
    vertex -16.9537507915496 20.8629864039519 24
  endloop
endfacet
facet normal 9.80171403296149E-02 .995184726672191 0
  outer loop
    vertex -17.4416721678151 20.96004 24
    vertex -17.4416721678151 20.96004 24.1
    vertex -17.1929320072445 20.9355412325141 24
  endloop
endfacet
facet normal -9.80171403296135E-02 .995184726672192 0
  outer loop
    vertex -17.6904123283857 20.9355412325141 24
    vertex -17.6904123283857 20.9355412325141 24.1
    vertex -17.4416721678151 20.96004 24
  endloop
endfacet
facet normal -.290284677254391 .95694033573223 0
  outer loop
    vertex -17.9295935440806 20.8629864039519 24
    vertex -17.9295935440806 20.8629864039519 24.1
    vertex -17.6904123283857 20.9355412325141 24
  endloop
endfacet
facet normal -.47139673682618 .881921264348258 0
  outer loop
    vertex -18.1500242149151 20.7451637556857 24
    vertex -18.1500242149151 20.7451637556857 24.1
    vertex -17.9295935440806 20.8629864039519 24
  endloop
endfacet
facet normal -.634393284163319 .773010453363005 0
  outer loop
    vertex -18.343233313828 20.5866011460129 24
    vertex -18.343233313828 20.5866011460129 24.1
    vertex -18.1500242149151 20.7451637556857 24
  endloop
endfacet
facet normal -.773010453362804 .634393284163564 0
  outer loop
    vertex -18.5017959235009 20.3933920471 24
    vertex -18.5017959235009 20.3933920471 24.1
    vertex -18.343233313828 20.5866011460129 24
  endloop
endfacet
facet normal -.881921264348429 .471396736825859 0
  outer loop
    vertex -18.619618571767 20.1729613762655 24
    vertex -18.619618571767 20.1729613762655 24.1
    vertex -18.5017959235009 20.3933920471 24
  endloop
endfacet
facet normal -.956940335732232 .290284677254387 0
  outer loop
    vertex -18.6921734003292 19.9337801605706 24
    vertex -18.6921734003292 19.9337801605706 24.1
    vertex -18.619618571767 20.1729613762655 24
  endloop
endfacet
facet normal -.99518472667219 .098017140329629 0
  outer loop
    vertex -18.7166721678151 19.68504 24
    vertex -18.7166721678151 19.68504 24.1
    vertex -18.6921734003292 19.9337801605706 24
  endloop
endfacet
facet normal -.99518472667219 -9.80171403296276E-02 0
  outer loop
    vertex -18.6921734003292 19.4362998394294 24
    vertex -18.6921734003292 19.4362998394294 24.1
    vertex -18.7166721678151 19.68504 24
  endloop
endfacet
facet normal -.95694033573223 -.290284677254391 0
  outer loop
    vertex -18.619618571767 19.1971186237345 24
    vertex -18.619618571767 19.1971186237345 24.1
    vertex -18.6921734003292 19.4362998394294 24
  endloop
endfacet
facet normal -.881921264348429 -.471396736825859 0
  outer loop
    vertex -18.5017959235009 18.9766879529 24
    vertex -18.5017959235009 18.9766879529 24.1
    vertex -18.619618571767 19.1971186237345 24
  endloop
endfacet
facet normal -.773010453362644 -.634393284163759 0
  outer loop
    vertex -18.343233313828 18.7834788539872 24
    vertex -18.343233313828 18.7834788539872 24.1
    vertex -18.5017959235009 18.9766879529 24
  endloop
endfacet
facet normal -.634393284163566 -.773010453362803 0
  outer loop
    vertex -18.1500242149151 18.6249162443143 24
    vertex -18.1500242149151 18.6249162443143 24.1
    vertex -18.343233313828 18.7834788539872 24
  endloop
endfacet
facet normal -.471396736826169 -.881921264348263 0
  outer loop
    vertex -17.9295935440806 18.5070935960481 24
    vertex -17.9295935440806 18.5070935960481 24.1
    vertex -18.1500242149151 18.6249162443143 24
  endloop
endfacet
facet normal -.290284677254391 -.95694033573223 0
  outer loop
    vertex -17.6904123283857 18.4345387674859 24
    vertex -17.6904123283857 18.4345387674859 24.1
    vertex -17.9295935440806 18.5070935960481 24
  endloop
endfacet
facet normal -9.80171403296276E-02 -.99518472667219 0
  outer loop
    vertex -17.4416721678151 18.41004 24
    vertex -17.4416721678151 18.41004 24.1
    vertex -17.6904123283857 18.4345387674859 24
  endloop
endfacet
facet normal .098017140329629 -.99518472667219 0
  outer loop
    vertex -17.1929320072445 18.4345387674859 24
    vertex -17.1929320072445 18.4345387674859 24.1
    vertex -17.4416721678151 18.41004 24
  endloop
endfacet
facet normal .290284677254387 -.956940335732232 0
  outer loop
    vertex -16.9537507915496 18.5070935960481 24
    vertex -16.9537507915496 18.5070935960481 24.1
    vertex -17.1929320072445 18.4345387674859 24
  endloop
endfacet
facet normal .471396736826169 -.881921264348263 0
  outer loop
    vertex -16.7333201207151 18.6249162443143 24
    vertex -16.7333201207151 18.6249162443143 24.1
    vertex -16.9537507915496 18.5070935960481 24
  endloop
endfacet
facet normal .634393284163768 -.773010453362637 0
  outer loop
    vertex -16.5401110218023 18.7834788539872 24
    vertex -16.5401110218023 18.7834788539872 24.1
    vertex -16.7333201207151 18.6249162443143 24
  endloop
endfacet
facet normal .773010453362644 -.634393284163759 0
  outer loop
    vertex -16.3815484121294 18.9766879529 24
    vertex -16.3815484121294 18.9766879529 24.1
    vertex -16.5401110218023 18.7834788539872 24
  endloop
endfacet
facet normal .881921264348258 -.47139673682618 0
  outer loop
    vertex -16.2637257638632 19.1971186237345 24
    vertex -16.2637257638632 19.1971186237345 24.1
    vertex -16.3815484121294 18.9766879529 24
  endloop
endfacet
facet normal .95694033573223 -.290284677254391 0
  outer loop
    vertex -16.191170935301 19.4362998394294 24
    vertex -16.191170935301 19.4362998394294 24.1
    vertex -16.2637257638632 19.1971186237345 24
  endloop
endfacet
facet normal .995184726672192 -9.80171403296135E-02 0
  outer loop
    vertex -16.1666721678151 19.68504 24
    vertex -16.1666721678151 19.68504 24.1
    vertex -16.191170935301 19.4362998394294 24
  endloop
endfacet
facet normal 0 0 1
  outer loop
    vertex 22.9642904295558 32.9770655435141 24
    vertex 12 32.9770655435141 24
    vertex 22.9642904295558 -32.9770655435141 24
  endloop
endfacet
facet normal 0 0 1
  outer loop
    vertex 12 32.9770655435141 24
    vertex 11.7694233648388 30.6359816793205 24
    vertex 22.9642904295558 -32.9770655435141 24
  endloop
endfacet
facet normal 0 0 1
  outer loop
    vertex 11.7694233648388 30.6359816793205 24
    vertex 11.0865543901354 28.384864355133 24
    vertex 22.9642904295558 -32.9770655435141 24
  endloop
endfacet
facet normal 0 0 1
  outer loop
    vertex 11.0865543901354 28.384864355133 24
    vertex 9.97763534763054 26.3102227472788 24
    vertex 22.9642904295558 -32.9770655435141 24
  endloop
endfacet
facet normal 0 0 1
  outer loop
    vertex 9.97763534763054 26.3102227472788 24
    vertex 8.48528137423857 24.4917841692755 24
    vertex 22.9642904295558 -32.9770655435141 24
  endloop
endfacet
facet normal 0 0 1
  outer loop
    vertex 8.48528137423857 24.4917841692755 24
    vertex 6.66684279623523 22.9994301958835 24
    vertex 22.9642904295558 -32.9770655435141 24
  endloop
endfacet
facet normal 0 0 1
  outer loop
    vertex 6.66684279623523 22.9994301958835 24
    vertex 4.59220118838108 21.8905111533786 24
    vertex 22.9642904295558 -32.9770655435141 24
  endloop
endfacet
facet normal 0 0 1
  outer loop
    vertex 4.59220118838108 21.8905111533786 24
    vertex 2.34108386419354 21.2076421786753 24
    vertex 22.9642904295558 -32.9770655435141 24
  endloop
endfacet
facet normal 0 0 1
  outer loop
    vertex 2.34108386419354 21.2076421786753 24
    vertex 7.34788079488412E-16 20.9770655435141 24
    vertex 22.9642904295558 -32.9770655435141 24
  endloop
endfacet
facet normal 0 0 1
  outer loop
    vertex 7.34788079488412E-16 20.9770655435141 24
    vertex -22.9642904295558 -32.9770655435141 24
    vertex 22.9642904295558 -32.9770655435141 24
  endloop
endfacet
facet normal 0 0 1
  outer loop
    vertex 7.34788079488412E-16 20.9770655435141 24
    vertex -2.34108386419354 21.2076421786753 24
    vertex -22.9642904295558 -32.9770655435141 24
  endloop
endfacet
facet normal 0 0 1
  outer loop
    vertex -2.34108386419354 21.2076421786753 24
    vertex -4.59220118838108 21.8905111533786 24
    vertex -22.9642904295558 -32.9770655435141 24
  endloop
endfacet
facet normal 0 0 1
  outer loop
    vertex -4.59220118838108 21.8905111533786 24
    vertex -6.66684279623523 22.9994301958835 24
    vertex -22.9642904295558 -32.9770655435141 24
  endloop
endfacet
facet normal 0 0 1
  outer loop
    vertex -6.66684279623523 22.9994301958835 24
    vertex -8.48528137423857 24.4917841692755 24
    vertex -22.9642904295558 -32.9770655435141 24
  endloop
endfacet
facet normal 0 0 1
  outer loop
    vertex -8.48528137423857 24.4917841692755 24
    vertex -9.97763534763054 26.3102227472788 24
    vertex -22.9642904295558 -32.9770655435141 24
  endloop
endfacet
facet normal 0 0 1
  outer loop
    vertex -9.97763534763054 26.3102227472788 24
    vertex -11.0865543901354 28.384864355133 24
    vertex -22.9642904295558 -32.9770655435141 24
  endloop
endfacet
facet normal 0 0 1
  outer loop
    vertex -11.0865543901354 28.384864355133 24
    vertex -11.7694233648388 30.6359816793205 24
    vertex -22.9642904295558 -32.9770655435141 24
  endloop
endfacet
facet normal 0 0 1
  outer loop
    vertex -11.7694233648388 30.6359816793205 24
    vertex -12 32.9770655435141 24
    vertex -22.9642904295558 -32.9770655435141 24
  endloop
endfacet
facet normal 0 0 1
  outer loop
    vertex -22.9642904295558 32.9770655435141 24
    vertex -22.9642904295558 -32.9770655435141 24
    vertex -12 32.9770655435141 24
  endloop
endfacet
facet normal 0 0 -1
  outer loop
    vertex -24.9770655435141 -32.9770655435141 0
    vertex 24.9770655435141 32.9770655435141 0
    vertex 24.9770655435141 -32.9770655435141 0
  endloop
endfacet
facet normal 0 0 -1
  outer loop
    vertex 24.9770655435141 32.9770655435141 0
    vertex -24.9770655435141 -32.9770655435141 0
    vertex -24.9770655435141 32.9770655435141 0
  endloop
endfacet
facet normal 1 0 0
  outer loop
    vertex -12 32.9770655435141 24
    vertex -12 32.9770655435141 21.6
    vertex -12 33.1870383359763 21.6
  endloop
endfacet
facet normal .995184726672199 9.80171403295432E-02 0
  outer loop
    vertex -11.7694233648388 30.6359816793205 24
    vertex -11.7694233648388 30.6359816793205 21.6
    vertex -12 32.9770655435141 21.6
  endloop
endfacet
facet normal .956940335732198 .290284677254497 0
  outer loop
    vertex -11.0865543901354 28.384864355133 24
    vertex -11.0865543901354 28.384864355133 21.6
    vertex -11.7694233648388 30.6359816793205 21.6
  endloop
endfacet
facet normal .881921264348367 .471396736825975 0
  outer loop
    vertex -9.97763534763054 26.3102227472788 24
    vertex -9.97763534763054 26.3102227472788 21.6
    vertex -11.0865543901354 28.384864355133 21.6
  endloop
endfacet
facet normal .77301045336273 .634393284163654 0
  outer loop
    vertex -8.48528137423857 24.4917841692755 24
    vertex -8.48528137423857 24.4917841692755 21.6
    vertex -9.97763534763054 26.3102227472788 21.6
  endloop
endfacet
facet normal .634393284163653 .773010453362731 0
  outer loop
    vertex -6.66684279623523 22.9994301958835 24
    vertex -6.66684279623523 22.9994301958835 21.6
    vertex -8.48528137423857 24.4917841692755 21.6
  endloop
endfacet
facet normal .471396736825999 .881921264348355 0
  outer loop
    vertex -4.59220118838108 21.8905111533786 24
    vertex -4.59220118838108 21.8905111533786 21.6
    vertex -6.66684279623523 22.9994301958835 21.6
  endloop
endfacet
facet normal .290284677254453 .956940335732212 0
  outer loop
    vertex -2.34108386419354 21.2076421786753 24
    vertex -2.34108386419354 21.2076421786753 21.6
    vertex -4.59220118838108 21.8905111533786 21.6
  endloop
endfacet
facet normal 9.80171403295457E-02 .995184726672198 0
  outer loop
    vertex 7.34788079488412E-16 20.9770655435141 24
    vertex 7.34788079488412E-16 20.9770655435141 21.6
    vertex -2.34108386419354 21.2076421786753 21.6
  endloop
endfacet
facet normal -9.80171403295457E-02 .995184726672198 0
  outer loop
    vertex 2.34108386419354 21.2076421786753 24
    vertex 2.34108386419354 21.2076421786753 21.6
    vertex 7.34788079488412E-16 20.9770655435141 21.6
  endloop
endfacet
facet normal -.290284677254453 .956940335732212 0
  outer loop
    vertex 4.59220118838108 21.8905111533786 24
    vertex 4.59220118838108 21.8905111533786 21.6
    vertex 2.34108386419354 21.2076421786753 21.6
  endloop
endfacet
facet normal -.471396736825999 .881921264348355 0
  outer loop
    vertex 6.66684279623523 22.9994301958835 24
    vertex 6.66684279623523 22.9994301958835 21.6
    vertex 4.59220118838108 21.8905111533786 21.6
  endloop
endfacet
facet normal -.634393284163653 .773010453362731 0
  outer loop
    vertex 8.48528137423857 24.4917841692755 24
    vertex 8.48528137423857 24.4917841692755 21.6
    vertex 6.66684279623523 22.9994301958835 21.6
  endloop
endfacet
facet normal -.77301045336273 .634393284163654 0
  outer loop
    vertex 9.97763534763054 26.3102227472788 24
    vertex 9.97763534763054 26.3102227472788 21.6
    vertex 8.48528137423857 24.4917841692755 21.6
  endloop
endfacet
facet normal -.881921264348367 .471396736825975 0
  outer loop
    vertex 11.0865543901354 28.384864355133 24
    vertex 11.0865543901354 28.384864355133 21.6
    vertex 9.97763534763054 26.3102227472788 21.6
  endloop
endfacet
facet normal -.956940335732198 .290284677254497 0
  outer loop
    vertex 11.7694233648388 30.6359816793205 24
    vertex 11.7694233648388 30.6359816793205 21.6
    vertex 11.0865543901354 28.384864355133 21.6
  endloop
endfacet
facet normal -.995184726672199 9.80171403295432E-02 0
  outer loop
    vertex 12 32.9770655435141 24
    vertex 12 32.9770655435141 21.6
    vertex 11.7694233648388 30.6359816793205 21.6
  endloop
endfacet
facet normal .995184726672199 9.80171403295432E-02 0
  outer loop
    vertex -11.7694233648388 30.6359816793205 24
    vertex -12 32.9770655435141 21.6
    vertex -12 32.9770655435141 24
  endloop
endfacet
facet normal .956940335732198 .290284677254497 0
  outer loop
    vertex -11.0865543901354 28.384864355133 24
    vertex -11.7694233648388 30.6359816793205 21.6
    vertex -11.7694233648388 30.6359816793205 24
  endloop
endfacet
facet normal .881921264348367 .471396736825975 0
  outer loop
    vertex -9.97763534763054 26.3102227472788 24
    vertex -11.0865543901354 28.384864355133 21.6
    vertex -11.0865543901354 28.384864355133 24
  endloop
endfacet
facet normal .77301045336273 .634393284163654 0
  outer loop
    vertex -8.48528137423857 24.4917841692755 24
    vertex -9.97763534763054 26.3102227472788 21.6
    vertex -9.97763534763054 26.3102227472788 24
  endloop
endfacet
facet normal .634393284163653 .773010453362731 0
  outer loop
    vertex -6.66684279623523 22.9994301958835 24
    vertex -8.48528137423857 24.4917841692755 21.6
    vertex -8.48528137423857 24.4917841692755 24
  endloop
endfacet
facet normal .471396736825999 .881921264348355 0
  outer loop
    vertex -4.59220118838108 21.8905111533786 24
    vertex -6.66684279623523 22.9994301958835 21.6
    vertex -6.66684279623523 22.9994301958835 24
  endloop
endfacet
facet normal .290284677254453 .956940335732212 0
  outer loop
    vertex -2.34108386419354 21.2076421786753 24
    vertex -4.59220118838108 21.8905111533786 21.6
    vertex -4.59220118838108 21.8905111533786 24
  endloop
endfacet
facet normal 9.80171403295457E-02 .995184726672198 0
  outer loop
    vertex 7.34788079488412E-16 20.9770655435141 24
    vertex -2.34108386419354 21.2076421786753 21.6
    vertex -2.34108386419354 21.2076421786753 24
  endloop
endfacet
facet normal -9.80171403295457E-02 .995184726672198 0
  outer loop
    vertex 2.34108386419354 21.2076421786753 24
    vertex 7.34788079488412E-16 20.9770655435141 21.6
    vertex 7.34788079488412E-16 20.9770655435141 24
  endloop
endfacet
facet normal -.290284677254453 .956940335732212 0
  outer loop
    vertex 4.59220118838108 21.8905111533786 24
    vertex 2.34108386419354 21.2076421786753 21.6
    vertex 2.34108386419354 21.2076421786753 24
  endloop
endfacet
facet normal -.471396736825999 .881921264348355 0
  outer loop
    vertex 6.66684279623523 22.9994301958835 24
    vertex 4.59220118838108 21.8905111533786 21.6
    vertex 4.59220118838108 21.8905111533786 24
  endloop
endfacet
facet normal -.634393284163653 .773010453362731 0
  outer loop
    vertex 8.48528137423857 24.4917841692755 24
    vertex 6.66684279623523 22.9994301958835 21.6
    vertex 6.66684279623523 22.9994301958835 24
  endloop
endfacet
facet normal -.77301045336273 .634393284163654 0
  outer loop
    vertex 9.97763534763054 26.3102227472788 24
    vertex 8.48528137423857 24.4917841692755 21.6
    vertex 8.48528137423857 24.4917841692755 24
  endloop
endfacet
facet normal -.881921264348367 .471396736825975 0
  outer loop
    vertex 11.0865543901354 28.384864355133 24
    vertex 9.97763534763054 26.3102227472788 21.6
    vertex 9.97763534763054 26.3102227472788 24
  endloop
endfacet
facet normal -.956940335732198 .290284677254497 0
  outer loop
    vertex 11.7694233648388 30.6359816793205 24
    vertex 11.0865543901354 28.384864355133 21.6
    vertex 11.0865543901354 28.384864355133 24
  endloop
endfacet
facet normal -.995184726672199 9.80171403295432E-02 0
  outer loop
    vertex 12 32.9770655435141 24
    vertex 11.7694233648388 30.6359816793205 21.6
    vertex 11.7694233648388 30.6359816793205 24
  endloop
endfacet
facet normal -1 0 0
  outer loop
    vertex 12 32.9770655435141 24
    vertex 12 33.1870383359763 21.6
    vertex 12 32.9770655435141 21.6
  endloop
endfacet
facet normal 0 0 1
  outer loop
    vertex -12 33.1870383359763 21.6
    vertex -12 32.9770655435141 21.6
    vertex 0 33.1870383359763 21.6
  endloop
endfacet
facet normal 0 0 1
  outer loop
    vertex -12 32.9770655435141 21.6
    vertex -11.7694233648388 30.6359816793205 21.6
    vertex 0 33.1870383359763 21.6
  endloop
endfacet
facet normal 0 0 1
  outer loop
    vertex -11.7694233648388 30.6359816793205 21.6
    vertex -11.0865543901354 28.384864355133 21.6
    vertex 0 33.1870383359763 21.6
  endloop
endfacet
facet normal 0 0 1
  outer loop
    vertex -11.0865543901354 28.384864355133 21.6
    vertex -9.97763534763054 26.3102227472788 21.6
    vertex 0 33.1870383359763 21.6
  endloop
endfacet
facet normal 0 0 1
  outer loop
    vertex -9.97763534763054 26.3102227472788 21.6
    vertex -8.48528137423857 24.4917841692755 21.6
    vertex 0 33.1870383359763 21.6
  endloop
endfacet
facet normal 0 0 1
  outer loop
    vertex -8.48528137423857 24.4917841692755 21.6
    vertex -6.66684279623523 22.9994301958835 21.6
    vertex 0 33.1870383359763 21.6
  endloop
endfacet
facet normal 0 0 1
  outer loop
    vertex -6.66684279623523 22.9994301958835 21.6
    vertex -4.59220118838108 21.8905111533786 21.6
    vertex 0 33.1870383359763 21.6
  endloop
endfacet
facet normal 0 0 1
  outer loop
    vertex -4.59220118838108 21.8905111533786 21.6
    vertex -2.34108386419354 21.2076421786753 21.6
    vertex 0 33.1870383359763 21.6
  endloop
endfacet
facet normal 0 0 1
  outer loop
    vertex -2.34108386419354 21.2076421786753 21.6
    vertex 7.34788079488412E-16 20.9770655435141 21.6
    vertex 0 33.1870383359763 21.6
  endloop
endfacet
facet normal 0 0 1
  outer loop
    vertex 7.34788079488412E-16 20.9770655435141 21.6
    vertex 2.34108386419354 21.2076421786753 21.6
    vertex 0 33.1870383359763 21.6
  endloop
endfacet
facet normal 0 0 1
  outer loop
    vertex 2.34108386419354 21.2076421786753 21.6
    vertex 4.59220118838108 21.8905111533786 21.6
    vertex 0 33.1870383359763 21.6
  endloop
endfacet
facet normal 0 0 1
  outer loop
    vertex 4.59220118838108 21.8905111533786 21.6
    vertex 6.66684279623523 22.9994301958835 21.6
    vertex 0 33.1870383359763 21.6
  endloop
endfacet
facet normal 0 0 1
  outer loop
    vertex 6.66684279623523 22.9994301958835 21.6
    vertex 8.48528137423857 24.4917841692755 21.6
    vertex 0 33.1870383359763 21.6
  endloop
endfacet
facet normal 0 0 1
  outer loop
    vertex 8.48528137423857 24.4917841692755 21.6
    vertex 9.97763534763054 26.3102227472788 21.6
    vertex 0 33.1870383359763 21.6
  endloop
endfacet
facet normal 0 0 1
  outer loop
    vertex 9.97763534763054 26.3102227472788 21.6
    vertex 11.0865543901354 28.384864355133 21.6
    vertex 0 33.1870383359763 21.6
  endloop
endfacet
facet normal 0 0 1
  outer loop
    vertex 11.0865543901354 28.384864355133 21.6
    vertex 11.7694233648388 30.6359816793205 21.6
    vertex 0 33.1870383359763 21.6
  endloop
endfacet
facet normal 0 0 1
  outer loop
    vertex 11.7694233648388 30.6359816793205 21.6
    vertex 12 32.9770655435141 21.6
    vertex 0 33.1870383359763 21.6
  endloop
endfacet
facet normal 0 0 1
  outer loop
    vertex 12 32.9770655435141 21.6
    vertex 12 33.1870383359763 21.6
    vertex 0 33.1870383359763 21.6
  endloop
endfacet
facet normal .921118787038766 0 .389281620635026
  outer loop
    vertex 22.9642904295558 32.9770655435141 24
    vertex 25.5 -33.5 18
    vertex 25.5 33.5 18
  endloop
endfacet
facet normal 0 -.996223440096615 8.68265938642394E-02
  outer loop
    vertex 22.9642904295558 -32.9770655435141 24
    vertex -25.5 -33.5 18
    vertex 25.5 -33.5 18
  endloop
endfacet
facet normal -.921118787038766 0 .389281620635026
  outer loop
    vertex -22.9642904295558 -32.9770655435141 24
    vertex -25.5 33.5 18
    vertex -25.5 -33.5 18
  endloop
endfacet
facet normal 1 0 0
  outer loop
    vertex 25.5 33.5 18
    vertex 25.5 -33.5 6
    vertex 25.5 33.5 6
  endloop
endfacet
facet normal 0 -1 0
  outer loop
    vertex 25.5 -33.5 18
    vertex -25.5 -33.5 6
    vertex 25.5 -33.5 6
  endloop
endfacet
facet normal -1 0 0
  outer loop
    vertex -25.5 -33.5 18
    vertex -25.5 33.5 6
    vertex -25.5 -33.5 6
  endloop
endfacet
facet normal .996223440096615 0 -8.68265938642394E-02
  outer loop
    vertex 25.5 33.5 6
    vertex 24.9770655435141 -32.9770655435141 0
    vertex 24.9770655435141 32.9770655435141 0
  endloop
endfacet
facet normal 0 -.996223440096615 -8.68265938642394E-02
  outer loop
    vertex 25.5 -33.5 6
    vertex -24.9770655435141 -32.9770655435141 0
    vertex 24.9770655435141 -32.9770655435141 0
  endloop
endfacet
facet normal -.996223440096615 0 -8.68265938642394E-02
  outer loop
    vertex -25.5 -33.5 6
    vertex -24.9770655435141 32.9770655435141 0
    vertex -24.9770655435141 -32.9770655435141 0
  endloop
endfacet
facet normal .921118787038766 0 .389281620635026
  outer loop
    vertex 22.9642904295558 -32.9770655435141 24
    vertex 25.5 -33.5 18
    vertex 22.9642904295558 32.9770655435141 24
  endloop
endfacet
facet normal 0 -.996223440096615 8.68265938642394E-02
  outer loop
    vertex -22.9642904295558 -32.9770655435141 24
    vertex -25.5 -33.5 18
    vertex 22.9642904295558 -32.9770655435141 24
  endloop
endfacet
facet normal -.921118787038766 0 .389281620635026
  outer loop
    vertex -22.9642904295558 32.9770655435141 24
    vertex -25.5 33.5 18
    vertex -22.9642904295558 -32.9770655435141 24
  endloop
endfacet
facet normal 1 0 0
  outer loop
    vertex 25.5 -33.5 18
    vertex 25.5 -33.5 6
    vertex 25.5 33.5 18
  endloop
endfacet
facet normal 0 -1 0
  outer loop
    vertex -25.5 -33.5 18
    vertex -25.5 -33.5 6
    vertex 25.5 -33.5 18
  endloop
endfacet
facet normal -1 0 0
  outer loop
    vertex -25.5 33.5 18
    vertex -25.5 33.5 6
    vertex -25.5 -33.5 18
  endloop
endfacet
facet normal .996223440096615 0 -8.68265938642394E-02
  outer loop
    vertex 25.5 -33.5 6
    vertex 24.9770655435141 -32.9770655435141 0
    vertex 25.5 33.5 6
  endloop
endfacet
facet normal 0 -.996223440096615 -8.68265938642394E-02
  outer loop
    vertex -25.5 -33.5 6
    vertex -24.9770655435141 -32.9770655435141 0
    vertex 25.5 -33.5 6
  endloop
endfacet
facet normal -.996223440096615 0 -8.68265938642394E-02
  outer loop
    vertex -25.5 33.5 6
    vertex -24.9770655435141 32.9770655435141 0
    vertex -25.5 -33.5 6
  endloop
endfacet
facet normal 0 .996223440096615 -8.68265938642394E-02
  outer loop
    vertex 25.5 33.5 6
    vertex 24.9770655435141 32.9770655435141 0
    vertex -25.5 33.5 6
  endloop
endfacet
facet normal 0 .996223440096615 -8.68265938642394E-02
  outer loop
    vertex 24.9770655435141 32.9770655435141 0
    vertex -24.9770655435141 32.9770655435141 0
    vertex -25.5 33.5 6
  endloop
endfacet
facet normal 0 1 0
  outer loop
    vertex 25.5 33.5 18
    vertex 25.5 33.5 6
    vertex -25.5 33.5 18
  endloop
endfacet
facet normal 0 1 0
  outer loop
    vertex -25.5 33.5 18
    vertex 25.5 33.5 6
    vertex -25.5 33.5 6
  endloop
endfacet
facet normal 0 .996223440096615 8.68265938642394E-02
  outer loop
    vertex 25.5 33.5 18
    vertex 12 32.9770655435141 24
    vertex 22.9642904295558 32.9770655435141 24
  endloop
endfacet
facet normal 1.47401738039719E-04 .99619468726945 .087155741800821
  outer loop
    vertex 12 32.9770655435141 24
    vertex 25.5 33.5 18
    vertex 12 33.1870383359763 21.6
  endloop
endfacet
facet normal 0 .996242541931152 8.66071454705492E-02
  outer loop
    vertex 25.5 33.5 18
    vertex -12 33.1870383359763 21.6
    vertex 12 33.1870383359763 21.6
  endloop
endfacet
facet normal 0 .996242541931152 8.66071454705492E-02
  outer loop
    vertex 25.5 33.5 18
    vertex -25.5 33.5 18
    vertex -12 33.1870383359763 21.6
  endloop
endfacet
facet normal -6.64511818409359E-05 .996221008322752 8.68544654041424E-02
  outer loop
    vertex -22.9642904295558 32.9770655435141 24
    vertex -12 33.1870383359763 21.6
    vertex -25.5 33.5 18
  endloop
endfacet
facet normal 0 .996194698091746 8.71557427476493E-02
  outer loop
    vertex -22.9642904295558 32.9770655435141 24
    vertex -12 32.9770655435141 24
    vertex -12 33.1870383359763 21.6
  endloop
endfacet
facet normal -1 0 0
  outer loop
    vertex -33.5 24.68504 10
    vertex -33.5 24.68504 0
    vertex -33.5 14.68504 0
  endloop
endfacet
facet normal -1 0 0
  outer loop
    vertex -33.5 24.68504 10
    vertex -33.5 14.68504 0
    vertex -33.5 14.68504 10
  endloop
endfacet
facet normal 1 0 0
  outer loop
    vertex -25.5 14.68504 17
    vertex -25.5 14.68504 7
    vertex -25.5 24.68504 7
  endloop
endfacet
facet normal 1 0 0
  outer loop
    vertex -25.5 14.68504 17
    vertex -25.5 24.68504 7
    vertex -25.5 24.68504 17
  endloop
endfacet
facet normal 0 -1 0
  outer loop
    vertex -25.5 24.68504 7
    vertex -25.1887015436737 24.68504 7
    vertex -30.1887015436737 24.68504 17
  endloop
endfacet
facet normal 0 1 0
  outer loop
    vertex -25.1887015436737 24.68504 7
    vertex -34.85 24.68504 0
    vertex -39.85 24.68504 10
  endloop
endfacet
facet normal 0 -1 0
  outer loop
    vertex -34.85 24.68504 0
    vertex -33.5 24.68504 0
    vertex -33.5 24.68504 10
  endloop
endfacet
facet normal 0 1 0
  outer loop
    vertex -25.5 24.68504 7
    vertex -30.1887015436737 24.68504 17
    vertex -25.5 24.68504 17
  endloop
endfacet
facet normal 0 1 0
  outer loop
    vertex -25.1887015436737 24.68504 7
    vertex -39.85 24.68504 10
    vertex -30.1887015436737 24.68504 17
  endloop
endfacet
facet normal 0 -1 0
  outer loop
    vertex -34.85 24.68504 0
    vertex -33.5 24.68504 10
    vertex -39.85 24.68504 10
  endloop
endfacet
facet normal 0 1 0
  outer loop
    vertex -25.5 14.68504 7
    vertex -30.1887015436737 14.68504 17
    vertex -25.1887015436737 14.68504 7
  endloop
endfacet
facet normal 0 -1 0
  outer loop
    vertex -25.1887015436737 14.68504 7
    vertex -39.85 14.68504 10
    vertex -34.85 14.68504 0
  endloop
endfacet
facet normal 0 1 0
  outer loop
    vertex -34.85 14.68504 0
    vertex -33.5 14.68504 10
    vertex -33.5 14.68504 0
  endloop
endfacet
facet normal 0 -1 0
  outer loop
    vertex -25.5 14.68504 7
    vertex -25.5 14.68504 17
    vertex -30.1887015436737 14.68504 17
  endloop
endfacet
facet normal 0 -1 0
  outer loop
    vertex -25.1887015436737 14.68504 7
    vertex -30.1887015436737 14.68504 17
    vertex -39.85 14.68504 10
  endloop
endfacet
facet normal 0 1 0
  outer loop
    vertex -34.85 14.68504 0
    vertex -39.85 14.68504 10
    vertex -33.5 14.68504 10
  endloop
endfacet
facet normal 0 0 1
  outer loop
    vertex -25.5 24.68504 17
    vertex -30.1887015436737 24.68504 17
    vertex -30.1887015436737 14.68504 17
  endloop
endfacet
facet normal -.58672353589052 0 .809787313084198
  outer loop
    vertex -30.1887015436737 24.68504 17
    vertex -39.85 24.68504 10
    vertex -39.85 14.68504 10
  endloop
endfacet
facet normal 0 0 -1
  outer loop
    vertex -39.85 24.68504 10
    vertex -33.5 24.68504 10
    vertex -33.5 14.68504 10
  endloop
endfacet
facet normal 0 0 1
  outer loop
    vertex -25.5 24.68504 17
    vertex -30.1887015436737 14.68504 17
    vertex -25.5 14.68504 17
  endloop
endfacet
facet normal -.58672353589052 0 .809787313084198
  outer loop
    vertex -30.1887015436737 24.68504 17
    vertex -39.85 14.68504 10
    vertex -30.1887015436737 14.68504 17
  endloop
endfacet
facet normal 0 0 -1
  outer loop
    vertex -39.85 24.68504 10
    vertex -33.5 14.68504 10
    vertex -39.85 14.68504 10
  endloop
endfacet
facet normal 0 0 1
  outer loop
    vertex -25.5 24.68504 7
    vertex -25.1887015436737 14.68504 7
    vertex -25.1887015436737 24.68504 7
  endloop
endfacet
facet normal .58672353589052 0 -.809787313084198
  outer loop
    vertex -25.1887015436737 24.68504 7
    vertex -34.85 14.68504 0
    vertex -34.85 24.68504 0
  endloop
endfacet
facet normal 0 0 1
  outer loop
    vertex -34.85 24.68504 0
    vertex -33.5 14.68504 0
    vertex -33.5 24.68504 0
  endloop
endfacet
facet normal 0 0 1
  outer loop
    vertex -25.5 24.68504 7
    vertex -25.5 14.68504 7
    vertex -25.1887015436737 14.68504 7
  endloop
endfacet
facet normal .58672353589052 0 -.809787313084198
  outer loop
    vertex -25.1887015436737 24.68504 7
    vertex -25.1887015436737 14.68504 7
    vertex -34.85 14.68504 0
  endloop
endfacet
facet normal 0 0 1
  outer loop
    vertex -34.85 24.68504 0
    vertex -34.85 14.68504 0
    vertex -33.5 14.68504 0
  endloop
endfacet
facet normal -1 0 0
  outer loop
    vertex -33.5 5 10
    vertex -33.5 5 0
    vertex -33.5 -5 0
  endloop
endfacet
facet normal -1 0 0
  outer loop
    vertex -33.5 5 10
    vertex -33.5 -5 0
    vertex -33.5 -5 10
  endloop
endfacet
facet normal 1 0 0
  outer loop
    vertex -25.5 -5 17
    vertex -25.5 -5 7
    vertex -25.5 4.99999999999999 7
  endloop
endfacet
facet normal 1 0 0
  outer loop
    vertex -25.5 -5 17
    vertex -25.5 4.99999999999999 7
    vertex -25.5 4.99999999999999 17
  endloop
endfacet
facet normal 3.13845520854773E-14 -1 1.56922760427386E-14
  outer loop
    vertex -25.5 4.99999999999999 7
    vertex -25.1887015436737 5 7
    vertex -30.1887015436737 5 17
  endloop
endfacet
facet normal 0 1 0
  outer loop
    vertex -25.1887015436737 5 7
    vertex -34.85 5 0
    vertex -39.85 5 10
  endloop
endfacet
facet normal 0 -1 0
  outer loop
    vertex -34.85 5 0
    vertex -33.5 5 0
    vertex -33.5 5 10
  endloop
endfacet
facet normal 2.08372457186652E-15 1 0
  outer loop
    vertex -25.5 4.99999999999999 7
    vertex -30.1887015436737 5 17
    vertex -25.5 4.99999999999999 17
  endloop
endfacet
facet normal 0 1 0
  outer loop
    vertex -25.1887015436737 5 7
    vertex -39.85 5 10
    vertex -30.1887015436737 5 17
  endloop
endfacet
facet normal 0 -1 0
  outer loop
    vertex -34.85 5 0
    vertex -33.5 5 10
    vertex -39.85 5 10
  endloop
endfacet
facet normal 0 1 0
  outer loop
    vertex -25.5 -5 7
    vertex -30.1887015436737 -5 17
    vertex -25.1887015436737 -5 7
  endloop
endfacet
facet normal 0 -1 0
  outer loop
    vertex -25.1887015436737 -5 7
    vertex -39.85 -5 10
    vertex -34.85 -5 0
  endloop
endfacet
facet normal 0 1 0
  outer loop
    vertex -34.85 -5 0
    vertex -33.5 -5 10
    vertex -33.5 -5 0
  endloop
endfacet
facet normal 0 -1 0
  outer loop
    vertex -25.5 -5 7
    vertex -25.5 -5 17
    vertex -30.1887015436737 -5 17
  endloop
endfacet
facet normal 0 -1 0
  outer loop
    vertex -25.1887015436737 -5 7
    vertex -30.1887015436737 -5 17
    vertex -39.85 -5 10
  endloop
endfacet
facet normal 0 1 0
  outer loop
    vertex -34.85 -5 0
    vertex -39.85 -5 10
    vertex -33.5 -5 10
  endloop
endfacet
facet normal 0 0 1
  outer loop
    vertex -25.5 4.99999999999999 17
    vertex -30.1887015436737 5 17
    vertex -30.1887015436737 -5 17
  endloop
endfacet
facet normal -.58672353589052 0 .809787313084198
  outer loop
    vertex -30.1887015436737 5 17
    vertex -39.85 5 10
    vertex -39.85 -5 10
  endloop
endfacet
facet normal 0 0 -1
  outer loop
    vertex -39.85 5 10
    vertex -33.5 5 10
    vertex -33.5 -5 10
  endloop
endfacet
facet normal 0 0 1
  outer loop
    vertex -25.5 4.99999999999999 17
    vertex -30.1887015436737 -5 17
    vertex -25.5 -5 17
  endloop
endfacet
facet normal -.58672353589052 0 .809787313084198
  outer loop
    vertex -30.1887015436737 5 17
    vertex -39.85 -5 10
    vertex -30.1887015436737 -5 17
  endloop
endfacet
facet normal 0 0 -1
  outer loop
    vertex -39.85 5 10
    vertex -33.5 -5 10
    vertex -39.85 -5 10
  endloop
endfacet
facet normal 0 0 1
  outer loop
    vertex -25.5 4.99999999999999 7
    vertex -25.1887015436737 -5 7
    vertex -25.1887015436737 5 7
  endloop
endfacet
facet normal .58672353589052 0 -.809787313084198
  outer loop
    vertex -25.1887015436737 5 7
    vertex -34.85 -5 0
    vertex -34.85 5 0
  endloop
endfacet
facet normal 0 0 1
  outer loop
    vertex -34.85 5 0
    vertex -33.5 -5 0
    vertex -33.5 5 0
  endloop
endfacet
facet normal 0 0 1
  outer loop
    vertex -25.5 4.99999999999999 7
    vertex -25.5 -5 7
    vertex -25.1887015436737 -5 7
  endloop
endfacet
facet normal .58672353589052 0 -.809787313084198
  outer loop
    vertex -25.1887015436737 5 7
    vertex -25.1887015436737 -5 7
    vertex -34.85 -5 0
  endloop
endfacet
facet normal 0 0 1
  outer loop
    vertex -34.85 5 0
    vertex -34.85 -5 0
    vertex -33.5 -5 0
  endloop
endfacet
facet normal -1 0 0
  outer loop
    vertex -33.5 -14.68504 10
    vertex -33.5 -14.68504 0
    vertex -33.5 -24.68504 0
  endloop
endfacet
facet normal -1 0 0
  outer loop
    vertex -33.5 -14.68504 10
    vertex -33.5 -24.68504 0
    vertex -33.5 -24.68504 10
  endloop
endfacet
facet normal 1 0 0
  outer loop
    vertex -25.5 -24.68504 17
    vertex -25.5 -24.68504 7
    vertex -25.5 -14.68504 7
  endloop
endfacet
facet normal 1 0 0
  outer loop
    vertex -25.5 -24.68504 17
    vertex -25.5 -14.68504 7
    vertex -25.5 -14.68504 17
  endloop
endfacet
facet normal 0 -1 0
  outer loop
    vertex -25.5 -14.68504 7
    vertex -25.1887015436737 -14.68504 7
    vertex -30.1887015436737 -14.68504 17
  endloop
endfacet
facet normal 0 1 0
  outer loop
    vertex -25.1887015436737 -14.68504 7
    vertex -34.85 -14.68504 0
    vertex -39.85 -14.68504 10
  endloop
endfacet
facet normal 0 -1 0
  outer loop
    vertex -34.85 -14.68504 0
    vertex -33.5 -14.68504 0
    vertex -33.5 -14.68504 10
  endloop
endfacet
facet normal 0 1 0
  outer loop
    vertex -25.5 -14.68504 7
    vertex -30.1887015436737 -14.68504 17
    vertex -25.5 -14.68504 17
  endloop
endfacet
facet normal 0 1 0
  outer loop
    vertex -25.1887015436737 -14.68504 7
    vertex -39.85 -14.68504 10
    vertex -30.1887015436737 -14.68504 17
  endloop
endfacet
facet normal 0 -1 0
  outer loop
    vertex -34.85 -14.68504 0
    vertex -33.5 -14.68504 10
    vertex -39.85 -14.68504 10
  endloop
endfacet
facet normal 0 1 0
  outer loop
    vertex -25.5 -24.68504 7
    vertex -30.1887015436737 -24.68504 17
    vertex -25.1887015436737 -24.68504 7
  endloop
endfacet
facet normal 0 -1 0
  outer loop
    vertex -25.1887015436737 -24.68504 7
    vertex -39.85 -24.68504 10
    vertex -34.85 -24.68504 0
  endloop
endfacet
facet normal 0 1 0
  outer loop
    vertex -34.85 -24.68504 0
    vertex -33.5 -24.68504 10
    vertex -33.5 -24.68504 0
  endloop
endfacet
facet normal 0 -1 0
  outer loop
    vertex -25.5 -24.68504 7
    vertex -25.5 -24.68504 17
    vertex -30.1887015436737 -24.68504 17
  endloop
endfacet
facet normal 0 -1 0
  outer loop
    vertex -25.1887015436737 -24.68504 7
    vertex -30.1887015436737 -24.68504 17
    vertex -39.85 -24.68504 10
  endloop
endfacet
facet normal 0 1 0
  outer loop
    vertex -34.85 -24.68504 0
    vertex -39.85 -24.68504 10
    vertex -33.5 -24.68504 10
  endloop
endfacet
facet normal 0 0 1
  outer loop
    vertex -25.5 -14.68504 17
    vertex -30.1887015436737 -14.68504 17
    vertex -30.1887015436737 -24.68504 17
  endloop
endfacet
facet normal -.58672353589052 0 .809787313084198
  outer loop
    vertex -30.1887015436737 -14.68504 17
    vertex -39.85 -14.68504 10
    vertex -39.85 -24.68504 10
  endloop
endfacet
facet normal 0 0 -1
  outer loop
    vertex -39.85 -14.68504 10
    vertex -33.5 -14.68504 10
    vertex -33.5 -24.68504 10
  endloop
endfacet
facet normal 0 0 1
  outer loop
    vertex -25.5 -14.68504 17
    vertex -30.1887015436737 -24.68504 17
    vertex -25.5 -24.68504 17
  endloop
endfacet
facet normal -.58672353589052 0 .809787313084198
  outer loop
    vertex -30.1887015436737 -14.68504 17
    vertex -39.85 -24.68504 10
    vertex -30.1887015436737 -24.68504 17
  endloop
endfacet
facet normal 0 0 -1
  outer loop
    vertex -39.85 -14.68504 10
    vertex -33.5 -24.68504 10
    vertex -39.85 -24.68504 10
  endloop
endfacet
facet normal 0 0 1
  outer loop
    vertex -25.5 -14.68504 7
    vertex -25.1887015436737 -24.68504 7
    vertex -25.1887015436737 -14.68504 7
  endloop
endfacet
facet normal .58672353589052 0 -.809787313084198
  outer loop
    vertex -25.1887015436737 -14.68504 7
    vertex -34.85 -24.68504 0
    vertex -34.85 -14.68504 0
  endloop
endfacet
facet normal 0 0 1
  outer loop
    vertex -34.85 -14.68504 0
    vertex -33.5 -24.68504 0
    vertex -33.5 -14.68504 0
  endloop
endfacet
facet normal 0 0 1
  outer loop
    vertex -25.5 -14.68504 7
    vertex -25.5 -24.68504 7
    vertex -25.1887015436737 -24.68504 7
  endloop
endfacet
facet normal .58672353589052 0 -.809787313084198
  outer loop
    vertex -25.1887015436737 -14.68504 7
    vertex -25.1887015436737 -24.68504 7
    vertex -34.85 -24.68504 0
  endloop
endfacet
facet normal 0 0 1
  outer loop
    vertex -34.85 -14.68504 0
    vertex -34.85 -24.68504 0
    vertex -33.5 -24.68504 0
  endloop
endfacet
facet normal 1 0 0
  outer loop
    vertex 33.5 14.68504 10
    vertex 33.5 14.68504 0
    vertex 33.5 24.68504 0
  endloop
endfacet
facet normal 1 0 0
  outer loop
    vertex 33.5 14.68504 10
    vertex 33.5 24.68504 0
    vertex 33.5 24.68504 10
  endloop
endfacet
facet normal -1 0 0
  outer loop
    vertex 25.5 24.68504 17
    vertex 25.5 24.68504 7
    vertex 25.5 14.68504 7
  endloop
endfacet
facet normal -1 0 0
  outer loop
    vertex 25.5 24.68504 17
    vertex 25.5 14.68504 7
    vertex 25.5 14.68504 17
  endloop
endfacet
facet normal 0 1 0
  outer loop
    vertex 25.5 14.68504 7
    vertex 25.1887015436737 14.68504 7
    vertex 30.1887015436737 14.68504 17
  endloop
endfacet
facet normal 0 -1 0
  outer loop
    vertex 25.1887015436737 14.68504 7
    vertex 34.85 14.68504 0
    vertex 39.85 14.68504 10
  endloop
endfacet
facet normal 0 1 0
  outer loop
    vertex 34.85 14.68504 0
    vertex 33.5 14.68504 0
    vertex 33.5 14.68504 10
  endloop
endfacet
facet normal 0 -1 0
  outer loop
    vertex 25.5 14.68504 7
    vertex 30.1887015436737 14.68504 17
    vertex 25.5 14.68504 17
  endloop
endfacet
facet normal 0 -1 0
  outer loop
    vertex 25.1887015436737 14.68504 7
    vertex 39.85 14.68504 10
    vertex 30.1887015436737 14.68504 17
  endloop
endfacet
facet normal 0 1 0
  outer loop
    vertex 34.85 14.68504 0
    vertex 33.5 14.68504 10
    vertex 39.85 14.68504 10
  endloop
endfacet
facet normal 0 -1 0
  outer loop
    vertex 25.5 24.68504 7
    vertex 30.1887015436737 24.68504 17
    vertex 25.1887015436737 24.68504 7
  endloop
endfacet
facet normal 0 1 0
  outer loop
    vertex 25.1887015436737 24.68504 7
    vertex 39.85 24.68504 10
    vertex 34.85 24.68504 0
  endloop
endfacet
facet normal 0 -1 0
  outer loop
    vertex 34.85 24.68504 0
    vertex 33.5 24.68504 10
    vertex 33.5 24.68504 0
  endloop
endfacet
facet normal 0 1 0
  outer loop
    vertex 25.5 24.68504 7
    vertex 25.5 24.68504 17
    vertex 30.1887015436737 24.68504 17
  endloop
endfacet
facet normal 0 1 0
  outer loop
    vertex 25.1887015436737 24.68504 7
    vertex 30.1887015436737 24.68504 17
    vertex 39.85 24.68504 10
  endloop
endfacet
facet normal 0 -1 0
  outer loop
    vertex 34.85 24.68504 0
    vertex 39.85 24.68504 10
    vertex 33.5 24.68504 10
  endloop
endfacet
facet normal 0 0 1
  outer loop
    vertex 25.5 14.68504 17
    vertex 30.1887015436737 14.68504 17
    vertex 30.1887015436737 24.68504 17
  endloop
endfacet
facet normal .58672353589052 0 .809787313084198
  outer loop
    vertex 30.1887015436737 14.68504 17
    vertex 39.85 14.68504 10
    vertex 39.85 24.68504 10
  endloop
endfacet
facet normal 0 0 -1
  outer loop
    vertex 39.85 14.68504 10
    vertex 33.5 14.68504 10
    vertex 33.5 24.68504 10
  endloop
endfacet
facet normal 0 0 1
  outer loop
    vertex 25.5 14.68504 17
    vertex 30.1887015436737 24.68504 17
    vertex 25.5 24.68504 17
  endloop
endfacet
facet normal .58672353589052 0 .809787313084198
  outer loop
    vertex 30.1887015436737 14.68504 17
    vertex 39.85 24.68504 10
    vertex 30.1887015436737 24.68504 17
  endloop
endfacet
facet normal 0 0 -1
  outer loop
    vertex 39.85 14.68504 10
    vertex 33.5 24.68504 10
    vertex 39.85 24.68504 10
  endloop
endfacet
facet normal 0 0 1
  outer loop
    vertex 25.5 14.68504 7
    vertex 25.1887015436737 24.68504 7
    vertex 25.1887015436737 14.68504 7
  endloop
endfacet
facet normal -.58672353589052 0 -.809787313084198
  outer loop
    vertex 25.1887015436737 14.68504 7
    vertex 34.85 24.68504 0
    vertex 34.85 14.68504 0
  endloop
endfacet
facet normal 0 0 1
  outer loop
    vertex 34.85 14.68504 0
    vertex 33.5 24.68504 0
    vertex 33.5 14.68504 0
  endloop
endfacet
facet normal 0 0 1
  outer loop
    vertex 25.5 14.68504 7
    vertex 25.5 24.68504 7
    vertex 25.1887015436737 24.68504 7
  endloop
endfacet
facet normal -.58672353589052 0 -.809787313084198
  outer loop
    vertex 25.1887015436737 14.68504 7
    vertex 25.1887015436737 24.68504 7
    vertex 34.85 24.68504 0
  endloop
endfacet
facet normal 0 0 1
  outer loop
    vertex 34.85 14.68504 0
    vertex 34.85 24.68504 0
    vertex 33.5 24.68504 0
  endloop
endfacet
facet normal 1 0 0
  outer loop
    vertex 33.5 -24.68504 10
    vertex 33.5 -24.68504 0
    vertex 33.5 -14.68504 0
  endloop
endfacet
facet normal 1 0 0
  outer loop
    vertex 33.5 -24.68504 10
    vertex 33.5 -14.68504 0
    vertex 33.5 -14.68504 10
  endloop
endfacet
facet normal -1 0 0
  outer loop
    vertex 25.5 -14.68504 17
    vertex 25.5 -14.68504 7
    vertex 25.5 -24.68504 7
  endloop
endfacet
facet normal -1 0 0
  outer loop
    vertex 25.5 -14.68504 17
    vertex 25.5 -24.68504 7
    vertex 25.5 -24.68504 17
  endloop
endfacet
facet normal 0 1 0
  outer loop
    vertex 25.5 -24.68504 7
    vertex 25.1887015436737 -24.68504 7
    vertex 30.1887015436737 -24.68504 17
  endloop
endfacet
facet normal 0 -1 0
  outer loop
    vertex 25.1887015436737 -24.68504 7
    vertex 34.85 -24.68504 0
    vertex 39.85 -24.68504 10
  endloop
endfacet
facet normal 0 1 0
  outer loop
    vertex 34.85 -24.68504 0
    vertex 33.5 -24.68504 0
    vertex 33.5 -24.68504 10
  endloop
endfacet
facet normal 0 -1 0
  outer loop
    vertex 25.5 -24.68504 7
    vertex 30.1887015436737 -24.68504 17
    vertex 25.5 -24.68504 17
  endloop
endfacet
facet normal 0 -1 0
  outer loop
    vertex 25.1887015436737 -24.68504 7
    vertex 39.85 -24.68504 10
    vertex 30.1887015436737 -24.68504 17
  endloop
endfacet
facet normal 0 1 0
  outer loop
    vertex 34.85 -24.68504 0
    vertex 33.5 -24.68504 10
    vertex 39.85 -24.68504 10
  endloop
endfacet
facet normal 0 -1 0
  outer loop
    vertex 25.5 -14.68504 7
    vertex 30.1887015436737 -14.68504 17
    vertex 25.1887015436737 -14.68504 7
  endloop
endfacet
facet normal 0 1 0
  outer loop
    vertex 25.1887015436737 -14.68504 7
    vertex 39.85 -14.68504 10
    vertex 34.85 -14.68504 0
  endloop
endfacet
facet normal 0 -1 0
  outer loop
    vertex 34.85 -14.68504 0
    vertex 33.5 -14.68504 10
    vertex 33.5 -14.68504 0
  endloop
endfacet
facet normal 0 1 0
  outer loop
    vertex 25.5 -14.68504 7
    vertex 25.5 -14.68504 17
    vertex 30.1887015436737 -14.68504 17
  endloop
endfacet
facet normal 0 1 0
  outer loop
    vertex 25.1887015436737 -14.68504 7
    vertex 30.1887015436737 -14.68504 17
    vertex 39.85 -14.68504 10
  endloop
endfacet
facet normal 0 -1 0
  outer loop
    vertex 34.85 -14.68504 0
    vertex 39.85 -14.68504 10
    vertex 33.5 -14.68504 10
  endloop
endfacet
facet normal 0 0 1
  outer loop
    vertex 25.5 -24.68504 17
    vertex 30.1887015436737 -24.68504 17
    vertex 30.1887015436737 -14.68504 17
  endloop
endfacet
facet normal .58672353589052 0 .809787313084198
  outer loop
    vertex 30.1887015436737 -24.68504 17
    vertex 39.85 -24.68504 10
    vertex 39.85 -14.68504 10
  endloop
endfacet
facet normal 0 0 -1
  outer loop
    vertex 39.85 -24.68504 10
    vertex 33.5 -24.68504 10
    vertex 33.5 -14.68504 10
  endloop
endfacet
facet normal 0 0 1
  outer loop
    vertex 25.5 -24.68504 17
    vertex 30.1887015436737 -14.68504 17
    vertex 25.5 -14.68504 17
  endloop
endfacet
facet normal .58672353589052 0 .809787313084198
  outer loop
    vertex 30.1887015436737 -24.68504 17
    vertex 39.85 -14.68504 10
    vertex 30.1887015436737 -14.68504 17
  endloop
endfacet
facet normal 0 0 -1
  outer loop
    vertex 39.85 -24.68504 10
    vertex 33.5 -14.68504 10
    vertex 39.85 -14.68504 10
  endloop
endfacet
facet normal 0 0 1
  outer loop
    vertex 25.5 -24.68504 7
    vertex 25.1887015436737 -14.68504 7
    vertex 25.1887015436737 -24.68504 7
  endloop
endfacet
facet normal -.58672353589052 0 -.809787313084198
  outer loop
    vertex 25.1887015436737 -24.68504 7
    vertex 34.85 -14.68504 0
    vertex 34.85 -24.68504 0
  endloop
endfacet
facet normal 0 0 1
  outer loop
    vertex 34.85 -24.68504 0
    vertex 33.5 -14.68504 0
    vertex 33.5 -24.68504 0
  endloop
endfacet
facet normal 0 0 1
  outer loop
    vertex 25.5 -24.68504 7
    vertex 25.5 -14.68504 7
    vertex 25.1887015436737 -14.68504 7
  endloop
endfacet
facet normal -.58672353589052 0 -.809787313084198
  outer loop
    vertex 25.1887015436737 -24.68504 7
    vertex 25.1887015436737 -14.68504 7
    vertex 34.85 -14.68504 0
  endloop
endfacet
facet normal 0 0 1
  outer loop
    vertex 34.85 -24.68504 0
    vertex 34.85 -14.68504 0
    vertex 33.5 -14.68504 0
  endloop
endfacet
endsolid DRL5
