solid FPT-8P-M02-L
facet normal 0 0 -1
  outer loop
    vertex -53.9327612786494 75 69
    vertex -49.862502364976 75.8096248363669 69
    vertex -49.7827612786494 75 69
  endloop
endfacet
facet normal 0 0 -1
  outer loop
    vertex -53.9327612786494 75 69
    vertex -50.0986612187275 76.5881362443151 69
    vertex -49.862502364976 75.8096248363669 69
  endloop
endfacet
facet normal 0 0 -1
  outer loop
    vertex -53.9327612786494 75 69
    vertex -50.4821623875938 77.3056164670313 69
    vertex -50.0986612187275 76.5881362443151 69
  endloop
endfacet
facet normal 0 0 -1
  outer loop
    vertex -53.9327612786494 75 69
    vertex -50.9982681367252 77.9344931419242 69
    vertex -50.4821623875938 77.3056164670313 69
  endloop
endfacet
facet normal 0 0 -1
  outer loop
    vertex -53.9327612786494 75 69
    vertex -51.627144811618 78.4505988910556 69
    vertex -50.9982681367252 77.9344931419242 69
  endloop
endfacet
facet normal 0 0 -1
  outer loop
    vertex -53.9327612786494 75 69
    vertex -52.3446250343342 78.8341000599218 69
    vertex -51.627144811618 78.4505988910556 69
  endloop
endfacet
facet normal 0 0 -1
  outer loop
    vertex -53.9327612786494 75 69
    vertex -53.1231364422824 79.0702589136734 69
    vertex -52.3446250343342 78.8341000599218 69
  endloop
endfacet
facet normal 0 0 -1
  outer loop
    vertex -53.9327612786494 75 69
    vertex -53.9327612786494 79.15 69
    vertex -53.1231364422824 79.0702589136734 69
  endloop
endfacet
facet normal 0 0 -1
  outer loop
    vertex -53.9327612786494 75 69
    vertex -54.7423861150163 79.0702589136734 69
    vertex -53.9327612786494 79.15 69
  endloop
endfacet
facet normal 0 0 -1
  outer loop
    vertex -53.9327612786494 75 69
    vertex -55.5208975229645 78.8341000599218 69
    vertex -54.7423861150163 79.0702589136734 69
  endloop
endfacet
facet normal 0 0 -1
  outer loop
    vertex -53.9327612786494 75 69
    vertex -56.2383777456807 78.4505988910556 69
    vertex -55.5208975229645 78.8341000599218 69
  endloop
endfacet
facet normal 0 0 -1
  outer loop
    vertex -53.9327612786494 75 69
    vertex -56.8672544205735 77.9344931419242 69
    vertex -56.2383777456807 78.4505988910556 69
  endloop
endfacet
facet normal 0 0 -1
  outer loop
    vertex -53.9327612786494 75 69
    vertex -57.3833601697049 77.3056164670313 69
    vertex -56.8672544205735 77.9344931419242 69
  endloop
endfacet
facet normal 0 0 -1
  outer loop
    vertex -53.9327612786494 75 69
    vertex -57.7668613385712 76.5881362443151 69
    vertex -57.3833601697049 77.3056164670313 69
  endloop
endfacet
facet normal 0 0 -1
  outer loop
    vertex -53.9327612786494 75 69
    vertex -58.0030201923228 75.8096248363669 69
    vertex -57.7668613385712 76.5881362443151 69
  endloop
endfacet
facet normal 0 0 -1
  outer loop
    vertex -53.9327612786494 75 69
    vertex -58.0827612786494 75 69
    vertex -58.0030201923228 75.8096248363669 69
  endloop
endfacet
facet normal 0 0 -1
  outer loop
    vertex -53.9327612786494 75 69
    vertex -58.0030201923228 74.1903751636331 69
    vertex -58.0827612786494 75 69
  endloop
endfacet
facet normal 0 0 -1
  outer loop
    vertex -53.9327612786494 75 69
    vertex -57.7668613385712 73.4118637556849 69
    vertex -58.0030201923228 74.1903751636331 69
  endloop
endfacet
facet normal 0 0 -1
  outer loop
    vertex -53.9327612786494 75 69
    vertex -57.3833601697049 72.6943835329687 69
    vertex -57.7668613385712 73.4118637556849 69
  endloop
endfacet
facet normal 0 0 -1
  outer loop
    vertex -53.9327612786494 75 69
    vertex -56.8672544205735 72.0655068580758 69
    vertex -57.3833601697049 72.6943835329687 69
  endloop
endfacet
facet normal 0 0 -1
  outer loop
    vertex -53.9327612786494 75 69
    vertex -56.2383777456807 71.5494011089444 69
    vertex -56.8672544205735 72.0655068580758 69
  endloop
endfacet
facet normal 0 0 -1
  outer loop
    vertex -53.9327612786494 75 69
    vertex -55.5208975229645 71.1658999400782 69
    vertex -56.2383777456807 71.5494011089444 69
  endloop
endfacet
facet normal 0 0 -1
  outer loop
    vertex -53.9327612786494 75 69
    vertex -54.7423861150163 70.9297410863266 69
    vertex -55.5208975229645 71.1658999400782 69
  endloop
endfacet
facet normal 0 0 -1
  outer loop
    vertex -53.9327612786494 75 69
    vertex -53.9327612786494 70.85 69
    vertex -54.7423861150163 70.9297410863266 69
  endloop
endfacet
facet normal 0 0 -1
  outer loop
    vertex -53.9327612786494 75 69
    vertex -53.1231364422824 70.9297410863266 69
    vertex -53.9327612786494 70.85 69
  endloop
endfacet
facet normal 0 0 -1
  outer loop
    vertex -53.9327612786494 75 69
    vertex -52.3446250343342 71.1658999400782 69
    vertex -53.1231364422824 70.9297410863266 69
  endloop
endfacet
facet normal 0 0 -1
  outer loop
    vertex -53.9327612786494 75 69
    vertex -51.627144811618 71.5494011089444 69
    vertex -52.3446250343342 71.1658999400782 69
  endloop
endfacet
facet normal 0 0 -1
  outer loop
    vertex -53.9327612786494 75 69
    vertex -50.9982681367252 72.0655068580758 69
    vertex -51.627144811618 71.5494011089444 69
  endloop
endfacet
facet normal 0 0 -1
  outer loop
    vertex -53.9327612786494 75 69
    vertex -50.4821623875938 72.6943835329687 69
    vertex -50.9982681367252 72.0655068580758 69
  endloop
endfacet
facet normal 0 0 -1
  outer loop
    vertex -53.9327612786494 75 69
    vertex -50.0986612187275 73.4118637556849 69
    vertex -50.4821623875938 72.6943835329687 69
  endloop
endfacet
facet normal 0 0 -1
  outer loop
    vertex -53.9327612786494 75 69
    vertex -49.862502364976 74.1903751636331 69
    vertex -50.0986612187275 73.4118637556849 69
  endloop
endfacet
facet normal 0 0 -1
  outer loop
    vertex -53.9327612786494 75 69
    vertex -49.7827612786494 75 69
    vertex -49.862502364976 74.1903751636331 69
  endloop
endfacet
facet normal 0 0 1
  outer loop
    vertex -53.9327612786494 75 69.1
    vertex -49.7827612786494 75 69.1
    vertex -49.862502364976 75.8096248363669 69.1
  endloop
endfacet
facet normal 0 0 1
  outer loop
    vertex -53.9327612786494 75 69.1
    vertex -49.862502364976 75.8096248363669 69.1
    vertex -50.0986612187275 76.5881362443151 69.1
  endloop
endfacet
facet normal 0 0 1
  outer loop
    vertex -53.9327612786494 75 69.1
    vertex -50.0986612187275 76.5881362443151 69.1
    vertex -50.4821623875938 77.3056164670313 69.1
  endloop
endfacet
facet normal 0 0 1
  outer loop
    vertex -53.9327612786494 75 69.1
    vertex -50.4821623875938 77.3056164670313 69.1
    vertex -50.9982681367252 77.9344931419242 69.1
  endloop
endfacet
facet normal 0 0 1
  outer loop
    vertex -53.9327612786494 75 69.1
    vertex -50.9982681367252 77.9344931419242 69.1
    vertex -51.627144811618 78.4505988910556 69.1
  endloop
endfacet
facet normal 0 0 1
  outer loop
    vertex -53.9327612786494 75 69.1
    vertex -51.627144811618 78.4505988910556 69.1
    vertex -52.3446250343342 78.8341000599218 69.1
  endloop
endfacet
facet normal 0 0 1
  outer loop
    vertex -53.9327612786494 75 69.1
    vertex -52.3446250343342 78.8341000599218 69.1
    vertex -53.1231364422824 79.0702589136734 69.1
  endloop
endfacet
facet normal 0 0 1
  outer loop
    vertex -53.9327612786494 75 69.1
    vertex -53.1231364422824 79.0702589136734 69.1
    vertex -53.9327612786494 79.15 69.1
  endloop
endfacet
facet normal 0 0 1
  outer loop
    vertex -53.9327612786494 75 69.1
    vertex -53.9327612786494 79.15 69.1
    vertex -54.7423861150163 79.0702589136734 69.1
  endloop
endfacet
facet normal 0 0 1
  outer loop
    vertex -53.9327612786494 75 69.1
    vertex -54.7423861150163 79.0702589136734 69.1
    vertex -55.5208975229645 78.8341000599218 69.1
  endloop
endfacet
facet normal 0 0 1
  outer loop
    vertex -53.9327612786494 75 69.1
    vertex -55.5208975229645 78.8341000599218 69.1
    vertex -56.2383777456807 78.4505988910556 69.1
  endloop
endfacet
facet normal 0 0 1
  outer loop
    vertex -53.9327612786494 75 69.1
    vertex -56.2383777456807 78.4505988910556 69.1
    vertex -56.8672544205735 77.9344931419242 69.1
  endloop
endfacet
facet normal 0 0 1
  outer loop
    vertex -53.9327612786494 75 69.1
    vertex -56.8672544205735 77.9344931419242 69.1
    vertex -57.3833601697049 77.3056164670313 69.1
  endloop
endfacet
facet normal 0 0 1
  outer loop
    vertex -53.9327612786494 75 69.1
    vertex -57.3833601697049 77.3056164670313 69.1
    vertex -57.7668613385712 76.5881362443151 69.1
  endloop
endfacet
facet normal 0 0 1
  outer loop
    vertex -53.9327612786494 75 69.1
    vertex -57.7668613385712 76.5881362443151 69.1
    vertex -58.0030201923228 75.8096248363669 69.1
  endloop
endfacet
facet normal 0 0 1
  outer loop
    vertex -53.9327612786494 75 69.1
    vertex -58.0030201923228 75.8096248363669 69.1
    vertex -58.0827612786494 75 69.1
  endloop
endfacet
facet normal 0 0 1
  outer loop
    vertex -53.9327612786494 75 69.1
    vertex -58.0827612786494 75 69.1
    vertex -58.0030201923228 74.1903751636331 69.1
  endloop
endfacet
facet normal 0 0 1
  outer loop
    vertex -53.9327612786494 75 69.1
    vertex -58.0030201923228 74.1903751636331 69.1
    vertex -57.7668613385712 73.4118637556849 69.1
  endloop
endfacet
facet normal 0 0 1
  outer loop
    vertex -53.9327612786494 75 69.1
    vertex -57.7668613385712 73.4118637556849 69.1
    vertex -57.3833601697049 72.6943835329687 69.1
  endloop
endfacet
facet normal 0 0 1
  outer loop
    vertex -53.9327612786494 75 69.1
    vertex -57.3833601697049 72.6943835329687 69.1
    vertex -56.8672544205735 72.0655068580758 69.1
  endloop
endfacet
facet normal 0 0 1
  outer loop
    vertex -53.9327612786494 75 69.1
    vertex -56.8672544205735 72.0655068580758 69.1
    vertex -56.2383777456807 71.5494011089444 69.1
  endloop
endfacet
facet normal 0 0 1
  outer loop
    vertex -53.9327612786494 75 69.1
    vertex -56.2383777456807 71.5494011089444 69.1
    vertex -55.5208975229645 71.1658999400782 69.1
  endloop
endfacet
facet normal 0 0 1
  outer loop
    vertex -53.9327612786494 75 69.1
    vertex -55.5208975229645 71.1658999400782 69.1
    vertex -54.7423861150163 70.9297410863266 69.1
  endloop
endfacet
facet normal 0 0 1
  outer loop
    vertex -53.9327612786494 75 69.1
    vertex -54.7423861150163 70.9297410863266 69.1
    vertex -53.9327612786494 70.85 69.1
  endloop
endfacet
facet normal 0 0 1
  outer loop
    vertex -53.9327612786494 75 69.1
    vertex -53.9327612786494 70.85 69.1
    vertex -53.1231364422824 70.9297410863266 69.1
  endloop
endfacet
facet normal 0 0 1
  outer loop
    vertex -53.9327612786494 75 69.1
    vertex -53.1231364422824 70.9297410863266 69.1
    vertex -52.3446250343342 71.1658999400782 69.1
  endloop
endfacet
facet normal 0 0 1
  outer loop
    vertex -53.9327612786494 75 69.1
    vertex -52.3446250343342 71.1658999400782 69.1
    vertex -51.627144811618 71.5494011089444 69.1
  endloop
endfacet
facet normal 0 0 1
  outer loop
    vertex -53.9327612786494 75 69.1
    vertex -51.627144811618 71.5494011089444 69.1
    vertex -50.9982681367252 72.0655068580758 69.1
  endloop
endfacet
facet normal 0 0 1
  outer loop
    vertex -53.9327612786494 75 69.1
    vertex -50.9982681367252 72.0655068580758 69.1
    vertex -50.4821623875938 72.6943835329687 69.1
  endloop
endfacet
facet normal 0 0 1
  outer loop
    vertex -53.9327612786494 75 69.1
    vertex -50.4821623875938 72.6943835329687 69.1
    vertex -50.0986612187275 73.4118637556849 69.1
  endloop
endfacet
facet normal 0 0 1
  outer loop
    vertex -53.9327612786494 75 69.1
    vertex -50.0986612187275 73.4118637556849 69.1
    vertex -49.862502364976 74.1903751636331 69.1
  endloop
endfacet
facet normal 0 0 1
  outer loop
    vertex -53.9327612786494 75 69.1
    vertex -49.862502364976 74.1903751636331 69.1
    vertex -49.7827612786494 75 69.1
  endloop
endfacet
facet normal .995184726672196 9.80171403295724E-02 0
  outer loop
    vertex -49.7827612786494 75 69
    vertex -49.862502364976 75.8096248363669 69.1
    vertex -49.7827612786494 75 69.1
  endloop
endfacet
facet normal .956940335732233 .290284677254381 0
  outer loop
    vertex -49.862502364976 75.8096248363669 69
    vertex -50.0986612187275 76.5881362443151 69.1
    vertex -49.862502364976 75.8096248363669 69.1
  endloop
endfacet
facet normal .881921264348336 .471396736826033 0
  outer loop
    vertex -50.0986612187275 76.5881362443151 69
    vertex -50.4821623875938 77.3056164670313 69.1
    vertex -50.0986612187275 76.5881362443151 69.1
  endloop
endfacet
facet normal .773010453362767 .634393284163609 0
  outer loop
    vertex -50.4821623875938 77.3056164670313 69
    vertex -50.9982681367252 77.9344931419242 69.1
    vertex -50.4821623875938 77.3056164670313 69.1
  endloop
endfacet
facet normal .634393284163675 .773010453362713 0
  outer loop
    vertex -50.9982681367252 77.9344931419242 69
    vertex -51.627144811618 78.4505988910556 69.1
    vertex -50.9982681367252 77.9344931419242 69.1
  endloop
endfacet
facet normal .471396736825928 .881921264348392 0
  outer loop
    vertex -51.627144811618 78.4505988910556 69
    vertex -52.3446250343342 78.8341000599218 69.1
    vertex -51.627144811618 78.4505988910556 69.1
  endloop
endfacet
facet normal .290284677254501 .956940335732197 0
  outer loop
    vertex -52.3446250343342 78.8341000599218 69
    vertex -53.1231364422824 79.0702589136734 69.1
    vertex -52.3446250343342 78.8341000599218 69.1
  endloop
endfacet
facet normal 9.80171403295683E-02 .995184726672196 0
  outer loop
    vertex -53.1231364422824 79.0702589136734 69
    vertex -53.9327612786494 79.15 69.1
    vertex -53.1231364422824 79.0702589136734 69.1
  endloop
endfacet
facet normal -9.80171403295802E-02 .995184726672195 0
  outer loop
    vertex -53.9327612786494 79.15 69
    vertex -54.7423861150163 79.0702589136734 69.1
    vertex -53.9327612786494 79.15 69.1
  endloop
endfacet
facet normal -.290284677254501 .956940335732197 0
  outer loop
    vertex -54.7423861150163 79.0702589136734 69
    vertex -55.5208975229645 78.8341000599218 69.1
    vertex -54.7423861150163 79.0702589136734 69.1
  endloop
endfacet
facet normal -.471396736825928 .881921264348392 0
  outer loop
    vertex -55.5208975229645 78.8341000599218 69
    vertex -56.2383777456807 78.4505988910556 69.1
    vertex -55.5208975229645 78.8341000599218 69.1
  endloop
endfacet
facet normal -.634393284163675 .773010453362713 0
  outer loop
    vertex -56.2383777456807 78.4505988910556 69
    vertex -56.8672544205735 77.9344931419242 69.1
    vertex -56.2383777456807 78.4505988910556 69.1
  endloop
endfacet
facet normal -.773010453362767 .634393284163609 0
  outer loop
    vertex -56.8672544205735 77.9344931419242 69
    vertex -57.3833601697049 77.3056164670313 69.1
    vertex -56.8672544205735 77.9344931419242 69.1
  endloop
endfacet
facet normal -.881921264348336 .471396736826033 0
  outer loop
    vertex -57.3833601697049 77.3056164670313 69
    vertex -57.7668613385712 76.5881362443151 69.1
    vertex -57.3833601697049 77.3056164670313 69.1
  endloop
endfacet
facet normal -.9569403357322 .290284677254493 0
  outer loop
    vertex -57.7668613385712 76.5881362443151 69
    vertex -58.0030201923228 75.8096248363669 69.1
    vertex -57.7668613385712 76.5881362443151 69.1
  endloop
endfacet
facet normal -.995184726672196 9.80171403295724E-02 0
  outer loop
    vertex -58.0030201923228 75.8096248363669 69
    vertex -58.0827612786494 75 69.1
    vertex -58.0030201923228 75.8096248363669 69.1
  endloop
endfacet
facet normal -.995184726672196 -9.80171403295724E-02 0
  outer loop
    vertex -58.0827612786494 75 69
    vertex -58.0030201923228 74.1903751636331 69.1
    vertex -58.0827612786494 75 69.1
  endloop
endfacet
facet normal -.9569403357322 -.290284677254493 0
  outer loop
    vertex -58.0030201923228 74.1903751636331 69
    vertex -57.7668613385712 73.4118637556849 69.1
    vertex -58.0030201923228 74.1903751636331 69.1
  endloop
endfacet
facet normal -.881921264348336 -.471396736826033 0
  outer loop
    vertex -57.7668613385712 73.4118637556849 69
    vertex -57.3833601697049 72.6943835329687 69.1
    vertex -57.7668613385712 73.4118637556849 69.1
  endloop
endfacet
facet normal -.773010453362767 -.634393284163609 0
  outer loop
    vertex -57.3833601697049 72.6943835329687 69
    vertex -56.8672544205735 72.0655068580758 69.1
    vertex -57.3833601697049 72.6943835329687 69.1
  endloop
endfacet
facet normal -.634393284163675 -.773010453362713 0
  outer loop
    vertex -56.8672544205735 72.0655068580758 69
    vertex -56.2383777456807 71.5494011089444 69.1
    vertex -56.8672544205735 72.0655068580758 69.1
  endloop
endfacet
facet normal -.471396736825928 -.881921264348392 0
  outer loop
    vertex -56.2383777456807 71.5494011089444 69
    vertex -55.5208975229645 71.1658999400782 69.1
    vertex -56.2383777456807 71.5494011089444 69.1
  endloop
endfacet
facet normal -.290284677254501 -.956940335732197 0
  outer loop
    vertex -55.5208975229645 71.1658999400782 69
    vertex -54.7423861150163 70.9297410863266 69.1
    vertex -55.5208975229645 71.1658999400782 69.1
  endloop
endfacet
facet normal -9.80171403295802E-02 -.995184726672195 0
  outer loop
    vertex -54.7423861150163 70.9297410863266 69
    vertex -53.9327612786494 70.85 69.1
    vertex -54.7423861150163 70.9297410863266 69.1
  endloop
endfacet
facet normal 9.80171403295683E-02 -.995184726672196 0
  outer loop
    vertex -53.9327612786494 70.85 69
    vertex -53.1231364422824 70.9297410863266 69.1
    vertex -53.9327612786494 70.85 69.1
  endloop
endfacet
facet normal .290284677254501 -.956940335732197 0
  outer loop
    vertex -53.1231364422824 70.9297410863266 69
    vertex -52.3446250343342 71.1658999400782 69.1
    vertex -53.1231364422824 70.9297410863266 69.1
  endloop
endfacet
facet normal .471396736825928 -.881921264348392 0
  outer loop
    vertex -52.3446250343342 71.1658999400782 69
    vertex -51.627144811618 71.5494011089444 69.1
    vertex -52.3446250343342 71.1658999400782 69.1
  endloop
endfacet
facet normal .634393284163675 -.773010453362713 0
  outer loop
    vertex -51.627144811618 71.5494011089444 69
    vertex -50.9982681367252 72.0655068580758 69.1
    vertex -51.627144811618 71.5494011089444 69.1
  endloop
endfacet
facet normal .773010453362767 -.634393284163609 0
  outer loop
    vertex -50.9982681367252 72.0655068580758 69
    vertex -50.4821623875938 72.6943835329687 69.1
    vertex -50.9982681367252 72.0655068580758 69.1
  endloop
endfacet
facet normal .881921264348336 -.471396736826033 0
  outer loop
    vertex -50.4821623875938 72.6943835329687 69
    vertex -50.0986612187275 73.4118637556849 69.1
    vertex -50.4821623875938 72.6943835329687 69.1
  endloop
endfacet
facet normal .956940335732233 -.290284677254381 0
  outer loop
    vertex -50.0986612187275 73.4118637556849 69
    vertex -49.862502364976 74.1903751636331 69.1
    vertex -50.0986612187275 73.4118637556849 69.1
  endloop
endfacet
facet normal .995184726672196 -9.80171403295724E-02 0
  outer loop
    vertex -49.862502364976 74.1903751636331 69
    vertex -49.7827612786494 75 69.1
    vertex -49.862502364976 74.1903751636331 69.1
  endloop
endfacet
facet normal .995184726672196 9.80171403295724E-02 0
  outer loop
    vertex -49.862502364976 75.8096248363669 69
    vertex -49.862502364976 75.8096248363669 69.1
    vertex -49.7827612786494 75 69
  endloop
endfacet
facet normal .956940335732233 .290284677254381 0
  outer loop
    vertex -50.0986612187275 76.5881362443151 69
    vertex -50.0986612187275 76.5881362443151 69.1
    vertex -49.862502364976 75.8096248363669 69
  endloop
endfacet
facet normal .881921264348336 .471396736826033 0
  outer loop
    vertex -50.4821623875938 77.3056164670313 69
    vertex -50.4821623875938 77.3056164670313 69.1
    vertex -50.0986612187275 76.5881362443151 69
  endloop
endfacet
facet normal .773010453362767 .634393284163609 0
  outer loop
    vertex -50.9982681367252 77.9344931419242 69
    vertex -50.9982681367252 77.9344931419242 69.1
    vertex -50.4821623875938 77.3056164670313 69
  endloop
endfacet
facet normal .634393284163675 .773010453362713 0
  outer loop
    vertex -51.627144811618 78.4505988910556 69
    vertex -51.627144811618 78.4505988910556 69.1
    vertex -50.9982681367252 77.9344931419242 69
  endloop
endfacet
facet normal .471396736825928 .881921264348392 0
  outer loop
    vertex -52.3446250343342 78.8341000599218 69
    vertex -52.3446250343342 78.8341000599218 69.1
    vertex -51.627144811618 78.4505988910556 69
  endloop
endfacet
facet normal .290284677254501 .956940335732197 0
  outer loop
    vertex -53.1231364422824 79.0702589136734 69
    vertex -53.1231364422824 79.0702589136734 69.1
    vertex -52.3446250343342 78.8341000599218 69
  endloop
endfacet
facet normal 9.80171403295683E-02 .995184726672196 0
  outer loop
    vertex -53.9327612786494 79.15 69
    vertex -53.9327612786494 79.15 69.1
    vertex -53.1231364422824 79.0702589136734 69
  endloop
endfacet
facet normal -9.80171403295802E-02 .995184726672195 0
  outer loop
    vertex -54.7423861150163 79.0702589136734 69
    vertex -54.7423861150163 79.0702589136734 69.1
    vertex -53.9327612786494 79.15 69
  endloop
endfacet
facet normal -.290284677254501 .956940335732197 0
  outer loop
    vertex -55.5208975229645 78.8341000599218 69
    vertex -55.5208975229645 78.8341000599218 69.1
    vertex -54.7423861150163 79.0702589136734 69
  endloop
endfacet
facet normal -.471396736825928 .881921264348392 0
  outer loop
    vertex -56.2383777456807 78.4505988910556 69
    vertex -56.2383777456807 78.4505988910556 69.1
    vertex -55.5208975229645 78.8341000599218 69
  endloop
endfacet
facet normal -.634393284163675 .773010453362713 0
  outer loop
    vertex -56.8672544205735 77.9344931419242 69
    vertex -56.8672544205735 77.9344931419242 69.1
    vertex -56.2383777456807 78.4505988910556 69
  endloop
endfacet
facet normal -.773010453362767 .634393284163609 0
  outer loop
    vertex -57.3833601697049 77.3056164670313 69
    vertex -57.3833601697049 77.3056164670313 69.1
    vertex -56.8672544205735 77.9344931419242 69
  endloop
endfacet
facet normal -.881921264348336 .471396736826033 0
  outer loop
    vertex -57.7668613385712 76.5881362443151 69
    vertex -57.7668613385712 76.5881362443151 69.1
    vertex -57.3833601697049 77.3056164670313 69
  endloop
endfacet
facet normal -.9569403357322 .290284677254493 0
  outer loop
    vertex -58.0030201923228 75.8096248363669 69
    vertex -58.0030201923228 75.8096248363669 69.1
    vertex -57.7668613385712 76.5881362443151 69
  endloop
endfacet
facet normal -.995184726672196 9.80171403295724E-02 0
  outer loop
    vertex -58.0827612786494 75 69
    vertex -58.0827612786494 75 69.1
    vertex -58.0030201923228 75.8096248363669 69
  endloop
endfacet
facet normal -.995184726672196 -9.80171403295724E-02 0
  outer loop
    vertex -58.0030201923228 74.1903751636331 69
    vertex -58.0030201923228 74.1903751636331 69.1
    vertex -58.0827612786494 75 69
  endloop
endfacet
facet normal -.9569403357322 -.290284677254493 0
  outer loop
    vertex -57.7668613385712 73.4118637556849 69
    vertex -57.7668613385712 73.4118637556849 69.1
    vertex -58.0030201923228 74.1903751636331 69
  endloop
endfacet
facet normal -.881921264348336 -.471396736826033 0
  outer loop
    vertex -57.3833601697049 72.6943835329687 69
    vertex -57.3833601697049 72.6943835329687 69.1
    vertex -57.7668613385712 73.4118637556849 69
  endloop
endfacet
facet normal -.773010453362767 -.634393284163609 0
  outer loop
    vertex -56.8672544205735 72.0655068580758 69
    vertex -56.8672544205735 72.0655068580758 69.1
    vertex -57.3833601697049 72.6943835329687 69
  endloop
endfacet
facet normal -.634393284163675 -.773010453362713 0
  outer loop
    vertex -56.2383777456807 71.5494011089444 69
    vertex -56.2383777456807 71.5494011089444 69.1
    vertex -56.8672544205735 72.0655068580758 69
  endloop
endfacet
facet normal -.471396736825928 -.881921264348392 0
  outer loop
    vertex -55.5208975229645 71.1658999400782 69
    vertex -55.5208975229645 71.1658999400782 69.1
    vertex -56.2383777456807 71.5494011089444 69
  endloop
endfacet
facet normal -.290284677254501 -.956940335732197 0
  outer loop
    vertex -54.7423861150163 70.9297410863266 69
    vertex -54.7423861150163 70.9297410863266 69.1
    vertex -55.5208975229645 71.1658999400782 69
  endloop
endfacet
facet normal -9.80171403295802E-02 -.995184726672195 0
  outer loop
    vertex -53.9327612786494 70.85 69
    vertex -53.9327612786494 70.85 69.1
    vertex -54.7423861150163 70.9297410863266 69
  endloop
endfacet
facet normal 9.80171403295683E-02 -.995184726672196 0
  outer loop
    vertex -53.1231364422824 70.9297410863266 69
    vertex -53.1231364422824 70.9297410863266 69.1
    vertex -53.9327612786494 70.85 69
  endloop
endfacet
facet normal .290284677254501 -.956940335732197 0
  outer loop
    vertex -52.3446250343342 71.1658999400782 69
    vertex -52.3446250343342 71.1658999400782 69.1
    vertex -53.1231364422824 70.9297410863266 69
  endloop
endfacet
facet normal .471396736825928 -.881921264348392 0
  outer loop
    vertex -51.627144811618 71.5494011089444 69
    vertex -51.627144811618 71.5494011089444 69.1
    vertex -52.3446250343342 71.1658999400782 69
  endloop
endfacet
facet normal .634393284163675 -.773010453362713 0
  outer loop
    vertex -50.9982681367252 72.0655068580758 69
    vertex -50.9982681367252 72.0655068580758 69.1
    vertex -51.627144811618 71.5494011089444 69
  endloop
endfacet
facet normal .773010453362767 -.634393284163609 0
  outer loop
    vertex -50.4821623875938 72.6943835329687 69
    vertex -50.4821623875938 72.6943835329687 69.1
    vertex -50.9982681367252 72.0655068580758 69
  endloop
endfacet
facet normal .881921264348336 -.471396736826033 0
  outer loop
    vertex -50.0986612187275 73.4118637556849 69
    vertex -50.0986612187275 73.4118637556849 69.1
    vertex -50.4821623875938 72.6943835329687 69
  endloop
endfacet
facet normal .956940335732233 -.290284677254381 0
  outer loop
    vertex -49.862502364976 74.1903751636331 69
    vertex -49.862502364976 74.1903751636331 69.1
    vertex -50.0986612187275 73.4118637556849 69
  endloop
endfacet
facet normal .995184726672196 -9.80171403295724E-02 0
  outer loop
    vertex -49.7827612786494 75 69
    vertex -49.7827612786494 75 69.1
    vertex -49.862502364976 74.1903751636331 69
  endloop
endfacet
facet normal 0 0 1
  outer loop
    vertex 70.9553795403901 102.016061331692 69
    vertex 12 102.016061331692 69
    vertex 70.9553795403901 -102.016061331692 69
  endloop
endfacet
facet normal 0 0 1
  outer loop
    vertex 12 102.016061331692 69
    vertex 11.7694233648388 99.6749774674982 69
    vertex 70.9553795403901 -102.016061331692 69
  endloop
endfacet
facet normal 0 0 1
  outer loop
    vertex 11.7694233648388 99.6749774674982 69
    vertex 11.0865543901354 97.4238601433107 69
    vertex 70.9553795403901 -102.016061331692 69
  endloop
endfacet
facet normal 0 0 1
  outer loop
    vertex 11.0865543901354 97.4238601433107 69
    vertex 9.97763534763054 95.3492185354565 69
    vertex 70.9553795403901 -102.016061331692 69
  endloop
endfacet
facet normal 0 0 1
  outer loop
    vertex 9.97763534763054 95.3492185354565 69
    vertex 8.48528137423857 93.5307799574532 69
    vertex 70.9553795403901 -102.016061331692 69
  endloop
endfacet
facet normal 0 0 1
  outer loop
    vertex 8.48528137423857 93.5307799574532 69
    vertex 6.66684279623523 92.0384259840612 69
    vertex 70.9553795403901 -102.016061331692 69
  endloop
endfacet
facet normal 0 0 1
  outer loop
    vertex 6.66684279623523 92.0384259840612 69
    vertex 4.59220118838108 90.9295069415563 69
    vertex 70.9553795403901 -102.016061331692 69
  endloop
endfacet
facet normal 0 0 1
  outer loop
    vertex 4.59220118838108 90.9295069415563 69
    vertex 2.34108386419354 90.246637966853 69
    vertex 70.9553795403901 -102.016061331692 69
  endloop
endfacet
facet normal 0 0 1
  outer loop
    vertex 2.34108386419354 90.246637966853 69
    vertex 7.34788079488412E-16 90.0160613316917 69
    vertex 70.9553795403901 -102.016061331692 69
  endloop
endfacet
facet normal 0 0 1
  outer loop
    vertex 7.34788079488412E-16 90.0160613316917 69
    vertex -70.9553795403901 -102.016061331692 69
    vertex 70.9553795403901 -102.016061331692 69
  endloop
endfacet
facet normal 0 0 1
  outer loop
    vertex 7.34788079488412E-16 90.0160613316917 69
    vertex -2.34108386419354 90.246637966853 69
    vertex -70.9553795403901 -102.016061331692 69
  endloop
endfacet
facet normal 0 0 1
  outer loop
    vertex -2.34108386419354 90.246637966853 69
    vertex -4.59220118838108 90.9295069415563 69
    vertex -70.9553795403901 -102.016061331692 69
  endloop
endfacet
facet normal 0 0 1
  outer loop
    vertex -4.59220118838108 90.9295069415563 69
    vertex -6.66684279623523 92.0384259840612 69
    vertex -70.9553795403901 -102.016061331692 69
  endloop
endfacet
facet normal 0 0 1
  outer loop
    vertex -6.66684279623523 92.0384259840612 69
    vertex -8.48528137423857 93.5307799574532 69
    vertex -70.9553795403901 -102.016061331692 69
  endloop
endfacet
facet normal 0 0 1
  outer loop
    vertex -8.48528137423857 93.5307799574532 69
    vertex -9.97763534763054 95.3492185354565 69
    vertex -70.9553795403901 -102.016061331692 69
  endloop
endfacet
facet normal 0 0 1
  outer loop
    vertex -9.97763534763054 95.3492185354565 69
    vertex -11.0865543901354 97.4238601433107 69
    vertex -70.9553795403901 -102.016061331692 69
  endloop
endfacet
facet normal 0 0 1
  outer loop
    vertex -11.0865543901354 97.4238601433107 69
    vertex -11.7694233648388 99.6749774674982 69
    vertex -70.9553795403901 -102.016061331692 69
  endloop
endfacet
facet normal 0 0 1
  outer loop
    vertex -11.7694233648388 99.6749774674982 69
    vertex -12 102.016061331692 69
    vertex -70.9553795403901 -102.016061331692 69
  endloop
endfacet
facet normal 0 0 1
  outer loop
    vertex -70.9553795403901 102.016061331692 69
    vertex -70.9553795403901 -102.016061331692 69
    vertex -12 102.016061331692 69
  endloop
endfacet
facet normal 0 0 -1
  outer loop
    vertex -80.5160613316917 -102.016061331692 0
    vertex 80.5160613316917 102.016061331692 0
    vertex 80.5160613316917 -102.016061331692 0
  endloop
endfacet
facet normal 0 0 -1
  outer loop
    vertex 80.5160613316917 102.016061331692 0
    vertex -80.5160613316917 -102.016061331692 0
    vertex -80.5160613316917 102.016061331692 0
  endloop
endfacet
facet normal 1 0 0
  outer loop
    vertex -12 102.016061331692 69
    vertex -12 102.016061331692 62.1
    vertex -12 102.619733110021 62.1
  endloop
endfacet
facet normal .995184726672199 9.80171403295347E-02 0
  outer loop
    vertex -11.7694233648388 99.6749774674982 69
    vertex -11.7694233648388 99.6749774674982 62.1
    vertex -12 102.016061331692 62.1
  endloop
endfacet
facet normal .956940335732198 .290284677254498 0
  outer loop
    vertex -11.0865543901354 97.4238601433107 69
    vertex -11.0865543901354 97.4238601433107 62.1
    vertex -11.7694233648388 99.6749774674982 62.1
  endloop
endfacet
facet normal .881921264348367 .471396736825975 0
  outer loop
    vertex -9.97763534763054 95.3492185354565 69
    vertex -9.97763534763054 95.3492185354565 62.1
    vertex -11.0865543901354 97.4238601433107 62.1
  endloop
endfacet
facet normal .773010453362729 .634393284163655 0
  outer loop
    vertex -8.48528137423857 93.5307799574532 69
    vertex -8.48528137423857 93.5307799574532 62.1
    vertex -9.97763534763054 95.3492185354565 62.1
  endloop
endfacet
facet normal .634393284163653 .773010453362731 0
  outer loop
    vertex -6.66684279623523 92.0384259840612 69
    vertex -6.66684279623523 92.0384259840612 62.1
    vertex -8.48528137423857 93.5307799574532 62.1
  endloop
endfacet
facet normal .471396736826001 .881921264348353 0
  outer loop
    vertex -4.59220118838108 90.9295069415563 69
    vertex -4.59220118838108 90.9295069415563 62.1
    vertex -6.66684279623523 92.0384259840612 62.1
  endloop
endfacet
facet normal .290284677254451 .956940335732212 0
  outer loop
    vertex -2.34108386419354 90.246637966853 69
    vertex -2.34108386419354 90.246637966853 62.1
    vertex -4.59220118838108 90.9295069415563 62.1
  endloop
endfacet
facet normal 9.80171403295876E-02 .995184726672194 0
  outer loop
    vertex 7.34788079488412E-16 90.0160613316917 69
    vertex 7.34788079488412E-16 90.0160613316917 62.1
    vertex -2.34108386419354 90.246637966853 62.1
  endloop
endfacet
facet normal -9.80171403295876E-02 .995184726672194 0
  outer loop
    vertex 2.34108386419354 90.246637966853 69
    vertex 2.34108386419354 90.246637966853 62.1
    vertex 7.34788079488412E-16 90.0160613316917 62.1
  endloop
endfacet
facet normal -.290284677254451 .956940335732212 0
  outer loop
    vertex 4.59220118838108 90.9295069415563 69
    vertex 4.59220118838108 90.9295069415563 62.1
    vertex 2.34108386419354 90.246637966853 62.1
  endloop
endfacet
facet normal -.471396736826001 .881921264348353 0
  outer loop
    vertex 6.66684279623523 92.0384259840612 69
    vertex 6.66684279623523 92.0384259840612 62.1
    vertex 4.59220118838108 90.9295069415563 62.1
  endloop
endfacet
facet normal -.634393284163653 .773010453362731 0
  outer loop
    vertex 8.48528137423857 93.5307799574532 69
    vertex 8.48528137423857 93.5307799574532 62.1
    vertex 6.66684279623523 92.0384259840612 62.1
  endloop
endfacet
facet normal -.773010453362729 .634393284163655 0
  outer loop
    vertex 9.97763534763054 95.3492185354565 69
    vertex 9.97763534763054 95.3492185354565 62.1
    vertex 8.48528137423857 93.5307799574532 62.1
  endloop
endfacet
facet normal -.881921264348367 .471396736825975 0
  outer loop
    vertex 11.0865543901354 97.4238601433107 69
    vertex 11.0865543901354 97.4238601433107 62.1
    vertex 9.97763534763054 95.3492185354565 62.1
  endloop
endfacet
facet normal -.956940335732198 .290284677254498 0
  outer loop
    vertex 11.7694233648388 99.6749774674982 69
    vertex 11.7694233648388 99.6749774674982 62.1
    vertex 11.0865543901354 97.4238601433107 62.1
  endloop
endfacet
facet normal -.995184726672199 9.80171403295347E-02 0
  outer loop
    vertex 12 102.016061331692 69
    vertex 12 102.016061331692 62.1
    vertex 11.7694233648388 99.6749774674982 62.1
  endloop
endfacet
facet normal .995184726672199 9.80171403295347E-02 0
  outer loop
    vertex -11.7694233648388 99.6749774674982 69
    vertex -12 102.016061331692 62.1
    vertex -12 102.016061331692 69
  endloop
endfacet
facet normal .956940335732198 .290284677254498 0
  outer loop
    vertex -11.0865543901354 97.4238601433107 69
    vertex -11.7694233648388 99.6749774674982 62.1
    vertex -11.7694233648388 99.6749774674982 69
  endloop
endfacet
facet normal .881921264348367 .471396736825975 0
  outer loop
    vertex -9.97763534763054 95.3492185354565 69
    vertex -11.0865543901354 97.4238601433107 62.1
    vertex -11.0865543901354 97.4238601433107 69
  endloop
endfacet
facet normal .773010453362729 .634393284163655 0
  outer loop
    vertex -8.48528137423857 93.5307799574532 69
    vertex -9.97763534763054 95.3492185354565 62.1
    vertex -9.97763534763054 95.3492185354565 69
  endloop
endfacet
facet normal .634393284163653 .773010453362731 0
  outer loop
    vertex -6.66684279623523 92.0384259840612 69
    vertex -8.48528137423857 93.5307799574532 62.1
    vertex -8.48528137423857 93.5307799574532 69
  endloop
endfacet
facet normal .471396736826001 .881921264348353 0
  outer loop
    vertex -4.59220118838108 90.9295069415563 69
    vertex -6.66684279623523 92.0384259840612 62.1
    vertex -6.66684279623523 92.0384259840612 69
  endloop
endfacet
facet normal .290284677254451 .956940335732212 0
  outer loop
    vertex -2.34108386419354 90.246637966853 69
    vertex -4.59220118838108 90.9295069415563 62.1
    vertex -4.59220118838108 90.9295069415563 69
  endloop
endfacet
facet normal 9.80171403295876E-02 .995184726672194 0
  outer loop
    vertex 7.34788079488412E-16 90.0160613316917 69
    vertex -2.34108386419354 90.246637966853 62.1
    vertex -2.34108386419354 90.246637966853 69
  endloop
endfacet
facet normal -9.80171403295876E-02 .995184726672194 0
  outer loop
    vertex 2.34108386419354 90.246637966853 69
    vertex 7.34788079488412E-16 90.0160613316917 62.1
    vertex 7.34788079488412E-16 90.0160613316917 69
  endloop
endfacet
facet normal -.290284677254451 .956940335732212 0
  outer loop
    vertex 4.59220118838108 90.9295069415563 69
    vertex 2.34108386419354 90.246637966853 62.1
    vertex 2.34108386419354 90.246637966853 69
  endloop
endfacet
facet normal -.471396736826001 .881921264348353 0
  outer loop
    vertex 6.66684279623523 92.0384259840612 69
    vertex 4.59220118838108 90.9295069415563 62.1
    vertex 4.59220118838108 90.9295069415563 69
  endloop
endfacet
facet normal -.634393284163653 .773010453362731 0
  outer loop
    vertex 8.48528137423857 93.5307799574532 69
    vertex 6.66684279623523 92.0384259840612 62.1
    vertex 6.66684279623523 92.0384259840612 69
  endloop
endfacet
facet normal -.773010453362729 .634393284163655 0
  outer loop
    vertex 9.97763534763054 95.3492185354565 69
    vertex 8.48528137423857 93.5307799574532 62.1
    vertex 8.48528137423857 93.5307799574532 69
  endloop
endfacet
facet normal -.881921264348367 .471396736825975 0
  outer loop
    vertex 11.0865543901354 97.4238601433107 69
    vertex 9.97763534763054 95.3492185354565 62.1
    vertex 9.97763534763054 95.3492185354565 69
  endloop
endfacet
facet normal -.956940335732198 .290284677254498 0
  outer loop
    vertex 11.7694233648388 99.6749774674982 69
    vertex 11.0865543901354 97.4238601433107 62.1
    vertex 11.0865543901354 97.4238601433107 69
  endloop
endfacet
facet normal -.995184726672199 9.80171403295347E-02 0
  outer loop
    vertex 12 102.016061331692 69
    vertex 11.7694233648388 99.6749774674982 62.1
    vertex 11.7694233648388 99.6749774674982 69
  endloop
endfacet
facet normal -1 0 0
  outer loop
    vertex 12 102.016061331692 69
    vertex 12 102.619733110021 62.1
    vertex 12 102.016061331692 62.1
  endloop
endfacet
facet normal 0 0 1
  outer loop
    vertex -12 102.619733110021 62.1
    vertex -12 102.016061331692 62.1
    vertex 0 102.619733110021 62.1
  endloop
endfacet
facet normal 0 0 1
  outer loop
    vertex -12 102.016061331692 62.1
    vertex -11.7694233648388 99.6749774674982 62.1
    vertex 0 102.619733110021 62.1
  endloop
endfacet
facet normal 0 0 1
  outer loop
    vertex -11.7694233648388 99.6749774674982 62.1
    vertex -11.0865543901354 97.4238601433107 62.1
    vertex 0 102.619733110021 62.1
  endloop
endfacet
facet normal 0 0 1
  outer loop
    vertex -11.0865543901354 97.4238601433107 62.1
    vertex -9.97763534763054 95.3492185354565 62.1
    vertex 0 102.619733110021 62.1
  endloop
endfacet
facet normal 0 0 1
  outer loop
    vertex -9.97763534763054 95.3492185354565 62.1
    vertex -8.48528137423857 93.5307799574532 62.1
    vertex 0 102.619733110021 62.1
  endloop
endfacet
facet normal 0 0 1
  outer loop
    vertex -8.48528137423857 93.5307799574532 62.1
    vertex -6.66684279623523 92.0384259840612 62.1
    vertex 0 102.619733110021 62.1
  endloop
endfacet
facet normal 0 0 1
  outer loop
    vertex -6.66684279623523 92.0384259840612 62.1
    vertex -4.59220118838108 90.9295069415563 62.1
    vertex 0 102.619733110021 62.1
  endloop
endfacet
facet normal 0 0 1
  outer loop
    vertex -4.59220118838108 90.9295069415563 62.1
    vertex -2.34108386419354 90.246637966853 62.1
    vertex 0 102.619733110021 62.1
  endloop
endfacet
facet normal 0 0 1
  outer loop
    vertex -2.34108386419354 90.246637966853 62.1
    vertex 7.34788079488412E-16 90.0160613316917 62.1
    vertex 0 102.619733110021 62.1
  endloop
endfacet
facet normal 0 0 1
  outer loop
    vertex 7.34788079488412E-16 90.0160613316917 62.1
    vertex 2.34108386419354 90.246637966853 62.1
    vertex 0 102.619733110021 62.1
  endloop
endfacet
facet normal 0 0 1
  outer loop
    vertex 2.34108386419354 90.246637966853 62.1
    vertex 4.59220118838108 90.9295069415563 62.1
    vertex 0 102.619733110021 62.1
  endloop
endfacet
facet normal 0 0 1
  outer loop
    vertex 4.59220118838108 90.9295069415563 62.1
    vertex 6.66684279623523 92.0384259840612 62.1
    vertex 0 102.619733110021 62.1
  endloop
endfacet
facet normal 0 0 1
  outer loop
    vertex 6.66684279623523 92.0384259840612 62.1
    vertex 8.48528137423857 93.5307799574532 62.1
    vertex 0 102.619733110021 62.1
  endloop
endfacet
facet normal 0 0 1
  outer loop
    vertex 8.48528137423857 93.5307799574532 62.1
    vertex 9.97763534763054 95.3492185354565 62.1
    vertex 0 102.619733110021 62.1
  endloop
endfacet
facet normal 0 0 1
  outer loop
    vertex 9.97763534763054 95.3492185354565 62.1
    vertex 11.0865543901354 97.4238601433107 62.1
    vertex 0 102.619733110021 62.1
  endloop
endfacet
facet normal 0 0 1
  outer loop
    vertex 11.0865543901354 97.4238601433107 62.1
    vertex 11.7694233648388 99.6749774674982 62.1
    vertex 0 102.619733110021 62.1
  endloop
endfacet
facet normal 0 0 1
  outer loop
    vertex 11.7694233648388 99.6749774674982 62.1
    vertex 12 102.016061331692 62.1
    vertex 0 102.619733110021 62.1
  endloop
endfacet
facet normal 0 0 1
  outer loop
    vertex 12 102.016061331692 62.1
    vertex 12 102.619733110021 62.1
    vertex 0 102.619733110021 62.1
  endloop
endfacet
facet normal .921118787038767 0 .389281620635024
  outer loop
    vertex 70.9553795403901 102.016061331692 69
    vertex 83 -104.5 40.5
    vertex 83 104.5 40.5
  endloop
endfacet
facet normal 0 -.996223440096615 8.68265938642386E-02
  outer loop
    vertex 70.9553795403901 -102.016061331692 69
    vertex -83 -104.5 40.5
    vertex 83 -104.5 40.5
  endloop
endfacet
facet normal -.921118787038767 0 .389281620635024
  outer loop
    vertex -70.9553795403901 -102.016061331692 69
    vertex -83 104.5 40.5
    vertex -83 -104.5 40.5
  endloop
endfacet
facet normal 1 0 0
  outer loop
    vertex 83 104.5 40.5
    vertex 83 -104.5 28.5
    vertex 83 104.5 28.5
  endloop
endfacet
facet normal 0 -1 0
  outer loop
    vertex 83 -104.5 40.5
    vertex -83 -104.5 28.5
    vertex 83 -104.5 28.5
  endloop
endfacet
facet normal -1 0 0
  outer loop
    vertex -83 -104.5 40.5
    vertex -83 104.5 28.5
    vertex -83 -104.5 28.5
  endloop
endfacet
facet normal .996223440096615 0 -.086826593864249
  outer loop
    vertex 83 104.5 28.5
    vertex 80.5160613316917 -102.016061331692 0
    vertex 80.5160613316917 102.016061331692 0
  endloop
endfacet
facet normal 0 -.996223440096615 -8.68265938642386E-02
  outer loop
    vertex 83 -104.5 28.5
    vertex -80.5160613316917 -102.016061331692 0
    vertex 80.5160613316917 -102.016061331692 0
  endloop
endfacet
facet normal -.996223440096615 0 -.086826593864249
  outer loop
    vertex -83 -104.5 28.5
    vertex -80.5160613316917 102.016061331692 0
    vertex -80.5160613316917 -102.016061331692 0
  endloop
endfacet
facet normal .921118787038767 0 .389281620635024
  outer loop
    vertex 70.9553795403901 -102.016061331692 69
    vertex 83 -104.5 40.5
    vertex 70.9553795403901 102.016061331692 69
  endloop
endfacet
facet normal 0 -.996223440096615 8.68265938642386E-02
  outer loop
    vertex -70.9553795403901 -102.016061331692 69
    vertex -83 -104.5 40.5
    vertex 70.9553795403901 -102.016061331692 69
  endloop
endfacet
facet normal -.921118787038767 0 .389281620635024
  outer loop
    vertex -70.9553795403901 102.016061331692 69
    vertex -83 104.5 40.5
    vertex -70.9553795403901 -102.016061331692 69
  endloop
endfacet
facet normal 1 0 0
  outer loop
    vertex 83 -104.5 40.5
    vertex 83 -104.5 28.5
    vertex 83 104.5 40.5
  endloop
endfacet
facet normal 0 -1 0
  outer loop
    vertex -83 -104.5 40.5
    vertex -83 -104.5 28.5
    vertex 83 -104.5 40.5
  endloop
endfacet
facet normal -1 0 0
  outer loop
    vertex -83 104.5 40.5
    vertex -83 104.5 28.5
    vertex -83 -104.5 40.5
  endloop
endfacet
facet normal .996223440096614 0 -.086826593864249
  outer loop
    vertex 83 -104.5 28.5
    vertex 80.5160613316917 -102.016061331692 0
    vertex 83 104.5 28.5
  endloop
endfacet
facet normal 0 -.996223440096615 -8.68265938642386E-02
  outer loop
    vertex -83 -104.5 28.5
    vertex -80.5160613316917 -102.016061331692 0
    vertex 83 -104.5 28.5
  endloop
endfacet
facet normal -.996223440096614 0 -.086826593864249
  outer loop
    vertex -83 104.5 28.5
    vertex -80.5160613316917 102.016061331692 0
    vertex -83 -104.5 28.5
  endloop
endfacet
facet normal 0 .996223440096615 -8.68265938642386E-02
  outer loop
    vertex 83 104.5 28.5
    vertex 80.5160613316917 102.016061331692 0
    vertex -83 104.5 28.5
  endloop
endfacet
facet normal 0 .996223440096615 -8.68265938642386E-02
  outer loop
    vertex 80.5160613316917 102.016061331692 0
    vertex -80.5160613316917 102.016061331692 0
    vertex -83 104.5 28.5
  endloop
endfacet
facet normal 0 1 0
  outer loop
    vertex 83 104.5 40.5
    vertex 83 104.5 28.5
    vertex -83 104.5 40.5
  endloop
endfacet
facet normal 0 1 0
  outer loop
    vertex -83 104.5 40.5
    vertex 83 104.5 28.5
    vertex -83 104.5 28.5
  endloop
endfacet
facet normal 0 .996223440096615 8.68265938642386E-02
  outer loop
    vertex 83 104.5 40.5
    vertex 12 102.016061331692 69
    vertex 70.9553795403901 102.016061331692 69
  endloop
endfacet
facet normal 1.33128682697398E-04 .996194689263842 8.71557419753349E-02
  outer loop
    vertex 12 102.016061331692 69
    vertex 83 104.5 40.5
    vertex 12 102.619733110021 62.1
  endloop
endfacet
facet normal 0 .996232598999556 8.67214430841014E-02
  outer loop
    vertex 83 104.5 40.5
    vertex -12 102.619733110021 62.1
    vertex 12 102.619733110021 62.1
  endloop
endfacet
facet normal 0 .996232598999556 8.67214430841014E-02
  outer loop
    vertex 83 104.5 40.5
    vertex -83 104.5 40.5
    vertex -12 102.619733110021 62.1
  endloop
endfacet
facet normal -3.69875781120701E-05 .996222087179225 8.68421075756863E-02
  outer loop
    vertex -70.9553795403901 102.016061331692 69
    vertex -12 102.619733110021 62.1
    vertex -83 104.5 40.5
  endloop
endfacet
facet normal 0 .996194698091744 8.71557427476762E-02
  outer loop
    vertex -70.9553795403901 102.016061331692 69
    vertex -12 102.016061331692 69
    vertex -12 102.619733110021 62.1
  endloop
endfacet
facet normal -1 0 0
  outer loop
    vertex -126 85 10
    vertex -126 85 0
    vertex -126 65 0
  endloop
endfacet
facet normal -1 0 0
  outer loop
    vertex -126 85 10
    vertex -126 65 0
    vertex -126 65 10
  endloop
endfacet
facet normal 1 0 0
  outer loop
    vertex -83 65 39.5
    vertex -83 65 29.5
    vertex -83 85 29.5
  endloop
endfacet
facet normal 1 0 0
  outer loop
    vertex -83 65 39.5
    vertex -83 85 29.5
    vertex -83 85 39.5
  endloop
endfacet
facet normal 0 1 0
  outer loop
    vertex -83 85 29.5
    vertex -89.7980765436737 85 29.5
    vertex -94.7980765436737 85 39.5
  endloop
endfacet
facet normal 0 1 0
  outer loop
    vertex -89.7980765436737 85 29.5
    vertex -103.725 85 0
    vertex -108.725 85 10
  endloop
endfacet
facet normal 0 1 0
  outer loop
    vertex -103.725 85 0
    vertex -126 85 0
    vertex -126 85 10
  endloop
endfacet
facet normal 0 1 0
  outer loop
    vertex -83 85 29.5
    vertex -94.7980765436737 85 39.5
    vertex -83 85 39.5
  endloop
endfacet
facet normal 0 1 0
  outer loop
    vertex -89.7980765436737 85 29.5
    vertex -108.725 85 10
    vertex -94.7980765436737 85 39.5
  endloop
endfacet
facet normal 0 1 0
  outer loop
    vertex -103.725 85 0
    vertex -126 85 10
    vertex -108.725 85 10
  endloop
endfacet
facet normal 0 -1 0
  outer loop
    vertex -83 65 29.5
    vertex -94.7980765436737 65 39.5
    vertex -89.7980765436737 65 29.5
  endloop
endfacet
facet normal 0 -1 0
  outer loop
    vertex -89.7980765436737 65 29.5
    vertex -108.725 65 10
    vertex -103.725 65 0
  endloop
endfacet
facet normal 0 -1 0
  outer loop
    vertex -103.725 65 0
    vertex -126 65 10
    vertex -126 65 0
  endloop
endfacet
facet normal 0 -1 0
  outer loop
    vertex -83 65 29.5
    vertex -83 65 39.5
    vertex -94.7980765436737 65 39.5
  endloop
endfacet
facet normal 0 -1 0
  outer loop
    vertex -89.7980765436737 65 29.5
    vertex -94.7980765436737 65 39.5
    vertex -108.725 65 10
  endloop
endfacet
facet normal 0 -1 0
  outer loop
    vertex -103.725 65 0
    vertex -108.725 65 10
    vertex -126 65 10
  endloop
endfacet
facet normal 0 0 1
  outer loop
    vertex -83 85 39.5
    vertex -94.7980765436737 85 39.5
    vertex -94.7980765436737 65 39.5
  endloop
endfacet
facet normal -.904291632055541 0 .426915265824878
  outer loop
    vertex -94.7980765436737 85 39.5
    vertex -108.725 85 10
    vertex -108.725 65 10
  endloop
endfacet
facet normal 0 0 1
  outer loop
    vertex -108.725 85 10
    vertex -126 85 10
    vertex -126 65 10
  endloop
endfacet
facet normal 0 0 1
  outer loop
    vertex -83 85 39.5
    vertex -94.7980765436737 65 39.5
    vertex -83 65 39.5
  endloop
endfacet
facet normal -.904291632055541 0 .426915265824878
  outer loop
    vertex -94.7980765436737 85 39.5
    vertex -108.725 65 10
    vertex -94.7980765436737 65 39.5
  endloop
endfacet
facet normal 0 0 1
  outer loop
    vertex -108.725 85 10
    vertex -126 65 10
    vertex -108.725 65 10
  endloop
endfacet
facet normal 0 0 -1
  outer loop
    vertex -83 85 29.5
    vertex -89.7980765436737 65 29.5
    vertex -89.7980765436737 85 29.5
  endloop
endfacet
facet normal .904291632055541 0 -.426915265824878
  outer loop
    vertex -89.7980765436737 85 29.5
    vertex -103.725 65 0
    vertex -103.725 85 0
  endloop
endfacet
facet normal 0 0 -1
  outer loop
    vertex -103.725 85 0
    vertex -126 65 0
    vertex -126 85 0
  endloop
endfacet
facet normal 0 0 -1
  outer loop
    vertex -83 85 29.5
    vertex -83 65 29.5
    vertex -89.7980765436737 65 29.5
  endloop
endfacet
facet normal .904291632055541 0 -.426915265824878
  outer loop
    vertex -89.7980765436737 85 29.5
    vertex -89.7980765436737 65 29.5
    vertex -103.725 65 0
  endloop
endfacet
facet normal 0 0 -1
  outer loop
    vertex -103.725 85 0
    vertex -103.725 65 0
    vertex -126 65 0
  endloop
endfacet
facet normal -1 0 0
  outer loop
    vertex -126 35 10
    vertex -126 35 0
    vertex -126 15 0
  endloop
endfacet
facet normal -1 0 0
  outer loop
    vertex -126 35 10
    vertex -126 15 0
    vertex -126 15 10
  endloop
endfacet
facet normal 1 0 0
  outer loop
    vertex -83 15 39.5
    vertex -83 15 29.5
    vertex -83 35 29.5
  endloop
endfacet
facet normal 1 0 0
  outer loop
    vertex -83 15 39.5
    vertex -83 35 29.5
    vertex -83 35 39.5
  endloop
endfacet
facet normal 0 1 0
  outer loop
    vertex -83 35 29.5
    vertex -89.7980765436737 35 29.5
    vertex -94.7980765436737 35 39.5
  endloop
endfacet
facet normal 0 1 0
  outer loop
    vertex -89.7980765436737 35 29.5
    vertex -103.725 35 0
    vertex -108.725 35 10
  endloop
endfacet
facet normal 0 1 0
  outer loop
    vertex -103.725 35 0
    vertex -126 35 0
    vertex -126 35 10
  endloop
endfacet
facet normal 0 1 0
  outer loop
    vertex -83 35 29.5
    vertex -94.7980765436737 35 39.5
    vertex -83 35 39.5
  endloop
endfacet
facet normal 0 1 0
  outer loop
    vertex -89.7980765436737 35 29.5
    vertex -108.725 35 10
    vertex -94.7980765436737 35 39.5
  endloop
endfacet
facet normal 0 1 0
  outer loop
    vertex -103.725 35 0
    vertex -126 35 10
    vertex -108.725 35 10
  endloop
endfacet
facet normal 0 -1 0
  outer loop
    vertex -83 15 29.5
    vertex -94.7980765436737 15 39.5
    vertex -89.7980765436737 15 29.5
  endloop
endfacet
facet normal 0 -1 0
  outer loop
    vertex -89.7980765436737 15 29.5
    vertex -108.725 15 10
    vertex -103.725 15 0
  endloop
endfacet
facet normal 0 -1 0
  outer loop
    vertex -103.725 15 0
    vertex -126 15 10
    vertex -126 15 0
  endloop
endfacet
facet normal 0 -1 0
  outer loop
    vertex -83 15 29.5
    vertex -83 15 39.5
    vertex -94.7980765436737 15 39.5
  endloop
endfacet
facet normal 0 -1 0
  outer loop
    vertex -89.7980765436737 15 29.5
    vertex -94.7980765436737 15 39.5
    vertex -108.725 15 10
  endloop
endfacet
facet normal 0 -1 0
  outer loop
    vertex -103.725 15 0
    vertex -108.725 15 10
    vertex -126 15 10
  endloop
endfacet
facet normal 0 0 1
  outer loop
    vertex -83 35 39.5
    vertex -94.7980765436737 35 39.5
    vertex -94.7980765436737 15 39.5
  endloop
endfacet
facet normal -.904291632055541 0 .426915265824878
  outer loop
    vertex -94.7980765436737 35 39.5
    vertex -108.725 35 10
    vertex -108.725 15 10
  endloop
endfacet
facet normal 0 0 1
  outer loop
    vertex -108.725 35 10
    vertex -126 35 10
    vertex -126 15 10
  endloop
endfacet
facet normal 0 0 1
  outer loop
    vertex -83 35 39.5
    vertex -94.7980765436737 15 39.5
    vertex -83 15 39.5
  endloop
endfacet
facet normal -.904291632055541 0 .426915265824878
  outer loop
    vertex -94.7980765436737 35 39.5
    vertex -108.725 15 10
    vertex -94.7980765436737 15 39.5
  endloop
endfacet
facet normal 0 0 1
  outer loop
    vertex -108.725 35 10
    vertex -126 15 10
    vertex -108.725 15 10
  endloop
endfacet
facet normal 0 0 -1
  outer loop
    vertex -83 35 29.5
    vertex -89.7980765436737 15 29.5
    vertex -89.7980765436737 35 29.5
  endloop
endfacet
facet normal .904291632055541 0 -.426915265824878
  outer loop
    vertex -89.7980765436737 35 29.5
    vertex -103.725 15 0
    vertex -103.725 35 0
  endloop
endfacet
facet normal 0 0 -1
  outer loop
    vertex -103.725 35 0
    vertex -126 15 0
    vertex -126 35 0
  endloop
endfacet
facet normal 0 0 -1
  outer loop
    vertex -83 35 29.5
    vertex -83 15 29.5
    vertex -89.7980765436737 15 29.5
  endloop
endfacet
facet normal .904291632055541 0 -.426915265824878
  outer loop
    vertex -89.7980765436737 35 29.5
    vertex -89.7980765436737 15 29.5
    vertex -103.725 15 0
  endloop
endfacet
facet normal 0 0 -1
  outer loop
    vertex -103.725 35 0
    vertex -103.725 15 0
    vertex -126 15 0
  endloop
endfacet
facet normal -1 0 0
  outer loop
    vertex -126 -15 10
    vertex -126 -15 0
    vertex -126 -35 0
  endloop
endfacet
facet normal -1 0 0
  outer loop
    vertex -126 -15 10
    vertex -126 -35 0
    vertex -126 -35 10
  endloop
endfacet
facet normal 1 0 0
  outer loop
    vertex -83 -35 39.5
    vertex -83 -35 29.5
    vertex -83 -15 29.5
  endloop
endfacet
facet normal 1 0 0
  outer loop
    vertex -83 -35 39.5
    vertex -83 -15 29.5
    vertex -83 -15 39.5
  endloop
endfacet
facet normal 0 1 0
  outer loop
    vertex -83 -15 29.5
    vertex -89.7980765436737 -15 29.5
    vertex -94.7980765436737 -15 39.5
  endloop
endfacet
facet normal 0 1 0
  outer loop
    vertex -89.7980765436737 -15 29.5
    vertex -103.725 -15 0
    vertex -108.725 -15 10
  endloop
endfacet
facet normal 0 1 0
  outer loop
    vertex -103.725 -15 0
    vertex -126 -15 0
    vertex -126 -15 10
  endloop
endfacet
facet normal 0 1 0
  outer loop
    vertex -83 -15 29.5
    vertex -94.7980765436737 -15 39.5
    vertex -83 -15 39.5
  endloop
endfacet
facet normal 0 1 0
  outer loop
    vertex -89.7980765436737 -15 29.5
    vertex -108.725 -15 10
    vertex -94.7980765436737 -15 39.5
  endloop
endfacet
facet normal 0 1 0
  outer loop
    vertex -103.725 -15 0
    vertex -126 -15 10
    vertex -108.725 -15 10
  endloop
endfacet
facet normal 0 -1 0
  outer loop
    vertex -83 -35 29.5
    vertex -94.7980765436737 -35 39.5
    vertex -89.7980765436737 -35 29.5
  endloop
endfacet
facet normal 0 -1 0
  outer loop
    vertex -89.7980765436737 -35 29.5
    vertex -108.725 -35 10
    vertex -103.725 -35 0
  endloop
endfacet
facet normal 0 -1 0
  outer loop
    vertex -103.725 -35 0
    vertex -126 -35 10
    vertex -126 -35 0
  endloop
endfacet
facet normal 0 -1 0
  outer loop
    vertex -83 -35 29.5
    vertex -83 -35 39.5
    vertex -94.7980765436737 -35 39.5
  endloop
endfacet
facet normal 0 -1 0
  outer loop
    vertex -89.7980765436737 -35 29.5
    vertex -94.7980765436737 -35 39.5
    vertex -108.725 -35 10
  endloop
endfacet
facet normal 0 -1 0
  outer loop
    vertex -103.725 -35 0
    vertex -108.725 -35 10
    vertex -126 -35 10
  endloop
endfacet
facet normal 0 0 1
  outer loop
    vertex -83 -15 39.5
    vertex -94.7980765436737 -15 39.5
    vertex -94.7980765436737 -35 39.5
  endloop
endfacet
facet normal -.904291632055541 0 .426915265824878
  outer loop
    vertex -94.7980765436737 -15 39.5
    vertex -108.725 -15 10
    vertex -108.725 -35 10
  endloop
endfacet
facet normal 0 0 1
  outer loop
    vertex -108.725 -15 10
    vertex -126 -15 10
    vertex -126 -35 10
  endloop
endfacet
facet normal 0 0 1
  outer loop
    vertex -83 -15 39.5
    vertex -94.7980765436737 -35 39.5
    vertex -83 -35 39.5
  endloop
endfacet
facet normal -.904291632055541 0 .426915265824878
  outer loop
    vertex -94.7980765436737 -15 39.5
    vertex -108.725 -35 10
    vertex -94.7980765436737 -35 39.5
  endloop
endfacet
facet normal 0 0 1
  outer loop
    vertex -108.725 -15 10
    vertex -126 -35 10
    vertex -108.725 -35 10
  endloop
endfacet
facet normal 0 0 -1
  outer loop
    vertex -83 -15 29.5
    vertex -89.7980765436737 -35 29.5
    vertex -89.7980765436737 -15 29.5
  endloop
endfacet
facet normal .904291632055541 0 -.426915265824878
  outer loop
    vertex -89.7980765436737 -15 29.5
    vertex -103.725 -35 0
    vertex -103.725 -15 0
  endloop
endfacet
facet normal 0 0 -1
  outer loop
    vertex -103.725 -15 0
    vertex -126 -35 0
    vertex -126 -15 0
  endloop
endfacet
facet normal 0 0 -1
  outer loop
    vertex -83 -15 29.5
    vertex -83 -35 29.5
    vertex -89.7980765436737 -35 29.5
  endloop
endfacet
facet normal .904291632055541 0 -.426915265824878
  outer loop
    vertex -89.7980765436737 -15 29.5
    vertex -89.7980765436737 -35 29.5
    vertex -103.725 -35 0
  endloop
endfacet
facet normal 0 0 -1
  outer loop
    vertex -103.725 -15 0
    vertex -103.725 -35 0
    vertex -126 -35 0
  endloop
endfacet
facet normal -1 0 0
  outer loop
    vertex -126 -65 10
    vertex -126 -65 0
    vertex -126 -85 0
  endloop
endfacet
facet normal -1 0 0
  outer loop
    vertex -126 -65 10
    vertex -126 -85 0
    vertex -126 -85 10
  endloop
endfacet
facet normal 1 0 0
  outer loop
    vertex -83 -85 39.5
    vertex -83 -85 29.5
    vertex -83 -65 29.5
  endloop
endfacet
facet normal 1 0 0
  outer loop
    vertex -83 -85 39.5
    vertex -83 -65 29.5
    vertex -83 -65 39.5
  endloop
endfacet
facet normal 0 1 0
  outer loop
    vertex -83 -65 29.5
    vertex -89.7980765436737 -65 29.5
    vertex -94.7980765436737 -65 39.5
  endloop
endfacet
facet normal 0 1 0
  outer loop
    vertex -89.7980765436737 -65 29.5
    vertex -103.725 -65 0
    vertex -108.725 -65 10
  endloop
endfacet
facet normal 0 1 0
  outer loop
    vertex -103.725 -65 0
    vertex -126 -65 0
    vertex -126 -65 10
  endloop
endfacet
facet normal 0 1 0
  outer loop
    vertex -83 -65 29.5
    vertex -94.7980765436737 -65 39.5
    vertex -83 -65 39.5
  endloop
endfacet
facet normal 0 1 0
  outer loop
    vertex -89.7980765436737 -65 29.5
    vertex -108.725 -65 10
    vertex -94.7980765436737 -65 39.5
  endloop
endfacet
facet normal 0 1 0
  outer loop
    vertex -103.725 -65 0
    vertex -126 -65 10
    vertex -108.725 -65 10
  endloop
endfacet
facet normal 0 -1 0
  outer loop
    vertex -83 -85 29.5
    vertex -94.7980765436737 -85 39.5
    vertex -89.7980765436737 -85 29.5
  endloop
endfacet
facet normal 0 -1 0
  outer loop
    vertex -89.7980765436737 -85 29.5
    vertex -108.725 -85 10
    vertex -103.725 -85 0
  endloop
endfacet
facet normal 0 -1 0
  outer loop
    vertex -103.725 -85 0
    vertex -126 -85 10
    vertex -126 -85 0
  endloop
endfacet
facet normal 0 -1 0
  outer loop
    vertex -83 -85 29.5
    vertex -83 -85 39.5
    vertex -94.7980765436737 -85 39.5
  endloop
endfacet
facet normal 0 -1 0
  outer loop
    vertex -89.7980765436737 -85 29.5
    vertex -94.7980765436737 -85 39.5
    vertex -108.725 -85 10
  endloop
endfacet
facet normal 0 -1 0
  outer loop
    vertex -103.725 -85 0
    vertex -108.725 -85 10
    vertex -126 -85 10
  endloop
endfacet
facet normal 0 0 1
  outer loop
    vertex -83 -65 39.5
    vertex -94.7980765436737 -65 39.5
    vertex -94.7980765436737 -85 39.5
  endloop
endfacet
facet normal -.904291632055541 0 .426915265824878
  outer loop
    vertex -94.7980765436737 -65 39.5
    vertex -108.725 -65 10
    vertex -108.725 -85 10
  endloop
endfacet
facet normal 0 0 1
  outer loop
    vertex -108.725 -65 10
    vertex -126 -65 10
    vertex -126 -85 10
  endloop
endfacet
facet normal 0 0 1
  outer loop
    vertex -83 -65 39.5
    vertex -94.7980765436737 -85 39.5
    vertex -83 -85 39.5
  endloop
endfacet
facet normal -.904291632055541 0 .426915265824878
  outer loop
    vertex -94.7980765436737 -65 39.5
    vertex -108.725 -85 10
    vertex -94.7980765436737 -85 39.5
  endloop
endfacet
facet normal 0 0 1
  outer loop
    vertex -108.725 -65 10
    vertex -126 -85 10
    vertex -108.725 -85 10
  endloop
endfacet
facet normal 0 0 -1
  outer loop
    vertex -83 -65 29.5
    vertex -89.7980765436737 -85 29.5
    vertex -89.7980765436737 -65 29.5
  endloop
endfacet
facet normal .904291632055541 0 -.426915265824878
  outer loop
    vertex -89.7980765436737 -65 29.5
    vertex -103.725 -85 0
    vertex -103.725 -65 0
  endloop
endfacet
facet normal 0 0 -1
  outer loop
    vertex -103.725 -65 0
    vertex -126 -85 0
    vertex -126 -65 0
  endloop
endfacet
facet normal 0 0 -1
  outer loop
    vertex -83 -65 29.5
    vertex -83 -85 29.5
    vertex -89.7980765436737 -85 29.5
  endloop
endfacet
facet normal .904291632055541 0 -.426915265824878
  outer loop
    vertex -89.7980765436737 -65 29.5
    vertex -89.7980765436737 -85 29.5
    vertex -103.725 -85 0
  endloop
endfacet
facet normal 0 0 -1
  outer loop
    vertex -103.725 -65 0
    vertex -103.725 -85 0
    vertex -126 -85 0
  endloop
endfacet
facet normal 1 0 0
  outer loop
    vertex 126 -85 10
    vertex 126 -85 0
    vertex 126 -65 0
  endloop
endfacet
facet normal 1 0 0
  outer loop
    vertex 126 -85 10
    vertex 126 -65 0
    vertex 126 -65 10
  endloop
endfacet
facet normal -1 0 0
  outer loop
    vertex 83 -65 39.5
    vertex 83 -65 29.5
    vertex 83 -85 29.5
  endloop
endfacet
facet normal -1 0 0
  outer loop
    vertex 83 -65 39.5
    vertex 83 -85 29.5
    vertex 83 -85 39.5
  endloop
endfacet
facet normal 0 -1 0
  outer loop
    vertex 83 -85 29.5
    vertex 89.7980765436737 -85 29.5
    vertex 94.7980765436737 -85 39.5
  endloop
endfacet
facet normal 0 -1 0
  outer loop
    vertex 89.7980765436737 -85 29.5
    vertex 103.725 -85 0
    vertex 108.725 -85 10
  endloop
endfacet
facet normal 0 -1 0
  outer loop
    vertex 103.725 -85 0
    vertex 126 -85 0
    vertex 126 -85 10
  endloop
endfacet
facet normal 0 -1 0
  outer loop
    vertex 83 -85 29.5
    vertex 94.7980765436737 -85 39.5
    vertex 83 -85 39.5
  endloop
endfacet
facet normal 0 -1 0
  outer loop
    vertex 89.7980765436737 -85 29.5
    vertex 108.725 -85 10
    vertex 94.7980765436737 -85 39.5
  endloop
endfacet
facet normal 0 -1 0
  outer loop
    vertex 103.725 -85 0
    vertex 126 -85 10
    vertex 108.725 -85 10
  endloop
endfacet
facet normal 0 1 0
  outer loop
    vertex 83 -65 29.5
    vertex 94.7980765436737 -65 39.5
    vertex 89.7980765436737 -65 29.5
  endloop
endfacet
facet normal 0 1 0
  outer loop
    vertex 89.7980765436737 -65 29.5
    vertex 108.725 -65 10
    vertex 103.725 -65 0
  endloop
endfacet
facet normal 0 1 0
  outer loop
    vertex 103.725 -65 0
    vertex 126 -65 10
    vertex 126 -65 0
  endloop
endfacet
facet normal 0 1 0
  outer loop
    vertex 83 -65 29.5
    vertex 83 -65 39.5
    vertex 94.7980765436737 -65 39.5
  endloop
endfacet
facet normal 0 1 0
  outer loop
    vertex 89.7980765436737 -65 29.5
    vertex 94.7980765436737 -65 39.5
    vertex 108.725 -65 10
  endloop
endfacet
facet normal 0 1 0
  outer loop
    vertex 103.725 -65 0
    vertex 108.725 -65 10
    vertex 126 -65 10
  endloop
endfacet
facet normal 0 0 1
  outer loop
    vertex 83 -85 39.5
    vertex 94.7980765436737 -85 39.5
    vertex 94.7980765436737 -65 39.5
  endloop
endfacet
facet normal .904291632055541 0 .426915265824878
  outer loop
    vertex 94.7980765436737 -85 39.5
    vertex 108.725 -85 10
    vertex 108.725 -65 10
  endloop
endfacet
facet normal 0 0 1
  outer loop
    vertex 108.725 -85 10
    vertex 126 -85 10
    vertex 126 -65 10
  endloop
endfacet
facet normal 0 0 1
  outer loop
    vertex 83 -85 39.5
    vertex 94.7980765436737 -65 39.5
    vertex 83 -65 39.5
  endloop
endfacet
facet normal .904291632055541 0 .426915265824878
  outer loop
    vertex 94.7980765436737 -85 39.5
    vertex 108.725 -65 10
    vertex 94.7980765436737 -65 39.5
  endloop
endfacet
facet normal 0 0 1
  outer loop
    vertex 108.725 -85 10
    vertex 126 -65 10
    vertex 108.725 -65 10
  endloop
endfacet
facet normal 0 0 -1
  outer loop
    vertex 83 -85 29.5
    vertex 89.7980765436737 -65 29.5
    vertex 89.7980765436737 -85 29.5
  endloop
endfacet
facet normal -.904291632055541 0 -.426915265824878
  outer loop
    vertex 89.7980765436737 -85 29.5
    vertex 103.725 -65 0
    vertex 103.725 -85 0
  endloop
endfacet
facet normal 0 0 -1
  outer loop
    vertex 103.725 -85 0
    vertex 126 -65 0
    vertex 126 -85 0
  endloop
endfacet
facet normal 0 0 -1
  outer loop
    vertex 83 -85 29.5
    vertex 83 -65 29.5
    vertex 89.7980765436737 -65 29.5
  endloop
endfacet
facet normal -.904291632055541 0 -.426915265824878
  outer loop
    vertex 89.7980765436737 -85 29.5
    vertex 89.7980765436737 -65 29.5
    vertex 103.725 -65 0
  endloop
endfacet
facet normal 0 0 -1
  outer loop
    vertex 103.725 -85 0
    vertex 103.725 -65 0
    vertex 126 -65 0
  endloop
endfacet
facet normal 1 0 0
  outer loop
    vertex 126 -35 10
    vertex 126 -35 0
    vertex 126 -15 0
  endloop
endfacet
facet normal 1 0 0
  outer loop
    vertex 126 -35 10
    vertex 126 -15 0
    vertex 126 -15 10
  endloop
endfacet
facet normal -1 0 0
  outer loop
    vertex 83 -15 39.5
    vertex 83 -15 29.5
    vertex 83 -35 29.5
  endloop
endfacet
facet normal -1 0 0
  outer loop
    vertex 83 -15 39.5
    vertex 83 -35 29.5
    vertex 83 -35 39.5
  endloop
endfacet
facet normal 0 -1 0
  outer loop
    vertex 83 -35 29.5
    vertex 89.7980765436737 -35 29.5
    vertex 94.7980765436737 -35 39.5
  endloop
endfacet
facet normal 0 -1 0
  outer loop
    vertex 89.7980765436737 -35 29.5
    vertex 103.725 -35 0
    vertex 108.725 -35 10
  endloop
endfacet
facet normal 0 -1 0
  outer loop
    vertex 103.725 -35 0
    vertex 126 -35 0
    vertex 126 -35 10
  endloop
endfacet
facet normal 0 -1 0
  outer loop
    vertex 83 -35 29.5
    vertex 94.7980765436737 -35 39.5
    vertex 83 -35 39.5
  endloop
endfacet
facet normal 0 -1 0
  outer loop
    vertex 89.7980765436737 -35 29.5
    vertex 108.725 -35 10
    vertex 94.7980765436737 -35 39.5
  endloop
endfacet
facet normal 0 -1 0
  outer loop
    vertex 103.725 -35 0
    vertex 126 -35 10
    vertex 108.725 -35 10
  endloop
endfacet
facet normal 0 1 0
  outer loop
    vertex 83 -15 29.5
    vertex 94.7980765436737 -15 39.5
    vertex 89.7980765436737 -15 29.5
  endloop
endfacet
facet normal 0 1 0
  outer loop
    vertex 89.7980765436737 -15 29.5
    vertex 108.725 -15 10
    vertex 103.725 -15 0
  endloop
endfacet
facet normal 0 1 0
  outer loop
    vertex 103.725 -15 0
    vertex 126 -15 10
    vertex 126 -15 0
  endloop
endfacet
facet normal 0 1 0
  outer loop
    vertex 83 -15 29.5
    vertex 83 -15 39.5
    vertex 94.7980765436737 -15 39.5
  endloop
endfacet
facet normal 0 1 0
  outer loop
    vertex 89.7980765436737 -15 29.5
    vertex 94.7980765436737 -15 39.5
    vertex 108.725 -15 10
  endloop
endfacet
facet normal 0 1 0
  outer loop
    vertex 103.725 -15 0
    vertex 108.725 -15 10
    vertex 126 -15 10
  endloop
endfacet
facet normal 0 0 1
  outer loop
    vertex 83 -35 39.5
    vertex 94.7980765436737 -35 39.5
    vertex 94.7980765436737 -15 39.5
  endloop
endfacet
facet normal .904291632055541 0 .426915265824878
  outer loop
    vertex 94.7980765436737 -35 39.5
    vertex 108.725 -35 10
    vertex 108.725 -15 10
  endloop
endfacet
facet normal 0 0 1
  outer loop
    vertex 108.725 -35 10
    vertex 126 -35 10
    vertex 126 -15 10
  endloop
endfacet
facet normal 0 0 1
  outer loop
    vertex 83 -35 39.5
    vertex 94.7980765436737 -15 39.5
    vertex 83 -15 39.5
  endloop
endfacet
facet normal .904291632055541 0 .426915265824878
  outer loop
    vertex 94.7980765436737 -35 39.5
    vertex 108.725 -15 10
    vertex 94.7980765436737 -15 39.5
  endloop
endfacet
facet normal 0 0 1
  outer loop
    vertex 108.725 -35 10
    vertex 126 -15 10
    vertex 108.725 -15 10
  endloop
endfacet
facet normal 0 0 -1
  outer loop
    vertex 83 -35 29.5
    vertex 89.7980765436737 -15 29.5
    vertex 89.7980765436737 -35 29.5
  endloop
endfacet
facet normal -.904291632055541 0 -.426915265824878
  outer loop
    vertex 89.7980765436737 -35 29.5
    vertex 103.725 -15 0
    vertex 103.725 -35 0
  endloop
endfacet
facet normal 0 0 -1
  outer loop
    vertex 103.725 -35 0
    vertex 126 -15 0
    vertex 126 -35 0
  endloop
endfacet
facet normal 0 0 -1
  outer loop
    vertex 83 -35 29.5
    vertex 83 -15 29.5
    vertex 89.7980765436737 -15 29.5
  endloop
endfacet
facet normal -.904291632055541 0 -.426915265824878
  outer loop
    vertex 89.7980765436737 -35 29.5
    vertex 89.7980765436737 -15 29.5
    vertex 103.725 -15 0
  endloop
endfacet
facet normal 0 0 -1
  outer loop
    vertex 103.725 -35 0
    vertex 103.725 -15 0
    vertex 126 -15 0
  endloop
endfacet
facet normal 1 0 0
  outer loop
    vertex 126 15 10
    vertex 126 15 0
    vertex 126 35 0
  endloop
endfacet
facet normal 1 0 0
  outer loop
    vertex 126 15 10
    vertex 126 35 0
    vertex 126 35 10
  endloop
endfacet
facet normal -1 0 0
  outer loop
    vertex 83 35 39.5
    vertex 83 35 29.5
    vertex 83 15 29.5
  endloop
endfacet
facet normal -1 0 0
  outer loop
    vertex 83 35 39.5
    vertex 83 15 29.5
    vertex 83 15 39.5
  endloop
endfacet
facet normal 0 -1 0
  outer loop
    vertex 83 15 29.5
    vertex 89.7980765436737 15 29.5
    vertex 94.7980765436737 15 39.5
  endloop
endfacet
facet normal 0 -1 0
  outer loop
    vertex 89.7980765436737 15 29.5
    vertex 103.725 15 0
    vertex 108.725 15 10
  endloop
endfacet
facet normal 0 -1 0
  outer loop
    vertex 103.725 15 0
    vertex 126 15 0
    vertex 126 15 10
  endloop
endfacet
facet normal 0 -1 0
  outer loop
    vertex 83 15 29.5
    vertex 94.7980765436737 15 39.5
    vertex 83 15 39.5
  endloop
endfacet
facet normal 0 -1 0
  outer loop
    vertex 89.7980765436737 15 29.5
    vertex 108.725 15 10
    vertex 94.7980765436737 15 39.5
  endloop
endfacet
facet normal 0 -1 0
  outer loop
    vertex 103.725 15 0
    vertex 126 15 10
    vertex 108.725 15 10
  endloop
endfacet
facet normal 0 1 0
  outer loop
    vertex 83 35 29.5
    vertex 94.7980765436737 35 39.5
    vertex 89.7980765436737 35 29.5
  endloop
endfacet
facet normal 0 1 0
  outer loop
    vertex 89.7980765436737 35 29.5
    vertex 108.725 35 10
    vertex 103.725 35 0
  endloop
endfacet
facet normal 0 1 0
  outer loop
    vertex 103.725 35 0
    vertex 126 35 10
    vertex 126 35 0
  endloop
endfacet
facet normal 0 1 0
  outer loop
    vertex 83 35 29.5
    vertex 83 35 39.5
    vertex 94.7980765436737 35 39.5
  endloop
endfacet
facet normal 0 1 0
  outer loop
    vertex 89.7980765436737 35 29.5
    vertex 94.7980765436737 35 39.5
    vertex 108.725 35 10
  endloop
endfacet
facet normal 0 1 0
  outer loop
    vertex 103.725 35 0
    vertex 108.725 35 10
    vertex 126 35 10
  endloop
endfacet
facet normal 0 0 1
  outer loop
    vertex 83 15 39.5
    vertex 94.7980765436737 15 39.5
    vertex 94.7980765436737 35 39.5
  endloop
endfacet
facet normal .904291632055541 0 .426915265824878
  outer loop
    vertex 94.7980765436737 15 39.5
    vertex 108.725 15 10
    vertex 108.725 35 10
  endloop
endfacet
facet normal 0 0 1
  outer loop
    vertex 108.725 15 10
    vertex 126 15 10
    vertex 126 35 10
  endloop
endfacet
facet normal 0 0 1
  outer loop
    vertex 83 15 39.5
    vertex 94.7980765436737 35 39.5
    vertex 83 35 39.5
  endloop
endfacet
facet normal .904291632055541 0 .426915265824878
  outer loop
    vertex 94.7980765436737 15 39.5
    vertex 108.725 35 10
    vertex 94.7980765436737 35 39.5
  endloop
endfacet
facet normal 0 0 1
  outer loop
    vertex 108.725 15 10
    vertex 126 35 10
    vertex 108.725 35 10
  endloop
endfacet
facet normal 0 0 -1
  outer loop
    vertex 83 15 29.5
    vertex 89.7980765436737 35 29.5
    vertex 89.7980765436737 15 29.5
  endloop
endfacet
facet normal -.904291632055541 0 -.426915265824878
  outer loop
    vertex 89.7980765436737 15 29.5
    vertex 103.725 35 0
    vertex 103.725 15 0
  endloop
endfacet
facet normal 0 0 -1
  outer loop
    vertex 103.725 15 0
    vertex 126 35 0
    vertex 126 15 0
  endloop
endfacet
facet normal 0 0 -1
  outer loop
    vertex 83 15 29.5
    vertex 83 35 29.5
    vertex 89.7980765436737 35 29.5
  endloop
endfacet
facet normal -.904291632055541 0 -.426915265824878
  outer loop
    vertex 89.7980765436737 15 29.5
    vertex 89.7980765436737 35 29.5
    vertex 103.725 35 0
  endloop
endfacet
facet normal 0 0 -1
  outer loop
    vertex 103.725 15 0
    vertex 103.725 35 0
    vertex 126 35 0
  endloop
endfacet
facet normal 1 0 0
  outer loop
    vertex 126 65 10
    vertex 126 65 0
    vertex 126 85 0
  endloop
endfacet
facet normal 1 0 0
  outer loop
    vertex 126 65 10
    vertex 126 85 0
    vertex 126 85 10
  endloop
endfacet
facet normal -1 0 0
  outer loop
    vertex 83 85 39.5
    vertex 83 85 29.5
    vertex 83 65 29.5
  endloop
endfacet
facet normal -1 0 0
  outer loop
    vertex 83 85 39.5
    vertex 83 65 29.5
    vertex 83 65 39.5
  endloop
endfacet
facet normal 0 -1 0
  outer loop
    vertex 83 65 29.5
    vertex 89.7980765436737 65 29.5
    vertex 94.7980765436737 65 39.5
  endloop
endfacet
facet normal 0 -1 0
  outer loop
    vertex 89.7980765436737 65 29.5
    vertex 103.725 65 0
    vertex 108.725 65 10
  endloop
endfacet
facet normal 0 -1 0
  outer loop
    vertex 103.725 65 0
    vertex 126 65 0
    vertex 126 65 10
  endloop
endfacet
facet normal 0 -1 0
  outer loop
    vertex 83 65 29.5
    vertex 94.7980765436737 65 39.5
    vertex 83 65 39.5
  endloop
endfacet
facet normal 0 -1 0
  outer loop
    vertex 89.7980765436737 65 29.5
    vertex 108.725 65 10
    vertex 94.7980765436737 65 39.5
  endloop
endfacet
facet normal 0 -1 0
  outer loop
    vertex 103.725 65 0
    vertex 126 65 10
    vertex 108.725 65 10
  endloop
endfacet
facet normal 0 1 0
  outer loop
    vertex 83 85 29.5
    vertex 94.7980765436737 85 39.5
    vertex 89.7980765436737 85 29.5
  endloop
endfacet
facet normal 0 1 0
  outer loop
    vertex 89.7980765436737 85 29.5
    vertex 108.725 85 10
    vertex 103.725 85 0
  endloop
endfacet
facet normal 0 1 0
  outer loop
    vertex 103.725 85 0
    vertex 126 85 10
    vertex 126 85 0
  endloop
endfacet
facet normal 0 1 0
  outer loop
    vertex 83 85 29.5
    vertex 83 85 39.5
    vertex 94.7980765436737 85 39.5
  endloop
endfacet
facet normal 0 1 0
  outer loop
    vertex 89.7980765436737 85 29.5
    vertex 94.7980765436737 85 39.5
    vertex 108.725 85 10
  endloop
endfacet
facet normal 0 1 0
  outer loop
    vertex 103.725 85 0
    vertex 108.725 85 10
    vertex 126 85 10
  endloop
endfacet
facet normal 0 0 1
  outer loop
    vertex 83 65 39.5
    vertex 94.7980765436737 65 39.5
    vertex 94.7980765436737 85 39.5
  endloop
endfacet
facet normal .904291632055541 0 .426915265824878
  outer loop
    vertex 94.7980765436737 65 39.5
    vertex 108.725 65 10
    vertex 108.725 85 10
  endloop
endfacet
facet normal 0 0 1
  outer loop
    vertex 108.725 65 10
    vertex 126 65 10
    vertex 126 85 10
  endloop
endfacet
facet normal 0 0 1
  outer loop
    vertex 83 65 39.5
    vertex 94.7980765436737 85 39.5
    vertex 83 85 39.5
  endloop
endfacet
facet normal .904291632055541 0 .426915265824878
  outer loop
    vertex 94.7980765436737 65 39.5
    vertex 108.725 85 10
    vertex 94.7980765436737 85 39.5
  endloop
endfacet
facet normal 0 0 1
  outer loop
    vertex 108.725 65 10
    vertex 126 85 10
    vertex 108.725 85 10
  endloop
endfacet
facet normal 0 0 -1
  outer loop
    vertex 83 65 29.5
    vertex 89.7980765436737 85 29.5
    vertex 89.7980765436737 65 29.5
  endloop
endfacet
facet normal -.904291632055541 0 -.426915265824878
  outer loop
    vertex 89.7980765436737 65 29.5
    vertex 103.725 85 0
    vertex 103.725 65 0
  endloop
endfacet
facet normal 0 0 -1
  outer loop
    vertex 103.725 65 0
    vertex 126 85 0
    vertex 126 65 0
  endloop
endfacet
facet normal 0 0 -1
  outer loop
    vertex 83 65 29.5
    vertex 83 85 29.5
    vertex 89.7980765436737 85 29.5
  endloop
endfacet
facet normal -.904291632055541 0 -.426915265824878
  outer loop
    vertex 89.7980765436737 65 29.5
    vertex 89.7980765436737 85 29.5
    vertex 103.725 85 0
  endloop
endfacet
facet normal 0 0 -1
  outer loop
    vertex 103.725 65 0
    vertex 103.725 85 0
    vertex 126 85 0
  endloop
endfacet
endsolid FPT-8P-M02-L
