solid RC1206N-M
facet normal 1 0 0
  outer loop
    vertex 33 -30.5 1
    vertex 33 30.5 27
    vertex 33 -30.5 27
  endloop
endfacet
facet normal 1 0 0
  outer loop
    vertex 33 -30.5 1
    vertex 33 30.5 1
    vertex 33 30.5 27
  endloop
endfacet
facet normal -1 0 0
  outer loop
    vertex -33 30.5 1
    vertex -33 -30.5 27
    vertex -33 30.5 27
  endloop
endfacet
facet normal -1 0 0
  outer loop
    vertex -33 30.5 1
    vertex -33 -30.5 1
    vertex -33 -30.5 27
  endloop
endfacet
facet normal 0 -1 0
  outer loop
    vertex -33 -30.5 1
    vertex 33 -30.5 27
    vertex -33 -30.5 27
  endloop
endfacet
facet normal 0 -1 0
  outer loop
    vertex -33 -30.5 1
    vertex 33 -30.5 1
    vertex 33 -30.5 27
  endloop
endfacet
facet normal 0 1 0
  outer loop
    vertex 33 30.5 1
    vertex -33 30.5 27
    vertex 33 30.5 27
  endloop
endfacet
facet normal 0 1 0
  outer loop
    vertex 33 30.5 1
    vertex -33 30.5 1
    vertex -33 30.5 27
  endloop
endfacet
facet normal 0 0 -1
  outer loop
    vertex 33 -30.5 1
    vertex -33 30.5 1
    vertex 33 30.5 1
  endloop
endfacet
facet normal 0 0 -1
  outer loop
    vertex 33 -30.5 1
    vertex -33 -30.5 1
    vertex -33 30.5 1
  endloop
endfacet
facet normal 0 0 1
  outer loop
    vertex 33 -30.5 27
    vertex 33 30.5 27
    vertex -33 30.5 27
  endloop
endfacet
facet normal 0 0 1
  outer loop
    vertex 33 -30.5 27
    vertex -33 30.5 27
    vertex -33 -30.5 27
  endloop
endfacet
facet normal 1 0 0
  outer loop
    vertex 63 -31.5 0
    vertex 63 31.5 28
    vertex 63 -31.5 28
  endloop
endfacet
facet normal 1 0 0
  outer loop
    vertex 63 -31.5 0
    vertex 63 31.5 0
    vertex 63 31.5 28
  endloop
endfacet
facet normal -1 0 0
  outer loop
    vertex 33 31.5 0
    vertex 33 -31.5 28
    vertex 33 31.5 28
  endloop
endfacet
facet normal -1 0 0
  outer loop
    vertex 33 31.5 0
    vertex 33 -31.5 0
    vertex 33 -31.5 28
  endloop
endfacet
facet normal 0 -1 0
  outer loop
    vertex 33 -31.5 0
    vertex 63 -31.5 28
    vertex 33 -31.5 28
  endloop
endfacet
facet normal 0 -1 0
  outer loop
    vertex 33 -31.5 0
    vertex 63 -31.5 0
    vertex 63 -31.5 28
  endloop
endfacet
facet normal 0 1 0
  outer loop
    vertex 63 31.5 0
    vertex 33 31.5 28
    vertex 63 31.5 28
  endloop
endfacet
facet normal 0 1 0
  outer loop
    vertex 63 31.5 0
    vertex 33 31.5 0
    vertex 33 31.5 28
  endloop
endfacet
facet normal 0 0 -1
  outer loop
    vertex 63 -31.5 0
    vertex 33 31.5 0
    vertex 63 31.5 0
  endloop
endfacet
facet normal 0 0 -1
  outer loop
    vertex 63 -31.5 0
    vertex 33 -31.5 0
    vertex 33 31.5 0
  endloop
endfacet
facet normal 0 0 1
  outer loop
    vertex 63 -31.5 28
    vertex 63 31.5 28
    vertex 33 31.5 28
  endloop
endfacet
facet normal 0 0 1
  outer loop
    vertex 63 -31.5 28
    vertex 33 31.5 28
    vertex 33 -31.5 28
  endloop
endfacet
facet normal -1 0 0
  outer loop
    vertex -63 31.5 0
    vertex -63 -31.5 28
    vertex -63 31.5 28
  endloop
endfacet
facet normal -1 0 0
  outer loop
    vertex -63 31.5 0
    vertex -63 -31.5 0
    vertex -63 -31.5 28
  endloop
endfacet
facet normal 1 0 0
  outer loop
    vertex -33 -31.5 0
    vertex -33 31.5 28
    vertex -33 -31.5 28
  endloop
endfacet
facet normal 1 0 0
  outer loop
    vertex -33 -31.5 0
    vertex -33 31.5 0
    vertex -33 31.5 28
  endloop
endfacet
facet normal 0 1 0
  outer loop
    vertex -33 31.5 0
    vertex -63 31.5 28
    vertex -33 31.5 28
  endloop
endfacet
facet normal 0 1 0
  outer loop
    vertex -33 31.5 0
    vertex -63 31.5 0
    vertex -63 31.5 28
  endloop
endfacet
facet normal 0 -1 0
  outer loop
    vertex -63 -31.5 0
    vertex -33 -31.5 28
    vertex -63 -31.5 28
  endloop
endfacet
facet normal 0 -1 0
  outer loop
    vertex -63 -31.5 0
    vertex -33 -31.5 0
    vertex -33 -31.5 28
  endloop
endfacet
facet normal 0 0 -1
  outer loop
    vertex -63 31.5 0
    vertex -33 -31.5 0
    vertex -63 -31.5 0
  endloop
endfacet
facet normal 0 0 -1
  outer loop
    vertex -63 31.5 0
    vertex -33 31.5 0
    vertex -33 -31.5 0
  endloop
endfacet
facet normal 0 0 1
  outer loop
    vertex -63 31.5 28
    vertex -63 -31.5 28
    vertex -33 -31.5 28
  endloop
endfacet
facet normal 0 0 1
  outer loop
    vertex -63 31.5 28
    vertex -33 -31.5 28
    vertex -33 31.5 28
  endloop
endfacet
endsolid RC1206N-M
