solid SO-8-M
facet normal 0 0 -1
  outer loop
    vertex -52.8458525873529 75 69
    vertex -48.9717507297601 75.7706067719637 69
    vertex -48.8958525873529 75 69
  endloop
endfacet
facet normal 0 0 -1
  outer loop
    vertex -52.8458525873529 75 69
    vertex -49.1965284339333 76.5115995578421 69
    vertex -48.9717507297601 75.7706067719637 69
  endloop
endfacet
facet normal 0 0 -1
  outer loop
    vertex -52.8458525873529 75 69
    vertex -49.5615476187578 77.1945024204274 69
    vertex -49.1965284339333 76.5115995578421 69
  endloop
endfacet
facet normal 0 0 -1
  outer loop
    vertex -52.8458525873529 75 69
    vertex -50.052780801666 77.7930717856869 69
    vertex -49.5615476187578 77.1945024204274 69
  endloop
endfacet
facet normal 0 0 -1
  outer loop
    vertex -52.8458525873529 75 69
    vertex -50.6513501669254 78.2843049685951 69
    vertex -50.052780801666 77.7930717856869 69
  endloop
endfacet
facet normal 0 0 -1
  outer loop
    vertex -52.8458525873529 75 69
    vertex -51.3342530295108 78.6493241534196 69
    vertex -50.6513501669254 78.2843049685951 69
  endloop
endfacet
facet normal 0 0 -1
  outer loop
    vertex -52.8458525873529 75 69
    vertex -52.0752458153892 78.8741018575928 69
    vertex -51.3342530295108 78.6493241534196 69
  endloop
endfacet
facet normal 0 0 -1
  outer loop
    vertex -52.8458525873529 75 69
    vertex -52.8458525873529 78.95 69
    vertex -52.0752458153892 78.8741018575928 69
  endloop
endfacet
facet normal 0 0 -1
  outer loop
    vertex -52.8458525873529 75 69
    vertex -53.6164593593166 78.8741018575928 69
    vertex -52.8458525873529 78.95 69
  endloop
endfacet
facet normal 0 0 -1
  outer loop
    vertex -52.8458525873529 75 69
    vertex -54.357452145195 78.6493241534196 69
    vertex -53.6164593593166 78.8741018575928 69
  endloop
endfacet
facet normal 0 0 -1
  outer loop
    vertex -52.8458525873529 75 69
    vertex -55.0403550077803 78.2843049685951 69
    vertex -54.357452145195 78.6493241534196 69
  endloop
endfacet
facet normal 0 0 -1
  outer loop
    vertex -52.8458525873529 75 69
    vertex -55.6389243730397 77.7930717856869 69
    vertex -55.0403550077803 78.2843049685951 69
  endloop
endfacet
facet normal 0 0 -1
  outer loop
    vertex -52.8458525873529 75 69
    vertex -56.1301575559479 77.1945024204274 69
    vertex -55.6389243730397 77.7930717856869 69
  endloop
endfacet
facet normal 0 0 -1
  outer loop
    vertex -52.8458525873529 75 69
    vertex -56.4951767407725 76.5115995578421 69
    vertex -56.1301575559479 77.1945024204274 69
  endloop
endfacet
facet normal 0 0 -1
  outer loop
    vertex -52.8458525873529 75 69
    vertex -56.7199544449456 75.7706067719637 69
    vertex -56.4951767407725 76.5115995578421 69
  endloop
endfacet
facet normal 0 0 -1
  outer loop
    vertex -52.8458525873529 75 69
    vertex -56.7958525873529 75 69
    vertex -56.7199544449456 75.7706067719637 69
  endloop
endfacet
facet normal 0 0 -1
  outer loop
    vertex -52.8458525873529 75 69
    vertex -56.7199544449456 74.2293932280363 69
    vertex -56.7958525873529 75 69
  endloop
endfacet
facet normal 0 0 -1
  outer loop
    vertex -52.8458525873529 75 69
    vertex -56.4951767407725 73.4884004421579 69
    vertex -56.7199544449456 74.2293932280363 69
  endloop
endfacet
facet normal 0 0 -1
  outer loop
    vertex -52.8458525873529 75 69
    vertex -56.1301575559479 72.8054975795726 69
    vertex -56.4951767407725 73.4884004421579 69
  endloop
endfacet
facet normal 0 0 -1
  outer loop
    vertex -52.8458525873529 75 69
    vertex -55.6389243730397 72.2069282143131 69
    vertex -56.1301575559479 72.8054975795726 69
  endloop
endfacet
facet normal 0 0 -1
  outer loop
    vertex -52.8458525873529 75 69
    vertex -55.0403550077803 71.7156950314049 69
    vertex -55.6389243730397 72.2069282143131 69
  endloop
endfacet
facet normal 0 0 -1
  outer loop
    vertex -52.8458525873529 75 69
    vertex -54.357452145195 71.3506758465804 69
    vertex -55.0403550077803 71.7156950314049 69
  endloop
endfacet
facet normal 0 0 -1
  outer loop
    vertex -52.8458525873529 75 69
    vertex -53.6164593593166 71.1258981424072 69
    vertex -54.357452145195 71.3506758465804 69
  endloop
endfacet
facet normal 0 0 -1
  outer loop
    vertex -52.8458525873529 75 69
    vertex -52.8458525873529 71.05 69
    vertex -53.6164593593166 71.1258981424072 69
  endloop
endfacet
facet normal 0 0 -1
  outer loop
    vertex -52.8458525873529 75 69
    vertex -52.0752458153892 71.1258981424072 69
    vertex -52.8458525873529 71.05 69
  endloop
endfacet
facet normal 0 0 -1
  outer loop
    vertex -52.8458525873529 75 69
    vertex -51.3342530295108 71.3506758465804 69
    vertex -52.0752458153892 71.1258981424072 69
  endloop
endfacet
facet normal 0 0 -1
  outer loop
    vertex -52.8458525873529 75 69
    vertex -50.6513501669254 71.7156950314049 69
    vertex -51.3342530295108 71.3506758465804 69
  endloop
endfacet
facet normal 0 0 -1
  outer loop
    vertex -52.8458525873529 75 69
    vertex -50.052780801666 72.2069282143131 69
    vertex -50.6513501669254 71.7156950314049 69
  endloop
endfacet
facet normal 0 0 -1
  outer loop
    vertex -52.8458525873529 75 69
    vertex -49.5615476187578 72.8054975795726 69
    vertex -50.052780801666 72.2069282143131 69
  endloop
endfacet
facet normal 0 0 -1
  outer loop
    vertex -52.8458525873529 75 69
    vertex -49.1965284339333 73.4884004421579 69
    vertex -49.5615476187578 72.8054975795726 69
  endloop
endfacet
facet normal 0 0 -1
  outer loop
    vertex -52.8458525873529 75 69
    vertex -48.9717507297601 74.2293932280363 69
    vertex -49.1965284339333 73.4884004421579 69
  endloop
endfacet
facet normal 0 0 -1
  outer loop
    vertex -52.8458525873529 75 69
    vertex -48.8958525873529 75 69
    vertex -48.9717507297601 74.2293932280363 69
  endloop
endfacet
facet normal 0 0 1
  outer loop
    vertex -52.8458525873529 75 69.1
    vertex -48.8958525873529 75 69.1
    vertex -48.9717507297601 75.7706067719637 69.1
  endloop
endfacet
facet normal 0 0 1
  outer loop
    vertex -52.8458525873529 75 69.1
    vertex -48.9717507297601 75.7706067719637 69.1
    vertex -49.1965284339333 76.5115995578421 69.1
  endloop
endfacet
facet normal 0 0 1
  outer loop
    vertex -52.8458525873529 75 69.1
    vertex -49.1965284339333 76.5115995578421 69.1
    vertex -49.5615476187578 77.1945024204274 69.1
  endloop
endfacet
facet normal 0 0 1
  outer loop
    vertex -52.8458525873529 75 69.1
    vertex -49.5615476187578 77.1945024204274 69.1
    vertex -50.052780801666 77.7930717856869 69.1
  endloop
endfacet
facet normal 0 0 1
  outer loop
    vertex -52.8458525873529 75 69.1
    vertex -50.052780801666 77.7930717856869 69.1
    vertex -50.6513501669254 78.2843049685951 69.1
  endloop
endfacet
facet normal 0 0 1
  outer loop
    vertex -52.8458525873529 75 69.1
    vertex -50.6513501669254 78.2843049685951 69.1
    vertex -51.3342530295108 78.6493241534196 69.1
  endloop
endfacet
facet normal 0 0 1
  outer loop
    vertex -52.8458525873529 75 69.1
    vertex -51.3342530295108 78.6493241534196 69.1
    vertex -52.0752458153892 78.8741018575928 69.1
  endloop
endfacet
facet normal 0 0 1
  outer loop
    vertex -52.8458525873529 75 69.1
    vertex -52.0752458153892 78.8741018575928 69.1
    vertex -52.8458525873529 78.95 69.1
  endloop
endfacet
facet normal 0 0 1
  outer loop
    vertex -52.8458525873529 75 69.1
    vertex -52.8458525873529 78.95 69.1
    vertex -53.6164593593166 78.8741018575928 69.1
  endloop
endfacet
facet normal 0 0 1
  outer loop
    vertex -52.8458525873529 75 69.1
    vertex -53.6164593593166 78.8741018575928 69.1
    vertex -54.357452145195 78.6493241534196 69.1
  endloop
endfacet
facet normal 0 0 1
  outer loop
    vertex -52.8458525873529 75 69.1
    vertex -54.357452145195 78.6493241534196 69.1
    vertex -55.0403550077803 78.2843049685951 69.1
  endloop
endfacet
facet normal 0 0 1
  outer loop
    vertex -52.8458525873529 75 69.1
    vertex -55.0403550077803 78.2843049685951 69.1
    vertex -55.6389243730397 77.7930717856869 69.1
  endloop
endfacet
facet normal 0 0 1
  outer loop
    vertex -52.8458525873529 75 69.1
    vertex -55.6389243730397 77.7930717856869 69.1
    vertex -56.1301575559479 77.1945024204274 69.1
  endloop
endfacet
facet normal 0 0 1
  outer loop
    vertex -52.8458525873529 75 69.1
    vertex -56.1301575559479 77.1945024204274 69.1
    vertex -56.4951767407725 76.5115995578421 69.1
  endloop
endfacet
facet normal 0 0 1
  outer loop
    vertex -52.8458525873529 75 69.1
    vertex -56.4951767407725 76.5115995578421 69.1
    vertex -56.7199544449456 75.7706067719637 69.1
  endloop
endfacet
facet normal 0 0 1
  outer loop
    vertex -52.8458525873529 75 69.1
    vertex -56.7199544449456 75.7706067719637 69.1
    vertex -56.7958525873529 75 69.1
  endloop
endfacet
facet normal 0 0 1
  outer loop
    vertex -52.8458525873529 75 69.1
    vertex -56.7958525873529 75 69.1
    vertex -56.7199544449456 74.2293932280363 69.1
  endloop
endfacet
facet normal 0 0 1
  outer loop
    vertex -52.8458525873529 75 69.1
    vertex -56.7199544449456 74.2293932280363 69.1
    vertex -56.4951767407725 73.4884004421579 69.1
  endloop
endfacet
facet normal 0 0 1
  outer loop
    vertex -52.8458525873529 75 69.1
    vertex -56.4951767407725 73.4884004421579 69.1
    vertex -56.1301575559479 72.8054975795726 69.1
  endloop
endfacet
facet normal 0 0 1
  outer loop
    vertex -52.8458525873529 75 69.1
    vertex -56.1301575559479 72.8054975795726 69.1
    vertex -55.6389243730397 72.2069282143131 69.1
  endloop
endfacet
facet normal 0 0 1
  outer loop
    vertex -52.8458525873529 75 69.1
    vertex -55.6389243730397 72.2069282143131 69.1
    vertex -55.0403550077803 71.7156950314049 69.1
  endloop
endfacet
facet normal 0 0 1
  outer loop
    vertex -52.8458525873529 75 69.1
    vertex -55.0403550077803 71.7156950314049 69.1
    vertex -54.357452145195 71.3506758465804 69.1
  endloop
endfacet
facet normal 0 0 1
  outer loop
    vertex -52.8458525873529 75 69.1
    vertex -54.357452145195 71.3506758465804 69.1
    vertex -53.6164593593166 71.1258981424072 69.1
  endloop
endfacet
facet normal 0 0 1
  outer loop
    vertex -52.8458525873529 75 69.1
    vertex -53.6164593593166 71.1258981424072 69.1
    vertex -52.8458525873529 71.05 69.1
  endloop
endfacet
facet normal 0 0 1
  outer loop
    vertex -52.8458525873529 75 69.1
    vertex -52.8458525873529 71.05 69.1
    vertex -52.0752458153892 71.1258981424072 69.1
  endloop
endfacet
facet normal 0 0 1
  outer loop
    vertex -52.8458525873529 75 69.1
    vertex -52.0752458153892 71.1258981424072 69.1
    vertex -51.3342530295108 71.3506758465804 69.1
  endloop
endfacet
facet normal 0 0 1
  outer loop
    vertex -52.8458525873529 75 69.1
    vertex -51.3342530295108 71.3506758465804 69.1
    vertex -50.6513501669254 71.7156950314049 69.1
  endloop
endfacet
facet normal 0 0 1
  outer loop
    vertex -52.8458525873529 75 69.1
    vertex -50.6513501669254 71.7156950314049 69.1
    vertex -50.052780801666 72.2069282143131 69.1
  endloop
endfacet
facet normal 0 0 1
  outer loop
    vertex -52.8458525873529 75 69.1
    vertex -50.052780801666 72.2069282143131 69.1
    vertex -49.5615476187578 72.8054975795726 69.1
  endloop
endfacet
facet normal 0 0 1
  outer loop
    vertex -52.8458525873529 75 69.1
    vertex -49.5615476187578 72.8054975795726 69.1
    vertex -49.1965284339333 73.4884004421579 69.1
  endloop
endfacet
facet normal 0 0 1
  outer loop
    vertex -52.8458525873529 75 69.1
    vertex -49.1965284339333 73.4884004421579 69.1
    vertex -48.9717507297601 74.2293932280363 69.1
  endloop
endfacet
facet normal 0 0 1
  outer loop
    vertex -52.8458525873529 75 69.1
    vertex -48.9717507297601 74.2293932280363 69.1
    vertex -48.8958525873529 75 69.1
  endloop
endfacet
facet normal .995184726672201 9.80171403295168E-02 0
  outer loop
    vertex -48.8958525873529 75 69
    vertex -48.9717507297601 75.7706067719637 69.1
    vertex -48.8958525873529 75 69.1
  endloop
endfacet
facet normal .956940335732202 .290284677254486 0
  outer loop
    vertex -48.9717507297601 75.7706067719637 69
    vertex -49.1965284339333 76.5115995578421 69.1
    vertex -48.9717507297601 75.7706067719637 69.1
  endloop
endfacet
facet normal .881921264348363 .471396736825982 0
  outer loop
    vertex -49.1965284339333 76.5115995578421 69
    vertex -49.5615476187578 77.1945024204274 69.1
    vertex -49.1965284339333 76.5115995578421 69.1
  endloop
endfacet
facet normal .773010453362767 .634393284163609 0
  outer loop
    vertex -49.5615476187578 77.1945024204274 69
    vertex -50.052780801666 77.7930717856869 69.1
    vertex -49.5615476187578 77.1945024204274 69.1
  endloop
endfacet
facet normal .63439328416367 .773010453362717 0
  outer loop
    vertex -50.052780801666 77.7930717856869 69
    vertex -50.6513501669254 78.2843049685951 69.1
    vertex -50.052780801666 77.7930717856869 69.1
  endloop
endfacet
facet normal .471396736825932 .88192126434839 0
  outer loop
    vertex -50.6513501669254 78.2843049685951 69
    vertex -51.3342530295108 78.6493241534196 69.1
    vertex -50.6513501669254 78.2843049685951 69.1
  endloop
endfacet
facet normal .290284677254494 .956940335732199 0
  outer loop
    vertex -51.3342530295108 78.6493241534196 69
    vertex -52.0752458153892 78.8741018575928 69.1
    vertex -51.3342530295108 78.6493241534196 69.1
  endloop
endfacet
facet normal 9.80171403295077E-02 .995184726672202 0
  outer loop
    vertex -52.0752458153892 78.8741018575928 69
    vertex -52.8458525873529 78.95 69.1
    vertex -52.0752458153892 78.8741018575928 69.1
  endloop
endfacet
facet normal -9.80171403295077E-02 .995184726672202 0
  outer loop
    vertex -52.8458525873529 78.95 69
    vertex -53.6164593593166 78.8741018575928 69.1
    vertex -52.8458525873529 78.95 69.1
  endloop
endfacet
facet normal -.290284677254497 .956940335732199 0
  outer loop
    vertex -53.6164593593166 78.8741018575928 69
    vertex -54.357452145195 78.6493241534196 69.1
    vertex -53.6164593593166 78.8741018575928 69.1
  endloop
endfacet
facet normal -.471396736825985 .881921264348362 0
  outer loop
    vertex -54.357452145195 78.6493241534196 69
    vertex -55.0403550077803 78.2843049685951 69.1
    vertex -54.357452145195 78.6493241534196 69.1
  endloop
endfacet
facet normal -.634393284163665 .773010453362721 0
  outer loop
    vertex -55.0403550077803 78.2843049685951 69
    vertex -55.6389243730397 77.7930717856869 69.1
    vertex -55.0403550077803 78.2843049685951 69.1
  endloop
endfacet
facet normal -.773010453362767 .634393284163609 0
  outer loop
    vertex -55.6389243730397 77.7930717856869 69
    vertex -56.1301575559479 77.1945024204274 69.1
    vertex -55.6389243730397 77.7930717856869 69.1
  endloop
endfacet
facet normal -.88192126434831 .471396736826082 0
  outer loop
    vertex -56.1301575559479 77.1945024204274 69
    vertex -56.4951767407725 76.5115995578421 69.1
    vertex -56.1301575559479 77.1945024204274 69.1
  endloop
endfacet
facet normal -.956940335732238 .290284677254368 0
  outer loop
    vertex -56.4951767407725 76.5115995578421 69
    vertex -56.7199544449456 75.7706067719637 69.1
    vertex -56.4951767407725 76.5115995578421 69.1
  endloop
endfacet
facet normal -.99518472667219 9.80171403296349E-02 0
  outer loop
    vertex -56.7199544449456 75.7706067719637 69
    vertex -56.7958525873529 75 69.1
    vertex -56.7199544449456 75.7706067719637 69.1
  endloop
endfacet
facet normal -.99518472667219 -9.80171403296349E-02 0
  outer loop
    vertex -56.7958525873529 75 69
    vertex -56.7199544449456 74.2293932280363 69.1
    vertex -56.7958525873529 75 69.1
  endloop
endfacet
facet normal -.956940335732238 -.290284677254368 0
  outer loop
    vertex -56.7199544449456 74.2293932280363 69
    vertex -56.4951767407725 73.4884004421579 69.1
    vertex -56.7199544449456 74.2293932280363 69.1
  endloop
endfacet
facet normal -.88192126434831 -.471396736826082 0
  outer loop
    vertex -56.4951767407725 73.4884004421579 69
    vertex -56.1301575559479 72.8054975795726 69.1
    vertex -56.4951767407725 73.4884004421579 69.1
  endloop
endfacet
facet normal -.773010453362767 -.634393284163609 0
  outer loop
    vertex -56.1301575559479 72.8054975795726 69
    vertex -55.6389243730397 72.2069282143131 69.1
    vertex -56.1301575559479 72.8054975795726 69.1
  endloop
endfacet
facet normal -.634393284163665 -.773010453362721 0
  outer loop
    vertex -55.6389243730397 72.2069282143131 69
    vertex -55.0403550077803 71.7156950314049 69.1
    vertex -55.6389243730397 72.2069282143131 69.1
  endloop
endfacet
facet normal -.471396736825985 -.881921264348362 0
  outer loop
    vertex -55.0403550077803 71.7156950314049 69
    vertex -54.357452145195 71.3506758465804 69.1
    vertex -55.0403550077803 71.7156950314049 69.1
  endloop
endfacet
facet normal -.290284677254497 -.956940335732199 0
  outer loop
    vertex -54.357452145195 71.3506758465804 69
    vertex -53.6164593593166 71.1258981424072 69.1
    vertex -54.357452145195 71.3506758465804 69.1
  endloop
endfacet
facet normal -9.80171403295077E-02 -.995184726672202 0
  outer loop
    vertex -53.6164593593166 71.1258981424072 69
    vertex -52.8458525873529 71.05 69.1
    vertex -53.6164593593166 71.1258981424072 69.1
  endloop
endfacet
facet normal 9.80171403295077E-02 -.995184726672202 0
  outer loop
    vertex -52.8458525873529 71.05 69
    vertex -52.0752458153892 71.1258981424072 69.1
    vertex -52.8458525873529 71.05 69.1
  endloop
endfacet
facet normal .290284677254494 -.956940335732199 0
  outer loop
    vertex -52.0752458153892 71.1258981424072 69
    vertex -51.3342530295108 71.3506758465804 69.1
    vertex -52.0752458153892 71.1258981424072 69.1
  endloop
endfacet
facet normal .471396736825932 -.88192126434839 0
  outer loop
    vertex -51.3342530295108 71.3506758465804 69
    vertex -50.6513501669254 71.7156950314049 69.1
    vertex -51.3342530295108 71.3506758465804 69.1
  endloop
endfacet
facet normal .63439328416367 -.773010453362717 0
  outer loop
    vertex -50.6513501669254 71.7156950314049 69
    vertex -50.052780801666 72.2069282143131 69.1
    vertex -50.6513501669254 71.7156950314049 69.1
  endloop
endfacet
facet normal .773010453362767 -.634393284163609 0
  outer loop
    vertex -50.052780801666 72.2069282143131 69
    vertex -49.5615476187578 72.8054975795726 69.1
    vertex -50.052780801666 72.2069282143131 69.1
  endloop
endfacet
facet normal .881921264348363 -.471396736825982 0
  outer loop
    vertex -49.5615476187578 72.8054975795726 69
    vertex -49.1965284339333 73.4884004421579 69.1
    vertex -49.5615476187578 72.8054975795726 69.1
  endloop
endfacet
facet normal .956940335732202 -.290284677254486 0
  outer loop
    vertex -49.1965284339333 73.4884004421579 69
    vertex -48.9717507297601 74.2293932280363 69.1
    vertex -49.1965284339333 73.4884004421579 69.1
  endloop
endfacet
facet normal .995184726672201 -9.80171403295168E-02 0
  outer loop
    vertex -48.9717507297601 74.2293932280363 69
    vertex -48.8958525873529 75 69.1
    vertex -48.9717507297601 74.2293932280363 69.1
  endloop
endfacet
facet normal .995184726672201 9.80171403295168E-02 0
  outer loop
    vertex -48.9717507297601 75.7706067719637 69
    vertex -48.9717507297601 75.7706067719637 69.1
    vertex -48.8958525873529 75 69
  endloop
endfacet
facet normal .956940335732202 .290284677254486 0
  outer loop
    vertex -49.1965284339333 76.5115995578421 69
    vertex -49.1965284339333 76.5115995578421 69.1
    vertex -48.9717507297601 75.7706067719637 69
  endloop
endfacet
facet normal .881921264348363 .471396736825982 0
  outer loop
    vertex -49.5615476187578 77.1945024204274 69
    vertex -49.5615476187578 77.1945024204274 69.1
    vertex -49.1965284339333 76.5115995578421 69
  endloop
endfacet
facet normal .773010453362767 .634393284163609 0
  outer loop
    vertex -50.052780801666 77.7930717856869 69
    vertex -50.052780801666 77.7930717856869 69.1
    vertex -49.5615476187578 77.1945024204274 69
  endloop
endfacet
facet normal .63439328416367 .773010453362717 0
  outer loop
    vertex -50.6513501669254 78.2843049685951 69
    vertex -50.6513501669254 78.2843049685951 69.1
    vertex -50.052780801666 77.7930717856869 69
  endloop
endfacet
facet normal .471396736825932 .88192126434839 0
  outer loop
    vertex -51.3342530295108 78.6493241534196 69
    vertex -51.3342530295108 78.6493241534196 69.1
    vertex -50.6513501669254 78.2843049685951 69
  endloop
endfacet
facet normal .290284677254494 .956940335732199 0
  outer loop
    vertex -52.0752458153892 78.8741018575928 69
    vertex -52.0752458153892 78.8741018575928 69.1
    vertex -51.3342530295108 78.6493241534196 69
  endloop
endfacet
facet normal 9.80171403295077E-02 .995184726672202 0
  outer loop
    vertex -52.8458525873529 78.95 69
    vertex -52.8458525873529 78.95 69.1
    vertex -52.0752458153892 78.8741018575928 69
  endloop
endfacet
facet normal -9.80171403295077E-02 .995184726672202 0
  outer loop
    vertex -53.6164593593166 78.8741018575928 69
    vertex -53.6164593593166 78.8741018575928 69.1
    vertex -52.8458525873529 78.95 69
  endloop
endfacet
facet normal -.290284677254497 .956940335732199 0
  outer loop
    vertex -54.357452145195 78.6493241534196 69
    vertex -54.357452145195 78.6493241534196 69.1
    vertex -53.6164593593166 78.8741018575928 69
  endloop
endfacet
facet normal -.471396736825985 .881921264348362 0
  outer loop
    vertex -55.0403550077803 78.2843049685951 69
    vertex -55.0403550077803 78.2843049685951 69.1
    vertex -54.357452145195 78.6493241534196 69
  endloop
endfacet
facet normal -.634393284163665 .773010453362721 0
  outer loop
    vertex -55.6389243730397 77.7930717856869 69
    vertex -55.6389243730397 77.7930717856869 69.1
    vertex -55.0403550077803 78.2843049685951 69
  endloop
endfacet
facet normal -.773010453362767 .634393284163609 0
  outer loop
    vertex -56.1301575559479 77.1945024204274 69
    vertex -56.1301575559479 77.1945024204274 69.1
    vertex -55.6389243730397 77.7930717856869 69
  endloop
endfacet
facet normal -.88192126434831 .471396736826082 0
  outer loop
    vertex -56.4951767407725 76.5115995578421 69
    vertex -56.4951767407725 76.5115995578421 69.1
    vertex -56.1301575559479 77.1945024204274 69
  endloop
endfacet
facet normal -.956940335732238 .290284677254368 0
  outer loop
    vertex -56.7199544449456 75.7706067719637 69
    vertex -56.7199544449456 75.7706067719637 69.1
    vertex -56.4951767407725 76.5115995578421 69
  endloop
endfacet
facet normal -.99518472667219 9.80171403296349E-02 0
  outer loop
    vertex -56.7958525873529 75 69
    vertex -56.7958525873529 75 69.1
    vertex -56.7199544449456 75.7706067719637 69
  endloop
endfacet
facet normal -.99518472667219 -9.80171403296349E-02 0
  outer loop
    vertex -56.7199544449456 74.2293932280363 69
    vertex -56.7199544449456 74.2293932280363 69.1
    vertex -56.7958525873529 75 69
  endloop
endfacet
facet normal -.956940335732238 -.290284677254368 0
  outer loop
    vertex -56.4951767407725 73.4884004421579 69
    vertex -56.4951767407725 73.4884004421579 69.1
    vertex -56.7199544449456 74.2293932280363 69
  endloop
endfacet
facet normal -.88192126434831 -.471396736826082 0
  outer loop
    vertex -56.1301575559479 72.8054975795726 69
    vertex -56.1301575559479 72.8054975795726 69.1
    vertex -56.4951767407725 73.4884004421579 69
  endloop
endfacet
facet normal -.773010453362767 -.634393284163609 0
  outer loop
    vertex -55.6389243730397 72.2069282143131 69
    vertex -55.6389243730397 72.2069282143131 69.1
    vertex -56.1301575559479 72.8054975795726 69
  endloop
endfacet
facet normal -.634393284163665 -.773010453362721 0
  outer loop
    vertex -55.0403550077803 71.7156950314049 69
    vertex -55.0403550077803 71.7156950314049 69.1
    vertex -55.6389243730397 72.2069282143131 69
  endloop
endfacet
facet normal -.471396736825985 -.881921264348362 0
  outer loop
    vertex -54.357452145195 71.3506758465804 69
    vertex -54.357452145195 71.3506758465804 69.1
    vertex -55.0403550077803 71.7156950314049 69
  endloop
endfacet
facet normal -.290284677254497 -.956940335732199 0
  outer loop
    vertex -53.6164593593166 71.1258981424072 69
    vertex -53.6164593593166 71.1258981424072 69.1
    vertex -54.357452145195 71.3506758465804 69
  endloop
endfacet
facet normal -9.80171403295077E-02 -.995184726672202 0
  outer loop
    vertex -52.8458525873529 71.05 69
    vertex -52.8458525873529 71.05 69.1
    vertex -53.6164593593166 71.1258981424072 69
  endloop
endfacet
facet normal 9.80171403295077E-02 -.995184726672202 0
  outer loop
    vertex -52.0752458153892 71.1258981424072 69
    vertex -52.0752458153892 71.1258981424072 69.1
    vertex -52.8458525873529 71.05 69
  endloop
endfacet
facet normal .290284677254494 -.956940335732199 0
  outer loop
    vertex -51.3342530295108 71.3506758465804 69
    vertex -51.3342530295108 71.3506758465804 69.1
    vertex -52.0752458153892 71.1258981424072 69
  endloop
endfacet
facet normal .471396736825932 -.88192126434839 0
  outer loop
    vertex -50.6513501669254 71.7156950314049 69
    vertex -50.6513501669254 71.7156950314049 69.1
    vertex -51.3342530295108 71.3506758465804 69
  endloop
endfacet
facet normal .63439328416367 -.773010453362717 0
  outer loop
    vertex -50.052780801666 72.2069282143131 69
    vertex -50.052780801666 72.2069282143131 69.1
    vertex -50.6513501669254 71.7156950314049 69
  endloop
endfacet
facet normal .773010453362767 -.634393284163609 0
  outer loop
    vertex -49.5615476187578 72.8054975795726 69
    vertex -49.5615476187578 72.8054975795726 69.1
    vertex -50.052780801666 72.2069282143131 69
  endloop
endfacet
facet normal .881921264348363 -.471396736825982 0
  outer loop
    vertex -49.1965284339333 73.4884004421579 69
    vertex -49.1965284339333 73.4884004421579 69.1
    vertex -49.5615476187578 72.8054975795726 69
  endloop
endfacet
facet normal .956940335732202 -.290284677254486 0
  outer loop
    vertex -48.9717507297601 74.2293932280363 69
    vertex -48.9717507297601 74.2293932280363 69.1
    vertex -49.1965284339333 73.4884004421579 69
  endloop
endfacet
facet normal .995184726672201 -9.80171403295168E-02 0
  outer loop
    vertex -48.8958525873529 75 69
    vertex -48.8958525873529 75 69.1
    vertex -48.9717507297601 74.2293932280363 69
  endloop
endfacet
facet normal 0 0 1
  outer loop
    vertex 69.0684708490936 96.45184004543 69
    vertex 12 96.45184004543 69
    vertex 69.0684708490936 -96.45184004543 69
  endloop
endfacet
facet normal 0 0 1
  outer loop
    vertex 12 96.45184004543 69
    vertex 11.7694233648388 94.1107561812365 69
    vertex 69.0684708490936 -96.45184004543 69
  endloop
endfacet
facet normal 0 0 1
  outer loop
    vertex 11.7694233648388 94.1107561812365 69
    vertex 11.0865543901354 91.8596388570489 69
    vertex 69.0684708490936 -96.45184004543 69
  endloop
endfacet
facet normal 0 0 1
  outer loop
    vertex 11.0865543901354 91.8596388570489 69
    vertex 9.97763534763054 89.7849972491948 69
    vertex 69.0684708490936 -96.45184004543 69
  endloop
endfacet
facet normal 0 0 1
  outer loop
    vertex 9.97763534763054 89.7849972491948 69
    vertex 8.48528137423857 87.9665586711915 69
    vertex 69.0684708490936 -96.45184004543 69
  endloop
endfacet
facet normal 0 0 1
  outer loop
    vertex 8.48528137423857 87.9665586711915 69
    vertex 6.66684279623523 86.4742046977995 69
    vertex 69.0684708490936 -96.45184004543 69
  endloop
endfacet
facet normal 0 0 1
  outer loop
    vertex 6.66684279623523 86.4742046977995 69
    vertex 4.59220118838108 85.3652856552946 69
    vertex 69.0684708490936 -96.45184004543 69
  endloop
endfacet
facet normal 0 0 1
  outer loop
    vertex 4.59220118838108 85.3652856552946 69
    vertex 2.34108386419354 84.6824166805913 69
    vertex 69.0684708490936 -96.45184004543 69
  endloop
endfacet
facet normal 0 0 1
  outer loop
    vertex 2.34108386419354 84.6824166805913 69
    vertex 7.34788079488412E-16 84.45184004543 69
    vertex 69.0684708490936 -96.45184004543 69
  endloop
endfacet
facet normal 0 0 1
  outer loop
    vertex 7.34788079488412E-16 84.45184004543 69
    vertex -69.0684708490936 -96.45184004543 69
    vertex 69.0684708490936 -96.45184004543 69
  endloop
endfacet
facet normal 0 0 1
  outer loop
    vertex 7.34788079488412E-16 84.45184004543 69
    vertex -2.34108386419354 84.6824166805913 69
    vertex -69.0684708490936 -96.45184004543 69
  endloop
endfacet
facet normal 0 0 1
  outer loop
    vertex -2.34108386419354 84.6824166805913 69
    vertex -4.59220118838108 85.3652856552946 69
    vertex -69.0684708490936 -96.45184004543 69
  endloop
endfacet
facet normal 0 0 1
  outer loop
    vertex -4.59220118838108 85.3652856552946 69
    vertex -6.66684279623523 86.4742046977995 69
    vertex -69.0684708490936 -96.45184004543 69
  endloop
endfacet
facet normal 0 0 1
  outer loop
    vertex -6.66684279623523 86.4742046977995 69
    vertex -8.48528137423857 87.9665586711915 69
    vertex -69.0684708490936 -96.45184004543 69
  endloop
endfacet
facet normal 0 0 1
  outer loop
    vertex -8.48528137423857 87.9665586711915 69
    vertex -9.97763534763054 89.7849972491948 69
    vertex -69.0684708490936 -96.45184004543 69
  endloop
endfacet
facet normal 0 0 1
  outer loop
    vertex -9.97763534763054 89.7849972491948 69
    vertex -11.0865543901354 91.8596388570489 69
    vertex -69.0684708490936 -96.45184004543 69
  endloop
endfacet
facet normal 0 0 1
  outer loop
    vertex -11.0865543901354 91.8596388570489 69
    vertex -11.7694233648388 94.1107561812365 69
    vertex -69.0684708490936 -96.45184004543 69
  endloop
endfacet
facet normal 0 0 1
  outer loop
    vertex -11.7694233648388 94.1107561812365 69
    vertex -12 96.45184004543 69
    vertex -69.0684708490936 -96.45184004543 69
  endloop
endfacet
facet normal 0 0 1
  outer loop
    vertex -69.0684708490936 96.45184004543 69
    vertex -69.0684708490936 -96.45184004543 69
    vertex -12 96.45184004543 69
  endloop
endfacet
facet normal 0 0 -1
  outer loop
    vertex -76.95184004543 -96.45184004543 10
    vertex 76.95184004543 96.45184004543 10
    vertex 76.95184004543 -96.45184004543 10
  endloop
endfacet
facet normal 0 0 -1
  outer loop
    vertex 76.95184004543 96.45184004543 10
    vertex -76.95184004543 -96.45184004543 10
    vertex -76.95184004543 96.45184004543 10
  endloop
endfacet
facet normal 1 0 0
  outer loop
    vertex -12 96.45184004543 69
    vertex -12 96.45184004543 63.1
    vertex -12 96.968023160233 63.1
  endloop
endfacet
facet normal .995184726672198 9.80171403295471E-02 0
  outer loop
    vertex -11.7694233648388 94.1107561812365 69
    vertex -11.7694233648388 94.1107561812365 63.1
    vertex -12 96.45184004543 63.1
  endloop
endfacet
facet normal .956940335732202 .290284677254486 0
  outer loop
    vertex -11.0865543901354 91.8596388570489 69
    vertex -11.0865543901354 91.8596388570489 63.1
    vertex -11.7694233648388 94.1107561812365 63.1
  endloop
endfacet
facet normal .881921264348358 .471396736825992 0
  outer loop
    vertex -9.97763534763054 89.7849972491948 69
    vertex -9.97763534763054 89.7849972491948 63.1
    vertex -11.0865543901354 91.8596388570489 63.1
  endloop
endfacet
facet normal .773010453362729 .634393284163655 0
  outer loop
    vertex -8.48528137423857 87.9665586711915 69
    vertex -8.48528137423857 87.9665586711915 63.1
    vertex -9.97763534763054 89.7849972491948 63.1
  endloop
endfacet
facet normal .634393284163657 .773010453362728 0
  outer loop
    vertex -6.66684279623523 86.4742046977995 69
    vertex -6.66684279623523 86.4742046977995 63.1
    vertex -8.48528137423857 87.9665586711915 63.1
  endloop
endfacet
facet normal .471396736825996 .881921264348356 0
  outer loop
    vertex -4.59220118838108 85.3652856552946 69
    vertex -4.59220118838108 85.3652856552946 63.1
    vertex -6.66684279623523 86.4742046977995 63.1
  endloop
endfacet
facet normal .290284677254452 .956940335732212 0
  outer loop
    vertex -2.34108386419354 84.6824166805913 69
    vertex -2.34108386419354 84.6824166805913 63.1
    vertex -4.59220118838108 85.3652856552946 63.1
  endloop
endfacet
facet normal 9.80171403295876E-02 .995184726672194 0
  outer loop
    vertex 7.34788079488412E-16 84.45184004543 69
    vertex 7.34788079488412E-16 84.45184004543 63.1
    vertex -2.34108386419354 84.6824166805913 63.1
  endloop
endfacet
facet normal -9.80171403295876E-02 .995184726672194 0
  outer loop
    vertex 2.34108386419354 84.6824166805913 69
    vertex 2.34108386419354 84.6824166805913 63.1
    vertex 7.34788079488412E-16 84.45184004543 63.1
  endloop
endfacet
facet normal -.290284677254452 .956940335732212 0
  outer loop
    vertex 4.59220118838108 85.3652856552946 69
    vertex 4.59220118838108 85.3652856552946 63.1
    vertex 2.34108386419354 84.6824166805913 63.1
  endloop
endfacet
facet normal -.471396736825996 .881921264348356 0
  outer loop
    vertex 6.66684279623523 86.4742046977995 69
    vertex 6.66684279623523 86.4742046977995 63.1
    vertex 4.59220118838108 85.3652856552946 63.1
  endloop
endfacet
facet normal -.634393284163657 .773010453362728 0
  outer loop
    vertex 8.48528137423857 87.9665586711915 69
    vertex 8.48528137423857 87.9665586711915 63.1
    vertex 6.66684279623523 86.4742046977995 63.1
  endloop
endfacet
facet normal -.773010453362729 .634393284163655 0
  outer loop
    vertex 9.97763534763054 89.7849972491948 69
    vertex 9.97763534763054 89.7849972491948 63.1
    vertex 8.48528137423857 87.9665586711915 63.1
  endloop
endfacet
facet normal -.881921264348358 .471396736825992 0
  outer loop
    vertex 11.0865543901354 91.8596388570489 69
    vertex 11.0865543901354 91.8596388570489 63.1
    vertex 9.97763534763054 89.7849972491948 63.1
  endloop
endfacet
facet normal -.956940335732202 .290284677254486 0
  outer loop
    vertex 11.7694233648388 94.1107561812365 69
    vertex 11.7694233648388 94.1107561812365 63.1
    vertex 11.0865543901354 91.8596388570489 63.1
  endloop
endfacet
facet normal -.995184726672198 9.80171403295471E-02 0
  outer loop
    vertex 12 96.45184004543 69
    vertex 12 96.45184004543 63.1
    vertex 11.7694233648388 94.1107561812365 63.1
  endloop
endfacet
facet normal .995184726672198 9.80171403295471E-02 0
  outer loop
    vertex -11.7694233648388 94.1107561812365 69
    vertex -12 96.45184004543 63.1
    vertex -12 96.45184004543 69
  endloop
endfacet
facet normal .956940335732202 .290284677254486 0
  outer loop
    vertex -11.0865543901354 91.8596388570489 69
    vertex -11.7694233648388 94.1107561812365 63.1
    vertex -11.7694233648388 94.1107561812365 69
  endloop
endfacet
facet normal .881921264348358 .471396736825992 0
  outer loop
    vertex -9.97763534763054 89.7849972491948 69
    vertex -11.0865543901354 91.8596388570489 63.1
    vertex -11.0865543901354 91.8596388570489 69
  endloop
endfacet
facet normal .773010453362729 .634393284163655 0
  outer loop
    vertex -8.48528137423857 87.9665586711915 69
    vertex -9.97763534763054 89.7849972491948 63.1
    vertex -9.97763534763054 89.7849972491948 69
  endloop
endfacet
facet normal .634393284163657 .773010453362728 0
  outer loop
    vertex -6.66684279623523 86.4742046977995 69
    vertex -8.48528137423857 87.9665586711915 63.1
    vertex -8.48528137423857 87.9665586711915 69
  endloop
endfacet
facet normal .471396736825996 .881921264348356 0
  outer loop
    vertex -4.59220118838108 85.3652856552946 69
    vertex -6.66684279623523 86.4742046977995 63.1
    vertex -6.66684279623523 86.4742046977995 69
  endloop
endfacet
facet normal .290284677254452 .956940335732212 0
  outer loop
    vertex -2.34108386419354 84.6824166805913 69
    vertex -4.59220118838108 85.3652856552946 63.1
    vertex -4.59220118838108 85.3652856552946 69
  endloop
endfacet
facet normal 9.80171403295876E-02 .995184726672194 0
  outer loop
    vertex 7.34788079488412E-16 84.45184004543 69
    vertex -2.34108386419354 84.6824166805913 63.1
    vertex -2.34108386419354 84.6824166805913 69
  endloop
endfacet
facet normal -9.80171403295876E-02 .995184726672194 0
  outer loop
    vertex 2.34108386419354 84.6824166805913 69
    vertex 7.34788079488412E-16 84.45184004543 63.1
    vertex 7.34788079488412E-16 84.45184004543 69
  endloop
endfacet
facet normal -.290284677254452 .956940335732212 0
  outer loop
    vertex 4.59220118838108 85.3652856552946 69
    vertex 2.34108386419354 84.6824166805913 63.1
    vertex 2.34108386419354 84.6824166805913 69
  endloop
endfacet
facet normal -.471396736825996 .881921264348356 0
  outer loop
    vertex 6.66684279623523 86.4742046977995 69
    vertex 4.59220118838108 85.3652856552946 63.1
    vertex 4.59220118838108 85.3652856552946 69
  endloop
endfacet
facet normal -.634393284163657 .773010453362728 0
  outer loop
    vertex 8.48528137423857 87.9665586711915 69
    vertex 6.66684279623523 86.4742046977995 63.1
    vertex 6.66684279623523 86.4742046977995 69
  endloop
endfacet
facet normal -.773010453362729 .634393284163655 0
  outer loop
    vertex 9.97763534763054 89.7849972491948 69
    vertex 8.48528137423857 87.9665586711915 63.1
    vertex 8.48528137423857 87.9665586711915 69
  endloop
endfacet
facet normal -.881921264348358 .471396736825992 0
  outer loop
    vertex 11.0865543901354 91.8596388570489 69
    vertex 9.97763534763054 89.7849972491948 63.1
    vertex 9.97763534763054 89.7849972491948 69
  endloop
endfacet
facet normal -.956940335732202 .290284677254486 0
  outer loop
    vertex 11.7694233648388 94.1107561812365 69
    vertex 11.0865543901354 91.8596388570489 63.1
    vertex 11.0865543901354 91.8596388570489 69
  endloop
endfacet
facet normal -.995184726672198 9.80171403295471E-02 0
  outer loop
    vertex 12 96.45184004543 69
    vertex 11.7694233648388 94.1107561812365 63.1
    vertex 11.7694233648388 94.1107561812365 69
  endloop
endfacet
facet normal -1 0 0
  outer loop
    vertex 12 96.45184004543 69
    vertex 12 96.968023160233 63.1
    vertex 12 96.45184004543 63.1
  endloop
endfacet
facet normal 0 0 1
  outer loop
    vertex -12 96.968023160233 63.1
    vertex -12 96.45184004543 63.1
    vertex 0 96.968023160233 63.1
  endloop
endfacet
facet normal 0 0 1
  outer loop
    vertex -12 96.45184004543 63.1
    vertex -11.7694233648388 94.1107561812365 63.1
    vertex 0 96.968023160233 63.1
  endloop
endfacet
facet normal 0 0 1
  outer loop
    vertex -11.7694233648388 94.1107561812365 63.1
    vertex -11.0865543901354 91.8596388570489 63.1
    vertex 0 96.968023160233 63.1
  endloop
endfacet
facet normal 0 0 1
  outer loop
    vertex -11.0865543901354 91.8596388570489 63.1
    vertex -9.97763534763054 89.7849972491948 63.1
    vertex 0 96.968023160233 63.1
  endloop
endfacet
facet normal 0 0 1
  outer loop
    vertex -9.97763534763054 89.7849972491948 63.1
    vertex -8.48528137423857 87.9665586711915 63.1
    vertex 0 96.968023160233 63.1
  endloop
endfacet
facet normal 0 0 1
  outer loop
    vertex -8.48528137423857 87.9665586711915 63.1
    vertex -6.66684279623523 86.4742046977995 63.1
    vertex 0 96.968023160233 63.1
  endloop
endfacet
facet normal 0 0 1
  outer loop
    vertex -6.66684279623523 86.4742046977995 63.1
    vertex -4.59220118838108 85.3652856552946 63.1
    vertex 0 96.968023160233 63.1
  endloop
endfacet
facet normal 0 0 1
  outer loop
    vertex -4.59220118838108 85.3652856552946 63.1
    vertex -2.34108386419354 84.6824166805913 63.1
    vertex 0 96.968023160233 63.1
  endloop
endfacet
facet normal 0 0 1
  outer loop
    vertex -2.34108386419354 84.6824166805913 63.1
    vertex 7.34788079488412E-16 84.45184004543 63.1
    vertex 0 96.968023160233 63.1
  endloop
endfacet
facet normal 0 0 1
  outer loop
    vertex 7.34788079488412E-16 84.45184004543 63.1
    vertex 2.34108386419354 84.6824166805913 63.1
    vertex 0 96.968023160233 63.1
  endloop
endfacet
facet normal 0 0 1
  outer loop
    vertex 2.34108386419354 84.6824166805913 63.1
    vertex 4.59220118838108 85.3652856552946 63.1
    vertex 0 96.968023160233 63.1
  endloop
endfacet
facet normal 0 0 1
  outer loop
    vertex 4.59220118838108 85.3652856552946 63.1
    vertex 6.66684279623523 86.4742046977995 63.1
    vertex 0 96.968023160233 63.1
  endloop
endfacet
facet normal 0 0 1
  outer loop
    vertex 6.66684279623523 86.4742046977995 63.1
    vertex 8.48528137423857 87.9665586711915 63.1
    vertex 0 96.968023160233 63.1
  endloop
endfacet
facet normal 0 0 1
  outer loop
    vertex 8.48528137423857 87.9665586711915 63.1
    vertex 9.97763534763054 89.7849972491948 63.1
    vertex 0 96.968023160233 63.1
  endloop
endfacet
facet normal 0 0 1
  outer loop
    vertex 9.97763534763054 89.7849972491948 63.1
    vertex 11.0865543901354 91.8596388570489 63.1
    vertex 0 96.968023160233 63.1
  endloop
endfacet
facet normal 0 0 1
  outer loop
    vertex 11.0865543901354 91.8596388570489 63.1
    vertex 11.7694233648388 94.1107561812365 63.1
    vertex 0 96.968023160233 63.1
  endloop
endfacet
facet normal 0 0 1
  outer loop
    vertex 11.7694233648388 94.1107561812365 63.1
    vertex 12 96.45184004543 63.1
    vertex 0 96.968023160233 63.1
  endloop
endfacet
facet normal 0 0 1
  outer loop
    vertex 12 96.45184004543 63.1
    vertex 12 96.968023160233 63.1
    vertex 0 96.968023160233 63.1
  endloop
endfacet
facet normal .921118787038767 0 .389281620635024
  outer loop
    vertex 69.0684708490936 96.45184004543 69
    vertex 79 -98.5 45.5
    vertex 79 98.5 45.5
  endloop
endfacet
facet normal 0 -.996223440096614 8.68265938642488E-02
  outer loop
    vertex 69.0684708490936 -96.45184004543 69
    vertex -79 -98.5 45.5
    vertex 79 -98.5 45.5
  endloop
endfacet
facet normal -.921118787038767 0 .389281620635024
  outer loop
    vertex -69.0684708490936 -96.45184004543 69
    vertex -79 98.5 45.5
    vertex -79 -98.5 45.5
  endloop
endfacet
facet normal 1 0 0
  outer loop
    vertex 79 98.5 45.5
    vertex 79 -98.5 33.5
    vertex 79 98.5 33.5
  endloop
endfacet
facet normal 0 -1 0
  outer loop
    vertex 79 -98.5 45.5
    vertex -79 -98.5 33.5
    vertex 79 -98.5 33.5
  endloop
endfacet
facet normal -1 0 0
  outer loop
    vertex -79 -98.5 45.5
    vertex -79 98.5 33.5
    vertex -79 -98.5 33.5
  endloop
endfacet
facet normal .996223440096614 0 -8.68265938642488E-02
  outer loop
    vertex 79 98.5 33.5
    vertex 76.95184004543 -96.45184004543 10
    vertex 76.95184004543 96.45184004543 10
  endloop
endfacet
facet normal 0 -.996223440096615 -8.68265938642488E-02
  outer loop
    vertex 79 -98.5 33.5
    vertex -76.95184004543 -96.45184004543 10
    vertex 76.95184004543 -96.45184004543 10
  endloop
endfacet
facet normal -.996223440096614 0 -8.68265938642488E-02
  outer loop
    vertex -79 -98.5 33.5
    vertex -76.95184004543 96.45184004543 10
    vertex -76.95184004543 -96.45184004543 10
  endloop
endfacet
facet normal .921118787038767 0 .389281620635024
  outer loop
    vertex 69.0684708490936 -96.45184004543 69
    vertex 79 -98.5 45.5
    vertex 69.0684708490936 96.45184004543 69
  endloop
endfacet
facet normal 0 -.996223440096615 8.68265938642488E-02
  outer loop
    vertex -69.0684708490936 -96.45184004543 69
    vertex -79 -98.5 45.5
    vertex 69.0684708490936 -96.45184004543 69
  endloop
endfacet
facet normal -.921118787038767 0 .389281620635024
  outer loop
    vertex -69.0684708490936 96.45184004543 69
    vertex -79 98.5 45.5
    vertex -69.0684708490936 -96.45184004543 69
  endloop
endfacet
facet normal 1 0 0
  outer loop
    vertex 79 -98.5 45.5
    vertex 79 -98.5 33.5
    vertex 79 98.5 45.5
  endloop
endfacet
facet normal 0 -1 0
  outer loop
    vertex -79 -98.5 45.5
    vertex -79 -98.5 33.5
    vertex 79 -98.5 45.5
  endloop
endfacet
facet normal -1 0 0
  outer loop
    vertex -79 98.5 45.5
    vertex -79 98.5 33.5
    vertex -79 -98.5 45.5
  endloop
endfacet
facet normal .996223440096615 0 -8.68265938642488E-02
  outer loop
    vertex 79 -98.5 33.5
    vertex 76.95184004543 -96.45184004543 10
    vertex 79 98.5 33.5
  endloop
endfacet
facet normal 0 -.996223440096614 -8.68265938642488E-02
  outer loop
    vertex -79 -98.5 33.5
    vertex -76.95184004543 -96.45184004543 10
    vertex 79 -98.5 33.5
  endloop
endfacet
facet normal -.996223440096615 0 -8.68265938642488E-02
  outer loop
    vertex -79 98.5 33.5
    vertex -76.95184004543 96.45184004543 10
    vertex -79 -98.5 33.5
  endloop
endfacet
facet normal 0 .996223440096614 -8.68265938642488E-02
  outer loop
    vertex 79 98.5 33.5
    vertex 76.95184004543 96.45184004543 10
    vertex -79 98.5 33.5
  endloop
endfacet
facet normal 0 .996223440096615 -8.68265938642488E-02
  outer loop
    vertex 76.95184004543 96.45184004543 10
    vertex -76.95184004543 96.45184004543 10
    vertex -79 98.5 33.5
  endloop
endfacet
facet normal 0 1 0
  outer loop
    vertex 79 98.5 45.5
    vertex 79 98.5 33.5
    vertex -79 98.5 45.5
  endloop
endfacet
facet normal 0 1 0
  outer loop
    vertex -79 98.5 45.5
    vertex 79 98.5 33.5
    vertex -79 98.5 33.5
  endloop
endfacet
facet normal 0 .996223440096614 8.68265938642488E-02
  outer loop
    vertex 79 98.5 45.5
    vertex 12 96.45184004543 69
    vertex 69.0684708490936 96.45184004543 69
  endloop
endfacet
facet normal 1.16326372103907E-04 .996194691351579 .087155742157978
  outer loop
    vertex 12 96.45184004543 69
    vertex 79 98.5 45.5
    vertex 12 96.968023160233 63.1
  endloop
endfacet
facet normal 0 .996233051231164 8.67162478123041E-02
  outer loop
    vertex 79 98.5 45.5
    vertex -12 96.968023160233 63.1
    vertex 12 96.968023160233 63.1
  endloop
endfacet
facet normal 0 .996233051231164 8.67162478123041E-02
  outer loop
    vertex 79 98.5 45.5
    vertex -79 98.5 45.5
    vertex -12 96.968023160233 63.1
  endloop
endfacet
facet normal -3.28534109664932E-05 .996222238476845 8.68403735876202E-02
  outer loop
    vertex -69.0684708490936 96.45184004543 69
    vertex -12 96.968023160233 63.1
    vertex -79 98.5 45.5
  endloop
endfacet
facet normal 0 .996194698091745 8.71557427476661E-02
  outer loop
    vertex -69.0684708490936 96.45184004543 69
    vertex -12 96.45184004543 69
    vertex -12 96.968023160233 63.1
  endloop
endfacet
facet normal -1 0 0
  outer loop
    vertex -122 85 10
    vertex -122 85 0
    vertex -122 65 0
  endloop
endfacet
facet normal -1 0 0
  outer loop
    vertex -122 85 10
    vertex -122 65 0
    vertex -122 65 10
  endloop
endfacet
facet normal 1 0 0
  outer loop
    vertex -79 65 44.5
    vertex -79 65 34.5
    vertex -79 85 34.5
  endloop
endfacet
facet normal 1 0 0
  outer loop
    vertex -79 65 44.5
    vertex -79 85 34.5
    vertex -79 85 44.5
  endloop
endfacet
facet normal 0 1 0
  outer loop
    vertex -79 85 34.5
    vertex -85.7980765436737 85 34.5
    vertex -90.7980765436737 85 44.5
  endloop
endfacet
facet normal 0 1 0
  outer loop
    vertex -85.7980765436737 85 34.5
    vertex -99.725 85 0
    vertex -104.725 85 10
  endloop
endfacet
facet normal 0 1 0
  outer loop
    vertex -99.725 85 0
    vertex -122 85 0
    vertex -122 85 10
  endloop
endfacet
facet normal 0 1 0
  outer loop
    vertex -79 85 34.5
    vertex -90.7980765436737 85 44.5
    vertex -79 85 44.5
  endloop
endfacet
facet normal 0 1 0
  outer loop
    vertex -85.7980765436737 85 34.5
    vertex -104.725 85 10
    vertex -90.7980765436737 85 44.5
  endloop
endfacet
facet normal 0 1 0
  outer loop
    vertex -99.725 85 0
    vertex -122 85 10
    vertex -104.725 85 10
  endloop
endfacet
facet normal 0 -1 0
  outer loop
    vertex -79 65 34.5
    vertex -90.7980765436737 65 44.5
    vertex -85.7980765436737 65 34.5
  endloop
endfacet
facet normal 0 -1 0
  outer loop
    vertex -85.7980765436737 65 34.5
    vertex -104.725 65 10
    vertex -99.725 65 0
  endloop
endfacet
facet normal 0 -1 0
  outer loop
    vertex -99.725 65 0
    vertex -122 65 10
    vertex -122 65 0
  endloop
endfacet
facet normal 0 -1 0
  outer loop
    vertex -79 65 34.5
    vertex -79 65 44.5
    vertex -90.7980765436737 65 44.5
  endloop
endfacet
facet normal 0 -1 0
  outer loop
    vertex -85.7980765436737 65 34.5
    vertex -90.7980765436737 65 44.5
    vertex -104.725 65 10
  endloop
endfacet
facet normal 0 -1 0
  outer loop
    vertex -99.725 65 0
    vertex -104.725 65 10
    vertex -122 65 10
  endloop
endfacet
facet normal 0 0 1
  outer loop
    vertex -79 85 44.5
    vertex -90.7980765436737 85 44.5
    vertex -90.7980765436737 65 44.5
  endloop
endfacet
facet normal -.927295665717138 0 .37432973211089
  outer loop
    vertex -90.7980765436737 85 44.5
    vertex -104.725 85 10
    vertex -104.725 65 10
  endloop
endfacet
facet normal 0 0 1
  outer loop
    vertex -104.725 85 10
    vertex -122 85 10
    vertex -122 65 10
  endloop
endfacet
facet normal 0 0 1
  outer loop
    vertex -79 85 44.5
    vertex -90.7980765436737 65 44.5
    vertex -79 65 44.5
  endloop
endfacet
facet normal -.927295665717138 0 .37432973211089
  outer loop
    vertex -90.7980765436737 85 44.5
    vertex -104.725 65 10
    vertex -90.7980765436737 65 44.5
  endloop
endfacet
facet normal 0 0 1
  outer loop
    vertex -104.725 85 10
    vertex -122 65 10
    vertex -104.725 65 10
  endloop
endfacet
facet normal 0 0 -1
  outer loop
    vertex -79 85 34.5
    vertex -85.7980765436737 65 34.5
    vertex -85.7980765436737 85 34.5
  endloop
endfacet
facet normal .927295665717138 0 -.37432973211089
  outer loop
    vertex -85.7980765436737 85 34.5
    vertex -99.725 65 0
    vertex -99.725 85 0
  endloop
endfacet
facet normal 0 0 -1
  outer loop
    vertex -99.725 85 0
    vertex -122 65 0
    vertex -122 85 0
  endloop
endfacet
facet normal 0 0 -1
  outer loop
    vertex -79 85 34.5
    vertex -79 65 34.5
    vertex -85.7980765436737 65 34.5
  endloop
endfacet
facet normal .927295665717138 0 -.37432973211089
  outer loop
    vertex -85.7980765436737 85 34.5
    vertex -85.7980765436737 65 34.5
    vertex -99.725 65 0
  endloop
endfacet
facet normal 0 0 -1
  outer loop
    vertex -99.725 85 0
    vertex -99.725 65 0
    vertex -122 65 0
  endloop
endfacet
facet normal -1 0 0
  outer loop
    vertex -122 35 10
    vertex -122 35 0
    vertex -122 15 0
  endloop
endfacet
facet normal -1 0 0
  outer loop
    vertex -122 35 10
    vertex -122 15 0
    vertex -122 15 10
  endloop
endfacet
facet normal 1 0 0
  outer loop
    vertex -79 15 44.5
    vertex -79 15 34.5
    vertex -79 35 34.5
  endloop
endfacet
facet normal 1 0 0
  outer loop
    vertex -79 15 44.5
    vertex -79 35 34.5
    vertex -79 35 44.5
  endloop
endfacet
facet normal 0 1 0
  outer loop
    vertex -79 35 34.5
    vertex -85.7980765436737 35 34.5
    vertex -90.7980765436737 35 44.5
  endloop
endfacet
facet normal 0 1 0
  outer loop
    vertex -85.7980765436737 35 34.5
    vertex -99.725 35 0
    vertex -104.725 35 10
  endloop
endfacet
facet normal 0 1 0
  outer loop
    vertex -99.725 35 0
    vertex -122 35 0
    vertex -122 35 10
  endloop
endfacet
facet normal 0 1 0
  outer loop
    vertex -79 35 34.5
    vertex -90.7980765436737 35 44.5
    vertex -79 35 44.5
  endloop
endfacet
facet normal 0 1 0
  outer loop
    vertex -85.7980765436737 35 34.5
    vertex -104.725 35 10
    vertex -90.7980765436737 35 44.5
  endloop
endfacet
facet normal 0 1 0
  outer loop
    vertex -99.725 35 0
    vertex -122 35 10
    vertex -104.725 35 10
  endloop
endfacet
facet normal 0 -1 0
  outer loop
    vertex -79 15 34.5
    vertex -90.7980765436737 15 44.5
    vertex -85.7980765436737 15 34.5
  endloop
endfacet
facet normal 0 -1 0
  outer loop
    vertex -85.7980765436737 15 34.5
    vertex -104.725 15 10
    vertex -99.725 15 0
  endloop
endfacet
facet normal 0 -1 0
  outer loop
    vertex -99.725 15 0
    vertex -122 15 10
    vertex -122 15 0
  endloop
endfacet
facet normal 0 -1 0
  outer loop
    vertex -79 15 34.5
    vertex -79 15 44.5
    vertex -90.7980765436737 15 44.5
  endloop
endfacet
facet normal 0 -1 0
  outer loop
    vertex -85.7980765436737 15 34.5
    vertex -90.7980765436737 15 44.5
    vertex -104.725 15 10
  endloop
endfacet
facet normal 0 -1 0
  outer loop
    vertex -99.725 15 0
    vertex -104.725 15 10
    vertex -122 15 10
  endloop
endfacet
facet normal 0 0 1
  outer loop
    vertex -79 35 44.5
    vertex -90.7980765436737 35 44.5
    vertex -90.7980765436737 15 44.5
  endloop
endfacet
facet normal -.927295665717138 0 .37432973211089
  outer loop
    vertex -90.7980765436737 35 44.5
    vertex -104.725 35 10
    vertex -104.725 15 10
  endloop
endfacet
facet normal 0 0 1
  outer loop
    vertex -104.725 35 10
    vertex -122 35 10
    vertex -122 15 10
  endloop
endfacet
facet normal 0 0 1
  outer loop
    vertex -79 35 44.5
    vertex -90.7980765436737 15 44.5
    vertex -79 15 44.5
  endloop
endfacet
facet normal -.927295665717138 0 .37432973211089
  outer loop
    vertex -90.7980765436737 35 44.5
    vertex -104.725 15 10
    vertex -90.7980765436737 15 44.5
  endloop
endfacet
facet normal 0 0 1
  outer loop
    vertex -104.725 35 10
    vertex -122 15 10
    vertex -104.725 15 10
  endloop
endfacet
facet normal 0 0 -1
  outer loop
    vertex -79 35 34.5
    vertex -85.7980765436737 15 34.5
    vertex -85.7980765436737 35 34.5
  endloop
endfacet
facet normal .927295665717138 0 -.37432973211089
  outer loop
    vertex -85.7980765436737 35 34.5
    vertex -99.725 15 0
    vertex -99.725 35 0
  endloop
endfacet
facet normal 0 0 -1
  outer loop
    vertex -99.725 35 0
    vertex -122 15 0
    vertex -122 35 0
  endloop
endfacet
facet normal 0 0 -1
  outer loop
    vertex -79 35 34.5
    vertex -79 15 34.5
    vertex -85.7980765436737 15 34.5
  endloop
endfacet
facet normal .927295665717138 0 -.37432973211089
  outer loop
    vertex -85.7980765436737 35 34.5
    vertex -85.7980765436737 15 34.5
    vertex -99.725 15 0
  endloop
endfacet
facet normal 0 0 -1
  outer loop
    vertex -99.725 35 0
    vertex -99.725 15 0
    vertex -122 15 0
  endloop
endfacet
facet normal -1 0 0
  outer loop
    vertex -122 -15 10
    vertex -122 -15 0
    vertex -122 -35 0
  endloop
endfacet
facet normal -1 0 0
  outer loop
    vertex -122 -15 10
    vertex -122 -35 0
    vertex -122 -35 10
  endloop
endfacet
facet normal 1 0 0
  outer loop
    vertex -79 -35 44.5
    vertex -79 -35 34.5
    vertex -79 -15 34.5
  endloop
endfacet
facet normal 1 0 0
  outer loop
    vertex -79 -35 44.5
    vertex -79 -15 34.5
    vertex -79 -15 44.5
  endloop
endfacet
facet normal 0 1 0
  outer loop
    vertex -79 -15 34.5
    vertex -85.7980765436737 -15 34.5
    vertex -90.7980765436737 -15 44.5
  endloop
endfacet
facet normal 0 1 0
  outer loop
    vertex -85.7980765436737 -15 34.5
    vertex -99.725 -15 0
    vertex -104.725 -15 10
  endloop
endfacet
facet normal 0 1 0
  outer loop
    vertex -99.725 -15 0
    vertex -122 -15 0
    vertex -122 -15 10
  endloop
endfacet
facet normal 0 1 0
  outer loop
    vertex -79 -15 34.5
    vertex -90.7980765436737 -15 44.5
    vertex -79 -15 44.5
  endloop
endfacet
facet normal 0 1 0
  outer loop
    vertex -85.7980765436737 -15 34.5
    vertex -104.725 -15 10
    vertex -90.7980765436737 -15 44.5
  endloop
endfacet
facet normal 0 1 0
  outer loop
    vertex -99.725 -15 0
    vertex -122 -15 10
    vertex -104.725 -15 10
  endloop
endfacet
facet normal 0 -1 0
  outer loop
    vertex -79 -35 34.5
    vertex -90.7980765436737 -35 44.5
    vertex -85.7980765436737 -35 34.5
  endloop
endfacet
facet normal 0 -1 0
  outer loop
    vertex -85.7980765436737 -35 34.5
    vertex -104.725 -35 10
    vertex -99.725 -35 0
  endloop
endfacet
facet normal 0 -1 0
  outer loop
    vertex -99.725 -35 0
    vertex -122 -35 10
    vertex -122 -35 0
  endloop
endfacet
facet normal 0 -1 0
  outer loop
    vertex -79 -35 34.5
    vertex -79 -35 44.5
    vertex -90.7980765436737 -35 44.5
  endloop
endfacet
facet normal 0 -1 0
  outer loop
    vertex -85.7980765436737 -35 34.5
    vertex -90.7980765436737 -35 44.5
    vertex -104.725 -35 10
  endloop
endfacet
facet normal 0 -1 0
  outer loop
    vertex -99.725 -35 0
    vertex -104.725 -35 10
    vertex -122 -35 10
  endloop
endfacet
facet normal 0 0 1
  outer loop
    vertex -79 -15 44.5
    vertex -90.7980765436737 -15 44.5
    vertex -90.7980765436737 -35 44.5
  endloop
endfacet
facet normal -.927295665717138 0 .37432973211089
  outer loop
    vertex -90.7980765436737 -15 44.5
    vertex -104.725 -15 10
    vertex -104.725 -35 10
  endloop
endfacet
facet normal 0 0 1
  outer loop
    vertex -104.725 -15 10
    vertex -122 -15 10
    vertex -122 -35 10
  endloop
endfacet
facet normal 0 0 1
  outer loop
    vertex -79 -15 44.5
    vertex -90.7980765436737 -35 44.5
    vertex -79 -35 44.5
  endloop
endfacet
facet normal -.927295665717138 0 .37432973211089
  outer loop
    vertex -90.7980765436737 -15 44.5
    vertex -104.725 -35 10
    vertex -90.7980765436737 -35 44.5
  endloop
endfacet
facet normal 0 0 1
  outer loop
    vertex -104.725 -15 10
    vertex -122 -35 10
    vertex -104.725 -35 10
  endloop
endfacet
facet normal 0 0 -1
  outer loop
    vertex -79 -15 34.5
    vertex -85.7980765436737 -35 34.5
    vertex -85.7980765436737 -15 34.5
  endloop
endfacet
facet normal .927295665717138 0 -.37432973211089
  outer loop
    vertex -85.7980765436737 -15 34.5
    vertex -99.725 -35 0
    vertex -99.725 -15 0
  endloop
endfacet
facet normal 0 0 -1
  outer loop
    vertex -99.725 -15 0
    vertex -122 -35 0
    vertex -122 -15 0
  endloop
endfacet
facet normal 0 0 -1
  outer loop
    vertex -79 -15 34.5
    vertex -79 -35 34.5
    vertex -85.7980765436737 -35 34.5
  endloop
endfacet
facet normal .927295665717138 0 -.37432973211089
  outer loop
    vertex -85.7980765436737 -15 34.5
    vertex -85.7980765436737 -35 34.5
    vertex -99.725 -35 0
  endloop
endfacet
facet normal 0 0 -1
  outer loop
    vertex -99.725 -15 0
    vertex -99.725 -35 0
    vertex -122 -35 0
  endloop
endfacet
facet normal -1 0 0
  outer loop
    vertex -122 -65 10
    vertex -122 -65 0
    vertex -122 -85 0
  endloop
endfacet
facet normal -1 0 0
  outer loop
    vertex -122 -65 10
    vertex -122 -85 0
    vertex -122 -85 10
  endloop
endfacet
facet normal 1 0 0
  outer loop
    vertex -79 -85 44.5
    vertex -79 -85 34.5
    vertex -79 -65 34.5
  endloop
endfacet
facet normal 1 0 0
  outer loop
    vertex -79 -85 44.5
    vertex -79 -65 34.5
    vertex -79 -65 44.5
  endloop
endfacet
facet normal 0 1 0
  outer loop
    vertex -79 -65 34.5
    vertex -85.7980765436737 -65 34.5
    vertex -90.7980765436737 -65 44.5
  endloop
endfacet
facet normal 0 1 0
  outer loop
    vertex -85.7980765436737 -65 34.5
    vertex -99.725 -65 0
    vertex -104.725 -65 10
  endloop
endfacet
facet normal 0 1 0
  outer loop
    vertex -99.725 -65 0
    vertex -122 -65 0
    vertex -122 -65 10
  endloop
endfacet
facet normal 0 1 0
  outer loop
    vertex -79 -65 34.5
    vertex -90.7980765436737 -65 44.5
    vertex -79 -65 44.5
  endloop
endfacet
facet normal 0 1 0
  outer loop
    vertex -85.7980765436737 -65 34.5
    vertex -104.725 -65 10
    vertex -90.7980765436737 -65 44.5
  endloop
endfacet
facet normal 0 1 0
  outer loop
    vertex -99.725 -65 0
    vertex -122 -65 10
    vertex -104.725 -65 10
  endloop
endfacet
facet normal 0 -1 0
  outer loop
    vertex -79 -85 34.5
    vertex -90.7980765436737 -85 44.5
    vertex -85.7980765436737 -85 34.5
  endloop
endfacet
facet normal 0 -1 0
  outer loop
    vertex -85.7980765436737 -85 34.5
    vertex -104.725 -85 10
    vertex -99.725 -85 0
  endloop
endfacet
facet normal 0 -1 0
  outer loop
    vertex -99.725 -85 0
    vertex -122 -85 10
    vertex -122 -85 0
  endloop
endfacet
facet normal 0 -1 0
  outer loop
    vertex -79 -85 34.5
    vertex -79 -85 44.5
    vertex -90.7980765436737 -85 44.5
  endloop
endfacet
facet normal 0 -1 0
  outer loop
    vertex -85.7980765436737 -85 34.5
    vertex -90.7980765436737 -85 44.5
    vertex -104.725 -85 10
  endloop
endfacet
facet normal 0 -1 0
  outer loop
    vertex -99.725 -85 0
    vertex -104.725 -85 10
    vertex -122 -85 10
  endloop
endfacet
facet normal 0 0 1
  outer loop
    vertex -79 -65 44.5
    vertex -90.7980765436737 -65 44.5
    vertex -90.7980765436737 -85 44.5
  endloop
endfacet
facet normal -.927295665717138 0 .37432973211089
  outer loop
    vertex -90.7980765436737 -65 44.5
    vertex -104.725 -65 10
    vertex -104.725 -85 10
  endloop
endfacet
facet normal 0 0 1
  outer loop
    vertex -104.725 -65 10
    vertex -122 -65 10
    vertex -122 -85 10
  endloop
endfacet
facet normal 0 0 1
  outer loop
    vertex -79 -65 44.5
    vertex -90.7980765436737 -85 44.5
    vertex -79 -85 44.5
  endloop
endfacet
facet normal -.927295665717138 0 .37432973211089
  outer loop
    vertex -90.7980765436737 -65 44.5
    vertex -104.725 -85 10
    vertex -90.7980765436737 -85 44.5
  endloop
endfacet
facet normal 0 0 1
  outer loop
    vertex -104.725 -65 10
    vertex -122 -85 10
    vertex -104.725 -85 10
  endloop
endfacet
facet normal 0 0 -1
  outer loop
    vertex -79 -65 34.5
    vertex -85.7980765436737 -85 34.5
    vertex -85.7980765436737 -65 34.5
  endloop
endfacet
facet normal .927295665717138 0 -.37432973211089
  outer loop
    vertex -85.7980765436737 -65 34.5
    vertex -99.725 -85 0
    vertex -99.725 -65 0
  endloop
endfacet
facet normal 0 0 -1
  outer loop
    vertex -99.725 -65 0
    vertex -122 -85 0
    vertex -122 -65 0
  endloop
endfacet
facet normal 0 0 -1
  outer loop
    vertex -79 -65 34.5
    vertex -79 -85 34.5
    vertex -85.7980765436737 -85 34.5
  endloop
endfacet
facet normal .927295665717138 0 -.37432973211089
  outer loop
    vertex -85.7980765436737 -65 34.5
    vertex -85.7980765436737 -85 34.5
    vertex -99.725 -85 0
  endloop
endfacet
facet normal 0 0 -1
  outer loop
    vertex -99.725 -65 0
    vertex -99.725 -85 0
    vertex -122 -85 0
  endloop
endfacet
facet normal 1 0 0
  outer loop
    vertex 122 -85 10
    vertex 122 -85 0
    vertex 122 -65 0
  endloop
endfacet
facet normal 1 0 0
  outer loop
    vertex 122 -85 10
    vertex 122 -65 0
    vertex 122 -65 10
  endloop
endfacet
facet normal -1 0 0
  outer loop
    vertex 79 -65 44.5
    vertex 79 -65 34.5
    vertex 79 -85 34.5
  endloop
endfacet
facet normal -1 0 0
  outer loop
    vertex 79 -65 44.5
    vertex 79 -85 34.5
    vertex 79 -85 44.5
  endloop
endfacet
facet normal 0 -1 0
  outer loop
    vertex 79 -85 34.5
    vertex 85.7980765436737 -85 34.5
    vertex 90.7980765436737 -85 44.5
  endloop
endfacet
facet normal 0 -1 0
  outer loop
    vertex 85.7980765436737 -85 34.5
    vertex 99.725 -85 0
    vertex 104.725 -85 10
  endloop
endfacet
facet normal 0 -1 0
  outer loop
    vertex 99.725 -85 0
    vertex 122 -85 0
    vertex 122 -85 10
  endloop
endfacet
facet normal 0 -1 0
  outer loop
    vertex 79 -85 34.5
    vertex 90.7980765436737 -85 44.5
    vertex 79 -85 44.5
  endloop
endfacet
facet normal 0 -1 0
  outer loop
    vertex 85.7980765436737 -85 34.5
    vertex 104.725 -85 10
    vertex 90.7980765436737 -85 44.5
  endloop
endfacet
facet normal 0 -1 0
  outer loop
    vertex 99.725 -85 0
    vertex 122 -85 10
    vertex 104.725 -85 10
  endloop
endfacet
facet normal 0 1 0
  outer loop
    vertex 79 -65 34.5
    vertex 90.7980765436737 -65 44.5
    vertex 85.7980765436737 -65 34.5
  endloop
endfacet
facet normal 0 1 0
  outer loop
    vertex 85.7980765436737 -65 34.5
    vertex 104.725 -65 10
    vertex 99.725 -65 0
  endloop
endfacet
facet normal 0 1 0
  outer loop
    vertex 99.725 -65 0
    vertex 122 -65 10
    vertex 122 -65 0
  endloop
endfacet
facet normal 0 1 0
  outer loop
    vertex 79 -65 34.5
    vertex 79 -65 44.5
    vertex 90.7980765436737 -65 44.5
  endloop
endfacet
facet normal 0 1 0
  outer loop
    vertex 85.7980765436737 -65 34.5
    vertex 90.7980765436737 -65 44.5
    vertex 104.725 -65 10
  endloop
endfacet
facet normal 0 1 0
  outer loop
    vertex 99.725 -65 0
    vertex 104.725 -65 10
    vertex 122 -65 10
  endloop
endfacet
facet normal 0 0 1
  outer loop
    vertex 79 -85 44.5
    vertex 90.7980765436737 -85 44.5
    vertex 90.7980765436737 -65 44.5
  endloop
endfacet
facet normal .927295665717138 0 .37432973211089
  outer loop
    vertex 90.7980765436737 -85 44.5
    vertex 104.725 -85 10
    vertex 104.725 -65 10
  endloop
endfacet
facet normal 0 0 1
  outer loop
    vertex 104.725 -85 10
    vertex 122 -85 10
    vertex 122 -65 10
  endloop
endfacet
facet normal 0 0 1
  outer loop
    vertex 79 -85 44.5
    vertex 90.7980765436737 -65 44.5
    vertex 79 -65 44.5
  endloop
endfacet
facet normal .927295665717138 0 .37432973211089
  outer loop
    vertex 90.7980765436737 -85 44.5
    vertex 104.725 -65 10
    vertex 90.7980765436737 -65 44.5
  endloop
endfacet
facet normal 0 0 1
  outer loop
    vertex 104.725 -85 10
    vertex 122 -65 10
    vertex 104.725 -65 10
  endloop
endfacet
facet normal 0 0 -1
  outer loop
    vertex 79 -85 34.5
    vertex 85.7980765436737 -65 34.5
    vertex 85.7980765436737 -85 34.5
  endloop
endfacet
facet normal -.927295665717138 0 -.37432973211089
  outer loop
    vertex 85.7980765436737 -85 34.5
    vertex 99.725 -65 0
    vertex 99.725 -85 0
  endloop
endfacet
facet normal 0 0 -1
  outer loop
    vertex 99.725 -85 0
    vertex 122 -65 0
    vertex 122 -85 0
  endloop
endfacet
facet normal 0 0 -1
  outer loop
    vertex 79 -85 34.5
    vertex 79 -65 34.5
    vertex 85.7980765436737 -65 34.5
  endloop
endfacet
facet normal -.927295665717138 0 -.37432973211089
  outer loop
    vertex 85.7980765436737 -85 34.5
    vertex 85.7980765436737 -65 34.5
    vertex 99.725 -65 0
  endloop
endfacet
facet normal 0 0 -1
  outer loop
    vertex 99.725 -85 0
    vertex 99.725 -65 0
    vertex 122 -65 0
  endloop
endfacet
facet normal 1 0 0
  outer loop
    vertex 122 -35 10
    vertex 122 -35 0
    vertex 122 -15 0
  endloop
endfacet
facet normal 1 0 0
  outer loop
    vertex 122 -35 10
    vertex 122 -15 0
    vertex 122 -15 10
  endloop
endfacet
facet normal -1 0 0
  outer loop
    vertex 79 -15 44.5
    vertex 79 -15 34.5
    vertex 79 -35 34.5
  endloop
endfacet
facet normal -1 0 0
  outer loop
    vertex 79 -15 44.5
    vertex 79 -35 34.5
    vertex 79 -35 44.5
  endloop
endfacet
facet normal 0 -1 0
  outer loop
    vertex 79 -35 34.5
    vertex 85.7980765436737 -35 34.5
    vertex 90.7980765436737 -35 44.5
  endloop
endfacet
facet normal 0 -1 0
  outer loop
    vertex 85.7980765436737 -35 34.5
    vertex 99.725 -35 0
    vertex 104.725 -35 10
  endloop
endfacet
facet normal 0 -1 0
  outer loop
    vertex 99.725 -35 0
    vertex 122 -35 0
    vertex 122 -35 10
  endloop
endfacet
facet normal 0 -1 0
  outer loop
    vertex 79 -35 34.5
    vertex 90.7980765436737 -35 44.5
    vertex 79 -35 44.5
  endloop
endfacet
facet normal 0 -1 0
  outer loop
    vertex 85.7980765436737 -35 34.5
    vertex 104.725 -35 10
    vertex 90.7980765436737 -35 44.5
  endloop
endfacet
facet normal 0 -1 0
  outer loop
    vertex 99.725 -35 0
    vertex 122 -35 10
    vertex 104.725 -35 10
  endloop
endfacet
facet normal 0 1 0
  outer loop
    vertex 79 -15 34.5
    vertex 90.7980765436737 -15 44.5
    vertex 85.7980765436737 -15 34.5
  endloop
endfacet
facet normal 0 1 0
  outer loop
    vertex 85.7980765436737 -15 34.5
    vertex 104.725 -15 10
    vertex 99.725 -15 0
  endloop
endfacet
facet normal 0 1 0
  outer loop
    vertex 99.725 -15 0
    vertex 122 -15 10
    vertex 122 -15 0
  endloop
endfacet
facet normal 0 1 0
  outer loop
    vertex 79 -15 34.5
    vertex 79 -15 44.5
    vertex 90.7980765436737 -15 44.5
  endloop
endfacet
facet normal 0 1 0
  outer loop
    vertex 85.7980765436737 -15 34.5
    vertex 90.7980765436737 -15 44.5
    vertex 104.725 -15 10
  endloop
endfacet
facet normal 0 1 0
  outer loop
    vertex 99.725 -15 0
    vertex 104.725 -15 10
    vertex 122 -15 10
  endloop
endfacet
facet normal 0 0 1
  outer loop
    vertex 79 -35 44.5
    vertex 90.7980765436737 -35 44.5
    vertex 90.7980765436737 -15 44.5
  endloop
endfacet
facet normal .927295665717138 0 .37432973211089
  outer loop
    vertex 90.7980765436737 -35 44.5
    vertex 104.725 -35 10
    vertex 104.725 -15 10
  endloop
endfacet
facet normal 0 0 1
  outer loop
    vertex 104.725 -35 10
    vertex 122 -35 10
    vertex 122 -15 10
  endloop
endfacet
facet normal 0 0 1
  outer loop
    vertex 79 -35 44.5
    vertex 90.7980765436737 -15 44.5
    vertex 79 -15 44.5
  endloop
endfacet
facet normal .927295665717138 0 .37432973211089
  outer loop
    vertex 90.7980765436737 -35 44.5
    vertex 104.725 -15 10
    vertex 90.7980765436737 -15 44.5
  endloop
endfacet
facet normal 0 0 1
  outer loop
    vertex 104.725 -35 10
    vertex 122 -15 10
    vertex 104.725 -15 10
  endloop
endfacet
facet normal 0 0 -1
  outer loop
    vertex 79 -35 34.5
    vertex 85.7980765436737 -15 34.5
    vertex 85.7980765436737 -35 34.5
  endloop
endfacet
facet normal -.927295665717138 0 -.37432973211089
  outer loop
    vertex 85.7980765436737 -35 34.5
    vertex 99.725 -15 0
    vertex 99.725 -35 0
  endloop
endfacet
facet normal 0 0 -1
  outer loop
    vertex 99.725 -35 0
    vertex 122 -15 0
    vertex 122 -35 0
  endloop
endfacet
facet normal 0 0 -1
  outer loop
    vertex 79 -35 34.5
    vertex 79 -15 34.5
    vertex 85.7980765436737 -15 34.5
  endloop
endfacet
facet normal -.927295665717138 0 -.37432973211089
  outer loop
    vertex 85.7980765436737 -35 34.5
    vertex 85.7980765436737 -15 34.5
    vertex 99.725 -15 0
  endloop
endfacet
facet normal 0 0 -1
  outer loop
    vertex 99.725 -35 0
    vertex 99.725 -15 0
    vertex 122 -15 0
  endloop
endfacet
facet normal 1 0 0
  outer loop
    vertex 122 15 10
    vertex 122 15 0
    vertex 122 35 0
  endloop
endfacet
facet normal 1 0 0
  outer loop
    vertex 122 15 10
    vertex 122 35 0
    vertex 122 35 10
  endloop
endfacet
facet normal -1 0 0
  outer loop
    vertex 79 35 44.5
    vertex 79 35 34.5
    vertex 79 15 34.5
  endloop
endfacet
facet normal -1 0 0
  outer loop
    vertex 79 35 44.5
    vertex 79 15 34.5
    vertex 79 15 44.5
  endloop
endfacet
facet normal 0 -1 0
  outer loop
    vertex 79 15 34.5
    vertex 85.7980765436737 15 34.5
    vertex 90.7980765436737 15 44.5
  endloop
endfacet
facet normal 0 -1 0
  outer loop
    vertex 85.7980765436737 15 34.5
    vertex 99.725 15 0
    vertex 104.725 15 10
  endloop
endfacet
facet normal 0 -1 0
  outer loop
    vertex 99.725 15 0
    vertex 122 15 0
    vertex 122 15 10
  endloop
endfacet
facet normal 0 -1 0
  outer loop
    vertex 79 15 34.5
    vertex 90.7980765436737 15 44.5
    vertex 79 15 44.5
  endloop
endfacet
facet normal 0 -1 0
  outer loop
    vertex 85.7980765436737 15 34.5
    vertex 104.725 15 10
    vertex 90.7980765436737 15 44.5
  endloop
endfacet
facet normal 0 -1 0
  outer loop
    vertex 99.725 15 0
    vertex 122 15 10
    vertex 104.725 15 10
  endloop
endfacet
facet normal 0 1 0
  outer loop
    vertex 79 35 34.5
    vertex 90.7980765436737 35 44.5
    vertex 85.7980765436737 35 34.5
  endloop
endfacet
facet normal 0 1 0
  outer loop
    vertex 85.7980765436737 35 34.5
    vertex 104.725 35 10
    vertex 99.725 35 0
  endloop
endfacet
facet normal 0 1 0
  outer loop
    vertex 99.725 35 0
    vertex 122 35 10
    vertex 122 35 0
  endloop
endfacet
facet normal 0 1 0
  outer loop
    vertex 79 35 34.5
    vertex 79 35 44.5
    vertex 90.7980765436737 35 44.5
  endloop
endfacet
facet normal 0 1 0
  outer loop
    vertex 85.7980765436737 35 34.5
    vertex 90.7980765436737 35 44.5
    vertex 104.725 35 10
  endloop
endfacet
facet normal 0 1 0
  outer loop
    vertex 99.725 35 0
    vertex 104.725 35 10
    vertex 122 35 10
  endloop
endfacet
facet normal 0 0 1
  outer loop
    vertex 79 15 44.5
    vertex 90.7980765436737 15 44.5
    vertex 90.7980765436737 35 44.5
  endloop
endfacet
facet normal .927295665717138 0 .37432973211089
  outer loop
    vertex 90.7980765436737 15 44.5
    vertex 104.725 15 10
    vertex 104.725 35 10
  endloop
endfacet
facet normal 0 0 1
  outer loop
    vertex 104.725 15 10
    vertex 122 15 10
    vertex 122 35 10
  endloop
endfacet
facet normal 0 0 1
  outer loop
    vertex 79 15 44.5
    vertex 90.7980765436737 35 44.5
    vertex 79 35 44.5
  endloop
endfacet
facet normal .927295665717138 0 .37432973211089
  outer loop
    vertex 90.7980765436737 15 44.5
    vertex 104.725 35 10
    vertex 90.7980765436737 35 44.5
  endloop
endfacet
facet normal 0 0 1
  outer loop
    vertex 104.725 15 10
    vertex 122 35 10
    vertex 104.725 35 10
  endloop
endfacet
facet normal 0 0 -1
  outer loop
    vertex 79 15 34.5
    vertex 85.7980765436737 35 34.5
    vertex 85.7980765436737 15 34.5
  endloop
endfacet
facet normal -.927295665717138 0 -.37432973211089
  outer loop
    vertex 85.7980765436737 15 34.5
    vertex 99.725 35 0
    vertex 99.725 15 0
  endloop
endfacet
facet normal 0 0 -1
  outer loop
    vertex 99.725 15 0
    vertex 122 35 0
    vertex 122 15 0
  endloop
endfacet
facet normal 0 0 -1
  outer loop
    vertex 79 15 34.5
    vertex 79 35 34.5
    vertex 85.7980765436737 35 34.5
  endloop
endfacet
facet normal -.927295665717138 0 -.37432973211089
  outer loop
    vertex 85.7980765436737 15 34.5
    vertex 85.7980765436737 35 34.5
    vertex 99.725 35 0
  endloop
endfacet
facet normal 0 0 -1
  outer loop
    vertex 99.725 15 0
    vertex 99.725 35 0
    vertex 122 35 0
  endloop
endfacet
facet normal 1 0 0
  outer loop
    vertex 122 65 10
    vertex 122 65 0
    vertex 122 85 0
  endloop
endfacet
facet normal 1 0 0
  outer loop
    vertex 122 65 10
    vertex 122 85 0
    vertex 122 85 10
  endloop
endfacet
facet normal -1 0 0
  outer loop
    vertex 79 85 44.5
    vertex 79 85 34.5
    vertex 79 65 34.5
  endloop
endfacet
facet normal -1 0 0
  outer loop
    vertex 79 85 44.5
    vertex 79 65 34.5
    vertex 79 65 44.5
  endloop
endfacet
facet normal 0 -1 0
  outer loop
    vertex 79 65 34.5
    vertex 85.7980765436737 65 34.5
    vertex 90.7980765436737 65 44.5
  endloop
endfacet
facet normal 0 -1 0
  outer loop
    vertex 85.7980765436737 65 34.5
    vertex 99.725 65 0
    vertex 104.725 65 10
  endloop
endfacet
facet normal 0 -1 0
  outer loop
    vertex 99.725 65 0
    vertex 122 65 0
    vertex 122 65 10
  endloop
endfacet
facet normal 0 -1 0
  outer loop
    vertex 79 65 34.5
    vertex 90.7980765436737 65 44.5
    vertex 79 65 44.5
  endloop
endfacet
facet normal 0 -1 0
  outer loop
    vertex 85.7980765436737 65 34.5
    vertex 104.725 65 10
    vertex 90.7980765436737 65 44.5
  endloop
endfacet
facet normal 0 -1 0
  outer loop
    vertex 99.725 65 0
    vertex 122 65 10
    vertex 104.725 65 10
  endloop
endfacet
facet normal 0 1 0
  outer loop
    vertex 79 85 34.5
    vertex 90.7980765436737 85 44.5
    vertex 85.7980765436737 85 34.5
  endloop
endfacet
facet normal 0 1 0
  outer loop
    vertex 85.7980765436737 85 34.5
    vertex 104.725 85 10
    vertex 99.725 85 0
  endloop
endfacet
facet normal 0 1 0
  outer loop
    vertex 99.725 85 0
    vertex 122 85 10
    vertex 122 85 0
  endloop
endfacet
facet normal 0 1 0
  outer loop
    vertex 79 85 34.5
    vertex 79 85 44.5
    vertex 90.7980765436737 85 44.5
  endloop
endfacet
facet normal 0 1 0
  outer loop
    vertex 85.7980765436737 85 34.5
    vertex 90.7980765436737 85 44.5
    vertex 104.725 85 10
  endloop
endfacet
facet normal 0 1 0
  outer loop
    vertex 99.725 85 0
    vertex 104.725 85 10
    vertex 122 85 10
  endloop
endfacet
facet normal 0 0 1
  outer loop
    vertex 79 65 44.5
    vertex 90.7980765436737 65 44.5
    vertex 90.7980765436737 85 44.5
  endloop
endfacet
facet normal .927295665717138 0 .37432973211089
  outer loop
    vertex 90.7980765436737 65 44.5
    vertex 104.725 65 10
    vertex 104.725 85 10
  endloop
endfacet
facet normal 0 0 1
  outer loop
    vertex 104.725 65 10
    vertex 122 65 10
    vertex 122 85 10
  endloop
endfacet
facet normal 0 0 1
  outer loop
    vertex 79 65 44.5
    vertex 90.7980765436737 85 44.5
    vertex 79 85 44.5
  endloop
endfacet
facet normal .927295665717138 0 .37432973211089
  outer loop
    vertex 90.7980765436737 65 44.5
    vertex 104.725 85 10
    vertex 90.7980765436737 85 44.5
  endloop
endfacet
facet normal 0 0 1
  outer loop
    vertex 104.725 65 10
    vertex 122 85 10
    vertex 104.725 85 10
  endloop
endfacet
facet normal 0 0 -1
  outer loop
    vertex 79 65 34.5
    vertex 85.7980765436737 85 34.5
    vertex 85.7980765436737 65 34.5
  endloop
endfacet
facet normal -.927295665717138 0 -.37432973211089
  outer loop
    vertex 85.7980765436737 65 34.5
    vertex 99.725 85 0
    vertex 99.725 65 0
  endloop
endfacet
facet normal 0 0 -1
  outer loop
    vertex 99.725 65 0
    vertex 122 85 0
    vertex 122 65 0
  endloop
endfacet
facet normal 0 0 -1
  outer loop
    vertex 79 65 34.5
    vertex 79 85 34.5
    vertex 85.7980765436737 85 34.5
  endloop
endfacet
facet normal -.927295665717138 0 -.37432973211089
  outer loop
    vertex 85.7980765436737 65 34.5
    vertex 85.7980765436737 85 34.5
    vertex 99.725 85 0
  endloop
endfacet
facet normal 0 0 -1
  outer loop
    vertex 99.725 65 0
    vertex 99.725 85 0
    vertex 122 85 0
  endloop
endfacet
endsolid SO-8-M
