solid SOD123
facet normal 0 0 -1
  outer loop
    vertex -44.88188 0 32
    vertex -42.1306620461985 .547251276368077 32
    vertex -42.0767625 0 32
  endloop
endfacet
facet normal 0 0 -1
  outer loop
    vertex -44.88188 0 32
    vertex -42.2902893554608 1.07347199308738 32
    vertex -42.1306620461985 .547251276368077 32
  endloop
endfacet
facet normal 0 0 -1
  outer loop
    vertex -44.88188 0 32
    vertex -42.5495100398119 1.55843978312236 32
    vertex -42.2902893554608 1.07347199308738 32
  endloop
endfacet
facet normal 0 0 -1
  outer loop
    vertex -44.88188 0 32
    vertex -42.8983623937249 1.98351760627506 32
    vertex -42.5495100398119 1.55843978312236 32
  endloop
endfacet
facet normal 0 0 -1
  outer loop
    vertex -44.88188 0 32
    vertex -43.3234402168776 2.33236996018809 32
    vertex -42.8983623937249 1.98351760627506 32
  endloop
endfacet
facet normal 0 0 -1
  outer loop
    vertex -44.88188 0 32
    vertex -43.8084080069126 2.59159064453923 32
    vertex -43.3234402168776 2.33236996018809 32
  endloop
endfacet
facet normal 0 0 -1
  outer loop
    vertex -44.88188 0 32
    vertex -44.3346287236319 2.75121795380151 32
    vertex -43.8084080069126 2.59159064453923 32
  endloop
endfacet
facet normal 0 0 -1
  outer loop
    vertex -44.88188 0 32
    vertex -44.88188 2.8051175 32
    vertex -44.3346287236319 2.75121795380151 32
  endloop
endfacet
facet normal 0 0 -1
  outer loop
    vertex -44.88188 0 32
    vertex -45.4291312763681 2.75121795380151 32
    vertex -44.88188 2.8051175 32
  endloop
endfacet
facet normal 0 0 -1
  outer loop
    vertex -44.88188 0 32
    vertex -45.9553519930874 2.59159064453923 32
    vertex -45.4291312763681 2.75121795380151 32
  endloop
endfacet
facet normal 0 0 -1
  outer loop
    vertex -44.88188 0 32
    vertex -46.4403197831224 2.33236996018809 32
    vertex -45.9553519930874 2.59159064453923 32
  endloop
endfacet
facet normal 0 0 -1
  outer loop
    vertex -44.88188 0 32
    vertex -46.8653976062751 1.98351760627506 32
    vertex -46.4403197831224 2.33236996018809 32
  endloop
endfacet
facet normal 0 0 -1
  outer loop
    vertex -44.88188 0 32
    vertex -47.2142499601881 1.55843978312236 32
    vertex -46.8653976062751 1.98351760627506 32
  endloop
endfacet
facet normal 0 0 -1
  outer loop
    vertex -44.88188 0 32
    vertex -47.4734706445392 1.07347199308738 32
    vertex -47.2142499601881 1.55843978312236 32
  endloop
endfacet
facet normal 0 0 -1
  outer loop
    vertex -44.88188 0 32
    vertex -47.6330979538015 .547251276368077 32
    vertex -47.4734706445392 1.07347199308738 32
  endloop
endfacet
facet normal 0 0 -1
  outer loop
    vertex -44.88188 0 32
    vertex -47.6869975 0 32
    vertex -47.6330979538015 .547251276368077 32
  endloop
endfacet
facet normal 0 0 -1
  outer loop
    vertex -44.88188 0 32
    vertex -47.6330979538015 -.547251276368077 32
    vertex -47.6869975 0 32
  endloop
endfacet
facet normal 0 0 -1
  outer loop
    vertex -44.88188 0 32
    vertex -47.4734706445392 -1.07347199308738 32
    vertex -47.6330979538015 -.547251276368077 32
  endloop
endfacet
facet normal 0 0 -1
  outer loop
    vertex -44.88188 0 32
    vertex -47.2142499601881 -1.55843978312236 32
    vertex -47.4734706445392 -1.07347199308738 32
  endloop
endfacet
facet normal 0 0 -1
  outer loop
    vertex -44.88188 0 32
    vertex -46.8653976062751 -1.98351760627506 32
    vertex -47.2142499601881 -1.55843978312236 32
  endloop
endfacet
facet normal 0 0 -1
  outer loop
    vertex -44.88188 0 32
    vertex -46.4403197831224 -2.33236996018809 32
    vertex -46.8653976062751 -1.98351760627506 32
  endloop
endfacet
facet normal 0 0 -1
  outer loop
    vertex -44.88188 0 32
    vertex -45.9553519930874 -2.59159064453923 32
    vertex -46.4403197831224 -2.33236996018809 32
  endloop
endfacet
facet normal 0 0 -1
  outer loop
    vertex -44.88188 0 32
    vertex -45.4291312763681 -2.75121795380151 32
    vertex -45.9553519930874 -2.59159064453923 32
  endloop
endfacet
facet normal 0 0 -1
  outer loop
    vertex -44.88188 0 32
    vertex -44.88188 -2.8051175 32
    vertex -45.4291312763681 -2.75121795380151 32
  endloop
endfacet
facet normal 0 0 -1
  outer loop
    vertex -44.88188 0 32
    vertex -44.3346287236319 -2.75121795380151 32
    vertex -44.88188 -2.8051175 32
  endloop
endfacet
facet normal 0 0 -1
  outer loop
    vertex -44.88188 0 32
    vertex -43.8084080069126 -2.59159064453923 32
    vertex -44.3346287236319 -2.75121795380151 32
  endloop
endfacet
facet normal 0 0 -1
  outer loop
    vertex -44.88188 0 32
    vertex -43.3234402168776 -2.33236996018809 32
    vertex -43.8084080069126 -2.59159064453923 32
  endloop
endfacet
facet normal 0 0 -1
  outer loop
    vertex -44.88188 0 32
    vertex -42.8983623937249 -1.98351760627506 32
    vertex -43.3234402168776 -2.33236996018809 32
  endloop
endfacet
facet normal 0 0 -1
  outer loop
    vertex -44.88188 0 32
    vertex -42.5495100398119 -1.55843978312236 32
    vertex -42.8983623937249 -1.98351760627506 32
  endloop
endfacet
facet normal 0 0 -1
  outer loop
    vertex -44.88188 0 32
    vertex -42.2902893554608 -1.07347199308738 32
    vertex -42.5495100398119 -1.55843978312236 32
  endloop
endfacet
facet normal 0 0 -1
  outer loop
    vertex -44.88188 0 32
    vertex -42.1306620461985 -.547251276368077 32
    vertex -42.2902893554608 -1.07347199308738 32
  endloop
endfacet
facet normal 0 0 -1
  outer loop
    vertex -44.88188 0 32
    vertex -42.0767625 0 32
    vertex -42.1306620461985 -.547251276368077 32
  endloop
endfacet
facet normal 0 0 1
  outer loop
    vertex -44.88188 0 32.1
    vertex -42.0767625 0 32.1
    vertex -42.1306620461985 .547251276368077 32.1
  endloop
endfacet
facet normal 0 0 1
  outer loop
    vertex -44.88188 0 32.1
    vertex -42.1306620461985 .547251276368077 32.1
    vertex -42.2902893554608 1.07347199308738 32.1
  endloop
endfacet
facet normal 0 0 1
  outer loop
    vertex -44.88188 0 32.1
    vertex -42.2902893554608 1.07347199308738 32.1
    vertex -42.5495100398119 1.55843978312236 32.1
  endloop
endfacet
facet normal 0 0 1
  outer loop
    vertex -44.88188 0 32.1
    vertex -42.5495100398119 1.55843978312236 32.1
    vertex -42.8983623937249 1.98351760627506 32.1
  endloop
endfacet
facet normal 0 0 1
  outer loop
    vertex -44.88188 0 32.1
    vertex -42.8983623937249 1.98351760627506 32.1
    vertex -43.3234402168776 2.33236996018809 32.1
  endloop
endfacet
facet normal 0 0 1
  outer loop
    vertex -44.88188 0 32.1
    vertex -43.3234402168776 2.33236996018809 32.1
    vertex -43.8084080069126 2.59159064453923 32.1
  endloop
endfacet
facet normal 0 0 1
  outer loop
    vertex -44.88188 0 32.1
    vertex -43.8084080069126 2.59159064453923 32.1
    vertex -44.3346287236319 2.75121795380151 32.1
  endloop
endfacet
facet normal 0 0 1
  outer loop
    vertex -44.88188 0 32.1
    vertex -44.3346287236319 2.75121795380151 32.1
    vertex -44.88188 2.8051175 32.1
  endloop
endfacet
facet normal 0 0 1
  outer loop
    vertex -44.88188 0 32.1
    vertex -44.88188 2.8051175 32.1
    vertex -45.4291312763681 2.75121795380151 32.1
  endloop
endfacet
facet normal 0 0 1
  outer loop
    vertex -44.88188 0 32.1
    vertex -45.4291312763681 2.75121795380151 32.1
    vertex -45.9553519930874 2.59159064453923 32.1
  endloop
endfacet
facet normal 0 0 1
  outer loop
    vertex -44.88188 0 32.1
    vertex -45.9553519930874 2.59159064453923 32.1
    vertex -46.4403197831224 2.33236996018809 32.1
  endloop
endfacet
facet normal 0 0 1
  outer loop
    vertex -44.88188 0 32.1
    vertex -46.4403197831224 2.33236996018809 32.1
    vertex -46.8653976062751 1.98351760627506 32.1
  endloop
endfacet
facet normal 0 0 1
  outer loop
    vertex -44.88188 0 32.1
    vertex -46.8653976062751 1.98351760627506 32.1
    vertex -47.2142499601881 1.55843978312236 32.1
  endloop
endfacet
facet normal 0 0 1
  outer loop
    vertex -44.88188 0 32.1
    vertex -47.2142499601881 1.55843978312236 32.1
    vertex -47.4734706445392 1.07347199308738 32.1
  endloop
endfacet
facet normal 0 0 1
  outer loop
    vertex -44.88188 0 32.1
    vertex -47.4734706445392 1.07347199308738 32.1
    vertex -47.6330979538015 .547251276368077 32.1
  endloop
endfacet
facet normal 0 0 1
  outer loop
    vertex -44.88188 0 32.1
    vertex -47.6330979538015 .547251276368077 32.1
    vertex -47.6869975 0 32.1
  endloop
endfacet
facet normal 0 0 1
  outer loop
    vertex -44.88188 0 32.1
    vertex -47.6869975 0 32.1
    vertex -47.6330979538015 -.547251276368077 32.1
  endloop
endfacet
facet normal 0 0 1
  outer loop
    vertex -44.88188 0 32.1
    vertex -47.6330979538015 -.547251276368077 32.1
    vertex -47.4734706445392 -1.07347199308738 32.1
  endloop
endfacet
facet normal 0 0 1
  outer loop
    vertex -44.88188 0 32.1
    vertex -47.4734706445392 -1.07347199308738 32.1
    vertex -47.2142499601881 -1.55843978312236 32.1
  endloop
endfacet
facet normal 0 0 1
  outer loop
    vertex -44.88188 0 32.1
    vertex -47.2142499601881 -1.55843978312236 32.1
    vertex -46.8653976062751 -1.98351760627506 32.1
  endloop
endfacet
facet normal 0 0 1
  outer loop
    vertex -44.88188 0 32.1
    vertex -46.8653976062751 -1.98351760627506 32.1
    vertex -46.4403197831224 -2.33236996018809 32.1
  endloop
endfacet
facet normal 0 0 1
  outer loop
    vertex -44.88188 0 32.1
    vertex -46.4403197831224 -2.33236996018809 32.1
    vertex -45.9553519930874 -2.59159064453923 32.1
  endloop
endfacet
facet normal 0 0 1
  outer loop
    vertex -44.88188 0 32.1
    vertex -45.9553519930874 -2.59159064453923 32.1
    vertex -45.4291312763681 -2.75121795380151 32.1
  endloop
endfacet
facet normal 0 0 1
  outer loop
    vertex -44.88188 0 32.1
    vertex -45.4291312763681 -2.75121795380151 32.1
    vertex -44.88188 -2.8051175 32.1
  endloop
endfacet
facet normal 0 0 1
  outer loop
    vertex -44.88188 0 32.1
    vertex -44.88188 -2.8051175 32.1
    vertex -44.3346287236319 -2.75121795380151 32.1
  endloop
endfacet
facet normal 0 0 1
  outer loop
    vertex -44.88188 0 32.1
    vertex -44.3346287236319 -2.75121795380151 32.1
    vertex -43.8084080069126 -2.59159064453923 32.1
  endloop
endfacet
facet normal 0 0 1
  outer loop
    vertex -44.88188 0 32.1
    vertex -43.8084080069126 -2.59159064453923 32.1
    vertex -43.3234402168776 -2.33236996018809 32.1
  endloop
endfacet
facet normal 0 0 1
  outer loop
    vertex -44.88188 0 32.1
    vertex -43.3234402168776 -2.33236996018809 32.1
    vertex -42.8983623937249 -1.98351760627506 32.1
  endloop
endfacet
facet normal 0 0 1
  outer loop
    vertex -44.88188 0 32.1
    vertex -42.8983623937249 -1.98351760627506 32.1
    vertex -42.5495100398119 -1.55843978312236 32.1
  endloop
endfacet
facet normal 0 0 1
  outer loop
    vertex -44.88188 0 32.1
    vertex -42.5495100398119 -1.55843978312236 32.1
    vertex -42.2902893554608 -1.07347199308738 32.1
  endloop
endfacet
facet normal 0 0 1
  outer loop
    vertex -44.88188 0 32.1
    vertex -42.2902893554608 -1.07347199308738 32.1
    vertex -42.1306620461985 -.547251276368077 32.1
  endloop
endfacet
facet normal 0 0 1
  outer loop
    vertex -44.88188 0 32.1
    vertex -42.1306620461985 -.547251276368077 32.1
    vertex -42.0767625 0 32.1
  endloop
endfacet
facet normal .995184726672195 9.80171403295782E-02 0
  outer loop
    vertex -42.0767625 0 32
    vertex -42.1306620461985 .547251276368077 32.1
    vertex -42.0767625 0 32.1
  endloop
endfacet
facet normal .956940335732199 .290284677254493 0
  outer loop
    vertex -42.1306620461985 .547251276368077 32
    vertex -42.2902893554608 1.07347199308738 32.1
    vertex -42.1306620461985 .547251276368077 32.1
  endloop
endfacet
facet normal .881921264348387 .471396736825937 0
  outer loop
    vertex -42.2902893554608 1.07347199308738 32
    vertex -42.5495100398119 1.55843978312236 32.1
    vertex -42.2902893554608 1.07347199308738 32.1
  endloop
endfacet
facet normal .773010453362767 .634393284163609 0
  outer loop
    vertex -42.5495100398119 1.55843978312236 32
    vertex -42.8983623937249 1.98351760627506 32.1
    vertex -42.5495100398119 1.55843978312236 32.1
  endloop
endfacet
facet normal .63439328416364 .773010453362742 0
  outer loop
    vertex -42.8983623937249 1.98351760627506 32
    vertex -43.3234402168776 2.33236996018809 32.1
    vertex -42.8983623937249 1.98351760627506 32.1
  endloop
endfacet
facet normal .47139673682598 .881921264348365 0
  outer loop
    vertex -43.3234402168776 2.33236996018809 32
    vertex -43.8084080069126 2.59159064453923 32.1
    vertex -43.3234402168776 2.33236996018809 32.1
  endloop
endfacet
facet normal .290284677254464 .956940335732208 0
  outer loop
    vertex -43.8084080069126 2.59159064453923 32
    vertex -44.3346287236319 2.75121795380151 32.1
    vertex -43.8084080069126 2.59159064453923 32.1
  endloop
endfacet
facet normal 9.80171403295547E-02 .995184726672198 0
  outer loop
    vertex -44.3346287236319 2.75121795380151 32
    vertex -44.88188 2.8051175 32.1
    vertex -44.3346287236319 2.75121795380151 32.1
  endloop
endfacet
facet normal -9.80171403295547E-02 .995184726672198 0
  outer loop
    vertex -44.88188 2.8051175 32
    vertex -45.4291312763681 2.75121795380151 32.1
    vertex -44.88188 2.8051175 32.1
  endloop
endfacet
facet normal -.290284677254468 .956940335732207 0
  outer loop
    vertex -45.4291312763681 2.75121795380151 32
    vertex -45.9553519930874 2.59159064453923 32.1
    vertex -45.4291312763681 2.75121795380151 32.1
  endloop
endfacet
facet normal -.47139673682598 .881921264348365 0
  outer loop
    vertex -45.9553519930874 2.59159064453923 32
    vertex -46.4403197831224 2.33236996018809 32.1
    vertex -45.9553519930874 2.59159064453923 32.1
  endloop
endfacet
facet normal -.634393284163633 .773010453362747 0
  outer loop
    vertex -46.4403197831224 2.33236996018809 32
    vertex -46.8653976062751 1.98351760627506 32.1
    vertex -46.4403197831224 2.33236996018809 32.1
  endloop
endfacet
facet normal -.773010453362774 .634393284163601 0
  outer loop
    vertex -46.8653976062751 1.98351760627506 32
    vertex -47.2142499601881 1.55843978312236 32.1
    vertex -46.8653976062751 1.98351760627506 32.1
  endloop
endfacet
facet normal -.881921264348387 .471396736825937 0
  outer loop
    vertex -47.2142499601881 1.55843978312236 32
    vertex -47.4734706445392 1.07347199308738 32.1
    vertex -47.2142499601881 1.55843978312236 32.1
  endloop
endfacet
facet normal -.956940335732196 .290284677254505 0
  outer loop
    vertex -47.4734706445392 1.07347199308738 32
    vertex -47.6330979538015 .547251276368077 32.1
    vertex -47.4734706445392 1.07347199308738 32.1
  endloop
endfacet
facet normal -.995184726672196 9.80171403295654E-02 0
  outer loop
    vertex -47.6330979538015 .547251276368077 32
    vertex -47.6869975 0 32.1
    vertex -47.6330979538015 .547251276368077 32.1
  endloop
endfacet
facet normal -.995184726672196 -9.80171403295654E-02 0
  outer loop
    vertex -47.6869975 0 32
    vertex -47.6330979538015 -.547251276368077 32.1
    vertex -47.6869975 0 32.1
  endloop
endfacet
facet normal -.956940335732196 -.290284677254505 0
  outer loop
    vertex -47.6330979538015 -.547251276368077 32
    vertex -47.4734706445392 -1.07347199308738 32.1
    vertex -47.6330979538015 -.547251276368077 32.1
  endloop
endfacet
facet normal -.881921264348387 -.471396736825937 0
  outer loop
    vertex -47.4734706445392 -1.07347199308738 32
    vertex -47.2142499601881 -1.55843978312236 32.1
    vertex -47.4734706445392 -1.07347199308738 32.1
  endloop
endfacet
facet normal -.773010453362774 -.634393284163601 0
  outer loop
    vertex -47.2142499601881 -1.55843978312236 32
    vertex -46.8653976062751 -1.98351760627506 32.1
    vertex -47.2142499601881 -1.55843978312236 32.1
  endloop
endfacet
facet normal -.634393284163633 -.773010453362747 0
  outer loop
    vertex -46.8653976062751 -1.98351760627506 32
    vertex -46.4403197831224 -2.33236996018809 32.1
    vertex -46.8653976062751 -1.98351760627506 32.1
  endloop
endfacet
facet normal -.47139673682598 -.881921264348365 0
  outer loop
    vertex -46.4403197831224 -2.33236996018809 32
    vertex -45.9553519930874 -2.59159064453923 32.1
    vertex -46.4403197831224 -2.33236996018809 32.1
  endloop
endfacet
facet normal -.290284677254468 -.956940335732207 0
  outer loop
    vertex -45.9553519930874 -2.59159064453923 32
    vertex -45.4291312763681 -2.75121795380151 32.1
    vertex -45.9553519930874 -2.59159064453923 32.1
  endloop
endfacet
facet normal -9.80171403295547E-02 -.995184726672198 0
  outer loop
    vertex -45.4291312763681 -2.75121795380151 32
    vertex -44.88188 -2.8051175 32.1
    vertex -45.4291312763681 -2.75121795380151 32.1
  endloop
endfacet
facet normal 9.80171403295547E-02 -.995184726672198 0
  outer loop
    vertex -44.88188 -2.8051175 32
    vertex -44.3346287236319 -2.75121795380151 32.1
    vertex -44.88188 -2.8051175 32.1
  endloop
endfacet
facet normal .290284677254464 -.956940335732208 0
  outer loop
    vertex -44.3346287236319 -2.75121795380151 32
    vertex -43.8084080069126 -2.59159064453923 32.1
    vertex -44.3346287236319 -2.75121795380151 32.1
  endloop
endfacet
facet normal .47139673682598 -.881921264348365 0
  outer loop
    vertex -43.8084080069126 -2.59159064453923 32
    vertex -43.3234402168776 -2.33236996018809 32.1
    vertex -43.8084080069126 -2.59159064453923 32.1
  endloop
endfacet
facet normal .63439328416364 -.773010453362742 0
  outer loop
    vertex -43.3234402168776 -2.33236996018809 32
    vertex -42.8983623937249 -1.98351760627506 32.1
    vertex -43.3234402168776 -2.33236996018809 32.1
  endloop
endfacet
facet normal .773010453362767 -.634393284163609 0
  outer loop
    vertex -42.8983623937249 -1.98351760627506 32
    vertex -42.5495100398119 -1.55843978312236 32.1
    vertex -42.8983623937249 -1.98351760627506 32.1
  endloop
endfacet
facet normal .881921264348387 -.471396736825937 0
  outer loop
    vertex -42.5495100398119 -1.55843978312236 32
    vertex -42.2902893554608 -1.07347199308738 32.1
    vertex -42.5495100398119 -1.55843978312236 32.1
  endloop
endfacet
facet normal .956940335732199 -.290284677254493 0
  outer loop
    vertex -42.2902893554608 -1.07347199308738 32
    vertex -42.1306620461985 -.547251276368077 32.1
    vertex -42.2902893554608 -1.07347199308738 32.1
  endloop
endfacet
facet normal .995184726672195 -9.80171403295782E-02 0
  outer loop
    vertex -42.1306620461985 -.547251276368077 32
    vertex -42.0767625 0 32.1
    vertex -42.1306620461985 -.547251276368077 32.1
  endloop
endfacet
facet normal .995184726672195 9.80171403295782E-02 0
  outer loop
    vertex -42.1306620461985 .547251276368077 32
    vertex -42.1306620461985 .547251276368077 32.1
    vertex -42.0767625 0 32
  endloop
endfacet
facet normal .956940335732199 .290284677254493 0
  outer loop
    vertex -42.2902893554608 1.07347199308738 32
    vertex -42.2902893554608 1.07347199308738 32.1
    vertex -42.1306620461985 .547251276368077 32
  endloop
endfacet
facet normal .881921264348387 .471396736825937 0
  outer loop
    vertex -42.5495100398119 1.55843978312236 32
    vertex -42.5495100398119 1.55843978312236 32.1
    vertex -42.2902893554608 1.07347199308738 32
  endloop
endfacet
facet normal .773010453362767 .634393284163609 0
  outer loop
    vertex -42.8983623937249 1.98351760627506 32
    vertex -42.8983623937249 1.98351760627506 32.1
    vertex -42.5495100398119 1.55843978312236 32
  endloop
endfacet
facet normal .63439328416364 .773010453362742 0
  outer loop
    vertex -43.3234402168776 2.33236996018809 32
    vertex -43.3234402168776 2.33236996018809 32.1
    vertex -42.8983623937249 1.98351760627506 32
  endloop
endfacet
facet normal .47139673682598 .881921264348365 0
  outer loop
    vertex -43.8084080069126 2.59159064453923 32
    vertex -43.8084080069126 2.59159064453923 32.1
    vertex -43.3234402168776 2.33236996018809 32
  endloop
endfacet
facet normal .290284677254464 .956940335732208 0
  outer loop
    vertex -44.3346287236319 2.75121795380151 32
    vertex -44.3346287236319 2.75121795380151 32.1
    vertex -43.8084080069126 2.59159064453923 32
  endloop
endfacet
facet normal 9.80171403295547E-02 .995184726672198 0
  outer loop
    vertex -44.88188 2.8051175 32
    vertex -44.88188 2.8051175 32.1
    vertex -44.3346287236319 2.75121795380151 32
  endloop
endfacet
facet normal -9.80171403295547E-02 .995184726672198 0
  outer loop
    vertex -45.4291312763681 2.75121795380151 32
    vertex -45.4291312763681 2.75121795380151 32.1
    vertex -44.88188 2.8051175 32
  endloop
endfacet
facet normal -.290284677254468 .956940335732207 0
  outer loop
    vertex -45.9553519930874 2.59159064453923 32
    vertex -45.9553519930874 2.59159064453923 32.1
    vertex -45.4291312763681 2.75121795380151 32
  endloop
endfacet
facet normal -.47139673682598 .881921264348365 0
  outer loop
    vertex -46.4403197831224 2.33236996018809 32
    vertex -46.4403197831224 2.33236996018809 32.1
    vertex -45.9553519930874 2.59159064453923 32
  endloop
endfacet
facet normal -.634393284163633 .773010453362747 0
  outer loop
    vertex -46.8653976062751 1.98351760627506 32
    vertex -46.8653976062751 1.98351760627506 32.1
    vertex -46.4403197831224 2.33236996018809 32
  endloop
endfacet
facet normal -.773010453362774 .634393284163601 0
  outer loop
    vertex -47.2142499601881 1.55843978312236 32
    vertex -47.2142499601881 1.55843978312236 32.1
    vertex -46.8653976062751 1.98351760627506 32
  endloop
endfacet
facet normal -.881921264348387 .471396736825937 0
  outer loop
    vertex -47.4734706445392 1.07347199308738 32
    vertex -47.4734706445392 1.07347199308738 32.1
    vertex -47.2142499601881 1.55843978312236 32
  endloop
endfacet
facet normal -.956940335732196 .290284677254505 0
  outer loop
    vertex -47.6330979538015 .547251276368077 32
    vertex -47.6330979538015 .547251276368077 32.1
    vertex -47.4734706445392 1.07347199308738 32
  endloop
endfacet
facet normal -.995184726672196 9.80171403295654E-02 0
  outer loop
    vertex -47.6869975 0 32
    vertex -47.6869975 0 32.1
    vertex -47.6330979538015 .547251276368077 32
  endloop
endfacet
facet normal -.995184726672196 -9.80171403295654E-02 0
  outer loop
    vertex -47.6330979538015 -.547251276368077 32
    vertex -47.6330979538015 -.547251276368077 32.1
    vertex -47.6869975 0 32
  endloop
endfacet
facet normal -.956940335732196 -.290284677254505 0
  outer loop
    vertex -47.4734706445392 -1.07347199308738 32
    vertex -47.4734706445392 -1.07347199308738 32.1
    vertex -47.6330979538015 -.547251276368077 32
  endloop
endfacet
facet normal -.881921264348387 -.471396736825937 0
  outer loop
    vertex -47.2142499601881 -1.55843978312236 32
    vertex -47.2142499601881 -1.55843978312236 32.1
    vertex -47.4734706445392 -1.07347199308738 32
  endloop
endfacet
facet normal -.773010453362774 -.634393284163601 0
  outer loop
    vertex -46.8653976062751 -1.98351760627506 32
    vertex -46.8653976062751 -1.98351760627506 32.1
    vertex -47.2142499601881 -1.55843978312236 32
  endloop
endfacet
facet normal -.634393284163633 -.773010453362747 0
  outer loop
    vertex -46.4403197831224 -2.33236996018809 32
    vertex -46.4403197831224 -2.33236996018809 32.1
    vertex -46.8653976062751 -1.98351760627506 32
  endloop
endfacet
facet normal -.47139673682598 -.881921264348365 0
  outer loop
    vertex -45.9553519930874 -2.59159064453923 32
    vertex -45.9553519930874 -2.59159064453923 32.1
    vertex -46.4403197831224 -2.33236996018809 32
  endloop
endfacet
facet normal -.290284677254468 -.956940335732207 0
  outer loop
    vertex -45.4291312763681 -2.75121795380151 32
    vertex -45.4291312763681 -2.75121795380151 32.1
    vertex -45.9553519930874 -2.59159064453923 32
  endloop
endfacet
facet normal -9.80171403295547E-02 -.995184726672198 0
  outer loop
    vertex -44.88188 -2.8051175 32
    vertex -44.88188 -2.8051175 32.1
    vertex -45.4291312763681 -2.75121795380151 32
  endloop
endfacet
facet normal 9.80171403295547E-02 -.995184726672198 0
  outer loop
    vertex -44.3346287236319 -2.75121795380151 32
    vertex -44.3346287236319 -2.75121795380151 32.1
    vertex -44.88188 -2.8051175 32
  endloop
endfacet
facet normal .290284677254464 -.956940335732208 0
  outer loop
    vertex -43.8084080069126 -2.59159064453923 32
    vertex -43.8084080069126 -2.59159064453923 32.1
    vertex -44.3346287236319 -2.75121795380151 32
  endloop
endfacet
facet normal .47139673682598 -.881921264348365 0
  outer loop
    vertex -43.3234402168776 -2.33236996018809 32
    vertex -43.3234402168776 -2.33236996018809 32.1
    vertex -43.8084080069126 -2.59159064453923 32
  endloop
endfacet
facet normal .63439328416364 -.773010453362742 0
  outer loop
    vertex -42.8983623937249 -1.98351760627506 32
    vertex -42.8983623937249 -1.98351760627506 32.1
    vertex -43.3234402168776 -2.33236996018809 32
  endloop
endfacet
facet normal .773010453362767 -.634393284163609 0
  outer loop
    vertex -42.5495100398119 -1.55843978312236 32
    vertex -42.5495100398119 -1.55843978312236 32.1
    vertex -42.8983623937249 -1.98351760627506 32
  endloop
endfacet
facet normal .881921264348387 -.471396736825937 0
  outer loop
    vertex -42.2902893554608 -1.07347199308738 32
    vertex -42.2902893554608 -1.07347199308738 32.1
    vertex -42.5495100398119 -1.55843978312236 32
  endloop
endfacet
facet normal .956940335732199 -.290284677254493 0
  outer loop
    vertex -42.1306620461985 -.547251276368077 32
    vertex -42.1306620461985 -.547251276368077 32.1
    vertex -42.2902893554608 -1.07347199308738 32
  endloop
endfacet
facet normal .995184726672195 -9.80171403295782E-02 0
  outer loop
    vertex -42.0767625 0 32
    vertex -42.0767625 0 32.1
    vertex -42.1306620461985 -.547251276368077 32
  endloop
endfacet
facet normal 0 0 1
  outer loop
    vertex 56.10235 26.5748 32
    vertex -56.10235 -26.5748 32
    vertex 56.10235 -26.5748 32
  endloop
endfacet
facet normal 0 0 1
  outer loop
    vertex 56.10235 26.5748 32
    vertex -56.10235 26.5748 32
    vertex -56.10235 -26.5748 32
  endloop
endfacet
facet normal 0 0 -1
  outer loop
    vertex -53.5141595489748 -23.9866095489748 0
    vertex 53.5141595489748 23.9866095489748 0
    vertex 53.5141595489748 -23.9866095489748 0
  endloop
endfacet
facet normal 0 0 -1
  outer loop
    vertex 53.5141595489748 23.9866095489748 0
    vertex -53.5141595489748 -23.9866095489748 0
    vertex -53.5141595489748 23.9866095489748 0
  endloop
endfacet
facet normal 1 0 0
  outer loop
    vertex 56.10235 26.5748 32
    vertex 56.10235 -26.5748 28.8571428571429
    vertex 56.10235 26.5748 28.8571428571429
  endloop
endfacet
facet normal 0 -1 0
  outer loop
    vertex 56.10235 -26.5748 32
    vertex -56.10235 -26.5748 28.8571428571429
    vertex 56.10235 -26.5748 28.8571428571429
  endloop
endfacet
facet normal -1 0 0
  outer loop
    vertex -56.10235 -26.5748 32
    vertex -56.10235 26.5748 28.8571428571429
    vertex -56.10235 -26.5748 28.8571428571429
  endloop
endfacet
facet normal 0 1 0
  outer loop
    vertex -56.10235 26.5748 32
    vertex 56.10235 26.5748 28.8571428571429
    vertex -56.10235 26.5748 28.8571428571429
  endloop
endfacet
facet normal 1 0 0
  outer loop
    vertex 56.10235 26.5748 28.8571428571429
    vertex 56.10235 -26.5748 16.8571428571429
    vertex 56.10235 26.5748 16.8571428571429
  endloop
endfacet
facet normal 0 -1 0
  outer loop
    vertex 56.10235 -26.5748 28.8571428571429
    vertex -56.10235 -26.5748 16.8571428571429
    vertex 56.10235 -26.5748 16.8571428571429
  endloop
endfacet
facet normal -1 0 0
  outer loop
    vertex -56.10235 -26.5748 28.8571428571429
    vertex -56.10235 26.5748 16.8571428571429
    vertex -56.10235 -26.5748 16.8571428571429
  endloop
endfacet
facet normal 0 1 0
  outer loop
    vertex -56.10235 26.5748 28.8571428571429
    vertex 56.10235 26.5748 16.8571428571429
    vertex -56.10235 26.5748 16.8571428571429
  endloop
endfacet
facet normal .988417618119243 0 -.151758400727873
  outer loop
    vertex 56.10235 26.5748 16.8571428571429
    vertex 53.5141595489748 -23.9866095489748 0
    vertex 53.5141595489748 23.9866095489748 0
  endloop
endfacet
facet normal 0 -.988417618119243 -.151758400727873
  outer loop
    vertex 56.10235 -26.5748 16.8571428571429
    vertex -53.5141595489748 -23.9866095489748 0
    vertex 53.5141595489748 -23.9866095489748 0
  endloop
endfacet
facet normal -.988417618119243 0 -.151758400727873
  outer loop
    vertex -56.10235 -26.5748 16.8571428571429
    vertex -53.5141595489748 23.9866095489748 0
    vertex -53.5141595489748 -23.9866095489748 0
  endloop
endfacet
facet normal 0 .988417618119243 -.151758400727873
  outer loop
    vertex -56.10235 26.5748 16.8571428571429
    vertex 53.5141595489748 23.9866095489748 0
    vertex -53.5141595489748 23.9866095489748 0
  endloop
endfacet
facet normal 1 0 0
  outer loop
    vertex 56.10235 26.5748 32
    vertex 56.10235 -26.5748 32
    vertex 56.10235 -26.5748 28.8571428571429
  endloop
endfacet
facet normal 0 -1 0
  outer loop
    vertex 56.10235 -26.5748 32
    vertex -56.10235 -26.5748 32
    vertex -56.10235 -26.5748 28.8571428571429
  endloop
endfacet
facet normal -1 0 0
  outer loop
    vertex -56.10235 -26.5748 32
    vertex -56.10235 26.5748 32
    vertex -56.10235 26.5748 28.8571428571429
  endloop
endfacet
facet normal 0 1 0
  outer loop
    vertex -56.10235 26.5748 32
    vertex 56.10235 26.5748 32
    vertex 56.10235 26.5748 28.8571428571429
  endloop
endfacet
facet normal 1 0 0
  outer loop
    vertex 56.10235 26.5748 28.8571428571429
    vertex 56.10235 -26.5748 28.8571428571429
    vertex 56.10235 -26.5748 16.8571428571429
  endloop
endfacet
facet normal 0 -1 0
  outer loop
    vertex 56.10235 -26.5748 28.8571428571429
    vertex -56.10235 -26.5748 28.8571428571429
    vertex -56.10235 -26.5748 16.8571428571429
  endloop
endfacet
facet normal -1 0 0
  outer loop
    vertex -56.10235 -26.5748 28.8571428571429
    vertex -56.10235 26.5748 28.8571428571429
    vertex -56.10235 26.5748 16.8571428571429
  endloop
endfacet
facet normal 0 1 0
  outer loop
    vertex -56.10235 26.5748 28.8571428571429
    vertex 56.10235 26.5748 28.8571428571429
    vertex 56.10235 26.5748 16.8571428571429
  endloop
endfacet
facet normal .988417618119243 0 -.151758400727873
  outer loop
    vertex 56.10235 26.5748 16.8571428571429
    vertex 56.10235 -26.5748 16.8571428571429
    vertex 53.5141595489748 -23.9866095489748 0
  endloop
endfacet
facet normal 0 -.988417618119243 -.151758400727873
  outer loop
    vertex 56.10235 -26.5748 16.8571428571429
    vertex -56.10235 -26.5748 16.8571428571429
    vertex -53.5141595489748 -23.9866095489748 0
  endloop
endfacet
facet normal -.988417618119243 0 -.151758400727873
  outer loop
    vertex -56.10235 -26.5748 16.8571428571429
    vertex -56.10235 26.5748 16.8571428571429
    vertex -53.5141595489748 23.9866095489748 0
  endloop
endfacet
facet normal 0 .988417618119243 -.151758400727873
  outer loop
    vertex -56.10235 26.5748 16.8571428571429
    vertex 56.10235 26.5748 16.8571428571429
    vertex 53.5141595489748 23.9866095489748 0
  endloop
endfacet
facet normal -1 0 0
  outer loop
    vertex -75.7874 10.82677 10
    vertex -75.7874 10.82677 0
    vertex -75.7874 -10.82677 0
  endloop
endfacet
facet normal -1 0 0
  outer loop
    vertex -75.7874 10.82677 10
    vertex -75.7874 -10.82677 0
    vertex -75.7874 -10.82677 10
  endloop
endfacet
facet normal 1 0 0
  outer loop
    vertex -56.10235 -10.82677 27.8571428571429
    vertex -56.10235 -10.82677 17.8571428571429
    vertex -56.10235 10.82677 17.8571428571429
  endloop
endfacet
facet normal 1 0 0
  outer loop
    vertex -56.10235 -10.82677 27.8571428571429
    vertex -56.10235 10.82677 17.8571428571429
    vertex -56.10235 10.82677 27.8571428571429
  endloop
endfacet
facet normal 0 1 0
  outer loop
    vertex -56.10235 10.82677 17.8571428571429
    vertex -58.1645773249237 10.82677 17.8571428571429
    vertex -63.1645773249237 10.82677 27.8571428571429
  endloop
endfacet
facet normal 0 1 0
  outer loop
    vertex -58.1645773249237 10.82677 17.8571428571429
    vertex -69.24999125 10.82677 0
    vertex -74.24999125 10.82677 10
  endloop
endfacet
facet normal 0 1 0
  outer loop
    vertex -69.24999125 10.82677 0
    vertex -75.7874 10.82677 0
    vertex -75.7874 10.82677 10
  endloop
endfacet
facet normal 0 1 0
  outer loop
    vertex -56.10235 10.82677 17.8571428571429
    vertex -63.1645773249237 10.82677 27.8571428571429
    vertex -56.10235 10.82677 27.8571428571429
  endloop
endfacet
facet normal 0 1 0
  outer loop
    vertex -58.1645773249237 10.82677 17.8571428571429
    vertex -74.24999125 10.82677 10
    vertex -63.1645773249237 10.82677 27.8571428571429
  endloop
endfacet
facet normal 0 1 0
  outer loop
    vertex -69.24999125 10.82677 0
    vertex -75.7874 10.82677 10
    vertex -74.24999125 10.82677 10
  endloop
endfacet
facet normal 0 -1 0
  outer loop
    vertex -56.10235 -10.82677 17.8571428571429
    vertex -63.1645773249237 -10.82677 27.8571428571429
    vertex -58.1645773249237 -10.82677 17.8571428571429
  endloop
endfacet
facet normal 0 -1 0
  outer loop
    vertex -58.1645773249237 -10.82677 17.8571428571429
    vertex -74.24999125 -10.82677 10
    vertex -69.24999125 -10.82677 0
  endloop
endfacet
facet normal 0 -1 0
  outer loop
    vertex -69.24999125 -10.82677 0
    vertex -75.7874 -10.82677 10
    vertex -75.7874 -10.82677 0
  endloop
endfacet
facet normal 0 -1 0
  outer loop
    vertex -56.10235 -10.82677 17.8571428571429
    vertex -56.10235 -10.82677 27.8571428571429
    vertex -63.1645773249237 -10.82677 27.8571428571429
  endloop
endfacet
facet normal 0 -1 0
  outer loop
    vertex -58.1645773249237 -10.82677 17.8571428571429
    vertex -63.1645773249237 -10.82677 27.8571428571429
    vertex -74.24999125 -10.82677 10
  endloop
endfacet
facet normal 0 -1 0
  outer loop
    vertex -69.24999125 -10.82677 0
    vertex -74.24999125 -10.82677 10
    vertex -75.7874 -10.82677 10
  endloop
endfacet
facet normal 0 0 1
  outer loop
    vertex -56.10235 10.82677 27.8571428571429
    vertex -63.1645773249237 10.82677 27.8571428571429
    vertex -63.1645773249237 -10.82677 27.8571428571429
  endloop
endfacet
facet normal -.849604561194156 0 .527420221074321
  outer loop
    vertex -63.1645773249237 10.82677 27.8571428571429
    vertex -74.24999125 10.82677 10
    vertex -74.24999125 -10.82677 10
  endloop
endfacet
facet normal 0 0 1
  outer loop
    vertex -74.24999125 10.82677 10
    vertex -75.7874 10.82677 10
    vertex -75.7874 -10.82677 10
  endloop
endfacet
facet normal 0 0 1
  outer loop
    vertex -56.10235 10.82677 27.8571428571429
    vertex -63.1645773249237 -10.82677 27.8571428571429
    vertex -56.10235 -10.82677 27.8571428571429
  endloop
endfacet
facet normal -.849604561194156 0 .527420221074321
  outer loop
    vertex -63.1645773249237 10.82677 27.8571428571429
    vertex -74.24999125 -10.82677 10
    vertex -63.1645773249237 -10.82677 27.8571428571429
  endloop
endfacet
facet normal 0 0 1
  outer loop
    vertex -74.24999125 10.82677 10
    vertex -75.7874 -10.82677 10
    vertex -74.24999125 -10.82677 10
  endloop
endfacet
facet normal 0 0 -1
  outer loop
    vertex -56.10235 10.82677 17.8571428571429
    vertex -58.1645773249237 -10.82677 17.8571428571429
    vertex -58.1645773249237 10.82677 17.8571428571429
  endloop
endfacet
facet normal .849604561194156 0 -.527420221074321
  outer loop
    vertex -58.1645773249237 10.82677 17.8571428571429
    vertex -69.24999125 -10.82677 0
    vertex -69.24999125 10.82677 0
  endloop
endfacet
facet normal 0 0 -1
  outer loop
    vertex -69.24999125 10.82677 0
    vertex -75.7874 -10.82677 0
    vertex -75.7874 10.82677 0
  endloop
endfacet
facet normal 0 0 -1
  outer loop
    vertex -56.10235 10.82677 17.8571428571429
    vertex -56.10235 -10.82677 17.8571428571429
    vertex -58.1645773249237 -10.82677 17.8571428571429
  endloop
endfacet
facet normal .849604561194156 0 -.527420221074321
  outer loop
    vertex -58.1645773249237 10.82677 17.8571428571429
    vertex -58.1645773249237 -10.82677 17.8571428571429
    vertex -69.24999125 -10.82677 0
  endloop
endfacet
facet normal 0 0 -1
  outer loop
    vertex -69.24999125 10.82677 0
    vertex -69.24999125 -10.82677 0
    vertex -75.7874 -10.82677 0
  endloop
endfacet
facet normal 1 0 0
  outer loop
    vertex 75.7874 -10.82677 10
    vertex 75.7874 -10.82677 0
    vertex 75.7874 10.82677 0
  endloop
endfacet
facet normal 1 0 0
  outer loop
    vertex 75.7874 -10.82677 10
    vertex 75.7874 10.82677 0
    vertex 75.7874 10.82677 10
  endloop
endfacet
facet normal -1 0 0
  outer loop
    vertex 56.10235 10.82677 27.8571428571429
    vertex 56.10235 10.82677 17.8571428571429
    vertex 56.10235 -10.82677 17.8571428571429
  endloop
endfacet
facet normal -1 0 0
  outer loop
    vertex 56.10235 10.82677 27.8571428571429
    vertex 56.10235 -10.82677 17.8571428571429
    vertex 56.10235 -10.82677 27.8571428571429
  endloop
endfacet
facet normal 0 -1 0
  outer loop
    vertex 56.10235 -10.82677 17.8571428571429
    vertex 58.1645773249237 -10.82677 17.8571428571429
    vertex 63.1645773249237 -10.82677 27.8571428571429
  endloop
endfacet
facet normal 0 -1 0
  outer loop
    vertex 58.1645773249237 -10.82677 17.8571428571429
    vertex 69.24999125 -10.82677 0
    vertex 74.24999125 -10.82677 10
  endloop
endfacet
facet normal 0 -1 0
  outer loop
    vertex 69.24999125 -10.82677 0
    vertex 75.7874 -10.82677 0
    vertex 75.7874 -10.82677 10
  endloop
endfacet
facet normal 0 -1 0
  outer loop
    vertex 56.10235 -10.82677 17.8571428571429
    vertex 63.1645773249237 -10.82677 27.8571428571429
    vertex 56.10235 -10.82677 27.8571428571429
  endloop
endfacet
facet normal 0 -1 0
  outer loop
    vertex 58.1645773249237 -10.82677 17.8571428571429
    vertex 74.24999125 -10.82677 10
    vertex 63.1645773249237 -10.82677 27.8571428571429
  endloop
endfacet
facet normal 0 -1 0
  outer loop
    vertex 69.24999125 -10.82677 0
    vertex 75.7874 -10.82677 10
    vertex 74.24999125 -10.82677 10
  endloop
endfacet
facet normal 0 1 0
  outer loop
    vertex 56.10235 10.82677 17.8571428571429
    vertex 63.1645773249237 10.82677 27.8571428571429
    vertex 58.1645773249237 10.82677 17.8571428571429
  endloop
endfacet
facet normal 0 1 0
  outer loop
    vertex 58.1645773249237 10.82677 17.8571428571429
    vertex 74.24999125 10.82677 10
    vertex 69.24999125 10.82677 0
  endloop
endfacet
facet normal 0 1 0
  outer loop
    vertex 69.24999125 10.82677 0
    vertex 75.7874 10.82677 10
    vertex 75.7874 10.82677 0
  endloop
endfacet
facet normal 0 1 0
  outer loop
    vertex 56.10235 10.82677 17.8571428571429
    vertex 56.10235 10.82677 27.8571428571429
    vertex 63.1645773249237 10.82677 27.8571428571429
  endloop
endfacet
facet normal 0 1 0
  outer loop
    vertex 58.1645773249237 10.82677 17.8571428571429
    vertex 63.1645773249237 10.82677 27.8571428571429
    vertex 74.24999125 10.82677 10
  endloop
endfacet
facet normal 0 1 0
  outer loop
    vertex 69.24999125 10.82677 0
    vertex 74.24999125 10.82677 10
    vertex 75.7874 10.82677 10
  endloop
endfacet
facet normal 0 0 1
  outer loop
    vertex 56.10235 -10.82677 27.8571428571429
    vertex 63.1645773249237 -10.82677 27.8571428571429
    vertex 63.1645773249237 10.82677 27.8571428571429
  endloop
endfacet
facet normal .849604561194156 0 .527420221074321
  outer loop
    vertex 63.1645773249237 -10.82677 27.8571428571429
    vertex 74.24999125 -10.82677 10
    vertex 74.24999125 10.82677 10
  endloop
endfacet
facet normal 0 0 1
  outer loop
    vertex 74.24999125 -10.82677 10
    vertex 75.7874 -10.82677 10
    vertex 75.7874 10.82677 10
  endloop
endfacet
facet normal 0 0 1
  outer loop
    vertex 56.10235 -10.82677 27.8571428571429
    vertex 63.1645773249237 10.82677 27.8571428571429
    vertex 56.10235 10.82677 27.8571428571429
  endloop
endfacet
facet normal .849604561194156 0 .527420221074321
  outer loop
    vertex 63.1645773249237 -10.82677 27.8571428571429
    vertex 74.24999125 10.82677 10
    vertex 63.1645773249237 10.82677 27.8571428571429
  endloop
endfacet
facet normal 0 0 1
  outer loop
    vertex 74.24999125 -10.82677 10
    vertex 75.7874 10.82677 10
    vertex 74.24999125 10.82677 10
  endloop
endfacet
facet normal 0 0 -1
  outer loop
    vertex 56.10235 -10.82677 17.8571428571429
    vertex 58.1645773249237 10.82677 17.8571428571429
    vertex 58.1645773249237 -10.82677 17.8571428571429
  endloop
endfacet
facet normal -.849604561194156 0 -.527420221074321
  outer loop
    vertex 58.1645773249237 -10.82677 17.8571428571429
    vertex 69.24999125 10.82677 0
    vertex 69.24999125 -10.82677 0
  endloop
endfacet
facet normal 0 0 -1
  outer loop
    vertex 69.24999125 -10.82677 0
    vertex 75.7874 10.82677 0
    vertex 75.7874 -10.82677 0
  endloop
endfacet
facet normal 0 0 -1
  outer loop
    vertex 56.10235 -10.82677 17.8571428571429
    vertex 56.10235 10.82677 17.8571428571429
    vertex 58.1645773249237 10.82677 17.8571428571429
  endloop
endfacet
facet normal -.849604561194156 0 -.527420221074321
  outer loop
    vertex 58.1645773249237 -10.82677 17.8571428571429
    vertex 58.1645773249237 10.82677 17.8571428571429
    vertex 69.24999125 10.82677 0
  endloop
endfacet
facet normal 0 0 -1
  outer loop
    vertex 69.24999125 -10.82677 0
    vertex 69.24999125 10.82677 0
    vertex 75.7874 10.82677 0
  endloop
endfacet
endsolid SOD123
