solid SOD323-L
facet normal 0 0 -1
  outer loop
    vertex -28.346456 0 32
    vertex -26.6088443252251 .345632451816001 32
    vertex -26.5748025 0 32
  endloop
endfacet
facet normal 0 0 -1
  outer loop
    vertex -28.346456 0 32
    vertex -26.709661592648 .677982442341625 32
    vertex -26.6088443252251 .345632451816001 32
  endloop
endfacet
facet normal 0 0 -1
  outer loop
    vertex -28.346456 0 32
    vertex -26.8733799512206 .984277947824994 32
    vertex -26.709661592648 .677982442341625 32
  endloop
endfacet
facet normal 0 0 -1
  outer loop
    vertex -28.346456 0 32
    vertex -27.0937077962371 1.25274820376288 32
    vertex -26.8733799512206 .984277947824994 32
  endloop
endfacet
facet normal 0 0 -1
  outer loop
    vertex -28.346456 0 32
    vertex -27.362178052175 1.47307604877945 32
    vertex -27.0937077962371 1.25274820376288 32
  endloop
endfacet
facet normal 0 0 -1
  outer loop
    vertex -28.346456 0 32
    vertex -27.6684735576584 1.63679440735198 32
    vertex -27.362178052175 1.47307604877945 32
  endloop
endfacet
facet normal 0 0 -1
  outer loop
    vertex -28.346456 0 32
    vertex -28.000823548184 1.73761167477486 32
    vertex -27.6684735576584 1.63679440735198 32
  endloop
endfacet
facet normal 0 0 -1
  outer loop
    vertex -28.346456 0 32
    vertex -28.346456 1.7716535 32
    vertex -28.000823548184 1.73761167477486 32
  endloop
endfacet
facet normal 0 0 -1
  outer loop
    vertex -28.346456 0 32
    vertex -28.692088451816 1.73761167477486 32
    vertex -28.346456 1.7716535 32
  endloop
endfacet
facet normal 0 0 -1
  outer loop
    vertex -28.346456 0 32
    vertex -29.0244384423416 1.63679440735198 32
    vertex -28.692088451816 1.73761167477486 32
  endloop
endfacet
facet normal 0 0 -1
  outer loop
    vertex -28.346456 0 32
    vertex -29.330733947825 1.47307604877945 32
    vertex -29.0244384423416 1.63679440735198 32
  endloop
endfacet
facet normal 0 0 -1
  outer loop
    vertex -28.346456 0 32
    vertex -29.5992042037629 1.25274820376288 32
    vertex -29.330733947825 1.47307604877945 32
  endloop
endfacet
facet normal 0 0 -1
  outer loop
    vertex -28.346456 0 32
    vertex -29.8195320487794 .984277947824994 32
    vertex -29.5992042037629 1.25274820376288 32
  endloop
endfacet
facet normal 0 0 -1
  outer loop
    vertex -28.346456 0 32
    vertex -29.983250407352 .677982442341625 32
    vertex -29.8195320487794 .984277947824994 32
  endloop
endfacet
facet normal 0 0 -1
  outer loop
    vertex -28.346456 0 32
    vertex -30.0840676747749 .345632451816001 32
    vertex -29.983250407352 .677982442341625 32
  endloop
endfacet
facet normal 0 0 -1
  outer loop
    vertex -28.346456 0 32
    vertex -30.1181095 0 32
    vertex -30.0840676747749 .345632451816001 32
  endloop
endfacet
facet normal 0 0 -1
  outer loop
    vertex -28.346456 0 32
    vertex -30.0840676747749 -.345632451816001 32
    vertex -30.1181095 0 32
  endloop
endfacet
facet normal 0 0 -1
  outer loop
    vertex -28.346456 0 32
    vertex -29.983250407352 -.677982442341625 32
    vertex -30.0840676747749 -.345632451816001 32
  endloop
endfacet
facet normal 0 0 -1
  outer loop
    vertex -28.346456 0 32
    vertex -29.8195320487794 -.984277947824994 32
    vertex -29.983250407352 -.677982442341625 32
  endloop
endfacet
facet normal 0 0 -1
  outer loop
    vertex -28.346456 0 32
    vertex -29.5992042037629 -1.25274820376288 32
    vertex -29.8195320487794 -.984277947824994 32
  endloop
endfacet
facet normal 0 0 -1
  outer loop
    vertex -28.346456 0 32
    vertex -29.330733947825 -1.47307604877945 32
    vertex -29.5992042037629 -1.25274820376288 32
  endloop
endfacet
facet normal 0 0 -1
  outer loop
    vertex -28.346456 0 32
    vertex -29.0244384423416 -1.63679440735198 32
    vertex -29.330733947825 -1.47307604877945 32
  endloop
endfacet
facet normal 0 0 -1
  outer loop
    vertex -28.346456 0 32
    vertex -28.692088451816 -1.73761167477486 32
    vertex -29.0244384423416 -1.63679440735198 32
  endloop
endfacet
facet normal 0 0 -1
  outer loop
    vertex -28.346456 0 32
    vertex -28.346456 -1.7716535 32
    vertex -28.692088451816 -1.73761167477486 32
  endloop
endfacet
facet normal 0 0 -1
  outer loop
    vertex -28.346456 0 32
    vertex -28.000823548184 -1.73761167477486 32
    vertex -28.346456 -1.7716535 32
  endloop
endfacet
facet normal 0 0 -1
  outer loop
    vertex -28.346456 0 32
    vertex -27.6684735576584 -1.63679440735198 32
    vertex -28.000823548184 -1.73761167477486 32
  endloop
endfacet
facet normal 0 0 -1
  outer loop
    vertex -28.346456 0 32
    vertex -27.362178052175 -1.47307604877945 32
    vertex -27.6684735576584 -1.63679440735198 32
  endloop
endfacet
facet normal 0 0 -1
  outer loop
    vertex -28.346456 0 32
    vertex -27.0937077962371 -1.25274820376288 32
    vertex -27.362178052175 -1.47307604877945 32
  endloop
endfacet
facet normal 0 0 -1
  outer loop
    vertex -28.346456 0 32
    vertex -26.8733799512206 -.984277947824994 32
    vertex -27.0937077962371 -1.25274820376288 32
  endloop
endfacet
facet normal 0 0 -1
  outer loop
    vertex -28.346456 0 32
    vertex -26.709661592648 -.677982442341625 32
    vertex -26.8733799512206 -.984277947824994 32
  endloop
endfacet
facet normal 0 0 -1
  outer loop
    vertex -28.346456 0 32
    vertex -26.6088443252251 -.345632451816001 32
    vertex -26.709661592648 -.677982442341625 32
  endloop
endfacet
facet normal 0 0 -1
  outer loop
    vertex -28.346456 0 32
    vertex -26.5748025 0 32
    vertex -26.6088443252251 -.345632451816001 32
  endloop
endfacet
facet normal 0 0 1
  outer loop
    vertex -28.346456 0 32.1
    vertex -26.5748025 0 32.1
    vertex -26.6088443252251 .345632451816001 32.1
  endloop
endfacet
facet normal 0 0 1
  outer loop
    vertex -28.346456 0 32.1
    vertex -26.6088443252251 .345632451816001 32.1
    vertex -26.709661592648 .677982442341625 32.1
  endloop
endfacet
facet normal 0 0 1
  outer loop
    vertex -28.346456 0 32.1
    vertex -26.709661592648 .677982442341625 32.1
    vertex -26.8733799512206 .984277947824994 32.1
  endloop
endfacet
facet normal 0 0 1
  outer loop
    vertex -28.346456 0 32.1
    vertex -26.8733799512206 .984277947824994 32.1
    vertex -27.0937077962371 1.25274820376288 32.1
  endloop
endfacet
facet normal 0 0 1
  outer loop
    vertex -28.346456 0 32.1
    vertex -27.0937077962371 1.25274820376288 32.1
    vertex -27.362178052175 1.47307604877945 32.1
  endloop
endfacet
facet normal 0 0 1
  outer loop
    vertex -28.346456 0 32.1
    vertex -27.362178052175 1.47307604877945 32.1
    vertex -27.6684735576584 1.63679440735198 32.1
  endloop
endfacet
facet normal 0 0 1
  outer loop
    vertex -28.346456 0 32.1
    vertex -27.6684735576584 1.63679440735198 32.1
    vertex -28.000823548184 1.73761167477486 32.1
  endloop
endfacet
facet normal 0 0 1
  outer loop
    vertex -28.346456 0 32.1
    vertex -28.000823548184 1.73761167477486 32.1
    vertex -28.346456 1.7716535 32.1
  endloop
endfacet
facet normal 0 0 1
  outer loop
    vertex -28.346456 0 32.1
    vertex -28.346456 1.7716535 32.1
    vertex -28.692088451816 1.73761167477486 32.1
  endloop
endfacet
facet normal 0 0 1
  outer loop
    vertex -28.346456 0 32.1
    vertex -28.692088451816 1.73761167477486 32.1
    vertex -29.0244384423416 1.63679440735198 32.1
  endloop
endfacet
facet normal 0 0 1
  outer loop
    vertex -28.346456 0 32.1
    vertex -29.0244384423416 1.63679440735198 32.1
    vertex -29.330733947825 1.47307604877945 32.1
  endloop
endfacet
facet normal 0 0 1
  outer loop
    vertex -28.346456 0 32.1
    vertex -29.330733947825 1.47307604877945 32.1
    vertex -29.5992042037629 1.25274820376288 32.1
  endloop
endfacet
facet normal 0 0 1
  outer loop
    vertex -28.346456 0 32.1
    vertex -29.5992042037629 1.25274820376288 32.1
    vertex -29.8195320487794 .984277947824994 32.1
  endloop
endfacet
facet normal 0 0 1
  outer loop
    vertex -28.346456 0 32.1
    vertex -29.8195320487794 .984277947824994 32.1
    vertex -29.983250407352 .677982442341625 32.1
  endloop
endfacet
facet normal 0 0 1
  outer loop
    vertex -28.346456 0 32.1
    vertex -29.983250407352 .677982442341625 32.1
    vertex -30.0840676747749 .345632451816001 32.1
  endloop
endfacet
facet normal 0 0 1
  outer loop
    vertex -28.346456 0 32.1
    vertex -30.0840676747749 .345632451816001 32.1
    vertex -30.1181095 0 32.1
  endloop
endfacet
facet normal 0 0 1
  outer loop
    vertex -28.346456 0 32.1
    vertex -30.1181095 0 32.1
    vertex -30.0840676747749 -.345632451816001 32.1
  endloop
endfacet
facet normal 0 0 1
  outer loop
    vertex -28.346456 0 32.1
    vertex -30.0840676747749 -.345632451816001 32.1
    vertex -29.983250407352 -.677982442341625 32.1
  endloop
endfacet
facet normal 0 0 1
  outer loop
    vertex -28.346456 0 32.1
    vertex -29.983250407352 -.677982442341625 32.1
    vertex -29.8195320487794 -.984277947824994 32.1
  endloop
endfacet
facet normal 0 0 1
  outer loop
    vertex -28.346456 0 32.1
    vertex -29.8195320487794 -.984277947824994 32.1
    vertex -29.5992042037629 -1.25274820376288 32.1
  endloop
endfacet
facet normal 0 0 1
  outer loop
    vertex -28.346456 0 32.1
    vertex -29.5992042037629 -1.25274820376288 32.1
    vertex -29.330733947825 -1.47307604877945 32.1
  endloop
endfacet
facet normal 0 0 1
  outer loop
    vertex -28.346456 0 32.1
    vertex -29.330733947825 -1.47307604877945 32.1
    vertex -29.0244384423416 -1.63679440735198 32.1
  endloop
endfacet
facet normal 0 0 1
  outer loop
    vertex -28.346456 0 32.1
    vertex -29.0244384423416 -1.63679440735198 32.1
    vertex -28.692088451816 -1.73761167477486 32.1
  endloop
endfacet
facet normal 0 0 1
  outer loop
    vertex -28.346456 0 32.1
    vertex -28.692088451816 -1.73761167477486 32.1
    vertex -28.346456 -1.7716535 32.1
  endloop
endfacet
facet normal 0 0 1
  outer loop
    vertex -28.346456 0 32.1
    vertex -28.346456 -1.7716535 32.1
    vertex -28.000823548184 -1.73761167477486 32.1
  endloop
endfacet
facet normal 0 0 1
  outer loop
    vertex -28.346456 0 32.1
    vertex -28.000823548184 -1.73761167477486 32.1
    vertex -27.6684735576584 -1.63679440735198 32.1
  endloop
endfacet
facet normal 0 0 1
  outer loop
    vertex -28.346456 0 32.1
    vertex -27.6684735576584 -1.63679440735198 32.1
    vertex -27.362178052175 -1.47307604877945 32.1
  endloop
endfacet
facet normal 0 0 1
  outer loop
    vertex -28.346456 0 32.1
    vertex -27.362178052175 -1.47307604877945 32.1
    vertex -27.0937077962371 -1.25274820376288 32.1
  endloop
endfacet
facet normal 0 0 1
  outer loop
    vertex -28.346456 0 32.1
    vertex -27.0937077962371 -1.25274820376288 32.1
    vertex -26.8733799512206 -.984277947824994 32.1
  endloop
endfacet
facet normal 0 0 1
  outer loop
    vertex -28.346456 0 32.1
    vertex -26.8733799512206 -.984277947824994 32.1
    vertex -26.709661592648 -.677982442341625 32.1
  endloop
endfacet
facet normal 0 0 1
  outer loop
    vertex -28.346456 0 32.1
    vertex -26.709661592648 -.677982442341625 32.1
    vertex -26.6088443252251 -.345632451816001 32.1
  endloop
endfacet
facet normal 0 0 1
  outer loop
    vertex -28.346456 0 32.1
    vertex -26.6088443252251 -.345632451816001 32.1
    vertex -26.5748025 0 32.1
  endloop
endfacet
facet normal .995184726672207 9.80171403294572E-02 0
  outer loop
    vertex -26.5748025 0 32
    vertex -26.6088443252251 .345632451816001 32.1
    vertex -26.5748025 0 32.1
  endloop
endfacet
facet normal .956940335732192 .290284677254518 0
  outer loop
    vertex -26.6088443252251 .345632451816001 32
    vertex -26.709661592648 .677982442341625 32.1
    vertex -26.6088443252251 .345632451816001 32.1
  endloop
endfacet
facet normal .881921264348282 .471396736826134 0
  outer loop
    vertex -26.709661592648 .677982442341625 32
    vertex -26.8733799512206 .984277947824994 32.1
    vertex -26.709661592648 .677982442341625 32.1
  endloop
endfacet
facet normal .773010453362826 .634393284163537 0
  outer loop
    vertex -26.8733799512206 .984277947824994 32
    vertex -27.0937077962371 1.25274820376288 32.1
    vertex -26.8733799512206 .984277947824994 32.1
  endloop
endfacet
facet normal .634393284163635 .773010453362746 0
  outer loop
    vertex -27.0937077962371 1.25274820376288 32
    vertex -27.362178052175 1.47307604877945 32.1
    vertex -27.0937077962371 1.25274820376288 32.1
  endloop
endfacet
facet normal .471396736825942 .881921264348385 0
  outer loop
    vertex -27.362178052175 1.47307604877945 32
    vertex -27.6684735576584 1.63679440735198 32.1
    vertex -27.362178052175 1.47307604877945 32.1
  endloop
endfacet
facet normal .290284677254482 .956940335732203 0
  outer loop
    vertex -27.6684735576584 1.63679440735198 32
    vertex -28.000823548184 1.73761167477486 32.1
    vertex -27.6684735576584 1.63679440735198 32.1
  endloop
endfacet
facet normal 9.80171403295745E-02 .995184726672196 0
  outer loop
    vertex -28.000823548184 1.73761167477486 32
    vertex -28.346456 1.7716535 32.1
    vertex -28.000823548184 1.73761167477486 32.1
  endloop
endfacet
facet normal -9.80171403295735E-02 .995184726672196 0
  outer loop
    vertex -28.346456 1.7716535 32
    vertex -28.692088451816 1.73761167477486 32.1
    vertex -28.346456 1.7716535 32.1
  endloop
endfacet
facet normal -.290284677254482 .956940335732203 0
  outer loop
    vertex -28.692088451816 1.73761167477486 32
    vertex -29.0244384423416 1.63679440735198 32.1
    vertex -28.692088451816 1.73761167477486 32.1
  endloop
endfacet
facet normal -.471396736825946 .881921264348382 0
  outer loop
    vertex -29.0244384423416 1.63679440735198 32
    vertex -29.330733947825 1.47307604877945 32.1
    vertex -29.0244384423416 1.63679440735198 32.1
  endloop
endfacet
facet normal -.634393284163635 .773010453362746 0
  outer loop
    vertex -29.330733947825 1.47307604877945 32
    vertex -29.5992042037629 1.25274820376288 32.1
    vertex -29.330733947825 1.47307604877945 32.1
  endloop
endfacet
facet normal -.773010453362826 .634393284163537 0
  outer loop
    vertex -29.5992042037629 1.25274820376288 32
    vertex -29.8195320487794 .984277947824994 32.1
    vertex -29.5992042037629 1.25274820376288 32.1
  endloop
endfacet
facet normal -.881921264348282 .471396736826134 0
  outer loop
    vertex -29.8195320487794 .984277947824994 32
    vertex -29.983250407352 .677982442341625 32.1
    vertex -29.8195320487794 .984277947824994 32.1
  endloop
endfacet
facet normal -.956940335732192 .290284677254518 0
  outer loop
    vertex -29.983250407352 .677982442341625 32
    vertex -30.0840676747749 .345632451816001 32.1
    vertex -29.983250407352 .677982442341625 32.1
  endloop
endfacet
facet normal -.995184726672207 9.80171403294572E-02 0
  outer loop
    vertex -30.0840676747749 .345632451816001 32
    vertex -30.1181095 0 32.1
    vertex -30.0840676747749 .345632451816001 32.1
  endloop
endfacet
facet normal -.995184726672207 -9.80171403294572E-02 0
  outer loop
    vertex -30.1181095 0 32
    vertex -30.0840676747749 -.345632451816001 32.1
    vertex -30.1181095 0 32.1
  endloop
endfacet
facet normal -.956940335732192 -.290284677254518 0
  outer loop
    vertex -30.0840676747749 -.345632451816001 32
    vertex -29.983250407352 -.677982442341625 32.1
    vertex -30.0840676747749 -.345632451816001 32.1
  endloop
endfacet
facet normal -.881921264348282 -.471396736826134 0
  outer loop
    vertex -29.983250407352 -.677982442341625 32
    vertex -29.8195320487794 -.984277947824994 32.1
    vertex -29.983250407352 -.677982442341625 32.1
  endloop
endfacet
facet normal -.773010453362826 -.634393284163537 0
  outer loop
    vertex -29.8195320487794 -.984277947824994 32
    vertex -29.5992042037629 -1.25274820376288 32.1
    vertex -29.8195320487794 -.984277947824994 32.1
  endloop
endfacet
facet normal -.634393284163635 -.773010453362746 0
  outer loop
    vertex -29.5992042037629 -1.25274820376288 32
    vertex -29.330733947825 -1.47307604877945 32.1
    vertex -29.5992042037629 -1.25274820376288 32.1
  endloop
endfacet
facet normal -.471396736825946 -.881921264348382 0
  outer loop
    vertex -29.330733947825 -1.47307604877945 32
    vertex -29.0244384423416 -1.63679440735198 32.1
    vertex -29.330733947825 -1.47307604877945 32.1
  endloop
endfacet
facet normal -.290284677254482 -.956940335732203 0
  outer loop
    vertex -29.0244384423416 -1.63679440735198 32
    vertex -28.692088451816 -1.73761167477486 32.1
    vertex -29.0244384423416 -1.63679440735198 32.1
  endloop
endfacet
facet normal -9.80171403295735E-02 -.995184726672196 0
  outer loop
    vertex -28.692088451816 -1.73761167477486 32
    vertex -28.346456 -1.7716535 32.1
    vertex -28.692088451816 -1.73761167477486 32.1
  endloop
endfacet
facet normal 9.80171403295745E-02 -.995184726672196 0
  outer loop
    vertex -28.346456 -1.7716535 32
    vertex -28.000823548184 -1.73761167477486 32.1
    vertex -28.346456 -1.7716535 32.1
  endloop
endfacet
facet normal .290284677254482 -.956940335732203 0
  outer loop
    vertex -28.000823548184 -1.73761167477486 32
    vertex -27.6684735576584 -1.63679440735198 32.1
    vertex -28.000823548184 -1.73761167477486 32.1
  endloop
endfacet
facet normal .471396736825942 -.881921264348385 0
  outer loop
    vertex -27.6684735576584 -1.63679440735198 32
    vertex -27.362178052175 -1.47307604877945 32.1
    vertex -27.6684735576584 -1.63679440735198 32.1
  endloop
endfacet
facet normal .634393284163635 -.773010453362746 0
  outer loop
    vertex -27.362178052175 -1.47307604877945 32
    vertex -27.0937077962371 -1.25274820376288 32.1
    vertex -27.362178052175 -1.47307604877945 32.1
  endloop
endfacet
facet normal .773010453362826 -.634393284163537 0
  outer loop
    vertex -27.0937077962371 -1.25274820376288 32
    vertex -26.8733799512206 -.984277947824994 32.1
    vertex -27.0937077962371 -1.25274820376288 32.1
  endloop
endfacet
facet normal .881921264348282 -.471396736826134 0
  outer loop
    vertex -26.8733799512206 -.984277947824994 32
    vertex -26.709661592648 -.677982442341625 32.1
    vertex -26.8733799512206 -.984277947824994 32.1
  endloop
endfacet
facet normal .956940335732192 -.290284677254518 0
  outer loop
    vertex -26.709661592648 -.677982442341625 32
    vertex -26.6088443252251 -.345632451816001 32.1
    vertex -26.709661592648 -.677982442341625 32.1
  endloop
endfacet
facet normal .995184726672207 -9.80171403294572E-02 0
  outer loop
    vertex -26.6088443252251 -.345632451816001 32
    vertex -26.5748025 0 32.1
    vertex -26.6088443252251 -.345632451816001 32.1
  endloop
endfacet
facet normal .995184726672207 9.80171403294572E-02 0
  outer loop
    vertex -26.6088443252251 .345632451816001 32
    vertex -26.6088443252251 .345632451816001 32.1
    vertex -26.5748025 0 32
  endloop
endfacet
facet normal .956940335732192 .290284677254518 0
  outer loop
    vertex -26.709661592648 .677982442341625 32
    vertex -26.709661592648 .677982442341625 32.1
    vertex -26.6088443252251 .345632451816001 32
  endloop
endfacet
facet normal .881921264348282 .471396736826134 0
  outer loop
    vertex -26.8733799512206 .984277947824994 32
    vertex -26.8733799512206 .984277947824994 32.1
    vertex -26.709661592648 .677982442341625 32
  endloop
endfacet
facet normal .773010453362826 .634393284163537 0
  outer loop
    vertex -27.0937077962371 1.25274820376288 32
    vertex -27.0937077962371 1.25274820376288 32.1
    vertex -26.8733799512206 .984277947824994 32
  endloop
endfacet
facet normal .634393284163635 .773010453362746 0
  outer loop
    vertex -27.362178052175 1.47307604877945 32
    vertex -27.362178052175 1.47307604877945 32.1
    vertex -27.0937077962371 1.25274820376288 32
  endloop
endfacet
facet normal .471396736825942 .881921264348385 0
  outer loop
    vertex -27.6684735576584 1.63679440735198 32
    vertex -27.6684735576584 1.63679440735198 32.1
    vertex -27.362178052175 1.47307604877945 32
  endloop
endfacet
facet normal .290284677254482 .956940335732203 0
  outer loop
    vertex -28.000823548184 1.73761167477486 32
    vertex -28.000823548184 1.73761167477486 32.1
    vertex -27.6684735576584 1.63679440735198 32
  endloop
endfacet
facet normal 9.80171403295745E-02 .995184726672196 0
  outer loop
    vertex -28.346456 1.7716535 32
    vertex -28.346456 1.7716535 32.1
    vertex -28.000823548184 1.73761167477486 32
  endloop
endfacet
facet normal -9.80171403295735E-02 .995184726672196 0
  outer loop
    vertex -28.692088451816 1.73761167477486 32
    vertex -28.692088451816 1.73761167477486 32.1
    vertex -28.346456 1.7716535 32
  endloop
endfacet
facet normal -.290284677254482 .956940335732203 0
  outer loop
    vertex -29.0244384423416 1.63679440735198 32
    vertex -29.0244384423416 1.63679440735198 32.1
    vertex -28.692088451816 1.73761167477486 32
  endloop
endfacet
facet normal -.471396736825946 .881921264348382 0
  outer loop
    vertex -29.330733947825 1.47307604877945 32
    vertex -29.330733947825 1.47307604877945 32.1
    vertex -29.0244384423416 1.63679440735198 32
  endloop
endfacet
facet normal -.634393284163635 .773010453362746 0
  outer loop
    vertex -29.5992042037629 1.25274820376288 32
    vertex -29.5992042037629 1.25274820376288 32.1
    vertex -29.330733947825 1.47307604877945 32
  endloop
endfacet
facet normal -.773010453362826 .634393284163537 0
  outer loop
    vertex -29.8195320487794 .984277947824994 32
    vertex -29.8195320487794 .984277947824994 32.1
    vertex -29.5992042037629 1.25274820376288 32
  endloop
endfacet
facet normal -.881921264348282 .471396736826134 0
  outer loop
    vertex -29.983250407352 .677982442341625 32
    vertex -29.983250407352 .677982442341625 32.1
    vertex -29.8195320487794 .984277947824994 32
  endloop
endfacet
facet normal -.956940335732192 .290284677254518 0
  outer loop
    vertex -30.0840676747749 .345632451816001 32
    vertex -30.0840676747749 .345632451816001 32.1
    vertex -29.983250407352 .677982442341625 32
  endloop
endfacet
facet normal -.995184726672207 9.80171403294572E-02 0
  outer loop
    vertex -30.1181095 0 32
    vertex -30.1181095 0 32.1
    vertex -30.0840676747749 .345632451816001 32
  endloop
endfacet
facet normal -.995184726672207 -9.80171403294572E-02 0
  outer loop
    vertex -30.0840676747749 -.345632451816001 32
    vertex -30.0840676747749 -.345632451816001 32.1
    vertex -30.1181095 0 32
  endloop
endfacet
facet normal -.956940335732192 -.290284677254518 0
  outer loop
    vertex -29.983250407352 -.677982442341625 32
    vertex -29.983250407352 -.677982442341625 32.1
    vertex -30.0840676747749 -.345632451816001 32
  endloop
endfacet
facet normal -.881921264348282 -.471396736826134 0
  outer loop
    vertex -29.8195320487794 -.984277947824994 32
    vertex -29.8195320487794 -.984277947824994 32.1
    vertex -29.983250407352 -.677982442341625 32
  endloop
endfacet
facet normal -.773010453362826 -.634393284163537 0
  outer loop
    vertex -29.5992042037629 -1.25274820376288 32
    vertex -29.5992042037629 -1.25274820376288 32.1
    vertex -29.8195320487794 -.984277947824994 32
  endloop
endfacet
facet normal -.634393284163635 -.773010453362746 0
  outer loop
    vertex -29.330733947825 -1.47307604877945 32
    vertex -29.330733947825 -1.47307604877945 32.1
    vertex -29.5992042037629 -1.25274820376288 32
  endloop
endfacet
facet normal -.471396736825946 -.881921264348382 0
  outer loop
    vertex -29.0244384423416 -1.63679440735198 32
    vertex -29.0244384423416 -1.63679440735198 32.1
    vertex -29.330733947825 -1.47307604877945 32
  endloop
endfacet
facet normal -.290284677254482 -.956940335732203 0
  outer loop
    vertex -28.692088451816 -1.73761167477486 32
    vertex -28.692088451816 -1.73761167477486 32.1
    vertex -29.0244384423416 -1.63679440735198 32
  endloop
endfacet
facet normal -9.80171403295735E-02 -.995184726672196 0
  outer loop
    vertex -28.346456 -1.7716535 32
    vertex -28.346456 -1.7716535 32.1
    vertex -28.692088451816 -1.73761167477486 32
  endloop
endfacet
facet normal 9.80171403295745E-02 -.995184726672196 0
  outer loop
    vertex -28.000823548184 -1.73761167477486 32
    vertex -28.000823548184 -1.73761167477486 32.1
    vertex -28.346456 -1.7716535 32
  endloop
endfacet
facet normal .290284677254482 -.956940335732203 0
  outer loop
    vertex -27.6684735576584 -1.63679440735198 32
    vertex -27.6684735576584 -1.63679440735198 32.1
    vertex -28.000823548184 -1.73761167477486 32
  endloop
endfacet
facet normal .471396736825942 -.881921264348385 0
  outer loop
    vertex -27.362178052175 -1.47307604877945 32
    vertex -27.362178052175 -1.47307604877945 32.1
    vertex -27.6684735576584 -1.63679440735198 32
  endloop
endfacet
facet normal .634393284163635 -.773010453362746 0
  outer loop
    vertex -27.0937077962371 -1.25274820376288 32
    vertex -27.0937077962371 -1.25274820376288 32.1
    vertex -27.362178052175 -1.47307604877945 32
  endloop
endfacet
facet normal .773010453362826 -.634393284163537 0
  outer loop
    vertex -26.8733799512206 -.984277947824994 32
    vertex -26.8733799512206 -.984277947824994 32.1
    vertex -27.0937077962371 -1.25274820376288 32
  endloop
endfacet
facet normal .881921264348282 -.471396736826134 0
  outer loop
    vertex -26.709661592648 -.677982442341625 32
    vertex -26.709661592648 -.677982442341625 32.1
    vertex -26.8733799512206 -.984277947824994 32
  endloop
endfacet
facet normal .956940335732192 -.290284677254518 0
  outer loop
    vertex -26.6088443252251 -.345632451816001 32
    vertex -26.6088443252251 -.345632451816001 32.1
    vertex -26.709661592648 -.677982442341625 32
  endloop
endfacet
facet normal .995184726672207 -9.80171403294572E-02 0
  outer loop
    vertex -26.5748025 0 32
    vertex -26.5748025 0 32.1
    vertex -26.6088443252251 -.345632451816001 32
  endloop
endfacet
facet normal 0 0 1
  outer loop
    vertex 35.43307 27.559055 32
    vertex -35.43307 -27.559055 32
    vertex 35.43307 -27.559055 32
  endloop
endfacet
facet normal 0 0 1
  outer loop
    vertex 35.43307 27.559055 32
    vertex -35.43307 27.559055 32
    vertex -35.43307 -27.559055 32
  endloop
endfacet
facet normal 0 0 -1
  outer loop
    vertex -32.8448795489748 -24.9708645489748 0
    vertex 32.8448795489748 24.9708645489748 0
    vertex 32.8448795489748 -24.9708645489748 0
  endloop
endfacet
facet normal 0 0 -1
  outer loop
    vertex 32.8448795489748 24.9708645489748 0
    vertex -32.8448795489748 -24.9708645489748 0
    vertex -32.8448795489748 24.9708645489748 0
  endloop
endfacet
facet normal 1 0 0
  outer loop
    vertex 35.43307 27.559055 32
    vertex 35.43307 -27.559055 28.8571428571429
    vertex 35.43307 27.559055 28.8571428571429
  endloop
endfacet
facet normal 0 -1 0
  outer loop
    vertex 35.43307 -27.559055 32
    vertex -35.43307 -27.559055 28.8571428571429
    vertex 35.43307 -27.559055 28.8571428571429
  endloop
endfacet
facet normal -1 0 0
  outer loop
    vertex -35.43307 -27.559055 32
    vertex -35.43307 27.559055 28.8571428571429
    vertex -35.43307 -27.559055 28.8571428571429
  endloop
endfacet
facet normal 0 1 0
  outer loop
    vertex -35.43307 27.559055 32
    vertex 35.43307 27.559055 28.8571428571429
    vertex -35.43307 27.559055 28.8571428571429
  endloop
endfacet
facet normal 1 0 0
  outer loop
    vertex 35.43307 27.559055 28.8571428571429
    vertex 35.43307 -27.559055 16.8571428571429
    vertex 35.43307 27.559055 16.8571428571429
  endloop
endfacet
facet normal 0 -1 0
  outer loop
    vertex 35.43307 -27.559055 28.8571428571429
    vertex -35.43307 -27.559055 16.8571428571429
    vertex 35.43307 -27.559055 16.8571428571429
  endloop
endfacet
facet normal -1 0 0
  outer loop
    vertex -35.43307 -27.559055 28.8571428571429
    vertex -35.43307 27.559055 16.8571428571429
    vertex -35.43307 -27.559055 16.8571428571429
  endloop
endfacet
facet normal 0 1 0
  outer loop
    vertex -35.43307 27.559055 28.8571428571429
    vertex 35.43307 27.559055 16.8571428571429
    vertex -35.43307 27.559055 16.8571428571429
  endloop
endfacet
facet normal .988417618119243 0 -.151758400727873
  outer loop
    vertex 35.43307 27.559055 16.8571428571429
    vertex 32.8448795489748 -24.9708645489748 0
    vertex 32.8448795489748 24.9708645489748 0
  endloop
endfacet
facet normal 0 -.988417618119243 -.151758400727873
  outer loop
    vertex 35.43307 -27.559055 16.8571428571429
    vertex -32.8448795489748 -24.9708645489748 0
    vertex 32.8448795489748 -24.9708645489748 0
  endloop
endfacet
facet normal -.988417618119243 0 -.151758400727873
  outer loop
    vertex -35.43307 -27.559055 16.8571428571429
    vertex -32.8448795489748 24.9708645489748 0
    vertex -32.8448795489748 -24.9708645489748 0
  endloop
endfacet
facet normal 0 .988417618119243 -.151758400727873
  outer loop
    vertex -35.43307 27.559055 16.8571428571429
    vertex 32.8448795489748 24.9708645489748 0
    vertex -32.8448795489748 24.9708645489748 0
  endloop
endfacet
facet normal 1 0 0
  outer loop
    vertex 35.43307 27.559055 32
    vertex 35.43307 -27.559055 32
    vertex 35.43307 -27.559055 28.8571428571429
  endloop
endfacet
facet normal 0 -1 0
  outer loop
    vertex 35.43307 -27.559055 32
    vertex -35.43307 -27.559055 32
    vertex -35.43307 -27.559055 28.8571428571429
  endloop
endfacet
facet normal -1 0 0
  outer loop
    vertex -35.43307 -27.559055 32
    vertex -35.43307 27.559055 32
    vertex -35.43307 27.559055 28.8571428571429
  endloop
endfacet
facet normal 0 1 0
  outer loop
    vertex -35.43307 27.559055 32
    vertex 35.43307 27.559055 32
    vertex 35.43307 27.559055 28.8571428571429
  endloop
endfacet
facet normal 1 0 0
  outer loop
    vertex 35.43307 27.559055 28.8571428571429
    vertex 35.43307 -27.559055 28.8571428571429
    vertex 35.43307 -27.559055 16.8571428571429
  endloop
endfacet
facet normal 0 -1 0
  outer loop
    vertex 35.43307 -27.559055 28.8571428571429
    vertex -35.43307 -27.559055 28.8571428571429
    vertex -35.43307 -27.559055 16.8571428571429
  endloop
endfacet
facet normal -1 0 0
  outer loop
    vertex -35.43307 -27.559055 28.8571428571429
    vertex -35.43307 27.559055 28.8571428571429
    vertex -35.43307 27.559055 16.8571428571429
  endloop
endfacet
facet normal 0 1 0
  outer loop
    vertex -35.43307 27.559055 28.8571428571429
    vertex 35.43307 27.559055 28.8571428571429
    vertex 35.43307 27.559055 16.8571428571429
  endloop
endfacet
facet normal .988417618119243 0 -.151758400727873
  outer loop
    vertex 35.43307 27.559055 16.8571428571429
    vertex 35.43307 -27.559055 16.8571428571429
    vertex 32.8448795489748 -24.9708645489748 0
  endloop
endfacet
facet normal 0 -.988417618119243 -.151758400727873
  outer loop
    vertex 35.43307 -27.559055 16.8571428571429
    vertex -35.43307 -27.559055 16.8571428571429
    vertex -32.8448795489748 -24.9708645489748 0
  endloop
endfacet
facet normal -.988417618119243 0 -.151758400727873
  outer loop
    vertex -35.43307 -27.559055 16.8571428571429
    vertex -35.43307 27.559055 16.8571428571429
    vertex -32.8448795489748 24.9708645489748 0
  endloop
endfacet
facet normal 0 .988417618119243 -.151758400727873
  outer loop
    vertex -35.43307 27.559055 16.8571428571429
    vertex 35.43307 27.559055 16.8571428571429
    vertex 32.8448795489748 24.9708645489748 0
  endloop
endfacet
facet normal -1 0 0
  outer loop
    vertex -53.1496 6.889765 10
    vertex -53.1496 6.889765 0
    vertex -53.1496 -6.889765 0
  endloop
endfacet
facet normal -1 0 0
  outer loop
    vertex -53.1496 6.889765 10
    vertex -53.1496 -6.889765 0
    vertex -53.1496 -6.889765 10
  endloop
endfacet
facet normal 1 0 0
  outer loop
    vertex -35.43307 -6.889765 27.8571428571429
    vertex -35.43307 -6.889765 17.8571428571429
    vertex -35.43307 6.88976499999999 17.8571428571429
  endloop
endfacet
facet normal 1 0 0
  outer loop
    vertex -35.43307 -6.889765 27.8571428571429
    vertex -35.43307 6.88976499999999 17.8571428571429
    vertex -35.43307 6.88976499999999 27.8571428571429
  endloop
endfacet
facet normal 0 1 -2.04281036531029E-15
  outer loop
    vertex -35.43307 6.88976499999999 17.8571428571429
    vertex -37.0954416999237 6.88976499999999 17.8571428571429
    vertex -42.0954416999237 6.88976500000001 27.8571428571429
  endloop
endfacet
facet normal 4.94079450466807E-16 1 2.47039725233404E-16
  outer loop
    vertex -37.0954416999237 6.88976499999999 17.8571428571429
    vertex -47.94094225 6.889765 0
    vertex -52.94094225 6.889765 10
  endloop
endfacet
facet normal 0 1 0
  outer loop
    vertex -47.94094225 6.889765 0
    vertex -53.1496 6.889765 0
    vertex -53.1496 6.889765 10
  endloop
endfacet
facet normal 3.06619092617376E-15 1 0
  outer loop
    vertex -35.43307 6.88976499999999 17.8571428571429
    vertex -42.0954416999237 6.88976500000001 27.8571428571429
    vertex -35.43307 6.88976499999999 27.8571428571429
  endloop
endfacet
facet normal 1.30578140480514E-15 1 -1.38991966290772E-15
  outer loop
    vertex -37.0954416999237 6.88976499999999 17.8571428571429
    vertex -52.94094225 6.889765 10
    vertex -42.0954416999237 6.88976500000001 27.8571428571429
  endloop
endfacet
facet normal 0 1 0
  outer loop
    vertex -47.94094225 6.889765 0
    vertex -53.1496 6.889765 10
    vertex -52.94094225 6.889765 10
  endloop
endfacet
facet normal 0 -1 0
  outer loop
    vertex -35.43307 -6.889765 17.8571428571429
    vertex -42.0954416999237 -6.889765 27.8571428571429
    vertex -37.0954416999237 -6.889765 17.8571428571429
  endloop
endfacet
facet normal 0 -1 0
  outer loop
    vertex -37.0954416999237 -6.889765 17.8571428571429
    vertex -52.94094225 -6.889765 10
    vertex -47.94094225 -6.889765 0
  endloop
endfacet
facet normal 0 -1 0
  outer loop
    vertex -47.94094225 -6.889765 0
    vertex -53.1496 -6.889765 10
    vertex -53.1496 -6.889765 0
  endloop
endfacet
facet normal 0 -1 0
  outer loop
    vertex -35.43307 -6.889765 17.8571428571429
    vertex -35.43307 -6.889765 27.8571428571429
    vertex -42.0954416999237 -6.889765 27.8571428571429
  endloop
endfacet
facet normal 0 -1 0
  outer loop
    vertex -37.0954416999237 -6.889765 17.8571428571429
    vertex -42.0954416999237 -6.889765 27.8571428571429
    vertex -52.94094225 -6.889765 10
  endloop
endfacet
facet normal 0 -1 0
  outer loop
    vertex -47.94094225 -6.889765 0
    vertex -52.94094225 -6.889765 10
    vertex -53.1496 -6.889765 10
  endloop
endfacet
facet normal 0 0 1
  outer loop
    vertex -35.43307 6.88976499999999 27.8571428571429
    vertex -42.0954416999237 6.88976500000001 27.8571428571429
    vertex -42.0954416999237 -6.889765 27.8571428571429
  endloop
endfacet
facet normal -.854709711371953 0 .519106260111043
  outer loop
    vertex -42.0954416999237 6.88976500000001 27.8571428571429
    vertex -52.94094225 6.889765 10
    vertex -52.94094225 -6.889765 10
  endloop
endfacet
facet normal 0 0 1
  outer loop
    vertex -52.94094225 6.889765 10
    vertex -53.1496 6.889765 10
    vertex -53.1496 -6.889765 10
  endloop
endfacet
facet normal 0 0 1
  outer loop
    vertex -35.43307 6.88976499999999 27.8571428571429
    vertex -42.0954416999237 -6.889765 27.8571428571429
    vertex -35.43307 -6.889765 27.8571428571429
  endloop
endfacet
facet normal -.854709711371953 0 .519106260111043
  outer loop
    vertex -42.0954416999237 6.88976500000001 27.8571428571429
    vertex -52.94094225 -6.889765 10
    vertex -42.0954416999237 -6.889765 27.8571428571429
  endloop
endfacet
facet normal 0 0 1
  outer loop
    vertex -52.94094225 6.889765 10
    vertex -53.1496 -6.889765 10
    vertex -52.94094225 -6.889765 10
  endloop
endfacet
facet normal 0 0 -1
  outer loop
    vertex -35.43307 6.88976499999999 17.8571428571429
    vertex -37.0954416999237 -6.889765 17.8571428571429
    vertex -37.0954416999237 6.88976499999999 17.8571428571429
  endloop
endfacet
facet normal .854709711371953 0 -.519106260111043
  outer loop
    vertex -37.0954416999237 6.88976499999999 17.8571428571429
    vertex -47.94094225 -6.889765 0
    vertex -47.94094225 6.889765 0
  endloop
endfacet
facet normal 0 0 -1
  outer loop
    vertex -47.94094225 6.889765 0
    vertex -53.1496 -6.889765 0
    vertex -53.1496 6.889765 0
  endloop
endfacet
facet normal 0 0 -1
  outer loop
    vertex -35.43307 6.88976499999999 17.8571428571429
    vertex -35.43307 -6.889765 17.8571428571429
    vertex -37.0954416999237 -6.889765 17.8571428571429
  endloop
endfacet
facet normal .854709711371953 0 -.519106260111043
  outer loop
    vertex -37.0954416999237 6.88976499999999 17.8571428571429
    vertex -37.0954416999237 -6.889765 17.8571428571429
    vertex -47.94094225 -6.889765 0
  endloop
endfacet
facet normal 0 0 -1
  outer loop
    vertex -47.94094225 6.889765 0
    vertex -47.94094225 -6.889765 0
    vertex -53.1496 -6.889765 0
  endloop
endfacet
facet normal 1 0 0
  outer loop
    vertex 53.1496 -6.889765 10
    vertex 53.1496 -6.889765 0
    vertex 53.1496 6.889765 0
  endloop
endfacet
facet normal 1 0 0
  outer loop
    vertex 53.1496 -6.889765 10
    vertex 53.1496 6.889765 0
    vertex 53.1496 6.889765 10
  endloop
endfacet
facet normal -1 0 0
  outer loop
    vertex 35.43307 6.889765 27.8571428571429
    vertex 35.43307 6.889765 17.8571428571429
    vertex 35.43307 -6.889765 17.8571428571429
  endloop
endfacet
facet normal -1 0 0
  outer loop
    vertex 35.43307 6.889765 27.8571428571429
    vertex 35.43307 -6.889765 17.8571428571429
    vertex 35.43307 -6.889765 27.8571428571429
  endloop
endfacet
facet normal 0 -1 0
  outer loop
    vertex 35.43307 -6.889765 17.8571428571429
    vertex 37.0954416999237 -6.889765 17.8571428571429
    vertex 42.0954416999237 -6.889765 27.8571428571429
  endloop
endfacet
facet normal 0 -1 0
  outer loop
    vertex 37.0954416999237 -6.889765 17.8571428571429
    vertex 47.94094225 -6.889765 0
    vertex 52.94094225 -6.889765 10
  endloop
endfacet
facet normal 0 -1 0
  outer loop
    vertex 47.94094225 -6.889765 0
    vertex 53.1496 -6.889765 0
    vertex 53.1496 -6.889765 10
  endloop
endfacet
facet normal 0 -1 0
  outer loop
    vertex 35.43307 -6.889765 17.8571428571429
    vertex 42.0954416999237 -6.889765 27.8571428571429
    vertex 35.43307 -6.889765 27.8571428571429
  endloop
endfacet
facet normal 0 -1 0
  outer loop
    vertex 37.0954416999237 -6.889765 17.8571428571429
    vertex 52.94094225 -6.889765 10
    vertex 42.0954416999237 -6.889765 27.8571428571429
  endloop
endfacet
facet normal 0 -1 0
  outer loop
    vertex 47.94094225 -6.889765 0
    vertex 53.1496 -6.889765 10
    vertex 52.94094225 -6.889765 10
  endloop
endfacet
facet normal 0 1 0
  outer loop
    vertex 35.43307 6.889765 17.8571428571429
    vertex 42.0954416999237 6.889765 27.8571428571429
    vertex 37.0954416999237 6.889765 17.8571428571429
  endloop
endfacet
facet normal 0 1 0
  outer loop
    vertex 37.0954416999237 6.889765 17.8571428571429
    vertex 52.94094225 6.889765 10
    vertex 47.94094225 6.889765 0
  endloop
endfacet
facet normal 0 1 0
  outer loop
    vertex 47.94094225 6.889765 0
    vertex 53.1496 6.889765 10
    vertex 53.1496 6.889765 0
  endloop
endfacet
facet normal 0 1 0
  outer loop
    vertex 35.43307 6.889765 17.8571428571429
    vertex 35.43307 6.889765 27.8571428571429
    vertex 42.0954416999237 6.889765 27.8571428571429
  endloop
endfacet
facet normal 0 1 0
  outer loop
    vertex 37.0954416999237 6.889765 17.8571428571429
    vertex 42.0954416999237 6.889765 27.8571428571429
    vertex 52.94094225 6.889765 10
  endloop
endfacet
facet normal 0 1 0
  outer loop
    vertex 47.94094225 6.889765 0
    vertex 52.94094225 6.889765 10
    vertex 53.1496 6.889765 10
  endloop
endfacet
facet normal 0 0 1
  outer loop
    vertex 35.43307 -6.889765 27.8571428571429
    vertex 42.0954416999237 -6.889765 27.8571428571429
    vertex 42.0954416999237 6.889765 27.8571428571429
  endloop
endfacet
facet normal .854709711371953 0 .519106260111043
  outer loop
    vertex 42.0954416999237 -6.889765 27.8571428571429
    vertex 52.94094225 -6.889765 10
    vertex 52.94094225 6.889765 10
  endloop
endfacet
facet normal 0 0 1
  outer loop
    vertex 52.94094225 -6.889765 10
    vertex 53.1496 -6.889765 10
    vertex 53.1496 6.889765 10
  endloop
endfacet
facet normal 0 0 1
  outer loop
    vertex 35.43307 -6.889765 27.8571428571429
    vertex 42.0954416999237 6.889765 27.8571428571429
    vertex 35.43307 6.889765 27.8571428571429
  endloop
endfacet
facet normal .854709711371953 0 .519106260111043
  outer loop
    vertex 42.0954416999237 -6.889765 27.8571428571429
    vertex 52.94094225 6.889765 10
    vertex 42.0954416999237 6.889765 27.8571428571429
  endloop
endfacet
facet normal 0 0 1
  outer loop
    vertex 52.94094225 -6.889765 10
    vertex 53.1496 6.889765 10
    vertex 52.94094225 6.889765 10
  endloop
endfacet
facet normal 0 0 -1
  outer loop
    vertex 35.43307 -6.889765 17.8571428571429
    vertex 37.0954416999237 6.889765 17.8571428571429
    vertex 37.0954416999237 -6.889765 17.8571428571429
  endloop
endfacet
facet normal -.854709711371953 0 -.519106260111043
  outer loop
    vertex 37.0954416999237 -6.889765 17.8571428571429
    vertex 47.94094225 6.889765 0
    vertex 47.94094225 -6.889765 0
  endloop
endfacet
facet normal 0 0 -1
  outer loop
    vertex 47.94094225 -6.889765 0
    vertex 53.1496 6.889765 0
    vertex 53.1496 -6.889765 0
  endloop
endfacet
facet normal 0 0 -1
  outer loop
    vertex 35.43307 -6.889765 17.8571428571429
    vertex 35.43307 6.889765 17.8571428571429
    vertex 37.0954416999237 6.889765 17.8571428571429
  endloop
endfacet
facet normal -.854709711371953 0 -.519106260111043
  outer loop
    vertex 37.0954416999237 -6.889765 17.8571428571429
    vertex 37.0954416999237 6.889765 17.8571428571429
    vertex 47.94094225 6.889765 0
  endloop
endfacet
facet normal 0 0 -1
  outer loop
    vertex 47.94094225 -6.889765 0
    vertex 47.94094225 6.889765 0
    vertex 53.1496 6.889765 0
  endloop
endfacet
endsolid SOD323-L
