solid SOT23-L
facet normal 0 0 -1
  outer loop
    vertex -37.401575 -14.1166712367981 43.30709
    vertex -34.5082584228105 -13.5411547868505 43.30709
    vertex -34.451575 -14.1166712367981 43.30709
  endloop
endfacet
facet normal 0 0 -1
  outer loop
    vertex -37.401575 -14.1166712367981 43.30709
    vertex -34.6761303790917 -12.9877551113211 43.30709
    vertex -34.5082584228105 -13.5411547868505 43.30709
  endloop
endfacet
facet normal 0 0 -1
  outer loop
    vertex -37.401575 -14.1166712367981 43.30709
    vertex -34.9487396437075 -12.4777390493903 43.30709
    vertex -34.6761303790917 -12.9877551113211 43.30709
  endloop
endfacet
facet normal 0 0 -1
  outer loop
    vertex -37.401575 -14.1166712367981 43.30709
    vertex -35.3156099954997 -12.0307062322978 43.30709
    vertex -34.9487396437075 -12.4777390493903 43.30709
  endloop
endfacet
facet normal 0 0 -1
  outer loop
    vertex -37.401575 -14.1166712367981 43.30709
    vertex -35.7626428125922 -11.6638358805056 43.30709
    vertex -35.3156099954997 -12.0307062322978 43.30709
  endloop
endfacet
facet normal 0 0 -1
  outer loop
    vertex -37.401575 -14.1166712367981 43.30709
    vertex -36.272658874523 -11.3912266158898 43.30709
    vertex -35.7626428125922 -11.6638358805056 43.30709
  endloop
endfacet
facet normal 0 0 -1
  outer loop
    vertex -37.401575 -14.1166712367981 43.30709
    vertex -36.8260585500524 -11.2233546596086 43.30709
    vertex -36.272658874523 -11.3912266158898 43.30709
  endloop
endfacet
facet normal 0 0 -1
  outer loop
    vertex -37.401575 -14.1166712367981 43.30709
    vertex -37.401575 -11.1666712367981 43.30709
    vertex -36.8260585500524 -11.2233546596086 43.30709
  endloop
endfacet
facet normal 0 0 -1
  outer loop
    vertex -37.401575 -14.1166712367981 43.30709
    vertex -37.9770914499476 -11.2233546596086 43.30709
    vertex -37.401575 -11.1666712367981 43.30709
  endloop
endfacet
facet normal 0 0 -1
  outer loop
    vertex -37.401575 -14.1166712367981 43.30709
    vertex -38.530491125477 -11.3912266158898 43.30709
    vertex -37.9770914499476 -11.2233546596086 43.30709
  endloop
endfacet
facet normal 0 0 -1
  outer loop
    vertex -37.401575 -14.1166712367981 43.30709
    vertex -39.0405071874078 -11.6638358805056 43.30709
    vertex -38.530491125477 -11.3912266158898 43.30709
  endloop
endfacet
facet normal 0 0 -1
  outer loop
    vertex -37.401575 -14.1166712367981 43.30709
    vertex -39.4875400045003 -12.0307062322978 43.30709
    vertex -39.0405071874078 -11.6638358805056 43.30709
  endloop
endfacet
facet normal 0 0 -1
  outer loop
    vertex -37.401575 -14.1166712367981 43.30709
    vertex -39.8544103562925 -12.4777390493903 43.30709
    vertex -39.4875400045003 -12.0307062322978 43.30709
  endloop
endfacet
facet normal 0 0 -1
  outer loop
    vertex -37.401575 -14.1166712367981 43.30709
    vertex -40.1270196209083 -12.9877551113211 43.30709
    vertex -39.8544103562925 -12.4777390493903 43.30709
  endloop
endfacet
facet normal 0 0 -1
  outer loop
    vertex -37.401575 -14.1166712367981 43.30709
    vertex -40.2948915771895 -13.5411547868505 43.30709
    vertex -40.1270196209083 -12.9877551113211 43.30709
  endloop
endfacet
facet normal 0 0 -1
  outer loop
    vertex -37.401575 -14.1166712367981 43.30709
    vertex -40.351575 -14.1166712367981 43.30709
    vertex -40.2948915771895 -13.5411547868505 43.30709
  endloop
endfacet
facet normal 0 0 -1
  outer loop
    vertex -37.401575 -14.1166712367981 43.30709
    vertex -40.2948915771895 -14.6921876867457 43.30709
    vertex -40.351575 -14.1166712367981 43.30709
  endloop
endfacet
facet normal 0 0 -1
  outer loop
    vertex -37.401575 -14.1166712367981 43.30709
    vertex -40.1270196209083 -15.2455873622751 43.30709
    vertex -40.2948915771895 -14.6921876867457 43.30709
  endloop
endfacet
facet normal 0 0 -1
  outer loop
    vertex -37.401575 -14.1166712367981 43.30709
    vertex -39.8544103562925 -15.7556034242059 43.30709
    vertex -40.1270196209083 -15.2455873622751 43.30709
  endloop
endfacet
facet normal 0 0 -1
  outer loop
    vertex -37.401575 -14.1166712367981 43.30709
    vertex -39.4875400045003 -16.2026362412984 43.30709
    vertex -39.8544103562925 -15.7556034242059 43.30709
  endloop
endfacet
facet normal 0 0 -1
  outer loop
    vertex -37.401575 -14.1166712367981 43.30709
    vertex -39.0405071874078 -16.5695065930906 43.30709
    vertex -39.4875400045003 -16.2026362412984 43.30709
  endloop
endfacet
facet normal 0 0 -1
  outer loop
    vertex -37.401575 -14.1166712367981 43.30709
    vertex -38.530491125477 -16.8421158577064 43.30709
    vertex -39.0405071874078 -16.5695065930906 43.30709
  endloop
endfacet
facet normal 0 0 -1
  outer loop
    vertex -37.401575 -14.1166712367981 43.30709
    vertex -37.9770914499476 -17.0099878139876 43.30709
    vertex -38.530491125477 -16.8421158577064 43.30709
  endloop
endfacet
facet normal 0 0 -1
  outer loop
    vertex -37.401575 -14.1166712367981 43.30709
    vertex -37.401575 -17.0666712367981 43.30709
    vertex -37.9770914499476 -17.0099878139876 43.30709
  endloop
endfacet
facet normal 0 0 -1
  outer loop
    vertex -37.401575 -14.1166712367981 43.30709
    vertex -36.8260585500524 -17.0099878139876 43.30709
    vertex -37.401575 -17.0666712367981 43.30709
  endloop
endfacet
facet normal 0 0 -1
  outer loop
    vertex -37.401575 -14.1166712367981 43.30709
    vertex -36.272658874523 -16.8421158577064 43.30709
    vertex -36.8260585500524 -17.0099878139876 43.30709
  endloop
endfacet
facet normal 0 0 -1
  outer loop
    vertex -37.401575 -14.1166712367981 43.30709
    vertex -35.7626428125922 -16.5695065930906 43.30709
    vertex -36.272658874523 -16.8421158577064 43.30709
  endloop
endfacet
facet normal 0 0 -1
  outer loop
    vertex -37.401575 -14.1166712367981 43.30709
    vertex -35.3156099954997 -16.2026362412984 43.30709
    vertex -35.7626428125922 -16.5695065930906 43.30709
  endloop
endfacet
facet normal 0 0 -1
  outer loop
    vertex -37.401575 -14.1166712367981 43.30709
    vertex -34.9487396437075 -15.7556034242059 43.30709
    vertex -35.3156099954997 -16.2026362412984 43.30709
  endloop
endfacet
facet normal 0 0 -1
  outer loop
    vertex -37.401575 -14.1166712367981 43.30709
    vertex -34.6761303790917 -15.2455873622751 43.30709
    vertex -34.9487396437075 -15.7556034242059 43.30709
  endloop
endfacet
facet normal 0 0 -1
  outer loop
    vertex -37.401575 -14.1166712367981 43.30709
    vertex -34.5082584228105 -14.6921876867457 43.30709
    vertex -34.6761303790917 -15.2455873622751 43.30709
  endloop
endfacet
facet normal 0 0 -1
  outer loop
    vertex -37.401575 -14.1166712367981 43.30709
    vertex -34.451575 -14.1166712367981 43.30709
    vertex -34.5082584228105 -14.6921876867457 43.30709
  endloop
endfacet
facet normal 0 0 1
  outer loop
    vertex -37.401575 -14.1166712367981 43.40709
    vertex -34.451575 -14.1166712367981 43.40709
    vertex -34.5082584228105 -13.5411547868505 43.40709
  endloop
endfacet
facet normal 0 0 1
  outer loop
    vertex -37.401575 -14.1166712367981 43.40709
    vertex -34.5082584228105 -13.5411547868505 43.40709
    vertex -34.6761303790917 -12.9877551113211 43.40709
  endloop
endfacet
facet normal 0 0 1
  outer loop
    vertex -37.401575 -14.1166712367981 43.40709
    vertex -34.6761303790917 -12.9877551113211 43.40709
    vertex -34.9487396437075 -12.4777390493903 43.40709
  endloop
endfacet
facet normal 0 0 1
  outer loop
    vertex -37.401575 -14.1166712367981 43.40709
    vertex -34.9487396437075 -12.4777390493903 43.40709
    vertex -35.3156099954997 -12.0307062322978 43.40709
  endloop
endfacet
facet normal 0 0 1
  outer loop
    vertex -37.401575 -14.1166712367981 43.40709
    vertex -35.3156099954997 -12.0307062322978 43.40709
    vertex -35.7626428125922 -11.6638358805056 43.40709
  endloop
endfacet
facet normal 0 0 1
  outer loop
    vertex -37.401575 -14.1166712367981 43.40709
    vertex -35.7626428125922 -11.6638358805056 43.40709
    vertex -36.272658874523 -11.3912266158898 43.40709
  endloop
endfacet
facet normal 0 0 1
  outer loop
    vertex -37.401575 -14.1166712367981 43.40709
    vertex -36.272658874523 -11.3912266158898 43.40709
    vertex -36.8260585500524 -11.2233546596086 43.40709
  endloop
endfacet
facet normal 0 0 1
  outer loop
    vertex -37.401575 -14.1166712367981 43.40709
    vertex -36.8260585500524 -11.2233546596086 43.40709
    vertex -37.401575 -11.1666712367981 43.40709
  endloop
endfacet
facet normal 0 0 1
  outer loop
    vertex -37.401575 -14.1166712367981 43.40709
    vertex -37.401575 -11.1666712367981 43.40709
    vertex -37.9770914499476 -11.2233546596086 43.40709
  endloop
endfacet
facet normal 0 0 1
  outer loop
    vertex -37.401575 -14.1166712367981 43.40709
    vertex -37.9770914499476 -11.2233546596086 43.40709
    vertex -38.530491125477 -11.3912266158898 43.40709
  endloop
endfacet
facet normal 0 0 1
  outer loop
    vertex -37.401575 -14.1166712367981 43.40709
    vertex -38.530491125477 -11.3912266158898 43.40709
    vertex -39.0405071874078 -11.6638358805056 43.40709
  endloop
endfacet
facet normal 0 0 1
  outer loop
    vertex -37.401575 -14.1166712367981 43.40709
    vertex -39.0405071874078 -11.6638358805056 43.40709
    vertex -39.4875400045003 -12.0307062322978 43.40709
  endloop
endfacet
facet normal 0 0 1
  outer loop
    vertex -37.401575 -14.1166712367981 43.40709
    vertex -39.4875400045003 -12.0307062322978 43.40709
    vertex -39.8544103562925 -12.4777390493903 43.40709
  endloop
endfacet
facet normal 0 0 1
  outer loop
    vertex -37.401575 -14.1166712367981 43.40709
    vertex -39.8544103562925 -12.4777390493903 43.40709
    vertex -40.1270196209083 -12.9877551113211 43.40709
  endloop
endfacet
facet normal 0 0 1
  outer loop
    vertex -37.401575 -14.1166712367981 43.40709
    vertex -40.1270196209083 -12.9877551113211 43.40709
    vertex -40.2948915771895 -13.5411547868505 43.40709
  endloop
endfacet
facet normal 0 0 1
  outer loop
    vertex -37.401575 -14.1166712367981 43.40709
    vertex -40.2948915771895 -13.5411547868505 43.40709
    vertex -40.351575 -14.1166712367981 43.40709
  endloop
endfacet
facet normal 0 0 1
  outer loop
    vertex -37.401575 -14.1166712367981 43.40709
    vertex -40.351575 -14.1166712367981 43.40709
    vertex -40.2948915771895 -14.6921876867457 43.40709
  endloop
endfacet
facet normal 0 0 1
  outer loop
    vertex -37.401575 -14.1166712367981 43.40709
    vertex -40.2948915771895 -14.6921876867457 43.40709
    vertex -40.1270196209083 -15.2455873622751 43.40709
  endloop
endfacet
facet normal 0 0 1
  outer loop
    vertex -37.401575 -14.1166712367981 43.40709
    vertex -40.1270196209083 -15.2455873622751 43.40709
    vertex -39.8544103562925 -15.7556034242059 43.40709
  endloop
endfacet
facet normal 0 0 1
  outer loop
    vertex -37.401575 -14.1166712367981 43.40709
    vertex -39.8544103562925 -15.7556034242059 43.40709
    vertex -39.4875400045003 -16.2026362412984 43.40709
  endloop
endfacet
facet normal 0 0 1
  outer loop
    vertex -37.401575 -14.1166712367981 43.40709
    vertex -39.4875400045003 -16.2026362412984 43.40709
    vertex -39.0405071874078 -16.5695065930906 43.40709
  endloop
endfacet
facet normal 0 0 1
  outer loop
    vertex -37.401575 -14.1166712367981 43.40709
    vertex -39.0405071874078 -16.5695065930906 43.40709
    vertex -38.530491125477 -16.8421158577064 43.40709
  endloop
endfacet
facet normal 0 0 1
  outer loop
    vertex -37.401575 -14.1166712367981 43.40709
    vertex -38.530491125477 -16.8421158577064 43.40709
    vertex -37.9770914499476 -17.0099878139876 43.40709
  endloop
endfacet
facet normal 0 0 1
  outer loop
    vertex -37.401575 -14.1166712367981 43.40709
    vertex -37.9770914499476 -17.0099878139876 43.40709
    vertex -37.401575 -17.0666712367981 43.40709
  endloop
endfacet
facet normal 0 0 1
  outer loop
    vertex -37.401575 -14.1166712367981 43.40709
    vertex -37.401575 -17.0666712367981 43.40709
    vertex -36.8260585500524 -17.0099878139876 43.40709
  endloop
endfacet
facet normal 0 0 1
  outer loop
    vertex -37.401575 -14.1166712367981 43.40709
    vertex -36.8260585500524 -17.0099878139876 43.40709
    vertex -36.272658874523 -16.8421158577064 43.40709
  endloop
endfacet
facet normal 0 0 1
  outer loop
    vertex -37.401575 -14.1166712367981 43.40709
    vertex -36.272658874523 -16.8421158577064 43.40709
    vertex -35.7626428125922 -16.5695065930906 43.40709
  endloop
endfacet
facet normal 0 0 1
  outer loop
    vertex -37.401575 -14.1166712367981 43.40709
    vertex -35.7626428125922 -16.5695065930906 43.40709
    vertex -35.3156099954997 -16.2026362412984 43.40709
  endloop
endfacet
facet normal 0 0 1
  outer loop
    vertex -37.401575 -14.1166712367981 43.40709
    vertex -35.3156099954997 -16.2026362412984 43.40709
    vertex -34.9487396437075 -15.7556034242059 43.40709
  endloop
endfacet
facet normal 0 0 1
  outer loop
    vertex -37.401575 -14.1166712367981 43.40709
    vertex -34.9487396437075 -15.7556034242059 43.40709
    vertex -34.6761303790917 -15.2455873622751 43.40709
  endloop
endfacet
facet normal 0 0 1
  outer loop
    vertex -37.401575 -14.1166712367981 43.40709
    vertex -34.6761303790917 -15.2455873622751 43.40709
    vertex -34.5082584228105 -14.6921876867457 43.40709
  endloop
endfacet
facet normal 0 0 1
  outer loop
    vertex -37.401575 -14.1166712367981 43.40709
    vertex -34.5082584228105 -14.6921876867457 43.40709
    vertex -34.451575 -14.1166712367981 43.40709
  endloop
endfacet
facet normal .995184726672192 9.80171403296096E-02 0
  outer loop
    vertex -34.451575 -14.1166712367981 43.30709
    vertex -34.5082584228105 -13.5411547868505 43.40709
    vertex -34.451575 -14.1166712367981 43.40709
  endloop
endfacet
facet normal .956940335732218 .290284677254432 0
  outer loop
    vertex -34.5082584228105 -13.5411547868505 43.30709
    vertex -34.6761303790917 -12.9877551113211 43.40709
    vertex -34.5082584228105 -13.5411547868505 43.40709
  endloop
endfacet
facet normal .881921264348345 .471396736826016 0
  outer loop
    vertex -34.6761303790917 -12.9877551113211 43.30709
    vertex -34.9487396437075 -12.4777390493903 43.40709
    vertex -34.6761303790917 -12.9877551113211 43.40709
  endloop
endfacet
facet normal .773010453362738 .634393284163644 0
  outer loop
    vertex -34.9487396437075 -12.4777390493903 43.30709
    vertex -35.3156099954997 -12.0307062322978 43.40709
    vertex -34.9487396437075 -12.4777390493903 43.40709
  endloop
endfacet
facet normal .634393284163643 .773010453362739 0
  outer loop
    vertex -35.3156099954997 -12.0307062322978 43.30709
    vertex -35.7626428125922 -11.6638358805056 43.40709
    vertex -35.3156099954997 -12.0307062322978 43.40709
  endloop
endfacet
facet normal .47139673682602 .881921264348343 0
  outer loop
    vertex -35.7626428125922 -11.6638358805056 43.30709
    vertex -36.272658874523 -11.3912266158898 43.40709
    vertex -35.7626428125922 -11.6638358805056 43.40709
  endloop
endfacet
facet normal .290284677254427 .95694033573222 0
  outer loop
    vertex -36.272658874523 -11.3912266158898 43.30709
    vertex -36.8260585500524 -11.2233546596086 43.40709
    vertex -36.272658874523 -11.3912266158898 43.40709
  endloop
endfacet
facet normal 9.80171403296066E-02 .995184726672192 0
  outer loop
    vertex -36.8260585500524 -11.2233546596086 43.30709
    vertex -37.401575 -11.1666712367981 43.40709
    vertex -36.8260585500524 -11.2233546596086 43.40709
  endloop
endfacet
facet normal -9.80171403296066E-02 .995184726672192 0
  outer loop
    vertex -37.401575 -11.1666712367981 43.30709
    vertex -37.9770914499476 -11.2233546596086 43.40709
    vertex -37.401575 -11.1666712367981 43.40709
  endloop
endfacet
facet normal -.290284677254427 .95694033573222 0
  outer loop
    vertex -37.9770914499476 -11.2233546596086 43.30709
    vertex -38.530491125477 -11.3912266158898 43.40709
    vertex -37.9770914499476 -11.2233546596086 43.40709
  endloop
endfacet
facet normal -.471396736826025 .881921264348341 0
  outer loop
    vertex -38.530491125477 -11.3912266158898 43.30709
    vertex -39.0405071874078 -11.6638358805056 43.40709
    vertex -38.530491125477 -11.3912266158898 43.40709
  endloop
endfacet
facet normal -.634393284163637 .773010453362744 0
  outer loop
    vertex -39.0405071874078 -11.6638358805056 43.30709
    vertex -39.4875400045003 -12.0307062322978 43.40709
    vertex -39.0405071874078 -11.6638358805056 43.40709
  endloop
endfacet
facet normal -.773010453362745 .634393284163636 0
  outer loop
    vertex -39.4875400045003 -12.0307062322978 43.30709
    vertex -39.8544103562925 -12.4777390493903 43.40709
    vertex -39.4875400045003 -12.0307062322978 43.40709
  endloop
endfacet
facet normal -.88192126434834 .471396736826026 0
  outer loop
    vertex -39.8544103562925 -12.4777390493903 43.30709
    vertex -40.1270196209083 -12.9877551113211 43.40709
    vertex -39.8544103562925 -12.4777390493903 43.40709
  endloop
endfacet
facet normal -.956940335732218 .290284677254432 0
  outer loop
    vertex -40.1270196209083 -12.9877551113211 43.30709
    vertex -40.2948915771895 -13.5411547868505 43.40709
    vertex -40.1270196209083 -12.9877551113211 43.40709
  endloop
endfacet
facet normal -.995184726672193 9.80171403295974E-02 0
  outer loop
    vertex -40.2948915771895 -13.5411547868505 43.30709
    vertex -40.351575 -14.1166712367981 43.40709
    vertex -40.2948915771895 -13.5411547868505 43.40709
  endloop
endfacet
facet normal -.995184726672193 -9.80171403295971E-02 0
  outer loop
    vertex -40.351575 -14.1166712367981 43.30709
    vertex -40.2948915771895 -14.6921876867457 43.40709
    vertex -40.351575 -14.1166712367981 43.40709
  endloop
endfacet
facet normal -.956940335732218 -.290284677254432 0
  outer loop
    vertex -40.2948915771895 -14.6921876867457 43.30709
    vertex -40.1270196209083 -15.2455873622751 43.40709
    vertex -40.2948915771895 -14.6921876867457 43.40709
  endloop
endfacet
facet normal -.88192126434834 -.471396736826026 0
  outer loop
    vertex -40.1270196209083 -15.2455873622751 43.30709
    vertex -39.8544103562925 -15.7556034242059 43.40709
    vertex -40.1270196209083 -15.2455873622751 43.40709
  endloop
endfacet
facet normal -.773010453362745 -.634393284163636 0
  outer loop
    vertex -39.8544103562925 -15.7556034242059 43.30709
    vertex -39.4875400045003 -16.2026362412984 43.40709
    vertex -39.8544103562925 -15.7556034242059 43.40709
  endloop
endfacet
facet normal -.634393284163639 -.773010453362742 0
  outer loop
    vertex -39.4875400045003 -16.2026362412984 43.30709
    vertex -39.0405071874078 -16.5695065930906 43.40709
    vertex -39.4875400045003 -16.2026362412984 43.40709
  endloop
endfacet
facet normal -.471396736826022 -.881921264348342 0
  outer loop
    vertex -39.0405071874078 -16.5695065930906 43.30709
    vertex -38.530491125477 -16.8421158577064 43.40709
    vertex -39.0405071874078 -16.5695065930906 43.40709
  endloop
endfacet
facet normal -.290284677254427 -.95694033573222 0
  outer loop
    vertex -38.530491125477 -16.8421158577064 43.30709
    vertex -37.9770914499476 -17.0099878139876 43.40709
    vertex -38.530491125477 -16.8421158577064 43.40709
  endloop
endfacet
facet normal -9.80171403296096E-02 -.995184726672192 0
  outer loop
    vertex -37.9770914499476 -17.0099878139876 43.30709
    vertex -37.401575 -17.0666712367981 43.40709
    vertex -37.9770914499476 -17.0099878139876 43.40709
  endloop
endfacet
facet normal 9.80171403296096E-02 -.995184726672192 0
  outer loop
    vertex -37.401575 -17.0666712367981 43.30709
    vertex -36.8260585500524 -17.0099878139876 43.40709
    vertex -37.401575 -17.0666712367981 43.40709
  endloop
endfacet
facet normal .290284677254427 -.95694033573222 0
  outer loop
    vertex -36.8260585500524 -17.0099878139876 43.30709
    vertex -36.272658874523 -16.8421158577064 43.40709
    vertex -36.8260585500524 -17.0099878139876 43.40709
  endloop
endfacet
facet normal .471396736826017 -.881921264348345 0
  outer loop
    vertex -36.272658874523 -16.8421158577064 43.30709
    vertex -35.7626428125922 -16.5695065930906 43.40709
    vertex -36.272658874523 -16.8421158577064 43.40709
  endloop
endfacet
facet normal .634393284163645 -.773010453362737 0
  outer loop
    vertex -35.7626428125922 -16.5695065930906 43.30709
    vertex -35.3156099954997 -16.2026362412984 43.40709
    vertex -35.7626428125922 -16.5695065930906 43.40709
  endloop
endfacet
facet normal .773010453362738 -.634393284163644 0
  outer loop
    vertex -35.3156099954997 -16.2026362412984 43.30709
    vertex -34.9487396437075 -15.7556034242059 43.40709
    vertex -35.3156099954997 -16.2026362412984 43.40709
  endloop
endfacet
facet normal .881921264348345 -.471396736826016 0
  outer loop
    vertex -34.9487396437075 -15.7556034242059 43.30709
    vertex -34.6761303790917 -15.2455873622751 43.40709
    vertex -34.9487396437075 -15.7556034242059 43.40709
  endloop
endfacet
facet normal .956940335732218 -.290284677254432 0
  outer loop
    vertex -34.6761303790917 -15.2455873622751 43.30709
    vertex -34.5082584228105 -14.6921876867457 43.40709
    vertex -34.6761303790917 -15.2455873622751 43.40709
  endloop
endfacet
facet normal .995184726672192 -9.80171403296093E-02 0
  outer loop
    vertex -34.5082584228105 -14.6921876867457 43.30709
    vertex -34.451575 -14.1166712367981 43.40709
    vertex -34.5082584228105 -14.6921876867457 43.40709
  endloop
endfacet
facet normal .995184726672192 9.80171403296096E-02 0
  outer loop
    vertex -34.5082584228105 -13.5411547868505 43.30709
    vertex -34.5082584228105 -13.5411547868505 43.40709
    vertex -34.451575 -14.1166712367981 43.30709
  endloop
endfacet
facet normal .956940335732218 .290284677254432 0
  outer loop
    vertex -34.6761303790917 -12.9877551113211 43.30709
    vertex -34.6761303790917 -12.9877551113211 43.40709
    vertex -34.5082584228105 -13.5411547868505 43.30709
  endloop
endfacet
facet normal .881921264348345 .471396736826016 0
  outer loop
    vertex -34.9487396437075 -12.4777390493903 43.30709
    vertex -34.9487396437075 -12.4777390493903 43.40709
    vertex -34.6761303790917 -12.9877551113211 43.30709
  endloop
endfacet
facet normal .773010453362738 .634393284163644 0
  outer loop
    vertex -35.3156099954997 -12.0307062322978 43.30709
    vertex -35.3156099954997 -12.0307062322978 43.40709
    vertex -34.9487396437075 -12.4777390493903 43.30709
  endloop
endfacet
facet normal .634393284163643 .773010453362739 0
  outer loop
    vertex -35.7626428125922 -11.6638358805056 43.30709
    vertex -35.7626428125922 -11.6638358805056 43.40709
    vertex -35.3156099954997 -12.0307062322978 43.30709
  endloop
endfacet
facet normal .47139673682602 .881921264348343 0
  outer loop
    vertex -36.272658874523 -11.3912266158898 43.30709
    vertex -36.272658874523 -11.3912266158898 43.40709
    vertex -35.7626428125922 -11.6638358805056 43.30709
  endloop
endfacet
facet normal .290284677254427 .95694033573222 0
  outer loop
    vertex -36.8260585500524 -11.2233546596086 43.30709
    vertex -36.8260585500524 -11.2233546596086 43.40709
    vertex -36.272658874523 -11.3912266158898 43.30709
  endloop
endfacet
facet normal 9.80171403296066E-02 .995184726672192 0
  outer loop
    vertex -37.401575 -11.1666712367981 43.30709
    vertex -37.401575 -11.1666712367981 43.40709
    vertex -36.8260585500524 -11.2233546596086 43.30709
  endloop
endfacet
facet normal -9.80171403296066E-02 .995184726672192 0
  outer loop
    vertex -37.9770914499476 -11.2233546596086 43.30709
    vertex -37.9770914499476 -11.2233546596086 43.40709
    vertex -37.401575 -11.1666712367981 43.30709
  endloop
endfacet
facet normal -.290284677254427 .95694033573222 0
  outer loop
    vertex -38.530491125477 -11.3912266158898 43.30709
    vertex -38.530491125477 -11.3912266158898 43.40709
    vertex -37.9770914499476 -11.2233546596086 43.30709
  endloop
endfacet
facet normal -.471396736826025 .881921264348341 0
  outer loop
    vertex -39.0405071874078 -11.6638358805056 43.30709
    vertex -39.0405071874078 -11.6638358805056 43.40709
    vertex -38.530491125477 -11.3912266158898 43.30709
  endloop
endfacet
facet normal -.634393284163637 .773010453362744 0
  outer loop
    vertex -39.4875400045003 -12.0307062322978 43.30709
    vertex -39.4875400045003 -12.0307062322978 43.40709
    vertex -39.0405071874078 -11.6638358805056 43.30709
  endloop
endfacet
facet normal -.773010453362745 .634393284163636 0
  outer loop
    vertex -39.8544103562925 -12.4777390493903 43.30709
    vertex -39.8544103562925 -12.4777390493903 43.40709
    vertex -39.4875400045003 -12.0307062322978 43.30709
  endloop
endfacet
facet normal -.88192126434834 .471396736826026 0
  outer loop
    vertex -40.1270196209083 -12.9877551113211 43.30709
    vertex -40.1270196209083 -12.9877551113211 43.40709
    vertex -39.8544103562925 -12.4777390493903 43.30709
  endloop
endfacet
facet normal -.956940335732218 .290284677254432 0
  outer loop
    vertex -40.2948915771895 -13.5411547868505 43.30709
    vertex -40.2948915771895 -13.5411547868505 43.40709
    vertex -40.1270196209083 -12.9877551113211 43.30709
  endloop
endfacet
facet normal -.995184726672193 9.80171403295974E-02 0
  outer loop
    vertex -40.351575 -14.1166712367981 43.30709
    vertex -40.351575 -14.1166712367981 43.40709
    vertex -40.2948915771895 -13.5411547868505 43.30709
  endloop
endfacet
facet normal -.995184726672193 -9.80171403295971E-02 0
  outer loop
    vertex -40.2948915771895 -14.6921876867457 43.30709
    vertex -40.2948915771895 -14.6921876867457 43.40709
    vertex -40.351575 -14.1166712367981 43.30709
  endloop
endfacet
facet normal -.956940335732218 -.290284677254432 0
  outer loop
    vertex -40.1270196209083 -15.2455873622751 43.30709
    vertex -40.1270196209083 -15.2455873622751 43.40709
    vertex -40.2948915771895 -14.6921876867457 43.30709
  endloop
endfacet
facet normal -.88192126434834 -.471396736826026 0
  outer loop
    vertex -39.8544103562925 -15.7556034242059 43.30709
    vertex -39.8544103562925 -15.7556034242059 43.40709
    vertex -40.1270196209083 -15.2455873622751 43.30709
  endloop
endfacet
facet normal -.773010453362745 -.634393284163636 0
  outer loop
    vertex -39.4875400045003 -16.2026362412984 43.30709
    vertex -39.4875400045003 -16.2026362412984 43.40709
    vertex -39.8544103562925 -15.7556034242059 43.30709
  endloop
endfacet
facet normal -.634393284163639 -.773010453362742 0
  outer loop
    vertex -39.0405071874078 -16.5695065930906 43.30709
    vertex -39.0405071874078 -16.5695065930906 43.40709
    vertex -39.4875400045003 -16.2026362412984 43.30709
  endloop
endfacet
facet normal -.471396736826022 -.881921264348342 0
  outer loop
    vertex -38.530491125477 -16.8421158577064 43.30709
    vertex -38.530491125477 -16.8421158577064 43.40709
    vertex -39.0405071874078 -16.5695065930906 43.30709
  endloop
endfacet
facet normal -.290284677254427 -.95694033573222 0
  outer loop
    vertex -37.9770914499476 -17.0099878139876 43.30709
    vertex -37.9770914499476 -17.0099878139876 43.40709
    vertex -38.530491125477 -16.8421158577064 43.30709
  endloop
endfacet
facet normal -9.80171403296096E-02 -.995184726672192 0
  outer loop
    vertex -37.401575 -17.0666712367981 43.30709
    vertex -37.401575 -17.0666712367981 43.40709
    vertex -37.9770914499476 -17.0099878139876 43.30709
  endloop
endfacet
facet normal 9.80171403296096E-02 -.995184726672192 0
  outer loop
    vertex -36.8260585500524 -17.0099878139876 43.30709
    vertex -36.8260585500524 -17.0099878139876 43.40709
    vertex -37.401575 -17.0666712367981 43.30709
  endloop
endfacet
facet normal .290284677254427 -.95694033573222 0
  outer loop
    vertex -36.272658874523 -16.8421158577064 43.30709
    vertex -36.272658874523 -16.8421158577064 43.40709
    vertex -36.8260585500524 -17.0099878139876 43.30709
  endloop
endfacet
facet normal .471396736826017 -.881921264348345 0
  outer loop
    vertex -35.7626428125922 -16.5695065930906 43.30709
    vertex -35.7626428125922 -16.5695065930906 43.40709
    vertex -36.272658874523 -16.8421158577064 43.30709
  endloop
endfacet
facet normal .634393284163645 -.773010453362737 0
  outer loop
    vertex -35.3156099954997 -16.2026362412984 43.30709
    vertex -35.3156099954997 -16.2026362412984 43.40709
    vertex -35.7626428125922 -16.5695065930906 43.30709
  endloop
endfacet
facet normal .773010453362738 -.634393284163644 0
  outer loop
    vertex -34.9487396437075 -15.7556034242059 43.30709
    vertex -34.9487396437075 -15.7556034242059 43.40709
    vertex -35.3156099954997 -16.2026362412984 43.30709
  endloop
endfacet
facet normal .881921264348345 -.471396736826016 0
  outer loop
    vertex -34.6761303790917 -15.2455873622751 43.30709
    vertex -34.6761303790917 -15.2455873622751 43.40709
    vertex -34.9487396437075 -15.7556034242059 43.30709
  endloop
endfacet
facet normal .956940335732218 -.290284677254432 0
  outer loop
    vertex -34.5082584228105 -14.6921876867457 43.30709
    vertex -34.5082584228105 -14.6921876867457 43.40709
    vertex -34.6761303790917 -15.2455873622751 43.30709
  endloop
endfacet
facet normal .995184726672192 -9.80171403296093E-02 0
  outer loop
    vertex -34.451575 -14.1166712367981 43.30709
    vertex -34.451575 -14.1166712367981 43.40709
    vertex -34.5082584228105 -14.6921876867457 43.30709
  endloop
endfacet
facet normal 0 0 1
  outer loop
    vertex 51.3702421938425 19.8702421938425 43.30709
    vertex -51.3702421938425 -19.8702421938425 43.30709
    vertex 51.3702421938425 -19.8702421938425 43.30709
  endloop
endfacet
facet normal 0 0 1
  outer loop
    vertex 51.3702421938425 19.8702421938425 43.30709
    vertex -51.3702421938425 19.8702421938425 43.30709
    vertex -51.3702421938425 -19.8702421938425 43.30709
  endloop
endfacet
facet normal 0 0 -1
  outer loop
    vertex -51.3702421938425 -19.8702421938425 0
    vertex 51.3702421938425 19.8702421938425 0
    vertex 51.3702421938425 -19.8702421938425 0
  endloop
endfacet
facet normal 0 0 -1
  outer loop
    vertex 51.3702421938425 19.8702421938425 0
    vertex -51.3702421938425 -19.8702421938425 0
    vertex -51.3702421938425 19.8702421938425 0
  endloop
endfacet
facet normal .940166855114155 0 .340714373845249
  outer loop
    vertex 51.3702421938425 19.8702421938425 43.30709
    vertex 59 -27.5 22.253545
    vertex 59 27.5 22.253545
  endloop
endfacet
facet normal 0 -.940166855114155 .340714373845249
  outer loop
    vertex 51.3702421938425 -19.8702421938425 43.30709
    vertex -59 -27.5 22.253545
    vertex 59 -27.5 22.253545
  endloop
endfacet
facet normal -.940166855114155 0 .340714373845249
  outer loop
    vertex -51.3702421938425 -19.8702421938425 43.30709
    vertex -59 27.5 22.253545
    vertex -59 -27.5 22.253545
  endloop
endfacet
facet normal 0 .940166855114155 .340714373845249
  outer loop
    vertex -51.3702421938425 19.8702421938425 43.30709
    vertex 59 27.5 22.253545
    vertex -59 27.5 22.253545
  endloop
endfacet
facet normal 1 0 0
  outer loop
    vertex 59 27.5 22.253545
    vertex 59 -27.5 15.053545
    vertex 59 27.5 15.053545
  endloop
endfacet
facet normal 0 -1 0
  outer loop
    vertex 59 -27.5 22.253545
    vertex -59 -27.5 15.053545
    vertex 59 -27.5 15.053545
  endloop
endfacet
facet normal -1 0 0
  outer loop
    vertex -59 -27.5 22.253545
    vertex -59 27.5 15.053545
    vertex -59 -27.5 15.053545
  endloop
endfacet
facet normal 0 1 0
  outer loop
    vertex -59 27.5 22.253545
    vertex 59 27.5 15.053545
    vertex -59 27.5 15.053545
  endloop
endfacet
facet normal .891972978756849 0 -.452088713824659
  outer loop
    vertex 59 27.5 15.053545
    vertex 51.3702421938425 -19.8702421938425 0
    vertex 51.3702421938425 19.8702421938425 0
  endloop
endfacet
facet normal 0 -.891972978756849 -.452088713824659
  outer loop
    vertex 59 -27.5 15.053545
    vertex -51.3702421938425 -19.8702421938425 0
    vertex 51.3702421938425 -19.8702421938425 0
  endloop
endfacet
facet normal -.891972978756849 0 -.452088713824659
  outer loop
    vertex -59 -27.5 15.053545
    vertex -51.3702421938425 19.8702421938425 0
    vertex -51.3702421938425 -19.8702421938425 0
  endloop
endfacet
facet normal 0 .891972978756849 -.452088713824659
  outer loop
    vertex -59 27.5 15.053545
    vertex 51.3702421938425 19.8702421938425 0
    vertex -51.3702421938425 19.8702421938425 0
  endloop
endfacet
facet normal .940166855114155 0 .340714373845249
  outer loop
    vertex 51.3702421938425 19.8702421938425 43.30709
    vertex 51.3702421938425 -19.8702421938425 43.30709
    vertex 59 -27.5 22.253545
  endloop
endfacet
facet normal 0 -.940166855114155 .340714373845249
  outer loop
    vertex 51.3702421938425 -19.8702421938425 43.30709
    vertex -51.3702421938425 -19.8702421938425 43.30709
    vertex -59 -27.5 22.253545
  endloop
endfacet
facet normal -.940166855114155 0 .340714373845249
  outer loop
    vertex -51.3702421938425 -19.8702421938425 43.30709
    vertex -51.3702421938425 19.8702421938425 43.30709
    vertex -59 27.5 22.253545
  endloop
endfacet
facet normal 0 .940166855114155 .340714373845249
  outer loop
    vertex -51.3702421938425 19.8702421938425 43.30709
    vertex 51.3702421938425 19.8702421938425 43.30709
    vertex 59 27.5 22.253545
  endloop
endfacet
facet normal 1 0 0
  outer loop
    vertex 59 27.5 22.253545
    vertex 59 -27.5 22.253545
    vertex 59 -27.5 15.053545
  endloop
endfacet
facet normal 0 -1 0
  outer loop
    vertex 59 -27.5 22.253545
    vertex -59 -27.5 22.253545
    vertex -59 -27.5 15.053545
  endloop
endfacet
facet normal -1 0 0
  outer loop
    vertex -59 -27.5 22.253545
    vertex -59 27.5 22.253545
    vertex -59 27.5 15.053545
  endloop
endfacet
facet normal 0 1 0
  outer loop
    vertex -59 27.5 22.253545
    vertex 59 27.5 22.253545
    vertex 59 27.5 15.053545
  endloop
endfacet
facet normal .891972978756849 0 -.452088713824659
  outer loop
    vertex 59 27.5 15.053545
    vertex 59 -27.5 15.053545
    vertex 51.3702421938425 -19.8702421938425 0
  endloop
endfacet
facet normal 0 -.891972978756849 -.452088713824659
  outer loop
    vertex 59 -27.5 15.053545
    vertex -59 -27.5 15.053545
    vertex -51.3702421938425 -19.8702421938425 0
  endloop
endfacet
facet normal -.891972978756849 0 -.452088713824659
  outer loop
    vertex -59 -27.5 15.053545
    vertex -59 27.5 15.053545
    vertex -51.3702421938425 19.8702421938425 0
  endloop
endfacet
facet normal 0 .891972978756849 -.452088713824659
  outer loop
    vertex -59 27.5 15.053545
    vertex 59 27.5 15.053545
    vertex 51.3702421938425 19.8702421938425 0
  endloop
endfacet
facet normal 0 -1 0
  outer loop
    vertex 27.901575 -49 6
    vertex 27.901575 -49 0
    vertex 46.901575 -49 0
  endloop
endfacet
facet normal 0 -1 0
  outer loop
    vertex 27.901575 -49 6
    vertex 46.901575 -49 0
    vertex 46.901575 -49 6
  endloop
endfacet
facet normal 0 1 0
  outer loop
    vertex 46.901575 -27.5 21.653545
    vertex 46.901575 -27.5 15.653545
    vertex 27.901575 -27.5 15.653545
  endloop
endfacet
facet normal 0 1 0
  outer loop
    vertex 46.901575 -27.5 21.653545
    vertex 27.901575 -27.5 15.653545
    vertex 27.901575 -27.5 21.653545
  endloop
endfacet
facet normal -1 0 0
  outer loop
    vertex 27.901575 -27.5 15.653545
    vertex 27.901575 -30.7054084262042 15.653545
    vertex 27.901575 -33.7054084262042 21.653545
  endloop
endfacet
facet normal -1 0 0
  outer loop
    vertex 27.901575 -30.7054084262042 15.653545
    vertex 27.901575 -38.5375 0
    vertex 27.901575 -41.5375 6
  endloop
endfacet
facet normal -1 0 0
  outer loop
    vertex 27.901575 -38.5375 0
    vertex 27.901575 -49 0
    vertex 27.901575 -49 6
  endloop
endfacet
facet normal -1 0 0
  outer loop
    vertex 27.901575 -27.5 15.653545
    vertex 27.901575 -33.7054084262042 21.653545
    vertex 27.901575 -27.5 21.653545
  endloop
endfacet
facet normal -1 0 0
  outer loop
    vertex 27.901575 -30.7054084262042 15.653545
    vertex 27.901575 -41.5375 6
    vertex 27.901575 -33.7054084262042 21.653545
  endloop
endfacet
facet normal -1 0 0
  outer loop
    vertex 27.901575 -38.5375 0
    vertex 27.901575 -49 6
    vertex 27.901575 -41.5375 6
  endloop
endfacet
facet normal 1 0 0
  outer loop
    vertex 46.901575 -27.5 15.653545
    vertex 46.901575 -33.7054084262042 21.653545
    vertex 46.901575 -30.7054084262042 15.653545
  endloop
endfacet
facet normal 1 0 0
  outer loop
    vertex 46.901575 -30.7054084262042 15.653545
    vertex 46.901575 -41.5375 6
    vertex 46.901575 -38.5375 0
  endloop
endfacet
facet normal 1 0 0
  outer loop
    vertex 46.901575 -38.5375 0
    vertex 46.901575 -49 6
    vertex 46.901575 -49 0
  endloop
endfacet
facet normal 1 0 0
  outer loop
    vertex 46.901575 -27.5 15.653545
    vertex 46.901575 -27.5 21.653545
    vertex 46.901575 -33.7054084262042 21.653545
  endloop
endfacet
facet normal 1 0 0
  outer loop
    vertex 46.901575 -30.7054084262042 15.653545
    vertex 46.901575 -33.7054084262042 21.653545
    vertex 46.901575 -41.5375 6
  endloop
endfacet
facet normal 1 0 0
  outer loop
    vertex 46.901575 -38.5375 0
    vertex 46.901575 -41.5375 6
    vertex 46.901575 -49 6
  endloop
endfacet
facet normal 0 0 1
  outer loop
    vertex 27.901575 -27.5 21.653545
    vertex 27.901575 -33.7054084262042 21.653545
    vertex 46.901575 -33.7054084262042 21.653545
  endloop
endfacet
facet normal 0 -.894305603961655 .447456686979623
  outer loop
    vertex 27.901575 -33.7054084262042 21.653545
    vertex 27.901575 -41.5375 6
    vertex 46.901575 -41.5375 6
  endloop
endfacet
facet normal 0 0 1
  outer loop
    vertex 27.901575 -41.5375 6
    vertex 27.901575 -49 6
    vertex 46.901575 -49 6
  endloop
endfacet
facet normal 0 0 1
  outer loop
    vertex 27.901575 -27.5 21.653545
    vertex 46.901575 -33.7054084262042 21.653545
    vertex 46.901575 -27.5 21.653545
  endloop
endfacet
facet normal 0 -.894305603961655 .447456686979623
  outer loop
    vertex 27.901575 -33.7054084262042 21.653545
    vertex 46.901575 -41.5375 6
    vertex 46.901575 -33.7054084262042 21.653545
  endloop
endfacet
facet normal 0 0 1
  outer loop
    vertex 27.901575 -41.5375 6
    vertex 46.901575 -49 6
    vertex 46.901575 -41.5375 6
  endloop
endfacet
facet normal 0 0 -1
  outer loop
    vertex 27.901575 -27.5 15.653545
    vertex 46.901575 -30.7054084262042 15.653545
    vertex 27.901575 -30.7054084262042 15.653545
  endloop
endfacet
facet normal 0 .894305603961655 -.447456686979623
  outer loop
    vertex 27.901575 -30.7054084262042 15.653545
    vertex 46.901575 -38.5375 0
    vertex 27.901575 -38.5375 0
  endloop
endfacet
facet normal 0 0 -1
  outer loop
    vertex 27.901575 -38.5375 0
    vertex 46.901575 -49 0
    vertex 27.901575 -49 0
  endloop
endfacet
facet normal 0 0 -1
  outer loop
    vertex 27.901575 -27.5 15.653545
    vertex 46.901575 -27.5 15.653545
    vertex 46.901575 -30.7054084262042 15.653545
  endloop
endfacet
facet normal 0 .894305603961655 -.447456686979623
  outer loop
    vertex 27.901575 -30.7054084262042 15.653545
    vertex 46.901575 -30.7054084262042 15.653545
    vertex 46.901575 -38.5375 0
  endloop
endfacet
facet normal 0 0 -1
  outer loop
    vertex 27.901575 -38.5375 0
    vertex 46.901575 -38.5375 0
    vertex 46.901575 -49 0
  endloop
endfacet
facet normal 0 -1 0
  outer loop
    vertex -46.901575 -49 6
    vertex -46.901575 -49 0
    vertex -27.901575 -49 0
  endloop
endfacet
facet normal 0 -1 0
  outer loop
    vertex -46.901575 -49 6
    vertex -27.901575 -49 0
    vertex -27.901575 -49 6
  endloop
endfacet
facet normal 0 1 0
  outer loop
    vertex -27.901575 -27.5 21.653545
    vertex -27.901575 -27.5 15.653545
    vertex -46.901575 -27.5 15.653545
  endloop
endfacet
facet normal 0 1 0
  outer loop
    vertex -27.901575 -27.5 21.653545
    vertex -46.901575 -27.5 15.653545
    vertex -46.901575 -27.5 21.653545
  endloop
endfacet
facet normal -1 0 0
  outer loop
    vertex -46.901575 -27.5 15.653545
    vertex -46.901575 -30.7054084262042 15.653545
    vertex -46.901575 -33.7054084262042 21.653545
  endloop
endfacet
facet normal -1 0 0
  outer loop
    vertex -46.901575 -30.7054084262042 15.653545
    vertex -46.901575 -38.5375 0
    vertex -46.901575 -41.5375 6
  endloop
endfacet
facet normal -1 0 0
  outer loop
    vertex -46.901575 -38.5375 0
    vertex -46.901575 -49 0
    vertex -46.901575 -49 6
  endloop
endfacet
facet normal -1 0 0
  outer loop
    vertex -46.901575 -27.5 15.653545
    vertex -46.901575 -33.7054084262042 21.653545
    vertex -46.901575 -27.5 21.653545
  endloop
endfacet
facet normal -1 0 0
  outer loop
    vertex -46.901575 -30.7054084262042 15.653545
    vertex -46.901575 -41.5375 6
    vertex -46.901575 -33.7054084262042 21.653545
  endloop
endfacet
facet normal -1 0 0
  outer loop
    vertex -46.901575 -38.5375 0
    vertex -46.901575 -49 6
    vertex -46.901575 -41.5375 6
  endloop
endfacet
facet normal 1 0 0
  outer loop
    vertex -27.901575 -27.5 15.653545
    vertex -27.901575 -33.7054084262042 21.653545
    vertex -27.901575 -30.7054084262042 15.653545
  endloop
endfacet
facet normal 1 0 0
  outer loop
    vertex -27.901575 -30.7054084262042 15.653545
    vertex -27.901575 -41.5375 6
    vertex -27.901575 -38.5375 0
  endloop
endfacet
facet normal 1 0 0
  outer loop
    vertex -27.901575 -38.5375 0
    vertex -27.901575 -49 6
    vertex -27.901575 -49 0
  endloop
endfacet
facet normal 1 0 0
  outer loop
    vertex -27.901575 -27.5 15.653545
    vertex -27.901575 -27.5 21.653545
    vertex -27.901575 -33.7054084262042 21.653545
  endloop
endfacet
facet normal 1 0 0
  outer loop
    vertex -27.901575 -30.7054084262042 15.653545
    vertex -27.901575 -33.7054084262042 21.653545
    vertex -27.901575 -41.5375 6
  endloop
endfacet
facet normal 1 0 0
  outer loop
    vertex -27.901575 -38.5375 0
    vertex -27.901575 -41.5375 6
    vertex -27.901575 -49 6
  endloop
endfacet
facet normal 0 0 1
  outer loop
    vertex -46.901575 -27.5 21.653545
    vertex -46.901575 -33.7054084262042 21.653545
    vertex -27.901575 -33.7054084262042 21.653545
  endloop
endfacet
facet normal 0 -.894305603961655 .447456686979623
  outer loop
    vertex -46.901575 -33.7054084262042 21.653545
    vertex -46.901575 -41.5375 6
    vertex -27.901575 -41.5375 6
  endloop
endfacet
facet normal 0 0 1
  outer loop
    vertex -46.901575 -41.5375 6
    vertex -46.901575 -49 6
    vertex -27.901575 -49 6
  endloop
endfacet
facet normal 0 0 1
  outer loop
    vertex -46.901575 -27.5 21.653545
    vertex -27.901575 -33.7054084262042 21.653545
    vertex -27.901575 -27.5 21.653545
  endloop
endfacet
facet normal 0 -.894305603961655 .447456686979623
  outer loop
    vertex -46.901575 -33.7054084262042 21.653545
    vertex -27.901575 -41.5375 6
    vertex -27.901575 -33.7054084262042 21.653545
  endloop
endfacet
facet normal 0 0 1
  outer loop
    vertex -46.901575 -41.5375 6
    vertex -27.901575 -49 6
    vertex -27.901575 -41.5375 6
  endloop
endfacet
facet normal 0 0 -1
  outer loop
    vertex -46.901575 -27.5 15.653545
    vertex -27.901575 -30.7054084262042 15.653545
    vertex -46.901575 -30.7054084262042 15.653545
  endloop
endfacet
facet normal 0 .894305603961655 -.447456686979623
  outer loop
    vertex -46.901575 -30.7054084262042 15.653545
    vertex -27.901575 -38.5375 0
    vertex -46.901575 -38.5375 0
  endloop
endfacet
facet normal 0 0 -1
  outer loop
    vertex -46.901575 -38.5375 0
    vertex -27.901575 -49 0
    vertex -46.901575 -49 0
  endloop
endfacet
facet normal 0 0 -1
  outer loop
    vertex -46.901575 -27.5 15.653545
    vertex -27.901575 -27.5 15.653545
    vertex -27.901575 -30.7054084262042 15.653545
  endloop
endfacet
facet normal 0 .894305603961655 -.447456686979623
  outer loop
    vertex -46.901575 -30.7054084262042 15.653545
    vertex -27.901575 -30.7054084262042 15.653545
    vertex -27.901575 -38.5375 0
  endloop
endfacet
facet normal 0 0 -1
  outer loop
    vertex -46.901575 -38.5375 0
    vertex -27.901575 -38.5375 0
    vertex -27.901575 -49 0
  endloop
endfacet
facet normal 0 1 0
  outer loop
    vertex 9.5 49 6
    vertex 9.5 49 0
    vertex -9.5 49 0
  endloop
endfacet
facet normal 0 1 0
  outer loop
    vertex 9.5 49 6
    vertex -9.5 49 0
    vertex -9.5 49 6
  endloop
endfacet
facet normal 0 -1 0
  outer loop
    vertex -9.5 27.5 21.653545
    vertex -9.5 27.5 15.653545
    vertex 9.49999999999999 27.5 15.653545
  endloop
endfacet
facet normal 0 -1 0
  outer loop
    vertex -9.5 27.5 21.653545
    vertex 9.49999999999999 27.5 15.653545
    vertex 9.49999999999999 27.5 21.653545
  endloop
endfacet
facet normal 1 -3.32504929770298E-15 1.66252464885149E-15
  outer loop
    vertex 9.49999999999999 27.5 15.653545
    vertex 9.5 30.7054084262042 15.653545
    vertex 9.5 33.7054084262042 21.653545
  endloop
endfacet
facet normal 1 1.77575343847207E-15 8.88480120164218E-16
  outer loop
    vertex 9.5 30.7054084262042 15.653545
    vertex 9.5 38.5375 0
    vertex 9.49999999999999 41.5375 6
  endloop
endfacet
facet normal 1 0 0
  outer loop
    vertex 9.5 38.5375 0
    vertex 9.5 49 0
    vertex 9.5 49 6
  endloop
endfacet
facet normal 1 -1.71755673508843E-15 0
  outer loop
    vertex 9.49999999999999 27.5 15.653545
    vertex 9.5 33.7054084262042 21.653545
    vertex 9.49999999999999 27.5 21.653545
  endloop
endfacet
facet normal 1 6.80645862060792E-16 -3.40322931030396E-16
  outer loop
    vertex 9.5 30.7054084262042 15.653545
    vertex 9.49999999999999 41.5375 6
    vertex 9.5 33.7054084262042 21.653545
  endloop
endfacet
facet normal 1 -1.42822660454292E-15 2.49047014167171E-15
  outer loop
    vertex 9.5 38.5375 0
    vertex 9.5 49 6
    vertex 9.49999999999999 41.5375 6
  endloop
endfacet
facet normal -1 3.32504929770298E-15 -5.21523832765199E-15
  outer loop
    vertex -9.5 27.5 15.653545
    vertex -9.50000000000001 33.7054084262042 21.653545
    vertex -9.49999999999999 30.7054084262042 15.653545
  endloop
endfacet
facet normal -1 -6.80645862060792E-16 3.40322931030396E-16
  outer loop
    vertex -9.49999999999999 30.7054084262042 15.653545
    vertex -9.5 41.5375 6
    vertex -9.5 38.5375 0
  endloop
endfacet
facet normal -1 0 0
  outer loop
    vertex -9.5 38.5375 0
    vertex -9.5 49 6
    vertex -9.5 49 0
  endloop
endfacet
facet normal -1 -1.71755673508843E-15 0
  outer loop
    vertex -9.5 27.5 15.653545
    vertex -9.5 27.5 21.653545
    vertex -9.50000000000001 33.7054084262042 21.653545
  endloop
endfacet
facet normal -1 -2.87086101488334E-15 -2.11728317135883E-15
  outer loop
    vertex -9.49999999999999 30.7054084262042 15.653545
    vertex -9.50000000000001 33.7054084262042 21.653545
    vertex -9.5 41.5375 6
  endloop
endfacet
facet normal -1 0 0
  outer loop
    vertex -9.5 38.5375 0
    vertex -9.5 41.5375 6
    vertex -9.5 49 6
  endloop
endfacet
facet normal 0 0 1
  outer loop
    vertex 9.49999999999999 27.5 21.653545
    vertex 9.5 33.7054084262042 21.653545
    vertex -9.50000000000001 33.7054084262042 21.653545
  endloop
endfacet
facet normal 0 .894305603961655 .447456686979623
  outer loop
    vertex 9.5 33.7054084262042 21.653545
    vertex 9.49999999999999 41.5375 6
    vertex -9.5 41.5375 6
  endloop
endfacet
facet normal 0 0 1
  outer loop
    vertex 9.49999999999999 41.5375 6
    vertex 9.5 49 6
    vertex -9.5 49 6
  endloop
endfacet
facet normal 0 0 1
  outer loop
    vertex 9.49999999999999 27.5 21.653545
    vertex -9.50000000000001 33.7054084262042 21.653545
    vertex -9.5 27.5 21.653545
  endloop
endfacet
facet normal 0 .894305603961655 .447456686979623
  outer loop
    vertex 9.5 33.7054084262042 21.653545
    vertex -9.5 41.5375 6
    vertex -9.50000000000001 33.7054084262042 21.653545
  endloop
endfacet
facet normal 0 0 1
  outer loop
    vertex 9.49999999999999 41.5375 6
    vertex -9.5 49 6
    vertex -9.5 41.5375 6
  endloop
endfacet
facet normal 0 0 -1
  outer loop
    vertex 9.49999999999999 27.5 15.653545
    vertex -9.49999999999999 30.7054084262042 15.653545
    vertex 9.5 30.7054084262042 15.653545
  endloop
endfacet
facet normal 0 -.894305603961655 -.447456686979623
  outer loop
    vertex 9.5 30.7054084262042 15.653545
    vertex -9.5 38.5375 0
    vertex 9.5 38.5375 0
  endloop
endfacet
facet normal 0 0 -1
  outer loop
    vertex 9.5 38.5375 0
    vertex -9.5 49 0
    vertex 9.5 49 0
  endloop
endfacet
facet normal 0 0 -1
  outer loop
    vertex 9.49999999999999 27.5 15.653545
    vertex -9.5 27.5 15.653545
    vertex -9.49999999999999 30.7054084262042 15.653545
  endloop
endfacet
facet normal 0 -.894305603961655 -.447456686979623
  outer loop
    vertex 9.5 30.7054084262042 15.653545
    vertex -9.49999999999999 30.7054084262042 15.653545
    vertex -9.5 38.5375 0
  endloop
endfacet
facet normal 0 0 -1
  outer loop
    vertex 9.5 38.5375 0
    vertex -9.5 38.5375 0
    vertex -9.5 49 0
  endloop
endfacet
endsolid SOT23-L
