solid U2-K-M
facet normal 0 0 1
  outer loop
    vertex 0 0 305
    vertex -123.5 0 305
    vertex -121.126982129799 -24.0936547689918 305
  endloop
endfacet
facet normal 0 0 1
  outer loop
    vertex 0 0 305
    vertex -121.126982129799 -24.0936547689918 305
    vertex -114.099122265144 -47.2614038970886 305
  endloop
endfacet
facet normal 0 0 1
  outer loop
    vertex 0 0 305
    vertex -114.099122265144 -47.2614038970886 305
    vertex -102.686497119364 -68.6129237779209 305
  endloop
endfacet
facet normal 0 0 1
  outer loop
    vertex 0 0 305
    vertex -102.686497119364 -68.6129237779209 305
    vertex -87.3276874765386 -87.3276874765386 305
  endloop
endfacet
facet normal 0 0 1
  outer loop
    vertex 0 0 305
    vertex -87.3276874765386 -87.3276874765386 305
    vertex -68.6129237779209 -102.686497119364 305
  endloop
endfacet
facet normal 0 0 1
  outer loop
    vertex 0 0 305
    vertex -68.6129237779209 -102.686497119364 305
    vertex -47.2614038970886 -114.099122265144 305
  endloop
endfacet
facet normal 0 0 1
  outer loop
    vertex 0 0 305
    vertex -47.2614038970886 -114.099122265144 305
    vertex -24.0936547689919 -121.126982129799 305
  endloop
endfacet
facet normal 0 0 1
  outer loop
    vertex 0 0 305
    vertex -24.0936547689919 -121.126982129799 305
    vertex -7.56219398473491E-15 -123.5 305
  endloop
endfacet
facet normal 0 0 1
  outer loop
    vertex 0 0 305
    vertex -7.56219398473491E-15 -123.5 305
    vertex 24.0936547689919 -121.126982129799 305
  endloop
endfacet
facet normal 0 0 1
  outer loop
    vertex 0 0 305
    vertex 24.0936547689919 -121.126982129799 305
    vertex 47.2614038970886 -114.099122265144 305
  endloop
endfacet
facet normal 0 0 1
  outer loop
    vertex 0 0 305
    vertex 47.2614038970886 -114.099122265144 305
    vertex 68.6129237779209 -102.686497119364 305
  endloop
endfacet
facet normal 0 0 1
  outer loop
    vertex 0 0 305
    vertex 68.6129237779209 -102.686497119364 305
    vertex 87.3276874765386 -87.3276874765386 305
  endloop
endfacet
facet normal 0 0 1
  outer loop
    vertex 0 0 305
    vertex 87.3276874765386 -87.3276874765386 305
    vertex 102.686497119364 -68.6129237779209 305
  endloop
endfacet
facet normal 0 0 1
  outer loop
    vertex 0 0 305
    vertex 102.686497119364 -68.6129237779209 305
    vertex 114.099122265144 -47.2614038970886 305
  endloop
endfacet
facet normal 0 0 1
  outer loop
    vertex 0 0 305
    vertex 114.099122265144 -47.2614038970886 305
    vertex 121.126982129799 -24.0936547689918 305
  endloop
endfacet
facet normal 0 0 1
  outer loop
    vertex 0 0 305
    vertex 121.126982129799 -24.0936547689918 305
    vertex 123.5 0 305
  endloop
endfacet
facet normal 0 0 1
  outer loop
    vertex 0 0 305
    vertex 123.5 0 305
    vertex 121.126982129799 24.0936547689918 305
  endloop
endfacet
facet normal 0 0 1
  outer loop
    vertex 0 0 305
    vertex 121.126982129799 24.0936547689918 305
    vertex 114.099122265144 47.2614038970886 305
  endloop
endfacet
facet normal 0 0 1
  outer loop
    vertex 0 0 305
    vertex 114.099122265144 47.2614038970886 305
    vertex 102.686497119364 68.6129237779209 305
  endloop
endfacet
facet normal 0 0 1
  outer loop
    vertex 0 0 305
    vertex 102.686497119364 68.6129237779209 305
    vertex 87.3276874765386 87.3276874765386 305
  endloop
endfacet
facet normal 0 0 1
  outer loop
    vertex 0 0 305
    vertex 87.3276874765386 87.3276874765386 305
    vertex 68.6129237779209 102.686497119364 305
  endloop
endfacet
facet normal 0 0 1
  outer loop
    vertex 0 0 305
    vertex 68.6129237779209 102.686497119364 305
    vertex 47.2614038970886 114.099122265144 305
  endloop
endfacet
facet normal 0 0 1
  outer loop
    vertex 0 0 305
    vertex 47.2614038970886 114.099122265144 305
    vertex 24.0936547689919 121.126982129799 305
  endloop
endfacet
facet normal 0 0 1
  outer loop
    vertex 0 0 305
    vertex 24.0936547689919 121.126982129799 305
    vertex 7.56219398473491E-15 123.5 305
  endloop
endfacet
facet normal 0 0 1
  outer loop
    vertex 0 0 305
    vertex 7.56219398473491E-15 123.5 305
    vertex -24.0936547689919 121.126982129799 305
  endloop
endfacet
facet normal 0 0 1
  outer loop
    vertex 0 0 305
    vertex -24.0936547689919 121.126982129799 305
    vertex -47.2614038970886 114.099122265144 305
  endloop
endfacet
facet normal 0 0 1
  outer loop
    vertex 0 0 305
    vertex -47.2614038970886 114.099122265144 305
    vertex -68.6129237779209 102.686497119364 305
  endloop
endfacet
facet normal 0 0 1
  outer loop
    vertex 0 0 305
    vertex -68.6129237779209 102.686497119364 305
    vertex -87.3276874765386 87.3276874765386 305
  endloop
endfacet
facet normal 0 0 1
  outer loop
    vertex 0 0 305
    vertex -87.3276874765386 87.3276874765386 305
    vertex -102.686497119364 68.6129237779209 305
  endloop
endfacet
facet normal 0 0 1
  outer loop
    vertex 0 0 305
    vertex -102.686497119364 68.6129237779209 305
    vertex -114.099122265144 47.2614038970886 305
  endloop
endfacet
facet normal 0 0 1
  outer loop
    vertex 0 0 305
    vertex -114.099122265144 47.2614038970886 305
    vertex -121.126982129799 24.0936547689918 305
  endloop
endfacet
facet normal 0 0 1
  outer loop
    vertex 0 0 305
    vertex -121.126982129799 24.0936547689918 305
    vertex -123.5 0 305
  endloop
endfacet
facet normal -.995184726672197 -.098017140329559 0
  outer loop
    vertex -123.5 0 305
    vertex -121.126982129799 -24.0936547689918 32.31
    vertex -121.126982129799 -24.0936547689918 305
  endloop
endfacet
facet normal -.995184726672197 -.098017140329559 0
  outer loop
    vertex -123.5 0 305
    vertex -123.5 0 32.31
    vertex -121.126982129799 -24.0936547689918 32.31
  endloop
endfacet
facet normal -.95694033573221 -.29028467725446 0
  outer loop
    vertex -121.126982129799 -24.0936547689918 305
    vertex -114.099122265144 -47.2614038970886 32.31
    vertex -114.099122265144 -47.2614038970886 305
  endloop
endfacet
facet normal -.95694033573221 -.29028467725446 0
  outer loop
    vertex -121.126982129799 -24.0936547689918 305
    vertex -121.126982129799 -24.0936547689918 32.31
    vertex -114.099122265144 -47.2614038970886 32.31
  endloop
endfacet
facet normal -.881921264348348 -.471396736826011 0
  outer loop
    vertex -114.099122265144 -47.2614038970886 305
    vertex -102.686497119364 -68.6129237779209 62.6
    vertex -102.686497119364 -68.6129237779209 305
  endloop
endfacet
facet normal -.881921264348348 -.471396736826011 0
  outer loop
    vertex -114.099122265144 -47.2614038970886 305
    vertex -114.099122265144 -47.2614038970886 62.6
    vertex -102.686497119364 -68.6129237779209 62.6
  endloop
endfacet
facet normal -.773010453362743 -.634393284163639 0
  outer loop
    vertex -102.686497119364 -68.6129237779209 305
    vertex -87.3276874765386 -87.3276874765386 62.6
    vertex -87.3276874765386 -87.3276874765386 305
  endloop
endfacet
facet normal -.773010453362743 -.634393284163639 0
  outer loop
    vertex -102.686497119364 -68.6129237779209 305
    vertex -102.686497119364 -68.6129237779209 62.6
    vertex -87.3276874765386 -87.3276874765386 62.6
  endloop
endfacet
facet normal -.634393284163639 -.773010453362743 0
  outer loop
    vertex -87.3276874765386 -87.3276874765386 305
    vertex -68.6129237779209 -102.686497119364 62.6
    vertex -68.6129237779209 -102.686497119364 305
  endloop
endfacet
facet normal -.634393284163639 -.773010453362743 0
  outer loop
    vertex -87.3276874765386 -87.3276874765386 305
    vertex -87.3276874765386 -87.3276874765386 62.6
    vertex -68.6129237779209 -102.686497119364 62.6
  endloop
endfacet
facet normal -.471396736826011 -.881921264348348 0
  outer loop
    vertex -68.6129237779209 -102.686497119364 305
    vertex -47.2614038970886 -114.099122265144 62.6
    vertex -47.2614038970886 -114.099122265144 305
  endloop
endfacet
facet normal -.471396736826011 -.881921264348348 0
  outer loop
    vertex -68.6129237779209 -102.686497119364 305
    vertex -68.6129237779209 -102.686497119364 62.6
    vertex -47.2614038970886 -114.099122265144 62.6
  endloop
endfacet
facet normal -.290284677254461 -.956940335732209 0
  outer loop
    vertex -47.2614038970886 -114.099122265144 305
    vertex -24.0936547689919 -121.126982129799 32.31
    vertex -24.0936547689919 -121.126982129799 305
  endloop
endfacet
facet normal -.290284677254461 -.956940335732209 0
  outer loop
    vertex -47.2614038970886 -114.099122265144 305
    vertex -47.2614038970886 -114.099122265144 32.31
    vertex -24.0936547689919 -121.126982129799 32.31
  endloop
endfacet
facet normal -9.80171403295586E-02 -.995184726672197 0
  outer loop
    vertex -24.0936547689919 -121.126982129799 305
    vertex -7.56219398473491E-15 -123.5 32.31
    vertex -7.56219398473491E-15 -123.5 305
  endloop
endfacet
facet normal -9.80171403295586E-02 -.995184726672197 0
  outer loop
    vertex -24.0936547689919 -121.126982129799 305
    vertex -24.0936547689919 -121.126982129799 32.31
    vertex -7.56219398473491E-15 -123.5 32.31
  endloop
endfacet
facet normal 9.80171403295586E-02 -.995184726672197 0
  outer loop
    vertex -7.56219398473491E-15 -123.5 305
    vertex 24.0936547689919 -121.126982129799 32.31
    vertex 24.0936547689919 -121.126982129799 305
  endloop
endfacet
facet normal 9.80171403295586E-02 -.995184726672197 0
  outer loop
    vertex -7.56219398473491E-15 -123.5 305
    vertex -7.56219398473491E-15 -123.5 32.31
    vertex 24.0936547689919 -121.126982129799 32.31
  endloop
endfacet
facet normal .290284677254461 -.956940335732209 0
  outer loop
    vertex 24.0936547689919 -121.126982129799 305
    vertex 47.2614038970886 -114.099122265144 32.31
    vertex 47.2614038970886 -114.099122265144 305
  endloop
endfacet
facet normal .290284677254461 -.956940335732209 0
  outer loop
    vertex 24.0936547689919 -121.126982129799 305
    vertex 24.0936547689919 -121.126982129799 32.31
    vertex 47.2614038970886 -114.099122265144 32.31
  endloop
endfacet
facet normal .471396736826011 -.881921264348348 0
  outer loop
    vertex 47.2614038970886 -114.099122265144 305
    vertex 68.6129237779209 -102.686497119364 62.6
    vertex 68.6129237779209 -102.686497119364 305
  endloop
endfacet
facet normal .471396736826011 -.881921264348348 0
  outer loop
    vertex 47.2614038970886 -114.099122265144 305
    vertex 47.2614038970886 -114.099122265144 62.6
    vertex 68.6129237779209 -102.686497119364 62.6
  endloop
endfacet
facet normal .634393284163639 -.773010453362743 0
  outer loop
    vertex 68.6129237779209 -102.686497119364 305
    vertex 87.3276874765386 -87.3276874765386 62.6
    vertex 87.3276874765386 -87.3276874765386 305
  endloop
endfacet
facet normal .634393284163639 -.773010453362743 0
  outer loop
    vertex 68.6129237779209 -102.686497119364 305
    vertex 68.6129237779209 -102.686497119364 62.6
    vertex 87.3276874765386 -87.3276874765386 62.6
  endloop
endfacet
facet normal .773010453362743 -.634393284163639 0
  outer loop
    vertex 87.3276874765386 -87.3276874765386 305
    vertex 102.686497119364 -68.6129237779209 62.6
    vertex 102.686497119364 -68.6129237779209 305
  endloop
endfacet
facet normal .773010453362743 -.634393284163639 0
  outer loop
    vertex 87.3276874765386 -87.3276874765386 305
    vertex 87.3276874765386 -87.3276874765386 62.6
    vertex 102.686497119364 -68.6129237779209 62.6
  endloop
endfacet
facet normal .881921264348348 -.471396736826011 0
  outer loop
    vertex 102.686497119364 -68.6129237779209 305
    vertex 114.099122265144 -47.2614038970886 62.6
    vertex 114.099122265144 -47.2614038970886 305
  endloop
endfacet
facet normal .881921264348348 -.471396736826011 0
  outer loop
    vertex 102.686497119364 -68.6129237779209 305
    vertex 102.686497119364 -68.6129237779209 62.6
    vertex 114.099122265144 -47.2614038970886 62.6
  endloop
endfacet
facet normal .95694033573221 -.29028467725446 0
  outer loop
    vertex 114.099122265144 -47.2614038970886 305
    vertex 121.126982129799 -24.0936547689918 32.31
    vertex 121.126982129799 -24.0936547689918 305
  endloop
endfacet
facet normal .95694033573221 -.29028467725446 0
  outer loop
    vertex 114.099122265144 -47.2614038970886 305
    vertex 114.099122265144 -47.2614038970886 32.31
    vertex 121.126982129799 -24.0936547689918 32.31
  endloop
endfacet
facet normal .995184726672197 -.098017140329559 0
  outer loop
    vertex 121.126982129799 -24.0936547689918 305
    vertex 123.5 0 32.31
    vertex 123.5 0 305
  endloop
endfacet
facet normal .995184726672197 -.098017140329559 0
  outer loop
    vertex 121.126982129799 -24.0936547689918 305
    vertex 121.126982129799 -24.0936547689918 32.31
    vertex 123.5 0 32.31
  endloop
endfacet
facet normal .995184726672197 .098017140329559 0
  outer loop
    vertex 123.5 0 305
    vertex 121.126982129799 24.0936547689918 32.31
    vertex 121.126982129799 24.0936547689918 305
  endloop
endfacet
facet normal .995184726672197 .098017140329559 0
  outer loop
    vertex 123.5 0 305
    vertex 123.5 0 32.31
    vertex 121.126982129799 24.0936547689918 32.31
  endloop
endfacet
facet normal .95694033573221 .29028467725446 0
  outer loop
    vertex 121.126982129799 24.0936547689918 305
    vertex 114.099122265144 47.2614038970886 32.31
    vertex 114.099122265144 47.2614038970886 305
  endloop
endfacet
facet normal .95694033573221 .29028467725446 0
  outer loop
    vertex 121.126982129799 24.0936547689918 305
    vertex 121.126982129799 24.0936547689918 32.31
    vertex 114.099122265144 47.2614038970886 32.31
  endloop
endfacet
facet normal .881921264348348 .471396736826011 0
  outer loop
    vertex 114.099122265144 47.2614038970886 305
    vertex 102.686497119364 68.6129237779209 62.6
    vertex 102.686497119364 68.6129237779209 305
  endloop
endfacet
facet normal .881921264348348 .471396736826011 0
  outer loop
    vertex 114.099122265144 47.2614038970886 305
    vertex 114.099122265144 47.2614038970886 62.6
    vertex 102.686497119364 68.6129237779209 62.6
  endloop
endfacet
facet normal .773010453362743 .634393284163639 0
  outer loop
    vertex 102.686497119364 68.6129237779209 305
    vertex 87.3276874765386 87.3276874765386 62.6
    vertex 87.3276874765386 87.3276874765386 305
  endloop
endfacet
facet normal .773010453362743 .634393284163639 0
  outer loop
    vertex 102.686497119364 68.6129237779209 305
    vertex 102.686497119364 68.6129237779209 62.6
    vertex 87.3276874765386 87.3276874765386 62.6
  endloop
endfacet
facet normal .634393284163639 .773010453362743 0
  outer loop
    vertex 87.3276874765386 87.3276874765386 305
    vertex 68.6129237779209 102.686497119364 62.6
    vertex 68.6129237779209 102.686497119364 305
  endloop
endfacet
facet normal .634393284163639 .773010453362743 0
  outer loop
    vertex 87.3276874765386 87.3276874765386 305
    vertex 87.3276874765386 87.3276874765386 62.6
    vertex 68.6129237779209 102.686497119364 62.6
  endloop
endfacet
facet normal .471396736826011 .881921264348348 0
  outer loop
    vertex 68.6129237779209 102.686497119364 305
    vertex 47.2614038970886 114.099122265144 62.6
    vertex 47.2614038970886 114.099122265144 305
  endloop
endfacet
facet normal .471396736826011 .881921264348348 0
  outer loop
    vertex 68.6129237779209 102.686497119364 305
    vertex 68.6129237779209 102.686497119364 62.6
    vertex 47.2614038970886 114.099122265144 62.6
  endloop
endfacet
facet normal .290284677254461 .956940335732209 0
  outer loop
    vertex 47.2614038970886 114.099122265144 305
    vertex 24.0936547689919 121.126982129799 32.31
    vertex 24.0936547689919 121.126982129799 305
  endloop
endfacet
facet normal .290284677254461 .956940335732209 0
  outer loop
    vertex 47.2614038970886 114.099122265144 305
    vertex 47.2614038970886 114.099122265144 32.31
    vertex 24.0936547689919 121.126982129799 32.31
  endloop
endfacet
facet normal 9.80171403295586E-02 .995184726672197 0
  outer loop
    vertex 24.0936547689919 121.126982129799 305
    vertex 7.56219398473491E-15 123.5 32.31
    vertex 7.56219398473491E-15 123.5 305
  endloop
endfacet
facet normal 9.80171403295586E-02 .995184726672197 0
  outer loop
    vertex 24.0936547689919 121.126982129799 305
    vertex 24.0936547689919 121.126982129799 32.31
    vertex 7.56219398473491E-15 123.5 32.31
  endloop
endfacet
facet normal -9.80171403295586E-02 .995184726672197 0
  outer loop
    vertex 7.56219398473491E-15 123.5 305
    vertex -24.0936547689919 121.126982129799 32.31
    vertex -24.0936547689919 121.126982129799 305
  endloop
endfacet
facet normal -9.80171403295586E-02 .995184726672197 0
  outer loop
    vertex 7.56219398473491E-15 123.5 305
    vertex 7.56219398473491E-15 123.5 32.31
    vertex -24.0936547689919 121.126982129799 32.31
  endloop
endfacet
facet normal -.290284677254461 .956940335732209 0
  outer loop
    vertex -24.0936547689919 121.126982129799 305
    vertex -47.2614038970886 114.099122265144 32.31
    vertex -47.2614038970886 114.099122265144 305
  endloop
endfacet
facet normal -.290284677254461 .956940335732209 0
  outer loop
    vertex -24.0936547689919 121.126982129799 305
    vertex -24.0936547689919 121.126982129799 32.31
    vertex -47.2614038970886 114.099122265144 32.31
  endloop
endfacet
facet normal -.471396736826011 .881921264348348 0
  outer loop
    vertex -47.2614038970886 114.099122265144 305
    vertex -68.6129237779209 102.686497119364 62.6
    vertex -68.6129237779209 102.686497119364 305
  endloop
endfacet
facet normal -.471396736826011 .881921264348348 0
  outer loop
    vertex -47.2614038970886 114.099122265144 305
    vertex -47.2614038970886 114.099122265144 62.6
    vertex -68.6129237779209 102.686497119364 62.6
  endloop
endfacet
facet normal -.634393284163639 .773010453362743 0
  outer loop
    vertex -68.6129237779209 102.686497119364 305
    vertex -87.3276874765386 87.3276874765386 62.6
    vertex -87.3276874765386 87.3276874765386 305
  endloop
endfacet
facet normal -.634393284163639 .773010453362743 0
  outer loop
    vertex -68.6129237779209 102.686497119364 305
    vertex -68.6129237779209 102.686497119364 62.6
    vertex -87.3276874765386 87.3276874765386 62.6
  endloop
endfacet
facet normal -.773010453362743 .634393284163639 0
  outer loop
    vertex -87.3276874765386 87.3276874765386 305
    vertex -102.686497119364 68.6129237779209 62.6
    vertex -102.686497119364 68.6129237779209 305
  endloop
endfacet
facet normal -.773010453362743 .634393284163639 0
  outer loop
    vertex -87.3276874765386 87.3276874765386 305
    vertex -87.3276874765386 87.3276874765386 62.6
    vertex -102.686497119364 68.6129237779209 62.6
  endloop
endfacet
facet normal -.881921264348348 .471396736826011 0
  outer loop
    vertex -102.686497119364 68.6129237779209 305
    vertex -114.099122265144 47.2614038970886 62.6
    vertex -114.099122265144 47.2614038970886 305
  endloop
endfacet
facet normal -.881921264348348 .471396736826011 0
  outer loop
    vertex -102.686497119364 68.6129237779209 305
    vertex -102.686497119364 68.6129237779209 62.6
    vertex -114.099122265144 47.2614038970886 62.6
  endloop
endfacet
facet normal -.95694033573221 .29028467725446 0
  outer loop
    vertex -114.099122265144 47.2614038970886 305
    vertex -121.126982129799 24.0936547689918 32.31
    vertex -121.126982129799 24.0936547689918 305
  endloop
endfacet
facet normal -.95694033573221 .29028467725446 0
  outer loop
    vertex -114.099122265144 47.2614038970886 305
    vertex -114.099122265144 47.2614038970886 32.31
    vertex -121.126982129799 24.0936547689918 32.31
  endloop
endfacet
facet normal -.995184726672197 .098017140329559 0
  outer loop
    vertex -121.126982129799 24.0936547689918 305
    vertex -123.5 0 32.31
    vertex -123.5 0 305
  endloop
endfacet
facet normal -.995184726672197 .098017140329559 0
  outer loop
    vertex -121.126982129799 24.0936547689918 305
    vertex -121.126982129799 24.0936547689918 32.31
    vertex -123.5 0 32.31
  endloop
endfacet
facet normal 0 0 1
  outer loop
    vertex -47.2614038970886 -130 62.6
    vertex -47.2614038970886 -114.099122265144 62.6
    vertex -88.6307019485443 -130 62.6
  endloop
endfacet
facet normal 0 0 1
  outer loop
    vertex -88.6307019485443 -130 62.6
    vertex -47.2614038970886 -114.099122265144 62.6
    vertex -68.6129237779209 -102.686497119364 62.6
  endloop
endfacet
facet normal 0 0 1
  outer loop
    vertex -88.6307019485443 -130 62.6
    vertex -68.6129237779209 -102.686497119364 62.6
    vertex -87.3276874765386 -87.3276874765386 62.6
  endloop
endfacet
facet normal 0 0 1
  outer loop
    vertex -88.6307019485443 -130 62.6
    vertex -87.3276874765386 -87.3276874765386 62.6
    vertex -130 -88.6307019485443 62.6
  endloop
endfacet
facet normal 0 0 1
  outer loop
    vertex -130 -88.6307019485443 62.6
    vertex -87.3276874765386 -87.3276874765386 62.6
    vertex -102.686497119364 -68.6129237779209 62.6
  endloop
endfacet
facet normal 0 0 1
  outer loop
    vertex -130 -88.6307019485443 62.6
    vertex -102.686497119364 -68.6129237779209 62.6
    vertex -114.099122265144 -47.2614038970886 62.6
  endloop
endfacet
facet normal 0 0 1
  outer loop
    vertex -130 -88.6307019485443 62.6
    vertex -114.099122265144 -47.2614038970886 62.6
    vertex -130 -47.2614038970886 62.6
  endloop
endfacet
facet normal 0 0 1
  outer loop
    vertex -130 47.2614038970886 62.6
    vertex -114.099122265144 47.2614038970886 62.6
    vertex -130 88.6307019485443 62.6
  endloop
endfacet
facet normal 0 0 1
  outer loop
    vertex -130 88.6307019485443 62.6
    vertex -114.099122265144 47.2614038970886 62.6
    vertex -102.686497119364 68.6129237779209 62.6
  endloop
endfacet
facet normal 0 0 1
  outer loop
    vertex -130 88.6307019485443 62.6
    vertex -102.686497119364 68.6129237779209 62.6
    vertex -87.3276874765386 87.3276874765386 62.6
  endloop
endfacet
facet normal 0 0 1
  outer loop
    vertex -130 88.6307019485443 62.6
    vertex -87.3276874765386 87.3276874765386 62.6
    vertex -88.6307019485443 130 62.6
  endloop
endfacet
facet normal 0 0 1
  outer loop
    vertex -88.6307019485443 130 62.6
    vertex -87.3276874765386 87.3276874765386 62.6
    vertex -68.6129237779209 102.686497119364 62.6
  endloop
endfacet
facet normal 0 0 1
  outer loop
    vertex -88.6307019485443 130 62.6
    vertex -68.6129237779209 102.686497119364 62.6
    vertex -47.2614038970886 114.099122265144 62.6
  endloop
endfacet
facet normal 0 0 1
  outer loop
    vertex -88.6307019485443 130 62.6
    vertex -47.2614038970886 114.099122265144 62.6
    vertex -47.2614038970886 130 62.6
  endloop
endfacet
facet normal 0 0 1
  outer loop
    vertex 130 130 62.6
    vertex 47.2614038970886 130 62.6
    vertex 47.2614038970886 114.099122265144 62.6
  endloop
endfacet
facet normal 0 0 1
  outer loop
    vertex 130 130 62.6
    vertex 47.2614038970886 114.099122265144 62.6
    vertex 68.6129237779209 102.686497119364 62.6
  endloop
endfacet
facet normal 0 0 1
  outer loop
    vertex 130 130 62.6
    vertex 68.6129237779209 102.686497119364 62.6
    vertex 87.3276874765386 87.3276874765386 62.6
  endloop
endfacet
facet normal 0 0 1
  outer loop
    vertex 130 130 62.6
    vertex 87.3276874765386 87.3276874765386 62.6
    vertex 102.686497119364 68.6129237779209 62.6
  endloop
endfacet
facet normal 0 0 1
  outer loop
    vertex 130 130 62.6
    vertex 102.686497119364 68.6129237779209 62.6
    vertex 114.099122265144 47.2614038970886 62.6
  endloop
endfacet
facet normal 0 0 1
  outer loop
    vertex 130 130 62.6
    vertex 114.099122265144 47.2614038970886 62.6
    vertex 130 47.2614038970886 62.6
  endloop
endfacet
facet normal 0 0 1
  outer loop
    vertex 130 -130 62.6
    vertex 130 -47.2614038970886 62.6
    vertex 114.099122265144 -47.2614038970886 62.6
  endloop
endfacet
facet normal 0 0 1
  outer loop
    vertex 130 -130 62.6
    vertex 114.099122265144 -47.2614038970886 62.6
    vertex 102.686497119364 -68.6129237779209 62.6
  endloop
endfacet
facet normal 0 0 1
  outer loop
    vertex 130 -130 62.6
    vertex 102.686497119364 -68.6129237779209 62.6
    vertex 87.3276874765386 -87.3276874765386 62.6
  endloop
endfacet
facet normal 0 0 1
  outer loop
    vertex 130 -130 62.6
    vertex 87.3276874765386 -87.3276874765386 62.6
    vertex 68.6129237779209 -102.686497119364 62.6
  endloop
endfacet
facet normal 0 0 1
  outer loop
    vertex 130 -130 62.6
    vertex 68.6129237779209 -102.686497119364 62.6
    vertex 47.2614038970886 -114.099122265144 62.6
  endloop
endfacet
facet normal 0 0 1
  outer loop
    vertex 130 -130 62.6
    vertex 47.2614038970886 -114.099122265144 62.6
    vertex 47.2614038970886 -130 62.6
  endloop
endfacet
facet normal 0 0 -1
  outer loop
    vertex 130 130 2
    vertex -130 88.6307019485443 2
    vertex -88.6307019485443 130 2
  endloop
endfacet
facet normal 0 0 -1
  outer loop
    vertex 130 130 2
    vertex -130 -88.6307019485443 2
    vertex -130 88.6307019485443 2
  endloop
endfacet
facet normal 0 0 -1
  outer loop
    vertex 130 130 2
    vertex -88.6307019485443 -130 2
    vertex -130 -88.6307019485443 2
  endloop
endfacet
facet normal 0 0 -1
  outer loop
    vertex 130 130 2
    vertex 130 -130 2
    vertex -88.6307019485443 -130 2
  endloop
endfacet
facet normal -1 0 0
  outer loop
    vertex -130 88.6307019485443 62.6
    vertex -130 88.6307019485443 2
    vertex -130 47.2614038970886 62.6
  endloop
endfacet
facet normal -1 0 0
  outer loop
    vertex -130 47.2614038970886 62.6
    vertex -130 88.6307019485443 2
    vertex -130 47.2614038970886 32.3
  endloop
endfacet
facet normal -1 0 0
  outer loop
    vertex -130 88.6307019485443 2
    vertex -130 -47.2614038970886 32.3
    vertex -130 47.2614038970886 32.3
  endloop
endfacet
facet normal -1 0 0
  outer loop
    vertex -130 88.6307019485443 2
    vertex -130 -88.6307019485443 2
    vertex -130 -47.2614038970886 32.3
  endloop
endfacet
facet normal -1 0 0
  outer loop
    vertex -130 -88.6307019485443 2
    vertex -130 -88.6307019485443 62.6
    vertex -130 -47.2614038970886 32.3
  endloop
endfacet
facet normal -1 0 0
  outer loop
    vertex -130 -47.2614038970886 62.6
    vertex -130 -47.2614038970886 32.3
    vertex -130 -88.6307019485443 62.6
  endloop
endfacet
facet normal 0 1 0
  outer loop
    vertex 130 130 62.6
    vertex 130 130 2
    vertex 47.2614038970886 130 62.6
  endloop
endfacet
facet normal 0 1 0
  outer loop
    vertex 130 130 2
    vertex 47.2614038970886 130 32.3
    vertex 47.2614038970886 130 62.6
  endloop
endfacet
facet normal 0 1 0
  outer loop
    vertex 130 130 2
    vertex -47.2614038970886 130 32.3
    vertex 47.2614038970886 130 32.3
  endloop
endfacet
facet normal 0 1 0
  outer loop
    vertex 130 130 2
    vertex -88.6307019485443 130 2
    vertex -47.2614038970886 130 32.3
  endloop
endfacet
facet normal 0 1 0
  outer loop
    vertex -88.6307019485443 130 2
    vertex -88.6307019485443 130 62.6
    vertex -47.2614038970886 130 32.3
  endloop
endfacet
facet normal 0 1 0
  outer loop
    vertex -47.2614038970886 130 62.6
    vertex -47.2614038970886 130 32.3
    vertex -88.6307019485443 130 62.6
  endloop
endfacet
facet normal 1 0 0
  outer loop
    vertex 130 -130 62.6
    vertex 130 -130 2
    vertex 130 -47.2614038970886 62.6
  endloop
endfacet
facet normal 1 0 0
  outer loop
    vertex 130 -130 2
    vertex 130 -47.2614038970886 32.3
    vertex 130 -47.2614038970886 62.6
  endloop
endfacet
facet normal 1 0 0
  outer loop
    vertex 130 -130 2
    vertex 130 47.2614038970886 32.3
    vertex 130 -47.2614038970886 32.3
  endloop
endfacet
facet normal 1 0 0
  outer loop
    vertex 130 -130 2
    vertex 130 130 2
    vertex 130 47.2614038970886 32.3
  endloop
endfacet
facet normal 1 0 0
  outer loop
    vertex 130 130 2
    vertex 130 130 62.6
    vertex 130 47.2614038970886 32.3
  endloop
endfacet
facet normal 1 0 0
  outer loop
    vertex 130 47.2614038970886 62.6
    vertex 130 47.2614038970886 32.3
    vertex 130 130 62.6
  endloop
endfacet
facet normal 0 -1 0
  outer loop
    vertex -88.6307019485443 -130 62.6
    vertex -88.6307019485443 -130 2
    vertex -47.2614038970886 -130 62.6
  endloop
endfacet
facet normal 0 -1 0
  outer loop
    vertex -88.6307019485443 -130 2
    vertex -47.2614038970886 -130 32.3
    vertex -47.2614038970886 -130 62.6
  endloop
endfacet
facet normal 0 -1 0
  outer loop
    vertex -88.6307019485443 -130 2
    vertex 47.2614038970886 -130 32.3
    vertex -47.2614038970886 -130 32.3
  endloop
endfacet
facet normal 0 -1 0
  outer loop
    vertex -88.6307019485443 -130 2
    vertex 130 -130 2
    vertex 47.2614038970886 -130 32.3
  endloop
endfacet
facet normal 0 -1 0
  outer loop
    vertex 130 -130 2
    vertex 130 -130 62.6
    vertex 47.2614038970886 -130 32.3
  endloop
endfacet
facet normal 0 -1 0
  outer loop
    vertex 47.2614038970886 -130 62.6
    vertex 47.2614038970886 -130 32.3
    vertex 130 -130 62.6
  endloop
endfacet
facet normal -.707106781186548 -.707106781186548 0
  outer loop
    vertex -130 -88.6307019485443 62.6
    vertex -88.6307019485443 -130 2
    vertex -88.6307019485443 -130 62.6
  endloop
endfacet
facet normal -.707106781186548 -.707106781186548 0
  outer loop
    vertex -130 -88.6307019485443 62.6
    vertex -130 -88.6307019485443 2
    vertex -88.6307019485443 -130 2
  endloop
endfacet
facet normal -.707106781186548 .707106781186548 0
  outer loop
    vertex -88.6307019485443 130 62.6
    vertex -130 88.6307019485443 2
    vertex -130 88.6307019485443 62.6
  endloop
endfacet
facet normal -.707106781186548 .707106781186548 0
  outer loop
    vertex -88.6307019485443 130 62.6
    vertex -88.6307019485443 130 2
    vertex -130 88.6307019485443 2
  endloop
endfacet
facet normal 0 1 0
  outer loop
    vertex -114.099122265144 -47.2614038970886 62.6
    vertex -114.099122265144 -47.2614038970886 32.31
    vertex -130 -47.2614038970886 62.6
  endloop
endfacet
facet normal 0 1 0
  outer loop
    vertex -114.099122265144 -47.2614038970886 32.31
    vertex -130 -47.2614038970886 32.3
    vertex -130 -47.2614038970886 62.6
  endloop
endfacet
facet normal 0 -1 0
  outer loop
    vertex -130 47.2614038970886 62.6
    vertex -114.099122265144 47.2614038970886 32.31
    vertex -114.099122265144 47.2614038970886 62.6
  endloop
endfacet
facet normal 0 -1 0
  outer loop
    vertex -114.099122265144 47.2614038970886 32.31
    vertex -130 47.2614038970886 62.6
    vertex -130 47.2614038970886 32.3
  endloop
endfacet
facet normal 1 0 0
  outer loop
    vertex -47.2614038970886 114.099122265144 62.6
    vertex -47.2614038970886 114.099122265144 32.31
    vertex -47.2614038970886 130 62.6
  endloop
endfacet
facet normal 1 0 0
  outer loop
    vertex -47.2614038970886 114.099122265144 32.31
    vertex -47.2614038970886 130 32.3
    vertex -47.2614038970886 130 62.6
  endloop
endfacet
facet normal -1 0 0
  outer loop
    vertex 47.2614038970886 130 62.6
    vertex 47.2614038970886 114.099122265144 32.31
    vertex 47.2614038970886 114.099122265144 62.6
  endloop
endfacet
facet normal -1 0 0
  outer loop
    vertex 47.2614038970886 114.099122265144 32.31
    vertex 47.2614038970886 130 62.6
    vertex 47.2614038970886 130 32.3
  endloop
endfacet
facet normal 0 -1 0
  outer loop
    vertex 114.099122265144 47.2614038970886 62.6
    vertex 114.099122265144 47.2614038970886 32.31
    vertex 130 47.2614038970886 62.6
  endloop
endfacet
facet normal 0 -1 0
  outer loop
    vertex 114.099122265144 47.2614038970886 32.31
    vertex 130 47.2614038970886 32.3
    vertex 130 47.2614038970886 62.6
  endloop
endfacet
facet normal 0 1 0
  outer loop
    vertex 130 -47.2614038970886 62.6
    vertex 114.099122265144 -47.2614038970886 32.31
    vertex 114.099122265144 -47.2614038970886 62.6
  endloop
endfacet
facet normal 0 1 0
  outer loop
    vertex 114.099122265144 -47.2614038970886 32.31
    vertex 130 -47.2614038970886 62.6
    vertex 130 -47.2614038970886 32.3
  endloop
endfacet
facet normal -1 0 0
  outer loop
    vertex 47.2614038970886 -114.099122265144 62.6
    vertex 47.2614038970886 -114.099122265144 32.31
    vertex 47.2614038970886 -130 62.6
  endloop
endfacet
facet normal -1 0 0
  outer loop
    vertex 47.2614038970886 -114.099122265144 32.31
    vertex 47.2614038970886 -130 32.3
    vertex 47.2614038970886 -130 62.6
  endloop
endfacet
facet normal 1 0 0
  outer loop
    vertex -47.2614038970886 -130 62.6
    vertex -47.2614038970886 -114.099122265144 32.31
    vertex -47.2614038970886 -114.099122265144 62.6
  endloop
endfacet
facet normal 1 0 0
  outer loop
    vertex -47.2614038970886 -114.099122265144 32.31
    vertex -47.2614038970886 -130 62.6
    vertex -47.2614038970886 -130 32.3
  endloop
endfacet
facet normal 1.90773505184626E-04 6.28895964564319E-04 .999999784047644
  outer loop
    vertex 47.2614038970886 130 32.3
    vertex 24.0936547689919 121.126982129799 32.31
    vertex 47.2614038970886 114.099122265144 32.31
  endloop
endfacet
facet normal 8.82947185136416E-05 8.96471321394984E-04 .999999594271524
  outer loop
    vertex 47.2614038970886 130 32.3
    vertex 7.56219398473491E-15 123.5 32.31
    vertex 24.0936547689919 121.126982129799 32.31
  endloop
endfacet
facet normal -8.82947185136416E-05 8.96471321394984E-04 .999999594271524
  outer loop
    vertex -47.2614038970886 130 32.3
    vertex -24.0936547689919 121.126982129799 32.31
    vertex 7.56219398473491E-15 123.5 32.31
  endloop
endfacet
facet normal -1.90773505184626E-04 6.28895964564319E-04 .999999784047644
  outer loop
    vertex -47.2614038970886 130 32.3
    vertex -47.2614038970886 114.099122265144 32.31
    vertex -24.0936547689919 121.126982129799 32.31
  endloop
endfacet
facet normal 0 1.53845971780101E-03 .999998816570148
  outer loop
    vertex 47.2614038970886 130 32.3
    vertex -47.2614038970886 130 32.3
    vertex 7.56219398473491E-15 123.5 32.31
  endloop
endfacet
facet normal -6.28895964564319E-04 1.90773505184625E-04 .999999784047644
  outer loop
    vertex -130 47.2614038970886 32.3
    vertex -121.126982129799 24.0936547689918 32.31
    vertex -114.099122265144 47.2614038970886 32.31
  endloop
endfacet
facet normal -8.96471321394982E-04 8.82947185136418E-05 .999999594271524
  outer loop
    vertex -130 47.2614038970886 32.3
    vertex -123.5 0 32.31
    vertex -121.126982129799 24.0936547689918 32.31
  endloop
endfacet
facet normal -8.96471321394982E-04 -8.82947185136418E-05 .999999594271524
  outer loop
    vertex -130 -47.2614038970886 32.3
    vertex -121.126982129799 -24.0936547689918 32.31
    vertex -123.5 0 32.31
  endloop
endfacet
facet normal -6.28895964564319E-04 -1.90773505184625E-04 .999999784047644
  outer loop
    vertex -130 -47.2614038970886 32.3
    vertex -114.099122265144 -47.2614038970886 32.31
    vertex -121.126982129799 -24.0936547689918 32.31
  endloop
endfacet
facet normal -1.53845971780101E-03 0 .999998816570148
  outer loop
    vertex -130 47.2614038970886 32.3
    vertex -130 -47.2614038970886 32.3
    vertex -123.5 0 32.31
  endloop
endfacet
facet normal -1.90773505184626E-04 -6.28895964564319E-04 .999999784047644
  outer loop
    vertex -47.2614038970886 -130 32.3
    vertex -24.0936547689919 -121.126982129799 32.31
    vertex -47.2614038970886 -114.099122265144 32.31
  endloop
endfacet
facet normal -8.82947185136416E-05 -8.96471321394984E-04 .999999594271524
  outer loop
    vertex -47.2614038970886 -130 32.3
    vertex -7.56219398473491E-15 -123.5 32.31
    vertex -24.0936547689919 -121.126982129799 32.31
  endloop
endfacet
facet normal 8.82947185136416E-05 -8.96471321394984E-04 .999999594271524
  outer loop
    vertex 47.2614038970886 -130 32.3
    vertex 24.0936547689919 -121.126982129799 32.31
    vertex -7.56219398473491E-15 -123.5 32.31
  endloop
endfacet
facet normal 1.90773505184626E-04 -6.28895964564319E-04 .999999784047644
  outer loop
    vertex 47.2614038970886 -130 32.3
    vertex 47.2614038970886 -114.099122265144 32.31
    vertex 24.0936547689919 -121.126982129799 32.31
  endloop
endfacet
facet normal 0 -1.53845971780101E-03 .999998816570148
  outer loop
    vertex -47.2614038970886 -130 32.3
    vertex 47.2614038970886 -130 32.3
    vertex -7.56219398473491E-15 -123.5 32.31
  endloop
endfacet
facet normal 6.28895964564319E-04 -1.90773505184625E-04 .999999784047644
  outer loop
    vertex 130 -47.2614038970886 32.3
    vertex 121.126982129799 -24.0936547689918 32.31
    vertex 114.099122265144 -47.2614038970886 32.31
  endloop
endfacet
facet normal 8.96471321394982E-04 -8.82947185136418E-05 .999999594271524
  outer loop
    vertex 130 -47.2614038970886 32.3
    vertex 123.5 0 32.31
    vertex 121.126982129799 -24.0936547689918 32.31
  endloop
endfacet
facet normal 8.96471321394982E-04 8.82947185136418E-05 .999999594271524
  outer loop
    vertex 130 47.2614038970886 32.3
    vertex 121.126982129799 24.0936547689918 32.31
    vertex 123.5 0 32.31
  endloop
endfacet
facet normal 6.28895964564319E-04 1.90773505184625E-04 .999999784047644
  outer loop
    vertex 130 47.2614038970886 32.3
    vertex 114.099122265144 47.2614038970886 32.31
    vertex 121.126982129799 24.0936547689918 32.31
  endloop
endfacet
facet normal 1.53845971780101E-03 0 .999998816570148
  outer loop
    vertex 130 -47.2614038970886 32.3
    vertex 130 47.2614038970886 32.3
    vertex 123.5 0 32.31
  endloop
endfacet
facet normal 1 0 0
  outer loop
    vertex 138 -16 0
    vertex 138 16 10
    vertex 138 -16 10
  endloop
endfacet
facet normal 1 0 0
  outer loop
    vertex 138 -16 0
    vertex 138 16 0
    vertex 138 16 10
  endloop
endfacet
facet normal 0 1 0
  outer loop
    vertex 138 16 10
    vertex 138 16 0
    vertex 130 16 10
  endloop
endfacet
facet normal 0 1 0
  outer loop
    vertex 130 16 10
    vertex 138 16 0
    vertex 130 16 2
  endloop
endfacet
facet normal 0 1 0
  outer loop
    vertex 130 16 2
    vertex 138 16 0
    vertex 51 16 2
  endloop
endfacet
facet normal 0 1 0
  outer loop
    vertex 51 16 0
    vertex 51 16 2
    vertex 138 16 0
  endloop
endfacet
facet normal -1 0 0
  outer loop
    vertex 51 16 0
    vertex 51 -16 2
    vertex 51 16 2
  endloop
endfacet
facet normal -1 0 0
  outer loop
    vertex 51 16 0
    vertex 51 -16 0
    vertex 51 -16 2
  endloop
endfacet
facet normal 0 -1 0
  outer loop
    vertex 130 -16 2
    vertex 51 -16 2
    vertex 51 -16 0
  endloop
endfacet
facet normal 0 -1 0
  outer loop
    vertex 130 -16 2
    vertex 51 -16 0
    vertex 138 -16 0
  endloop
endfacet
facet normal 0 -1 0
  outer loop
    vertex 130 -16 2
    vertex 138 -16 10
    vertex 130 -16 10
  endloop
endfacet
facet normal 0 -1 0
  outer loop
    vertex 130 -16 2
    vertex 138 -16 0
    vertex 138 -16 10
  endloop
endfacet
facet normal -1 0 0
  outer loop
    vertex 130 16 10
    vertex 130 -16 2
    vertex 130 -16 10
  endloop
endfacet
facet normal -1 0 0
  outer loop
    vertex 130 16 10
    vertex 130 16 2
    vertex 130 -16 2
  endloop
endfacet
facet normal 0 0 1
  outer loop
    vertex 138 -16 10
    vertex 138 16 10
    vertex 130 -16 10
  endloop
endfacet
facet normal 0 0 1
  outer loop
    vertex 130 -16 10
    vertex 138 16 10
    vertex 130 16 10
  endloop
endfacet
facet normal 0 0 1
  outer loop
    vertex 130 -16 2
    vertex 130 16 2
    vertex 51 -16 2
  endloop
endfacet
facet normal 0 0 1
  outer loop
    vertex 130 16 2
    vertex 51 16 2
    vertex 51 -16 2
  endloop
endfacet
facet normal 0 0 -1
  outer loop
    vertex 138 -16 0
    vertex 51 -16 0
    vertex 138 16 0
  endloop
endfacet
facet normal 0 0 -1
  outer loop
    vertex 138 16 0
    vertex 51 -16 0
    vertex 51 16 0
  endloop
endfacet
facet normal -1 0 0
  outer loop
    vertex -138 16 0
    vertex -138 -16 10
    vertex -138 16 10
  endloop
endfacet
facet normal -1 0 0
  outer loop
    vertex -138 16 0
    vertex -138 -16 0
    vertex -138 -16 10
  endloop
endfacet
facet normal 0 -1 0
  outer loop
    vertex -138 -16 10
    vertex -138 -16 0
    vertex -130 -16 10
  endloop
endfacet
facet normal 0 -1 0
  outer loop
    vertex -130 -16 10
    vertex -138 -16 0
    vertex -130 -16 2
  endloop
endfacet
facet normal 0 -1 0
  outer loop
    vertex -130 -16 2
    vertex -138 -16 0
    vertex -51 -16 2
  endloop
endfacet
facet normal 0 -1 0
  outer loop
    vertex -51 -16 0
    vertex -51 -16 2
    vertex -138 -16 0
  endloop
endfacet
facet normal 1 0 0
  outer loop
    vertex -51 -16 0
    vertex -51 16 2
    vertex -51 -16 2
  endloop
endfacet
facet normal 1 0 0
  outer loop
    vertex -51 -16 0
    vertex -51 16 0
    vertex -51 16 2
  endloop
endfacet
facet normal 0 1 0
  outer loop
    vertex -130 16 2
    vertex -51 16 2
    vertex -51 16 0
  endloop
endfacet
facet normal 0 1 0
  outer loop
    vertex -130 16 2
    vertex -51 16 0
    vertex -138 16 0
  endloop
endfacet
facet normal 0 1 0
  outer loop
    vertex -130 16 2
    vertex -138 16 10
    vertex -130 16 10
  endloop
endfacet
facet normal 0 1 0
  outer loop
    vertex -130 16 2
    vertex -138 16 0
    vertex -138 16 10
  endloop
endfacet
facet normal 1 0 0
  outer loop
    vertex -130 -16 10
    vertex -130 16 2
    vertex -130 16 10
  endloop
endfacet
facet normal 1 0 0
  outer loop
    vertex -130 -16 10
    vertex -130 -16 2
    vertex -130 16 2
  endloop
endfacet
facet normal 0 0 1
  outer loop
    vertex -138 16 10
    vertex -138 -16 10
    vertex -130 16 10
  endloop
endfacet
facet normal 0 0 1
  outer loop
    vertex -130 16 10
    vertex -138 -16 10
    vertex -130 -16 10
  endloop
endfacet
facet normal 0 0 1
  outer loop
    vertex -130 16 2
    vertex -130 -16 2
    vertex -51 16 2
  endloop
endfacet
facet normal 0 0 1
  outer loop
    vertex -130 -16 2
    vertex -51 -16 2
    vertex -51 16 2
  endloop
endfacet
facet normal 0 0 -1
  outer loop
    vertex -138 16 0
    vertex -51 16 0
    vertex -138 -16 0
  endloop
endfacet
facet normal 0 0 -1
  outer loop
    vertex -138 -16 0
    vertex -51 16 0
    vertex -51 -16 0
  endloop
endfacet
endsolid U2-K-M
